<?xml version="1.0" standalone="no"?>
<!DOCTYPE svg PUBLIC "-//W3C//DTD SVG 20010904//EN"
 "http://www.w3.org/TR/2001/REC-SVG-20010904/DTD/svg10.dtd">
<svg version="1.0" xmlns="http://www.w3.org/2000/svg"
 width="3999.000000pt" height="3999.000000pt" viewBox="0 0 3999.000000 3999.000000"
 preserveAspectRatio="xMidYMid meet">
<metadata>
Created by potrace 1.14, written by Peter Selinger 2001-2017
</metadata>
<g transform="translate(0.000000,3999.000000) scale(0.100000,-0.100000)"
fill="#000000" stroke="none">
<path d="M3014 31439 c-5 -8 -3 -10 6 -4 9 5 11 4 6 -4 -6 -9 -11 -9 -22 0
-11 9 -14 8 -14 -2 0 -12 -2 -12 -9 0 -6 9 -11 10 -15 2 -5 -8 -13 -8 -29 1
-19 10 -20 9 -10 -4 10 -12 10 -14 -5 -13 -9 0 -23 4 -30 9 -6 4 -12 3 -12 -3
0 -5 -8 -8 -17 -6 -10 1 -24 -3 -32 -9 -11 -8 -13 -8 -7 1 5 9 2 11 -8 7 -9
-3 -14 -9 -12 -13 2 -3 -11 -6 -30 -5 -19 1 -36 -2 -39 -6 -3 -5 -17 -7 -31
-5 -20 2 -24 -1 -19 -14 5 -12 3 -13 -6 -4 -12 12 -49 2 -80 -24 -12 -10 -18
-10 -27 -1 -9 9 -12 8 -12 -7 0 -18 0 -18 -16 1 -8 10 -13 15 -11 9 3 -5 -1
-16 -9 -23 -8 -7 -14 -10 -14 -5 0 4 -7 -2 -16 -13 -8 -10 -13 -14 -10 -7 4 6
2 14 -4 18 -5 3 -10 -1 -10 -10 0 -17 -39 -36 -55 -27 -5 3 -7 2 -3 -3 11 -12
-29 -38 -45 -29 -6 4 -9 4 -5 0 4 -5 1 -14 -5 -21 -9 -10 -15 -10 -26 -1 -12
8 -13 8 -7 -2 9 -15 -16 -42 -40 -42 -10 0 -15 -3 -12 -6 8 -7 -28 -44 -43
-44 -5 0 -8 -4 -4 -9 3 -5 -8 -18 -24 -27 -17 -10 -28 -21 -25 -26 3 -4 0 -8
-5 -8 -6 0 -11 -7 -11 -16 0 -8 -4 -12 -10 -9 -9 6 -14 -8 -11 -28 1 -5 -3 -6
-8 -3 -5 3 -15 -2 -22 -11 -10 -11 -10 -14 -2 -9 9 5 11 2 7 -8 -3 -9 -10 -13
-15 -10 -5 3 -9 0 -9 -5 0 -19 -3 -25 -22 -45 -10 -11 -18 -25 -18 -32 0 -19
-26 -64 -33 -57 -4 3 -7 -6 -7 -20 0 -15 -4 -27 -9 -27 -6 0 -8 -9 -6 -20 2
-11 0 -20 -5 -20 -10 0 -32 -69 -25 -80 3 -4 -1 -13 -9 -19 -8 -7 -12 -21 -9
-31 3 -11 1 -20 -3 -20 -5 0 -10 -16 -11 -36 -1 -20 -7 -42 -13 -49 -8 -10 -8
-15 0 -20 8 -5 8 -10 0 -20 -6 -7 -10 -17 -9 -21 1 -5 1 -24 0 -42 -1 -24 -5
-31 -13 -26 -10 6 -10 4 -2 -7 12 -15 13 -54 1 -65 -3 -4 -2 -15 4 -25 5 -11
6 -19 2 -19 -4 0 -8 -4594 -8 -10210 0 -6800 3 -10210 10 -10210 6 0 3 -5 -5
-10 -8 -5 -10 -10 -5 -10 6 0 11 -21 11 -48 2 -94 9 -152 18 -152 4 0 2 -8 -5
-17 -11 -13 -11 -15 -1 -9 9 5 13 3 11 -5 -4 -30 1 -70 8 -66 5 3 9 -6 9 -19
1 -15 -2 -22 -10 -17 -6 3 -2 -4 9 -17 11 -13 14 -20 8 -16 -9 5 -11 2 -7 -8
3 -9 10 -14 15 -11 4 3 6 -4 4 -15 -2 -11 0 -20 6 -20 5 0 9 -5 9 -11 0 -5 -4
-8 -9 -5 -5 4 -4 -5 2 -19 7 -14 15 -25 19 -25 4 0 5 -7 2 -15 -4 -8 -1 -15 5
-15 6 0 11 -11 11 -25 0 -14 5 -25 10 -25 6 0 10 -7 10 -15 0 -8 6 -15 13 -15
9 0 9 -2 -1 -9 -11 -7 -10 -9 3 -15 9 -3 13 -10 10 -16 -3 -5 -2 -10 3 -10 5
0 17 -15 27 -34 11 -19 22 -33 26 -30 5 2 6 -4 4 -16 -2 -11 -1 -19 3 -17 10
3 52 -41 52 -53 0 -6 11 -15 24 -21 16 -8 22 -17 18 -27 -4 -11 -1 -14 10 -10
10 4 19 -2 26 -18 8 -15 17 -22 27 -18 10 4 15 2 13 -7 -2 -8 3 -13 9 -12 7 2
12 -3 10 -10 -1 -6 6 -11 15 -11 12 1 18 -5 18 -20 0 -17 2 -18 10 -6 6 10 10
11 10 3 0 -7 6 -13 14 -13 8 0 21 -9 29 -21 11 -15 16 -17 20 -7 4 8 6 7 6 -5
1 -10 5 -15 11 -12 5 3 22 -4 38 -15 16 -12 37 -23 48 -25 10 -2 20 -4 22 -5
1 -2 7 -3 12 -4 6 0 15 -8 20 -16 9 -13 10 -13 10 0 0 9 3 11 8 5 4 -5 16 -12
27 -13 11 -2 23 -9 26 -14 4 -6 14 -8 23 -5 9 4 16 1 16 -6 0 -8 4 -6 10 3 7
11 10 11 10 2 0 -7 4 -10 10 -7 5 3 10 1 10 -5 0 -6 5 -8 10 -5 5 3 10 1 10
-4 0 -6 5 -11 11 -11 5 0 7 5 3 11 -4 8 0 8 15 0 11 -7 21 -8 21 -4 0 4 6 -1
13 -12 10 -12 16 -15 21 -6 5 7 13 8 25 1 10 -5 21 -7 24 -3 4 3 13 0 21 -6
10 -9 16 -9 21 -1 5 8 11 8 21 -1 8 -6 25 -9 39 -7 18 4 25 1 25 -11 0 -13 2
-13 9 -2 6 9 11 10 15 2 5 -8 13 -8 26 -1 13 7 21 7 25 0 4 -7 1880 -10 5634
-10 5000 0 5630 2 5641 15 10 12 15 13 28 3 11 -10 16 -10 19 -2 2 7 13 9 25
6 16 -4 19 -2 13 9 -7 12 -6 12 7 1 12 -10 18 -10 23 -1 6 8 10 7 16 -2 7 -12
9 -12 9 0 0 7 6 11 15 7 8 -3 15 -1 15 3 0 5 10 7 22 3 12 -3 19 -1 15 4 -3 5
9 10 26 11 45 4 71 8 82 15 6 3 23 8 38 12 18 4 25 11 20 19 -5 9 -3 9 9 -1
13 -10 17 -10 22 3 3 9 10 14 15 11 10 -6 97 30 106 44 3 4 19 11 35 15 17 4
30 11 30 16 0 6 5 7 10 4 6 -3 10 -1 10 5 0 7 7 9 16 6 8 -3 12 -2 9 4 -6 9 8
14 28 11 5 -1 6 2 3 7 -3 5 6 14 19 20 14 7 25 16 25 22 0 5 5 10 12 10 7 0
23 12 35 27 13 14 23 23 23 19 0 -4 7 0 16 8 8 9 12 21 8 27 -4 7 -3 9 3 6 6
-4 19 1 29 9 11 9 12 13 4 9 -8 -3 -5 2 8 11 12 9 22 23 22 31 0 8 4 11 10 8
5 -3 12 6 16 20 3 13 10 22 15 19 5 -3 9 2 9 10 0 9 5 16 10 16 6 0 10 7 10
15 0 8 4 15 10 15 5 0 9 3 8 8 -2 10 35 85 46 93 5 4 6 14 3 23 -4 11 -1 16
11 16 13 0 14 2 3 9 -10 6 -10 10 -1 16 9 6 9 10 -1 16 -11 7 -10 9 4 9 16 0
22 16 18 49 -2 8 2 10 11 5 9 -5 8 -2 -2 11 -12 15 -12 17 -1 10 11 -6 13 -4
8 8 -3 9 -1 19 5 23 7 4 6 9 -3 15 -10 6 -10 9 -2 9 7 0 10 7 7 15 -4 9 0 15
7 15 11 0 11 3 -1 10 -8 5 -10 10 -5 10 6 0 10 17 10 38 -1 20 3 42 7 49 5 6
5 14 -2 18 -6 3 -8 11 -4 16 3 5 10 6 16 3 7 -4 8 -2 4 5 -4 6 -11 9 -16 6
-10 -6 -8 15 3 33 5 7 3 12 -5 12 -9 0 -9 3 2 10 10 6 11 10 3 10 -7 0 -13 5
-13 11 0 5 5 7 10 4 6 -3 10 -1 10 4 0 6 -4 11 -9 11 -9 0 -7 43 4 59 3 6 0
11 -7 11 -10 0 -10 2 1 9 9 6 11 15 6 27 -13 29 -10 68 4 59 6 -3 6 6 1 24 -5
17 -4 33 2 39 6 6 6 12 -3 17 -8 6 -10 4 -4 -5 5 -9 4 -11 -4 -6 -9 6 -9 11 0
22 9 11 9 18 -1 29 -11 13 -10 15 6 9 18 -5 18 -5 0 10 -12 10 -15 16 -7 16 8
0 11 6 7 15 -3 8 -1 15 5 15 6 0 7 5 4 10 -4 6 -11 8 -16 4 -6 -3 -5 4 3 15
11 18 11 23 -2 31 -12 8 -12 10 5 10 17 0 17 2 5 10 -8 5 -10 10 -3 10 12 0
12 17 0 38 -5 6 -5 12 0 12 10 0 9 52 -1 68 -4 7 -2 12 5 12 8 0 7 5 -2 17
-10 11 -10 14 -1 9 6 -4 12 -2 12 3 0 6 -4 11 -9 11 -6 0 -6 12 -2 28 5 15 5
36 1 47 -4 12 -3 23 4 27 7 5 6 8 -4 8 -13 0 -13 2 -1 9 12 8 12 12 2 25 -8 9
-9 16 -5 16 5 0 8 17 6 37 -1 21 -3 43 -2 48 0 6 1 39 3 75 2 36 0 75 -5 88
-4 13 -4 21 1 18 4 -3 7 42 6 99 -2 77 0 103 9 98 6 -3 2 3 -8 15 -11 13 -14
22 -7 22 12 0 9 39 -5 61 -4 8 -3 9 4 5 8 -5 10 7 7 39 -4 32 -1 45 7 45 8 0
9 3 3 8 -16 11 -17 95 -2 85 8 -4 7 -1 -2 10 -7 9 -11 23 -8 31 3 8 1 17 -6
20 -7 2 -7 5 -2 5 6 1 9 21 8 46 -1 33 2 43 10 38 7 -4 7 -1 -1 10 -8 9 -11
20 -8 26 4 5 -2 12 -11 14 -13 3 -14 5 -3 6 13 1 15 22 14 130 -1 70 -5 134
-9 141 -5 8 -4 11 2 7 7 -4 9 30 8 98 -2 77 0 103 9 98 6 -3 2 3 -8 15 -11 13
-14 22 -7 22 12 0 9 39 -5 61 -4 8 -3 9 4 5 8 -5 10 7 7 39 -4 32 -1 45 7 45
8 0 9 3 3 8 -16 11 -17 95 -2 85 8 -4 7 -1 -2 10 -7 9 -11 23 -8 31 3 8 1 17
-6 20 -7 2 -7 5 -2 5 6 1 9 21 8 46 -1 33 2 43 10 38 7 -4 7 -1 -1 10 -8 9
-11 20 -8 26 4 5 -2 12 -11 14 -17 4 -17 5 -1 6 15 1 17 7 12 37 -4 28 -3 34
8 28 10 -6 11 -5 1 7 -6 8 -10 37 -9 64 1 28 -2 56 -7 63 -5 6 -6 12 -1 12 11
0 10 51 0 68 -4 7 -2 12 5 12 8 0 7 5 -2 17 -10 11 -10 14 -1 9 6 -4 12 -2 12
3 0 6 -4 11 -9 11 -6 0 -6 12 -2 28 5 15 5 36 1 47 -4 12 -3 23 4 27 7 5 6 8
-4 8 -13 0 -13 2 -1 9 12 8 12 12 2 25 -11 13 -11 16 0 16 12 0 12 2 0 9 -11
7 -11 9 0 13 12 4 12 7 0 21 -11 14 -11 17 0 17 11 0 11 2 -1 10 -8 5 -10 10
-5 10 16 0 12 93 -5 108 -11 10 -12 12 -1 6 11 -5 13 -3 8 9 -3 10 -2 17 3 17
6 0 10 4 10 10 0 5 -3 9 -7 9 -20 -3 -27 2 -14 10 12 8 13 12 1 25 -11 14 -10
16 6 9 17 -6 17 -5 5 10 -7 9 -10 17 -5 17 4 0 3 5 -3 11 -13 13 -6 42 7 34 5
-3 5 8 0 24 -5 17 -4 33 2 39 6 6 6 12 -3 17 -8 6 -10 4 -4 -5 5 -9 4 -11 -4
-6 -9 6 -9 11 0 22 9 11 9 18 -1 29 -11 13 -10 14 6 8 16 -6 17 -4 7 8 -7 9
-9 20 -3 29 6 9 4 20 -5 30 -14 16 -15 36 -2 58 5 7 3 12 -5 12 -9 0 -9 3 2
10 12 8 12 10 1 10 -11 0 -11 3 -1 15 7 8 8 15 3 15 -11 0 -11 29 0 46 3 6 3
14 0 18 -11 11 -10 46 1 46 7 0 8 3 1 8 -13 8 -13 22 -1 41 6 10 5 12 -3 7 -8
-5 -10 0 -7 18 2 14 -1 27 -7 30 -9 3 -8 5 1 5 9 1 10 6 4 19 -5 9 -8 27 -7
40 1 12 -3 22 -8 22 -6 0 -7 3 -4 7 4 3 1 13 -6 21 -9 13 -9 14 1 8 6 -4 12
-2 12 3 0 6 -5 11 -11 11 -5 0 -7 4 -4 10 3 5 1 10 -5 10 -8 0 -7 6 1 21 8 15
8 19 0 15 -6 -4 -11 0 -11 9 0 9 -4 14 -9 11 -5 -4 -7 3 -4 14 3 11 0 26 -6
33 -6 8 -7 18 -3 22 4 5 1 5 -5 1 -12 -7 -18 5 -14 28 3 14 -21 36 -31 30 -6
-4 -5 3 1 15 10 19 9 21 -11 21 -17 0 -19 3 -9 9 10 7 8 12 -9 24 -15 11 -18
16 -8 20 8 4 7 6 -5 6 -10 1 -16 5 -13 9 3 5 -4 14 -14 22 -10 8 -17 17 -14
22 3 4 1 8 -5 8 -5 0 -13 9 -16 21 -4 11 -9 18 -12 15 -10 -9 -35 23 -27 35 4
7 3 9 -3 6 -6 -4 -16 0 -23 8 -7 8 -18 15 -24 15 -6 0 -17 9 -24 20 -7 12 -17
18 -22 15 -6 -3 -7 1 -4 9 4 11 0 16 -14 16 -11 0 -25 7 -32 15 -7 8 -19 15
-27 15 -7 0 -16 7 -19 15 -4 8 -15 15 -25 15 -10 0 -24 9 -31 19 -9 15 -15 17
-25 9 -10 -8 -13 -6 -13 5 0 11 -5 14 -17 10 -12 -5 -14 -3 -8 8 7 11 5 11
-10 -1 -10 -8 -16 -10 -12 -4 3 6 -5 16 -18 22 -19 9 -25 9 -25 -1 0 -6 -5 -4
-11 6 -6 9 -14 15 -20 12 -5 -4 -9 -1 -9 6 0 8 -4 8 -16 -1 -12 -11 -15 -11
-12 1 2 9 -6 14 -24 13 -16 0 -28 3 -28 6 0 3 -12 7 -27 8 -15 1 -30 7 -34 13
-4 8 -8 7 -12 -2 -4 -12 -7 -11 -16 1 -6 8 -11 11 -11 5 0 -5 -5 -3 -11 5 -8
12 -12 12 -16 2 -4 -10 -8 -10 -19 -1 -8 7 -17 9 -21 6 -3 -4 -12 -2 -19 4 -8
7 -14 7 -19 -1 -10 -16 -25 -12 -25 8 0 14 -2 15 -10 2 -9 -13 -10 -13 -10 0
0 13 -1 13 -10 0 -6 -10 -10 -11 -10 -2 0 6 -5 12 -11 12 -5 0 -7 -4 -4 -10 9
-15 -2 -12 -19 6 -10 10 -16 11 -16 3 0 -9 -4 -8 -15 1 -12 10 -15 10 -15 -1
0 -11 -2 -11 -10 1 -9 13 -11 13 -20 0 -8 -12 -10 -13 -10 -1 0 8 -3 11 -7 8
-3 -4 -13 -1 -21 6 -13 10 -15 9 -9 -5 5 -15 4 -16 -13 -6 -14 9 -22 9 -35 -2
-13 -11 -16 -11 -13 0 2 10 -10 13 -45 12 -33 0 -45 3 -40 11 4 7 -1 6 -10 -2
-11 -9 -17 -10 -17 -2 0 8 -6 8 -21 -1 -17 -10 -23 -10 -26 -1 -3 9 -10 9 -27
1 -17 -7 -30 -7 -46 2 -15 8 -20 8 -16 1 4 -6 2 -11 -3 -11 -6 0 -11 5 -11 11
0 8 -6 7 -17 -2 -13 -11 -17 -11 -20 -1 -3 6 -9 12 -14 12 -6 0 -8 -4 -5 -8 2
-4 -4 -8 -15 -8 -10 0 -19 4 -19 8 0 5 -10 3 -21 -4 -17 -11 -23 -11 -26 0 -3
6 -8 10 -13 7 -18 -11 -69 -12 -73 -1 -3 8 -8 7 -19 -2 -12 -9 -18 -10 -23 -2
-5 8 -10 8 -20 0 -9 -8 -15 -8 -20 0 -3 6 -12 7 -18 3 -19 -12 -37 -12 -37 -1
0 6 -7 4 -17 -3 -13 -11 -17 -11 -21 -1 -3 9 -7 10 -17 2 -9 -8 -15 -8 -20 0
-3 6 -12 7 -18 3 -18 -11 -47 -11 -47 0 0 5 -5 5 -13 -1 -8 -7 -18 -7 -27 -2
-9 5 -19 5 -27 -2 -10 -8 -13 -7 -13 3 0 11 -2 11 -10 -1 -5 -8 -10 -10 -10
-3 0 12 -17 12 -37 0 -8 -5 -13 -3 -13 4 0 8 -4 8 -15 -1 -8 -7 -15 -8 -15 -3
0 5 -7 10 -15 10 -8 0 -12 -4 -9 -9 3 -4 0 -8 -5 -8 -6 0 -11 4 -11 9 0 10
-19 9 -37 -2 -8 -5 -13 -3 -13 3 0 7 -6 8 -19 0 -14 -7 -22 -7 -26 0 -5 8 -11
7 -21 -1 -11 -9 -14 -9 -14 0 0 9 -5 9 -21 1 -14 -8 -24 -8 -33 -1 -9 7 -16 7
-24 -1 -9 -9 -12 -9 -12 0 0 7 -5 12 -11 12 -5 0 -8 -4 -5 -8 3 -5 -1 -9 -9
-9 -8 0 -15 5 -15 10 0 5 -8 6 -17 2 -26 -11 -65 -12 -85 -3 -10 5 -20 3 -24
-3 -4 -8 -9 -7 -15 2 -7 11 -9 11 -9 -1 0 -12 -2 -12 -8 -2 -7 9 -15 10 -35 3
-20 -8 -27 -7 -27 2 0 8 -3 8 -9 -2 -6 -9 -10 -10 -12 -2 -3 9 -12 9 -32 2
-20 -8 -27 -7 -27 2 0 8 -3 8 -9 -2 -6 -9 -10 -10 -12 -2 -3 9 -12 9 -32 2
-20 -8 -27 -7 -27 2 0 8 -3 8 -9 -2 -6 -9 -10 -10 -12 -2 -3 9 -12 9 -32 2
-17 -7 -27 -7 -27 -1 0 6 -5 10 -11 10 -5 0 -7 -6 -3 -12 6 -10 5 -10 -7 -1
-12 10 -18 10 -27 1 -9 -9 -12 -9 -12 0 0 7 -5 12 -11 12 -5 0 -7 -5 -3 -11 5
-8 1 -8 -14 0 -26 14 -35 14 -26 0 4 -7 -1 -7 -16 1 -15 8 -20 8 -16 1 4 -6 2
-11 -3 -11 -6 0 -11 4 -11 9 0 10 -19 9 -38 -2 -7 -5 -12 -3 -12 3 0 8 -6 8
-21 0 -14 -8 -24 -8 -33 -1 -9 7 -16 7 -24 -1 -9 -9 -12 -9 -12 0 0 7 -5 12
-11 12 -5 0 -8 -4 -5 -8 3 -5 -1 -9 -9 -9 -8 0 -15 5 -15 10 0 5 -8 6 -17 2
-26 -10 -71 -12 -85 -4 -7 4 -18 3 -25 -3 -10 -8 -13 -7 -13 3 0 11 -2 11 -10
-1 -5 -8 -10 -10 -10 -5 0 6 -9 11 -20 12 -12 1 -18 -3 -14 -9 4 -6 -3 -5 -16
2 -15 8 -20 8 -16 1 4 -6 3 -11 -3 -11 -5 0 -11 5 -13 11 -3 9 -10 9 -27 -1
-18 -9 -22 -9 -16 0 6 9 3 9 -13 1 -14 -8 -21 -8 -24 0 -2 7 -12 7 -31 0 -20
-8 -27 -7 -27 2 0 8 -3 8 -9 -2 -6 -9 -10 -10 -12 -2 -3 9 -12 9 -32 2 -20 -8
-27 -7 -27 2 0 8 -3 8 -9 -2 -6 -9 -10 -10 -12 -2 -3 9 -12 9 -32 2 -20 -8
-27 -7 -27 2 0 8 -3 8 -9 -2 -6 -9 -10 -10 -12 -2 -3 9 -12 9 -32 2 -15 -6
-27 -7 -27 -2 0 11 -19 9 -37 -2 -8 -5 -13 -3 -13 3 0 8 -6 8 -21 0 -14 -8
-24 -8 -33 -1 -9 7 -16 7 -24 -1 -9 -9 -12 -9 -12 0 0 7 -5 12 -11 12 -5 0 -8
-4 -5 -8 3 -5 -1 -9 -9 -9 -8 0 -15 5 -15 10 0 5 -8 6 -17 2 -26 -10 -71 -12
-85 -4 -7 4 -18 3 -25 -3 -9 -7 -13 -7 -13 2 0 9 -4 9 -13 2 -8 -7 -18 -7 -27
-2 -9 5 -19 5 -27 -2 -10 -8 -13 -7 -13 3 0 11 -2 11 -10 -1 -9 -13 -10 -13
-10 0 0 13 -1 13 -10 0 -5 -8 -10 -10 -10 -3 0 12 -17 12 -37 0 -8 -5 -13 -3
-13 4 0 8 -4 8 -15 -1 -8 -7 -15 -8 -15 -3 0 5 -7 10 -15 10 -8 0 -12 -4 -9
-9 3 -4 0 -8 -5 -8 -6 0 -11 4 -11 9 0 10 -19 9 -37 -2 -7 -5 -13 -4 -13 0 0
5 -9 9 -19 9 -11 0 -17 -4 -15 -8 3 -4 1 -8 -5 -8 -5 0 -11 5 -13 11 -2 7 -12
7 -31 0 -20 -8 -27 -7 -27 2 0 8 -3 8 -9 -2 -6 -9 -10 -10 -12 -2 -3 9 -12 9
-32 2 -20 -8 -27 -7 -27 2 0 8 -3 8 -9 -2 -6 -9 -10 -10 -12 -2 -3 9 -12 9
-32 2 -20 -8 -27 -7 -27 2 0 8 -3 8 -9 -2 -6 -9 -10 -10 -12 -2 -3 9 -12 9
-32 2 -17 -7 -27 -7 -27 -1 0 6 -5 10 -11 10 -5 0 -7 -6 -3 -12 6 -10 5 -10
-7 -1 -12 10 -18 10 -27 1 -9 -9 -12 -9 -12 0 0 7 -5 12 -11 12 -5 0 -7 -5 -3
-11 5 -8 1 -8 -14 0 -26 14 -35 14 -26 0 4 -7 -1 -7 -16 1 -15 8 -20 8 -16 1
4 -6 2 -11 -3 -11 -6 0 -11 4 -11 9 0 10 -19 9 -37 -2 -8 -5 -13 -3 -13 3 0 8
-6 8 -21 0 -14 -8 -24 -8 -33 -1 -9 7 -16 7 -24 -1 -9 -9 -12 -9 -12 0 0 7 -5
12 -11 12 -5 0 -8 -4 -5 -8 3 -5 -1 -9 -9 -9 -8 0 -15 5 -15 10 0 5 -8 6 -17
2 -26 -10 -71 -12 -85 -4 -7 4 -18 3 -25 -3 -10 -8 -13 -7 -13 3 0 11 -2 11
-10 -1 -5 -8 -10 -10 -10 -5 0 6 -9 11 -20 12 -12 1 -18 -3 -14 -9 4 -6 -3 -5
-16 2 -15 8 -20 8 -16 1 4 -6 3 -11 -3 -11 -5 0 -11 5 -13 11 -3 9 -10 9 -27
-1 -18 -9 -22 -9 -16 0 6 9 3 9 -13 1 -14 -8 -21 -8 -24 0 -2 7 -12 7 -31 0
-20 -8 -27 -7 -27 2 0 8 -3 8 -9 -2 -6 -9 -10 -10 -12 -2 -3 9 -12 9 -32 2
-20 -8 -27 -7 -27 2 0 8 -3 8 -9 -2 -6 -9 -10 -10 -12 -2 -3 9 -12 9 -32 2
-20 -8 -27 -7 -27 2 0 8 -3 8 -9 -2 -6 -9 -10 -10 -12 -2 -3 9 -12 9 -32 2
-15 -6 -27 -7 -27 -2 0 11 -19 9 -37 -2 -8 -5 -13 -3 -13 3 0 8 -6 8 -21 0
-14 -8 -24 -8 -33 -1 -9 7 -16 7 -24 -1 -9 -9 -12 -9 -12 0 0 7 -5 12 -11 12
-5 0 -8 -4 -5 -8 3 -5 -1 -9 -9 -9 -8 0 -15 5 -15 10 0 5 -8 6 -17 2 -26 -10
-71 -12 -85 -4 -7 4 -18 3 -25 -3 -9 -7 -13 -7 -13 2 0 9 -4 9 -13 2 -8 -7
-18 -7 -27 -2 -9 5 -19 5 -27 -2 -10 -8 -13 -7 -13 3 0 11 -2 11 -10 -1 -9
-13 -10 -13 -10 0 0 13 -1 13 -10 0 -5 -8 -10 -10 -10 -3 0 12 -17 12 -38 0
-7 -5 -12 -3 -12 4 0 8 -4 8 -15 -1 -8 -7 -15 -8 -15 -3 0 5 -7 10 -15 10 -8
0 -12 -4 -9 -9 3 -4 0 -8 -5 -8 -6 0 -11 4 -11 9 0 10 -19 9 -37 -2 -7 -5 -13
-4 -13 0 0 5 -9 9 -19 9 -11 0 -17 -4 -15 -8 3 -4 1 -8 -5 -8 -5 0 -11 5 -13
11 -2 7 -12 7 -31 0 -20 -8 -27 -7 -27 2 0 8 -3 8 -9 -2 -6 -9 -10 -10 -12 -2
-3 9 -12 9 -32 2 -20 -8 -27 -7 -27 2 0 8 -3 8 -9 -2 -6 -9 -10 -10 -12 -2 -3
9 -12 9 -32 2 -20 -8 -27 -7 -27 2 0 8 -3 8 -9 -2 -6 -9 -10 -10 -12 -2 -3 9
-12 9 -32 2 -17 -7 -27 -7 -27 -1 0 6 -5 10 -11 10 -5 0 -7 -6 -3 -12 6 -10 5
-10 -7 -1 -12 10 -18 10 -27 1 -9 -9 -12 -9 -12 0 0 7 -5 12 -11 12 -5 0 -7
-5 -3 -11 5 -8 1 -8 -14 0 -26 14 -35 14 -26 0 4 -7 -1 -7 -16 1 -15 8 -20 8
-16 1 4 -6 2 -11 -3 -11 -6 0 -11 4 -11 9 0 10 -19 9 -38 -2 -7 -5 -12 -3 -12
3 0 8 -6 8 -21 0 -14 -8 -24 -8 -33 -1 -9 7 -16 7 -24 -1 -9 -9 -12 -9 -12 0
0 7 -5 12 -11 12 -5 0 -7 -6 -3 -12 5 -10 4 -10 -6 -1 -8 8 -19 9 -30 3 -9 -5
-22 -5 -30 0 -8 5 -22 4 -33 -1 -12 -7 -22 -7 -31 0 -9 7 -16 7 -24 -1 -9 -9
-12 -9 -12 2 0 11 -3 11 -12 2 -18 -18 -28 -15 -28 9 0 13 -4 18 -12 13 -10
-6 -10 -4 0 8 10 13 10 17 0 20 -10 4 -10 8 1 21 11 14 11 17 0 17 -11 0 -11
2 1 10 13 9 13 10 0 10 -13 0 -13 2 -1 9 11 7 12 13 3 23 -7 9 -8 19 -2 28 14
21 12 32 -2 24 -9 -5 -9 -2 1 9 11 14 11 20 1 32 -9 11 -9 15 -1 15 7 0 9 5 6
11 -10 15 -13 59 -4 54 10 -7 6 36 -5 54 -5 8 -3 17 5 22 12 8 12 11 -1 19
-12 8 -12 10 -1 10 10 0 11 3 2 13 -8 10 -7 17 2 26 9 9 9 14 -2 20 -11 7 -11
9 0 13 12 4 12 7 0 21 -9 11 -10 17 -2 17 6 0 11 5 11 11 0 5 -6 7 -13 3 -8
-5 -8 -2 2 9 11 14 11 17 0 17 -9 0 -10 3 -4 8 15 11 17 32 3 32 -9 0 -9 3 0
12 16 16 15 31 0 23 -7 -4 -4 1 6 9 17 14 18 16 3 16 -14 0 -15 4 -7 26 13 33
13 36 -2 29 -7 -4 -4 1 6 9 17 14 18 16 3 16 -13 0 -15 5 -7 24 6 16 5 28 -3
36 -9 10 -9 11 1 6 15 -9 16 10 2 19 -8 5 -7 11 1 21 9 11 8 14 -2 14 -9 0
-10 3 -4 8 11 8 13 31 4 47 -7 11 -5 30 7 59 6 15 4 17 -7 11 -12 -8 -12 -6 0
8 11 14 11 20 1 32 -9 11 -9 15 -1 15 8 0 9 5 2 18 -6 11 -6 24 0 33 13 20 11
31 -4 24 -6 -4 -3 1 7 9 17 14 18 16 3 16 -14 0 -15 4 -7 26 13 33 13 36 -2
29 -7 -4 -5 0 5 8 16 13 16 15 1 21 -12 5 -14 10 -5 19 8 10 7 17 -2 27 -9 10
-9 11 1 6 16 -9 16 16 0 32 -9 9 -9 12 1 12 7 0 9 4 6 10 -12 19 -14 50 -3 56
7 4 6 9 -3 14 -10 7 -10 11 0 24 11 13 11 16 0 16 -11 0 -11 2 1 10 13 8 13
10 1 10 -11 0 -10 4 5 16 10 8 14 13 8 10 -16 -8 -25 17 -13 35 13 20 11 31
-3 23 -8 -5 -8 -1 1 10 13 15 13 19 0 27 -11 7 -10 9 5 9 19 0 19 0 1 13 -14
11 -15 16 -5 22 10 6 10 9 -1 15 -10 7 -10 11 0 24 11 13 11 16 0 16 -11 0
-11 2 1 10 13 8 13 10 1 10 -11 0 -10 4 5 16 10 8 14 13 8 10 -16 -8 -25 17
-13 35 13 20 11 31 -3 23 -9 -5 -9 -2 1 9 11 14 11 20 1 32 -9 11 -9 15 -1 15
8 0 9 5 1 19 -7 14 -7 22 1 27 8 4 7 9 -2 15 -11 7 -9 9 5 9 19 0 19 0 1 13
-14 11 -15 16 -5 22 10 6 10 9 -1 15 -10 7 -10 11 0 24 11 13 11 16 0 16 -11
0 -11 2 1 10 13 8 13 10 1 10 -11 0 -10 4 5 16 10 8 14 13 8 10 -16 -8 -25 17
-13 35 13 20 11 31 -3 23 -9 -5 -9 -2 1 9 11 14 11 20 1 32 -9 11 -9 15 -1 15
8 0 9 5 1 19 -7 14 -7 22 1 27 8 4 7 9 -2 15 -11 7 -9 9 5 9 19 0 19 0 1 13
-14 11 -15 16 -5 22 10 6 10 9 -1 15 -10 7 -10 11 0 24 11 13 11 16 0 16 -11
0 -11 2 1 10 13 8 13 10 1 10 -11 0 -10 4 5 16 10 8 14 13 8 10 -16 -8 -25 17
-13 35 13 20 11 31 -3 23 -9 -5 -9 -2 1 9 11 14 11 20 1 32 -9 11 -9 15 -1 15
8 0 9 5 1 19 -7 14 -7 22 1 27 8 4 7 9 -2 15 -11 7 -9 9 5 9 19 0 19 0 1 13
-14 11 -15 16 -5 22 10 6 10 9 -1 15 -10 7 -10 11 0 24 11 13 11 16 0 16 -11
0 -11 2 1 10 13 8 13 10 1 10 -11 0 -10 4 5 16 10 8 14 13 8 10 -16 -8 -25 17
-13 35 13 20 11 31 -3 23 -9 -5 -9 -2 1 9 11 14 11 20 1 32 -9 11 -9 15 -1 15
7 0 9 5 6 11 -10 15 -13 59 -4 54 10 -7 6 36 -5 54 -5 8 -3 17 5 22 12 8 12
11 -1 19 -12 8 -12 10 -1 10 10 0 11 3 2 13 -8 10 -7 17 2 26 9 9 9 14 -2 20
-11 7 -11 9 0 13 12 4 12 7 0 21 -9 11 -10 17 -2 17 6 0 11 5 11 11 0 5 -6 7
-12 3 -9 -5 -9 -2 1 9 11 14 11 17 0 17 -9 0 -10 3 -4 8 15 11 17 32 3 32 -9
0 -9 3 0 12 16 16 15 31 0 23 -7 -4 -4 1 6 9 17 14 18 16 3 16 -14 0 -15 4 -7
26 13 33 13 36 -2 29 -7 -4 -4 1 6 9 17 14 18 16 3 16 -13 0 -15 5 -7 24 6 16
5 28 -3 36 -9 10 -9 11 1 6 15 -9 16 10 2 19 -8 5 -7 11 1 21 9 11 8 14 -2 14
-9 0 -10 3 -4 8 11 8 13 31 4 47 -7 11 -5 30 7 59 6 15 4 17 -7 11 -12 -8 -12
-6 0 8 11 14 11 20 1 32 -9 11 -9 15 -1 15 8 0 9 5 2 18 -6 11 -6 24 0 33 13
20 11 31 -3 24 -7 -4 -4 1 6 9 17 14 18 16 3 16 -14 0 -15 4 -7 26 13 33 13
36 -2 29 -7 -4 -5 0 5 8 16 13 16 15 1 21 -12 5 -14 10 -5 19 8 10 7 17 -2 27
-9 10 -9 11 1 6 16 -9 16 16 0 32 -9 9 -9 12 1 12 7 0 9 4 6 10 -12 19 -14 50
-3 56 7 4 6 9 -3 14 -10 7 -10 11 0 24 11 13 11 16 0 16 -11 0 -11 2 1 10 13
8 13 10 1 10 -11 0 -10 4 5 16 10 8 14 13 8 10 -16 -8 -25 17 -13 35 13 20 11
31 -3 23 -8 -5 -8 -1 1 10 13 15 13 19 0 27 -11 7 -10 9 5 9 19 0 19 0 1 13
-14 11 -15 16 -5 22 10 6 10 9 -1 15 -10 7 -10 11 0 24 11 13 11 16 0 16 -11
0 -11 2 1 10 13 8 13 10 1 10 -11 0 -10 4 5 16 10 8 14 13 8 10 -16 -8 -25 17
-13 35 13 20 11 31 -3 23 -9 -5 -9 -2 1 9 11 14 11 20 1 32 -9 11 -9 15 -1 15
8 0 9 5 1 19 -7 14 -7 22 1 27 8 4 7 9 -2 15 -11 7 -9 9 5 9 19 0 19 0 1 13
-14 11 -15 16 -5 22 10 6 10 9 -1 15 -10 7 -10 11 0 24 11 13 11 16 0 16 -11
0 -11 2 1 10 13 8 13 10 1 10 -11 0 -10 4 5 16 10 8 14 13 8 10 -16 -8 -25 17
-13 35 13 20 11 31 -4 23 -8 -5 -8 -2 2 9 11 14 11 20 1 32 -9 11 -9 15 -1 15
7 0 9 5 6 11 -10 15 -13 59 -4 54 10 -7 6 36 -5 54 -5 8 -3 17 5 22 12 8 12
11 -1 19 -12 8 -12 10 -1 10 10 0 11 3 2 13 -8 10 -7 17 2 26 9 9 9 14 -2 20
-11 7 -11 9 0 13 12 4 12 7 0 21 -9 11 -10 17 -2 17 6 0 11 5 11 11 0 5 -6 7
-13 3 -8 -5 -8 -2 2 9 11 14 11 17 0 17 -9 0 -10 3 -4 8 15 11 17 32 3 32 -9
0 -9 3 0 12 16 16 15 31 0 23 -7 -4 -4 1 6 9 17 14 18 16 3 16 -14 0 -15 4 -7
26 13 33 13 36 -2 29 -7 -4 -4 1 6 9 17 14 18 16 3 16 -13 0 -15 5 -7 24 6 16
5 28 -3 36 -9 10 -9 11 1 6 15 -9 16 10 2 19 -8 5 -7 11 1 21 9 11 8 14 -2 14
-9 0 -10 3 -4 8 11 8 13 31 4 47 -7 11 -5 30 7 59 6 15 4 17 -7 11 -12 -8 -12
-6 0 8 11 14 11 20 1 32 -9 11 -9 15 -1 15 8 0 9 5 2 18 -6 11 -6 24 0 33 13
20 11 31 -4 24 -6 -4 -3 1 7 9 17 14 18 16 3 16 -14 0 -15 4 -7 26 13 33 13
36 -2 29 -7 -4 -5 0 5 8 16 13 16 15 1 21 -12 5 -14 10 -5 19 8 10 7 17 -2 27
-9 10 -9 11 1 6 16 -9 16 16 0 32 -9 9 -9 12 1 12 7 0 9 4 6 10 -12 19 -14 50
-3 56 7 4 6 9 -3 14 -10 7 -10 11 0 24 11 13 11 16 0 16 -11 0 -11 2 1 10 13
8 13 10 1 10 -11 0 -10 4 5 16 10 8 14 13 8 10 -16 -8 -25 17 -13 35 13 20 11
31 -3 23 -8 -5 -8 -1 1 10 13 15 13 19 0 27 -11 7 -10 9 5 9 19 0 19 0 1 13
-14 11 -15 16 -5 22 10 6 10 9 -1 15 -10 7 -10 11 0 24 11 13 11 16 0 16 -11
0 -11 2 1 10 13 8 13 10 1 10 -11 0 -10 4 5 16 10 8 14 13 8 10 -16 -8 -25 17
-13 35 13 20 11 31 -4 23 -8 -5 -8 -2 2 9 11 14 11 20 1 32 -9 11 -9 15 -1 15
8 0 9 5 1 19 -7 14 -7 22 1 27 8 4 7 9 -2 15 -11 7 -9 9 5 9 19 0 19 0 1 13
-14 11 -15 16 -5 22 10 6 10 9 -1 15 -10 7 -10 11 0 24 11 13 11 16 0 16 -11
0 -11 2 1 10 13 8 13 10 1 10 -11 0 -10 4 5 16 10 8 14 13 8 10 -16 -8 -25 17
-13 35 13 20 11 31 -3 23 -9 -5 -9 -2 1 9 11 14 11 20 1 32 -9 11 -9 15 -1 15
7 0 9 5 6 11 -10 15 -13 59 -4 54 10 -7 6 36 -5 54 -5 8 -3 17 5 22 12 8 12
11 -1 19 -12 8 -12 10 -1 10 10 0 11 3 2 13 -8 10 -7 17 2 26 9 9 9 14 -2 20
-11 7 -11 9 0 13 12 4 12 7 0 21 -9 11 -10 17 -2 17 6 0 11 5 11 11 0 5 -6 7
-12 3 -9 -5 -9 -2 1 9 11 14 11 17 0 17 -9 0 -10 3 -4 8 15 11 17 32 3 32 -9
0 -9 3 0 12 16 16 15 31 0 23 -7 -4 -4 1 6 9 17 14 18 16 3 16 -14 0 -15 4 -7
26 13 33 13 36 -2 29 -7 -4 -4 1 6 9 17 14 18 16 3 16 -13 0 -15 5 -7 24 6 16
5 28 -3 36 -9 10 -9 11 1 6 15 -9 16 10 2 19 -8 5 -7 11 1 21 9 11 8 14 -2 14
-9 0 -10 3 -4 8 11 8 13 31 4 47 -7 11 -5 30 7 59 6 15 4 17 -7 11 -12 -8 -12
-6 0 8 11 14 11 20 1 32 -9 11 -9 15 -1 15 8 0 9 5 2 18 -6 11 -6 24 0 33 13
20 11 31 -3 24 -7 -4 -4 1 6 9 17 14 18 16 3 16 -14 0 -15 4 -7 26 13 33 13
36 -2 29 -7 -4 -5 0 5 8 16 13 16 15 1 21 -12 5 -14 10 -5 19 8 10 7 17 -2 27
-9 10 -9 11 1 6 16 -9 16 16 0 32 -9 9 -9 12 1 12 7 0 9 4 6 10 -12 19 -14 50
-3 56 7 4 6 9 -3 14 -10 7 -10 11 0 24 11 13 11 16 0 16 -11 0 -11 2 1 10 13
8 13 10 1 10 -11 0 -10 4 5 16 10 8 14 13 8 10 -16 -8 -25 17 -13 35 13 20 11
31 -3 23 -8 -5 -8 -1 1 10 13 15 13 19 0 27 -11 7 -10 9 5 9 19 0 19 0 1 13
-14 11 -15 16 -5 22 10 6 10 9 -1 15 -10 7 -10 11 0 24 11 13 11 16 0 16 -11
0 -11 2 1 10 13 8 13 10 1 10 -11 0 -10 4 5 16 10 8 14 13 8 10 -16 -8 -25 17
-13 35 13 20 11 31 -3 23 -9 -5 -9 -2 1 9 11 14 11 20 1 32 -9 11 -9 15 -1 15
8 0 9 5 1 19 -7 14 -7 22 1 27 8 4 7 9 -2 15 -11 7 -9 9 5 9 19 0 19 0 1 13
-14 11 -15 16 -5 22 10 6 10 9 -1 15 -10 7 -10 11 0 24 11 13 11 16 0 16 -11
0 -11 2 1 10 13 8 13 10 1 10 -11 0 -10 4 5 16 10 8 14 13 8 10 -16 -8 -25 17
-13 35 13 20 11 31 -3 23 -9 -5 -9 -2 1 9 11 14 11 20 1 32 -9 11 -9 15 -1 15
7 0 9 5 6 11 -10 15 -13 59 -4 54 10 -7 6 36 -5 54 -5 8 -3 17 5 22 12 8 12
11 -1 19 -12 8 -12 10 -1 10 10 0 11 3 2 13 -8 10 -7 17 2 26 9 9 9 14 -2 20
-11 7 -11 9 0 13 12 4 12 7 0 21 -9 11 -10 17 -2 17 6 0 11 5 11 11 0 5 -6 7
-12 3 -9 -5 -9 -2 1 9 11 14 11 17 0 17 -9 0 -10 3 -4 8 15 11 17 32 3 32 -9
0 -9 3 0 12 16 16 15 31 0 23 -7 -4 -4 1 6 9 17 14 18 16 3 16 -14 0 -15 4 -7
26 13 33 13 36 -2 29 -7 -4 -4 1 6 9 17 14 18 16 3 16 -13 0 -15 5 -7 24 6 16
5 28 -3 36 -9 10 -9 11 1 6 15 -9 16 10 2 19 -8 5 -7 11 1 21 9 11 8 14 -2 14
-9 0 -10 3 -4 8 11 8 13 31 4 47 -7 11 -5 30 7 59 6 15 4 17 -7 11 -12 -8 -12
-6 0 8 11 14 11 20 1 32 -9 11 -9 15 -1 15 8 0 9 5 2 18 -6 11 -6 24 0 33 13
20 11 31 -3 24 -7 -4 -4 1 6 9 17 14 18 16 3 16 -14 0 -15 4 -7 26 13 33 13
36 -3 29 -6 -4 -4 0 6 8 16 13 16 15 1 21 -12 5 -14 10 -5 19 8 10 7 17 -2 27
-9 10 -9 11 1 6 16 -9 16 16 0 32 -9 9 -9 12 1 12 7 0 9 4 6 10 -12 19 -14 50
-3 56 7 4 6 9 -3 14 -10 7 -10 11 0 24 11 13 11 16 0 16 -11 0 -11 2 1 10 13
8 13 10 1 10 -11 0 -10 4 5 16 10 8 14 13 8 10 -16 -8 -25 17 -13 35 12 20 11
31 -3 23 -7 -5 -8 -3 -2 7 14 23 15 51 2 44 -7 -4 -4 1 6 9 17 14 18 16 3 16
-14 0 -15 4 -7 26 13 33 13 36 -2 29 -7 -4 -4 1 6 9 18 14 18 16 3 16 -14 0
-16 4 -8 18 7 13 6 23 -1 30 -9 9 -9 12 0 12 9 0 10 6 5 18 -8 15 -9 38 -3 52
7 19 7 41 0 45 -9 6 -7 27 6 59 6 15 4 17 -7 11 -12 -8 -12 -6 0 8 11 14 11
20 1 32 -9 11 -9 15 -1 15 8 0 9 5 2 18 -6 11 -6 24 0 33 13 20 11 31 -3 24
-7 -4 -4 1 6 9 17 14 18 16 3 16 -14 0 -15 4 -7 26 13 33 13 36 -2 29 -7 -4
-5 0 5 8 16 13 16 15 2 21 -12 4 -14 10 -5 25 13 26 13 34 -2 26 -7 -4 -4 1 6
9 17 14 18 16 3 16 -14 0 -15 4 -7 26 13 33 13 36 -2 29 -7 -4 -5 0 5 8 16 14
16 15 1 21 -13 5 -15 9 -6 18 16 16 15 31 0 22 -10 -6 -10 -4 0 7 16 17 16 32
-1 23 -9 -6 -9 -4 1 8 10 13 10 17 0 20 -10 4 -10 8 1 21 11 14 11 17 0 17
-11 0 -11 2 1 10 13 8 13 10 1 10 -11 0 -10 4 5 16 10 8 14 13 8 10 -16 -8
-25 17 -13 35 13 20 11 31 -3 23 -9 -5 -9 -2 1 9 11 14 11 20 1 32 -9 11 -9
15 -1 15 8 0 9 5 2 18 -6 11 -6 24 0 33 13 20 11 31 -3 24 -7 -4 -4 1 6 9 17
14 18 16 3 16 -14 0 -15 4 -7 26 13 33 13 36 -2 29 -7 -4 -5 0 5 8 16 13 16
15 2 21 -12 4 -14 10 -5 25 13 26 13 34 -2 26 -7 -4 -4 1 6 9 17 14 18 16 3
16 -14 0 -15 4 -7 26 13 33 13 36 -2 29 -7 -4 -4 1 6 9 18 14 18 16 3 16 -14
0 -16 4 -8 18 7 13 6 23 -1 30 -9 9 -9 12 0 12 9 0 10 6 5 18 -8 15 -9 38 -3
52 7 19 7 41 0 45 -9 6 -7 27 6 59 6 15 4 17 -7 11 -12 -8 -12 -6 0 8 11 14
11 20 1 32 -9 11 -9 15 -1 15 8 0 9 5 2 18 -6 11 -6 24 0 33 13 20 11 31 -3
24 -7 -4 -4 1 6 9 17 14 18 16 3 16 -14 0 -15 4 -7 26 13 33 13 36 -2 29 -7
-4 -5 0 5 8 16 13 16 15 2 21 -12 4 -13 10 -6 24 7 13 6 23 -2 31 -9 9 -8 14
3 22 12 8 12 12 2 16 -10 4 -9 9 5 19 17 13 17 14 -2 7 -20 -6 -20 -6 0 16 14
16 15 22 5 19 -17 -4 -21 52 -5 64 6 5 4 8 -5 8 -13 0 -13 1 0 10 11 7 11 10
2 10 -9 0 -10 5 -2 19 7 13 7 22 0 26 -5 3 -10 11 -10 16 0 6 6 7 13 3 8 -5 8
-2 -2 9 -10 13 -10 17 -1 17 10 0 10 3 0 15 -10 12 -10 15 1 15 11 0 11 2 -1
10 -13 9 -13 11 0 20 12 8 12 10 1 10 -11 0 -11 3 -1 15 9 11 9 15 1 15 -7 0
-9 5 -4 13 11 18 12 36 2 43 -6 4 -6 11 1 19 8 9 8 15 0 20 -14 9 -13 28 3 19
9 -5 9 -4 0 6 -7 8 -9 20 -3 35 5 13 6 25 3 28 -11 12 -10 67 1 67 8 0 7 3 -1
8 -8 5 -9 13 -3 22 5 8 5 21 -1 32 -7 13 -6 18 3 18 9 0 9 3 -2 10 -13 9 -13
11 0 20 12 8 12 10 1 10 -11 0 -11 3 -1 15 10 12 10 15 0 15 -9 0 -9 4 -2 13
13 15 13 27 1 50 -7 11 -6 17 2 17 9 0 9 3 0 14 -9 10 -9 16 -1 21 8 5 8 11 1
19 -7 9 -7 16 0 23 8 8 8 13 0 17 -15 10 -14 29 2 20 9 -5 9 -4 0 6 -7 8 -9
21 -3 35 4 12 5 28 0 35 -5 7 -6 23 -4 34 11 46 11 51 6 61 -10 17 -9 45 2 45
7 0 7 3 -1 8 -8 5 -9 13 -3 22 5 8 5 21 -1 32 -7 13 -6 18 3 18 9 0 9 3 -2 10
-13 9 -13 11 0 20 12 8 12 10 1 10 -11 0 -11 3 -1 15 9 11 9 15 1 15 -7 0 -9
5 -4 13 11 18 12 36 2 43 -6 4 -6 11 1 19 8 9 8 15 0 20 -14 9 -13 28 3 19 9
-5 9 -4 0 6 -7 8 -9 20 -3 35 5 13 6 25 3 28 -11 12 -10 67 1 67 8 0 7 3 -1 8
-8 5 -9 13 -3 22 5 8 5 21 -1 32 -7 13 -6 18 3 18 9 0 9 3 -2 10 -13 9 -13 11
0 20 12 8 12 10 1 10 -11 0 -11 3 -1 15 9 11 9 15 1 15 -7 0 -9 5 -4 13 11 17
11 29 1 50 -6 11 -5 17 3 17 9 0 9 3 0 14 -9 10 -9 16 -1 21 8 5 8 11 1 19 -7
9 -7 16 1 24 9 9 9 12 -1 12 -10 0 -11 3 -2 13 6 8 8 17 4 21 -11 11 -10 46 1
46 7 0 7 3 -1 8 -8 5 -9 13 -3 22 5 8 5 21 -1 32 -7 13 -6 18 3 18 9 0 9 3 -2
10 -13 9 -13 11 0 20 12 8 12 10 1 10 -11 0 -11 3 -1 15 9 11 9 15 1 15 -7 0
-9 5 -4 13 11 18 12 36 2 43 -6 3 -5 11 2 20 9 11 9 14 -1 14 -9 0 -10 3 -1
13 6 8 8 17 4 21 -11 11 -10 46 1 46 7 0 7 3 -1 8 -8 5 -9 13 -3 22 5 8 5 21
-1 32 -7 13 -6 18 3 18 9 0 9 3 -2 10 -13 9 -13 11 0 20 12 8 12 10 1 10 -11
0 -11 3 -1 15 10 12 10 15 0 15 -8 0 -9 4 -3 13 8 11 10 29 3 42 -7 14 -5 31
5 37 6 5 5 8 -3 8 -9 0 -10 5 -3 18 6 11 6 24 0 35 -7 12 -6 17 3 17 9 0 9 3
-2 10 -13 9 -13 11 0 20 12 8 12 10 1 10 -11 0 -11 3 -1 15 10 12 10 15 0 15
-9 0 -9 4 -2 13 13 15 13 27 1 50 -7 11 -6 17 2 17 9 0 9 3 0 14 -9 10 -9 16
-1 21 8 5 8 11 1 19 -7 9 -7 16 0 23 8 8 8 13 0 17 -15 10 -14 29 2 20 9 -5 9
-4 0 6 -7 8 -9 21 -3 35 4 12 5 28 0 35 -5 7 -6 23 -4 34 11 46 11 51 6 61
-10 17 -9 45 2 45 7 0 7 3 -1 8 -8 5 -9 13 -3 22 5 8 5 21 -1 32 -7 13 -6 18
3 18 9 0 9 3 -2 10 -13 9 -13 11 0 20 12 8 12 10 1 10 -11 0 -11 3 -1 15 9 11
9 15 1 15 -7 0 -9 5 -4 13 11 18 12 36 2 43 -5 3 -5 12 1 23 5 10 7 21 4 23
-10 11 -12 48 -3 54 6 4 6 11 -2 20 -9 11 -8 14 2 14 9 0 10 3 4 8 -15 11 -18
42 -4 58 7 9 8 18 2 27 -14 18 -24 49 -14 43 5 -3 6 9 1 28 -4 18 -3 41 2 50
7 12 5 14 -7 10 -11 -5 -14 -2 -9 10 3 9 10 13 15 10 5 -3 6 2 3 10 -3 9 -11
16 -18 16 -6 0 -4 5 4 10 8 5 10 10 4 10 -7 0 -11 15 -10 40 1 23 -2 40 -8 40
-6 0 -5 4 2 9 11 6 10 10 -3 15 -14 5 -15 9 -5 21 7 8 9 15 4 15 -5 0 -2 5 6
10 13 8 12 10 -3 10 -11 0 -17 5 -14 13 2 6 0 22 -4 35 -7 17 -6 21 4 16 9 -6
9 -5 0 8 -7 8 -10 18 -6 21 3 4 1 7 -7 7 -10 0 -10 4 1 17 11 13 11 15 1 9
-10 -6 -13 -2 -10 16 1 14 -4 33 -12 44 -10 12 -11 15 -2 10 11 -7 11 -4 0 15
-7 13 -17 27 -22 30 -4 4 -3 10 3 13 6 4 11 12 11 18 0 6 -3 8 -7 5 -8 -8 -35
42 -28 53 3 4 -2 10 -10 14 -8 3 -12 12 -9 21 3 8 2 15 -4 15 -5 0 -13 7 -16
16 -5 12 -3 14 7 8 7 -5 5 -2 -5 7 -9 9 -14 19 -11 23 4 3 1 6 -5 6 -7 0 -12
7 -12 15 0 8 -4 15 -10 15 -5 0 -10 9 -10 21 0 11 -4 17 -10 14 -5 -3 -10 1
-10 9 0 8 -8 20 -17 25 -10 6 -15 11 -12 11 4 0 -8 16 -27 37 -18 20 -30 41
-27 46 3 6 2 7 -4 4 -5 -3 -15 3 -23 13 -8 10 -17 17 -22 14 -7 -5 -12 10 -9
28 0 4 -8 5 -19 3 -12 -2 -18 0 -15 5 7 11 -30 32 -40 22 -5 -4 -6 -2 -3 3 3
6 0 16 -8 23 -11 10 -14 10 -14 0 -1 -7 -7 -2 -15 12 -8 14 -14 21 -15 17 0
-9 -61 23 -71 37 -4 5 -14 6 -23 3 -10 -4 -16 -1 -16 9 0 8 -4 13 -9 10 -4 -3
-16 1 -27 8 -10 8 -25 11 -33 8 -9 -3 -12 -1 -7 6 4 7 2 10 -7 6 -8 -3 -19 1
-25 9 -6 7 -25 12 -42 11 -16 -1 -30 3 -30 8 0 6 -6 8 -14 5 -7 -3 -19 0 -25
6 -8 8 -11 7 -11 -4 0 -12 -2 -12 -10 1 -5 8 -10 11 -10 5 0 -5 -5 -3 -10 5
-9 13 -10 13 -10 0 0 -13 -1 -13 -10 0 -7 11 -10 12 -10 2 0 -11 -3 -10 -15 1
-9 9 -28 14 -50 11 -26 -2 -34 0 -28 9 4 7 0 7 -10 -2 -12 -9 -17 -10 -17 -2
0 9 -5 9 -21 0 -16 -8 -20 -8 -14 0 4 8 -4 11 -28 9 -19 -1 -42 3 -49 10 -11
9 -17 9 -26 0 -8 -8 -16 -8 -28 3 -12 9 -15 10 -10 2 4 -7 3 -13 -3 -13 -5 0
-13 5 -16 10 -5 8 -11 8 -20 0 -10 -8 -14 -7 -18 2 -4 10 -8 10 -16 -2 -10
-13 -11 -13 -11 0 0 13 -1 13 -10 0 -6 -10 -10 -11 -10 -2 0 6 -9 12 -20 12
-11 0 -20 -5 -20 -12 0 -6 -7 -3 -15 8 -8 11 -15 14 -15 7 0 -7 -5 -13 -11
-13 -5 0 -7 6 -3 13 6 9 4 9 -8 -1 -13 -10 -17 -10 -21 0 -4 11 -6 11 -6 0 -1
-10 -6 -10 -21 -2 -15 8 -20 8 -20 -2 0 -9 -3 -9 -10 2 -9 13 -10 13 -10 0 0
-13 -1 -13 -10 0 -7 11 -10 11 -10 2 0 -9 -5 -10 -19 -2 -13 7 -22 7 -26 0 -4
-7 -12 -7 -25 0 -24 13 -33 13 -24 -1 5 -8 1 -8 -14 0 -27 14 -35 14 -26 -1 4
-6 3 -8 -3 -5 -21 13 -75 18 -68 6 6 -8 2 -8 -13 0 -27 14 -35 14 -26 -1 5 -7
3 -8 -6 -3 -8 5 -31 9 -52 10 -33 2 -36 0 -26 -13 11 -13 8 -13 -12 1 -13 9
-31 17 -40 17 -13 0 -13 -1 0 -10 8 -5 10 -10 4 -10 -6 0 -14 3 -17 7 -12 11
-58 13 -51 1 4 -6 -2 -6 -15 1 -16 9 -21 9 -21 -1 0 -8 -3 -9 -8 -3 -9 13 -46
20 -38 7 3 -5 -5 -7 -17 -6 -12 1 -22 3 -22 4 0 1 -10 3 -22 6 -18 3 -21 0
-16 -14 7 -16 6 -16 -11 1 -20 19 -41 23 -30 5 5 -7 3 -8 -7 -3 -20 13 -49 13
-49 1 0 -7 -3 -8 -8 -1 -10 14 -544 14 -554 0 -5 -6 -8 -6 -8 3 0 6 -11 12
-25 12 -14 0 -25 -6 -25 -12 0 -9 -3 -9 -8 -3 -10 15 -564 15 -574 0 -5 -6 -8
-6 -8 3 0 6 -11 12 -25 12 -14 0 -25 -6 -25 -12 0 -9 -3 -9 -8 -3 -9 14 -753
14 -745 1 4 -5 0 -6 -8 0 -22 14 -93 14 -101 1 -6 -9 -8 -9 -8 0 0 6 -15 11
-34 10 -19 0 -32 -5 -29 -10 3 -5 -4 -4 -15 2 -27 15 -53 15 -32 0 12 -8 11
-9 -5 -5 -48 13 -86 16 -81 7 4 -5 1 -13 -5 -17 -8 -4 -9 -3 -5 4 4 7 0 12
-11 13 -10 0 -28 2 -41 5 -15 3 -21 0 -16 -7 5 -8 1 -8 -14 0 -27 14 -35 14
-26 -1 5 -7 3 -8 -7 -2 -23 14 -93 11 -105 -5 -9 -11 -12 -12 -19 -1 -6 9 -4
11 6 5 12 -7 12 -6 0 6 -10 10 -15 11 -18 2 -3 -8 -13 -9 -34 -3 -16 5 -29 6
-29 2 0 -4 -11 -7 -24 -7 -13 0 -22 3 -19 8 2 4 -1 7 -6 7 -6 0 -11 -3 -11 -7
0 -5 -24 -8 -54 -8 -30 0 -52 4 -49 8 3 5 -3 4 -14 -2 -14 -7 -24 -7 -33 2
-10 10 -12 8 -6 -7 7 -19 6 -19 -13 -2 -14 13 -21 14 -27 5z"/>
<path d="M17970 31441 c0 -4 -10 -7 -22 -6 -13 2 -33 -4 -45 -11 -20 -13 -22
-12 -16 3 5 15 3 16 -8 6 -7 -7 -26 -13 -42 -13 -16 0 -26 -4 -22 -10 4 -7 -3
-7 -20 0 -14 5 -24 6 -21 1 3 -5 -1 -11 -9 -15 -8 -3 -15 -1 -15 4 0 6 -5 10
-11 10 -5 0 -8 -4 -5 -8 2 -4 -5 -14 -17 -22 -20 -12 -21 -12 -9 3 11 13 10
15 -7 10 -12 -3 -21 -8 -21 -12 0 -6 -9 -8 -64 -14 -13 -1 -24 -6 -23 -12 1
-5 -5 -10 -15 -10 -9 0 -26 -9 -39 -20 -12 -11 -19 -14 -15 -7 4 6 3 12 -2 12
-6 0 -13 -7 -16 -16 -3 -8 -10 -12 -16 -9 -5 3 -10 1 -10 -4 0 -6 -3 -10 -7
-9 -15 4 -53 -14 -48 -22 5 -7 -32 -24 -48 -21 -5 1 -6 -3 -2 -9 3 -5 2 -10
-4 -10 -14 0 -77 -62 -73 -73 1 -5 -2 -6 -8 -2 -5 3 -15 -5 -22 -19 -6 -14
-18 -26 -25 -26 -8 0 -12 -4 -9 -9 3 -5 -1 -12 -10 -15 -9 -3 -14 -13 -11 -21
4 -9 1 -12 -9 -8 -11 4 -15 0 -12 -13 2 -11 -2 -18 -9 -17 -7 2 -12 0 -11 -5
1 -4 -3 -17 -10 -30 -7 -12 -10 -28 -6 -34 4 -7 3 -8 -4 -4 -7 4 -14 -4 -18
-21 -4 -15 -10 -30 -13 -33 -13 -11 -32 -52 -21 -45 12 7 10 2 -19 -54 -10
-18 -10 -22 0 -15 7 4 2 -7 -10 -25 -20 -27 -21 -35 -10 -42 12 -8 12 -10 0
-18 -8 -5 -11 -16 -8 -25 4 -11 1 -16 -11 -17 -10 0 -12 -3 -5 -6 9 -3 10 -10
4 -21 -5 -9 -8 -33 -7 -54 0 -20 -2 -34 -6 -31 -8 4 -10 -18 -10 -92 0 -21 -4
-47 -9 -56 -6 -12 -5 -19 4 -22 9 -4 9 -6 0 -6 -7 -1 -10 -8 -6 -18 5 -12 3
-14 -7 -8 -10 6 -11 4 -4 -6 12 -20 12 -89 -1 -89 -5 0 -3 -5 5 -10 13 -9 13
-10 0 -10 -9 0 -11 -3 -5 -8 13 -9 14 -82 2 -82 -6 0 -6 -5 0 -12 11 -16 10
-98 -2 -117 -6 -10 -4 -12 6 -6 12 8 12 6 0 -8 -7 -9 -9 -17 -5 -17 5 0 9 -18
9 -40 0 -22 -3 -40 -8 -40 -4 0 -5 -6 0 -12 10 -17 10 -109 0 -115 -4 -2 -4
-10 0 -16 10 -16 10 -77 0 -77 -5 0 -5 -6 0 -12 11 -18 10 -41 -2 -57 -8 -12
-7 -13 5 -6 13 8 13 7 1 -8 -7 -9 -9 -17 -5 -17 5 0 9 -18 9 -40 0 -22 -4 -40
-9 -40 -5 0 -5 -5 1 -12 11 -16 10 -98 -2 -117 -6 -10 -4 -12 6 -6 12 8 12 6
0 -8 -7 -9 -9 -17 -5 -17 5 0 9 -18 9 -40 0 -22 -3 -40 -8 -40 -4 0 -5 -6 0
-12 10 -17 10 -109 0 -115 -4 -2 -4 -10 0 -16 10 -17 10 -77 -1 -77 -5 0 -5
-6 0 -12 11 -16 11 -39 0 -57 -7 -11 -6 -12 5 -6 12 8 12 6 0 -8 -7 -9 -9 -17
-5 -17 5 0 9 -18 9 -40 0 -22 -4 -40 -9 -40 -5 0 -5 -5 1 -12 11 -16 10 -98
-2 -117 -6 -10 -4 -12 6 -6 12 8 12 6 0 -8 -7 -9 -9 -17 -5 -17 5 0 9 -18 9
-40 0 -22 -3 -40 -8 -40 -4 0 -5 -6 0 -12 9 -16 10 -108 1 -114 -4 -3 -5 -10
-2 -18 10 -26 11 -96 1 -96 -6 0 -6 -5 0 -12 11 -16 10 -98 -2 -117 -6 -10 -4
-12 6 -6 12 8 12 6 0 -8 -7 -9 -9 -17 -4 -17 10 0 10 -91 -1 -108 -4 -7 -3
-12 2 -12 4 0 8 -22 8 -50 -1 -27 -5 -50 -10 -50 -5 0 -5 -6 0 -12 11 -16 11
-39 0 -57 -7 -11 -6 -12 5 -6 12 8 12 6 0 -8 -7 -9 -9 -17 -4 -17 9 0 10 -90
0 -106 -3 -6 -2 -16 3 -24 5 -9 5 -19 -2 -27 -6 -7 -6 -13 -2 -13 10 0 11 -81
1 -96 -3 -6 -2 -16 3 -24 5 -9 5 -19 -2 -27 -6 -7 -7 -13 -2 -13 5 0 9 -29 9
-65 0 -36 -4 -65 -9 -65 -5 0 -5 -6 0 -12 11 -16 11 -39 0 -57 -7 -11 -6 -12
5 -6 12 8 12 6 0 -8 -7 -9 -9 -17 -5 -17 5 0 9 -18 9 -40 0 -22 -4 -40 -9 -40
-5 0 -5 -5 1 -12 11 -16 10 -98 -2 -117 -6 -10 -4 -12 6 -6 12 8 12 6 0 -8 -7
-9 -9 -17 -5 -17 5 0 9 -18 9 -40 0 -22 -3 -40 -8 -40 -4 0 -5 -6 0 -12 9 -16
10 -108 1 -114 -4 -3 -3 -16 2 -29 6 -15 6 -27 0 -30 -7 -4 -7 -13 0 -24 6
-12 5 -22 -2 -29 -7 -7 -8 -12 -2 -12 10 0 11 -80 1 -96 -3 -6 -2 -16 3 -24 5
-9 5 -19 -2 -27 -6 -7 -7 -13 -2 -13 5 0 9 -34 9 -75 0 -41 -4 -75 -9 -75 -5
0 -4 -6 1 -12 11 -16 10 -98 -2 -117 -6 -10 -4 -12 6 -6 12 8 12 6 0 -8 -7 -9
-9 -17 -4 -17 10 0 10 -91 -1 -108 -4 -7 -3 -12 2 -12 4 0 8 -22 8 -50 -1 -27
-5 -50 -10 -50 -5 0 -5 -6 0 -12 11 -16 11 -39 0 -57 -7 -11 -6 -12 5 -6 12 8
12 6 0 -8 -7 -9 -9 -17 -5 -17 5 0 9 -31 9 -70 0 -38 -4 -70 -9 -70 -5 0 -5
-6 0 -12 11 -16 11 -39 0 -57 -7 -11 -6 -12 5 -6 12 8 12 6 0 -8 -7 -9 -9 -17
-5 -17 5 0 9 -18 9 -40 0 -22 -4 -40 -9 -40 -5 0 -5 -5 1 -12 11 -16 10 -98
-2 -117 -6 -10 -4 -12 6 -6 12 8 12 6 0 -8 -7 -9 -9 -17 -5 -17 5 0 9 -18 9
-40 0 -22 -3 -40 -8 -40 -4 0 -5 -6 0 -12 10 -17 10 -109 0 -115 -4 -2 -4 -10
0 -16 10 -17 10 -77 -1 -77 -5 0 -5 -6 0 -12 11 -16 11 -39 0 -57 -7 -11 -6
-12 5 -6 12 8 12 6 0 -8 -7 -9 -9 -17 -5 -17 5 0 9 -18 9 -40 0 -22 -4 -40 -9
-40 -5 0 -5 -5 1 -12 11 -16 10 -98 -2 -117 -6 -10 -4 -12 6 -6 12 8 12 6 0
-8 -7 -9 -9 -17 -5 -17 5 0 9 -18 9 -40 0 -22 -3 -40 -8 -40 -4 0 -5 -6 0 -12
10 -17 10 -109 0 -115 -4 -2 -4 -10 0 -16 10 -17 10 -77 -1 -77 -5 0 -5 -6 0
-12 11 -16 11 -39 0 -57 -7 -11 -6 -12 5 -6 12 8 12 6 0 -8 -7 -9 -9 -17 -5
-17 5 0 9 -18 9 -40 0 -22 -4 -40 -9 -40 -5 0 -5 -5 1 -12 11 -16 10 -98 -2
-117 -6 -10 -4 -12 6 -6 12 8 12 6 0 -8 -7 -9 -9 -17 -5 -17 5 0 9 -18 9 -40
0 -22 -3 -40 -8 -40 -4 0 -5 -6 0 -12 10 -17 10 -109 0 -115 -4 -2 -4 -10 0
-16 10 -17 10 -77 -1 -77 -5 0 -5 -6 0 -12 11 -16 11 -39 0 -57 -7 -11 -6 -12
5 -6 12 8 12 6 0 -8 -7 -9 -9 -17 -5 -17 5 0 9 -18 9 -40 0 -22 -4 -40 -9 -40
-5 0 -5 -5 1 -12 11 -16 10 -98 -2 -117 -6 -10 -4 -12 6 -6 12 8 12 6 0 -8 -7
-9 -9 -17 -5 -17 5 0 9 -18 9 -40 0 -22 -3 -40 -8 -40 -4 0 -5 -6 0 -12 9 -16
10 -108 1 -114 -4 -3 -5 -10 -2 -18 10 -26 11 -96 1 -96 -6 0 -6 -5 0 -12 11
-16 10 -98 -2 -117 -6 -10 -4 -12 6 -6 12 8 12 6 0 -8 -7 -9 -9 -17 -4 -17 10
0 10 -91 -1 -108 -4 -7 -3 -12 2 -12 4 0 8 -22 8 -50 -1 -27 -5 -50 -10 -50
-5 0 -5 -6 0 -12 11 -16 11 -39 0 -57 -7 -11 -6 -12 5 -6 12 8 12 6 0 -8 -7
-9 -9 -17 -4 -17 9 0 10 -90 0 -106 -3 -6 -2 -16 3 -24 5 -9 5 -19 -2 -27 -6
-7 -6 -13 -2 -13 10 0 11 -81 1 -96 -3 -6 -2 -16 3 -24 5 -9 5 -19 -2 -27 -6
-7 -7 -13 -2 -13 5 0 9 -29 9 -65 0 -36 -4 -65 -9 -65 -5 0 -5 -6 0 -12 11
-16 11 -39 0 -57 -7 -11 -6 -12 5 -6 12 8 12 6 0 -8 -7 -9 -9 -17 -5 -17 5 0
9 -18 9 -40 0 -22 -4 -40 -9 -40 -5 0 -5 -5 1 -12 11 -16 10 -98 -2 -117 -6
-10 -4 -12 6 -6 12 8 12 6 0 -8 -7 -9 -9 -17 -5 -17 5 0 9 -18 9 -40 0 -22 -3
-40 -8 -40 -4 0 -5 -6 0 -12 9 -16 10 -108 1 -114 -4 -3 -3 -16 2 -29 6 -15 6
-27 0 -30 -7 -4 -7 -13 0 -24 6 -12 5 -22 -2 -29 -7 -7 -8 -12 -2 -12 10 0 11
-80 1 -96 -3 -6 -2 -16 3 -24 5 -9 5 -19 -2 -27 -6 -7 -7 -13 -2 -13 5 0 9
-34 9 -75 0 -41 -4 -75 -9 -75 -5 0 -4 -6 1 -12 11 -16 10 -98 -2 -117 -6 -10
-4 -12 6 -6 12 8 12 6 0 -8 -7 -9 -9 -17 -4 -17 10 0 10 -91 -1 -108 -4 -7 -3
-12 2 -12 4 0 8 -22 8 -50 -1 -27 -5 -50 -10 -50 -5 0 -5 -6 0 -12 11 -16 11
-39 0 -57 -7 -11 -6 -12 5 -6 12 8 12 6 0 -8 -7 -9 -9 -17 -5 -17 5 0 9 -31 9
-70 0 -38 -4 -70 -9 -70 -5 0 -5 -6 0 -12 11 -16 11 -39 0 -57 -7 -11 -6 -12
5 -6 12 8 12 6 0 -8 -7 -9 -9 -17 -5 -17 5 0 9 -18 9 -40 0 -22 -4 -40 -9 -40
-5 0 -5 -5 1 -12 11 -16 10 -98 -2 -117 -6 -10 -4 -12 6 -6 12 8 12 6 0 -8 -7
-9 -9 -17 -5 -17 5 0 9 -18 9 -40 0 -22 -3 -40 -8 -40 -4 0 -5 -6 0 -12 10
-17 10 -109 0 -115 -4 -2 -4 -10 0 -16 10 -17 10 -77 -1 -77 -5 0 -5 -6 0 -12
11 -16 11 -39 0 -57 -7 -11 -6 -12 5 -6 12 8 12 6 0 -8 -7 -9 -9 -17 -5 -17 5
0 9 -18 9 -40 0 -22 -4 -40 -9 -40 -5 0 -5 -5 1 -12 11 -16 10 -98 -2 -117 -6
-10 -4 -12 6 -6 12 8 12 6 0 -8 -7 -9 -9 -17 -5 -17 5 0 9 -18 9 -40 0 -22 -3
-40 -8 -40 -4 0 -5 -6 0 -12 9 -16 10 -108 1 -114 -4 -3 -3 -16 2 -29 6 -15 6
-27 0 -30 -7 -4 -7 -13 0 -24 6 -12 5 -22 -2 -29 -7 -7 -8 -12 -2 -12 10 0 11
-80 1 -96 -3 -6 -2 -16 3 -24 5 -9 5 -19 -2 -27 -6 -7 -7 -13 -2 -13 5 0 9
-29 9 -65 0 -36 -4 -65 -9 -65 -5 0 -5 -6 0 -12 11 -16 11 -39 0 -57 -7 -11
-6 -12 5 -6 12 8 12 6 0 -8 -7 -9 -9 -17 -5 -17 5 0 9 -18 9 -40 0 -22 -4 -40
-9 -40 -5 0 -5 -5 1 -12 11 -16 10 -98 -2 -117 -6 -10 -4 -12 6 -6 12 8 12 6
0 -8 -7 -9 -9 -17 -5 -17 5 0 9 -18 9 -40 0 -22 -3 -40 -8 -40 -4 0 -5 -6 0
-12 9 -16 10 -108 1 -114 -4 -3 -3 -16 2 -29 6 -15 6 -27 0 -30 -7 -4 -7 -13
0 -24 6 -12 5 -22 -2 -29 -7 -7 -8 -12 -2 -12 10 0 11 -80 1 -96 -3 -6 -2 -16
3 -24 5 -9 5 -19 -2 -27 -6 -8 -7 -13 -1 -13 10 0 8 -54 -2 -71 -4 -5 -3 -9 2
-9 4 0 8 -36 8 -79 -1 -44 2 -78 5 -76 3 2 6 -5 6 -16 0 -10 -5 -19 -11 -19
-5 0 -1 -7 9 -15 18 -13 15 -19 -6 -16 -4 0 0 -15 8 -34 9 -23 10 -36 3 -40
-7 -5 -6 -11 1 -20 6 -8 12 -27 12 -44 1 -17 4 -28 8 -26 4 2 7 -2 7 -10 0 -8
-5 -15 -11 -15 -6 0 -3 -5 7 -11 9 -5 17 -15 17 -20 0 -6 -6 -7 -12 -2 -7 4
-5 -5 5 -21 10 -15 16 -30 13 -34 -3 -3 1 -16 9 -28 11 -17 12 -24 2 -27 -9
-4 -9 -6 1 -6 6 -1 12 -10 12 -22 0 -11 4 -18 8 -15 5 3 8 -8 7 -23 -1 -19 3
-27 10 -25 6 3 12 -1 13 -8 3 -40 9 -55 25 -69 9 -9 17 -23 17 -32 0 -8 5 -17
10 -19 6 -2 12 -13 12 -25 1 -12 7 -19 15 -16 7 3 13 0 13 -6 0 -6 0 -13 0
-16 0 -2 26 -31 57 -62 32 -32 56 -61 55 -65 -1 -5 5 -8 14 -8 9 0 12 -5 8
-12 -5 -8 0 -7 11 2 10 8 16 11 13 5 -6 -12 37 -57 46 -48 3 4 6 0 6 -7 0 -7
3 -11 6 -7 4 3 13 -1 21 -9 9 -8 22 -13 30 -10 8 3 11 1 8 -4 -3 -6 4 -10 17
-10 19 0 20 -2 8 -11 -12 -9 -10 -10 8 -6 17 4 22 2 18 -8 -3 -9 3 -12 20 -10
13 1 24 -2 24 -7 0 -5 4 -7 9 -3 5 3 12 1 16 -4 3 -6 12 -8 20 -5 8 4 18 -1
21 -10 5 -14 9 -14 22 -4 10 8 13 8 9 2 -4 -7 0 -15 9 -18 10 -4 13 -2 8 7 -6
9 -4 9 8 -1 9 -7 20 -12 24 -11 23 4 45 -2 39 -10 -3 -6 6 -8 20 -5 16 3 25 0
25 -8 0 -8 3 -9 8 -3 9 13 32 18 32 7 0 -7 29 -12 78 -15 6 0 12 -5 12 -10 0
-5 6 -4 14 2 10 8 16 9 21 1 3 -5 11 -10 16 -10 6 0 8 4 5 8 -3 5 1 9 9 9 8 0
11 -5 8 -10 -3 -5 0 -7 8 -5 8 3 22 1 32 -4 9 -5 17 -5 17 -1 0 14 182 6 191
-9 7 -10 9 -8 9 6 0 17 1 18 26 1 15 -9 24 -12 20 -7 -10 17 164 20 181 4 11
-11 13 -11 13 3 0 16 2 16 26 0 15 -9 24 -12 20 -7 -10 17 164 20 181 4 11
-11 13 -11 13 3 0 16 2 16 26 0 15 -9 24 -12 20 -7 -10 17 164 20 181 4 11
-11 13 -11 13 3 0 16 2 16 26 0 15 -9 24 -12 20 -7 -10 17 164 20 181 4 11
-11 13 -11 13 3 0 16 2 16 26 0 15 -9 24 -12 20 -7 -10 17 164 20 181 4 11
-11 13 -11 13 3 0 16 2 16 26 0 15 -9 24 -12 20 -7 -10 17 164 20 181 4 11
-11 13 -11 13 3 0 16 2 16 26 0 15 -9 24 -12 20 -7 -10 17 164 20 181 4 11
-11 13 -11 13 3 0 16 2 16 26 0 15 -9 24 -12 20 -7 -10 17 164 20 181 4 11
-11 13 -11 13 3 0 16 2 16 26 0 15 -9 24 -12 20 -7 -10 17 164 20 181 4 11
-11 13 -11 13 3 0 12 4 14 19 5 14 -7 20 -7 23 1 3 8 10 6 21 -5 16 -16 17
-16 17 -1 0 16 2 16 26 0 15 -9 24 -12 20 -7 -10 17 164 20 181 4 11 -11 13
-11 13 3 0 16 2 16 26 0 15 -9 24 -12 20 -7 -10 17 164 20 181 4 11 -11 13
-11 13 3 0 16 2 16 26 0 15 -9 23 -12 19 -5 -6 9 6 11 44 9 28 -2 51 0 51 5 0
6 6 1 14 -9 13 -18 13 -18 24 1 6 10 12 14 12 9 0 -11 40 -15 40 -4 0 10 94 5
102 -6 5 -6 8 -6 8 2 0 7 11 10 28 9 15 -2 33 1 41 8 10 7 13 7 8 0 -3 -6 0
-11 8 -11 8 0 12 4 9 9 -3 4 0 8 5 8 6 0 11 -6 11 -12 0 -9 3 -9 8 -3 8 13 22
13 41 1 10 -6 12 -5 7 2 -7 12 4 16 38 12 10 -1 23 4 27 12 6 8 9 9 9 1 0 -6
8 -10 18 -8 9 2 17 4 17 5 0 9 41 6 47 -3 5 -8 8 -6 8 5 0 12 5 15 17 11 9 -4
14 -2 10 3 -3 6 8 9 29 8 20 -2 32 1 29 6 -9 14 9 12 24 -3 11 -10 12 -9 6 2
-6 11 -4 13 8 8 10 -3 17 -2 17 4 0 6 5 7 10 4 6 -3 10 -1 10 5 0 7 7 9 16 6
9 -4 23 -1 30 5 8 6 20 9 29 5 8 -3 14 0 12 6 -1 7 4 13 11 14 6 1 14 3 17 4
3 1 11 3 18 4 6 1 11 7 10 14 -2 6 4 9 12 5 9 -3 25 3 35 12 11 10 20 15 20
11 0 -4 7 -1 15 6 34 31 43 36 49 31 3 -4 6 -1 6 5 0 7 7 12 16 12 8 0 12 5 9
10 -6 9 16 15 39 11 5 -1 4 5 -4 13 -10 13 -10 16 4 16 9 0 16 5 16 11 0 5 4
8 9 4 5 -3 13 0 17 6 4 8 3 9 -4 5 -7 -4 -12 -2 -12 3 0 6 6 11 13 11 7 0 21
12 32 27 11 14 26 32 33 40 7 7 10 13 6 13 -4 0 0 6 10 13 9 7 18 22 19 34 0
12 4 20 7 18 3 -2 12 5 19 17 10 16 10 19 -1 13 -7 -3 -2 3 11 14 14 13 18 21
10 21 -12 0 -12 2 0 9 8 5 11 16 8 26 -4 9 -3 14 3 10 6 -3 13 2 16 12 3 10
10 26 15 37 8 14 8 16 -3 10 -10 -6 -10 -4 1 9 7 9 10 17 5 17 -5 0 -4 4 2 8
11 6 24 59 28 107 0 11 8 23 16 27 12 5 12 7 -3 7 -16 1 -16 3 -3 24 7 12 13
32 11 45 -1 13 2 25 7 28 4 3 8 10 8 15 0 6 -6 7 -12 3 -10 -6 -10 -5 -1 8 7
8 10 18 6 21 -3 4 -1 7 6 7 9 0 9 5 1 20 -7 13 -7 20 -1 20 6 0 8 7 5 15 -4 8
0 23 7 32 10 12 10 15 2 9 -15 -8 -17 3 -3 24 5 9 5 19 -1 26 -7 8 -6 14 1 19
5 3 10 11 10 16 0 6 -6 7 -12 3 -10 -6 -10 -5 -1 7 10 12 10 18 0 29 -10 10
-9 12 6 7 12 -5 16 -3 11 5 -11 17 -10 158 0 158 5 0 1 10 -10 22 -10 12 -14
18 -7 15 9 -6 11 67 10 298 -1 177 2 305 7 305 5 0 1 10 -10 22 -10 12 -14 18
-7 15 9 -6 11 47 10 218 -1 129 2 225 7 225 5 0 1 10 -10 22 -10 12 -14 18 -7
14 9 -5 12 10 11 57 -1 35 2 69 6 75 3 6 1 14 -5 18 -8 5 -9 3 -4 -6 6 -9 4
-11 -4 -6 -9 6 -8 12 4 26 15 17 15 19 -2 29 -11 7 -13 11 -4 11 7 0 11 6 7
15 -3 8 0 15 5 15 7 0 4 11 -6 26 -9 15 -12 24 -7 20 7 -4 10 23 10 77 -1 46
2 89 6 95 4 7 0 15 -9 18 -14 6 -14 8 1 19 16 11 16 13 -2 23 -12 7 -14 12 -5
12 7 0 11 6 7 15 -3 8 0 15 5 15 7 0 4 11 -6 26 -9 15 -12 23 -6 19 9 -5 11 7
8 44 -2 31 1 51 7 51 7 0 8 3 1 8 -13 9 -14 382 -1 382 5 0 1 10 -10 22 -10
12 -14 18 -7 14 16 -9 15 206 -1 216 -7 5 -4 8 7 8 11 0 15 5 11 11 -9 16 -10
129 -1 129 5 0 5 5 2 10 -4 6 -12 7 -18 3 -9 -5 -9 -3 -1 8 15 19 24 58 15 63
-4 3 -5 30 -3 60 2 38 0 56 -8 56 -6 0 -8 5 -5 10 4 6 12 7 18 4 9 -5 9 -4 0
6 -8 8 -9 20 -3 36 6 14 6 26 0 29 -6 3 -6 15 0 31 8 19 6 26 -5 31 -13 5 -13
7 2 19 17 13 17 13 -2 14 -12 0 -16 3 -8 8 7 4 11 37 10 88 0 44 3 86 7 92 3
6 1 14 -5 18 -8 5 -9 3 -4 -6 6 -9 4 -11 -4 -6 -9 6 -8 12 4 26 15 17 15 19
-2 29 -11 7 -13 11 -4 11 7 0 11 6 7 15 -3 8 0 15 5 15 7 0 4 11 -6 26 -9 15
-12 24 -7 20 7 -4 10 23 10 77 -1 46 2 89 6 95 4 7 0 15 -9 18 -14 6 -14 8 1
19 16 11 16 13 -2 23 -12 7 -14 12 -5 12 7 0 11 6 7 15 -3 8 0 15 5 15 7 0 4
11 -6 26 -9 15 -12 24 -7 20 7 -4 10 23 10 77 -1 46 2 89 6 95 3 6 1 14 -5 18
-8 5 -9 3 -4 -6 6 -9 4 -11 -4 -6 -9 6 -8 12 4 26 15 17 15 19 -2 29 -11 7
-13 11 -4 11 7 0 11 6 7 15 -3 8 0 15 5 15 7 0 4 11 -6 26 -9 15 -12 24 -7 20
7 -4 10 23 10 77 -1 46 2 89 6 95 4 7 0 15 -9 18 -14 6 -14 8 1 19 16 11 16
13 -2 23 -12 7 -14 12 -5 12 7 0 11 6 7 15 -3 8 0 15 5 15 7 0 4 11 -6 26 -9
15 -12 23 -6 19 9 -5 11 7 8 44 -2 31 1 51 7 51 7 0 8 3 1 8 -13 9 -14 382 -1
382 5 0 1 10 -10 22 -10 12 -14 18 -7 14 16 -9 15 206 -1 216 -7 5 -4 8 7 8
11 0 15 5 11 11 -9 16 -10 129 -1 129 5 0 5 5 2 10 -4 6 -12 7 -18 3 -9 -5 -9
-3 -1 8 15 19 24 58 15 63 -4 3 -5 30 -3 60 2 38 0 56 -8 56 -6 0 -8 5 -5 10
4 6 12 7 18 4 9 -5 9 -4 0 6 -8 8 -9 20 -3 36 6 14 6 26 0 29 -6 3 -6 15 0 31
8 19 6 26 -5 31 -13 5 -13 7 2 19 17 13 17 13 -2 14 -12 0 -16 3 -8 8 7 4 11
37 10 88 0 44 3 86 7 92 3 6 1 14 -5 18 -8 5 -9 3 -4 -6 6 -9 4 -11 -4 -6 -9
6 -8 12 4 26 15 17 15 19 -2 29 -11 7 -13 11 -4 11 7 0 11 6 7 15 -3 8 0 15 5
15 7 0 4 11 -6 26 -9 15 -12 24 -7 20 7 -4 10 23 10 77 -1 46 2 89 6 95 4 7 0
15 -9 18 -14 6 -14 8 1 19 16 11 16 13 -2 23 -12 7 -14 12 -5 12 7 0 11 6 7
15 -3 8 0 15 5 15 7 0 4 11 -6 26 -9 15 -12 24 -7 20 7 -4 10 23 10 77 -1 46
2 89 6 95 3 6 1 14 -5 18 -8 5 -9 3 -4 -6 6 -9 4 -11 -4 -6 -9 6 -8 12 4 26
15 17 15 19 -2 29 -11 7 -13 11 -4 11 7 0 11 6 7 15 -3 8 0 15 5 15 7 0 4 11
-6 26 -9 15 -12 24 -7 20 7 -4 10 23 10 77 -1 46 2 89 6 95 4 7 0 15 -9 18
-14 6 -14 8 1 19 16 11 16 13 -2 23 -12 7 -14 12 -5 12 7 0 11 6 7 15 -3 8 0
15 5 15 7 0 4 11 -6 26 -9 15 -12 23 -6 19 9 -5 11 7 8 44 -2 31 1 51 7 51 7
0 8 3 1 8 -13 9 -14 382 -1 382 5 0 1 10 -10 22 -10 12 -14 18 -7 14 16 -9 15
206 -1 216 -7 5 -4 8 7 8 11 0 15 5 11 11 -9 16 -10 129 -1 129 5 0 5 5 2 10
-4 6 -12 7 -18 3 -9 -5 -9 -3 -1 8 15 19 24 58 15 63 -4 3 -5 30 -3 60 2 38 0
56 -8 56 -6 0 -8 5 -5 10 4 6 12 7 18 4 9 -5 9 -4 0 6 -8 8 -9 20 -3 36 6 14
6 26 0 29 -6 3 -6 15 0 31 8 19 6 26 -5 31 -13 5 -13 7 2 19 17 13 17 13 -2
14 -12 0 -16 3 -8 8 7 4 11 37 10 88 0 44 3 86 7 92 3 6 1 14 -5 18 -8 5 -9 3
-4 -6 6 -9 4 -11 -4 -6 -9 6 -8 12 4 26 15 17 15 19 -2 29 -11 7 -13 11 -4 11
7 0 11 6 7 15 -3 8 0 15 5 15 7 0 4 11 -6 26 -9 15 -12 24 -7 20 7 -4 10 23
10 77 -1 46 2 89 6 95 4 7 0 15 -9 18 -14 6 -14 8 1 19 16 11 16 13 -2 23 -12
7 -14 12 -5 12 7 0 11 6 7 15 -3 8 0 15 5 15 7 0 4 11 -6 26 -9 15 -12 24 -7
20 7 -4 10 23 10 77 -1 46 2 89 6 95 3 6 1 14 -5 18 -8 5 -9 3 -4 -6 6 -9 4
-11 -4 -6 -9 6 -8 12 4 26 15 17 15 19 -2 29 -11 7 -13 11 -4 11 7 0 11 6 7
15 -3 8 0 15 5 15 7 0 4 11 -6 26 -9 15 -12 24 -7 20 7 -4 10 23 10 77 -1 46
2 89 6 95 4 7 0 15 -9 18 -14 6 -14 8 1 19 16 11 16 13 -2 23 -12 7 -14 12 -5
12 7 0 11 6 7 15 -3 8 0 15 5 15 7 0 4 11 -6 26 -9 15 -12 23 -6 19 9 -5 11 7
8 44 -2 31 1 51 7 51 7 0 8 3 1 8 -13 9 -14 382 -1 382 5 0 1 10 -10 22 -10
12 -14 18 -7 14 16 -9 15 206 -1 216 -7 5 -4 8 7 8 11 0 15 5 11 11 -9 16 -10
129 -1 129 5 0 5 5 2 10 -4 6 -12 7 -18 3 -9 -5 -9 -3 -1 8 15 19 24 58 15 63
-4 3 -5 30 -3 60 2 38 0 56 -8 56 -6 0 -8 5 -5 10 4 6 12 7 18 4 9 -5 9 -4 0
6 -8 8 -9 20 -3 36 6 14 6 26 0 29 -6 3 -6 15 0 31 8 19 6 26 -5 31 -13 5 -13
7 2 19 17 13 17 13 -2 14 -12 0 -16 3 -8 8 7 4 11 37 10 88 0 44 3 86 7 92 3
6 1 14 -5 18 -8 5 -9 3 -4 -6 6 -9 4 -11 -4 -6 -9 6 -8 12 4 26 15 17 15 19
-2 29 -11 7 -13 11 -4 11 7 0 11 6 7 15 -3 8 0 15 5 15 7 0 4 11 -6 26 -9 15
-12 24 -7 20 7 -4 10 23 10 77 -1 46 2 89 6 95 4 7 0 15 -9 18 -14 6 -14 8 1
19 16 11 16 13 -2 23 -12 7 -14 12 -5 12 7 0 11 6 7 15 -3 8 0 15 5 15 7 0 4
11 -6 26 -9 15 -12 24 -7 20 7 -4 10 23 10 77 -1 46 2 89 6 95 3 6 1 14 -5 18
-8 5 -9 3 -4 -6 6 -9 4 -11 -4 -6 -9 6 -8 12 4 26 15 17 15 19 -2 29 -11 7
-13 11 -4 11 7 0 11 6 7 15 -3 8 0 15 5 15 7 0 4 11 -6 26 -9 15 -12 24 -7 20
7 -4 10 23 10 77 -1 46 2 89 6 95 4 7 0 15 -9 18 -14 6 -14 8 1 19 16 11 16
13 -2 23 -12 7 -14 12 -5 12 7 0 11 6 7 15 -3 8 0 15 6 15 9 0 9 3 1 11 -6 6
-9 18 -6 27 5 11 3 13 -7 7 -9 -6 -11 -4 -6 4 5 7 15 10 24 6 13 -5 13 -2 -2
14 -10 11 -15 24 -12 30 4 5 2 13 -4 16 -8 5 -7 11 1 21 9 11 8 14 -2 14 -11
0 -11 2 1 10 10 6 11 10 3 10 -7 0 -13 5 -13 11 0 5 6 7 13 3 10 -6 10 -4 0 7
-7 7 -13 17 -13 22 0 4 6 5 13 1 9 -6 9 -4 -1 8 -7 9 -12 20 -10 24 1 5 -4 20
-12 34 -13 24 -12 24 6 10 18 -14 18 -14 4 10 -8 14 -15 40 -15 58 1 17 -4 32
-10 32 -6 0 -10 14 -9 30 1 17 -3 30 -9 30 -7 0 -5 5 3 10 8 5 11 10 5 10 -5
0 -15 11 -22 25 -6 15 -7 22 -1 19 6 -4 6 1 -1 13 -6 11 -7 24 -3 28 4 5 1 5
-5 1 -8 -4 -13 -1 -13 8 0 27 -23 66 -34 59 -6 -4 -4 2 4 12 9 11 10 16 3 11
-9 -5 -13 0 -13 13 0 12 -4 21 -10 21 -5 0 -10 9 -10 21 0 11 -4 18 -8 15 -7
-4 -30 38 -32 59 -1 6 -10 13 -21 17 -11 4 -19 17 -19 29 0 15 -5 19 -15 15
-9 -3 -15 0 -15 9 0 8 -8 15 -17 15 -15 0 -16 2 -3 10 13 9 13 10 0 11 -8 1
-19 1 -24 0 -5 -1 -6 5 -2 14 3 9 2 13 -4 10 -6 -3 -13 1 -16 9 -3 9 -13 16
-20 16 -8 0 -17 7 -20 15 -4 8 -10 12 -15 9 -5 -3 -9 2 -9 11 0 9 -4 13 -10
10 -5 -3 -10 -1 -10 4 0 6 -7 11 -16 11 -8 0 -12 4 -9 10 4 6 -1 7 -11 3 -14
-5 -16 -3 -11 11 4 10 3 15 -3 11 -14 -9 -52 4 -45 16 3 5 0 6 -8 3 -8 -3 -18
-1 -21 5 -4 6 -14 7 -23 4 -9 -4 -14 -2 -10 3 3 6 -7 15 -24 21 -17 7 -27 7
-23 1 7 -11 -38 13 -47 25 -3 5 -9 8 -13 8 -30 -4 -46 0 -40 12 5 8 2 8 -9 -2
-9 -7 -17 -9 -17 -4 0 8 -7 10 -65 14 -14 1 -25 7 -25 13 0 6 -5 4 -10 -4 -7
-11 -10 -12 -10 -2 0 9 -7 11 -21 7 -12 -4 -19 -3 -16 1 3 5 -12 9 -33 9 -24
1 -36 -3 -32 -10 3 -5 -1 -5 -9 2 -20 16 -3453 17 -3443 1 5 -7 2 -8 -7 -3
-19 12 -60 15 -54 4 4 -5 -4 -5 -19 1 -14 5 -26 6 -26 1z"/>
<path d="M24711 31437 c-6 -8 -10 -16 -8 -18 1 -2 -3 2 -9 9 -9 10 -13 10 -18
-3 -4 -10 -11 -13 -18 -8 -18 11 -39 13 -33 3 3 -4 -2 -10 -10 -14 -8 -3 -15
0 -15 7 0 8 -3 8 -9 -2 -5 -8 -27 -14 -49 -15 -22 0 -38 -4 -35 -9 2 -4 10 -4
16 -1 7 4 9 3 4 -1 -7 -8 -25 -12 -84 -17 -12 -1 -21 -7 -20 -12 2 -9 -2 -11
-34 -15 -5 0 -7 -5 -4 -11 3 -6 -1 -7 -10 -4 -9 4 -22 -1 -31 -12 -9 -11 -12
-13 -9 -6 6 11 3 11 -13 1 -12 -7 -19 -16 -16 -20 2 -5 -4 -6 -14 -4 -10 2
-25 -5 -33 -16 -7 -10 -19 -19 -26 -19 -7 0 -13 -5 -13 -12 0 -6 -3 -8 -6 -5
-4 4 -22 -9 -40 -29 -19 -19 -34 -32 -34 -28 0 4 -9 -3 -20 -16 -11 -12 -17
-27 -14 -32 3 -5 -2 -8 -12 -6 -13 2 -19 -3 -18 -14 2 -17 -8 -23 -29 -19 -5
1 -6 -3 -2 -9 3 -5 1 -10 -4 -10 -6 0 -11 -6 -11 -13 0 -7 -9 -23 -19 -34 -13
-13 -16 -24 -10 -32 5 -6 6 -9 3 -7 -11 8 -42 -27 -37 -40 3 -8 0 -14 -7 -14
-6 0 -8 -5 -5 -10 3 -6 -1 -13 -9 -16 -9 -3 -16 -10 -16 -16 0 -5 4 -7 10 -3
5 3 3 -7 -5 -21 -8 -15 -11 -32 -8 -37 4 -6 0 -8 -9 -5 -12 5 -15 -1 -15 -25
0 -18 -5 -42 -11 -54 -9 -16 -9 -24 -1 -29 9 -5 6 -11 -6 -21 -11 -7 -16 -13
-13 -13 4 0 3 -13 -2 -30 -5 -19 -5 -30 1 -30 6 0 3 -7 -5 -16 -21 -20 -20
-28 1 -20 16 6 16 6 1 -11 -24 -26 -24 -28 -8 -48 8 -11 10 -16 3 -12 -13 8
-13 -40 1 -62 6 -10 5 -12 -2 -7 -9 5 -11 -9 -9 -53 2 -38 -1 -61 -7 -61 -7 0
-8 -3 -1 -8 13 -9 13 -92 0 -92 -5 0 -3 -5 5 -11 11 -8 12 -12 2 -16 -6 -2 -9
-10 -5 -16 8 -13 8 -86 -1 -94 -3 -3 -1 -12 5 -20 9 -10 7 -13 -7 -13 -16 0
-16 -2 -4 -10 8 -5 11 -12 8 -16 -4 -4 -3 -14 2 -24 6 -12 4 -24 -7 -40 -9
-13 -12 -20 -6 -17 6 4 13 0 17 -8 3 -8 2 -15 -3 -15 -8 0 -5 -59 4 -88 3 -7
1 -10 -4 -7 -5 3 -12 1 -16 -5 -3 -5 -1 -10 4 -10 6 0 11 -12 11 -26 0 -16 -4
-23 -12 -18 -7 5 -8 3 -2 -7 12 -19 12 -33 -1 -41 -6 -5 -5 -8 4 -8 10 0 11
-3 2 -14 -9 -11 -9 -16 0 -21 8 -6 7 -10 -2 -16 -12 -7 -12 -9 0 -9 11 0 11
-3 0 -17 -10 -11 -10 -14 -1 -9 6 4 12 3 12 -3 0 -5 -5 -13 -10 -16 -6 -4 -7
-13 -1 -23 6 -11 6 -24 0 -35 -8 -13 -6 -17 7 -17 16 0 16 -1 -1 -13 -12 -10
-14 -16 -7 -21 7 -4 12 -12 12 -17 0 -6 -5 -7 -11 -3 -8 5 -8 1 0 -14 8 -15 8
-22 -2 -25 -9 -4 -9 -6 1 -6 6 -1 12 -6 12 -12 0 -5 -4 -8 -8 -5 -10 6 -9 -30
1 -40 10 -10 9 -26 -1 -20 -10 6 -9 -30 1 -40 12 -12 8 -26 -5 -18 -10 6 -10
4 -2 -7 9 -12 11 -33 4 -41 -1 -2 -3 -13 -4 -25 -2 -14 2 -20 8 -16 6 4 5 -1
-3 -10 -11 -14 -11 -17 0 -17 12 0 12 -2 1 -9 -8 -4 -14 -12 -14 -16 0 -4 6
-12 14 -16 7 -5 8 -9 2 -9 -14 0 -14 -30 0 -30 6 0 5 -4 -2 -9 -8 -4 -14 -12
-14 -16 0 -4 6 -12 14 -16 8 -6 9 -9 1 -9 -12 0 -12 -24 0 -36 4 -4 2 -13 -4
-20 -7 -8 -7 -14 1 -19 8 -5 8 -11 -1 -21 -8 -10 -9 -18 0 -27 6 -8 8 -17 4
-21 -12 -12 -12 -36 0 -36 8 0 7 -3 -1 -9 -8 -4 -14 -12 -14 -16 0 -4 6 -12
14 -16 7 -5 8 -9 3 -9 -6 0 -11 -16 -11 -35 0 -19 4 -35 9 -35 4 0 5 -6 0 -12
-12 -21 -12 -38 0 -38 8 0 7 -3 -1 -9 -8 -4 -14 -12 -14 -16 0 -4 6 -12 14
-16 10 -7 10 -9 0 -9 -10 0 -10 -5 -2 -20 6 -11 7 -20 2 -20 -5 0 -9 -7 -9
-15 0 -8 5 -15 11 -15 7 0 7 -3 1 -8 -15 -11 -17 -32 -3 -32 10 0 10 -2 0 -9
-8 -4 -14 -12 -14 -16 0 -4 6 -12 14 -16 7 -5 8 -9 2 -9 -6 0 -10 -13 -10 -30
0 -16 4 -30 10 -30 6 0 5 -4 -2 -9 -8 -4 -14 -12 -14 -16 0 -4 6 -12 14 -16 8
-6 9 -9 1 -9 -12 0 -12 -24 0 -36 4 -4 2 -13 -4 -20 -7 -8 -7 -14 1 -19 8 -5
8 -11 -1 -21 -9 -11 -9 -14 1 -14 9 0 9 -4 -1 -17 -10 -11 -10 -14 -1 -9 15 9
15 1 2 -24 -7 -13 -7 -21 0 -25 15 -9 12 -27 -2 -19 -10 5 -10 4 -1 -6 8 -8 9
-20 3 -36 -6 -15 -5 -26 1 -30 8 -4 7 -9 -2 -15 -8 -5 -9 -9 -3 -9 6 0 11 -7
11 -15 0 -8 -4 -15 -9 -15 -5 0 -6 -5 -3 -10 4 -6 12 -8 18 -4 7 3 3 -2 -7
-10 -13 -10 -15 -16 -7 -16 11 0 11 -3 1 -15 -10 -12 -10 -15 0 -15 10 0 10
-3 0 -15 -10 -12 -10 -15 0 -15 9 0 9 -4 -1 -17 -10 -11 -10 -14 -1 -9 15 9
15 1 2 -24 -7 -13 -7 -21 0 -25 15 -9 12 -27 -2 -19 -10 5 -10 4 -1 -6 8 -9 9
-19 2 -31 -7 -13 -5 -20 8 -28 17 -10 17 -10 -1 -11 -20 0 -20 0 0 -15 10 -8
15 -15 9 -14 -22 3 -29 -2 -16 -10 13 -8 13 -12 0 -27 -8 -10 -9 -15 -2 -11 6
4 14 3 18 -3 3 -5 2 -10 -3 -10 -9 0 -8 -47 2 -57 2 -3 1 -15 -4 -28 -5 -13
-5 -26 0 -31 6 -6 4 -20 -5 -36 -7 -15 -10 -27 -5 -25 4 1 8 -1 9 -5 3 -22 0
-29 -11 -23 -7 4 -4 -1 6 -9 11 -9 15 -16 9 -16 -8 0 -9 -9 -3 -30 5 -19 5
-28 -1 -25 -5 4 -9 1 -9 -4 0 -6 3 -11 8 -11 4 0 6 -60 5 -132 -1 -89 2 -138
10 -147 9 -12 9 -13 -1 -7 -9 6 -12 1 -10 -16 2 -12 7 -29 12 -37 6 -10 5 -12
-2 -7 -8 5 -11 -5 -9 -34 1 -22 5 -40 10 -40 4 0 7 -5 7 -11 0 -5 -4 -8 -8 -5
-5 3 -9 -1 -9 -9 0 -8 4 -15 8 -15 13 0 18 -29 7 -36 -7 -5 -8 -2 -3 6 6 9 4
11 -5 5 -11 -7 -10 -10 1 -19 8 -6 13 -21 11 -33 -2 -14 2 -23 10 -23 10 0 9
-3 -2 -10 -8 -5 -10 -10 -4 -10 6 0 12 -10 12 -22 0 -33 5 -51 20 -66 6 -7 12
-19 12 -25 0 -7 -4 -6 -10 3 -6 9 -10 10 -10 3 0 -6 4 -15 10 -18 5 -3 15 -16
22 -28 11 -21 10 -21 -7 -7 -11 8 -6 -3 10 -24 17 -22 24 -37 18 -32 -9 5 -11
2 -7 -8 3 -9 10 -16 15 -16 5 0 9 -9 9 -20 0 -11 5 -20 10 -20 6 0 10 -7 10
-15 0 -8 5 -15 10 -15 6 0 10 -5 10 -11 0 -6 7 -17 15 -26 8 -8 12 -20 8 -26
-4 -7 -1 -7 9 1 14 11 16 10 14 -5 -3 -18 16 -43 32 -43 5 0 12 -9 15 -21 3
-12 10 -18 16 -14 6 3 11 -1 11 -9 0 -9 5 -16 11 -16 5 0 7 -5 3 -12 -4 -6 -3
-8 4 -4 6 3 23 -5 38 -19 14 -13 31 -22 36 -19 4 3 8 2 7 -3 -1 -4 -1 -15 0
-23 1 -13 2 -13 11 0 8 12 10 12 16 -3 3 -9 15 -17 25 -17 10 0 19 -5 19 -11
0 -6 7 -8 16 -5 8 3 12 2 9 -4 -6 -9 8 -14 28 -11 4 0 7 -3 7 -9 0 -5 7 -6 17
-3 12 5 14 3 8 -7 -6 -10 -4 -12 8 -7 12 4 17 1 18 -11 0 -11 2 -12 6 -4 4 10
8 10 19 1 8 -6 14 -8 14 -4 0 4 7 2 15 -5 8 -6 19 -9 25 -5 5 3 10 1 10 -6 0
-8 5 -7 17 2 9 8 14 9 10 2 -7 -12 49 -30 60 -19 3 3 14 -1 25 -8 11 -8 33
-12 49 -9 20 3 29 0 29 -9 0 -9 3 -9 10 2 8 12 10 12 10 1 0 -11 3 -11 17 0
11 10 14 10 9 2 -4 -7 -3 -13 1 -13 5 0 15 6 22 13 11 10 13 10 7 0 -5 -9 1
-13 21 -13 16 0 35 6 42 13 11 10 12 9 6 -2 -6 -11 1 -13 34 -9 22 2 43 -1 45
-7 3 -5 5 -5 5 2 1 7 8 10 15 7 27 -10 166 -9 166 1 0 6 5 3 10 -5 7 -11 10
-11 10 -2 0 7 5 10 11 6 17 -10 110 -10 117 0 3 5 9 1 13 -10 7 -17 8 -17 8
-1 1 11 6 15 12 11 6 -4 52 -7 102 -6 62 0 85 -3 76 -10 -11 -8 -10 -9 4 -4
10 3 21 6 23 6 3 0 2 6 -2 13 -6 9 -5 9 8 0 8 -7 18 -10 21 -6 4 3 13 0 21 -6
8 -7 17 -8 20 -3 3 5 24 8 46 6 25 -2 40 1 40 8 0 7 6 4 13 -7 10 -12 16 -14
21 -7 4 7 14 12 22 12 9 0 12 -5 8 -12 -4 -7 -3 -8 5 -4 20 13 61 14 61 3 0
-6 7 -2 16 9 8 10 13 14 10 7 -4 -6 -2 -14 4 -18 5 -3 10 -2 10 3 0 5 13 12
30 14 24 4 27 2 19 -9 -8 -9 -8 -13 -1 -13 6 0 16 8 21 18 6 9 11 12 11 5 0
-7 7 -10 17 -6 11 4 14 3 9 -5 -4 -7 -2 -12 3 -12 6 0 11 4 11 9 0 5 13 11 30
13 24 4 27 2 19 -9 -12 -13 2 -19 15 -6 4 4 19 9 34 10 21 3 24 1 12 -7 -9 -6
-10 -10 -3 -10 6 0 14 4 17 9 3 5 19 7 36 5 18 -2 30 1 30 8 0 7 6 4 13 -7 10
-12 16 -14 21 -7 4 7 14 12 22 12 9 0 12 -5 8 -12 -4 -7 -3 -8 5 -4 6 4 28 10
49 12 29 3 34 2 22 -7 -13 -9 -12 -10 3 -5 10 3 21 6 23 6 3 0 2 6 -2 13 -6 9
-5 9 8 0 8 -7 18 -10 21 -6 4 3 13 1 20 -5 8 -7 17 -9 21 -5 3 4 23 8 44 10
28 2 34 0 22 -8 -12 -9 -12 -10 3 -5 10 3 21 6 23 6 3 0 2 6 -2 13 -6 9 -5 9
8 0 8 -7 18 -10 21 -6 4 3 13 0 21 -6 8 -7 17 -8 20 -3 3 5 24 8 46 6 25 -2
40 1 40 8 0 7 6 4 13 -7 10 -12 16 -14 21 -7 4 7 14 12 22 12 9 0 12 -5 8 -12
-4 -7 -3 -8 5 -4 20 13 61 14 61 3 0 -6 7 -2 16 9 8 10 13 14 10 7 -4 -6 -2
-14 4 -18 5 -3 10 -2 10 3 0 5 13 12 30 14 24 4 27 2 19 -9 -8 -9 -8 -13 -1
-13 6 0 16 8 21 18 6 9 11 12 11 5 0 -7 7 -10 17 -6 11 4 14 3 9 -5 -4 -7 -2
-12 3 -12 6 0 11 4 11 9 0 5 13 11 30 13 24 4 27 2 19 -9 -12 -13 2 -19 15 -6
4 4 19 9 34 10 21 3 24 1 12 -7 -9 -6 -10 -10 -3 -10 6 0 14 4 17 9 3 5 19 7
36 5 18 -2 30 1 30 8 0 7 6 4 13 -7 10 -12 16 -14 21 -7 4 7 14 12 22 12 9 0
12 -5 8 -12 -4 -7 -3 -8 5 -4 6 4 28 10 49 12 29 3 34 2 22 -7 -13 -9 -12 -10
3 -5 10 3 21 6 23 6 3 0 2 6 -2 13 -6 9 -5 9 8 0 8 -7 18 -10 21 -6 4 3 13 1
20 -5 8 -7 17 -9 21 -5 3 4 23 8 44 10 28 2 34 0 22 -8 -12 -9 -12 -10 3 -5
10 3 21 6 23 6 3 0 2 6 -2 13 -6 9 -5 9 8 0 8 -7 18 -10 21 -6 4 3 13 0 21 -6
8 -7 17 -8 20 -3 3 5 24 8 46 6 25 -2 40 1 40 8 0 7 6 4 13 -7 10 -12 16 -14
21 -7 4 7 14 12 22 12 9 0 12 -5 8 -12 -4 -7 -3 -8 5 -4 20 13 61 14 61 3 0
-6 7 -2 16 9 8 10 13 14 10 7 -4 -6 -2 -14 4 -18 5 -3 10 -2 10 3 0 5 13 12
30 14 24 4 27 2 19 -9 -8 -9 -8 -13 -1 -13 6 0 16 8 21 18 6 9 11 12 11 5 0
-7 7 -10 17 -6 11 4 14 3 9 -5 -4 -7 -2 -12 3 -12 6 0 11 4 11 9 0 5 13 11 30
13 24 4 27 2 19 -9 -12 -13 2 -19 15 -6 4 4 19 9 34 10 21 3 24 1 12 -7 -9 -6
-10 -10 -3 -10 6 0 14 4 17 9 3 5 19 7 36 5 18 -2 30 1 30 8 0 7 6 4 13 -7 10
-12 16 -14 21 -7 4 7 14 12 22 12 9 0 12 -5 8 -11 -4 -8 -1 -8 12 -2 11 5 36
8 57 6 27 -1 36 1 32 10 -4 7 -1 5 7 -4 7 -9 20 -14 28 -11 13 5 13 3 0 -13
-8 -10 -10 -16 -4 -12 7 4 12 -2 12 -18 0 -15 -5 -22 -12 -18 -6 3 -3 -2 6
-13 16 -19 16 -22 1 -44 -9 -13 -11 -20 -5 -16 13 8 17 -16 5 -28 -4 -3 -8
-13 -9 -22 -2 -11 3 -13 19 -8 21 6 20 5 -3 -15 -14 -13 -20 -20 -14 -17 12 6
17 -160 6 -179 -11 -18 -11 -35 0 -42 7 -4 8 -1 3 7 -5 8 -4 11 3 6 14 -9 3
-38 -12 -30 -6 3 -3 -1 6 -8 15 -13 15 -15 0 -26 -9 -7 -12 -10 -6 -8 7 4 12
-4 12 -19 0 -15 -5 -22 -12 -18 -6 3 -3 -2 6 -13 16 -19 16 -22 1 -44 -9 -13
-11 -20 -5 -16 13 8 17 -16 5 -28 -4 -3 -8 -13 -9 -22 -2 -11 3 -13 19 -8 21
6 20 5 -3 -15 -14 -13 -20 -20 -14 -17 12 6 17 -160 6 -179 -11 -18 -11 -35 0
-42 7 -4 8 -1 3 7 -5 8 -4 11 3 6 14 -9 3 -38 -12 -30 -6 3 -3 -1 6 -8 15 -13
15 -15 0 -26 -9 -7 -12 -10 -6 -8 7 4 12 -4 12 -19 0 -15 -5 -22 -12 -18 -6 3
-3 -2 6 -13 16 -19 16 -22 1 -44 -9 -13 -11 -20 -5 -16 13 8 17 -16 5 -28 -4
-3 -8 -13 -9 -22 -2 -11 3 -13 19 -8 21 6 20 5 -3 -15 -14 -13 -20 -20 -14
-17 12 6 17 -160 6 -179 -11 -18 -11 -35 0 -42 7 -4 8 -1 3 7 -5 8 -4 11 3 6
14 -9 3 -38 -12 -30 -6 3 -3 -1 6 -8 15 -13 15 -15 0 -26 -9 -7 -12 -10 -6 -8
7 4 12 -4 12 -19 0 -15 -5 -22 -12 -18 -6 3 -3 -2 6 -13 16 -19 16 -22 1 -44
-9 -13 -11 -20 -5 -16 13 8 17 -16 5 -28 -4 -3 -8 -13 -9 -22 -2 -11 3 -13 19
-8 21 6 20 5 -3 -15 -14 -13 -20 -20 -14 -17 12 6 17 -160 6 -179 -11 -18 -11
-35 0 -42 7 -4 8 -1 3 7 -5 8 -4 11 3 6 14 -9 3 -38 -12 -30 -6 3 -3 -1 6 -8
15 -13 15 -15 0 -26 -9 -7 -12 -10 -6 -8 7 4 12 -4 12 -19 0 -15 -5 -22 -12
-18 -6 3 -3 -2 6 -13 16 -19 16 -22 1 -44 -9 -13 -11 -20 -5 -16 13 8 17 -16
5 -28 -4 -3 -8 -13 -9 -22 -2 -11 3 -13 19 -8 21 6 20 5 -3 -15 -14 -13 -20
-20 -14 -17 12 6 17 -160 6 -179 -11 -18 -11 -35 0 -42 7 -4 8 -1 3 7 -5 8 -4
11 3 6 14 -9 3 -38 -12 -30 -6 3 -3 -1 6 -8 15 -13 15 -15 0 -26 -9 -7 -12
-10 -6 -8 7 4 12 -4 12 -19 0 -15 -5 -22 -12 -18 -6 3 -3 -2 6 -13 16 -19 16
-22 1 -44 -9 -13 -11 -20 -5 -16 13 8 17 -16 5 -28 -4 -3 -8 -13 -9 -22 -2
-11 3 -13 19 -8 21 6 20 5 -3 -15 -14 -13 -20 -20 -14 -17 12 6 17 -160 6
-179 -11 -18 -11 -35 0 -42 7 -4 8 -1 3 7 -5 8 -4 11 3 6 14 -9 3 -38 -12 -30
-6 3 -3 -1 6 -8 15 -13 15 -15 0 -26 -9 -7 -12 -10 -6 -8 7 4 12 -4 12 -19 0
-15 -5 -22 -12 -18 -6 3 -3 -2 6 -13 16 -19 16 -22 1 -44 -9 -13 -11 -20 -5
-16 13 8 17 -16 5 -28 -4 -3 -8 -13 -9 -22 -2 -11 3 -13 19 -8 21 6 20 5 -3
-15 -14 -13 -20 -20 -14 -17 12 6 17 -160 6 -179 -11 -18 -11 -35 0 -42 7 -4
8 -1 3 7 -5 8 -4 11 3 6 14 -9 3 -38 -12 -30 -6 3 -3 -1 6 -8 15 -13 15 -15 0
-26 -9 -7 -12 -10 -6 -8 7 4 12 -4 12 -19 0 -15 -5 -22 -12 -18 -6 3 -3 -2 6
-13 16 -19 16 -22 1 -44 -9 -13 -11 -20 -5 -16 13 8 17 -16 5 -28 -4 -3 -8
-13 -9 -22 -2 -11 3 -13 19 -8 21 6 20 5 -3 -15 -14 -13 -20 -20 -14 -17 12 6
17 -160 6 -179 -11 -18 -11 -35 0 -42 7 -4 8 -1 3 7 -5 8 -4 11 3 6 14 -9 3
-38 -12 -30 -6 3 -3 -1 6 -8 15 -13 15 -15 0 -26 -9 -7 -12 -10 -6 -8 7 4 12
-4 12 -19 0 -15 -5 -22 -12 -18 -6 3 -3 -2 6 -13 16 -19 16 -22 1 -44 -9 -13
-11 -20 -5 -16 16 10 15 -16 0 -33 -11 -11 -10 -14 0 -18 6 -3 10 -9 6 -14 -3
-5 0 -9 6 -9 6 0 8 -5 5 -10 -4 -6 -12 -8 -18 -4 -7 3 -4 -1 5 -8 15 -13 15
-15 0 -26 -9 -7 -12 -10 -6 -8 7 4 12 -4 12 -19 0 -15 -5 -22 -12 -18 -6 3 -2
-4 9 -17 11 -13 15 -20 8 -17 -6 4 -14 3 -18 -3 -3 -5 -1 -10 5 -10 6 0 8 -4
5 -10 -3 -5 -1 -10 5 -10 6 0 8 -5 5 -10 -4 -6 -12 -8 -18 -4 -7 3 -4 -1 5 -8
15 -13 15 -15 0 -26 -9 -7 -12 -10 -6 -8 7 4 12 -4 12 -19 0 -15 -5 -22 -12
-18 -6 3 -2 -4 9 -17 11 -13 15 -20 8 -17 -6 4 -14 3 -18 -3 -3 -5 -1 -10 5
-10 6 0 8 -4 5 -10 -3 -5 -1 -10 5 -10 6 0 8 -5 5 -10 -4 -6 -12 -8 -18 -4 -7
3 -4 -1 5 -8 15 -13 15 -15 0 -26 -9 -7 -12 -10 -6 -8 7 4 12 -4 12 -19 0 -15
-5 -22 -12 -18 -6 3 -2 -4 9 -17 11 -13 15 -20 8 -17 -6 4 -14 3 -18 -3 -3 -5
-1 -10 5 -10 6 0 8 -4 5 -10 -3 -5 -1 -10 5 -10 6 0 8 -5 5 -10 -4 -6 -12 -8
-18 -4 -7 3 -4 -1 5 -8 15 -13 15 -15 0 -26 -9 -7 -12 -10 -6 -8 7 4 12 -4 12
-19 0 -15 -5 -22 -12 -18 -6 3 -2 -4 9 -17 11 -13 15 -20 8 -17 -6 4 -14 3
-18 -3 -3 -5 -1 -10 5 -10 6 0 8 -4 5 -10 -3 -5 -1 -10 5 -10 6 0 8 -5 5 -10
-4 -6 -12 -8 -18 -4 -7 3 -4 -1 5 -8 15 -13 15 -15 0 -26 -9 -7 -12 -10 -6 -8
7 4 12 -4 12 -19 0 -15 -5 -22 -12 -18 -6 3 -2 -4 9 -17 11 -13 15 -20 8 -17
-6 4 -14 3 -18 -3 -3 -5 -1 -10 5 -10 6 0 8 -4 5 -10 -3 -5 -1 -10 5 -10 6 0
8 -5 5 -10 -4 -6 -12 -8 -18 -5 -7 3 -4 0 5 -7 15 -11 15 -13 0 -26 -9 -7 -12
-11 -6 -8 7 3 12 -4 12 -19 0 -15 -5 -22 -12 -18 -6 3 -2 -4 9 -17 11 -13 15
-20 8 -17 -6 4 -14 3 -18 -3 -3 -5 -1 -10 5 -10 6 0 8 -4 5 -10 -3 -5 -1 -10
5 -10 6 0 8 -5 5 -10 -4 -6 -12 -8 -18 -4 -7 3 -4 -1 5 -8 15 -13 15 -15 0
-26 -9 -7 -12 -10 -6 -8 7 4 12 -4 12 -19 0 -15 -5 -22 -12 -18 -6 3 -2 -4 9
-17 11 -13 15 -20 8 -17 -6 4 -14 3 -18 -3 -3 -5 -1 -10 5 -10 6 0 8 -4 5 -10
-3 -5 -1 -10 5 -10 6 0 8 -5 5 -10 -4 -6 -12 -8 -18 -4 -7 3 -4 -1 5 -8 15
-13 15 -15 0 -26 -9 -7 -12 -10 -6 -8 7 4 12 -4 12 -19 0 -15 -5 -22 -12 -18
-6 3 -2 -4 9 -17 11 -13 15 -20 8 -17 -6 4 -14 3 -18 -3 -3 -5 -1 -10 5 -10 6
0 8 -4 5 -10 -3 -5 -1 -10 5 -10 6 0 8 -5 5 -10 -4 -6 -12 -8 -18 -4 -7 3 -4
-1 5 -8 15 -13 15 -15 0 -26 -9 -7 -12 -10 -6 -8 7 4 12 -4 12 -19 0 -15 -5
-22 -12 -18 -6 3 -2 -4 9 -17 11 -13 15 -20 8 -17 -6 4 -14 3 -18 -3 -3 -5 -1
-10 5 -10 6 0 8 -4 5 -10 -3 -5 -1 -10 5 -10 6 0 8 -5 5 -10 -4 -6 -12 -8 -18
-4 -7 3 -4 -1 5 -8 15 -13 15 -15 0 -26 -9 -7 -12 -10 -6 -8 7 4 12 -4 12 -19
0 -15 -5 -22 -12 -18 -6 3 -2 -4 9 -17 11 -13 15 -20 8 -17 -6 4 -14 3 -18 -3
-3 -5 -1 -10 5 -10 6 0 8 -4 5 -10 -3 -5 -1 -10 5 -10 6 0 8 -5 5 -10 -4 -6
-12 -8 -18 -4 -7 3 -4 -1 5 -8 15 -13 15 -15 0 -26 -9 -7 -12 -10 -6 -8 7 4
12 -4 12 -19 0 -15 -5 -22 -12 -18 -6 3 -2 -4 9 -17 11 -13 15 -20 8 -17 -6 4
-14 3 -18 -3 -3 -5 -1 -10 5 -10 6 0 8 -4 5 -10 -3 -5 -1 -10 5 -10 6 0 8 -5
5 -10 -4 -6 -12 -8 -18 -4 -7 3 -4 -1 5 -8 15 -13 15 -15 0 -26 -9 -7 -12 -10
-6 -8 7 4 12 -4 12 -19 0 -15 -5 -22 -12 -18 -6 3 -2 -4 9 -17 11 -13 15 -20
8 -17 -6 4 -14 3 -18 -3 -3 -5 -1 -10 5 -10 6 0 8 -4 5 -10 -3 -5 -1 -10 5
-10 6 0 8 -5 5 -10 -4 -6 -12 -8 -18 -4 -7 3 -4 -1 5 -8 15 -13 15 -15 0 -26
-9 -7 -12 -10 -6 -8 7 4 12 -4 12 -19 0 -15 -5 -22 -12 -18 -6 3 -2 -4 9 -17
11 -13 15 -20 8 -17 -6 4 -14 3 -18 -3 -3 -5 -1 -10 5 -10 6 0 8 -4 5 -10 -3
-5 -1 -10 5 -10 6 0 8 -5 5 -10 -4 -6 -12 -8 -18 -4 -7 3 -4 -1 5 -8 15 -13
15 -15 0 -26 -9 -7 -12 -10 -6 -8 7 4 12 -4 12 -19 0 -15 -5 -22 -12 -18 -6 3
-2 -4 9 -17 11 -13 15 -20 8 -17 -6 4 -14 3 -18 -3 -3 -5 -1 -10 5 -10 6 0 8
-4 5 -10 -3 -5 -1 -10 5 -10 6 0 8 -5 5 -10 -4 -6 -12 -8 -18 -4 -7 3 -4 -1 5
-8 15 -13 15 -15 0 -26 -9 -7 -12 -10 -6 -8 7 4 12 -4 12 -19 0 -15 -5 -22
-12 -18 -6 3 -2 -4 9 -17 11 -13 15 -20 8 -17 -6 4 -14 3 -18 -3 -3 -5 -1 -10
5 -10 6 0 8 -4 5 -10 -3 -5 -1 -10 5 -10 6 0 8 -5 5 -10 -4 -6 -12 -8 -18 -4
-7 3 -4 -1 5 -8 15 -13 15 -15 0 -26 -9 -7 -12 -10 -6 -8 7 4 12 -4 12 -19 0
-15 -5 -22 -12 -18 -6 3 -2 -4 9 -17 11 -13 15 -20 9 -17 -7 4 -15 0 -18 -9
-5 -12 -1 -14 17 -8 21 6 21 6 -3 -15 -14 -13 -20 -20 -14 -17 12 6 17 -160 6
-179 -11 -18 -11 -35 0 -42 7 -4 8 -1 3 7 -5 8 -4 11 3 6 14 -9 3 -38 -12 -30
-6 3 -3 -1 6 -8 15 -13 15 -15 0 -26 -9 -7 -12 -10 -6 -8 7 4 12 -4 12 -19 0
-15 -5 -22 -12 -18 -6 3 -3 -2 6 -13 16 -19 16 -22 1 -44 -9 -13 -11 -20 -5
-16 13 8 17 -16 5 -28 -4 -3 -8 -13 -9 -22 -2 -11 3 -13 19 -8 21 6 20 5 -3
-15 -14 -13 -20 -20 -14 -17 12 6 17 -160 6 -179 -11 -18 -11 -35 0 -42 7 -4
8 -1 3 7 -5 8 -4 11 3 6 14 -9 3 -38 -12 -30 -6 3 -3 -1 6 -8 15 -13 15 -15 0
-26 -9 -7 -12 -10 -6 -8 7 4 12 -4 12 -19 0 -15 -5 -22 -12 -18 -6 3 -3 -2 6
-13 16 -19 16 -22 1 -44 -9 -13 -11 -20 -5 -16 13 8 17 -16 5 -28 -4 -3 -8
-13 -9 -22 -2 -11 3 -13 19 -8 21 6 20 5 -3 -15 -14 -13 -20 -20 -14 -17 15 7
15 -106 0 -116 -7 -5 -7 -8 2 -8 6 0 12 -7 12 -15 0 -8 -6 -15 -12 -15 -9 0
-10 -3 -2 -8 15 -10 24 -72 10 -72 -6 0 -4 -5 4 -10 11 -7 11 -10 2 -10 -9 0
-10 -5 -4 -16 12 -21 3 -56 -11 -47 -6 3 -7 1 -3 -5 4 -7 15 -12 24 -12 11 0
13 -3 5 -8 -13 -8 -15 -80 -2 -88 5 -3 5 -13 -1 -25 -8 -14 -7 -19 1 -19 8 0
8 -4 -1 -15 -9 -10 -9 -15 -1 -15 6 0 11 -9 11 -20 0 -11 -5 -20 -12 -20 -6 0
-3 -7 8 -16 10 -8 13 -13 7 -9 -7 3 -13 1 -13 -4 0 -6 5 -11 11 -11 8 0 8 -4
0 -14 -10 -11 -8 -17 6 -25 17 -10 17 -10 -2 -11 l-20 -1 20 -9 c11 -5 16 -9
12 -9 -4 -1 -3 -11 4 -22 8 -15 8 -19 0 -15 -6 4 -11 2 -11 -3 0 -6 6 -11 13
-11 8 0 7 -4 -3 -10 -13 -9 -13 -10 0 -10 12 0 12 -2 2 -9 -11 -7 -10 -9 3
-14 13 -6 14 -11 4 -28 -8 -15 -8 -19 0 -15 10 7 12 2 15 -32 1 -7 8 -17 16
-22 12 -8 11 -10 -5 -11 l-20 0 20 -9 c13 -6 15 -9 5 -9 -13 -1 -13 -2 0 -11
8 -5 15 -15 16 -22 3 -35 5 -39 17 -32 7 5 6 0 -3 -11 -12 -15 -12 -17 -1 -10
11 6 13 4 8 -8 -4 -11 -1 -17 8 -17 8 0 12 -8 10 -19 -3 -17 40 -91 58 -99 4
-2 7 -10 7 -18 0 -9 5 -12 12 -8 6 4 8 3 5 -3 -4 -6 5 -23 18 -39 14 -16 25
-33 25 -37 0 -5 5 -5 10 -2 6 3 10 1 10 -5 0 -19 70 -81 82 -74 8 5 9 1 5 -9
-4 -11 -1 -17 9 -17 8 0 13 -4 10 -9 -3 -5 2 -8 11 -7 10 0 18 -4 18 -11 0 -6
4 -15 9 -20 5 -5 6 -3 2 5 -4 6 -2 12 3 12 6 0 11 -7 11 -15 0 -13 4 -14 21
-4 12 6 19 7 15 1 -3 -5 4 -18 16 -28 14 -12 18 -14 13 -4 -6 11 -3 10 12 -3
11 -9 23 -14 26 -10 4 3 7 0 7 -7 0 -7 3 -11 6 -7 4 3 21 0 39 -8 19 -7 36
-11 39 -7 3 3 6 0 6 -7 0 -7 5 -9 10 -6 6 3 10 1 10 -4 0 -6 3 -10 8 -10 25 4
62 -2 58 -10 -7 -10 20 -9 30 2 4 4 14 1 21 -5 8 -7 31 -11 50 -10 19 2 32 -1
29 -6 -3 -5 1 -9 9 -9 8 0 12 4 9 9 -7 11 39 5 48 -6 4 -6 17 -5 33 2 14 7 24
8 21 3 -3 -5 3 -11 14 -14 11 -3 18 -1 14 4 -3 5 0 9 5 9 19 0 26 -5 23 -14
-2 -5 4 -4 12 4 9 7 16 9 16 5 0 -4 6 -2 14 4 10 9 16 9 21 1 5 -8 11 -7 23 2
12 10 14 10 8 1 -9 -16 -1 -16 26 -2 12 6 18 7 14 1 -3 -5 1 -13 10 -16 8 -3
13 -2 10 3 -3 5 3 11 14 14 11 3 18 2 16 -2 -3 -4 22 -8 55 -9 46 -2 59 1 53
10 -6 9 -3 9 9 -1 9 -7 17 -10 17 -7 0 4 9 2 19 -4 14 -7 22 -7 27 2 5 7 3 8
-6 3 -9 -6 -11 -4 -6 4 6 9 13 8 27 -5 15 -13 19 -14 19 -3 0 11 2 11 10 -1 5
-8 10 -10 10 -5 0 7 23 9 61 7 49 -3 59 -1 53 10 -6 10 -4 10 9 -1 9 -7 17
-10 17 -7 0 4 9 2 19 -4 14 -7 22 -7 27 2 5 7 3 8 -6 3 -9 -6 -11 -4 -6 4 6 9
13 8 27 -5 10 -9 19 -13 19 -8 0 11 73 9 91 -1 8 -5 10 -4 5 3 -4 7 -2 12 3
12 6 0 11 -4 11 -9 0 -6 12 -6 30 -1 22 6 34 5 45 -6 13 -14 15 -14 15 1 0 16
2 16 26 0 15 -9 24 -12 20 -7 -10 17 164 20 181 4 11 -11 13 -11 13 3 0 16 2
16 26 0 15 -9 24 -12 20 -7 -10 17 164 20 181 4 11 -11 13 -11 13 3 0 16 2 16
26 0 15 -9 24 -12 20 -7 -10 17 164 20 181 4 11 -11 13 -11 13 3 0 16 2 16 26
0 15 -9 24 -12 20 -7 -10 17 164 20 181 4 11 -11 13 -11 13 3 0 16 2 16 26 0
15 -9 24 -12 20 -7 -10 17 164 20 181 4 11 -11 13 -11 13 3 0 16 2 16 26 0 15
-9 24 -12 20 -7 -10 17 164 20 181 4 11 -11 13 -11 13 3 0 16 2 16 26 0 15 -9
23 -12 20 -6 -5 7 6 11 33 11 22 0 42 -5 44 -12 4 -9 6 -7 6 3 1 14 8 15 41 9
22 -4 40 -3 40 2 0 5 9 4 20 -2 11 -6 20 -7 20 -1 0 12 33 9 42 -4 5 -6 8 -4
8 5 0 13 1 13 10 0 9 -13 10 -13 10 0 0 13 1 13 10 0 5 -8 10 -10 10 -5 0 11
111 12 128 1 6 -3 14 -1 18 5 5 8 3 9 -6 4 -9 -6 -11 -4 -6 4 6 9 13 8 27 -5
15 -13 19 -14 19 -3 0 11 2 11 10 -1 5 -8 10 -10 10 -5 0 12 180 13 198 1 7
-4 12 -3 12 2 0 11 51 9 70 -3 8 -5 11 -4 7 3 -5 7 7 8 35 5 33 -5 40 -3 33 8
-6 11 -5 11 5 2 9 -9 19 -9 33 -2 14 8 18 8 13 0 -9 -14 0 -14 26 0 15 8 19 8
14 0 -9 -14 0 -14 26 0 12 6 18 7 14 1 -3 -5 3 -12 14 -15 11 -3 18 -2 15 3
-3 4 2 10 10 14 8 3 15 1 15 -5 0 -6 7 -6 19 1 14 7 22 7 27 -1 4 -8 9 -7 15
2 7 11 9 11 9 1 0 -10 5 -10 22 -1 18 10 20 9 15 -5 -6 -15 -4 -15 18 0 24 15
25 15 25 -2 1 -18 1 -18 11 -1 5 9 15 17 20 17 6 0 7 -5 4 -10 -4 -6 5 -5 20
2 21 9 31 9 47 -1 11 -7 18 -9 15 -4 -3 5 6 13 19 20 13 6 22 7 18 2 -8 -13
10 -11 25 4 11 10 12 9 6 -3 -8 -13 -7 -13 9 -1 15 13 19 13 27 0 6 -10 9 -10
9 -1 0 6 7 12 16 12 8 0 12 5 8 11 -4 7 1 7 16 -1 15 -8 20 -8 16 -1 -4 7 1
11 13 11 12 0 21 5 21 10 0 7 7 7 21 -1 12 -6 19 -7 16 -2 -3 5 3 15 15 22 16
10 19 10 12 -1 -5 -8 3 -6 19 5 15 10 32 15 38 12 5 -4 8 -1 7 7 -2 7 3 12 10
11 6 -2 12 2 12 8 0 5 5 7 12 3 7 -5 9 -2 6 8 -4 8 0 15 8 15 7 0 10 -5 7 -11
-3 -6 2 -3 13 7 51 47 75 66 93 72 12 4 18 12 14 21 -3 8 1 14 11 14 9 0 16 5
16 11 0 5 6 7 13 3 7 -5 7 -2 -2 10 -8 9 -10 16 -5 15 16 -4 44 13 38 23 -3 5
4 12 15 15 18 5 19 8 9 22 -7 9 -9 13 -4 9 10 -8 36 15 36 31 0 6 5 11 12 11
6 0 8 3 5 7 -4 3 1 12 11 20 9 8 11 11 4 8 -11 -6 -11 -3 0 16 7 13 19 28 26
32 6 4 12 19 12 33 0 14 4 23 9 20 5 -4 8 2 7 11 -2 10 3 24 11 31 7 8 11 17
8 22 -3 5 -1 11 5 15 5 3 10 17 10 31 0 14 4 23 8 20 5 -3 9 1 9 9 0 8 -5 11
-11 8 -6 -4 -5 1 3 10 7 9 10 17 6 17 -4 0 -2 6 4 13 6 8 8 17 4 20 -3 4 -2 7
4 7 5 0 9 10 8 23 -1 12 3 25 9 29 7 5 3 8 -8 8 -19 0 -19 0 -1 13 10 8 15 19
11 25 -3 6 -2 14 4 17 8 5 7 12 -2 23 -11 13 -11 14 1 8 10 -7 12 -3 6 14 -5
16 -4 20 5 15 9 -6 9 -3 1 14 -7 11 -8 21 -4 21 5 0 10 11 11 26 1 18 -2 23
-11 18 -8 -6 -8 -3 1 9 8 9 11 21 7 27 -3 5 -2 10 4 10 7 0 7 8 1 25 -5 14 -6
25 -2 25 4 0 7 11 7 25 0 14 -4 25 -9 25 -5 0 -2 8 5 17 12 15 12 16 -6 10
-17 -6 -18 -5 -5 5 16 13 20 94 6 116 -4 7 -4 12 1 12 4 0 8 27 8 60 0 33 -4
60 -8 60 -5 0 -5 6 -1 12 10 16 11 57 2 86 -5 15 -3 22 5 22 8 0 7 4 -3 10
-12 7 -12 10 -1 10 8 0 11 6 6 18 -9 22 -13 72 -6 72 3 0 6 11 6 25 0 14 -4
25 -9 25 -5 0 -2 8 5 17 12 15 12 16 -6 10 -17 -6 -18 -5 -5 5 15 13 19 109 6
143 -3 8 -2 15 3 15 11 0 8 44 -4 52 -7 5 -7 8 0 8 10 0 10 92 1 117 -3 7 -1
15 3 18 5 2 6 19 2 37 -4 18 -4 52 -1 75 4 25 2 47 -4 53 -6 6 -6 10 0 10 5 0
9 27 9 60 0 33 -4 60 -8 60 -5 0 -5 5 -1 12 10 16 11 108 0 108 -5 0 -2 8 5
17 12 15 12 16 -6 10 -17 -6 -18 -5 -5 5 17 15 22 158 5 170 -6 5 -6 8 1 8 6
0 11 7 11 15 0 8 -5 15 -10 15 -5 0 -3 8 4 17 12 15 12 16 -6 10 -17 -6 -18
-5 -5 5 17 15 23 48 8 48 -6 0 -4 8 3 17 12 15 12 16 -6 10 -17 -6 -18 -5 -5
5 11 10 14 24 10 55 -5 37 -4 41 9 30 8 -7 12 -7 8 -1 -3 6 -9 25 -12 43 -4
25 -2 31 7 25 10 -6 10 -4 2 7 -6 8 -11 23 -11 34 0 11 5 26 11 34 8 11 8 13
0 8 -7 -4 -11 2 -11 18 0 16 4 22 11 18 8 -5 8 -3 0 8 -12 17 -12 48 0 68 6 9
5 12 -1 8 -6 -4 -10 4 -10 18 0 16 4 22 11 18 8 -5 8 -3 0 8 -12 15 -13 74 -1
85 4 4 -3 19 -15 32 -13 14 -18 23 -13 19 6 -3 17 -2 25 4 8 5 11 9 5 9 -13 0
-14 220 -1 239 6 9 5 12 -1 8 -6 -4 -10 4 -10 18 0 14 4 22 10 18 6 -4 7 -1 2
8 -11 17 -11 51 0 68 5 9 4 12 -2 8 -6 -4 -10 4 -10 18 0 16 4 22 11 18 8 -5
8 -3 0 8 -6 8 -11 23 -11 34 0 11 5 26 11 34 8 11 8 13 0 8 -7 -4 -11 2 -11
18 0 14 4 22 10 18 6 -4 7 -1 1 8 -12 21 -13 211 0 228 8 11 8 13 0 8 -7 -4
-11 2 -11 18 0 16 4 22 11 18 8 -5 8 -3 0 8 -12 15 -13 74 -1 85 4 4 -3 19
-15 32 -13 14 -18 23 -13 19 6 -3 17 -2 25 4 8 5 11 9 5 9 -15 0 -17 80 -2 80
7 0 8 3 2 8 -15 11 -19 46 -4 36 8 -5 10 -3 4 7 -11 17 -11 51 0 68 5 9 4 12
-2 8 -6 -4 -10 4 -10 18 0 16 4 22 11 18 8 -5 8 -3 0 8 -6 8 -11 23 -11 34 0
11 5 26 11 34 8 10 8 13 0 8 -7 -4 -11 8 -12 33 -1 26 3 40 11 40 7 0 8 3 2 8
-15 11 -19 46 -4 36 8 -5 10 -3 4 7 -11 17 -11 51 0 68 5 9 4 12 -2 8 -6 -4
-10 4 -10 18 0 16 4 22 11 18 8 -5 8 -3 0 8 -6 8 -11 23 -11 34 0 11 5 26 11
34 8 10 8 13 0 8 -7 -4 -11 8 -12 33 -1 26 3 40 11 40 7 0 8 3 2 8 -15 11 -19
46 -4 36 8 -5 10 -3 4 7 -11 17 -11 51 0 68 5 9 4 12 -2 8 -6 -4 -10 4 -10 18
0 16 4 22 11 18 8 -5 8 -3 0 8 -6 8 -11 23 -11 34 0 11 5 26 11 34 8 10 8 13
0 8 -7 -4 -11 8 -12 33 -1 26 3 40 11 40 7 0 8 3 2 8 -15 11 -19 46 -4 36 8
-5 10 -3 4 7 -11 17 -11 51 0 68 5 9 4 12 -2 8 -6 -4 -10 4 -10 18 0 16 4 22
11 18 8 -5 8 -3 0 8 -6 8 -11 23 -11 34 0 11 5 26 11 34 8 11 8 13 0 8 -7 -4
-11 2 -11 18 0 16 4 22 11 18 8 -5 8 -3 0 8 -12 17 -12 48 0 68 6 9 5 12 -1 8
-6 -4 -10 4 -10 18 0 16 4 22 11 18 8 -5 8 -3 0 8 -12 15 -13 74 -1 85 4 4 -3
19 -15 32 -13 14 -18 23 -13 19 6 -3 17 -2 25 4 8 5 11 9 5 9 -13 0 -14 220
-1 239 6 9 5 12 -1 8 -6 -4 -10 4 -10 18 0 14 4 22 10 18 6 -4 7 -1 2 8 -11
17 -11 51 0 68 5 9 4 12 -2 8 -6 -4 -10 4 -10 18 0 16 4 22 11 18 8 -5 8 -3 0
8 -6 8 -11 23 -11 34 0 11 5 26 11 34 8 11 8 13 0 8 -7 -4 -11 2 -11 18 0 14
4 22 10 18 6 -4 7 -1 1 8 -12 21 -13 211 0 228 8 11 8 13 0 8 -7 -4 -11 2 -11
18 0 16 4 22 11 18 8 -5 8 -3 0 8 -12 15 -13 74 -1 85 4 4 -3 19 -15 32 -13
14 -18 23 -13 19 6 -3 17 -2 25 4 8 5 11 9 5 9 -15 0 -17 80 -2 80 7 0 8 3 2
8 -15 11 -19 46 -4 36 8 -5 10 -3 4 7 -11 17 -11 51 0 68 5 9 4 12 -2 8 -6 -4
-10 4 -10 18 0 16 4 22 11 18 8 -5 8 -3 0 8 -6 8 -11 23 -11 34 0 11 5 26 11
34 8 10 8 13 0 8 -7 -4 -11 8 -12 33 -1 26 3 40 11 40 7 0 8 3 2 8 -15 11 -19
46 -4 36 8 -5 10 -3 4 7 -11 17 -11 51 0 68 5 9 4 12 -2 8 -6 -4 -10 4 -10 18
0 16 4 22 11 18 8 -5 8 -3 0 8 -6 8 -11 23 -11 34 0 11 5 26 11 34 8 11 8 13
0 8 -7 -4 -12 2 -11 18 0 14 4 22 10 18 6 -4 7 -1 2 7 -14 23 -16 190 -2 190
7 0 8 3 2 8 -15 11 -19 46 -4 36 8 -5 10 -3 4 7 -5 7 -9 23 -9 34 0 11 4 27 9
34 5 9 4 12 -2 8 -6 -4 -10 4 -10 18 0 16 4 22 11 18 8 -5 8 -3 0 8 -6 8 -11
23 -11 34 0 11 5 26 11 34 8 11 8 13 0 8 -7 -4 -11 2 -11 18 0 14 4 22 10 18
6 -4 7 -1 2 8 -14 21 -14 349 -1 349 7 0 7 3 1 8 -15 11 -19 46 -4 36 8 -5 10
-3 4 7 -11 17 -11 51 0 68 5 9 4 12 -2 8 -6 -4 -10 4 -10 18 0 16 4 22 11 18
8 -5 8 -3 0 8 -6 8 -11 23 -11 34 0 11 5 26 11 34 8 11 8 13 0 8 -7 -4 -11 2
-11 18 0 14 4 22 9 19 6 -4 7 0 1 12 -5 11 -9 78 -8 149 1 72 -2 142 -6 157
-6 21 -4 25 7 21 8 -3 14 0 14 6 0 6 10 11 23 11 18 0 19 -2 7 -11 -12 -9 -12
-10 3 -5 10 3 21 6 23 6 3 0 2 6 -2 13 -6 9 -5 9 8 0 8 -7 18 -10 21 -6 4 3
13 0 21 -6 8 -7 17 -8 20 -3 3 5 24 8 46 6 25 -2 40 1 40 8 0 7 6 4 13 -7 10
-12 16 -14 21 -7 4 7 14 12 22 12 9 0 12 -5 8 -12 -4 -7 -3 -8 5 -4 20 13 61
14 61 3 0 -6 7 -2 16 9 8 10 13 14 10 7 -4 -6 -2 -14 4 -18 5 -3 10 -2 10 3 0
5 13 12 30 14 24 4 27 2 19 -9 -8 -9 -8 -13 -1 -13 6 0 16 8 21 18 6 9 11 12
11 5 0 -7 7 -10 17 -6 11 4 14 3 9 -5 -4 -7 -2 -12 3 -12 6 0 11 4 11 9 0 5
13 11 30 13 24 4 27 2 19 -9 -12 -13 2 -19 15 -6 4 4 19 9 34 10 21 3 24 1 12
-7 -9 -6 -10 -10 -3 -10 6 0 14 4 17 9 3 5 19 7 36 5 18 -2 30 1 30 8 0 7 6 4
13 -7 10 -12 16 -14 21 -7 4 7 14 12 22 12 9 0 12 -5 8 -11 -4 -8 -1 -8 13 -1
12 7 24 7 37 0 12 -7 16 -7 13 -1 -4 6 4 11 18 11 14 0 28 -5 31 -9 3 -5 11
-6 17 -2 18 11 51 10 59 -2 5 -6 8 -2 8 9 0 20 0 20 15 0 8 -10 15 -14 15 -8
0 7 13 14 30 16 24 4 27 2 19 -9 -12 -13 2 -19 15 -6 4 4 19 9 34 10 21 3 24
1 12 -7 -9 -6 -10 -10 -3 -10 6 0 15 5 18 10 5 8 12 7 23 -2 9 -7 13 -8 9 -2
-4 7 3 12 18 12 14 0 28 -5 31 -9 3 -5 11 -6 17 -2 18 11 51 10 59 -2 5 -6 8
-2 8 9 0 20 0 20 15 0 8 -10 15 -14 15 -8 0 7 13 14 30 16 24 4 27 2 19 -9
-12 -13 2 -19 15 -6 4 4 19 9 34 10 21 3 24 1 12 -7 -9 -6 -10 -10 -3 -10 6 0
15 5 18 10 5 8 12 7 23 -2 9 -7 13 -8 9 -2 -4 7 3 12 18 12 14 0 28 -5 31 -9
3 -5 11 -6 17 -2 18 11 51 10 59 -2 5 -6 8 -2 8 9 0 20 0 20 15 0 8 -10 15
-14 15 -8 0 7 13 14 30 16 24 4 27 2 19 -9 -12 -13 2 -19 15 -6 4 4 19 9 34
10 21 3 24 1 12 -7 -9 -6 -10 -10 -3 -10 6 0 15 5 18 10 5 8 12 7 23 -2 9 -7
13 -8 9 -2 -4 7 3 12 18 12 14 0 28 -5 31 -9 3 -5 11 -6 17 -2 18 11 51 10 59
-2 5 -6 8 -2 8 9 0 20 0 20 15 0 8 -10 15 -14 15 -8 0 7 13 14 30 16 24 4 27
2 19 -9 -12 -13 2 -19 15 -6 4 4 19 9 34 10 21 3 24 1 12 -7 -9 -6 -10 -10 -3
-10 6 0 15 5 18 10 5 8 12 7 23 -2 9 -7 13 -8 9 -2 -4 7 3 12 18 12 14 0 28
-5 31 -9 3 -5 11 -6 17 -2 18 11 51 10 59 -2 5 -6 8 -2 8 9 0 20 0 20 15 0 8
-10 15 -14 15 -8 0 7 13 14 30 16 24 4 27 2 19 -9 -12 -13 2 -19 15 -6 4 4 19
9 34 10 21 3 24 1 12 -7 -9 -6 -10 -10 -3 -10 6 0 15 5 18 10 5 8 12 7 23 -2
9 -7 13 -8 9 -2 -4 7 3 12 18 12 14 0 28 -5 31 -9 3 -5 11 -6 17 -2 18 11 51
10 59 -2 5 -6 8 -2 8 9 0 20 0 20 15 0 8 -10 15 -14 15 -8 0 7 13 14 30 16 24
4 27 2 19 -9 -12 -13 2 -19 15 -6 4 4 19 9 34 10 21 3 24 1 12 -7 -9 -6 -10
-10 -3 -10 6 0 15 5 18 10 5 8 12 7 23 -2 9 -7 13 -8 9 -2 -4 7 3 12 18 12 14
0 28 -5 31 -9 3 -5 11 -6 17 -2 18 11 51 10 59 -2 5 -6 8 -1 8 10 1 19 1 19
11 2 7 -12 15 -15 22 -9 7 5 38 8 69 8 33 -1 58 3 58 9 0 7 3 7 8 0 4 -5 14
-10 22 -10 8 0 18 5 22 10 5 6 8 5 8 -3 0 -8 5 -10 13 -5 17 11 31 10 39 -2 5
-6 8 -4 8 5 0 13 1 13 10 0 9 -13 10 -13 10 0 0 13 1 13 11 0 8 -11 12 -12 16
-2 2 6 9 9 15 6 17 -11 138 -10 138 1 0 6 5 3 10 -5 9 -13 11 -13 20 0 8 13
10 13 10 0 0 -10 3 -11 12 -2 7 7 17 8 30 1 10 -5 18 -6 18 -2 0 4 28 8 63 7
34 -1 68 4 76 10 11 8 13 8 7 -1 -4 -8 -1 -13 9 -13 10 0 13 5 9 13 -6 9 -4 9
8 -1 12 -9 18 -10 23 -2 5 8 11 7 23 -2 13 -11 14 -11 7 1 -6 11 -4 13 7 8 9
-3 27 1 42 8 16 9 24 10 20 3 -5 -8 -1 -9 12 -3 10 4 31 8 45 9 20 0 25 4 21
16 -5 13 -3 13 10 2 11 -9 18 -10 23 -2 3 6 11 8 16 5 5 -4 9 -2 9 4 0 6 7 7
17 4 11 -5 14 -3 8 6 -5 10 -2 11 14 6 12 -3 21 -2 21 4 0 5 9 8 21 6 15 -3
19 0 15 10 -3 9 1 12 15 10 10 -2 19 0 19 5 0 5 10 10 23 12 12 2 21 9 20 15
-2 7 6 10 17 8 11 -2 19 1 17 8 -1 6 3 11 8 12 6 0 20 6 31 13 12 6 24 8 28 4
4 -3 4 2 0 11 -3 10 -3 17 2 15 13 -4 54 39 46 48 -4 4 1 4 10 1 11 -4 19 0
23 14 4 10 15 24 26 30 11 5 17 14 14 18 -3 5 2 12 11 15 8 3 12 11 9 16 -4 6
-3 9 2 8 4 -2 10 2 12 7 9 20 26 33 36 27 6 -3 4 2 -4 11 -12 15 -10 18 10 26
13 5 17 10 9 11 -13 0 -13 1 0 10 8 5 15 13 15 17 1 4 6 18 13 31 7 12 9 22 5
22 -4 0 0 5 9 11 10 5 15 16 12 24 -4 8 -2 15 4 15 5 0 9 13 8 29 -1 22 2 27
13 23 9 -3 12 -1 7 7 -4 6 -3 17 2 24 9 12 12 31 12 74 0 12 5 25 10 28 6 3
10 22 10 41 0 26 3 33 13 28 9 -6 9 -4 -1 8 -7 9 -9 19 -4 22 5 3 8 21 7 41
-1 19 1 35 4 35 10 0 10 68 10 1680 0 850 0 1565 1 1588 1 24 -5 51 -12 60
-10 13 -10 14 0 8 9 -6 11 -2 7 16 -3 12 -7 42 -9 65 -2 22 -7 47 -11 54 -6 8
-4 10 6 4 12 -7 12 -6 1 7 -10 13 -10 17 0 21 11 4 10 6 0 6 -7 1 -10 6 -7 11
3 6 2 10 -3 10 -4 0 -8 20 -7 44 0 25 -2 43 -6 40 -4 -2 -9 7 -11 21 -3 14 -1
25 5 25 6 0 2 10 -9 22 -12 14 -14 19 -4 13 12 -6 13 -5 3 6 -7 7 -13 24 -13
37 0 16 -4 21 -12 16 -9 -5 -9 -2 1 9 9 11 10 17 2 17 -6 0 -11 9 -11 19 0 11
-5 23 -10 26 -6 4 -8 10 -5 15 3 5 -1 14 -8 22 -7 7 -12 20 -12 28 0 8 -6 20
-15 27 -8 6 -12 14 -8 18 4 4 3 12 -3 19 -25 30 -57 85 -51 90 3 3 -2 6 -12 6
-9 0 -14 5 -11 10 3 6 1 10 -5 10 -6 0 -8 5 -5 10 3 6 -1 10 -10 10 -9 0 -13
5 -10 10 3 6 -4 10 -17 11 -13 0 -18 3 -11 5 11 5 -30 54 -45 54 -3 0 -15 10
-27 23 -11 13 -16 16 -11 7 5 -8 -4 0 -22 18 -17 17 -38 32 -46 32 -9 0 -16 5
-16 11 0 5 -4 7 -10 4 -5 -3 -10 -1 -10 5 0 6 -4 9 -9 6 -5 -3 -11 1 -15 9 -3
8 -12 12 -21 9 -8 -3 -15 -1 -15 6 0 6 -4 9 -9 6 -5 -3 -21 4 -37 16 -15 13
-25 17 -21 11 4 -6 3 -14 -3 -18 -5 -3 -10 1 -10 10 0 11 -5 15 -15 11 -8 -3
-15 -1 -15 5 0 6 -4 8 -9 5 -15 -9 -42 5 -34 18 4 6 -1 5 -10 -3 -10 -8 -17
-9 -17 -3 0 6 -9 9 -20 7 -11 -2 -20 1 -20 7 0 6 -6 5 -16 -2 -12 -11 -15 -11
-12 0 2 8 -7 14 -22 14 -14 1 -31 5 -37 9 -8 5 -13 4 -13 -3 0 -7 -6 -8 -17
-2 -10 5 -24 7 -32 4 -10 -3 -11 0 -5 9 6 12 5 12 -8 1 -12 -10 -18 -9 -28 3
-9 11 -17 12 -31 4 -14 -7 -19 -6 -19 3 0 9 -3 9 -10 -2 -7 -11 -10 -11 -10
-2 0 10 -5 10 -21 1 -15 -8 -19 -8 -15 0 5 7 -1 11 -14 11 -14 0 -19 -4 -14
-12 6 -10 5 -10 -7 -1 -21 17 -12337 17 -12358 0 -12 -9 -13 -9 -7 1 4 7 1 12
-9 12 -10 0 -13 -5 -9 -12 5 -9 2 -9 -9 1 -11 9 -17 10 -17 2 0 -6 -5 -11 -11
-11 -5 0 -7 6 -3 13 4 6 -3 3 -16 -8 -20 -17 -23 -18 -17 -2 8 20 3 22 -12 4z"/>
</g>
</svg>
