<?xml version="1.0" encoding="utf-8"?>
<!-- Generator: Adobe Illustrator 28.0.0, SVG Export Plug-In . SVG Version: 6.00 Build 0)  -->
<svg version="1.1" id="Capa_1" xmlns="http://www.w3.org/2000/svg" xmlns:xlink="http://www.w3.org/1999/xlink" x="0px" y="0px"
	 viewBox="0 0 600 600" style="enable-background:new 0 0 600 600;" xml:space="preserve">
<style type="text/css">
	.st0{fill:#043A53;}
	.st1{fill:#C5D9E8;}
	.st2{fill:#EAECEE;}
	.st3{clip-path:url(#SVGID_00000182529225415503049570000001854280616251010195_);}
	.st4{clip-path:url(#SVGID_00000054253806488547300950000000995954439185739174_);}
	.st5{clip-path:url(#SVGID_00000138552801883124787890000016055474302201946271_);}
	.st6{clip-path:url(#SVGID_00000173130385234973869920000000178287343293703836_);}
	.st7{fill:#F3F5F8;}
	.st8{fill:#D6DCE6;}
	.st9{opacity:0.5;fill:#F3F5F8;enable-background:new    ;}
	.st10{fill:url(#SVGID_00000018958272095609159170000003603985096224672947_);}
	.st11{fill:url(#SVGID_00000183940243942456632890000005756857887290042302_);}
	.st12{fill:url(#SVGID_00000064338966020584273680000005457142671600024976_);}
	.st13{fill:url(#SVGID_00000137850148093328855900000015136942736268515233_);}
	.st14{fill:url(#SVGID_00000158006835695101440710000003764448941635572129_);}
	.st15{fill:#FFFFFF;}
	.st16{opacity:0.48;fill:#FFFFFF;enable-background:new    ;}
	.st17{fill:url(#SVGID_00000163057668919297159280000014494533355677563776_);}
	.st18{fill:url(#SVGID_00000049186336504217206280000003599654739410730882_);}
	.st19{opacity:0.5;}
	.st20{clip-path:url(#SVGID_00000051368248414470953510000014735251404755503772_);}
	.st21{fill:url(#SVGID_00000121974191683847234040000004958214400926203064_);}
	.st22{opacity:0.7;fill:url(#SVGID_00000163757707407423722620000001048090525806344626_);enable-background:new    ;}
	.st23{fill:url(#SVGID_00000036954498642883393580000002315729358051801003_);}
	.st24{fill:url(#SVGID_00000173842709558180965140000014126639955586910107_);}
	.st25{fill:url(#SVGID_00000167384460256221175830000012709889928205891975_);}
	.st26{fill:url(#SVGID_00000166673596093928773840000017137975176350442647_);}
	.st27{fill:url(#SVGID_00000083779812067665791380000006459174229675417534_);}
	.st28{fill:url(#SVGID_00000101819570158075323230000000338049181752862655_);}
	.st29{clip-path:url(#SVGID_00000031898322474777082500000017658851056469272236_);}
	.st30{fill:url(#SVGID_00000127020818807854982570000001466031165428362887_);}
	.st31{fill:url(#SVGID_00000177462561382389054630000007651951754292235956_);}
	.st32{fill:url(#SVGID_00000022542017965931846840000004743068769246534837_);}
	.st33{fill:url(#SVGID_00000182520775014835494420000004174736738267319447_);}
	.st34{fill:url(#SVGID_00000033341180282212306410000013989801524885217922_);}
	.st35{fill:url(#SVGID_00000124142752574403835270000013070487190842669998_);}
	.st36{fill:url(#SVGID_00000011732194434409027380000001181111463743461293_);}
	.st37{opacity:0.3;}
	.st38{fill:url(#SVGID_00000016052176088381269260000014393267585166409870_);}
	.st39{fill:url(#SVGID_00000177458564274475201940000004026116086338437305_);}
	.st40{clip-path:url(#SVGID_00000029734963059510020130000017636709653833839026_);}
	.st41{fill:url(#SVGID_00000119830321373648966720000018286140364438316468_);}
	.st42{fill:url(#SVGID_00000130612415107888060070000014559467193559360445_);}
	.st43{fill:url(#SVGID_00000056408221282952185400000010272574774143813249_);}
	.st44{fill:url(#SVGID_00000096045089024249413570000001131247817035665057_);}
	.st45{fill:url(#SVGID_00000143601746669030793920000011997018226603266725_);}
	.st46{fill:url(#SVGID_00000183234447647545494800000009009306212625394352_);}
	.st47{fill:url(#SVGID_00000072962403602935247200000001685216417797278091_);}
	.st48{fill:url(#SVGID_00000176747519376751344570000005557771987237938094_);}
	.st49{fill:url(#SVGID_00000091699203035811799410000014242639532872947856_);}
	.st50{fill:#00A489;}
	.st51{fill:url(#SVGID_00000077294833536233088590000001969153557426533276_);}
	.st52{fill:#A2C1DB;}
	.st53{opacity:0.5;fill:#FFFFFF;}
	.st54{fill:#96B3C7;}
	.st55{opacity:0.87;fill:#FFFFFF;}
	.st56{fill:url(#SVGID_00000094591553796828212530000016771046669989383856_);}
	.st57{fill:url(#SVGID_00000094604455751399279190000013179983561843988667_);}
	.st58{fill:url(#SVGID_00000062901665925456042230000003594984729228430474_);}
	.st59{fill:url(#SVGID_00000164515310583889325590000007161031061797650336_);}
	.st60{fill:url(#SVGID_00000170957593554267343010000013307393762487700918_);}
	.st61{fill:url(#SVGID_00000101082720443931393760000003606023125281380241_);}
	.st62{fill:url(#SVGID_00000021818387244377953330000010500602209469659830_);}
	.st63{fill:url(#SVGID_00000052806105231733924230000006895859957499793338_);}
	.st64{fill:url(#SVGID_00000152946046180217739290000001749456098979999904_);}
	.st65{fill:url(#SVGID_00000098217461259163783120000004085791480051559324_);}
	.st66{fill:url(#SVGID_00000097466112611711858850000011434253461194704527_);}
	.st67{fill:url(#SVGID_00000052826970663996136410000006975328117114907541_);}
	.st68{fill:url(#SVGID_00000127042733373400412740000017529645701443414400_);}
	.st69{fill:url(#SVGID_00000101791578616378260680000006401629422504186276_);}
	.st70{fill:url(#SVGID_00000031192026228316870710000015138004086882633604_);}
	.st71{fill:url(#SVGID_00000147904548249056325070000002839017933900082063_);}
	.st72{fill:url(#SVGID_00000164482775068566958460000009764925807520388282_);}
	.st73{fill:url(#SVGID_00000011746199013335264060000017901989061993905050_);}
	.st74{fill:url(#SVGID_00000008148268929941372040000005107642313424557750_);}
	.st75{fill:url(#SVGID_00000002384570067904772050000001140870038166695580_);}
	.st76{fill:url(#SVGID_00000079473583267892462320000003864315733113998221_);}
	.st77{fill:url(#SVGID_00000025429596564793706390000014432409569245926830_);}
	.st78{fill:url(#SVGID_00000180359531905893932320000012493021323779203256_);}
	.st79{fill:url(#SVGID_00000041981603398812084200000004884087745495729325_);}
	.st80{fill:url(#SVGID_00000179641146342199396360000008672946652741479559_);}
	.st81{fill:url(#SVGID_00000146459092697001588660000001297983554925216417_);}
	.st82{fill:url(#SVGID_00000007402741986564924020000010497837280365494438_);}
	.st83{fill:url(#SVGID_00000014600816577368994740000017004856678471332789_);}
	.st84{fill:url(#SVGID_00000016765891589287491130000003268784477683852448_);}
	.st85{fill:url(#SVGID_00000143583511078144663540000008778130023939163577_);}
	.st86{fill:url(#SVGID_00000121274635927535492290000002636866982532636067_);}
	.st87{fill:url(#SVGID_00000078018825652885709620000004861874293906028441_);}
	.st88{fill:url(#SVGID_00000136398804546909892800000008515926915771641226_);}
	.st89{fill:url(#SVGID_00000097485762583080342600000003431916348695920032_);}
	.st90{fill:url(#SVGID_00000045620473353911089830000003537788203675513786_);}
	.st91{fill:url(#SVGID_00000160157166313437825720000007963054707385960585_);}
	.st92{fill:url(#SVGID_00000057834190222294143340000006196819034822780045_);}
	.st93{fill:url(#SVGID_00000114763703286611505870000006622035904026890372_);}
	.st94{fill:url(#SVGID_00000023279606819920441560000001941603165954601610_);}
	.st95{fill:url(#SVGID_00000080890704532259204770000018391793087518521254_);}
	.st96{fill:url(#SVGID_00000119830248308903655250000007563443838608863123_);}
	.st97{fill:url(#SVGID_00000049940740140449855960000000785988669611464603_);}
	.st98{fill:url(#SVGID_00000062190013324762632380000017861549601715184818_);}
	.st99{fill:url(#SVGID_00000002381230176532642590000000896142968546389381_);}
	.st100{fill:url(#SVGID_00000000217896896082807450000005341256123848703385_);}
	.st101{filter:url(#Adobe_OpacityMaskFilter);}
	.st102{filter:url(#Adobe_OpacityMaskFilter_00000087399104545296431400000000059961860188247177_);}
	
		.st103{mask:url(#SVGID_00000011712632360493408420000006720129278963207359_);fill:url(#SVGID_00000177460609757021270230000004139266383179068569_);}
	.st104{fill:url(#SVGID_00000113334850688166781220000006928399629303009681_);}
	.st105{fill:url(#SVGID_00000089573633351011291620000016192108036686518946_);}
	.st106{fill:url(#SVGID_00000095335454127134623540000005025013147728860861_);}
	.st107{fill:url(#SVGID_00000106128468756890573110000016419827096061904784_);}
	.st108{fill:url(#SVGID_00000096745898454482517830000013563960866142942088_);}
	.st109{fill:url(#SVGID_00000020377175209962945370000014945755730596089535_);}
	.st110{fill:url(#SVGID_00000039833887122062964990000013709772914855176080_);}
	.st111{clip-path:url(#SVGID_00000018938010091857866790000014081637812902589320_);}
	.st112{clip-path:url(#SVGID_00000174566955828407903370000016679585918485434528_);}
	.st113{fill:#E9EBED;}
	.st114{clip-path:url(#SVGID_00000129909403854260738800000012108408158874092450_);}
	.st115{clip-path:url(#SVGID_00000096045807904577520790000001681147698495581098_);}
	.st116{clip-path:url(#SVGID_00000179640828749529785700000009327838309423903366_);}
	.st117{fill:#F2F4F7;}
	.st118{fill:#D5DBE5;}
	.st119{opacity:0.5;fill:#F2F4F7;enable-background:new    ;}
	.st120{fill:url(#SVGID_00000090999689841680083690000017908256390638646454_);}
	.st121{fill:url(#SVGID_00000137103715757767028090000018340311215844168602_);}
	.st122{fill:url(#SVGID_00000152944738741491003500000017501565308636224177_);}
	.st123{fill:url(#SVGID_00000130631571332398588000000007016542816595286408_);}
	.st124{fill:url(#SVGID_00000063609700499842589380000015603995185668358805_);}
	.st125{fill:url(#SVGID_00000148629336345077933420000017888495510056673157_);}
	.st126{fill:url(#SVGID_00000033361760208430426950000000415589023432585639_);}
	.st127{clip-path:url(#SVGID_00000065780726699006368820000004146048996519314340_);}
	.st128{fill:url(#SVGID_00000086650483882331513600000013873244505433141149_);}
	.st129{opacity:0.7;fill:url(#SVGID_00000018232721610208643210000006433241704822029231_);enable-background:new    ;}
	.st130{fill:url(#SVGID_00000155841974585577889180000014802329068717328305_);}
	.st131{fill:url(#SVGID_00000027577554166806879860000000235870588184000936_);}
	.st132{fill:url(#SVGID_00000121988664408139625730000008183173683607957941_);}
	.st133{fill:url(#SVGID_00000024696238951084698620000008703059415412263100_);}
	.st134{fill:url(#SVGID_00000106858043533786520270000008325202572551468427_);}
	.st135{fill:url(#SVGID_00000025416963820503672600000008651897830462652039_);}
	.st136{clip-path:url(#SVGID_00000090258517633766989780000017875726492608198313_);}
	.st137{fill:url(#SVGID_00000169552472127866809890000018413436295076761002_);}
	.st138{fill:url(#SVGID_00000036966914566311778570000014067299876833993630_);}
	.st139{fill:url(#SVGID_00000171700270440710208390000010792483289923019650_);}
	.st140{fill:url(#SVGID_00000052102520751908717100000012921277944437589950_);}
	.st141{fill:url(#SVGID_00000110428550771038689550000011896983834475528851_);}
	.st142{fill:url(#SVGID_00000115501398199947187000000010319792896264192640_);}
	.st143{fill:url(#SVGID_00000173132979632241951100000006929989784825573762_);}
	.st144{fill:url(#SVGID_00000054249521018500348290000011775406175221792672_);}
	.st145{fill:url(#SVGID_00000176042589886441340820000011623028888487821467_);}
	.st146{clip-path:url(#SVGID_00000137840066829988339560000010285674720424922294_);}
	.st147{fill:url(#SVGID_00000113355165684163901750000013614429231028514966_);}
	.st148{fill:url(#SVGID_00000080208058447887442690000010351680998801733046_);}
	.st149{fill:url(#SVGID_00000152239781493247344830000004505850370811303330_);}
	.st150{fill:url(#SVGID_00000005962811421238849610000016441716649204068512_);}
	.st151{fill:url(#SVGID_00000173125396568945552140000006097916576920938655_);}
	.st152{fill:url(#SVGID_00000060017117640636484650000007993941531891609267_);}
	.st153{fill:url(#SVGID_00000004516502039840219890000005573418236592763295_);}
	.st154{fill:url(#SVGID_00000071533506130568880710000003369502968448171172_);}
	.st155{fill:url(#SVGID_00000062149689348859995720000015957435103234556318_);}
	.st156{fill:#02B47B;}
	.st157{fill:#DADAE4;}
	.st158{fill:#009D82;}
</style>
<g>
	<path class="st50" d="M359.58,174.05c7.58-7.92,16.84-11.68,27.37-11.26c10.95-0.42,19.79,3.34,27.79,11.26
		c7.58,7.51,11.37,16.68,11.37,27.11c0,10.84-3.79,19.6-11.37,27.53c-8,7.51-16.84,11.26-27.79,11.26
		c-10.53,0-19.79-3.75-27.37-11.26c-7.58-7.92-11.37-16.68-11.37-27.53C348.21,190.73,352,181.56,359.58,174.05L359.58,174.05z
		 M471.99,139.44v-0.42c-6.32-8.34-13.89-15.43-22.74-22.1v0.42c-7.16,5.42-14.32,11.26-21.05,17.1c-2.95-1.67-5.47-2.92-8-4.17
		c-3.37-1.67-6.74-3.34-10.53-4.17c-1.26-0.42-2.53-0.83-3.79-0.83c-0.84-9.17-1.68-18.35-2.95-27.52
		c-4.21-0.83-8.42-0.83-13.05-1.25h-6.74c-4.21,0.42-8,0.42-11.79,1.25c-1.26,8.76-2.11,17.93-2.53,27.11
		c-1.68,0-2.95,0.42-4.63,0.83c-0.42,0-0.84,0-1.26,0.42c-3.37,0.83-6.74,2.5-10.1,4.17c-2.95,1.25-5.47,2.5-8,4.17
		c-7.16-5.84-13.89-11.26-21.05-17.1l-0.42-0.42c-1.68,1.25-3.37,2.5-4.63,3.75c-2.95,2.09-5.47,4.59-7.58,7.09
		c-3.79,3.34-6.74,7.51-10.1,11.68h0.42c5.47,7.09,11.37,13.76,17.26,20.85c-1.68,2.5-3.37,5.42-4.63,7.92
		c-1.68,3.34-2.95,7.09-3.79,10.43c-0.84,1.67-1.26,3.34-1.26,4.59c-9.26,0.83-18.53,1.67-27.37,2.92
		c-0.84,4.17-1.26,8.34-1.26,12.93c0,6.26,0.42,12.51,1.68,18.35c8.84,0.83,17.68,1.67,26.95,2.5c0,1.67,0.42,3.34,1.26,4.59
		c0.84,3.75,2.11,7.09,3.79,10.84c1.68,2.92,2.95,5.84,5.05,8.34c-5.89,7.09-11.79,13.76-17.26,20.85
		c6.32,8.76,13.89,16.27,22.74,22.52v-0.42c6.74-5.42,13.89-11.26,20.63-17.1h0.42c2.11,1.25,4.63,2.5,6.74,3.75
		c3.79,1.67,8,3.34,11.79,4.17c1.68,0.42,2.95,0.83,4.21,1.25c0.84,8.76,1.68,17.93,2.95,27.11c3.79,0.42,7.58,0.83,11.79,0.83h6.32
		c4.63,0,9.26-0.42,13.89-1.25c0.84-8.76,1.68-17.93,2.53-27.11c1.26-0.42,2.53-0.83,3.79-1.25c3.79-0.83,7.16-2.09,10.53-3.75
		c2.95-1.25,5.89-2.92,8.84-5c0,0.42,0,0.42,0.42,0.42c6.74,5.84,13.89,11.68,21.05,17.1c1.26-0.83,2.53-1.67,4.21-2.92
		c2.53-2.08,5.05-4.59,7.16-7.09c3.79-3.75,7.58-7.92,10.95-12.51c-5.89-7.09-11.79-14.18-17.68-20.85v-0.42
		c1.26-2.09,2.53-4.59,3.79-7.09c1.26-3.34,2.95-6.67,3.79-10.01c0-0.42,0-0.83,0.42-0.83c0-1.67,0.42-2.92,0.84-3.75
		c9.26-0.83,18.53-1.67,27.37-2.5c0.84-4.17,0.84-8.34,1.26-12.51v-7.09c-0.42-4.17-0.42-8.34-1.26-12.51
		c-8.84-0.83-18.1-1.67-27.37-2.5c-0.42-1.25-0.84-2.5-0.84-3.75c-1.26-3.75-2.53-7.51-4.21-11.26c-1.26-2.5-2.95-5.42-4.21-7.92
		C460.21,153.62,466.1,146.53,471.99,139.44L471.99,139.44z"/>
	<path class="st50" d="M369.68,183.64c5.05-4.59,10.95-7.09,17.68-7.09c6.74,0,12.63,2.5,17.68,7.09c5.05,5,7.16,10.43,7.16,17.52
		c0,7.09-2.11,12.93-7.16,17.52c-5.05,5-10.95,7.51-17.68,7.51c-6.74,0-12.63-2.5-17.68-7.51c-4.63-4.59-7.16-10.43-7.16-17.52
		C362.52,194.49,365.05,188.65,369.68,183.64z M387.37,168.21c-9.26,0-16.84,3.34-23.58,9.59c-6.32,6.67-9.68,14.18-9.68,23.35
		c0,9.18,3.37,16.68,9.68,23.35c6.74,6.67,14.32,10.01,23.58,10.01c9.26,0,16.84-3.34,23.58-10.01c6.74-6.67,9.68-14.18,9.68-23.35
		c0-9.18-2.95-16.68-9.68-23.35C404.21,171.55,396.63,168.21,387.37,168.21L387.37,168.21z"/>
	<path class="st50" d="M200.85,392.58c-7.16-12.09-8.84-24.61-5.05-37.95c3.37-13.35,11.37-23.35,23.58-30.45
		c11.79-6.67,24.84-8.34,37.89-5c13.47,3.75,24,11.26,30.74,23.35c7.16,12.09,8.84,24.61,5.05,37.95
		c-3.37,13.35-11.37,23.35-23.16,30.03c-12.63,7.09-25.26,8.76-38.31,5C218.11,412.18,207.58,404.26,200.85,392.58L200.85,392.58z
		 M279.16,236.61c-1.68-0.83-2.95-1.25-4.21-1.25c-5.05-1.25-10.11-2.09-15.16-2.92c-4.63,11.26-8.42,22.1-12.21,32.95H240
		c-5.05,0.42-9.68,0.83-14.32,1.67c-3.79,0.42-7.58,1.67-11.37,2.92c-6.74-9.59-13.89-19.18-20.63-28.36l-0.42-0.42
		c-2.53,0.83-5.05,1.67-7.16,2.92c-4.21,1.67-8,3.75-11.79,6.26c-5.89,2.92-11.37,6.67-16.42,11.26v0.42
		c5.05,10.43,9.68,20.85,14.74,31.28c-2.95,2.92-5.47,5.42-8,8.76c-3.37,3.34-6.32,7.51-8.84,11.68c-1.26,1.67-2.11,3.34-2.95,5.42
		c-11.79-2.08-23.58-4.17-35.37-5.84c-2.11,5-4.21,10.01-5.89,15.43c-1.68,8.34-3.37,16.27-4.21,24.19l32.84,12.51v5.84
		c0,4.59,0.42,9.59,1.68,14.6c0.42,4.17,1.68,8.34,2.95,12.51c-9.68,6.67-18.95,13.35-28.63,20.43
		c5.05,12.51,12.21,24.19,20.63,35.03h0.42c10.53-5,21.05-9.59,32-14.6c2.53,2.5,5.05,4.59,7.58,7.09
		c3.79,3.34,8.42,6.26,13.47,9.18c1.26,0.83,2.95,1.67,4.63,2.92c-2.11,11.26-3.79,22.94-5.47,34.61c4.63,2.09,9.26,3.75,14.32,5
		c1.26,0.42,3.79,1.25,8,2.09c5.89,1.67,11.79,2.5,17.26,3.34c4.63-11.26,8.84-22.1,12.63-33.36h5.47c5.05,0,9.68-0.42,14.32-1.25
		c4.21-0.83,8.42-2.09,12.63-3.34c0,0,0,0.42,0.42,0.42c6.74,9.59,13.89,19.18,20.63,28.78c2.11-1.25,4.21-2.08,5.89-2.92
		c4.21-1.67,8-3.75,11.79-5.84c6.32-3.75,12.21-7.92,17.68-12.51c-4.63-10.84-9.68-21.27-14.74-32.11c2.53-2.5,4.63-5,7.16-7.51
		c2.95-3.75,5.89-7.92,8.42-11.68c0-0.42,0.42-0.83,0.42-1.25c0.84-1.25,1.68-2.92,2.53-4.17c11.79,2.08,23.58,3.75,35.37,5.84
		c2.11-5,3.79-10.01,5.47-15.43c0.42-1.25,0.84-2.5,1.26-4.17c0.42-1.25,0.42-2.5,1.26-4.17c0.84-5.42,2.11-10.84,2.53-15.85
		c-10.95-4.59-22.31-8.34-33.26-12.51v-5c0-5-0.42-10.43-1.68-15.43c-0.42-3.75-1.68-7.51-2.53-11.26
		c9.68-6.67,19.37-13.76,28.63-20.85h0.42c-5.05-12.51-11.79-24.19-21.05-35.03c-10.95,4.59-21.47,9.59-32,14.6
		c-2.95-2.92-5.89-5.84-8.84-8.34c-3.79-2.92-7.58-5.84-11.79-7.92c-1.26-1.25-2.95-2.08-4.21-2.92
		c1.68-11.68,3.79-23.35,5.47-35.03c-5.05-2.08-10.53-4.17-16-5.84C282.11,237.03,280.42,236.61,279.16,236.61L279.16,236.61z"/>
	<path class="st50" d="M228.63,340.04c8-4.59,16-5.84,24.42-3.34c8.42,2.08,15.16,7.09,19.79,15.01c4.63,7.51,5.47,15.85,3.37,24.19
		c-2.53,8.34-7.58,15.01-15.16,19.18v0.42c-8,4.17-16,5.42-24.42,2.92c-8.84-2.09-15.16-7.09-19.79-15.01
		c-4.21-7.51-5.47-15.43-3.37-24.19C216,350.88,221.06,344.62,228.63,340.04L228.63,340.04z M203.37,356.72
		c-3.37,11.26-2.11,22.1,3.79,32.11h0.42c5.89,10.43,14.74,16.68,26.1,20.02c11.37,2.92,22.31,1.67,32.84-4.17
		c10.53-6.26,16.84-14.6,20.21-25.86v-0.42c2.95-11.26,1.26-22.1-4.63-32.11c-5.89-10.43-14.74-17.1-26.1-20.02
		c-11.37-3.34-22.74-1.67-32.84,4.17C212.63,336.28,206.32,345.04,203.37,356.72L203.37,356.72z"/>
</g>
</svg>
