<?xml version="1.0" encoding="utf-8"?>
<!-- Generator: Adobe Illustrator 28.0.0, SVG Export Plug-In . SVG Version: 6.00 Build 0)  -->
<svg version="1.1" id="Capa_1" xmlns="http://www.w3.org/2000/svg" xmlns:xlink="http://www.w3.org/1999/xlink" x="0px" y="0px"
	 viewBox="0 0 600 600" style="enable-background:new 0 0 600 600;" xml:space="preserve">
<style type="text/css">
	.st0{fill:#043A53;}
	.st1{fill:#C5D9E8;}
	.st2{fill:#EAECEE;}
	.st3{clip-path:url(#SVGID_00000093141582477430040430000002641258245603721652_);}
	.st4{clip-path:url(#SVGID_00000178199884532025344130000000606272533938220964_);}
	.st5{clip-path:url(#SVGID_00000071530799051853778900000014162535904295639698_);}
	.st6{clip-path:url(#SVGID_00000013178822608053957730000005832200188202895545_);}
	.st7{fill:#F3F5F8;}
	.st8{fill:#D6DCE6;}
	.st9{opacity:0.5;fill:#F3F5F8;enable-background:new    ;}
	.st10{fill:url(#SVGID_00000106126144482512444920000000762793117325766840_);}
	.st11{fill:url(#SVGID_00000063631906001002286670000011020223089221970598_);}
	.st12{fill:url(#SVGID_00000183956261759884978330000009025369871628186023_);}
	.st13{fill:url(#SVGID_00000039107055512614312960000009856857013355933065_);}
	.st14{fill:url(#SVGID_00000093856595262195165960000016294937767194370945_);}
	.st15{fill:#FFFFFF;}
	.st16{opacity:0.48;fill:#FFFFFF;enable-background:new    ;}
	.st17{fill:url(#SVGID_00000152975558703553311810000018181130202673222820_);}
	.st18{fill:url(#SVGID_00000133501107858790661400000003603463268200340618_);}
	.st19{opacity:0.5;}
	.st20{clip-path:url(#SVGID_00000018201051569376068700000012823518210805985464_);}
	.st21{fill:url(#SVGID_00000164485942432481004640000004719024739845559198_);}
	.st22{opacity:0.7;fill:url(#SVGID_00000029760744634887779510000000704418435765253803_);enable-background:new    ;}
	.st23{fill:url(#SVGID_00000171706716336965392110000007223930314440954788_);}
	.st24{fill:url(#SVGID_00000064347723379055227270000005635511255009042078_);}
	.st25{fill:url(#SVGID_00000003787372992553185640000002494062856136795537_);}
	.st26{fill:url(#SVGID_00000116937786564165618660000011342797071641377978_);}
	.st27{fill:url(#SVGID_00000098201340646549112370000017543125223940643260_);}
	.st28{fill:url(#SVGID_00000137122901851781658280000011090797612572894123_);}
	.st29{clip-path:url(#SVGID_00000034056259987947707120000013934088516851086246_);}
	.st30{fill:url(#SVGID_00000048467622060418011970000008805417000037614222_);}
	.st31{fill:url(#SVGID_00000116949209545735213990000014165459726224825221_);}
	.st32{fill:url(#SVGID_00000142164751357523589330000005371969522656472466_);}
	.st33{fill:url(#SVGID_00000022542115274974985720000018154838401295278221_);}
	.st34{fill:url(#SVGID_00000004531347336514904110000004549241962292110979_);}
	.st35{fill:url(#SVGID_00000103970262490408543490000008912780143836406400_);}
	.st36{fill:url(#SVGID_00000121984265553038223020000015070538224843276964_);}
	.st37{opacity:0.3;}
	.st38{fill:url(#SVGID_00000178927785954413225680000017104046135169664182_);}
	.st39{fill:url(#SVGID_00000132791400085755411320000012056221398497026451_);}
	.st40{clip-path:url(#SVGID_00000170255370358006213530000010875114947561485195_);}
	.st41{fill:url(#SVGID_00000160160460406920881420000000432162163647947710_);}
	.st42{fill:url(#SVGID_00000093149829075561691270000003614286008651402113_);}
	.st43{fill:url(#SVGID_00000108992390862542844160000005325441056197938099_);}
	.st44{fill:url(#SVGID_00000155118041748771625070000000932627148999185563_);}
	.st45{fill:url(#SVGID_00000113338662563902745440000018064844273841296525_);}
	.st46{fill:url(#SVGID_00000072266017045672038340000011390584812415041948_);}
	.st47{fill:url(#SVGID_00000019655653949034265010000015181007000170103956_);}
	.st48{fill:url(#SVGID_00000079473051704216386510000012031047331441093801_);}
	.st49{fill:url(#SVGID_00000031199283820518074500000006393457965418600362_);}
	.st50{fill:#00A489;}
	.st51{fill:url(#SVGID_00000080192590522957076840000000603164446503868603_);}
	.st52{fill:#A2C1DB;}
	.st53{opacity:0.5;fill:#FFFFFF;}
	.st54{fill:#96B3C7;}
	.st55{opacity:0.87;fill:#FFFFFF;}
	.st56{fill:url(#SVGID_00000008138075810203771200000016030419659704299678_);}
	.st57{fill:url(#SVGID_00000069395791358425526210000014030687466227304093_);}
	.st58{fill:url(#SVGID_00000121243935047235689750000000481545853239883151_);}
	.st59{fill:url(#SVGID_00000173144082049998156760000001228982581748521369_);}
	.st60{fill:url(#SVGID_00000003813474308493118470000011515876011107388600_);}
	.st61{fill:url(#SVGID_00000098216897454612846670000004608800179093285507_);}
	.st62{fill:url(#SVGID_00000051350526337023090620000005252256792405331875_);}
	.st63{fill:url(#SVGID_00000134251458966386131180000010689841574433273732_);}
	.st64{fill:url(#SVGID_00000078022528379733583330000006472759684700328865_);}
	.st65{fill:url(#SVGID_00000073706448989174435010000013275602025408012692_);}
	.st66{fill:url(#SVGID_00000000184928512389786750000010131773453363422880_);}
	.st67{fill:url(#SVGID_00000180345106224819538620000014667149643819097752_);}
	.st68{fill:url(#SVGID_00000045607757850031818090000013604451599114193831_);}
	.st69{fill:url(#SVGID_00000012432893999110991580000010574885798688156851_);}
	.st70{fill:url(#SVGID_00000170276206401046040310000015166197901917443515_);}
	.st71{fill:url(#SVGID_00000069392203332378717290000007746899805840729517_);}
	.st72{fill:url(#SVGID_00000045607677375829919950000000377346844597094587_);}
	.st73{fill:url(#SVGID_00000183228952582403546220000017080505671189290628_);}
	.st74{fill:url(#SVGID_00000073679883558766277300000009016913444011059859_);}
	.st75{fill:url(#SVGID_00000060724253943108429580000012128118705286554517_);}
	.st76{fill:url(#SVGID_00000083079982311246479690000002822112049505207469_);}
	.st77{fill:url(#SVGID_00000094604174125281304460000013450694592497094038_);}
	.st78{fill:url(#SVGID_00000143602248517418063190000004420696652726678184_);}
	.st79{fill:url(#SVGID_00000110447360332228783530000003991643657620992701_);}
	.st80{fill:url(#SVGID_00000119806326824997800670000006238444351917774235_);}
	.st81{fill:url(#SVGID_00000070087737896094858980000008782575102475372935_);}
	.st82{fill:url(#SVGID_00000082337354540919385590000006214354433536785545_);}
	.st83{fill:url(#SVGID_00000128454185515185953890000015798986804716732058_);}
	.st84{fill:url(#SVGID_00000151541973957794750020000013842439471181697213_);}
	.st85{fill:url(#SVGID_00000060711119002363364470000009719565727001506177_);}
	.st86{fill:url(#SVGID_00000119086752950743833340000008020357706762625697_);}
	.st87{fill:url(#SVGID_00000012464489486967410430000000292532045683708050_);}
	.st88{fill:url(#SVGID_00000059304633555899439960000006136968519643170490_);}
	.st89{fill:url(#SVGID_00000060031030992903133640000009811570390002108058_);}
	.st90{fill:url(#SVGID_00000004504216333181073980000009721951730754989988_);}
	.st91{fill:url(#SVGID_00000127037523863345072130000015200491230363305130_);}
	.st92{fill:url(#SVGID_00000150061080237476996660000012415927491311486598_);}
	.st93{fill:url(#SVGID_00000071523669586191017870000004498083713840144815_);}
	.st94{fill:url(#SVGID_00000087414375992460472400000012628854728894095546_);}
	.st95{fill:url(#SVGID_00000052821117392551387000000003561737804772046013_);}
	.st96{fill:url(#SVGID_00000003814097337318795570000000779351004774272387_);}
	.st97{fill:url(#SVGID_00000082366559138167990750000012354621446495144853_);}
	.st98{fill:url(#SVGID_00000117644837787791529700000001270601179723197112_);}
	.st99{fill:url(#SVGID_00000067917132716008975850000005480028997756731579_);}
	.st100{fill:url(#SVGID_00000181066734761403495040000008296651779526266032_);}
	.st101{filter:url(#Adobe_OpacityMaskFilter);}
	.st102{filter:url(#Adobe_OpacityMaskFilter_00000093171582977415910550000010943549908866007740_);}
	
		.st103{mask:url(#SVGID_00000140699339038221172640000005587700427842530750_);fill:url(#SVGID_00000096034537282328762430000017209817734914389416_);}
	.st104{fill:url(#SVGID_00000006679519021132061360000013712928888636721594_);}
	.st105{fill:url(#SVGID_00000039843161106712250650000007482642533265986191_);}
	.st106{fill:url(#SVGID_00000152230409831633896110000005626140943680718266_);}
	.st107{fill:url(#SVGID_00000167384891798368708470000001743783185330236037_);}
	.st108{fill:url(#SVGID_00000098922262969843180930000003340542217865043078_);}
	.st109{fill:url(#SVGID_00000049913370845239906410000002827552705868407463_);}
	.st110{fill:url(#SVGID_00000176002940046613057090000003396887878238757814_);}
	.st111{clip-path:url(#SVGID_00000068650634215243401730000006867621069100863106_);}
	.st112{clip-path:url(#SVGID_00000165930828653726693260000014524103662145348233_);}
	.st113{fill:#E9EBED;}
	.st114{clip-path:url(#SVGID_00000000220521971969965600000002418370123769796234_);}
	.st115{clip-path:url(#SVGID_00000016773744416680680640000012438129801528316827_);}
	.st116{clip-path:url(#SVGID_00000147906713023133129510000015203462207015142539_);}
	.st117{fill:#F2F4F7;}
	.st118{fill:#D5DBE5;}
	.st119{opacity:0.5;fill:#F2F4F7;enable-background:new    ;}
	.st120{fill:url(#SVGID_00000145030418325628435100000004873170624870019757_);}
	.st121{fill:url(#SVGID_00000122692984682874341960000011806302587910920382_);}
	.st122{fill:url(#SVGID_00000059268383787152796580000004428552828565947323_);}
	.st123{fill:url(#SVGID_00000003067227755171299350000008550064939409663107_);}
	.st124{fill:url(#SVGID_00000046307290190645466700000001214053143287373492_);}
	.st125{fill:url(#SVGID_00000042008789263857581530000017660882633424182180_);}
	.st126{fill:url(#SVGID_00000095305649942395209570000018084662330024669843_);}
	.st127{clip-path:url(#SVGID_00000085214374999257782540000002412197845116221106_);}
	.st128{fill:url(#SVGID_00000001648974922784167520000012680574839589675159_);}
	.st129{opacity:0.7;fill:url(#SVGID_00000092416142553142704960000007661396625026650498_);enable-background:new    ;}
	.st130{fill:url(#SVGID_00000121987106402653134290000001784176536540443803_);}
	.st131{fill:url(#SVGID_00000130644133145375077590000010648510659383171214_);}
	.st132{fill:url(#SVGID_00000021810033088453969400000001176330972137138317_);}
	.st133{fill:url(#SVGID_00000133522373845288341520000016903602069362760379_);}
	.st134{fill:url(#SVGID_00000124127863470648346610000008018090487163319203_);}
	.st135{fill:url(#SVGID_00000052811456737217161780000015439537808154028954_);}
	.st136{clip-path:url(#SVGID_00000013181140440312991740000002154335790347784347_);}
	.st137{fill:url(#SVGID_00000054951050523123432620000016431857044104806016_);}
	.st138{fill:url(#SVGID_00000011011946871452125710000011032601182968658587_);}
	.st139{fill:url(#SVGID_00000039100721981969159780000016084187628517759903_);}
	.st140{fill:url(#SVGID_00000003823122825150886120000013393467939025613983_);}
	.st141{fill:url(#SVGID_00000080191369138609762440000016629944867061784709_);}
	.st142{fill:url(#SVGID_00000183231641677684789770000006092885682275229574_);}
	.st143{fill:url(#SVGID_00000006703154310143872970000018329477746996092057_);}
	.st144{fill:url(#SVGID_00000020368623558391450420000006753934902825214598_);}
	.st145{fill:url(#SVGID_00000097485512565042014370000009327886702863624594_);}
	.st146{clip-path:url(#SVGID_00000169534480385746495030000014759096100942327992_);}
	.st147{fill:url(#SVGID_00000016048096504248243120000004366613138114942349_);}
	.st148{fill:url(#SVGID_00000157297744263768356570000014132328910428676529_);}
	.st149{fill:url(#SVGID_00000021116791473613591670000000376814178538920119_);}
	.st150{fill:url(#SVGID_00000036236068160756013210000001352817605711348655_);}
	.st151{fill:url(#SVGID_00000155120241836728550590000010994065896427865522_);}
	.st152{fill:url(#SVGID_00000045592616312614753780000011201638180426824072_);}
	.st153{fill:url(#SVGID_00000027591773100407512220000013196864192597358266_);}
	.st154{fill:url(#SVGID_00000061433117776655268060000009164811007756218535_);}
	.st155{fill:url(#SVGID_00000059272130524396082340000015014222167855416472_);}
	.st156{fill:#02B47B;}
	.st157{fill:#DADAE4;}
	.st158{fill:#009D82;}
</style>
<g>
	<path class="st50" d="M334.66,421.34c-23.9-6.18-43.72-22.99-56.25-47.56h7.46c1.78,0,3.22-1.43,3.22-3.19
		c0-1.76-1.44-3.19-3.22-3.19h-10.46c-4.93-11.26-8.23-23.53-9.83-36.57h42.47c1.78,0,3.22-1.43,3.22-3.19
		c0-1.76-1.44-3.19-3.22-3.19h-43.12c-0.94-12.01-0.39-24.28,1.63-36.57h43.1c1.78,0,3.22-1.43,3.22-3.19
		c0-1.76-1.44-3.19-3.22-3.19h-41.92c0.59-2.92,1.22-5.79,1.94-8.52c2.58-9.82,6.03-19.23,10.21-28.05h43.47
		c1.78,0,3.22-1.43,3.22-3.19s-1.44-3.19-3.22-3.19h-40.29c7.4-14.01,16.64-26.3,27.55-36.6h41.62c1.78,0,3.22-1.43,3.22-3.19
		c0-1.76-1.44-3.19-3.22-3.19h-34.36c18.83-15.33,40.11-23.43,61.12-23.43c6.76,0,13.49,0.84,20.1,2.54
		c25.82,6.64,46.83,25.63,59.14,53.46c12.42,28.1,14.51,61.8,5.87,94.89C446.35,391,388.28,435.13,334.66,421.34z M487.1,212.88
		c-16.85-35.54-45.24-60.02-79.95-68.94c-26.8-6.91-55-3.89-81.62,8.71h-46.9c-1.78,0-3.22,1.43-3.22,3.19
		c0,1.76,1.44,3.19,3.22,3.19h35.07c-15.48,9.26-29.72,21.67-41.72,36.5H100.59c-1.78,0-3.22,1.43-3.22,3.19
		c0,1.76,1.44,3.19,3.22,3.19H267c-8.25,11.19-15.2,23.48-20.72,36.6h-17.39c-1.78,0-3.22,1.43-3.22,3.19s1.44,3.19,3.22,3.19h14.81
		c-2.42,6.32-4.56,12.93-6.35,19.74c-1.45,5.58-2.61,11.23-3.54,16.83H100.59c-1.78,0-3.22,1.43-3.22,3.19
		c0,1.76,1.44,3.19,3.22,3.19h132.28c-3.64,27.44-1.05,54.75,7.54,79.52H100.59c-1.78,0-3.22,1.43-3.22,3.19s1.44,3.19,3.22,3.19
		h142.13c5.3,13.49,12.29,25.76,20.87,36.57h-163c-1.78,0-3.22,1.43-3.22,3.19s1.44,3.19,3.22,3.19h168.46
		c15.81,17.45,35.68,29.67,57.6,35.32c9.4,2.41,18.88,3.57,28.31,3.57c62.24,0,122.24-50.56,141.49-124.32
		C507.17,290.27,503.85,248.21,487.1,212.88z"/>
	<path class="st50" d="M221.74,330.82c1.78,0,3.22-1.43,3.22-3.19c0-1.76-1.44-3.19-3.22-3.19h-64.13c-1.78,0-3.22,1.43-3.22,3.19
		c0,1.76,1.44,3.19,3.22,3.19H221.74z"/>
	<path class="st50" d="M157.61,159.03h83.46c1.78,0,3.22-1.43,3.22-3.19c0-1.76-1.44-3.19-3.22-3.19h-83.46
		c-1.78,0-3.22,1.43-3.22,3.19C154.4,157.6,155.84,159.03,157.61,159.03z"/>
	<path class="st50" d="M300.15,453.3H100.59c-1.78,0-3.22,1.43-3.22,3.19c0,1.76,1.44,3.19,3.22,3.19h199.56
		c1.78,0,3.22-1.43,3.22-3.19C303.37,454.73,301.93,453.3,300.15,453.3z"/>
	<path class="st50" d="M410.15,292.45l-73.13-37.85c-1.43-0.74-3.2-0.31-4.13,1.01c-0.92,1.32-0.72,3.12,0.49,4.19l42.08,37.67
		l-31.1,36.89c-1.03,1.22-1,3,0.07,4.19c0.63,0.7,1.51,1.06,2.39,1.06c0.62,0,1.24-0.18,1.79-0.54l61.85-41.14
		c0.94-0.63,1.48-1.7,1.42-2.83C411.81,293.97,411.15,292.97,410.15,292.45z"/>
</g>
</svg>
