<?xml version="1.0" encoding="utf-8"?>
<!-- Generator: Adobe Illustrator 28.0.0, SVG Export Plug-In . SVG Version: 6.00 Build 0)  -->
<svg version="1.1" id="Capa_1" xmlns="http://www.w3.org/2000/svg" xmlns:xlink="http://www.w3.org/1999/xlink" x="0px" y="0px"
	 viewBox="0 0 600 600" style="enable-background:new 0 0 600 600;" xml:space="preserve">
<style type="text/css">
	.st0{fill:#043A53;}
	.st1{fill:#C5D9E8;}
	.st2{fill:#EAECEE;}
	.st3{clip-path:url(#SVGID_00000153689808538348202080000004822557888741707708_);}
	.st4{clip-path:url(#SVGID_00000078039048225183693620000013328165759118497672_);}
	.st5{clip-path:url(#SVGID_00000033327396900114428600000005861659619991086724_);}
	.st6{clip-path:url(#SVGID_00000055665463559949474400000004672150350949994902_);}
	.st7{fill:#F3F5F8;}
	.st8{fill:#D6DCE6;}
	.st9{opacity:0.5;fill:#F3F5F8;enable-background:new    ;}
	.st10{fill:url(#SVGID_00000104694141331000246490000000321012653410262437_);}
	.st11{fill:url(#SVGID_00000180340783107245824900000003947613390576026290_);}
	.st12{fill:url(#SVGID_00000160912695408445931450000006380803216855630510_);}
	.st13{fill:url(#SVGID_00000034811145878600994340000017499762902247939007_);}
	.st14{fill:url(#SVGID_00000001637582958658012920000009177524021954574232_);}
	.st15{fill:#FFFFFF;}
	.st16{opacity:0.48;fill:#FFFFFF;enable-background:new    ;}
	.st17{fill:url(#SVGID_00000078017688571021537990000009797067544470590652_);}
	.st18{fill:url(#SVGID_00000000915654179462287950000013051255708665922699_);}
	.st19{opacity:0.5;}
	.st20{clip-path:url(#SVGID_00000152953872287979966340000017617859168964663177_);}
	.st21{fill:url(#SVGID_00000096747573893431224450000011356667515344635021_);}
	.st22{opacity:0.7;fill:url(#SVGID_00000051357562369766249450000011312199547105791673_);enable-background:new    ;}
	.st23{fill:url(#SVGID_00000162332114773296527670000011642410463473160866_);}
	.st24{fill:url(#SVGID_00000097478421587541799000000017220255820316877732_);}
	.st25{fill:url(#SVGID_00000161601023126997854020000013893654363700976270_);}
	.st26{fill:url(#SVGID_00000103264462331102422350000013634733894599280014_);}
	.st27{fill:url(#SVGID_00000030452049823682911140000013559418051301141173_);}
	.st28{fill:url(#SVGID_00000037663084444293855010000012057286375696393605_);}
	.st29{clip-path:url(#SVGID_00000048491633339419740180000003002734498038697095_);}
	.st30{fill:url(#SVGID_00000105392184631763454020000007100076033977018019_);}
	.st31{fill:url(#SVGID_00000097479095834594882530000002460888003567493305_);}
	.st32{fill:url(#SVGID_00000157309566648366893270000015400537732387857033_);}
	.st33{fill:url(#SVGID_00000067235654841503440400000015729157453865638334_);}
	.st34{fill:url(#SVGID_00000137127236284038705960000017693363349699220616_);}
	.st35{fill:url(#SVGID_00000075137622342605443250000012176333566183844259_);}
	.st36{fill:url(#SVGID_00000114057798310991477350000010815456699252008864_);}
	.st37{opacity:0.3;}
	.st38{fill:url(#SVGID_00000175321196721806153050000000519310931807821754_);}
	.st39{fill:url(#SVGID_00000158721200625330088550000017539693071773918618_);}
	.st40{clip-path:url(#SVGID_00000107590493473341177290000011670271511675629493_);}
	.st41{fill:url(#SVGID_00000001663448549261560330000007176967506942456760_);}
	.st42{fill:url(#SVGID_00000036955330560639160350000008954169033826449082_);}
	.st43{fill:url(#SVGID_00000178184975430113627690000012753590743554463108_);}
	.st44{fill:url(#SVGID_00000075853276743384476230000004977736787809521030_);}
	.st45{fill:url(#SVGID_00000017513533381925162580000003971575379419967917_);}
	.st46{fill:url(#SVGID_00000155127975623413961420000012621469827374517397_);}
	.st47{fill:url(#SVGID_00000068654687092056295890000016943840614768705450_);}
	.st48{fill:url(#SVGID_00000176761821277484962100000009910660117366529210_);}
	.st49{fill:url(#SVGID_00000174584808704435244460000014485946319939634333_);}
	.st50{fill:#00A489;}
	.st51{fill:url(#SVGID_00000182530737032486443790000015142279600499632521_);}
	.st52{fill:#A2C1DB;}
	.st53{opacity:0.5;fill:#FFFFFF;}
	.st54{fill:#96B3C7;}
	.st55{opacity:0.87;fill:#FFFFFF;}
	.st56{fill:url(#SVGID_00000049903789723904075240000004740229131334030998_);}
	.st57{fill:url(#SVGID_00000146469797353659369130000010282322139964206981_);}
	.st58{fill:url(#SVGID_00000123422709925356956950000003159209271371360166_);}
	.st59{fill:url(#SVGID_00000049934478363206719170000001946695316960615301_);}
	.st60{fill:url(#SVGID_00000015332239277260375880000009385054446770086810_);}
	.st61{fill:url(#SVGID_00000049192964853358379880000006738882491578912944_);}
	.st62{fill:url(#SVGID_00000070813578379944523110000008850298303992592306_);}
	.st63{fill:url(#SVGID_00000145016551188468948440000013683276443557750954_);}
	.st64{fill:url(#SVGID_00000040550074287798026780000016446449092761649340_);}
	.st65{fill:url(#SVGID_00000144302074947427357570000014656721514584361659_);}
	.st66{fill:url(#SVGID_00000089573812912921475660000005957560607424981145_);}
	.st67{fill:url(#SVGID_00000168837301280283203960000005179731505268606857_);}
	.st68{fill:url(#SVGID_00000133530568291988488400000017214550354658729886_);}
	.st69{fill:url(#SVGID_00000181781678998098403240000010829796545356994962_);}
	.st70{fill:url(#SVGID_00000008857419267437845120000002459772765916623243_);}
	.st71{fill:url(#SVGID_00000152242057883958974800000014219943257347172024_);}
	.st72{fill:url(#SVGID_00000145033747595600718190000008682440384428534934_);}
	.st73{fill:url(#SVGID_00000117648140808507496750000015337149714940717962_);}
	.st74{fill:url(#SVGID_00000065067749833718999380000001557354041945660591_);}
	.st75{fill:url(#SVGID_00000140710342212419093130000009325110988722794663_);}
	.st76{fill:url(#SVGID_00000147219985536749615940000008237619617032522175_);}
	.st77{fill:url(#SVGID_00000137124992024006643630000002570818804142950536_);}
	.st78{fill:url(#SVGID_00000150060614094347488840000017401954541392601530_);}
	.st79{fill:url(#SVGID_00000094609735471449146470000014860317822271716743_);}
	.st80{fill:url(#SVGID_00000019662548682015561370000008916692062512692100_);}
	.st81{fill:url(#SVGID_00000101086953682753100220000011151283993449383330_);}
	.st82{fill:url(#SVGID_00000142865724807585974360000007958119956349182127_);}
	.st83{fill:url(#SVGID_00000013879768853207307840000008411448529607197840_);}
	.st84{fill:url(#SVGID_00000128453728052726419600000001195215864529883315_);}
	.st85{fill:url(#SVGID_00000139972532786910293570000007745342898973319297_);}
	.st86{fill:url(#SVGID_00000022530421017310900250000002492547889881616029_);}
	.st87{fill:url(#SVGID_00000152258996174391217620000010559231291699831432_);}
	.st88{fill:url(#SVGID_00000164489952267342824740000010690921228041718969_);}
	.st89{fill:url(#SVGID_00000084510344305198208620000003229879262530943669_);}
	.st90{fill:url(#SVGID_00000052812147147269752570000005906007027215168163_);}
	.st91{fill:url(#SVGID_00000079446564388164718570000004882089381328228480_);}
	.st92{fill:url(#SVGID_00000013893610216716345820000013426412269981667515_);}
	.st93{fill:url(#SVGID_00000050648994810331616930000005008590413405961132_);}
	.st94{fill:url(#SVGID_00000103973902241958956810000007239143440893389758_);}
	.st95{fill:url(#SVGID_00000080891377502259499060000009257616117535999106_);}
	.st96{fill:url(#SVGID_00000121237670849184411100000004188207771730178703_);}
	.st97{fill:url(#SVGID_00000100365354929754093470000000735073072128694932_);}
	.st98{fill:url(#SVGID_00000069367248752644663910000010182267232719028117_);}
	.st99{fill:url(#SVGID_00000098193946743041036530000007134897298831020169_);}
	.st100{fill:url(#SVGID_00000087378227735003935750000010865406225269483964_);}
	.st101{filter:url(#Adobe_OpacityMaskFilter);}
	.st102{filter:url(#Adobe_OpacityMaskFilter_00000020399088231060179430000007807824395917806743_);}
	
		.st103{mask:url(#SVGID_00000139984032089528008850000002638703877581845158_);fill:url(#SVGID_00000135677383380745007500000000556950572653011874_);}
	.st104{fill:url(#SVGID_00000060028455205784669990000004193817176518866588_);}
	.st105{fill:url(#SVGID_00000174562400923358924510000006651343643191827378_);}
	.st106{fill:url(#SVGID_00000062913400626990670580000006876446032438785461_);}
	.st107{fill:url(#SVGID_00000124880620257091187980000003592167189418909365_);}
	.st108{fill:url(#SVGID_00000160911303569130592160000003186284812897257641_);}
	.st109{fill:url(#SVGID_00000116936537673504117710000010501328591002025625_);}
	.st110{fill:url(#SVGID_00000137111995850334599820000010172835707063582088_);}
	.st111{clip-path:url(#SVGID_00000029758784284012072560000010394714713104162703_);}
	.st112{clip-path:url(#SVGID_00000145757892447273415000000012390930478407790214_);}
	.st113{fill:#E9EBED;}
	.st114{clip-path:url(#SVGID_00000164507232887745082340000016214435520885181868_);}
	.st115{clip-path:url(#SVGID_00000039111806973720726510000007392957390799561865_);}
	.st116{clip-path:url(#SVGID_00000075849069293378609080000017785389328997166504_);}
	.st117{fill:#F2F4F7;}
	.st118{fill:#D5DBE5;}
	.st119{opacity:0.5;fill:#F2F4F7;enable-background:new    ;}
	.st120{fill:url(#SVGID_00000170238732688719279610000016753410082091201705_);}
	.st121{fill:url(#SVGID_00000033354109735022491260000009509050882206944957_);}
	.st122{fill:url(#SVGID_00000065052538415180088250000006119978331871392426_);}
	.st123{fill:url(#SVGID_00000109745178167508425280000009787354109702141088_);}
	.st124{fill:url(#SVGID_00000093173964378034341630000014979440316744844179_);}
	.st125{fill:url(#SVGID_00000030478136001988482010000014599959140253076630_);}
	.st126{fill:url(#SVGID_00000147935304102193742260000001022855162524866476_);}
	.st127{clip-path:url(#SVGID_00000120559218805648017810000007320060724847086009_);}
	.st128{fill:url(#SVGID_00000008145010563748103970000015038606715201804185_);}
	.st129{opacity:0.7;fill:url(#SVGID_00000010997321019945740200000006910234117162181566_);enable-background:new    ;}
	.st130{fill:url(#SVGID_00000103958837312471117260000013471567898811387025_);}
	.st131{fill:url(#SVGID_00000145764598086657680130000005493154852290445720_);}
	.st132{fill:url(#SVGID_00000083049296759854574210000015394725810582624946_);}
	.st133{fill:url(#SVGID_00000059292109732187704540000010586134062446284951_);}
	.st134{fill:url(#SVGID_00000091710450584290540690000007213750912203761537_);}
	.st135{fill:url(#SVGID_00000031194848602072158680000015893655343774058917_);}
	.st136{clip-path:url(#SVGID_00000013900404605267131850000009971505866707386762_);}
	.st137{fill:url(#SVGID_00000067936059227464158470000006227396734018054325_);}
	.st138{fill:url(#SVGID_00000008847080590166183410000002075522286388820904_);}
	.st139{fill:url(#SVGID_00000149373266185939150780000001373129959749627068_);}
	.st140{fill:url(#SVGID_00000023275496287447053620000005257384768230572192_);}
	.st141{fill:url(#SVGID_00000098909201366646354180000011209370372504826249_);}
	.st142{fill:url(#SVGID_00000036231603618130305520000010010753301035580588_);}
	.st143{fill:url(#SVGID_00000140707119810623042340000011849904768292666525_);}
	.st144{fill:url(#SVGID_00000072264312263419067500000006147711886024914111_);}
	.st145{fill:url(#SVGID_00000150078891656834589530000002197633856641709717_);}
	.st146{clip-path:url(#SVGID_00000178165582897257464970000013925973465000335752_);}
	.st147{fill:url(#SVGID_00000039822841275628352710000000683030734056858497_);}
	.st148{fill:url(#SVGID_00000106863101107158664830000014330509984189027488_);}
	.st149{fill:url(#SVGID_00000045609565044668264410000003997846872629039498_);}
	.st150{fill:url(#SVGID_00000135665112247277010520000010351290692509123253_);}
	.st151{fill:url(#SVGID_00000169540621573717724720000014846961843680561051_);}
	.st152{fill:url(#SVGID_00000168825496526730025820000002392431865407583920_);}
	.st153{fill:url(#SVGID_00000160878661158427335230000009461157944563781008_);}
	.st154{fill:url(#SVGID_00000025437329492262737040000008043377891869072272_);}
	.st155{fill:url(#SVGID_00000101790619294434373690000003730885018632586405_);}
	.st156{fill:#02B47B;}
	.st157{fill:#DADAE4;}
	.st158{fill:#009D82;}
</style>
<g>
	<path class="st50" d="M474.5,220.26c-18.68,0-37.37,0-56.2,0c-0.11-0.82-0.24-1.36-0.24-1.9c-0.01-15.08-0.16-30.17,0.03-45.25
		c0.23-18.38,14.16-30.9,32.11-29.16c11.2,1.08,21.08,10.36,23.68,22.24c0.17,0.77,0.42,1.51,0.63,2.27
		C474.5,185.73,474.5,202.99,474.5,220.26z"/>
	<path class="st50" d="M178.27,381.92c0-1.52-0.01-2.62,0-3.73c0.53-68.7,1.12-137.4,1.56-206.1c0.07-11.63,4.4-20.67,15.06-25.64
		c4.06-1.89,8.95-2.78,13.46-2.79c69.27-0.17,138.54-0.12,207.81-0.11c0.98,0,1.97,0.12,3.59,0.23c-1.1,1.36-1.82,2.31-2.6,3.22
		c-6.41,7.44-9.57,16.06-9.54,25.9c0.05,17.37,0.01,34.75,0.01,52.12c0,63.36,0.02,126.73-0.01,190.09
		c-0.01,18.61-10.04,33.21-26.71,39.1c-24.47,8.65-51.36-9.6-52.17-35.56c-0.3-9.53-0.08-19.08-0.1-28.61
		c-0.01-6.4-1.7-8.12-8.06-8.12c-45.88-0.01-91.75,0-137.63,0C181.5,381.92,180.06,381.92,178.27,381.92z M341.85,224.41
		c0.11,0,0.22,0,0.33,0c0-7.04-0.08-14.08,0.03-21.11c0.05-3.36-1.29-5.47-4.34-6.95c-14.68-7.13-29.32-14.35-43.93-21.63
		c-2.91-1.45-5.49-1.38-8.38,0.06c-14.4,7.18-28.83,14.32-43.33,21.31c-3.3,1.59-4.75,3.77-4.73,7.41
		c0.1,13.28-0.15,26.57,0.09,39.84c0.28,15.23,6.49,27.72,18.87,36.71c9.63,7,19.66,13.45,29.45,20.24c2.83,1.97,5.31,1.89,8.1-0.06
		c9.68-6.74,19.53-13.24,29.15-20.08c10.96-7.8,17.26-18.64,18.55-31.93C342.48,240.35,341.85,232.35,341.85,224.41z M292.3,330.03
		c11.13,0,22.26,0,33.39,0c12.83,0,25.67,0.03,38.5-0.03c3.4-0.02,5.62-2.15,5.69-5.08c0.07-2.96-2.09-5.06-5.47-5.28
		c-0.91-0.06-1.82-0.03-2.72-0.03c-46.11,0-92.22,0-138.34,0.01c-1.36,0-3-0.36-4.02,0.26c-1.58,0.97-3.55,2.48-3.84,4.04
		c-0.29,1.57,0.87,3.91,2.14,5.11c1.02,0.96,3.17,0.97,4.81,0.97C245.74,330.05,269.02,330.03,292.3,330.03z M292.53,357.92
		c23.05,0,46.11,0,69.16,0c5.66,0,8.25-1.71,8.17-5.39c-0.08-3.56-2.52-5.12-8.06-5.12c-46.22,0-92.45,0-138.67,0.01
		c-1.24,0-2.5,0.04-3.73,0.22c-2.62,0.39-4.02,2.13-4.22,4.62c-0.2,2.52,1.01,4.47,3.48,5.21c1.38,0.42,2.91,0.43,4.37,0.43
		C246.19,357.93,269.36,357.92,292.53,357.92z"/>
	<path class="st50" d="M337.21,456.26c-1.86,0.09-2.95,0.19-4.05,0.19c-55.31,0.01-110.63,0.03-165.94-0.01
		c-20.55-0.01-36.36-11.87-40.48-31.04c-1.34-6.23-0.93-12.85-1.16-19.3c-0.16-4.39-0.03-8.8-0.03-13.37c64.23,0,128.12,0,192.5,0
		c0,2.8-0.08,5.48,0.01,8.16c0.29,8.39,0.02,16.85,1.12,25.13c1.44,10.79,6.97,19.79,14.87,27.28
		C334.91,454.13,335.8,454.94,337.21,456.26z"/>
	<path class="st50" d="M248.18,227.07c0-6.47,0.08-12.95-0.05-19.42c-0.04-2.01,0.67-2.99,2.44-3.85c12.34-6,24.6-12.17,36.97-18.11
		c1.28-0.61,3.37-0.61,4.65,0.01c12.36,5.95,24.62,12.13,36.95,18.14c1.78,0.87,2.46,1.87,2.45,3.87
		c-0.09,12.15,0.15,24.31-0.11,36.46c-0.24,11.64-5.36,20.97-14.87,27.69c-8.06,5.7-16.33,11.11-24.42,16.78
		c-1.77,1.24-2.98,1.29-4.77,0.02c-8.16-5.76-16.54-11.21-24.65-17.04c-9.47-6.8-14.28-16.22-14.57-27.86
		C248.06,238.21,248.18,232.64,248.18,227.07z M283.82,242.35c-2.53-2.7-4.87-5.31-7.34-7.78c-2.94-2.94-6.07-3.18-8.34-0.82
		c-2.21,2.3-1.99,5.24,0.78,8.12c3.38,3.51,6.83,6.96,10.3,10.38c3.52,3.48,6.02,3.47,9.59-0.05c6.04-5.98,12.04-12.01,18.04-18.03
		c1.76-1.76,3.62-3.46,5.14-5.42c1.75-2.26,1.55-4.76-0.49-6.77c-1.91-1.87-4.23-2.1-6.5-0.54c-0.93,0.63-1.75,1.44-2.54,2.23
		C296.35,229.75,290.28,235.86,283.82,242.35z"/>
</g>
</svg>
