<?xml version="1.0" encoding="utf-8"?>
<!-- Generator: Adobe Illustrator 28.0.0, SVG Export Plug-In . SVG Version: 6.00 Build 0)  -->
<svg version="1.1" id="Capa_1" xmlns="http://www.w3.org/2000/svg" xmlns:xlink="http://www.w3.org/1999/xlink" x="0px" y="0px"
	 viewBox="0 0 600 600" style="enable-background:new 0 0 600 600;" xml:space="preserve">
<style type="text/css">
	.st0{fill:#043A53;}
	.st1{fill:#C5D9E8;}
	.st2{fill:#EAECEE;}
	.st3{clip-path:url(#SVGID_00000171688974664473485500000004352033999068310916_);}
	.st4{clip-path:url(#SVGID_00000091704371356213938050000002115376543012088482_);}
	.st5{clip-path:url(#SVGID_00000158731285716614364230000013945022373937588122_);}
	.st6{clip-path:url(#SVGID_00000023257504013430674000000005257411209485846681_);}
	.st7{fill:#F3F5F8;}
	.st8{fill:#D6DCE6;}
	.st9{opacity:0.5;fill:#F3F5F8;enable-background:new    ;}
	.st10{fill:url(#SVGID_00000040547838142388563110000012153103758717049488_);}
	.st11{fill:url(#SVGID_00000065035070870145945830000001673192258883716010_);}
	.st12{fill:url(#SVGID_00000044145305222258858060000005754204401160003256_);}
	.st13{fill:url(#SVGID_00000105417908681991215480000009249321415883042179_);}
	.st14{fill:url(#SVGID_00000070838856553794400050000008916952237327716999_);}
	.st15{fill:#FFFFFF;}
	.st16{opacity:0.48;fill:#FFFFFF;enable-background:new    ;}
	.st17{fill:url(#SVGID_00000021837397212852357180000012674925778012836486_);}
	.st18{fill:url(#SVGID_00000156589881142693104940000009212386545998084745_);}
	.st19{opacity:0.5;}
	.st20{clip-path:url(#SVGID_00000067917476416988128620000016792238731199909785_);}
	.st21{fill:url(#SVGID_00000043449434496073844730000015311338421759824298_);}
	.st22{opacity:0.7;fill:url(#SVGID_00000170994143763072165830000007134042774092035500_);enable-background:new    ;}
	.st23{fill:url(#SVGID_00000121977942631045340230000010507103926545941911_);}
	.st24{fill:url(#SVGID_00000154399930810575036930000017944396407018881414_);}
	.st25{fill:url(#SVGID_00000139288245168074967200000014082706484807265970_);}
	.st26{fill:url(#SVGID_00000029763154821142776950000017291405978220359578_);}
	.st27{fill:url(#SVGID_00000052800538736255363780000006342629745883026584_);}
	.st28{fill:url(#SVGID_00000038379100284233905150000010755442389000343461_);}
	.st29{clip-path:url(#SVGID_00000139285616817655423880000014365149311978602139_);}
	.st30{fill:url(#SVGID_00000117662649530317060700000001523354188316502154_);}
	.st31{fill:url(#SVGID_00000035530166828058956690000008161990694090197940_);}
	.st32{fill:url(#SVGID_00000099658079713929836090000008408667028302717843_);}
	.st33{fill:url(#SVGID_00000109752633812302798560000011195996410540722823_);}
	.st34{fill:url(#SVGID_00000140011144618640678170000005900881883618877855_);}
	.st35{fill:url(#SVGID_00000016761983375472356950000013411720693737566085_);}
	.st36{fill:url(#SVGID_00000111893437579702231980000013406312410211489686_);}
	.st37{opacity:0.3;}
	.st38{fill:url(#SVGID_00000021810927215653704180000010627666850351050890_);}
	.st39{fill:url(#SVGID_00000136388731645202505310000000534758385241954182_);}
	.st40{clip-path:url(#SVGID_00000182490490670327356500000016956791259727317406_);}
	.st41{fill:url(#SVGID_00000145773025495652500340000006845689732174685080_);}
	.st42{fill:url(#SVGID_00000174602066153483687350000014259185597169981357_);}
	.st43{fill:url(#SVGID_00000172405576311310734440000011907239744133939104_);}
	.st44{fill:url(#SVGID_00000170273796929862785290000004440160157960414607_);}
	.st45{fill:url(#SVGID_00000011720318409717375850000014505186838661882029_);}
	.st46{fill:url(#SVGID_00000119802785163654405810000015473705981488462223_);}
	.st47{fill:url(#SVGID_00000111176206103639885580000005959382464264558520_);}
	.st48{fill:url(#SVGID_00000158736162140685600080000013868755858594856837_);}
	.st49{fill:url(#SVGID_00000042006866046165311940000001492640062049479826_);}
	.st50{fill:#00A489;}
	.st51{fill:url(#SVGID_00000183968262677367387620000000871650725638818968_);}
	.st52{fill:#A2C1DB;}
	.st53{opacity:0.5;fill:#FFFFFF;}
	.st54{fill:#96B3C7;}
	.st55{opacity:0.87;fill:#FFFFFF;}
	.st56{fill:url(#SVGID_00000110431268760628294230000011749145700264461247_);}
	.st57{fill:url(#SVGID_00000032641405501492355340000004517871815657942167_);}
	.st58{fill:url(#SVGID_00000088821280555227078980000016718483361095043219_);}
	.st59{fill:url(#SVGID_00000088821029812521989740000002942929952513059480_);}
	.st60{fill:url(#SVGID_00000143575616651321369620000014340713985644826039_);}
	.st61{fill:url(#SVGID_00000064338484964739367360000000170116298338354878_);}
	.st62{fill:url(#SVGID_00000166641306248226838430000013279366261024917682_);}
	.st63{fill:url(#SVGID_00000133499665014812704170000015745419198090325145_);}
	.st64{fill:url(#SVGID_00000091698601265618673950000011428174545841310140_);}
	.st65{fill:url(#SVGID_00000098926797220976537950000006981704970072562335_);}
	.st66{fill:url(#SVGID_00000117635173456487151560000002267952248305008544_);}
	.st67{fill:url(#SVGID_00000112631000900259573300000011702482317598168738_);}
	.st68{fill:url(#SVGID_00000052812430494959799600000014861873532097649291_);}
	.st69{fill:url(#SVGID_00000098902551748806604670000014443611721745143943_);}
	.st70{fill:url(#SVGID_00000120534633889976696800000012590037103900986496_);}
	.st71{fill:url(#SVGID_00000041292133864382122410000004343619388635828866_);}
	.st72{fill:url(#SVGID_00000160879625986394406260000008644295597579174025_);}
	.st73{fill:url(#SVGID_00000038372758422748754050000009176298358700581551_);}
	.st74{fill:url(#SVGID_00000095339728889618961460000000849157436777023621_);}
	.st75{fill:url(#SVGID_00000104686642965663166610000010654611040902792620_);}
	.st76{fill:url(#SVGID_00000152252013124877422960000011189691729195289510_);}
	.st77{fill:url(#SVGID_00000008134391256491976910000011921108885001446310_);}
	.st78{fill:url(#SVGID_00000101799484341052734100000012867063310348592525_);}
	.st79{fill:url(#SVGID_00000117671412436748102390000017224370366661304725_);}
	.st80{fill:url(#SVGID_00000088125256746364923900000014386938368939766702_);}
	.st81{fill:url(#SVGID_00000049221744922920666400000018034412615219334285_);}
	.st82{fill:url(#SVGID_00000158719512057286920640000016455101290274448303_);}
	.st83{fill:url(#SVGID_00000076576026346229741380000012930968217260154781_);}
	.st84{fill:url(#SVGID_00000077300418377678438000000007710158654916559748_);}
	.st85{fill:url(#SVGID_00000105390771267417611420000007096129057239768234_);}
	.st86{fill:url(#SVGID_00000077309128892467594910000003425426008190982546_);}
	.st87{fill:url(#SVGID_00000041290946822539988480000014174229899476312738_);}
	.st88{fill:url(#SVGID_00000052095351739146823850000012729137840000946058_);}
	.st89{fill:url(#SVGID_00000144315886732216844140000001104111496608405392_);}
	.st90{fill:url(#SVGID_00000038401182110983552450000002276126824722949297_);}
	.st91{fill:url(#SVGID_00000172398150319487141180000012767183923241325476_);}
	.st92{fill:url(#SVGID_00000059994461938198807570000009566974674173054865_);}
	.st93{fill:url(#SVGID_00000121261040174314736140000000805006785707721090_);}
	.st94{fill:url(#SVGID_00000059272173568855696660000000476526038746269372_);}
	.st95{fill:url(#SVGID_00000078734810640262554820000008512018251327041722_);}
	.st96{fill:url(#SVGID_00000085931393832315325740000016659836785481017998_);}
	.st97{fill:url(#SVGID_00000052790195660258355610000018298507241608828094_);}
	.st98{fill:url(#SVGID_00000157283742771428073760000006228964824668692105_);}
	.st99{fill:url(#SVGID_00000129178528190473078230000016655645070993967778_);}
	.st100{fill:url(#SVGID_00000178181855945191035620000010074110116239131023_);}
	.st101{filter:url(#Adobe_OpacityMaskFilter);}
	.st102{filter:url(#Adobe_OpacityMaskFilter_00000026161764756439636850000013148489017176003220_);}
	
		.st103{mask:url(#SVGID_00000044153595912164739160000015882753708874026895_);fill:url(#SVGID_00000113352047320661214520000002867202720140907692_);}
	.st104{fill:url(#SVGID_00000067956977042823035350000003191279078788242617_);}
	.st105{fill:url(#SVGID_00000118398142808449564760000013707974416933115065_);}
	.st106{fill:url(#SVGID_00000027563216774880772420000013437724395707107461_);}
	.st107{fill:url(#SVGID_00000023253750343652870150000001324690749551374264_);}
	.st108{fill:url(#SVGID_00000001644748486314690410000009716148734910249130_);}
	.st109{fill:url(#SVGID_00000171685397543160315790000015618116048671613327_);}
	.st110{fill:url(#SVGID_00000101825577570301931320000001041334381442517651_);}
	.st111{clip-path:url(#SVGID_00000114754539524821181830000015553435895969187213_);}
	.st112{clip-path:url(#SVGID_00000031201873632930254670000013354284639878854272_);}
	.st113{fill:#E9EBED;}
	.st114{clip-path:url(#SVGID_00000117678414337853797660000002230594103779021238_);}
	.st115{clip-path:url(#SVGID_00000098919939160729829210000007058767330495185050_);}
	.st116{clip-path:url(#SVGID_00000139987353609171100910000002769977306564676025_);}
	.st117{fill:#F2F4F7;}
	.st118{fill:#D5DBE5;}
	.st119{opacity:0.5;fill:#F2F4F7;enable-background:new    ;}
	.st120{fill:url(#SVGID_00000062915282898277492400000004352026593113285793_);}
	.st121{fill:url(#SVGID_00000107589022934438480170000012112574209099451037_);}
	.st122{fill:url(#SVGID_00000104663701693386992560000012417603537436884666_);}
	.st123{fill:url(#SVGID_00000065787415433800522560000012250651894883940535_);}
	.st124{fill:url(#SVGID_00000084492533369471080670000013362783459486509228_);}
	.st125{fill:url(#SVGID_00000135681008922647377330000004447216367502033287_);}
	.st126{fill:url(#SVGID_00000031189955145689666320000018088590031137119892_);}
	.st127{clip-path:url(#SVGID_00000012441215522988756900000013562875386215174314_);}
	.st128{fill:url(#SVGID_00000179644333563386849940000005654800113986373817_);}
	.st129{opacity:0.7;fill:url(#SVGID_00000137854458887799501860000007969541918237845669_);enable-background:new    ;}
	.st130{fill:url(#SVGID_00000049196409980970184580000015495850879537768580_);}
	.st131{fill:url(#SVGID_00000034800461652335770890000005901831138071227535_);}
	.st132{fill:url(#SVGID_00000054955257566417870250000009666091590229514635_);}
	.st133{fill:url(#SVGID_00000015347044721936539930000006810590279103794564_);}
	.st134{fill:url(#SVGID_00000067925894499044498160000012461475780791027606_);}
	.st135{fill:url(#SVGID_00000057837668202720172750000000988949576136367508_);}
	.st136{clip-path:url(#SVGID_00000147220158053339358800000001227179456681727911_);}
	.st137{fill:url(#SVGID_00000022530312595092971880000011927998651113621663_);}
	.st138{fill:url(#SVGID_00000069397150517963518660000016070695002068787372_);}
	.st139{fill:url(#SVGID_00000156568748228711004990000018368485747297143699_);}
	.st140{fill:url(#SVGID_00000116947125843483376610000016141568256976062103_);}
	.st141{fill:url(#SVGID_00000119081230859738879220000012781569195586613167_);}
	.st142{fill:url(#SVGID_00000173851874968509795750000014497048131380893596_);}
	.st143{fill:url(#SVGID_00000124148245294772796520000009733609852882646412_);}
	.st144{fill:url(#SVGID_00000107575809090302024130000017893942886001857717_);}
	.st145{fill:url(#SVGID_00000097500804603558697470000002795078532786660494_);}
	.st146{clip-path:url(#SVGID_00000046341391460554112030000011490191769587840919_);}
	.st147{fill:url(#SVGID_00000121273781098374537590000018178772965071808927_);}
	.st148{fill:url(#SVGID_00000169530695385813840350000000730766044477996977_);}
	.st149{fill:url(#SVGID_00000172404009629895779470000001688782867864779933_);}
	.st150{fill:url(#SVGID_00000025400814089177968930000007487003274356873602_);}
	.st151{fill:url(#SVGID_00000179635232900300727540000013399360641211040924_);}
	.st152{fill:url(#SVGID_00000078767322745624784360000010641645122843426199_);}
	.st153{fill:url(#SVGID_00000164488153934095493680000013005432669112100281_);}
	.st154{fill:url(#SVGID_00000105422958835048365020000011851098891203699862_);}
	.st155{fill:url(#SVGID_00000070827628753406438030000003827783242239003025_);}
	.st156{fill:#02B47B;}
	.st157{fill:#DADAE4;}
	.st158{fill:#009D82;}
</style>
<g>
	<path class="st50" d="M301.36,367.95H142.82c-2.32,0-4.3-0.83-5.93-2.5c-1.64-1.66-2.46-3.67-2.46-6.03s0.82-4.36,2.46-6.03
		c1.64-1.66,3.62-2.5,5.93-2.5h158.54c2.32,0,4.3,0.83,5.93,2.5c1.64,1.66,2.46,3.67,2.46,6.03s-0.82,4.36-2.46,6.03
		C305.65,367.12,303.67,367.95,301.36,367.95z M143.48,305.18h97.07c2.32,0,4.3,0.83,5.93,2.5c1.64,1.66,2.46,3.67,2.46,6.03
		c0,2.35-0.82,4.36-2.46,6.03c-1.64,1.66-3.62,2.5-5.93,2.5h-97.07c-2.32,0-4.3-0.83-5.93-2.5c-1.64-1.66-2.46-3.67-2.46-6.03
		c0-2.35,0.82-4.36,2.46-6.03C139.18,306.01,141.16,305.18,143.48,305.18L143.48,305.18z M295.81,299.59
		c-8.28,0.06-16.13-1.78-23.56-5.51c-15.18-8.01-23.37-20.68-24.57-38.01c-35.3-0.06-70.61,0-105.91,0.18
		c-4.41-0.15-8.67,0.61-12.77,2.28c-4.1,1.67-7.69,4.11-10.77,7.32c-3.08,3.21-5.4,6.92-6.94,11.12c-1.54,4.2-2.18,8.54-1.92,13.02
		c-0.17,31.65-0.17,63.28,0,94.88c-0.23,4.47,0.43,8.8,2,12.98s3.9,7.87,7,11.06c3.1,3.19,6.7,5.6,10.8,7.24
		c4.1,1.64,8.36,2.37,12.76,2.19c5.76,0.11,11.58,0.22,17.34,0c3.15-0.43,5.99,0.34,8.5,2.32c2.32,2.76,3.29,5.94,2.91,9.54
		c-0.29,22.84-0.9,43.75-1.06,48.19c10.01-8.5,19.18-17.83,27.53-28.02c7.38-9.03,16.34-16.59,24.39-25
		c4.5-5.14,10.13-7.53,16.9-7.16c21.88,0.4,43.7,0.28,65.57,0.11c4.48,0.31,8.83-0.33,13.04-1.94c4.21-1.6,7.9-4.02,11.08-7.25
		c3.18-3.23,5.55-6.98,7.12-11.26c1.57-4.28,2.2-8.69,1.88-13.25c0.16-28.3,0.16-56.62,0-84.95c-7.5,0.11-15.05,0.11-22.55,0
		C308.34,299.7,302.07,299.65,295.81,299.59z M457.15,182.4H298.61c-2.32,0-4.3-0.83-5.93-2.5c-1.64-1.66-2.46-3.67-2.46-6.03
		s0.82-4.36,2.46-6.03c1.64-1.66,3.62-2.5,5.93-2.5h158.55c2.32,0,4.3,0.83,5.93,2.5c1.64,1.66,2.46,3.67,2.46,6.03
		s-0.82,4.36-2.46,6.03C461.45,181.56,459.47,182.4,457.15,182.4z M400.53,227.56h-97.07c-2.32,0-4.3-0.83-5.93-2.5
		c-1.64-1.66-2.46-3.67-2.46-6.03c0-2.35,0.82-4.36,2.46-6.03c1.64-1.66,3.62-2.5,5.93-2.5h97.07c2.32,0,4.3,0.83,5.93,2.5
		c1.64,1.66,2.46,3.67,2.46,6.03c0,2.35-0.82,4.36-2.46,6.03C404.83,226.73,402.85,227.56,400.53,227.56z M458.23,121.81
		c-54.33-0.28-108.64-0.28-162.93,0c-4.41-0.22-8.68,0.48-12.8,2.11c-4.12,1.63-7.73,4.04-10.83,7.23c-3.1,3.2-5.43,6.89-6.98,11.09
		c-1.55,4.2-2.18,8.54-1.91,13.02c-0.17,28.3-0.11,56.59,0,84.88v10.06c0,1.96,0.15,3.91,0.45,5.85
		c2.24,17.22,14.43,27.67,32.67,27.84c13.6,0.06,27.19,0.17,40.79,0.11c5.32,0,10.57-0.06,15.88-0.11c2.97,0,5.93-0.06,8.9-0.11
		c6.78-0.38,12.43,2,16.95,7.15c8,8.41,17.01,15.97,24.34,25c8.36,10.16,17.53,19.5,27.53,28c-0.11-4.49-0.79-25.34-1.06-48.18
		c-0.36-3.61,0.63-6.79,2.96-9.54c2.49-2.02,5.3-2.79,8.45-2.34c5.76,0.23,11.58,0.11,17.34,0c4.41,0.18,8.67-0.54,12.77-2.18
		c4.11-1.64,7.71-4.05,10.81-7.24c3.1-3.18,5.44-6.87,7.01-11.06c1.57-4.19,2.25-8.52,2.02-12.99c0.17-31.59,0.17-63.22,0-94.88
		c0.26-4.48-0.38-8.82-1.92-13.02c-1.54-4.2-3.86-7.91-6.94-11.12c-3.08-3.21-6.67-5.65-10.77-7.32
		C466.9,122.42,462.64,121.66,458.23,121.81z"/>
</g>
</svg>
