<?xml version="1.0" encoding="utf-8"?>
<!-- Generator: Adobe Illustrator 25.0.1, SVG Export Plug-In . SVG Version: 6.00 Build 0)  -->
<svg version="1.0" id="Layer_1" xmlns="http://www.w3.org/2000/svg" xmlns:xlink="http://www.w3.org/1999/xlink" x="0px" y="0px"
	 viewBox="0 0 646.9 488.5" style="enable-background:new 0 0 646.9 488.5;" xml:space="preserve">
<style type="text/css">
	.st0{fill:#FFFFFF;stroke:#FFFFFF;stroke-width:5;stroke-miterlimit:10;}
	.st1{fill:#326DE6;}
	.st2{fill:#FFFFFF;}
	.st3{fill:#1D1D1B;}
</style>
<g id="Layer_2">
	<g id="Layer_1-2">
		<path class="st0" d="M154.2,220.8c-0.5-1.6-1.7-2.9-3.2-3.7l-30.5-14.6c-0.8-0.4-1.7-0.5-2.5-0.5c-0.8,0-1.7,0-2.5,0.2L85,216.9
			c-1.5,0.7-2.6,2-3,3.7l-7.5,32.9c-0.3,1.7,0.1,3.4,1.1,4.8l21.1,26.1c1.2,1.2,2.9,2,4.6,2.1h33.6c1.8,0.2,3.5-0.6,4.6-2.1
			l21.1-26.1c1-1.4,1.4-3.1,1.2-4.8L154.2,220.8z"/>
		<path class="st1" d="M154.2,220.8c-0.5-1.6-1.7-2.9-3.2-3.7l-30.5-14.6c-0.8-0.4-1.7-0.5-2.5-0.5c-0.8,0-1.7,0-2.5,0.2L85,216.9
			c-1.5,0.7-2.6,2-3,3.7l-7.5,32.9c-0.3,1.7,0.1,3.4,1.1,4.8l21.1,26.1c1.2,1.2,2.9,2,4.6,2.1h33.6c1.8,0.2,3.5-0.6,4.6-2.1
			l21.1-26.1c1-1.4,1.4-3.1,1.2-4.8L154.2,220.8z"/>
		<path class="st2" d="M149.5,252.2L149.5,252.2c-0.1,0-0.2,0-0.2-0.1c0-0.1-0.2-0.1-0.4-0.1c-0.4-0.1-0.8-0.1-1.2-0.1
			c-0.2,0-0.4,0-0.6-0.1H147c-1.1-0.1-2.3-0.3-3.4-0.6c-0.3-0.1-0.6-0.4-0.7-0.7c0.1,0,0,0,0,0l0,0l-0.8-0.2
			c0.4-2.9,0.2-5.9-0.4-8.8c-0.7-2.9-1.9-5.7-3.5-8.2l0.6-0.6l0,0v-0.1c0-0.3,0.1-0.7,0.3-0.9c0.9-0.8,1.8-1.4,2.8-2l0,0
			c0.2-0.1,0.4-0.2,0.6-0.3c0.4-0.2,0.7-0.4,1.1-0.6c0.1-0.1,0.2-0.1,0.3-0.2c0.1-0.1,0-0.1,0-0.2l0,0c0.9-0.7,1.1-1.9,0.4-2.8
			c-0.3-0.4-0.9-0.7-1.4-0.7s-1,0.2-1.4,0.5l0,0l-0.1,0.1c-0.1,0.1-0.2,0.2-0.3,0.2c-0.3,0.3-0.6,0.6-0.8,0.9
			c-0.1,0.2-0.3,0.3-0.4,0.4l0,0c-0.7,0.8-1.6,1.6-2.5,2.2c-0.2,0.1-0.4,0.2-0.6,0.2c-0.1,0-0.3,0-0.4-0.1h-0.1l-0.8,0.5
			c-0.8-0.8-1.7-1.6-2.5-2.4c-3.7-2.9-8.3-4.7-13-5.2l-0.1-0.8l0,0l0,0.1c-0.3-0.2-0.4-0.5-0.5-0.8c0-1.1,0-2.2,0.2-3.4v-0.1
			c0-0.2,0.1-0.4,0.1-0.6c0.1-0.4,0.1-0.8,0.2-1.2v-0.6l0,0c0.1-1-0.7-2-1.7-2.1c-0.6-0.1-1.2,0.2-1.7,0.7c-0.4,0.4-0.6,0.9-0.6,1.4
			l0,0v0.5c0,0.4,0.1,0.8,0.2,1.2c0.1,0.2,0.1,0.4,0.1,0.6v0.1c0.2,1.1,0.2,2.2,0.2,3.4c-0.1,0.3-0.2,0.6-0.5,0.8v0.2l0,0l-0.1,0.8
			c-1.1,0.1-2.2,0.3-3.4,0.5c-4.7,1-9,3.5-12.3,7l-0.6-0.4h-0.1c-0.1,0-0.2,0.1-0.4,0.1s-0.4-0.1-0.6-0.2c-0.9-0.7-1.8-1.5-2.5-2.3
			l0,0c-0.1-0.2-0.3-0.3-0.4-0.4c-0.3-0.3-0.5-0.6-0.8-0.9c-0.1-0.1-0.2-0.1-0.3-0.2c-0.1-0.1-0.1-0.1-0.1-0.1l0,0
			c-0.4-0.3-0.9-0.5-1.4-0.5c-0.6,0-1.1,0.2-1.4,0.7c-0.6,0.9-0.4,2.1,0.4,2.8l0,0c0.1,0,0.1,0.1,0.1,0.1s0.2,0.2,0.3,0.2
			c0.3,0.2,0.7,0.4,1.1,0.6c0.2,0.1,0.4,0.2,0.6,0.3l0,0c1,0.6,2,1.2,2.8,2c0.2,0.2,0.4,0.6,0.3,0.9v-0.1l0,0l0.6,0.6
			c-0.1,0.2-0.2,0.3-0.3,0.5c-3.1,4.9-4.4,10.7-3.5,16.4l-0.8,0.2l0,0c0,0.1-0.1,0.1-0.1,0.1c-0.1,0.3-0.4,0.5-0.7,0.7
			c-1.1,0.3-2.2,0.5-3.4,0.6l0,0c-0.2,0-0.4,0-0.6,0.1c-0.4,0-0.8,0.1-1.2,0.1c-0.1,0-0.2,0.1-0.4,0.1c-0.1,0-0.1,0-0.2,0.1l0,0
			c-1.1,0.2-1.8,1.2-1.6,2.3l0,0c0.2,0.9,1.1,1.5,2,1.4c0.2,0,0.3,0,0.5-0.1l0,0c0.1,0,0.1,0,0.1-0.1c0-0.1,0.3,0,0.4,0
			c0.4-0.1,0.8-0.3,1.1-0.4c0.2-0.1,0.4-0.2,0.6-0.2h0.1c1.1-0.4,2.1-0.7,3.3-0.9h0.1c0.3,0,0.6,0.1,0.8,0.3c0.1,0,0.1,0.1,0.1,0.1
			l0,0l0.9-0.1c1.5,4.6,4.3,8.7,8.2,11.7c0.9,0.7,1.7,1.3,2.7,1.8l-0.5,0.7l0,0c0,0.1,0.1,0.1,0.1,0.1c0.2,0.3,0.2,0.7,0.1,1
			c-0.4,1-1,2-1.6,2.9v0.1c-0.1,0.2-0.2,0.3-0.4,0.5c-0.2,0.2-0.4,0.6-0.7,1c-0.1,0.1-0.1,0.2-0.2,0.3c0,0,0,0.1-0.1,0.1l0,0
			c-0.5,1-0.1,2.2,0.8,2.7c0.2,0.1,0.5,0.2,0.7,0.2c0.8,0,1.5-0.5,1.9-1.2l0,0c0,0,0-0.1,0.1-0.1c0-0.1,0.1-0.2,0.2-0.3
			c0.1-0.4,0.3-0.7,0.4-1.1l0.2-0.6l0,0c0.3-1.1,0.8-2.1,1.3-3.1c0.2-0.3,0.5-0.5,0.8-0.6c0.1,0,0.1,0,0.1-0.1l0,0l0.4-0.8
			c2.8,1.1,5.7,1.6,8.7,1.6c1.8,0,3.6-0.2,5.4-0.7c1.1-0.2,2.2-0.6,3.2-0.9l0.4,0.7l0,0c0.1,0,0.1,0,0.1,0.1
			c0.3,0.1,0.6,0.3,0.8,0.6c0.5,1,1,2,1.3,3.1v0.1l0.2,0.6c0.1,0.4,0.2,0.8,0.4,1.1c0.1,0.1,0.1,0.2,0.2,0.3c0,0,0,0.1,0.1,0.1l0,0
			c0.4,0.7,1.1,1.2,1.9,1.2c0.3,0,0.5-0.1,0.8-0.2c0.4-0.2,0.8-0.6,0.9-1.1c0.1-0.5,0.1-1-0.1-1.5l0,0c0-0.1-0.1-0.1-0.1-0.1
			c0-0.1-0.1-0.2-0.2-0.3c-0.2-0.4-0.4-0.7-0.7-1c-0.1-0.2-0.2-0.3-0.4-0.5v-0.2c-0.7-0.9-1.2-1.9-1.6-2.9c-0.1-0.3-0.1-0.7,0.1-1
			c0-0.1,0.1-0.1,0.1-0.1l0,0l-0.3-0.8c5.1-3.1,9-7.9,10.8-13.6l0.8,0.1l0,0c0.1,0,0.1-0.1,0.1-0.1c0.2-0.2,0.5-0.3,0.8-0.3h0.1
			c1.1,0.2,2.2,0.5,3.2,0.9h0.1c0.2,0.1,0.4,0.2,0.6,0.2c0.4,0.2,0.7,0.4,1.1,0.5c0.1,0,0.2,0.1,0.4,0.1c0.1,0,0.1,0,0.2,0.1l0,0
			c0.2,0.1,0.3,0.1,0.5,0.1c0.9,0,1.7-0.6,2-1.4C151.2,253.2,150.4,252.4,149.5,252.2z M120.6,249.1l-2.7,1.3l-2.7-1.3l-0.7-2.9
			l1.9-2.4h3l1.9,2.4L120.6,249.1z M136.9,242.6c0.5,2.1,0.6,4.2,0.4,6.3l-9.5-2.7l0,0c-0.9-0.2-1.4-1.1-1.2-2
			c0.1-0.3,0.2-0.5,0.4-0.7l7.5-6.8C135.6,238.5,136.4,240.5,136.9,242.6z M131.5,233l-8.2,5.8c-0.7,0.4-1.7,0.3-2.2-0.4
			c-0.2-0.2-0.3-0.4-0.3-0.7l-0.6-10.1C124.6,228.1,128.5,230,131.5,233L131.5,233z M113.4,227.9l2-0.4l-0.5,10l0,0
			c0,0.9-0.8,1.6-1.7,1.6c-0.3,0-0.5-0.1-0.8-0.2l-8.3-5.9C106.7,230.5,109.9,228.7,113.4,227.9z M101.2,236.7l7.4,6.6l0,0
			c0.7,0.6,0.8,1.6,0.2,2.3c-0.2,0.3-0.4,0.4-0.8,0.5l-9.7,2.8C98,244.7,99,240.4,101.2,236.7z M99.5,253.6l9.9-1.7
			c0.8,0,1.6,0.5,1.7,1.3c0.1,0.3,0.1,0.7-0.1,1l0,0l-3.8,9.2C103.7,261.1,100.9,257.6,99.5,253.6z M122.2,266
			c-1.4,0.3-2.8,0.5-4.3,0.5c-2.1,0-4.3-0.4-6.3-1l4.9-8.9c0.5-0.6,1.3-0.8,2-0.4c0.3,0.2,0.5,0.4,0.8,0.7l0,0l4.8,8.7
			C123.5,265.7,122.9,265.8,122.2,266z M134.4,257.3c-1.5,2.4-3.6,4.5-6,6l-3.9-9.4c-0.2-0.8,0.2-1.6,0.9-1.9
			c0.3-0.1,0.6-0.2,0.9-0.2l10,1.7C135.8,254.9,135.2,256.2,134.4,257.3z"/>
		<g id="layer1">
			<g id="text4373">
				<path id="path2985" class="st3" d="M200,247.9c1.1-1.2,2.1-2.4,3.3-3.6c1.1-1.3,2.2-2.5,3.3-3.7c1.1-1.3,2.1-2.4,3-3.5
					c0.9-1.1,1.8-2.1,2.5-2.9h12.8c-2.6,2.9-5.1,5.8-7.5,8.5c-2.5,2.7-5.1,5.5-8,8.3c1.6,1.5,3.1,3,4.5,4.7c1.5,1.8,3,3.6,4.5,5.6
					c1.4,1.9,2.8,3.9,4,5.8s2.2,3.7,3,5.3H213c-0.8-1.3-1.7-2.6-2.7-4.1s-2.1-3-3.1-4.6c-1.1-1.5-2.3-3-3.6-4.4
					c-1.1-1.3-2.3-2.5-3.6-3.5v16.7h-10.8v-54.8L200,216L200,247.9"/>
				<path id="path2987" class="st3" d="M263,270.9c-2.3,0.6-4.7,1.1-7.1,1.4c-3,0.5-6.1,0.7-9.1,0.7c-2.8,0.1-5.5-0.4-8.1-1.3
					c-2-0.8-3.7-2-5.1-3.6c-1.3-1.7-2.2-3.6-2.7-5.7c-0.6-2.3-0.8-4.8-0.8-7.2v-21.1h10.8V254c0,3.5,0.5,6,1.4,7.5s2.6,2.3,5.1,2.3
					c0.8,0,1.6,0,2.5-0.1c0.9-0.1,1.6-0.1,2.3-0.3v-29.3H263V270.9"/>
				<path id="path2989" class="st3" d="M297.6,252.9c0-7-2.6-10.4-7.7-10.4c-1.1,0-2.2,0.1-3.3,0.4c-0.9,0.2-1.8,0.6-2.6,1.1v19.6
					c0.5,0.1,1.2,0.2,2,0.3c0.8,0.1,1.7,0.1,2.7,0.1c2.6,0.2,5.1-0.9,6.7-3C296.9,258.6,297.7,255.8,297.6,252.9 M308.6,253.3
					c0,2.8-0.4,5.6-1.4,8.3c-0.8,2.4-2.1,4.5-3.8,6.3c-1.8,1.8-3.9,3.2-6.2,4.1c-2.7,1-5.5,1.4-8.4,1.4c-1.3,0-2.7-0.1-4.1-0.2
					c-1.4-0.1-2.8-0.3-4.2-0.4c-1.3-0.2-2.6-0.4-3.9-0.7c-1.3-0.2-2.4-0.5-3.3-0.9v-53.5l10.8-1.7v19c1.2-0.5,2.5-0.9,3.8-1.2
					c1.4-0.3,2.8-0.4,4.2-0.4c2.5,0,4.9,0.4,7.2,1.5c2,0.9,3.8,2.3,5.2,4c1.5,1.9,2.6,4,3.2,6.3
					C308.3,247.7,308.6,250.5,308.6,253.3"/>
				<path id="path2991" class="st3" d="M315.1,253.5c-0.1-3,0.5-6,1.5-8.8c0.9-2.4,2.3-4.5,4.1-6.4c1.7-1.7,3.6-3,5.8-3.8
					c2.2-0.9,4.5-1.3,6.8-1.3c5.4,0,9.7,1.7,12.8,5c3.1,3.3,4.7,8.2,4.7,14.5c0,0.6,0,1.3-0.1,2.1s-0.1,1.4-0.1,2h-24.5
					c0.2,2.1,1.3,4.1,3.1,5.3c2.2,1.4,4.8,2.1,7.4,2c1.9,0,3.9-0.2,5.8-0.5c1.6-0.3,3.2-0.8,4.7-1.4l1.5,8.8
					c-0.7,0.4-1.5,0.6-2.3,0.9c-1.1,0.3-2.2,0.6-3.3,0.7c-1.2,0.2-2.4,0.4-3.8,0.6c-1.3,0.1-2.7,0.2-4.1,0.2c-3.1,0.1-6.1-0.4-9-1.5
					c-2.4-0.9-4.5-2.3-6.3-4.1c-1.7-1.8-2.9-4-3.7-6.3C315.5,258.8,315.1,256.2,315.1,253.5 M340.5,249.4c0-0.9-0.2-1.8-0.5-2.7
					c-0.2-0.9-0.7-1.6-1.2-2.3c-0.6-0.7-1.3-1.3-2.1-1.7c-1-0.5-2-0.7-3.1-0.7s-2.1,0.2-3.1,0.7c-0.8,0.4-1.6,0.9-2.2,1.6
					s-1.1,1.5-1.4,2.4c-0.3,0.9-0.5,1.8-0.6,2.7H340.5"/>
				<path id="path2993" class="st3" d="M382.2,243.7c-1-0.2-2.1-0.5-3.4-0.7c-1.4-0.3-2.8-0.4-4.2-0.4c-0.8,0-1.6,0.1-2.5,0.2
					c-0.7,0.1-1.4,0.2-2.1,0.4v29.1h-10.8v-36.2c2.2-0.8,4.5-1.4,6.8-1.9c2.9-0.7,5.9-1,8.8-0.9c0.7,0,1.4,0.1,2.1,0.1
					c0.8,0,1.6,0.1,2.5,0.3c0.8,0.1,1.6,0.2,2.5,0.4c0.7,0.1,1.4,0.3,2.1,0.6L382.2,243.7"/>
				<path id="path2995" class="st3" d="M389.8,235.4c2.3-0.6,4.7-1.1,7.1-1.5c3-0.5,6.1-0.7,9.1-0.7c2.7-0.1,5.4,0.4,8,1.3
					c2,0.7,3.8,1.9,5.1,3.5c1.3,1.6,2.2,3.5,2.7,5.5c0.6,2.3,0.8,4.7,0.8,7.1v21.5h-10.7V252c0-3.5-0.5-5.9-1.4-7.4
					c-0.9-1.4-2.6-2.2-5.1-2.2c-0.8,0-1.6,0-2.5,0.1c-0.9,0-1.6,0.1-2.3,0.2v29.4h-10.8L389.8,235.4"/>
				<path id="path2997" class="st3" d="M430.8,253.5c-0.1-3,0.5-6,1.5-8.8c0.9-2.4,2.3-4.5,4.1-6.4c1.7-1.7,3.6-3,5.8-3.8
					c2.2-0.9,4.5-1.3,6.8-1.3c5.4,0,9.7,1.7,12.8,5c3.1,3.3,4.7,8.2,4.7,14.6c0,0.6,0,1.3-0.1,2.1c-0.1,0.8-0.1,1.4-0.1,2h-24.5
					c0.2,2.1,1.3,4.1,3.1,5.3c2.2,1.4,4.8,2.1,7.4,2c1.9,0,3.9-0.2,5.8-0.5c1.6-0.3,3.2-0.8,4.8-1.5l1.5,8.8
					c-0.7,0.4-1.5,0.6-2.3,0.9c-1.1,0.3-2.2,0.6-3.3,0.7c-1.2,0.2-2.4,0.4-3.8,0.6c-1.3,0.1-2.7,0.2-4.1,0.2c-3.1,0.1-6.1-0.4-9-1.5
					c-2.4-0.9-4.5-2.3-6.3-4.1c-1.7-1.8-2.9-4-3.7-6.3C431.1,258.8,430.7,256.1,430.8,253.5 M456.1,249.4c0-0.9-0.2-1.8-0.5-2.7
					c-0.2-0.9-0.7-1.6-1.2-2.3c-0.6-0.7-1.3-1.3-2.1-1.7c-1-0.5-2-0.7-3.1-0.7s-2.1,0.2-3.1,0.7c-0.8,0.4-1.5,0.9-2.1,1.6
					s-1.1,1.5-1.4,2.4c-0.3,0.9-0.5,1.8-0.6,2.7H456.1"/>
				<path id="path2999" class="st3" d="M474.5,224.6l10.8-1.7v11.2h13v9h-13v13.4c-0.1,1.9,0.3,3.8,1.2,5.4c0.8,1.3,2.4,2,4.9,2
					c1.2,0,2.4-0.1,3.5-0.3c1.2-0.2,2.3-0.5,3.4-0.9l1.5,8.4c-1.4,0.6-2.9,1-4.4,1.4c-1.9,0.4-3.9,0.6-5.9,0.6
					c-2.5,0.1-5-0.3-7.3-1.2c-1.8-0.7-3.4-1.9-4.6-3.3c-1.2-1.5-2-3.3-2.5-5.2c-0.5-2.2-0.7-4.5-0.6-6.7V224.6"/>
				<path id="path3001" class="st3" d="M503.8,253.5c-0.1-3,0.5-6,1.5-8.8c0.9-2.4,2.3-4.5,4.1-6.4c1.7-1.7,3.6-3,5.8-3.8
					c2.2-0.9,4.5-1.3,6.8-1.3c5.4,0,9.7,1.7,12.8,5s4.7,8.2,4.7,14.6c0,0.6,0,1.3-0.1,2.1c0,0.8-0.1,1.4-0.1,2h-24.4
					c0.2,2.1,1.3,4.1,3.1,5.3c2.2,1.4,4.8,2.1,7.4,2c1.9,0,3.9-0.2,5.8-0.5c1.6-0.3,3.2-0.8,4.7-1.5l1.5,8.8
					c-0.7,0.4-1.5,0.6-2.3,0.9c-1.1,0.3-2.2,0.6-3.3,0.7c-1.2,0.2-2.4,0.4-3.8,0.6c-1.3,0.1-2.7,0.2-4.1,0.2c-3.1,0.1-6.1-0.4-9-1.5
					c-2.4-0.9-4.5-2.3-6.3-4.1c-1.7-1.8-2.9-4-3.7-6.3C504.2,258.8,503.8,256.1,503.8,253.5 M529.1,249.4c0-0.9-0.2-1.8-0.5-2.7
					c-0.2-0.9-0.7-1.6-1.2-2.3c-0.6-0.7-1.3-1.3-2.1-1.7c-1-0.5-2-0.7-3.1-0.7c-1.1,0-2.1,0.2-3.1,0.7c-0.8,0.4-1.6,0.9-2.2,1.6
					c-0.6,0.7-1.1,1.5-1.4,2.4c-0.3,0.9-0.5,1.8-0.6,2.7H529.1"/>
				<path id="path3003" class="st3" d="M558.9,264.5c1.4,0.1,2.9-0.1,4.2-0.6c0.8-0.4,1.3-1.3,1.2-2.2c-0.1-1-0.7-1.9-1.6-2.2
					c-1.5-0.9-3.2-1.7-4.9-2.2c-1.7-0.6-3.2-1.3-4.6-2c-1.3-0.6-2.4-1.4-3.5-2.4c-1-1-1.7-2.1-2.2-3.4c-0.6-1.5-0.8-3.1-0.8-4.7
					c-0.1-3.3,1.4-6.5,4-8.5c2.7-2.1,6.3-3.1,10.9-3.1c2.2,0,4.5,0.2,6.7,0.7c1.7,0.3,3.4,0.7,5.1,1.3l-1.9,8.5
					c-1.4-0.5-2.7-0.8-4.1-1.2c-1.6-0.4-3.3-0.5-4.9-0.5c-3.4,0-5.1,0.9-5.1,2.8c0,0.4,0.1,0.8,0.2,1.2c0.2,0.4,0.5,0.7,0.9,1
					c0.4,0.3,1,0.6,1.7,1c0.7,0.4,1.7,0.8,2.9,1.2c2,0.7,4,1.6,5.8,2.6c1.4,0.7,2.6,1.6,3.6,2.8c0.9,0.9,1.5,2,1.9,3.3
					c0.4,1.4,0.6,2.8,0.6,4.2c0.2,3.4-1.4,6.7-4.3,8.6c-2.8,1.9-6.8,2.9-12,2.9c-2.9,0.1-5.7-0.2-8.5-0.9c-1.6-0.4-3.1-0.9-4.6-1.4
					l1.8-8.8c1.8,0.7,3.7,1.3,5.6,1.7C555,264.3,556.9,264.5,558.9,264.5"/>
			</g>
		</g>
	</g>
</g>
</svg>
