<?xml version="1.0" encoding="UTF-8"?>
<svg id="Capa_1" data-name="Capa 1" xmlns="http://www.w3.org/2000/svg" viewBox="0 0 700 199.22">
  <defs>
    <style>
      .cls-1 {
        fill: #fff;
        stroke-width: 0px;
      }
    </style>
  </defs>
  <path class="cls-1" d="M54.36,146.05c1.23,0,2.12,0,3,0,15.88,0,31.77-.02,47.65.02,2.01,0,4.06.11,6.01.52,4.42.92,7.19,3.95,7.25,8.48.16,11.67.18,23.35,0,35.03-.08,5.24-3.66,8.36-9.42,8.97-.97.1-1.95.11-2.92.11-31.17,0-62.33,0-93.5,0-1.34,0-2.7-.08-4.02-.32-5.31-.98-8.04-4.13-8.33-9.55-.07-1.27-.08-2.54-.08-3.82C0,122.75,0,76.53,0,13.8c0-1.5-.03-3,.13-4.49C.74,3.53,4.3.29,10.64.17,19.55,0,28.47.07,37.38.11c2.99.01,6.01-.02,8.95.43,4.46.68,6.99,3.44,7.65,7.91.27,1.84.36,3.73.36,5.59.02,48.43.01,80.36.01,128.78v3.23Z"/>
  <path class="cls-1" d="M130.71,127.32c0-19.31,0-38.62,0-57.93,0-1.12,0-2.25.05-3.37.25-6.98,3.45-10.39,10.41-10.5,9.88-.16,19.78-.16,29.66,0,7.02.11,10.41,3.68,10.42,10.71.03,40.71.03,81.42,0,122.14,0,7.04-3.4,10.61-10.41,10.72-9.88.16-19.78.15-29.66,0-6.96-.11-10.35-3.51-10.38-10.48-.1-20.43-.04-40.86-.04-61.29-.02,0-.03,0-.05,0Z"/>
  <path class="cls-1" d="M180.99,26.31c.1,13.56-11.6,25.43-25.03,25.39-13.6-.04-25.15-11.57-25.23-25.21-.08-13.57,11.46-25.26,25.05-25.38,13.47-.12,25.11,11.52,25.21,25.19Z"/>
  <path class="cls-1" d="M240.27,59.15c19.35-8.92,38.68-7.58,57.65.12,17.55,7.12,27.63,21.05,31.54,39.28,1.43,6.67,2,13.63,2.08,20.47.25,22.22.1,44.45.09,66.68,0,.9-.04,1.8-.1,2.69-.53,7.53-3.82,10.71-11.45,10.78-9.44.08-18.88.08-28.31,0-7.77-.07-11.23-3.49-11.26-11.31-.08-22.82-.05-45.65-.03-68.48,0-5.23-1.58-9.7-5.75-13.05-4.25-3.41-8.98-4.09-13.89-1.86-5.06,2.29-8.66,6.01-9.03,11.85-.26,4.1-.09,8.23-.09,12.34,0,18.93,0,37.87,0,56.8,0,1.35,0,2.7-.11,4.04-.48,6.19-3.68,9.49-9.92,9.6-10.33.17-20.67.18-31.01,0-6.37-.12-9.83-3.86-10.09-10.24-.05-1.12-.06-2.24-.06-3.37,0-38.77,0-77.53.02-116.3,0-2.01.11-4.04.47-6.01.75-4.16,3.43-6.49,7.53-7.25,1.17-.22,2.38-.39,3.57-.39,7.86-.04,15.73-.05,23.59-.01,3.16.02,4,.77,4.6,3.64Z"/>
  <path class="cls-1" d="M403.32,87.78c4.63-7.33,9.54-14.51,13.82-22.05,4.23-7.44,10.01-10.8,18.7-10.39,10.61.49,21.27.11,31.91.13,1.27,0,2.56.05,3.79.31,4.71.98,6.37,5.14,3.74,9.23-2.34,3.65-4.7,7.29-7.01,10.96-10.26,16.25-20.5,32.53-30.8,48.76-.92,1.44-1.05,2.43-.09,3.96,12.77,20.33,25.44,40.73,38.15,61.1,2.93,4.69.62,9.17-5.02,9.34-5.84.17-11.68.06-17.53.06-6.22,0-12.44-.14-18.65.04-6.17.18-10.91-2.12-14.2-7.33-5.15-8.16-10.27-16.34-15.41-24.5-.47-.75-.94-1.51-1.68-2.69-.08,1.05-.16,1.66-.16,2.27,0,6.36,0,12.72-.01,19.09,0,1.12,0,2.25-.1,3.36-.57,6-3.78,9.47-9.8,9.62-10.33.25-20.68.25-31.01,0-6.29-.15-9.63-3.91-9.89-10.2-.04-1.05-.06-2.09-.06-3.14,0-57.48,0-114.96.01-172.44,0-1.86.04-3.76.4-5.57.96-4.79,3.8-7.24,8.69-7.54,2.84-.17,5.69-.14,8.54-.14,7.72,0,15.43-.06,23.15.1,6.34.13,9.56,3.4,10.01,9.73.08,1.19.08,2.39.08,3.59,0,23.95,0,47.9,0,71.85v2.4c.15.03.31.06.46.09Z"/>
  <path class="cls-1" d="M543.58,107.8c0,31.51,0-9.27,0,22.24,0,10.09-3.19,13.25-13.34,13.25-9.29,0-18.58,0-27.87,0-1.12,0-2.25,0-3.37-.1-5.79-.54-8.79-3.38-9.59-9.13-.18-1.33-.2-2.69-.2-4.03,0-63.02,0-53.75,0-116.77,0-9.94,3.3-13.25,13.17-13.26,9.44,0,18.88,0,28.32,0,.97,0,1.95,0,2.92.07,5.99.42,9.28,3.62,9.85,9.6.12,1.26.1,2.54.1,3.81,0,31.44,0,62.87,0,94.31Z"/>
  <path class="cls-1" d="M600.72,53.13c-1.26,0-2.14,0-3.03,0-10.19-.02-20.38.04-30.56-.08-6.26-.07-9.85-3.44-9.96-9.72-.19-11.07-.19-22.15,0-33.23.11-6.09,3.59-9.44,9.67-10,1.26-.12,2.54-.1,3.82-.1,38.58,0,77.16,0,115.74,0,10.48,0,13.61,3.15,13.61,13.71,0,8.83,0,17.66,0,26.5,0,1.05,0,2.1-.08,3.14-.51,6.45-3.77,9.65-10.26,9.72-10.56.11-21.12.06-31.69.07-.88,0-1.76,0-2.87,0,0,1.22,0,2.17,0,3.12,0,48.65,0,25-.01,73.65,0,1.71.01,3.46-.3,5.14-.98,5.25-4.11,8.1-9.41,8.16-11.68.13-23.37.13-35.06,0-5.25-.06-8.47-3.13-9.25-8.32-.25-1.69-.33-3.43-.33-5.14-.02-48.57-.01-24.85-.01-73.43v-3.19Z"/>
</svg>