<?xml version="1.0" encoding="UTF-8"?>
<svg id="Capa_1" data-name="Capa 1" xmlns="http://www.w3.org/2000/svg" viewBox="0 0 975 972.78">
  <defs>
    <style>
      .cls-1 {
        fill: #173951;
        stroke-width: 0px;
      }
    </style>
  </defs>
  <path class="cls-1" d="M750.18,490.44c0-44.42-.11-88.83.13-133.25.03-5.63-2.29-8.65-7.18-11.33-48.6-26.6-97.11-53.36-145.64-80.07-34-18.72-68.04-37.39-101.98-56.21-5.01-2.78-9.8-3.63-14.94-.87-20.17,10.81-40.32,21.65-60.47,32.5-31.2,16.8-62.36,33.65-93.58,50.41-31.39,16.85-62.85,33.6-94.26,50.43-4.31,2.31-6.42,5.4-6.4,10.64.21,88.83.16,177.67.13,266.5,0,2.83.08,5.58-.98,8.47-1.43,3.91.71,7.2,4.44,9.21,25.9,13.99,51.83,27.91,77.75,41.85,29.62,15.94,59.24,31.89,88.87,47.83,27.67,14.88,55.36,29.75,83.04,44.62,4.23,2.27,8.56,2.37,12.79.1,18.34-9.84,36.67-19.68,54.96-29.61,36.99-20.08,73.93-40.26,110.94-60.32,28.82-15.62,57.74-31.08,86.53-46.74,3.99-2.17,6.05-5.29,6.02-10.32-.28-44.61-.16-89.22-.16-133.83ZM740.43,620.23c0,3.5-1.03,5.32-4.37,7.12-44.65,24.05-89.16,48.33-133.74,72.49-37.6,20.38-75.26,40.67-112.85,61.07-2.78,1.51-4.89,1.55-7.82-.04-34.63-18.78-69.38-37.37-104.06-56.05-26.1-14.06-52.15-28.21-78.24-42.29-19.28-10.41-38.53-20.89-57.95-31.08-4.08-2.14-5.65-4.42-5.63-8.95.21-44.41.13-88.82.13-133.23s.1-87.66-.15-131.49c-.03-4.68,1.68-7.11,5.69-9.24,42.06-22.36,84.07-44.8,126.08-67.25,38.48-20.56,76.99-41.06,115.31-61.88,3.97-2.16,6.28-1.57,9.76.36,34.15,18.98,68.38,37.82,102.64,56.63,47.13,25.88,94.28,51.71,141.46,77.52,2.69,1.47,3.78,3.08,3.78,6.24-.13,86.7-.13,173.4-.02,260.09Z"/>
  <path class="cls-1" d="M731.74,362.03c0-4.42-1.97-7.02-5.9-9.16-41.14-22.39-82.22-44.88-123.32-67.34-35.48-19.38-70.98-38.75-106.47-58.13-4.4-2.4-8.76-3.69-13.7-1.03-52.76,28.44-105.55,56.82-158.33,85.21-24.57,13.22-49.11,26.47-73.72,39.62-4.77,2.55-7.25,5.46-7.2,11.28.34,42.09.18,84.18.18,126.27s.16,83.8-.17,125.69c-.05,6.53,2.54,10.13,8.21,13.18,25.25,13.56,50.41,27.28,75.51,41.08,50.77,27.92,101.47,55.93,152.2,83.91,4.05,2.23,7.98,2.15,12.07-.13,18.91-10.55,37.87-21.04,56.84-31.49,36.37-20.04,72.8-39.98,109.14-60.08,23.17-12.82,46.19-25.87,69.32-38.76,3.4-1.89,5.34-4.1,5.34-8.16-.1-83.99-.1-167.98-.02-251.96ZM721.88,608.03c0,3.45-1,5.62-4.27,7.41-22.86,12.52-45.61,25.21-68.42,37.81-26.43,14.6-52.91,29.14-79.33,43.75-27.31,15.1-54.59,30.25-81.85,45.44-2.42,1.35-4.45,1.13-6.76-.15-28.55-15.81-57.12-31.6-85.72-47.35-30.16-16.6-60.34-33.17-90.53-49.72-16.04-8.79-32.08-17.59-48.22-26.22-3.13-1.67-3.69-3.83-3.69-6.91.09-40.75.06-81.49.06-122.24s.1-81.11-.13-121.66c-.03-5.04,1.5-7.65,6.29-10.19,34.36-18.16,68.49-36.71,102.7-55.12,38.75-20.85,77.76-41.28,116.07-62.81,8.23-4.62,13.51-3.66,20.77.35,50.34,27.81,100.85,55.35,151.32,82.95,22.34,12.22,44.67,24.47,67.12,36.51,3.25,1.74,4.6,3.52,4.59,7.12-.11,80.33-.11,160.67-.01,241Z"/>
  <path class="cls-1" d="M973.66,482.93c-2.45-3.4-6.06-3.75-9.68-1.85-2.61,1.37-5.23,1.85-8.17,1.85-59.4-.04-118.81-.03-178.21-.03-3.28,0-6.69.64-6.54-4.4.15-5.01,3.79-3.65,6.53-3.65,47.69-.06,95.37-.02,143.06-.09,2.94,0,5.8.25,8.31,1.46,3.75,1.8,6.4.38,8.52-2.18,1.9-2.3,1.97-4.88-.11-7.4-2.47-3-6.19-3.27-8.8-1.74-3.34,1.96-6.57,1.79-9.97,1.8-44.19.03-88.39.02-132.58.02-14.9,0-14.94,0-14.84-14.02.02-2.37-.95-5,1.81-6.87,7.87-5.33,13.86-12.58,21.2-18.44,4.14-3.31,7.43-7.7,13.06-9.24,3.73-1.02,6.12-3.55,5.56-7.2-.43-2.87-2.26-5.37-5.98-5.67-4.08-.33-6.6,1.44-7.86,5.01-.83,2.36-1.81,4.52-3.92,6.32-6.22,5.32-12.18,10.92-18.29,16.36-1.54,1.38-2.76,3.39-5.44,3.06-.51-11.39-.49-11.37,2.04-13.7,8.76-8.09,17.6-16.11,26.22-24.33,3.11-2.96,6.48-4.31,10.91-4.27,15,.14,30.01.1,45.01.02,3.74-.02,7.29.19,10.52,2.21,3.46,2.17,6.34.81,8.47-1.85,2.18-2.73,2.2-5.74-.33-8.46-2.29-2.46-5.08-3.51-8.12-1.44-2.57,1.74-5.36,1.68-8.2,1.68-15.41.01-30.83.24-46.23-.13-7.13-.18-12.51,1.83-17.37,6.74-7.04,7.11-14.67,13.7-22.53,20.96-1.13-9.44-1.19-9.5,4.85-14.99,7.38-6.7,15.07-13.09,22.21-20,2.75-2.66,5.48-3.36,9.15-3.35,23.84.11,47.69.05,71.53.06,2.82,0,5.44.06,8.19,1.51,2.98,1.57,6.78,1.94,9.44-1.2,1.98-2.32,1.99-4.89.24-7.39-2.28-3.26-6.43-3.2-8.79-1.85-4.71,2.7-9.49,1.88-14.26,1.91-23.02.11-46.04.15-69.06-.04-4.46-.04-7.68,1.22-10.84,4.15-7.2,6.67-14.77,12.98-23.29,20.4.55-4.56-1.3-7.7,1.68-10.56,7.16-6.9,14.32-13.81,21.2-20.95,2.6-2.69,5.35-3.53,9.08-3.48,12.95.18,25.9-.06,38.85.13,6.03.09,12.12-1.02,18.03,1.95,2.83,1.42,5.75-.64,7.6-3.38,1.91-2.81,1.04-5.24-1.01-7.34-2.21-2.27-5.54-3.82-8.11-1.55-4.32,3.82-9.27,3.35-14.33,3.35-11.72,0-23.55.95-35.12-.26-12.54-1.32-20.64,3.7-27.56,12.34-1.84,2.29-3.97,4.4-6.1,6.47-1.04,1.01-1.89,2.7-4.2,1.78,0-3.4.1-6.87-.04-10.32-.08-1.91.71-3.12,2.17-4.42,10.99-9.85,21.97-19.71,32.71-29.79,2.85-2.68,5.72-3.72,9.71-3.67,14.8.19,29.6.11,44.4.05,3.1-.01,6,.11,8.73,1.89,3.28,2.14,6.62,1.64,9.27-1.13,2.32-2.42,2.4-5.3.46-7.95-2.41-3.31-6.37-3.36-9.31-1.77-3.69,1.99-7.34,2.01-11.19,2.01-11.1,0-22.29.85-33.27-.22-13.26-1.29-23.56,2.08-31.39,12.26-1.54,2-3.67,3.64-5.65,5.32-5.25,4.45-9.75,9.71-16.07,13.7-1.17-5.14-.46-8.88,3.42-12.4,9.43-8.56,18.49-17.48,27.63-26.33,1.97-1.91,4.06-2.86,7-2.85,25.08.1,50.15.07,75.23.04,2.13,0,4.08.21,5.66,1.71,2.89,2.74,6.04,2.45,8.69,0,2.74-2.52,3.41-5.73.9-8.84-2.42-2.99-5.54-3.86-9.09-1.69-2.53,1.55-5.26,1.82-8.18,1.81-22.4-.05-44.83.48-67.2-.29-10.19-.35-17.42,2.25-23.91,9.63-7.01,7.99-15.33,14.97-22.96,22.49-2.9,2.86-4.99.97-7.23-.67-1.58-1.15-1.74-1.94,0-3.54,12.97-11.83,25.78-23.81,38.55-35.83,1.75-1.65,3.54-2.24,5.96-2.14,18.82.71,37.71-1.36,56.49,1.2,4.13.56,6.86-1.34,8.17-4.62,1.09-2.72-.05-5.33-2.74-7.03-3.09-1.96-6.27-1.88-8.91.54-2.12,1.94-4.43,2.47-7.22,2.44-9.86-.09-19.83.81-29.56-.28-16.27-1.81-28.58,2.74-39.01,14.91-8.44,9.84-19,18.07-28.5,27.12-4.3,4.1-6.72-.4-9.25-1.93-3.6-2.18.55-3.46,1.69-4.55,5.6-5.36,11.26-10.71,17.3-15.61,7.03-5.71,12.12-13.56,21.52-16.76,2.67-.91,4.24-3.89,3.21-6.81-.91-2.56-2.62-4.72-6.08-4.91-3.44-.18-6.46.64-7.2,3.95-1.34,5.99-6.19,9.23-10.41,13.05-7.69,6.96-15.39,13.89-23,20.92-7.17,6.62-8.38,6.66-16.11-.19,3.11-1.13,5.85-2.64,8.16-4.9,12.54-12.23,24.92-24.6,37.82-36.48,7.04-6.49,12.34-14.94,22.42-18.31,2.95-.99,4.11-3.86,3.23-6.76-.76-2.49-2.73-4.33-5.59-4.74-3.37-.49-6.06.79-7.61,3.66-1.26,2.34-1.45,5.01-3.65,7.1-17.14,16.35-34.15,32.83-51.22,49.25-.97.93-2.14,2.21-3.33,2.33-11.79,1.24-22.8-.2-32.09-9.18,5.9,0,11.22-.26,16.49.07,6.23.39,11.01-1.66,15.18-5.93,7.36-7.52,14.8-15,22.57-22.15,4.45-4.09,7.7-9.75,14.42-11.25,3.84-.86,5.49-3.12,5.32-6.6-.17-3.34-2.52-5.34-5.68-6.05-3.5-.78-5.91,1.35-7.49,3.96-1.28,2.11-1.58,4.63-3.55,6.52-10.17,9.8-20.29,19.65-30.31,29.6-2.73,2.71-5.69,3.96-9.74,3.86-9.04-.22-18.09-.17-27.13-.03-4.88.08-9.07-1.43-13.14-3.74-2.88-1.64-3.11-3.16-.35-4.98,6.62-4.37,8-10.47,7.52-17.7-.53-7.89.85-15.96-.32-23.72-2.68-17.87,2.9-31.95,18.94-42.15.33-.21.53-.61.87-.82,5.92-3.68,9.42-10.31,16.67-12.32,3.88-1.08,5.98-3.18,5.62-7.01-.31-3.27-2.55-5.17-5.83-5.75-3.92-.68-6.55,1.61-7.45,4.65-.96,3.22-2.98,5.4-5.33,7.51-8.9,7.99-17.78,15.98-26.8,23.84-3.72,3.24-5.15,6.99-5.08,11.75.21,15.45-.38,30.92.3,46.34.28,6.37-3.66,9.39-7.57,12.87-2.74,2.44-5.24-.12-6.87-1.55-2.93-2.55.58-3.54,2.2-4.41,5.63-3.03,7.29-7.37,7.13-13.42-.43-16.21-.11-32.44-.18-48.67-.01-2.81.45-5.23,2.68-7.36,14.36-13.78,28.64-27.64,42.94-41.48,1.62-1.57,3.41-2.79,5.84-2.85,3.99-.09,5.87-2.48,6.47-5.73.63-3.42-1.79-5.42-4.77-6.62-3.83-1.53-6.45.69-8.22,3.37-1.72,2.6-3.32,5.2-5.63,7.42-14.5,13.91-28.9,27.92-43.44,41.79-3.1,2.96-4.32,6.23-4.28,10.33.13,15.64-.57,31.31.29,46.92.41,7.46-3.72,10.78-9.05,14.19-3.02,1.93-5.23-.27-6.97-1.78-2.54-2.2.48-3.36,1.9-4.26,6.07-3.82,7.87-8.95,7.65-15.78-.51-15.44-.06-30.9-.23-46.35-.04-3.78,1.22-6.58,4.1-9.16,7.56-6.79,14.92-13.78,22.41-20.64,2.85-2.62,5.22-5.58,9.93-6.06,3.48-.36,5.49-3.59,5.27-6.86-.2-3.02-2.3-5.49-5.72-6.05-3.81-.62-6.15,1.46-7.51,4.6-1.01,2.34-2.15,4.52-4.16,6.32-8.76,7.83-17.31,15.86-26.2,23.56-3.88,3.36-5.84,6.95-5.76,12.01.23,16.22-.04,32.44.19,48.66.06,4.23-1.03,7.53-4.69,10-1.28.86-2.22,2.78-4.02,2.11-1.96-.73-.97-2.73-.97-4.13-.07-19.89.04-39.79-.13-59.68-.03-3,.98-5.07,3.2-7.02,11.54-10.14,22.87-20.5,34.58-30.46,6.06-5.15,9.93-10.38,9.22-18.76-.91-10.75-.23-21.61-.23-32.43,0-2.29-.17-4.51,1.95-6.37,2.86-2.51,2.89-5.5.24-8.18-2.31-2.33-5.2-3.08-8.33-1.31-3.22,1.83-4.7,4.64-3.07,7.85,1.97,3.88,1.8,7.85,1.8,11.88,0,9.66-.34,19.32.1,28.96.24,5.25-2.05,8.69-5.86,12.01-12.5,10.88-24.8,21.96-37.29,32.86-2.8,2.45-3.75,5.19-3.7,8.71.15,12.36.06,24.72.06,37.08v28.13c-6.32-2.17-9.31-4.94-9.13-11.33.51-17.95.16-35.91.18-53.87,0-2.26-.44-4.64,1.61-6.49,13.47-12.16,26.74-24.52,40.51-36.37,3.35-2.88,5.07-5.42,4.99-9.68-.36-19.3-.44-38.61-.65-57.92-.03-2.33-.22-4.71,1.4-6.63,2.82-3.35,2.42-6.4-.8-9.15-2.24-1.91-4.98-1.99-7.36-.38-3.71,2.51-3.24,6.01-1.51,9.32,1.14,2.17,1.51,4.31,1.5,6.67-.11,17.96-.25,35.92-.16,53.87.02,3.98-1.33,6.9-4.39,9.63-13.09,11.69-25.94,23.63-39.05,35.3-3.22,2.87-4.62,5.83-4.56,10.08.25,17.18.15,34.38.02,51.56-.01,1.54,1.68,4.51-1.69,4.49-2.48-.02-5.15-1.3-5.53-4.34-.14-1.14-.04-2.31-.04-3.47,0-15.84.15-31.68-.09-47.51-.07-4.63,1.6-8.03,4.99-11.18,12.56-11.68,24.96-23.51,37.52-35.19,2.18-2.03,3.32-4.06,3.28-7.05-.18-12.94-.06-25.88-.19-38.82-.03-2.58.06-4.81,2.12-6.9,2.6-2.65,2.31-5.8-.16-8.38-1.96-2.05-4.43-3.32-7.63-1.7-3.48,1.75-4.56,4.81-3.68,7.79.92,3.1.78,6.09.81,9.13.08,11.39-.15,22.79.13,34.18.1,4.19-1.24,7.3-4.32,10.19-11.2,10.5-22.17,21.22-33.45,31.63-4.79,4.43-7.15,9.11-6.9,15.7.55,14.66.22,29.35.09,44.03-.01,1.44,1.36,4.99-2.13,3.87-3.66-1.18-8.22-2.38-7.76-8.05.52-6.53.17-13.12.1-19.69-.03-2.39.3-4.42,2.31-6.26,2.71-2.49,2.6-5.43.23-8.22-2.36-2.76-5.76-2.5-8.41-1.35-2.83,1.22-4.35,3.87-3.62,7.26,1.91,8.91.39,17.86.94,27.27-4-1.13-5.07-3.11-5.04-6.16.11-9.08.15-18.16-.03-27.23-.05-2.58.95-4.28,2.8-5.99,13.2-12.15,26.3-24.4,39.51-36.54,2.32-2.14,3.61-4.33,3.54-7.54-.2-9.46-.15-18.92-.02-28.39.08-5.69-1.07-11.5,2.33-16.89,2.06-3.27.05-5.86-2.65-7.94-2.61-2.03-5.41-1.73-7.87.12-2.79,2.1-4.21,4.84-2.21,8.1,1.49,2.42,1.99,4.94,1.98,7.68-.05,11.39-.11,22.79.07,34.18.05,3.38-1.23,5.75-3.75,8.04-7.83,7.11-14.78,15.26-23.36,21.42-15.64,11.24-22.39,25.14-19.04,43.43.3,1.61,1.32,4.08-1.05,5.16-2.32,1.06-3.41-1.63-5.29-2.27-2.31-.79-2.2-2.94-2.19-4.91.03-6.57.07-13.13-.02-19.7-.03-2.04.4-3.88,1.91-5.3,13.49-12.71,26.81-25.6,40.71-37.91,3.09-2.73,4.35-5.03,4.33-8.74-.11-19.7-.02-39.4-.09-59.1,0-2.72.09-5.41,1.45-7.81,2.05-3.63.7-6.33-2.36-8.55-2.61-1.89-5.51-1.58-7.93.21-3.29,2.43-2.88,5.74-1.3,8.85.99,1.95,1.58,3.8,1.57,5.99-.07,20.09-.04,40.17-.05,60.26,0,1.69.22,3.27-1.53,4.66-14.8,11.66-27.51,25.36-41.44,37.88-2.84,2.56-3.97,5.62-3.85,9.32.18,5.92.05,11.85.05,18.1-4.92-1.02-7.1-3.31-6.91-7.66.19-4.24.18-8.5.08-12.74-.08-3.66,1.2-6.43,4.11-9.09,12.37-11.31,24.43-22.92,36.73-34.3,2.37-2.19,3.49-4.49,3.46-7.59-.13-12.55-.07-25.1-.19-37.66-.03-3.32.13-6.38,2.38-9.26,2.15-2.75,1.14-5.55-1.35-7.74-2.36-2.08-5.31-2.32-7.81-.53-2.45,1.75-4.64,4.05-2.64,7.4,1.79,2.99,1.7,6.25,1.68,9.53-.05,11.2-.19,22.41.08,33.6.1,4.21-1.35,7.25-4.5,10.15-11.89,10.95-23.73,21.95-35.28,33.21-3.88,3.78-9.32,7.44-4.95,14.3,1.18,1.85.21,4.92.2,7.43-.01,1.89-1.15,2.41-2.83,1.72-2.87-1.18-5.47-2.57-5.75-6.07-.69-8.69,0-16.42,8.49-22.48,11.62-8.31,19.53-20.74,33.29-26.86,3.25-1.45,3.39-4.8,2.39-7.67-.85-2.46-2.96-3.97-5.97-4.2-3.71-.29-6.66,1.79-7.01,4.43-.59,4.46-3.75,6.67-6.58,9.32-7.56,7.09-14.97,14.35-22.93,21.03-6.55,5.5-10.66,11.49-9.2,20.08.24,1.38,1.11,4.07-1.8,4-2.24-.05-4.16-1.53-4.24-4.1-.04-1.35-.02-2.7-.02-4.06,0-43.26-.02-86.52.03-129.78,0-4.52-.71-9.06,2.23-13.39,1.47-2.16.94-5.27-1.77-7.27-2.41-1.78-5.15-1.47-7.53-.51-2.81,1.13-3.02,3.75-2.94,6.42.09,2.7,1.43,5.07,1.42,7.86-.13,44.03-.07,88.07-.17,132.1,0,1.54,1.68,4.47-1.59,4.55-2.33.05-4.56-1.77-5.51-4.01-.5-1.17-.2-2.67-.2-4.02,0-52.34,0-104.68-.03-157.01,0-2.54.25-4.68,2.25-6.82,2.36-2.51,2.45-5.74-.24-8.37-2.54-2.48-5.73-2.94-8.84-1.1-3.51,2.07-4.23,5.44-2.21,8.53,1.67,2.56,1.64,5.06,1.64,7.71.01,34.76,0,69.53,0,104.29,0,18.15-.17,36.31.12,54.46.07,4.39-1.47,7.84-5.75,7.56-4.38-.28-1.91-4.74-1.92-7.08-.2-42.87-.14-85.74-.16-128.6,0-2.96.22-5.72,2.52-8.07,2.75-2.81,1.42-5.39-1.11-7.52-3.03-2.56-6.5-2-9.65-.33-2.94,1.56-3.59,4.28-1.8,6.92,1.68,2.47,1.73,5.03,1.73,7.74-.02,45.77-.01,91.54-.01,137.32,0,1.16-.03,2.32,0,3.48.08,3.03-2.38,4.36-4.69,4.31-2.65-.06-1.57-2.82-1.36-4.15,1.46-9.16-2.57-15.72-9.74-21.63-8.47-7-16.24-14.75-24.28-22.22-2-1.86-4-3.57-4.46-6.61-.49-3.27-2.88-5.42-6.78-5.41-3.54,0-5.89,1.73-6.63,4.85-.83,3.54.21,6.71,4.29,7.86,4.15,1.16,7.02,3.85,9.96,6.48,6.53,5.84,12.5,12.33,19.53,17.57,8.75,6.52,12.24,14.4,10.52,24.56-.03.19,0,.39.01.58.31,3.9-2.77,5.21-5.74,6.56-1.64.74-2.82.4-2.8-1.57.03-3.28-1.19-7.39.45-9.66.39-5.31-.68-5.31-1.24-8.87-7.38-9.09-15.94-17.37-25.31-24.33-15.15-11.24-21.34-24.75-18.44-42.53,1.38-8.44-1.7-17.24,2.31-25.62,1.22-2.56-1.25-4.91-3.48-6.21-2.33-1.35-5.11-1.25-7.37.66-2.35,1.99-3.75,4.78-1.84,7.17,3.18,3.98,2.7,8.3,2.69,12.67-.01,11.59,0,23.17-.14,34.76-.04,3.08.92,5.44,3.32,7.64,9.12,8.36,17.48,17.55,27.24,25.17,10.88,8.5,15.79,18.25,13.96,31.52-.62,4.48-1.8,7.18-7.06,8.17,0-6.54-.1-12.87.04-19.19.07-3.03-.46-5.86-2.71-8-13.45-12.76-26.79-25.63-40.68-37.95-2.6-2.31-3.49-4.08-3.48-7.06.08-17.57-.02-35.15.08-52.72.02-4.51-.71-9.02,2.03-13.42,1.4-2.25,1.25-5.82-1.93-7.75-2.56-1.56-5.37-1.99-7.95,0-2.74,2.11-4.36,4.6-2.38,8.05,1.61,2.79,1.58,5.86,1.57,8.95-.05,19.51-.02,39.01-.03,58.52,0,2.49-.39,5.09,1.97,6.97,14.46,11.48,26.91,24.89,40.53,37.18,1.6,1.44,3.9,3.22,3.99,4.93.44,8.47.63,16.99.07,25.44-.19,2.81-4.15,4.95-6.89,4.85-2.86-.1-1.27-3.48-1.33-5.32-.22-6.75-.3-13.52,0-20.27.17-4.01-1.36-6.91-4.31-9.64-12.17-11.23-24.03-22.76-36.38-33.81-4.09-3.66-5.7-7.4-5.47-12.63.41-9.25.15-18.53.13-27.8,0-4.02-.18-7.94,2.19-11.7,1.83-2.9.15-5.64-2.47-7.55-2.5-1.83-5.26-2.1-7.88-.09-2.51,1.92-4.58,4.34-2.77,7.4,2.87,4.84,2.52,9.97,2.51,15.13,0,10.23.11,20.47-.04,30.7-.04,2.93.88,5.13,3.09,7.15,10.29,9.42,19.96,19.53,30.91,28.21,9.51,7.53,13.71,15.92,11.9,27.47-.8,5.1-.15,10.41-.13,15.62.01,2.38-.95,4.67-3.51,4.55-2.6-.12-1.41-2.79-1.34-4.22.36-7.86-1.07-15.76.89-23.6.73-2.91-1.27-5.51-4.09-6.42-2.82-.91-6.1-1.13-8.32,1.8-1.87,2.47-1.94,4.96-.04,7.38,1.07,1.37,2.8,2.34,2.8,4.3.01,8.3.32,16.62-.11,24.91-.22,4.12-5.19,5.36-8.06,5.76-3.23.45-1.5-3.57-1.53-5.45-.21-14.1-.59-28.22.09-42.29.34-7.09-2.31-12-7.37-16.69-11.26-10.44-22.28-21.11-33.35-31.73-1.68-1.61-3.91-3.15-3.82-5.64.52-15.77-1.32-31.59.95-47.33.51-3.51-.43-6.4-4.09-8.19-3.25-1.59-5.63-.01-7.55,1.95-2.5,2.54-2.82,5.82-.27,8.37,2.29,2.29,2.3,4.74,2.3,7.45-.03,12.75.06,25.49-.1,38.24-.04,2.95.94,5.07,3.15,7.11,9.23,8.52,17.71,17.88,27.64,25.6,11.78,9.15,16.77,19.62,15.17,34.07-1.34,12.04-.39,24.31-.21,36.47.06,3.82-2.59,5.49-5.48,5.59-3.58.13-1.82-3.19-1.84-4.87-.14-17.38-.16-34.76-.03-52.14.03-3.33-.97-5.79-3.57-8.11-12.64-11.3-24.93-22.95-37.75-34.06-4.98-4.31-7.2-8.86-6.68-15.16,1.67-20.23-2.97-40.71,2.8-60.81.74-2.58-.95-5.14-3.42-6.21-2.38-1.04-5.34-1.1-7.47.99-2.34,2.3-3.17,5.33-1.14,7.85,1.86,2.3,1.8,4.58,1.8,7.04,0,19.89,0,39.78-.13,59.67-.02,2.89.62,5.35,2.9,7.22,13.93,11.4,26.85,23.8,40.31,35.66,2.96,2.61,4.02,5.35,3.99,9.07-.15,18.15-.32,36.31.07,54.45.14,6.4-3.48,8.32-9.09,9.79,0-21.7-.09-42.94.08-64.18.03-3.98-1.12-6.98-4.22-9.68-12.36-10.74-24.54-21.66-36.89-32.41-3.5-3.05-5.63-6.28-5.26-11.06,1.09-14.34-2.06-28.83,1.85-43.09.9-3.29-1.14-5.75-4.09-6.94-2.97-1.2-6.12-.72-8.22,2-2.02,2.63-2.35,5.47.42,7.77,2.18,1.81,2.09,3.97,2.09,6.29-.03,12.55.13,25.11-.1,37.66-.07,4.01,1.32,6.9,4.4,9.58,12.95,11.26,25.71,22.72,38.7,33.95,2.99,2.58,3.96,5.33,3.93,9.06-.18,18.35-.01,36.69-.16,55.04-.02,2.51,1.47,7.05-1.07,7.2-3.66.22-6.51-3.4-8.04-6.89-.52-1.18-.45-2.63-.45-3.96-.02-15.83-.2-31.67.12-47.5.13-6.21-1.44-10.95-6.84-15.04-6.19-4.69-11.68-10.21-17.29-15.55-4.41-4.2-9.75-7.68-12-13.65-1.17-3.11-3.7-5.46-7.42-4.72-3.44.68-5.81,3.35-5.82,6.65,0,3.52,2.3,6.21,6.15,6.89,1.87.33,3.4.65,4.82,1.97,8.9,8.27,17.83,16.51,26.88,24.63,2.91,2.61,3.87,5.55,3.83,9.27-.16,15.45.27,30.91-.22,46.35-.21,6.63,1.56,11.6,7.48,15.23,1.49.92,3.8,2.39,2.13,3.95-1.46,1.37-3.67,3.21-6.26,2.6-5.12-1.21-9.56-7.21-9.57-12.54-.01-16.42-.08-32.83.03-49.25.03-3.9-1.34-6.92-4.11-9.82-16.4-17.15-35.5-31.93-50.27-50.52-1.86-2.34-4.4-3.49-7.55-2.02-2.74,1.28-4.85,3.09-4.45,6.25.4,3.13,2.21,5.59,5.68,5.81,3.47.21,5.65,1.95,7.82,4.05,13.71,13.3,27.38,26.64,41.21,39.83,1.92,1.83,2.81,3.76,3.12,5.98,0,0,.43,58.16,2.13,59.86,1.08,1.08,2.13,2.27,2.13,2.27.11.1.21.18.31.25.51.51,1.25,1.04,2.31,1.58,1.01.58,4.63.63,2.5,3.32-1.54,1.95-4.54,4.37-6.46,2.85-3.66-2.88-8.2-5.34-8.02-11.38.47-15.05-.2-30.13.31-45.18.24-7.19-2.7-11.95-7.76-17.13-10.14-10.37-24.06-17.41-30.82-30.8-1.38-2.73-4.56-3.51-7.45-2.34-2.62,1.06-4.7,2.89-4.63,6.17.07,3.2,1.9,5.58,4.66,6.02,3.61.58,5.82,2.49,8.19,4.61,8.31,7.46,16.57,14.96,25.03,22.28,2.94,2.54,4.25,5.26,4.2,9.08-.2,14.87.2,29.75-.21,44.61-.18,6.43,1.09,11.73,6.74,15.69,2.62,1.84,2.79,3.6-.33,5.18-4.48,2.26-8.91,4.42-14.29,4.29-8.42-.2-16.86-.17-25.28,0-3.74.08-6.75-.77-9.24-3.52-11.49-12.63-26.39-22.43-35.06-37.43-1.42-2.46-4.21-3.94-7.37-2.82-2.78.98-4.93,2.84-5.04,5.96-.12,3.25,1.37,5.76,4.82,6.4,3.94.73,6.46,3.08,9.02,5.59,9.8,9.61,19.65,19.17,29.42,28.8,3.6,3.55,7.76,5.22,13.08,5.1,4.9-.11,9.91-.73,16.02.62-5.47,2.87-9.73,5.4-14.25,7.41-7.21,3.2-16.75,1.45-22.25-3.85-15.2-14.63-30.33-29.32-45.55-43.94-2.72-2.61-5.42-5.06-6.35-8.88-.85-3.49-3.77-4.98-7.42-4.61-3.33.34-5.56,2.28-6.13,5.46-.67,3.76,1.82,5.97,5.11,6.87,2.96.81,5.07,2.34,7.08,4.28,18.87,18.21,37.25,36.86,56.88,54.41q-7.82,5.58-14.04-.23c-4.39-4.07-9.13-7.83-13.21-12.14-6.93-7.31-17.02-12.03-20.24-22.47-1-3.26-5-3.24-8.01-2.52-2.67.64-4.54,2.8-4.82,5.45-.35,3.23,1.61,5.71,4.61,6.82,2.3.85,4.54,1.47,6.39,3.16,9.72,8.86,19.54,17.61,29.26,26.47,4.69,4.27,4.44,4.68-1.13,7.52-3.08,1.57-4.86.32-6.87-1.55-12.66-11.83-25.44-23.54-37.97-35.49-2.84-2.71-5.86-3.9-9.74-3.89-15,.04-30-.01-45,.06-3.53.02-6.74.06-9.59-2.68-2.3-2.22-5.51-2.21-8.43-.33-2.68,1.73-3.9,4.24-2.86,6.99,1.14,3.03,3.47,5.24,7.44,4.73,2.8-.36,5.6-1.09,8.4-1.1,16.24-.11,32.48-.03,48.71-.08,2.34,0,4.19.34,6,2.05,12.01,11.36,24.13,22.62,36.3,33.84,3.21,2.95,1.65,4.28-1.53,5.71-3.1,1.39-4.52-.62-6.2-2.23-8.56-8.29-17.1-16.6-25.66-24.89-2.61-2.53-5.31-4.38-9.54-4.34-24.46.2-48.92.1-73.37.19-4.12.01-8.08,0-11.78-2.14-3.54-2.04-6.26-.33-8.36,2.39-2.32,3-1.45,5.98.98,8.37,2.33,2.29,5.37,3.03,8.19.6,1.98-1.71,4.12-2.2,6.72-2.2,24.87.05,49.74.08,74.61-.03,3.2-.01,5.37,1.09,7.49,3.14,8.83,8.58,17.63,17.2,26.75,25.51,3.99,3.63,3.77,7.37,1.64,12.29-9.72-8.41-18.79-17.26-27.75-26.22-2.98-2.98-6.28-4.36-10.77-4.28-12.94.24-25.9.15-38.85.06-6.44-.05-12.96.87-19.14-2.25-3.19-1.61-6.64-.46-8.44,2.58-1.45,2.44-1.38,5.28.93,7.49,2.54,2.43,5.7,3.11,8.81,1.31,2.54-1.46,5.01-2.21,8.01-2.19,15.62.1,31.24.14,46.86-.03,3.17-.03,5.38.94,7.54,2.95,9.35,8.67,18.36,17.76,28.41,25.66,6.06,4.76,6.36,10.16,6.03,16.35-.05.86.45,2.01-.91,2.43-1.27.39-1.86-.67-2.49-1.3-4.61-4.64-9.2-9.3-13.7-14.05-2.91-3.08-6.29-4.33-10.8-4.26-15.82.24-31.65.06-47.48.12-3.55.01-6.73-.19-9.59-2.74-3.07-2.73-6.48-1.76-9.17.86-2.35,2.3-2.99,5.1-.77,7.83,2.31,2.83,5.2,4.4,9,2.34,2.21-1.2,4.55-1.45,7.05-1.44,16.44.05,32.89.12,49.33-.05,3.2-.03,5.37.95,7.42,3.05,6.1,6.26,12.03,12.69,18.58,18.51,3.86,3.43,4.06,6.84,2.89,11.8-7.63-6.65-14.78-12.63-21.59-18.94-3-2.77-6.05-3.99-10.31-3.96-24.66.17-49.33.09-74,.07-3.01,0-5.81-.04-8.78-1.61-2.85-1.51-6.78-1.86-9.45,1.29-2.01,2.36-2.05,5.01-.17,7.37,2.72,3.41,6.48,2.89,9.92,1.37,1.89-.84,3.6-1.47,5.73-1.47,25.28.05,50.56.05,75.85,0,2.13,0,3.78.35,5.45,1.9,7.75,7.16,15.44,14.41,23.65,21.08,4.79,3.9,4.79,8.16,4.02,13.01-1.74.33-2.4-.44-3.11-1.11-6.5-6.16-13.07-12.26-19.48-18.49-4.07-3.96-8.66-5.86-14.71-5.74-15.81.3-31.64.11-47.46.11-3.05,0-6.02.04-8.79-1.78-3.08-2.02-5.85-.8-8.06,1.69-2.48,2.79-2.32,5.83-.06,8.46,1.98,2.3,4.52,3.83,7.98,1.85,2.59-1.48,5.37-2.42,8.62-2.39,16.03.13,32.07.1,48.1.02,3.74-.02,6.74,1.11,9.36,3.58,7.22,6.83,14,14.18,21.93,20.19,6.79,5.14,6.44,11.02,5.55,18.94-7.07-6.44-13.21-12.25-19.62-17.77-2.9-2.5-5.72-4.79-6.72-8.6-.99-3.78-3.97-5.21-7.92-4.78-3.62.39-5.45,2.95-5.75,5.87-.35,3.32,1.72,5.84,5.25,6.86,3.63,1.05,6.37,3.19,9.02,5.65,5.1,4.75,9.92,9.94,15.73,13.79,9.02,5.99,11.66,13.56,10.76,23.57-.45,4.98-1.81,5.79-6.65,5.77-46.45-.17-92.91-.09-139.36-.12-3.6,0-7.05.24-10.58-1.84-2.56-1.51-6.31-1.2-8.76,1.87-2.07,2.58-1.87,5.14.02,7.4,2.15,2.56,4.88,3.89,8.57,2.08,1.73-.85,3.88-1.32,5.85-1.33,48.71-.07,97.43-.04,146.14-.09,2.92,0,4.61.48,4.59,3.77-.01,3.25-1.21,4.69-4.69,4.37-1.22-.11-2.46-.02-3.7-.02-54.47,0-108.94.03-163.41-.04-7.47-.01-15.08,1.15-22.23-2.45-2.87-1.44-5.68.08-7.36,2.5-1.82,2.62-1.83,5.44.49,7.95,2.07,2.24,5.05,3.69,7.6,2.01,3.81-2.5,7.8-2.02,11.81-2.02,34.32-.05,68.65-.03,102.97-.02,24.46,0,48.92.12,73.37-.08,4.1-.03,5.13.96,5.2,4.77.09,4.52-2.69,3.78-5.55,3.78-46.45-.01-92.91,0-139.36-.03-4,0-7.9.39-11.78-1.99-2.8-1.72-6.25-.58-8.64,2.29-2.04,2.45-1.51,4.83.12,6.88,2.07,2.59,4.84,4.17,8.48,2.23,2.78-1.48,5.82-1.46,8.91-1.45,30.42.04,60.84.02,91.26.02,17.06,0,34.12-.03,51.18.04,1.85,0,5.17-.87,4.95,1.83-.62,7.51,3.69,15.73-5.48,22.02-10.93,7.5-18.29,19.15-31.35,24.45-2.39.97-4.09,3.51-3.42,6.28.65,2.68,2.18,5.06,5.46,5.59,2.79.45,6.05.05,7.01-2.44,4.42-11.38,16.18-16.5,23.69-25.2.9-1.05,1.72-2.79,4.01-2.1,1.28,7.08.39,13.05-6.31,18.15-7.29,5.55-13.79,12.08-20.23,18.53-3.41,3.41-7.1,4.72-11.95,4.67-14.18-.16-28.37-.12-42.55-.02-4.53.03-8.95-.02-12.94-2.44-3.44-2.09-5.95-.17-7.86,2.14-2.05,2.48-2.18,5.36.02,8,2.1,2.52,4.9,4.05,7.98,2.08,3.19-2.04,6.53-1.91,9.99-1.91,16.03,0,32.05-.08,48.08.06,4.61.04,8.39-1.29,11.58-4.32,2.6-2.47,5.17-4.95,7.81-7.38,5.15-4.75,10.34-9.46,16.1-14.72,1.32,6.23.85,10.46-3.94,14.32-7.93,6.39-15.35,13.36-22.75,20.29-2.12,1.98-4.22,2.53-7.04,2.53-24.67-.08-49.33-.05-74-.04-2.47,0-4.61-.4-6.95-1.53-3.06-1.48-6.79-1.93-9.46,1.21-1.97,2.32-2.1,4.97-.21,7.37,2.72,3.46,6.72,3.03,9.91,1.42,2.57-1.29,4.94-1.5,7.56-1.5,25.08,0,50.15-.07,75.23.07,4.01.02,6.92-1.13,9.77-3.74,6.95-6.38,14.21-12.47,22.32-19.53-.16,4.53,1.3,7.68-1.89,10.7-6.79,6.43-13.35,13.08-19.84,19.78-2.23,2.3-4.56,3.29-7.94,3.26-16.24-.16-32.48-.1-48.71-.04-2.71.01-5.22-.31-7.65-1.54-3.85-1.95-6.62-.19-8.85,2.68-2.23,2.87-1.26,5.58,1.1,7.78,2.78,2.59,6.15,3.26,9.2.52,2.66-2.39,5.67-2.6,9.03-2.59,15,.07,30.03-.35,45.01.2,6.9.25,11.59-1.95,16.03-6.53,4.42-4.56,8.31-9.7,14.55-14.1-.03,7.51,1.51,13.66-5.26,19.08-10.3,8.24-19.63,17.55-29.24,26.52-2.24,2.09-4.59,2.73-7.65,2.71-15.21-.12-30.42-.09-45.63-.02-3.12.01-5.93-.3-8.7-1.98-3.23-1.95-6.61-1.52-9.24,1.32-2.13,2.3-2.19,5.06-.59,7.5,2.18,3.32,6.03,3.87,9.15,2.19,4.25-2.29,8.57-2.08,13.02-2.09,11.1-.02,22.28-.79,33.28.2,12.38,1.11,21.89-2.16,29.24-11.54,1.93-2.46,4.55-4.45,6.92-6.58,4.6-4.13,9.25-8.21,14.18-12.58,1.78,6.43-.21,10.4-4.55,14.22-8.51,7.5-16.54,15.5-24.62,23.42-2.28,2.23-4.57,3.39-7.99,3.38-24.66-.12-49.33-.08-74-.05-2.53,0-4.81-.19-6.8-1.98-3-2.71-6.14-1.93-8.63.6-2.43,2.47-2.98,5.51-.66,8.41,2.18,2.73,5.05,3.97,8.52,2.1,2.53-1.37,5.1-2.14,8.08-2.14,24.87.07,49.74-.09,74.61.21,5.25.06,8.92-1.43,12.37-4.91,7.4-7.47,15.26-14.53,22.51-22.12,2.9-3.04,5.38-2.26,7.85-.5,3.47,2.47.01,3.97-1.49,5.38-10.45,9.84-21.03,19.55-31.48,29.38-2.13,2.01-4.25,3.1-7.47,2.97-18.61-.78-37.3,1.3-55.87-1.25-3.83-.52-6.48,1.12-7.92,4.12-1.42,2.96-.33,5.68,2.54,7.55,3.07,1.99,6.32,1.92,8.9-.56,2.49-2.39,5.35-2.41,8.47-2.4,15.21.06,30.41.03,45.62.07,3.85.01,6.98-1.01,9.77-3.81,5.88-5.92,12.14-11.52,18.24-17.24,5.51-5.17,11-10.36,16.54-15.51,3.37-3.13,7.56-3.02,10.55.42,2.89,3.33-1.22,4.38-2.73,5.8-8.44,7.88-17.13,15.52-25.71,23.26-1.5,1.35-3.03,2.5-5.15,2.95-3.91.82-6.21,3.4-5.9,6.99.28,3.22,2.45,5.49,6.39,5.87,4.66.44,7.05-2.13,7.9-5.68.69-2.87,2.19-4.74,4.34-6.65,9.09-8.08,18.38-16.01,26.88-24.62,3.93-3.99,6.86-1.58,9.3.18,3.48,2.49-.41,4.28-1.98,5.82-12.35,12.12-24.59,24.36-37.36,36.08-6.61,6.07-11.61,14.01-21.23,16.97-2.65.81-3.8,3.62-2.98,6.32.82,2.69,2.73,4.72,5.94,5.05,3.42.35,6.03-1.02,7.42-3.97,1.14-2.4,1.56-4.96,3.75-7.04,16.87-16.06,33.67-32.19,50.29-48.49,2.99-2.93,6.25-4.05,9.81-2.61,5.23,2.13,10.1,5.04,15.26,7.68-1.36,1.75-2.74,1.36-3.77,1.22-7.69-1.05-13.31,1.97-18.3,7.22-6.84,7.19-13.91,14.19-21.23,20.94-4.31,3.98-7.48,9.48-13.89,10.99-4.1.97-5.96,3.18-5.69,6.91.24,3.29,2.63,5.37,5.85,5.88,3.71.59,6.12-1.62,7.6-4.66,1-2.06,1.56-4.22,3.39-5.97,10.19-9.78,20.25-19.69,30.35-29.56,1.57-1.53,3.14-3.47,5.44-3.51,13.77-.2,27.88-2.24,39.97,6.8,2.51,1.87,3.46,3.19.85,5.36-3.25,2.69-3.61,6.15-3.54,9.96.17,9.27-1.16,18.71.31,27.77,3.01,18.62-3.92,32.48-19.86,42.97-5.81,3.82-9.42,10.32-16.65,12.34-3.87,1.08-5.99,3.15-5.64,6.99.3,3.28,2.53,5.18,5.81,5.76,3.92.69,6.56-1.6,7.46-4.63.96-3.22,2.97-5.4,5.32-7.51,8.9-7.99,17.78-15.98,26.8-23.85,3.72-3.24,5.16-6.98,5.1-11.75-.21-16.03,0-32.06-.15-48.09-.03-3.17.87-5.56,3.43-7.52,2.94-2.25,5.19-.18,6.95,1.39,2.46,2.2-.76,2.65-1.9,3.53-2.79,2.16-3.44,4.89-3.41,8.16.11,16.99.02,33.99.09,50.99.01,3-.42,5.59-2.82,7.9-14.24,13.62-28.38,27.34-42.53,41.04-1.61,1.56-3.29,2.98-5.72,3.07-4.16.15-6.36,2.36-6.87,5.99-.49,3.47,2.02,5.44,5.01,6.47,4.12,1.42,6.62-1.16,8.42-4.1,1.44-2.34,2.94-4.55,4.95-6.49,14.48-13.93,28.87-27.94,43.43-41.8,3.27-3.11,4.6-6.48,4.56-10.81-.15-16.41,0-32.83-.08-49.25-.01-3.02.36-5.55,3.15-7.64,3.49-2.61,6.33-.97,8.66,1.08,3.12,2.74-1.03,3.32-2.23,4.5-2.44,2.41-3.25,5.06-3.23,8.33.12,16.42-.08,32.83.14,49.25.06,4.4-1.26,7.69-4.66,10.69-8.67,7.66-17.13,15.53-25.6,23.38-1.51,1.4-2.97,2.2-5.21,2.47-3.94.47-6.16,3.32-6.24,6.8-.08,3.31,2.33,5.98,5.73,6.72,3.73.81,6-1.66,7.55-4.61,1.34-2.57,2.47-5.17,4.81-7.25,8.65-7.66,17.03-15.58,25.76-23.15,3.72-3.23,5.56-6.7,5.49-11.54-.21-16.41-.05-32.83-.14-49.24-.02-3.2.23-6.1,3.09-8.34,1.57-1.23,2.88-3,5.24-2.18,2.45.85,1.3,2.99,1.31,4.52.08,19.31-.04,38.63.15,57.94.03,3.26-1.22,5.36-3.59,7.44-13.07,11.43-26,22.99-39.1,34.39-3.08,2.68-4.42,5.6-4.35,9.6.22,12.55.09,25.11.08,37.66,0,2.07.38,4.17-1.7,5.83-3.01,2.41-2.98,5.36-.75,8.21,2.11,2.7,5.27,3.16,8.25,1.95,3.62-1.48,5.26-4.77,3.87-8.1-1.57-3.75-1.74-7.48-1.75-11.3-.01-10.42.29-20.85.02-31.26-.11-4.35,1.78-7.35,4.89-10.08,12.29-10.8,24.5-21.69,36.91-32.38,3.48-3,4.68-6.3,4.63-10.69-.22-18.15-.11-36.31-.06-54.46,0-1.64-.81-4.81,2.71-3.26,3.28,1.45,6.49,3.08,6.38,7.93-.4,16.98-.25,33.98-.08,50.97.04,3.59-1.2,6.07-3.95,8.51-13.42,11.9-26.37,24.27-40.3,35.67-2.27,1.86-3,4.29-2.98,7.21.14,19.89.13,39.78.12,59.67,0,2.06.6,4.29-1.05,6.09-2.8,3.06-2.17,6.13.38,8.79,2.18,2.28,5.35,2.26,7.89.78,3.76-2.2,3.81-5.88,2.16-9.17-1.17-2.34-1.86-4.51-1.85-7.08.07-17.76.16-35.53-.05-53.29-.05-4.43,1.5-7.6,4.88-10.61,13.25-11.82,26.24-23.89,39.46-35.74,2.58-2.32,3.67-4.73,3.64-8.09-.15-15.83-.11-31.67,0-47.51.01-1.68-1.47-4.46,1.32-4.9,2.92-.47,4.66,2.08,5.75,4.36.54,1.14.2,2.66.2,4.01,0,14.29-.13,28.59.09,42.87.07,4.23-1.58,7.32-4.61,10.16-12.51,11.73-24.89,23.58-37.5,35.22-2.55,2.36-3.72,4.66-3.67,8.04.19,12.74.06,25.49.11,38.24.01,2.55-.19,4.77-2.27,6.87-2.55,2.58-2.28,5.8.18,8.38,1.9,1.99,4.29,3.58,7.53,2.03,3.65-1.74,5.1-4.77,4.04-8.11-.92-2.9-.85-5.69-.86-8.55-.06-11.59.16-23.18-.12-34.76-.1-4.17,1.18-7.31,4.27-10.21,11.35-10.63,22.49-21.45,33.87-32.06,4.42-4.12,6.78-8.5,6.51-14.68-.53-12.34-.24-24.72-.08-37.07.03-2.25-1.73-5.81,1.31-6.54,2.7-.65,5.29,2.08,7.52,4,1.31,1.12.91,2.48.92,3.76.05,5.21-.03,10.43.05,15.64.03,2.01-.23,3.8-1.89,5.26-3.03,2.67-3.16,5.61-.63,8.63,2.33,2.78,5.8,2.55,8.39,1.34,2.97-1.38,4.39-4.03,3.41-7.78-1.63-6.22-.37-12.67-.61-19.02-.02-.65.47-1.87.73-1.87.94,0,2.03.19,2.8.68,1.84,1.17,1.34,3.09,1.34,4.78.03,7.34-.12,14.68.07,22.02.06,2.56-.87,4.29-2.74,6.01-13.2,12.15-26.27,24.43-39.52,36.53-2.56,2.34-3.61,4.78-3.56,8.11.16,10.81-.01,21.63.06,32.44.03,4.25,0,8.37-2.38,12.25-2.01,3.29-.11,5.88,2.57,7.98,2.58,2.02,5.39,1.81,7.88-.04,2.8-2.08,4.34-4.85,2.28-8.07-1.92-2.99-1.99-6.15-1.98-9.42.04-10.23.26-20.48-.11-30.7-.17-4.68,1.52-7.87,5.01-11.05,12.26-11.15,24.15-22.64,36.36-33.83,3.3-3.03,5.07-6.17,4.79-10.62-.35-5.58-.08-11.2-.08-16.8,0-1.78,0-4.17,2.74-2.83,2.85,1.39,6.25,2.71,5.96,7-.35,5.19-.14,10.42-.06,15.64.03,2.08-.76,3.72-2.27,5.15-13.21,12.44-26.11,25.19-39.82,37.12-3.71,3.22-4.88,6.01-4.85,10.26.11,19.31.03,38.63.08,57.94,0,2.71,0,5.39-1.4,7.82-2.06,3.56-.83,6.31,2.24,8.58,2.61,1.93,5.49,1.62,7.94-.09,3.39-2.38,2.85-5.69,1.45-8.84-.78-1.76-1.66-3.33-1.65-5.38.09-20.47.05-40.94.05-61.41,0-1.53-.06-2.89,1.47-4.1,14.77-11.69,27.52-25.35,41.44-37.88,2.83-2.55,4.08-5.58,3.92-9.3-.19-4.47-.05-8.95-.05-13.79,7.87,3.29,9.67,18.36,3.67,24.05-12.44,11.8-24.92,23.55-37.52,35.19-2.53,2.34-3.66,4.77-3.61,8.11.18,11.97.09,23.95.17,35.92.03,3.85.14,7.51-2.54,10.96-2.1,2.71-.78,5.54,1.84,7.62,2.28,1.81,5.09,1.95,7.33.42,2.45-1.68,4.78-3.96,2.88-7.34-1.8-3.2-1.78-6.62-1.77-10.09.05-11.2.18-22.41-.07-33.6-.09-4.03,1.38-6.9,4.35-9.62,9.41-8.63,18.68-17.41,27.94-26.18,4.46-4.22,9.46-8.04,12.7-13.25,1.16-1.86,3.33-3.76.28-6.48-1.64-1.46-2.09-5.67.45-6.62,2.66-.99,5.51,1.33,6.81,4.14.39.84.28,1.87.5,2.8,1.87,7.77-2.75,12.67-8.46,17.16-11.21,8.82-19.4,20.88-33.18,27-3.26,1.45-3.44,4.77-2.48,7.65.82,2.48,2.92,4,5.92,4.27,3.7.33,6.71-1.71,7.05-4.36.61-4.69,4.04-6.97,6.98-9.75,8.56-8.06,17.15-16.11,25.97-23.91,4.03-3.56,6.11-7.5,5.77-12.7-.08-1.24-1.17-3.32,1.44-3.7,2.23-.33,3.57,1.37,4.24,2.77.7,1.47.38,3.4.38,5.13.01,43.84,0,87.68.02,131.52,0,2.7,0,5.28-1.7,7.74-1.82,2.64-1.2,5.37,1.72,6.94,3.11,1.68,6.6,2.27,9.65-.27,2.53-2.11,3.94-4.69,1.19-7.51-2.48-2.54-2.54-5.5-2.54-8.64.02-32.25,0-64.5-.02-96.75,0-10.98,0-21.97,0-32.94,5.96-.09,7.9,1.94,7.87,7.45-.26,50.99-.15,101.97-.16,152.96,0,2.84.09,5.53-1.72,8.27-1.84,2.79-1.28,6.02,1.93,8.15,3.07,2.04,6.18,1.74,8.88-.57,2.87-2.45,3.19-5.82.76-8.27-2.66-2.67-2.42-5.51-2.42-8.53,0-43.84,0-87.68,0-131.52,0-8.69.14-17.38-.06-26.07-.09-3.71,2.9-4.87,5.31-5.09,3.77-.35,2.04,3.03,2.05,4.67.13,24.91.39,49.83,0,74.74-.33,21.35,1.67,42.75-1.19,64.06-.36,2.66.06,5.33,2.88,6.41,2.59.99,5.51,1.39,7.98-.9,2.45-2.27,2.54-5.18,1.12-7.43-1.81-2.86-2.08-5.67-2.08-8.77.03-44.42.02-88.84.03-133.26,0-1.35-.13-2.72.05-4.05.36-2.59,2.77-3.61,4.83-3.53,2.34.09,1.25,2.49,1.19,3.77-.27,6.12.35,11.48,5.85,16.11,9.78,8.24,18.88,17.19,28.24,25.87,2.01,1.86,3.91,3.61,4.38,6.65.5,3.27,2.99,5.38,6.89,5.28,3.52-.08,5.83-1.82,6.51-4.97.77-3.58-.35-6.65-4.43-7.79-3.92-1.09-6.71-3.59-9.49-6.11-8.27-7.49-15.95-15.63-24.8-22.44-7.61-5.86-5.38-13.17-5.35-20.15.01-2.5,3.23-4.23,6.32-4.63,1.21-.16,1.96.35,1.94,1.56-.05,2.5.92,5.86-.43,7.34-3.24,3.54-1.23,5.79.84,8.39,7.43,9.29,16.2,17.65,25.71,24.75,15.1,11.27,21.38,24.73,18.45,42.53-1.39,8.44,1.73,17.24-2.31,25.62-1.23,2.55,1.23,4.91,3.46,6.22,2.33,1.37,5.1,1.26,7.37-.64,2.37-1.98,3.77-4.78,1.87-7.16-3.18-3.98-2.71-8.29-2.71-12.67.02-11.59,0-23.17.14-34.76.04-3.08-.9-5.44-3.3-7.64-9.41-8.63-18.03-18.13-28.12-25.97-10.14-7.88-14.32-16.87-12.79-29.01.55-4.38,2.14-6.37,6.7-7.35,0,6.19.1,11.79-.04,17.38-.07,2.63.51,5.07,2.41,6.87,13.75,13.01,27.43,26.09,41.58,38.7,2.33,2.07,2.9,3.68,2.9,6.19-.02,17.77.04,35.54-.05,53.3-.02,4.52.67,9.01-2.06,13.42-1.39,2.24-1.21,5.83,2,7.74,2.57,1.52,5.38,1.95,7.95-.08,2.73-2.15,4.31-4.64,2.3-8.06-1.64-2.79-1.55-5.87-1.54-8.95.04-19.51.02-39.01.02-58.52,0-2.49.36-5.06-2.02-6.95-14.45-11.49-26.88-24.91-40.56-37.15-1.78-1.59-4.01-3.23-4.11-5.53-.3-7.33-.48-14.69,0-22,.21-3.08,3.83-4.85,6.73-4.72,3.25.14,1.53,3.34,1.61,5.11.25,5.59.36,11.21,0,16.79-.28,4.42,1.27,7.61,4.62,10.68,12.67,11.58,25.03,23.45,37.67,35.06,2.7,2.48,3.92,5.03,3.84,8.59-.21,9.27,0,18.54-.11,27.81-.06,4.93.74,9.88-2.35,14.57-1.66,2.51.07,5.28,2.5,7.06,2.46,1.81,5.19,2.29,7.87.26,2.5-1.89,4.78-4.22,2.97-7.32-3.16-5.4-2.54-11.14-2.56-16.87-.02-9.46-.14-18.93.03-28.39.06-3.53-1.12-6.05-3.87-8.55-13.27-12.08-26.31-24.39-39.47-36.58-1.52-1.41-2.5-2.75-2.47-4.94.15-8.69.11-17.38.03-26.07-.03-3.09,1.29-4.85,5.21-5.45-1.13,8.62,1.01,16.9-1.3,25.1-.86,3.03.93,5.54,3.57,6.72,2.73,1.23,5.94,1.46,8.47-1.05,2.28-2.26,2.66-5.12.9-7.37-6.75-8.64-2.26-18.27-2.83-27.38-.19-2.99,4.68-5.02,7.84-5.08,2.99-.05,1.47,3.37,1.49,5.15.16,13.52.49,27.05-.09,40.55-.27,6.44,2.26,10.9,6.77,15.16,11.58,10.95,22.98,22.05,34.46,33.1,1.55,1.49,3.41,2.85,3.32,5.22-.62,15.77,1.32,31.58-1.05,47.32-.49,3.29.66,5.95,3.98,7.71,3.24,1.72,5.63.16,7.6-1.73,2.58-2.48,3.01-5.83.5-8.36-2.46-2.48-2.41-5.11-2.4-7.99.03-12.55-.08-25.11.12-37.66.05-3.17-1.05-5.34-3.42-7.53-12.45-11.51-24.68-23.23-37.12-34.76-3.55-3.29-5.38-6.78-5.28-11.66.3-14.48.11-28.97.11-43.45,0-1.35-.2-2.74.07-4.05.59-2.87,2.62-5.36,5.57-5.16,3.28.22,1.58,3.4,1.6,5.17.14,16.41.19,32.83.02,49.24-.04,3.58,1.1,6.15,3.87,8.58,9.59,8.42,18.61,17.45,28.57,25.45,10.66,8.58,17.57,17.76,15.7,32.03-2.24,17.06,2.66,34.54-2.75,51.54-.95,2.98.54,5.52,3.12,6.85,2.33,1.2,5.29,1.18,7.47-.79,2.47-2.22,3.32-5.33,1.35-7.82-1.97-2.49-1.88-4.95-1.88-7.6.03-19.7.03-39.4.19-59.1.02-3.1-.79-5.57-3.2-7.69-13.45-11.85-26.79-23.81-40.33-35.57-2.83-2.46-3.78-5.08-3.74-8.59.19-17.76.17-35.53.24-53.29,0-.96-.11-1.97.14-2.88.89-3.28,4.32-4.57,6.85-4.75,3.35-.24,1.69,3.17,1.71,4.87.14,18.35.25,36.7-.02,55.04-.07,4.67,1.46,8,5.05,11.1,12.24,10.56,24.31,21.31,36.41,32.01,2.91,2.57,4.97,5.39,4.7,9.56-.94,14.73,2.43,29.59-1.61,44.24-.9,3.28,1.13,5.75,4.08,6.95,2.97,1.21,6.12.73,8.23-1.98,2.03-2.62,2.37-5.46-.4-7.77-2.17-1.81-2.1-3.96-2.1-6.28.03-12.55-.14-25.11.11-37.66.08-4.03-1.26-6.93-4.35-9.61-13.1-11.39-26.02-22.97-39.13-34.34-2.64-2.29-3.58-4.7-3.55-8.04.16-18.73.04-37.47.13-56.2.01-2.19-1.32-5.64.84-6.34,3.21-1.04,5.06,2.62,7.19,4.45,1.31,1.13,1.56,3.39,1.55,5.41-.07,14.1.74,28.24-.26,42.27-.77,10.83,2.98,18.21,11.52,25.46,9.37,7.96,20.37,14.88,25.83,26.46,1.12,2.38,3.88,4.18,7.23,2.79,3.02-1.25,5.13-3.51,5.05-6.6-.08-3.28-2.15-5.94-5.63-6.69-2.22-.48-4.11-.77-5.87-2.44-8.38-7.95-16.84-15.82-25.5-23.49-3.58-3.17-4.93-6.6-4.84-11.22.27-15.06-.07-30.13.19-45.19.1-5.67-.29-10.73-5.92-14.16-2.46-1.5-1.98-3.19.42-4.34,1.9-.91,3.68-2.16,6.16-.52,3.12,2.06,5.65,3.89,5.6,8.1-.21,16.8.03,33.6-.15,50.4-.05,4.37,1.63,7.54,4.63,10.76,16.06,17.19,35.35,31.53,49.86,50.08,1.84,2.35,4.38,3.54,7.53,2.09,2.73-1.26,4.88-3.04,4.51-6.22-.36-3.14-2.17-5.57-5.62-5.88-3.63-.32-5.95-2.21-8.27-4.46-13.27-12.89-26.51-25.81-39.92-38.56-2.96-2.82-4.23-5.76-4.19-9.72.17-16.41-.01-32.83.13-49.25.04-4.51-.58-8.27-5.43-10.58-2.73-1.3-2.65-3.07.29-4.54,4.69-2.34,10,1.45,10.03,7.43.07,15.64.38,31.3-.14,46.93-.23,7.06,3,11.5,7.81,16.44,10.1,10.39,23.87,17.54,30.76,30.77,1.43,2.76,4.57,3.52,7.43,2.48,2.62-.96,4.8-2.74,4.76-6.04-.05-3.37-1.63-5.65-4.94-6.36-2.29-.49-4.23-1.2-5.89-2.68-9.2-8.25-18.35-16.55-27.62-24.73-2.59-2.28-3.64-4.81-3.61-8.15.14-14.1-.12-28.2.13-42.29.13-7.29.57-14.42-7.72-18.92,7.92-5.28,15.37-9.57,25.02-8.86,5.11.38,10.28.25,15.41,0,4.22-.2,7.59.94,10.29,3.99,11.17,12.63,25.96,22.26,34.56,37.04,1.47,2.52,4.33,3.92,7.39,2.8,2.93-1.08,5.26-3.08,5.01-6.55-.21-2.91-1.36-5.31-4.67-5.9-4.11-.73-6.82-3.19-9.51-5.88-7.29-7.3-15.03-14.24-21.93-21.85-7.5-8.26-15.81-13.89-28.05-11.8-.16.03-.42-.46-.91-1.02,4.4-2.33,8.56-5.03,13.12-6.84,5.53-2.2,10.47-2.04,15.32,2.85,15.11,15.22,30.79,29.95,46.26,44.85,2.69,2.59,5.52,4.96,6.34,8.85.82,3.93,4.15,5.09,7.92,4.63,3.05-.37,5.1-2.36,5.66-5.23.77-3.97-1.8-6.29-5.36-7.27-2.72-.75-4.72-2.11-6.59-3.91-16.73-16.15-33.5-32.28-50.2-48.46-4.06-3.93-4.06-4.11-1.95-5.7,3.04-2.3,5.88-3.72,9.37-.04,4.63,4.89,10.01,9.16,14.78,13.94,6.42,6.43,15.44,10.72,18.15,20.29.9,3.18,4.77,3.52,7.88,2.78,2.9-.69,5.01-2.68,5.26-5.66.27-3.28-1.78-5.67-4.74-6.76-2.31-.84-4.53-1.49-6.37-3.17-8.83-8.04-17.74-16.01-26.6-24.03-1.42-1.28-3.88-2.39-2.95-4.6.95-2.26,3.69-2.9,5.99-3.43,2.48-.57,4.15,1.24,5.72,2.71,11.05,10.31,22.28,20.45,32.98,31.06,4.21,4.18,8.65,5.75,14.59,5.61,13.35-.33,26.71-.15,40.07-.31,4.33-.05,8.38-.27,11.94,3.05,2.1,1.95,5.26,1.7,7.9-.14,2.61-1.82,3.78-4.36,2.67-7.07-1.11-2.7-3.21-5.01-6.96-4.56-2.81.34-5.6,1.08-8.4,1.1-16.44.11-32.89.05-49.33.05-1.83,0-3.54.1-5.06-1.34-11.45-10.81-22.94-21.58-34.5-32.28-2.79-2.58-1.65-3.8,1.09-5.53,3.5-2.21,4.72.47,6.4,2.09,7.99,7.71,15.91,15.48,23.86,23.23,2.34,2.28,4.9,3.9,8.53,3.88,24.66-.15,49.32-.18,73.98-.34,4.13-.03,8.07.07,11.78,2.17,3.6,2.04,6.23.21,8.3-2.51,2.32-3.05,1.33-6.01-1.11-8.34-2.36-2.26-5.44-2.96-8.19-.45-2.16,1.97-4.64,2.12-7.37,2.11-24.46-.05-48.92-.1-73.38.01-3.14.01-5.41-.81-7.56-2.89-9.29-8.99-18.55-18.01-28.12-26.73-3.72-3.39-4.07-6.92-3.02-11.73,1.86,1.25,3.3,1.98,4.42,3.01,8.66,7.92,17.33,15.84,25.85,23.9,2.9,2.74,6,4.1,10.24,4.03,12.33-.2,24.67-.18,37-.03,7.25.09,14.62-1.13,21.6,2.29,2.98,1.46,6.17.37,7.98-2.39,1.61-2.45,1.59-5.21-.55-7.49-2.39-2.55-5.39-3.28-8.72-1.65-2.33,1.14-4.47,2.33-7.35,2.31-16.03-.14-32.07-.13-48.1,0-2.93.02-5.02-.87-7.04-2.74-9.77-9.11-19.01-18.83-29.66-26.94-7.36-5.61-6.16-11.86-6.1-18.87,2.84.16,3.8,1.96,5.14,3.31,4.17,4.25,8.5,8.36,12.53,12.73,3.19,3.46,6.8,4.86,11.79,4.77,15.82-.29,31.65-.06,47.48-.15,3.38-.02,6.34.31,9,2.67,3.1,2.75,6.47,1.92,9.2-.68,2.35-2.24,3.17-5,.94-7.81-2.27-2.86-5.1-4.57-8.91-2.52-2.63,1.42-5.4,1.48-8.28,1.48-15.83-.05-31.66-.13-47.48.02-3.54.03-6.11-.77-8.53-3.31-6.15-6.47-12.28-13.01-19.05-18.88-4.06-3.52-4.59-6.99-3.26-12.19,8.16,7.12,15.88,13.65,23.31,20.45,2.71,2.48,5.5,3.5,9.26,3.48,24.67-.12,49.33-.07,74-.05,3.2,0,6.21-.07,9.39,1.65,2.79,1.51,6.8,1.83,9.41-1.41,1.93-2.39,1.9-5,.05-7.38-2.54-3.26-6.27-2.76-9.42-1.49-2.3.93-4.36,1.68-6.9,1.68-24.87-.06-49.74-.07-74.61,0-2.62,0-4.53-.57-6.48-2.39-7.87-7.32-15.64-14.79-24.09-21.49-5.09-4.04-5.11-8.37-3.91-15.28,8.39,8.12,15.85,15.22,23.14,22.46,4.18,4.15,8.91,6.16,15.2,6.04,15.81-.32,31.64-.13,47.46-.11,2.83,0,5.65-.17,8.22,1.58,3.31,2.24,6.21,1.09,8.56-1.64,2.43-2.83,2.11-5.85-.15-8.48-2.27-2.64-5.29-3.51-8.63-1.45-2.27,1.4-4.67,2.13-7.45,2.12-16.24-.06-32.48-.07-48.71,0-3.76.02-6.71-1.23-9.31-3.7-7.49-7.12-14.48-14.84-22.75-21.04-6.8-5.1-6.96-10.83-5.78-18.28,7.45,4.89,12.67,11.37,19.06,16.63,3.5,2.88,7.33,5.46,8.53,10.17.97,3.83,4.1,5.14,8,4.65,3.58-.45,5.4-3.04,5.63-5.98.26-3.32-1.86-5.76-5.39-6.79-3.4-1-6.02-2.96-8.55-5.29-6.3-5.81-12.32-12.03-19.37-16.91-7.33-5.08-9.2-11.13-8.61-19.17.34-4.61,1.21-6.21,6.49-6.18,47.89.2,95.78.12,143.68.09,2.48,0,4.92.03,7.1,1.23,3.72,2.07,6.8.97,9.13-1.9,1.83-2.26,2.27-4.78-.14-7.32-2.78-2.92-6.01-3.42-9.28-1.49-2.28,1.35-4.51,1.55-6.96,1.55-48.3,0-96.6-.03-144.91.05-3.42,0-5.05-.46-5.07-4.33-.02-3.99,1.88-4.25,5.17-4.24,60.22.05,120.44.03,180.67.07,2.4,0,4.91-.4,7.1,1.17,3.43,2.45,6.54,1.6,9.23-1.15,2.4-2.46,2.38-5.36.52-7.94ZM761.36,631.18c0,4.3-1.16,6.85-5.34,9.08-48.11,25.64-96.07,51.53-144.12,77.26-33.64,18.01-67.37,35.87-101.05,53.81-7.69,4.1-15.45,8.1-22.93,12.52-2.68,1.59-4.69,1.53-7.16.17-48.57-26.63-97.13-53.29-145.75-79.85-38.46-21.01-76.98-41.92-115.53-62.77-4.75-2.57-7.24-5.31-7.2-11.1.32-47.31.18-94.62.18-141.94s.05-94.63-.08-141.94c-.01-4.44.96-7.25,5.51-9.68,30.41-16.21,60.59-32.81,90.87-49.23,43.77-23.73,87.55-47.43,131.35-71.1,14.9-8.05,29.95-15.88,44.75-24.08,3.16-1.75,5.46-1.64,8.39,0,49.68,27.76,99.37,55.5,149.1,83.18,32.55,18.11,65.18,36.1,97.77,54.17,1.91,1.06,3.57,2.71,5.6,3.32,13.85,4.11,15.95,13.18,15.86,25.89-.63,90.76-.37,181.53-.24,272.29Z"/>
  <g>
    <path class="cls-1" d="M330.69,518.11c.68,0,1.17,0,1.65,0,8.73,0,17.46,0,26.19.01,1.1,0,2.23.06,3.31.28,2.43.51,3.95,2.17,3.99,4.66.09,6.42.1,12.84,0,19.25-.05,2.88-2.01,4.6-5.18,4.93-.53.06-1.07.06-1.6.06-17.13,0-34.26,0-51.39,0-.74,0-1.49-.04-2.21-.18-2.92-.54-4.42-2.27-4.58-5.25-.04-.7-.04-1.4-.04-2.1,0-34.48,0-59.89,0-94.36,0-.82-.02-1.65.07-2.47.34-3.18,2.29-4.96,5.78-5.02,4.9-.09,9.8-.05,14.7-.03,1.64,0,3.3-.01,4.92.23,2.45.37,3.84,1.89,4.2,4.35.15,1.01.2,2.05.2,3.07.01,26.62,0,44.17,0,70.79v1.78Z"/>
    <path class="cls-1" d="M372.65,507.81c0-10.61,0-21.23,0-31.84,0-.62,0-1.23.03-1.85.14-3.84,1.9-5.71,5.72-5.77,5.43-.09,10.87-.09,16.3,0,3.86.06,5.72,2.02,5.73,5.89.02,22.38.02,44.76,0,67.14,0,3.87-1.87,5.83-5.72,5.89-5.43.09-10.87.08-16.3,0-3.82-.06-5.69-1.93-5.71-5.76-.05-11.23-.02-22.46-.02-33.69,0,0-.02,0-.03,0Z"/>
    <path class="cls-1" d="M400.29,452.28c.06,7.45-6.38,13.98-13.76,13.96-7.48-.02-13.83-6.36-13.87-13.86-.05-7.46,6.3-13.88,13.77-13.95,7.4-.06,13.8,6.33,13.86,13.85Z"/>
    <path class="cls-1" d="M432.88,470.33c10.63-4.9,21.26-4.17,31.69.06,9.65,3.91,15.19,11.57,17.33,21.59.79,3.67,1.1,7.49,1.14,11.25.14,12.22.05,24.43.05,36.65,0,.49-.02.99-.06,1.48-.29,4.14-2.1,5.89-6.3,5.93-5.19.05-10.38.05-15.56,0-4.27-.04-6.17-1.92-6.19-6.22-.04-12.55-.03-25.09-.02-37.64,0-2.87-.87-5.33-3.16-7.17-2.33-1.87-4.94-2.25-7.64-1.02-2.78,1.26-4.76,3.3-4.96,6.51-.14,2.25-.05,4.52-.05,6.79,0,10.41,0,20.81,0,31.22,0,.74,0,1.48-.06,2.22-.26,3.4-2.02,5.22-5.45,5.27-5.68.09-11.36.1-17.04,0-3.5-.06-5.4-2.12-5.55-5.63-.03-.62-.04-1.23-.04-1.85,0-21.31,0-42.62,0-63.92,0-1.1.06-2.22.26-3.31.41-2.29,1.89-3.57,4.14-3.99.65-.12,1.31-.21,1.96-.22,4.32-.02,8.65-.03,12.97,0,1.74,0,2.2.42,2.53,2Z"/>
    <path class="cls-1" d="M522.5,486.07c2.55-4.03,5.24-7.98,7.59-12.12,2.32-4.09,5.5-5.93,10.28-5.71,5.83.27,11.69.06,17.54.07.7,0,1.41.03,2.08.17,2.59.54,3.5,2.83,2.06,5.07-1.29,2.01-2.58,4.01-3.86,6.03-5.64,8.93-11.27,17.88-16.93,26.8-.5.79-.58,1.33-.05,2.18,7.02,11.18,13.98,22.39,20.97,33.58,1.61,2.58.34,5.04-2.76,5.13-3.21.09-6.42.03-9.63.04-3.42,0-6.84-.08-10.25.02-3.39.1-6-1.16-7.81-4.03-2.83-4.48-5.65-8.98-8.47-13.47-.26-.41-.52-.83-.92-1.48-.04.58-.09.91-.09,1.25,0,3.5,0,6.99,0,10.49,0,.62,0,1.24-.06,1.85-.31,3.3-2.08,5.21-5.39,5.29-5.68.14-11.36.14-17.04,0-3.46-.08-5.29-2.15-5.44-5.61-.02-.58-.04-1.15-.04-1.73,0-31.59,0-63.19,0-94.78,0-1.02.02-2.07.22-3.06.53-2.63,2.09-3.98,4.77-4.14,1.56-.09,3.13-.08,4.69-.08,4.24,0,8.48-.03,12.72.06,3.48.07,5.26,1.87,5.5,5.35.05.66.04,1.32.04,1.97,0,13.16,0,26.33,0,39.49v1.32c.08.02.17.03.25.05Z"/>
    <path class="cls-1" d="M599.6,497.08c0,17.32,0-5.1,0,12.22,0,5.54-1.75,7.28-7.33,7.28-5.11,0-10.21,0-15.32,0-.62,0-1.24,0-1.85-.05-3.18-.29-4.83-1.86-5.27-5.02-.1-.73-.11-1.48-.11-2.22,0-34.64,0-29.54,0-64.18,0-5.46,1.81-7.28,7.24-7.29,5.19,0,10.38,0,15.57,0,.54,0,1.07,0,1.6.04,3.29.23,5.1,1.99,5.42,5.28.07.69.06,1.4.06,2.1,0,17.28,0,34.56,0,51.84Z"/>
    <path class="cls-1" d="M631.01,467.03c-.69,0-1.18,0-1.67,0-5.6,0-11.2.02-16.8-.04-3.44-.04-5.42-1.89-5.48-5.34-.11-6.09-.1-12.18,0-18.26.06-3.35,1.98-5.19,5.31-5.49.7-.06,1.4-.06,2.1-.06,21.21,0,42.41,0,63.62,0,5.76,0,7.48,1.73,7.48,7.53,0,4.85,0,9.71,0,14.56,0,.58,0,1.15-.05,1.73-.28,3.55-2.07,5.3-5.64,5.34-5.81.06-11.61.03-17.42.04-.48,0-.97,0-1.58,0,0,.67,0,1.19,0,1.72,0,26.74,0,13.74,0,40.48,0,.94,0,1.9-.16,2.82-.54,2.88-2.26,4.45-5.17,4.49-6.42.07-12.85.07-19.27,0-2.88-.03-4.65-1.72-5.08-4.57-.14-.93-.18-1.88-.18-2.83,0-26.7,0-13.66,0-40.36v-1.75Z"/>
  </g>
</svg>