<?xml version="1.0" encoding="utf-8"?>
<!-- Generator: Adobe Illustrator 28.0.0, SVG Export Plug-In . SVG Version: 6.00 Build 0)  -->
<svg version="1.1" id="Capa_1" xmlns="http://www.w3.org/2000/svg" xmlns:xlink="http://www.w3.org/1999/xlink" x="0px" y="0px"
	 viewBox="0 0 1200 1200" style="enable-background:new 0 0 1200 1200;" xml:space="preserve">
<style type="text/css">
	.st0{fill:#FFFFFF;}
	.st1{fill:#043A53;}
</style>
<g>
	<g>
		<path d="M561.44,507.98c0.88-22.45,0.88-22.45,23.36-22.34c27.89,0.13,27.89,0.13,27.9,27.53c0.01,27.26,0,54.53,0,84.04
			c12.01-14.73,23.03-27.91,33.64-41.41c4.15-5.28,8.48-8.38,15.66-7.97c10.65,0.6,21.37,0.05,32.05,0.27
			c4.56,0.09,9.55-0.87,12.06,5.2c2.34,5.66,0.69,9.92-2.89,14.02c-14.76,16.89-29.38,33.92-44.4,50.58
			c-10.48,11.63-10.86,11.52-0.53,22.92c16.55,18.28,33.25,36.43,49.96,54.56c4.44,4.82,10.54,8.84,7.27,16.85
			c-3.29,8.05-10.29,2.42-15.37,3.95c-1.71,0.51-3.65,0.29-5.48,0.41c-5.13-0.18-10.36-1.09-15.36-0.39
			c-14.59,2.05-24.3-3.4-32.88-15.56c-9.96-14.12-22.51-26.42-35.85-41.71c0.69,16.64-1.65,30.33,1.39,43.98
			c0.84,4.56,0.84,8.67-1.04,14.26c-4.18,2.41-10.53,1.04-15.92,1.35c-5.5-0.22-11-0.57-16.5-0.64
			c-16.57-0.21-16.54-0.17-16.58-16.84C561.76,636.68,561.6,572.33,561.44,507.98z"/>
		<path d="M531.8,716.48L531.8,716.48c-0.74,0.09-1.48,0.17-2.22,0.15c-4.03-0.15-8.06-0.36-12.1-0.38
			c-22.31-0.06-23.59-1.55-23.3-23.65c0.28-21.34,0.22-42.69,0-64.03c-0.12-11.34-5.66-16.45-17.04-16.64
			c-4.05-0.07-8.1-0.02-12.15-0.02c-21.62,0-21.78,0-20.47,21.82c0.02,0.33,0.03,0.66,0.03,0.99c-0.08,22.34-0.17,44.67-0.23,67.01
			c-0.04,15.98-0.06,16.2-14.99,16.85c-0.36,0.02-0.74,0.02-1.1,0.01c-7.55-0.16-15.11-0.64-22.63-0.33
			c-8.95,0.37-12.55-1.97-12.42-12.32c0.6-44.57,0.04-89.15-0.1-133.72l0-6.72c0-8.72,7.2-15.72,15.92-15.47
			c8.14,0.23,16.09-0.26,24.02-0.02c3.56,0.11,7.47-0.91,7,5.19c-0.44,5.67,4.36,3.61,7.19,3.8c16.81,1.13,33.58-0.65,50.53,1.66
			c19.23,2.62,29.01,15.59,38.5,29.46c3.6,5.26,5.87,11.42,8.47,17.35c0.85,1.95,1.29,4.05,1.29,6.17c0,28.95,0.01,57.91,0.01,86.86
			C546.02,708.69,539.91,715.55,531.8,716.48z"/>
		<path d="M807.48,503.55c0.66-22.4-3.31-22.37,23.28-22.23c35.34,0.18,70.69,0.3,106.03-0.12c9.4-0.11,14.46,1.55,12.95,12.48
			c-1,7.22-0.16,14.69-0.22,22.05c-0.14,18.82,1.76,15.4-15.53,16.91c-3.26-0.16-6.51-0.46-9.77-0.47
			c-22.36-0.06-22.36-0.04-20.99,22.32c-0.08,25.75-0.16,51.49-0.23,77.24c-0.04,15.04-0.27,15.28-15.52,15.79
			c-8.07-0.28-16.14-0.64-24.21-0.81c-9.61-0.2-13.53-4.69-13.39-14.55c0.41-29.07-0.33-58.16,0.4-87.22
			c0.26-10.2-1.62-14.95-12.83-13.24c-5.73,0.88-11.75,0.08-17.63-0.2c-7.85-0.38-12.75-3.51-12-12.53
			C808.24,513.87,807.63,508.69,807.48,503.55z"/>
		<path d="M302.85,553.23c0.05,0.82,0.07,1.63,0.07,2.45c0,42.73,0.01,85.47-0.02,128.2c-0.01,6.27-0.27,12.53-0.37,18.8
			c-0.23,14.59-0.22,15.19-13.75,16.04c-1.21,0.08-2.42,0.1-3.63,0.08c-8.22-0.17-16.43-0.52-24.64-0.33
			c-6.16,0.14-8.76-1.43-9.51-8.4c-1.12-10.33,0.35-20.44,0.31-30.65c-0.21-53.32-0.06-106.64-0.18-159.97
			c-0.01-2.78,0.72-5.7,0.17-8.48c-0.79-3.95-1.44-7.95-1.28-11.98c0.53-13.29,3.41-13.45,21.94-13.07
			c9.67,0.2,21.54-4.33,28.45,3.31c5.63,6.23,1.61,16.16,2.2,24.85c0.16,2.32,0.18,4.64,0.03,6.96
			C301.93,531.78,302.21,542.5,302.85,553.23z"/>
		<path d="M743.18,503.55c0.82-24.1-2.51-22.59,22.79-22.2c2.56,0.04,5.13,0.05,7.69,0c27.78-0.55,22.43,1.68,23.16,22.19
			c0.03,16.98,0.06,33.95,0.09,50.93c-0.09,25.77-0.2,51.53-0.28,77.3c-0.04,14.88-0.24,15.11-15.53,15.77
			c-7.35-0.23-14.71-0.44-22.06-0.68c-14.68-0.48-15.39-1.22-15.44-16.12C743.46,588.35,743.32,545.95,743.18,503.55z"/>
		<path d="M322.19,572.23c-0.02-2.96-0.03-5.92-0.05-8.89c-1.05-10.31,3.19-14.32,13.81-13.32c8.69,0.82,17.56-0.19,26.34-0.38
			c8.2-0.63,11.61,1.54,11.46,11.34c-0.72,47.15-0.31,94.32-0.33,141.48c-0.01,15.57-0.06,15.57-15.54,16.23
			c-8.44-0.14-16.92-0.87-25.31-0.27c-8.48,0.61-10.21-2.65-10.16-10.66C322.68,662.58,322.33,617.41,322.19,572.23z"/>
		<path d="M315.73,510.55c-0.26-1.73-0.06-3.5,0.5-5.16c2.13-6.39,4.64-12.42,10.62-16.9c13.82-10.37,33.72-9.42,43.9,2.78
			c11.1,13.3,9.72,32.42-3.2,44.55c-0.16,0.15-0.32,0.3-0.48,0.46c-1.6,1.51-3.6,2.47-5.75,2.94c-6.24,1.35-12.06,4.92-18.94,3.2
			C325.49,538.19,318.65,530.33,315.73,510.55z"/>
	</g>
</g>
</svg>
