<?xml version="1.0" encoding="UTF-8"?>
<svg id="Capa_2" data-name="Capa 2" xmlns="http://www.w3.org/2000/svg" viewBox="0 0 700.01 237.62">
  <defs>
    <style>
      .cls-1 {
        fill: #043a53;
      }
    </style>
  </defs>
  <g id="Capa_1-2" data-name="Capa 1">
    <g>
      <path class="cls-1" d="m311.44,26.79q.88-22.45,23.36-22.34,27.89.13,27.9,27.53c.01,27.26,0,54.53,0,84.04,12.01-14.73,23.03-27.91,33.64-41.41,4.15-5.28,8.48-8.38,15.66-7.97,10.65.6,21.37.05,32.05.27,4.56.09,9.55-.87,12.06,5.2,2.34,5.66.69,9.92-2.89,14.02-14.76,16.89-29.38,33.92-44.4,50.58-10.48,11.63-10.86,11.52-.53,22.92,16.55,18.28,33.25,36.43,49.96,54.56,4.44,4.82,10.54,8.84,7.27,16.85-3.29,8.05-10.29,2.42-15.37,3.95-1.71.51-3.65.29-5.48.41-5.13-.18-10.36-1.09-15.36-.39-14.59,2.05-24.3-3.4-32.88-15.56-9.96-14.12-22.51-26.42-35.85-41.71.69,16.64-1.65,30.33,1.39,43.98.84,4.56.84,8.67-1.04,14.26-4.18,2.41-10.53,1.04-15.92,1.35-5.5-.22-11-.57-16.5-.64q-16.57-.21-16.58-16.84c-.17-64.36-.33-128.71-.49-193.06Z"/>
      <path class="cls-1" d="m281.8,235.29h0c-.74.09-1.48.17-2.22.15-4.03-.15-8.06-.36-12.1-.38-22.31-.06-23.59-1.55-23.3-23.65.28-21.34.22-42.69,0-64.03-.12-11.34-5.66-16.45-17.04-16.64-4.05-.07-8.1-.02-12.15-.02-21.62,0-21.78,0-20.47,21.82.02.33.03.66.03.99-.08,22.34-.17,44.67-.23,67.01-.04,15.98-.06,16.2-14.99,16.85-.36.02-.74.02-1.1.01-7.55-.16-15.11-.64-22.63-.33-8.95.37-12.55-1.97-12.42-12.32.6-44.57.04-89.15-.1-133.72v-6.72c0-8.72,7.2-15.72,15.92-15.47,8.14.23,16.09-.26,24.02-.02,3.56.11,7.47-.91,7,5.19-.44,5.67,4.36,3.61,7.19,3.8,16.81,1.13,33.58-.65,50.53,1.66,19.23,2.62,29.01,15.59,38.5,29.46,3.6,5.26,5.87,11.42,8.47,17.35.85,1.95,1.29,4.05,1.29,6.17,0,28.95.01,57.91.01,86.86.01,8.19-6.1,15.05-14.21,15.98Z"/>
      <path class="cls-1" d="m557.48,22.36C558.14-.04,554.17,0,580.76.13c35.34.18,70.69.3,106.03-.12,9.4-.11,14.46,1.55,12.95,12.48-1,7.22-.16,14.69-.22,22.05-.14,18.82,1.76,15.4-15.53,16.91-3.26-.16-6.51-.46-9.77-.47q-22.36-.06-20.99,22.32c-.08,25.75-.16,51.49-.23,77.24-.04,15.04-.27,15.28-15.52,15.79-8.07-.28-16.14-.64-24.21-.81-9.61-.2-13.53-4.69-13.39-14.55.41-29.07-.33-58.16.4-87.22.26-10.2-1.62-14.95-12.83-13.24-5.73.88-11.75.08-17.63-.2-7.85-.38-12.75-3.51-12-12.53.42-5.1-.19-10.28-.34-15.42Z"/>
      <path class="cls-1" d="m52.85,72.04c.05.82.07,1.63.07,2.45,0,42.73.01,85.47-.02,128.2-.01,6.27-.27,12.53-.37,18.8-.23,14.59-.22,15.19-13.75,16.04-1.21.08-2.42.1-3.63.08-8.22-.17-16.43-.52-24.64-.33-6.16.14-8.76-1.43-9.51-8.4-1.12-10.33.35-20.44.31-30.65-.21-53.32-.06-106.64-.18-159.97,0-2.78.72-5.7.17-8.48C.51,25.83-.14,21.83.02,17.8.55,4.51,3.43,4.35,21.96,4.73c9.67.2,21.54-4.33,28.45,3.31,5.63,6.23,1.61,16.16,2.2,24.85.16,2.32.18,4.64.03,6.96-.71,10.74-.43,21.46.21,32.19Z"/>
      <path class="cls-1" d="m493.18,22.36c.82-24.1-2.51-22.59,22.79-22.2,2.56.04,5.13.05,7.69,0,27.78-.55,22.43,1.68,23.16,22.19.03,16.98.06,33.95.09,50.93-.09,25.77-.2,51.53-.28,77.3-.04,14.88-.24,15.11-15.53,15.77-7.35-.23-14.71-.44-22.06-.68-14.68-.48-15.39-1.22-15.44-16.12-.14-42.39-.28-84.79-.42-127.19Z"/>
      <path class="cls-1" d="m72.19,91.04c-.02-2.96-.03-5.92-.05-8.89-1.05-10.31,3.19-14.32,13.81-13.32,8.69.82,17.56-.19,26.34-.38,8.2-.63,11.61,1.54,11.46,11.34-.72,47.15-.31,94.32-.33,141.48-.01,15.57-.06,15.57-15.54,16.23-8.44-.14-16.92-.87-25.31-.27-8.48.61-10.21-2.65-10.16-10.66.27-45.18-.08-90.35-.22-135.53Z"/>
      <path class="cls-1" d="m65.73,29.36c-.26-1.73-.06-3.5.5-5.16,2.13-6.39,4.64-12.42,10.62-16.9,13.82-10.37,33.72-9.42,43.9,2.78,11.1,13.3,9.72,32.42-3.2,44.55-.16.15-.32.3-.48.46-1.6,1.51-3.6,2.47-5.75,2.94-6.24,1.35-12.06,4.92-18.94,3.2-16.89-4.23-23.73-12.09-26.65-31.87Z"/>
    </g>
  </g>
</svg>