<?xml version="1.0" standalone="no"?>
<!DOCTYPE svg PUBLIC "-//W3C//DTD SVG 20010904//EN"
 "http://www.w3.org/TR/2001/REC-SVG-20010904/DTD/svg10.dtd">
<svg version="1.0" xmlns="http://www.w3.org/2000/svg"
 width="321.000000pt" height="321.000000pt" viewBox="0 0 321.000000 321.000000"
 preserveAspectRatio="xMidYMid meet">
<metadata>
Created by potrace 1.14, written by Peter Selinger 2001-2017
</metadata>
<g transform="translate(0.000000,321.000000) scale(0.100000,-0.100000)"
fill="#000000" stroke="none">
<path d="M1557 3204 c-1 -1 -40 -4 -87 -8 -85 -6 -122 -11 -170 -22 -14 -3
-34 -8 -45 -10 -46 -9 -63 -14 -130 -34 -38 -12 -74 -26 -79 -31 -6 -5 -16 -9
-24 -9 -20 0 -153 -63 -227 -107 -488 -293 -789 -819 -789 -1378 0 -77 12
-254 19 -264 2 -4 6 -26 10 -50 17 -118 90 -319 163 -454 229 -423 628 -718
1102 -815 138 -29 495 -29 625 0 50 11 95 21 100 22 19 4 91 28 145 48 543
204 933 679 1028 1253 9 54 9 460 0 510 -73 406 -272 747 -583 996 -201 162
-457 280 -705 325 -62 12 -79 14 -144 20 -62 6 -205 11 -209 8z"/>
</g>
</svg>
