<?xml version="1.0" standalone="no"?>
<!DOCTYPE svg PUBLIC "-//W3C//DTD SVG 20010904//EN"
 "http://www.w3.org/TR/2001/REC-SVG-20010904/DTD/svg10.dtd">
<svg version="1.0" xmlns="http://www.w3.org/2000/svg"
 width="321.000000pt" height="321.000000pt" viewBox="0 0 321.000000 321.000000"
 preserveAspectRatio="xMidYMid meet">
<metadata>
Created by potrace 1.14, written by Peter Selinger 2001-2017
</metadata>
<g transform="translate(0.000000,321.000000) scale(0.100000,-0.100000)"
fill="#000000" stroke="none">
<path d="M1410 2589 c-25 -6 -49 -11 -55 -13 -66 -18 -102 -29 -110 -34 -5 -4
-19 -8 -29 -9 -11 -2 -24 -8 -30 -13 -7 -5 -37 -22 -68 -38 -154 -81 -312
-238 -395 -392 -33 -61 -80 -176 -87 -212 -2 -13 -9 -43 -15 -68 -14 -58 -14
-342 0 -400 6 -25 13 -53 15 -62 2 -10 6 -28 9 -40 2 -13 9 -32 14 -43 5 -11
22 -47 37 -80 30 -66 92 -168 105 -173 5 -2 9 -9 9 -16 0 -17 133 -147 205
-201 102 -76 278 -154 387 -171 24 -4 35 -11 31 -18 -4 -6 2 -4 12 4 12 10 16
10 11 2 -10 -17 282 -16 303 1 12 10 13 9 7 -1 -6 -11 -4 -11 10 -3 11 6 46
18 79 26 72 19 75 20 100 30 168 65 330 182 424 306 9 11 26 33 37 47 75 94
175 349 176 449 0 13 4 20 9 17 13 -8 11 10 -3 25 -10 11 -10 13 0 7 8 -5 12
0 12 13 0 12 -6 21 -12 21 -9 0 -8 4 2 10 13 9 13 11 0 20 -10 6 -11 10 -2 10
6 0 12 9 12 20 0 11 -6 20 -12 20 -9 0 -8 4 2 10 13 9 13 11 0 20 -10 6 -11
10 -2 10 6 0 12 7 12 15 0 8 -4 15 -10 15 -5 0 -10 5 -10 11 0 5 6 7 13 3 9
-6 9 -5 0 7 -6 8 -14 34 -18 58 -3 23 -10 53 -14 65 -5 11 -9 26 -10 31 -13
98 -126 298 -236 416 -130 140 -325 250 -520 295 -50 11 -347 13 -395 3z"/>
</g>
</svg>
