<?xml version="1.0" encoding="utf-8"?>
<!-- Generator: Adobe Illustrator 25.1.0, SVG Export Plug-In . SVG Version: 6.00 Build 0)  -->
<svg version="1.1" id="Capa_1" xmlns="http://www.w3.org/2000/svg" xmlns:xlink="http://www.w3.org/1999/xlink" x="0px" y="0px"
	 viewBox="0 0 100.28 100.89" style="enable-background:new 0 0 100.28 100.89;" xml:space="preserve">
<style type="text/css">
	.st0{fill:#03A28B;}
</style>
<g>
	<path class="st0" d="M63.6,51.35c-0.87,0-1.63,0.01-2.4,0c-2.37-0.05-4-1.56-4.09-3.84c-0.05-1.3-0.05-2.6,0-3.9
		c0.09-2.2,1.66-3.75,3.91-3.85c1.37-0.06,2.74-0.06,4.11,0c2.31,0.1,3.87,1.68,3.91,3.92c0.03,1.71,0.01,3.43,0.01,5.17
		c4.49-1.57,9.17-1.78,13.91-0.62c0-4.8,0-9.51,0-14.23c-24.57,0-49.09,0-73.71,0c0,0.36,0,0.66,0,0.95
		c0,11.77-0.01,23.53,0.01,35.3c0,0.84,0.06,1.7,0.25,2.52c1.07,4.66,4.99,7.61,10.1,7.62c11.52,0.01,23.04,0,34.57,0
		c0.31,0,0.61,0,0.96,0C50.78,68.68,53.62,59.09,63.6,51.35z M33.16,66.95c-0.08,2.15-1.74,3.73-3.97,3.77
		c-1.28,0.02-2.55,0.02-3.83,0c-2.35-0.02-4.03-1.55-4.13-3.81c-0.06-1.33-0.06-2.66,0-3.99c0.1-2.26,1.78-3.79,4.13-3.81
		c1.28-0.01,2.55-0.02,3.83,0c2.23,0.04,3.89,1.61,3.97,3.76c0.03,0.69,0,1.39,0,2.09C33.17,65.62,33.19,66.29,33.16,66.95z
		 M33.17,45.59c-0.01,0-0.01,0-0.01,0c0,0.73,0.03,1.45-0.01,2.17c-0.11,1.93-1.68,3.48-3.67,3.56c-1.4,0.06-2.8,0.04-4.2,0.02
		c-2.31-0.04-3.94-1.54-4.05-3.78c-0.06-1.33-0.06-2.66,0-3.99c0.09-2.19,1.68-3.73,3.94-3.82c1.37-0.06,2.74-0.06,4.11,0
		c2.3,0.1,3.84,1.69,3.9,3.93C33.19,44.32,33.17,44.95,33.17,45.59z M51.09,67.08c-0.1,1.96-1.7,3.54-3.72,3.62
		c-1.46,0.06-2.93,0.05-4.39,0c-2.1-0.07-3.7-1.63-3.81-3.75c-0.07-1.36-0.07-2.72,0-4.08c0.11-2.22,1.78-3.74,4.07-3.77
		c1.28-0.02,2.55-0.02,3.83,0c2.32,0.03,3.97,1.62,4.03,3.89c0.02,0.63,0,1.27,0,1.9c0,0-0.01,0-0.01,0
		C51.1,65.63,51.13,66.36,51.09,67.08z M51.11,47.47c-0.05,2.28-1.66,3.82-4.03,3.88c-0.65,0.01-1.31,0-1.96,0
		c-0.62,0-1.24,0.01-1.87,0c-2.32-0.05-3.96-1.53-4.07-3.76c-0.07-1.36-0.07-2.72,0-4.08c0.11-2.15,1.69-3.66,3.91-3.75
		c1.37-0.06,2.74-0.06,4.11,0c2.31,0.09,3.87,1.67,3.92,3.91C51.13,44.93,51.13,46.2,51.11,47.47z"/>
	<path class="st0" d="M96.97,70.2c-0.44-10.79-9.58-19.22-20.41-18.84c-11.16,0.39-19.86,9.33-19.44,19.97
		c0.43,10.69,9.64,19.16,20.41,18.75C88.68,89.65,97.4,80.74,96.97,70.2z M84.39,77.92c-0.78,0.72-1.9,0.71-2.78-0.04
		c-0.09-0.08-0.18-0.17-0.27-0.25c-1.81-1.75-3.6-3.52-5.42-5.26c-0.62-0.59-0.89-1.27-0.88-2.11c0.02-1.78,0.01-3.57,0.01-5.35
		c0-1.81-0.01-3.63,0-5.44c0.01-1.39,0.78-2.27,1.97-2.3c1.21-0.02,2.03,0.89,2.04,2.32c0.01,3.18,0.02,6.35-0.01,9.53
		c-0.01,0.67,0.21,1.12,0.69,1.58c1.59,1.49,3.15,3.01,4.69,4.56C85.25,76.01,85.2,77.17,84.39,77.92z"/>
	<path class="st0" d="M9.29,29.85c0,0.05,0.06,0.1,0.11,0.17c24.5,0,49.02,0,73.62,0c0-3.09,0-6.14,0-9.18
		c0-0.51,0.01-1.03-0.07-1.54c-0.72-4.99-4.9-8.65-9.88-8.53c0,0.42,0.01,0.78,0,1.14c-0.03,1.57,0.04,3.15-0.12,4.71
		c-0.43,4.14-4.04,7.4-8.29,7.63c-4.4,0.24-8.44-2.59-9.25-6.73c-0.36-1.82-0.2-3.73-0.27-5.6c-0.01-0.38,0-0.76,0-1.16
		c-6.04,0-11.94,0-17.94,0c0,0.41,0.01,0.77,0,1.13c-0.03,1.57,0.04,3.15-0.12,4.71c-0.35,3.46-2.89,6.33-6.34,7.32
		c-3.45,0.99-7.23-0.15-9.49-2.89c-1.38-1.67-2.02-3.58-1.99-5.72c0.02-1.5,0-3,0-4.49c-0.21-0.05-0.3-0.08-0.39-0.08
		c-4.7,0.06-9.08,3.78-9.43,8.34C9.16,22.65,9.32,26.26,9.29,29.85z"/>
	<path class="st0" d="M28.2,20.4c2.64,0.01,4.83-2,4.95-4.58c0.05-1.02,0.01-2.05,0.01-3.08c0-1.09,0.04-2.18-0.01-3.26
		c-0.11-2.58-2.3-4.58-4.94-4.58c-2.63,0-4.88,2.03-4.96,4.58c-0.07,2.11-0.07,4.23,0,6.34C23.33,18.36,25.58,20.39,28.2,20.4z"/>
	<path class="st0" d="M64.11,20.4c2.65-0.02,4.81-2.02,4.92-4.61c0.04-1.02,0.01-2.05,0.01-3.08c0-1.06,0.04-2.11-0.01-3.17
		c-0.1-2.63-2.3-4.67-4.98-4.65c-2.67,0.02-4.88,2.1-4.94,4.7c-0.05,2.05-0.05,4.11,0,6.16C59.19,18.34,61.45,20.42,64.11,20.4z"/>
</g>
</svg>