<?xml version="1.0" encoding="UTF-8"?>
<svg id="Capa_1" data-name="Capa 1" xmlns="http://www.w3.org/2000/svg" viewBox="0 0 50 50">
  <defs>
    <style>
      .cls-1 {
        fill: #fff;
        stroke-width: 0px;
      }
    </style>
  </defs>
  <path class="cls-1" d="M25,50.31C11.04,50.31-.31,38.96-.31,25S11.04-.31,25-.31s25.31,11.35,25.31,25.31-11.35,25.31-25.31,25.31ZM25,.31C11.39.31.31,11.39.31,25s11.07,24.69,24.69,24.69,24.69-11.08,24.69-24.69S38.61.31,25,.31Z"/>
  <path class="cls-1" d="M22.09,29.28c1.24-1.17,2.47-2.28,3.65-3.46,2.61-2.63,5.18-5.29,7.77-7.93,1.09-1.1,2.79-.73,3.2.69.23.79-.02,1.45-.59,2.03-2.4,2.44-4.79,4.9-7.18,7.36-1.61,1.65-3.23,3.31-4.84,4.96-.99,1.01-1.86,1.08-3.01.25-2.34-1.67-4.69-3.34-7.02-5.02-.71-.51-.98-1.29-.78-2.06.2-.74.85-1.36,1.65-1.35.49,0,1.05.19,1.45.47,1.84,1.26,3.64,2.58,5.45,3.89.13.09.26.18.26.18Z"/>
</svg>