<svg xmlns="http://www.w3.org/2000/svg" xmlns:xlink="http://www.w3.org/1999/xlink" viewBox="0,0,256,256" width="50px" height="50px"><g fill="#ffffff" fill-rule="nonzero" stroke="none" stroke-width="1" stroke-linecap="butt" stroke-linejoin="miter" stroke-miterlimit="10" stroke-dasharray="" stroke-dashoffset="0" font-family="none" font-weight="none" font-size="none" text-anchor="none" style="mix-blend-mode: normal"><g transform="scale(5.12,5.12)"><path d="M41.95703,8.97656c-0.65928,0.01967 -1.26647,0.36309 -1.62305,0.91797l-18.83008,28.38477l-12.17773,-10.77734c-0.53517,-0.47398 -1.28259,-0.6264 -1.96062,-0.39981c-0.67804,0.22658 -1.18365,0.79773 -1.32634,1.49824c-0.14269,0.70051 0.09924,1.42392 0.63462,1.89767l13.90039,12.29883c0.43318,0.38363 1.01127,0.56086 1.58503,0.48596c0.57376,-0.0749 1.08698,-0.39461 1.40715,-0.87658l20.09961,-30.30078c0.42494,-0.62101 0.46539,-1.42796 0.10469,-2.08835c-0.3607,-0.66039 -1.06152,-1.06247 -1.81368,-1.04055z"></path></g></g></svg>