<?xml version="1.0" encoding="UTF-8" standalone="no"?>
<!DOCTYPE svg PUBLIC "-//W3C//DTD SVG 1.1//EN" "http://www.w3.org/Graphics/SVG/1.1/DTD/svg11.dtd">
<svg xmlns="http://www.w3.org/2000/svg" version="1.1" viewBox="0.00 0.00 517.00 483.00">
<g fill="#ffffff">
<path d="
  M 284.78 210.00
  C 285.86 158.80 302.67 92.04 354.37 68.11
  C 382.82 54.95 414.25 54.58 444.87 56.63
  C 449.25 56.92 449.69 59.92 449.21 63.71
  C 446.72 83.40 444.24 103.08 441.77 122.75
  C 441.23 126.99 438.35 127.72 434.39 127.92
  C 422.81 128.51 412.08 128.73 401.23 133.41
  C 379.63 142.71 368.06 163.40 364.53 186.01
  C 362.65 198.04 362.47 208.87 364.00 218.52
  C 364.55 222.02 366.89 223.77 371.00 223.77
  C 395.67 223.78 420.33 223.76 445.00 223.73
  C 449.17 223.73 450.26 227.13 450.26 230.86
  C 450.27 282.16 450.27 333.46 450.26 384.75
  C 450.26 388.28 448.34 390.04 444.50 390.03
  C 365.55 389.98 314.21 389.90 290.50 389.78
  C 285.36 389.75 284.13 385.82 284.08 381.50
  C 283.39 322.30 283.62 265.13 284.78 210.00
  Z"
/>
<path d="
  M 153.70 223.74
  C 176.89 223.74 200.08 223.89 223.27 223.99
  C 227.71 224.01 229.05 227.82 229.04 231.85
  C 229.00 283.15 228.87 334.45 228.65 385.75
  C 228.64 388.78 227.09 390.29 224.00 390.28
  C 173.00 390.13 122.00 389.93 71.00 389.70
  C 63.96 389.67 62.20 386.19 62.21 379.50
  C 62.22 325.00 62.27 270.50 62.36 216.00
  C 62.40 192.15 66.05 168.89 73.31 146.20
  C 82.18 118.49 97.05 91.21 121.96 74.63
  C 150.67 55.51 188.52 54.28 222.51 57.25
  C 227.51 57.68 228.02 60.47 227.55 64.98
  C 225.27 87.32 222.83 105.66 220.22 120.01
  C 219.11 126.14 214.21 127.61 208.25 128.14
  C 204.75 128.45 201.26 128.80 197.78 129.21
  C 180.55 131.24 166.97 138.66 157.05 151.46
  C 144.80 167.27 140.45 190.08 140.61 209.62
  C 140.65 214.29 142.20 221.36 147.37 223.13
  C 148.58 223.54 150.69 223.74 153.70 223.74
  Z"
/>
</g>
</svg>
