<?xml version="1.0" encoding="UTF-8"?>
<svg id="Capa_1" data-name="Capa 1"  width="16" height="16" xmlns="http://www.w3.org/2000/svg" viewBox="0 0 512 521.1>
  <defs>
    <style>
      .cls-1 {
        fill: #173951;
        stroke-width: 0px;
      }
    </style>
  </defs>
  <path class="cls-1" d="M87.63,235.46c1.99,0,3.42,0,4.84,0,25.61,0,51.21-.03,76.82.04,3.24,0,6.54.18,9.7.83,7.13,1.49,11.6,6.36,11.69,13.67.25,18.82.29,37.65,0,56.47-.14,8.45-5.9,13.48-15.19,14.46-1.56.16-3.14.17-4.7.17-50.24,0-100.49.01-150.73-.01-2.16,0-4.36-.13-6.48-.52-8.56-1.57-12.95-6.66-13.44-15.39-.11-2.05-.13-4.1-.13-6.15C0,197.89,0,123.37,0,22.25c0-2.41-.05-4.84.2-7.23C1.2,5.69,6.94.47,17.15.28,31.52.02,45.89.12,60.26.18c4.81.02,9.69-.04,14.43.69,7.19,1.1,11.26,5.55,12.33,12.75.44,2.97.58,6.01.58,9.02.03,78.07.02,129.55.02,207.62v5.21Z"/>
  <g>
    <path class="cls-1" d="M289.89,153.07c0,44.74,0-13.17,0,31.57,0,14.32-4.53,18.81-18.94,18.82-13.19,0-26.38,0-39.57,0-1.59,0-3.2,0-4.78-.14-8.22-.76-12.48-4.8-13.62-12.96-.26-1.89-.28-3.81-.28-5.72-.01-89.48-.01-76.32,0-165.8,0-14.11,4.68-18.81,18.71-18.82,13.4,0,26.81,0,40.21,0,1.38,0,2.77,0,4.15.1,8.5.6,13.17,5.14,13.99,13.64.17,1.79.15,3.61.15,5.42,0,44.64,0,89.27,0,133.91Z"/>
    <path class="cls-1" d="M371.03,75.44c-1.78,0-3.04,0-4.3,0-14.47-.02-28.93.06-43.4-.11-8.89-.1-13.99-4.89-14.14-13.81-.28-15.72-.27-31.46,0-47.18.15-8.65,5.1-13.4,13.73-14.19,1.8-.16,3.61-.14,5.42-.14C383.11,0,437.89,0,492.67,0c14.89,0,19.32,4.47,19.33,19.46,0,12.54,0,25.08,0,37.62,0,1.49,0,2.98-.12,4.46-.72,9.16-5.35,13.7-14.57,13.8-15,.16-30,.08-44.99.1-1.25,0-2.49,0-4.08,0,0,1.73,0,3.09,0,4.44,0,69.08,0,35.5-.02,104.58,0,2.43.02,4.92-.43,7.29-1.39,7.45-5.83,11.51-13.36,11.59-16.59.19-33.19.19-49.78,0-7.45-.09-12.02-4.44-13.13-11.81-.36-2.4-.47-4.87-.47-7.3-.02-68.97-.02-35.29-.02-104.26v-4.53Z"/>
  </g>
</svg>