<?xml version="1.0" encoding="UTF-8"?>
<svg id="Capa_1" data-name="Capa 1" xmlns="http://www.w3.org/2000/svg" version="1.1" viewBox="0 0 1200 1200">
  <defs>
    <style>
      .cls-1 {
        fill: #00a489;
      }

      .cls-1, .cls-2 {
        stroke-width: 0px;
      }

      .cls-2 {
        fill: #fff;
      }
    </style>
  </defs>
  <g>
    <path class="cls-1" d="M1061.1,799c20.5-58.4,30-118.2,28.7-179.7s-13.3-121-36.3-178.1-55.3-108.4-97-153.7c-41.7-45.3-90-81.9-144.9-109.8-50-25.4-147.1-53.8-174.4-50.6,31.8,22.4,63.2,44.6,94.9,67-29.4,28.4-58.3,56.2-87.5,84.3,104.4,20.9,186.1,74.7,241.9,164.6,55.9,90.1,66.7,187.1,38.8,289.7-23.7-11.5-46.4-22.6-70.2-34.2,18.4,76.5,36.6,151.9,54.9,227.8,71.3-32.4,141.8-64.5,213.3-97-21.3-10.3-41.6-20.2-62.2-30.3ZM195.6,957.3c107.9,121,241.8,183.9,404,178.8,162.2-5.2,291.5-76.8,391.1-203.5-.2-.5-.5-1-.7-1.5-35,15.9-70,31.8-105.6,48-9.6-39.7-19-78.8-28.6-118.4-70.7,79.3-158,123.3-264.1,125.7-106.2,2.5-195.4-37.2-269.6-113.2,21.9-14.6,42.9-28.6,64.7-43.1-75.3-22.8-149.5-45.2-224.2-67.8-8.1,77.7-16.1,154.9-24.2,233.1,19.8-13.2,38.5-25.7,57.2-38.1ZM504.9,361.1c56.7-54.6,112.5-108.3,168.8-162.5-63.9-45-127.3-89.7-191.5-134.9,1.8,23.8,3.5,46.3,5.2,69-43,8.5-83.8,21.8-122.8,40.5s-75.1,42-108.1,70-62.1,59.6-87.1,94.9c-24.9,35.2-44.9,73-60.2,113.3-15.3,40.4-25.2,82.2-29.7,125.2s-3.4,86,2.7,128.8c5.3,37.3,27.6,114.4,35.9,123.2,4-38.4,8-76.5,12-115.2,39.1,11.8,77.6,23.4,116.4,35.1-32.3-100-26.4-196.5,23.7-288.4,50.1-91.7,127.4-149.6,228.7-176.9,2,26.2,4,51.5,6,77.9Z"/>
    <path class="cls-1" d="M1061.1,799c20.6,10.1,40.9,20,62.2,30.4-71.4,32.5-142,64.6-213.3,97-18.3-75.8-36.5-151.3-54.9-227.8,23.7,11.6,46.5,22.6,70.2,34.2,27.9-102.6,17.1-199.6-38.8-289.7-55.8-90-137.4-143.8-241.9-164.6,29.2-28.1,58.1-56,87.5-84.3-31.8-22.4-63.2-44.6-94.9-67,27.3-3.2,124.4,25.2,174.4,50.6,54.9,27.9,103.2,64.5,144.9,109.8,41.7,45.3,74,96.6,97,153.7s35,116.5,36.3,178.1c1.3,61.4-8.2,121.3-28.7,179.6Z"/>
    <path class="cls-1" d="M195.6,957.3c-18.7,12.4-37.4,24.8-57.2,38,8.1-78.2,16.1-155.3,24.2-233.1,74.8,22.6,148.9,45,224.2,67.8-21.9,14.6-42.8,28.5-64.7,43.1,74.3,76.1,163.5,115.7,269.6,113.2s193.3-46.4,264-125.8c9.6,39.6,19,78.7,28.6,118.4,35.6-16.2,70.6-32.1,105.6-48,.2.5.5,1,.7,1.5-99.5,126.7-228.9,198.3-391.1,203.5-162.1,5.3-296-57.6-403.9-178.6Z"/>
    <path class="cls-1" d="M504.9,361.1c-2-26.4-4-51.7-6-77.8-101.3,27.3-178.7,85.2-228.7,176.9-50.1,91.9-56,188.4-23.7,288.4-38.8-11.7-77.3-23.3-116.4-35.1-4,38.7-8,76.8-12,115.2-8.3-8.8-30.6-85.9-35.9-123.2-6.1-42.8-7.2-85.8-2.7-128.8s14.4-84.8,29.7-125.3c15.2-40.3,35.3-78.1,60.2-113.3,25-35.3,54.1-66.9,87.1-94.9s69.1-51.3,108.1-70,79.8-32,122.8-40.5c-1.7-22.7-3.4-45.1-5.2-69,64.2,45.2,127.6,89.9,191.5,134.9-56.3,54.2-112.1,107.9-168.8,162.5Z"/>
  </g>
  <g>
    <g>
      <path class="cls-2" d="M216.1,897.6l28.1-23.2,9.6,11.6c.2.3.5.6.8,1.1s.6.9.9,1.3c1.1,1.8,1.7,3.6,1.7,5.4s-.4,3.4-1.2,5-2,3-3.6,4.3c-1.5,1.3-3.2,2.2-4.9,2.7s-3.4.6-5.1.2c-1.7-.4-3.4-1.3-4.9-2.7-.4-.3-.7-.7-1.1-1.1-.4-.4-.7-.8-.9-1l-5.7-6.9-9.8,8.1-3.9-4.8ZM234.2,890.6l5.5,6.7c.2.3.5.5.8.8s.6.6.9.8c.8.6,1.7,1,2.6,1s1.7,0,2.5-.4,1.5-.7,2.1-1.2,1.1-1.1,1.6-1.8.8-1.5.9-2.3c.1-.9,0-1.8-.5-2.7-.1-.3-.3-.7-.6-1-.2-.3-.5-.6-.7-.9l-5.5-6.7-9.6,7.7Z"/>
      <path class="cls-2" d="M237.9,923.5l26.4-25.1,16.2,17.1-4.2,3.9-12-12.7-6.5,6.2,9.9,10.4-4.2,3.9-9.9-10.4-7.5,7.1,12,12.7-4.2,3.9-16-17Z"/>
      <path class="cls-2" d="M259.5,945.9l24.6-26.9,11.1,10.2c.3.2.6.6,1,1s.7.8,1,1.2c1.3,1.7,2.1,3.4,2.4,5.1.3,1.7.1,3.4-.5,5.1s-1.6,3.2-3,4.7c-2,2.2-4.3,3.6-6.8,4.1-2.5.6-5.1,0-7.8-1.8l-2.1-1.6-6.9-6.3-8.6,9.4-4.4-4.2ZM275,960.1l4.7-15.8,5.5,3.2-5.1,17.3-5.1-4.7ZM276.5,936.5l6.4,5.9c.2.2.5.5.9.7.3.3.7.5,1,.6.9.5,1.8.7,2.7.6.9,0,1.7-.3,2.4-.8s1.4-.9,1.9-1.5,1-1.2,1.3-2c.4-.8.6-1.6.6-2.5s-.3-1.7-.9-2.6c-.2-.3-.4-.6-.7-.9-.3-.3-.6-.6-.8-.8l-6.4-5.9-8.4,9.2Z"/>
      <path class="cls-2" d="M295.7,978.4c-2.1-1.7-3.7-3.5-4.8-5.6-1.1-2.1-1.7-4.2-1.7-6.4s.6-4.4,1.8-6.5l5.6,3.2c-.9,2-1.1,4-.5,6s1.7,3.6,3.5,5c1,.8,2.1,1.4,3.3,1.8,1.2.4,2.2.5,3.3.3,1-.2,1.9-.7,2.6-1.6.3-.4.5-.8.7-1.3s.2-.9.1-1.4c0-.5-.2-1-.4-1.5-.2-.5-.5-1.1-1-1.7l-5.7-8c-.5-.7-1-1.5-1.5-2.4s-.8-1.9-1.1-2.9c-.2-1.1-.2-2.2.1-3.4s.9-2.4,1.9-3.7c1.5-1.8,3.1-3,5.1-3.5,1.9-.5,3.9-.5,6,.2,2.1.6,4.1,1.7,6,3.2,1.9,1.6,3.4,3.3,4.5,5.1,1,1.9,1.6,3.8,1.6,5.9s-.4,4.1-1.4,6.2l-5.9-3.2c.6-1.2.9-2.4.8-3.5,0-1.2-.4-2.3-.9-3.4-.6-1.1-1.3-2-2.3-2.8-.9-.8-1.9-1.3-3-1.7-1-.3-2-.4-3-.3-.9.2-1.7.6-2.3,1.4-.6.7-.8,1.4-.7,2.2.1.8.3,1.5.7,2.3.4.8.9,1.5,1.4,2.2l4,5.5c.6.7,1.1,1.6,1.8,2.6s1.1,2.1,1.5,3.3.4,2.5.2,3.8c-.2,1.3-.9,2.7-2,4.2-1.2,1.5-2.5,2.5-4,3.2-1.5.6-3.1.9-4.7.8-1.6,0-3.3-.5-4.9-1.2-1.7-.4-3.2-1.3-4.7-2.4Z"/>
      <path class="cls-2" d="M325.6,1000.1c-3-2-5.2-4.4-6.5-7.2s-1.7-5.7-1.3-8.9c.4-3.1,1.7-6.3,3.8-9.4,2.1-3.1,4.5-5.5,7.2-7.1s5.6-2.3,8.7-2.2c3,0,6.1,1.2,9.1,3.2s5.2,4.4,6.5,7.2,1.7,5.7,1.3,8.9c-.4,3.1-1.7,6.3-3.8,9.4-2.1,3.1-4.5,5.5-7.2,7.1s-5.6,2.3-8.7,2.2c-3,0-6-1.2-9.1-3.2ZM328.8,995.3c2,1.4,4,2.1,6,2,2,0,3.8-.6,5.6-1.8,1.8-1.2,3.4-2.9,4.9-5.1,1.5-2.2,2.4-4.4,2.8-6.5s.2-4-.5-5.9c-.7-1.8-2.1-3.4-4.1-4.8-2-1.4-4-2.1-6-2-2,0-3.8.6-5.6,1.8-1.8,1.2-3.4,2.9-4.9,5.1-1.5,2.2-2.4,4.4-2.9,6.5s-.3,4,.5,5.9,2.2,3.4,4.2,4.8Z"/>
      <path class="cls-2" d="M346.6,1012.7l17.7-31.9,5.4,3,2.3,30.7,12.5-22.5,5.4,3-17.7,31.9-5.4-3-2.3-30.7-12.5,22.5-5.4-3Z"/>
      <path class="cls-2" d="M377.8,1029.8l25.6-28.4,8.1,3.7-4.7,37.9-5.7-2.6,4.1-34.1,1.2.6-22.9,25.5-5.7-2.6ZM386.9,1025.2l2.4-5.2,17.4,7.9-2.4,5.2-17.4-7.9Z"/>
      <path class="cls-2" d="M413,1045.3l12.8-34.1,5.7,2.1-10.8,28.8,15.1,5.7-2,5.4-20.8-7.9Z"/>
      <path class="cls-2" d="M439.3,1054.9l11.2-34.7,5.8,1.9-11.2,34.7-5.8-1.9Z"/>
      <path class="cls-2" d="M452.5,1059.2l.2-.8,25-24.3-16.1-4.3,1.5-5.5,26.3,7-.2.8-24.9,24.2,16.9,4.5-1.5,5.6-27.2-7.2Z"/>
      <path class="cls-2" d="M487.5,1068.2l6.8-35.8,23.1,4.4-1.1,5.6-17.1-3.3-1.7,8.8,14.1,2.7-1.1,5.6-14.1-2.7-1.9,10.1,17.1,3.3-1.1,5.6-23-4.3Z"/>
      <path class="cls-2" d="M518.3,1073.8l4.2-36.2,11.5,1.3c.3,0,.9,0,1.8.2s1.8.3,2.6.5c2.8.7,5.1,2,6.9,3.9s3,4.2,3.8,6.9c.7,2.7.9,5.6.5,8.7s-1.2,5.8-2.5,8.3-3.1,4.4-5.3,5.8-4.7,2.2-7.6,2.2-1.7,0-2.6,0c-.9,0-1.5-.2-1.8-.2l-11.5-1.3ZM525.1,1068.8l5.4.6c.5,0,1.1,0,1.9.2s1.5,0,2.1,0c1.7,0,3.2-.7,4.4-1.8,1.2-1.1,2.2-2.5,2.9-4.1.7-1.7,1.2-3.4,1.4-5.3.2-2,.2-3.8,0-5.6-.3-1.8-.9-3.3-1.9-4.6-.9-1.3-2.2-2.2-3.9-2.7-.6-.2-1.3-.4-2-.5s-1.4-.2-1.9-.3l-5.4-.6-2.9,24.7Z"/>
      <path class="cls-2" d="M563.3,1078.3l12.1-36.2,8.9.2,10.9,36.6h-6.3c0,0-9.9-33-9.9-33h1.4l-10.9,32.5h-6.2ZM569.8,1070.5v-5.7c0,0,19.2.3,19.2.3v5.7c0,0-19.2-.3-19.2-.3Z"/>
      <path class="cls-2" d="M606.9,1078.3l-1.4-30.7-11.8.6-.3-5.7,29.7-1.4.3,5.7-11.8.5,1.4,30.7-6.1.3Z"/>
      <path class="cls-2" d="M642.2,1075.5l-3.7-30.5-11.7,1.4-.7-5.7,29.5-3.6.7,5.7-11.7,1.4,3.7,30.5-6.1.8Z"/>
      <path class="cls-2" d="M665.4,1072.4l-6.8-35.8,23.1-4.4,1.1,5.6-17.1,3.3,1.7,8.8,14.1-2.7,1.1,5.6-14.1,2.7,1.9,10.1,17.1-3.3,1.1,5.6-23.2,4.5Z"/>
      <path class="cls-2" d="M696.1,1066.3l-9.5-35.2,6-1.6,23,20.4-6.7-24.8,6-1.6,9.5,35.2-6,1.6-23-20.4,6.7,24.8-6,1.6Z"/>
      <path class="cls-2" d="M740.9,1053.2l-10.2-29-11.1,3.9-1.9-5.4,28-9.8,1.9,5.4-11.1,3.9,10.2,29-5.8,2Z"/>
      <path class="cls-2" d="M763,1044.9l-13.8-33.7,5.6-2.3,13.8,33.7-5.6,2.3Z"/>
      <path class="cls-2" d="M791.1,1033.4c-3.3,1.6-6.4,2.2-9.5,1.9s-5.8-1.5-8.3-3.4c-2.5-2-4.5-4.7-6.2-8-1.6-3.4-2.4-6.7-2.4-9.8s.9-6,2.5-8.6,4.1-4.6,7.4-6.2c3.3-1.6,6.5-2.2,9.5-1.9s5.8,1.5,8.3,3.4c2.5,2,4.5,4.7,6.2,8,1.6,3.4,2.4,6.7,2.4,9.8s-.9,6-2.5,8.6c-1.6,2.5-4.1,4.6-7.4,6.2ZM788.7,1028.2c2.2-1,3.8-2.4,4.8-4.1,1-1.7,1.4-3.6,1.3-5.8,0-2.1-.8-4.4-1.9-6.8s-2.5-4.3-4.1-5.7-3.4-2.3-5.3-2.6c-1.9-.3-4,0-6.2,1.1s-3.8,2.4-4.8,4.1c-1,1.7-1.4,3.6-1.3,5.8,0,2.1.8,4.4,1.9,6.8,1.2,2.4,2.5,4.3,4.1,5.7s3.3,2.3,5.3,2.6c1.9.3,3.9,0,6.2-1.1Z"/>
      <path class="cls-2" d="M812.6,1021.8l-18.4-31.5,5.3-3.1,27.6,13.6-13-22.2,5.3-3.1,18.4,31.5-5.3,3.1-27.5-13.6,13,22.2-5.4,3.1Z"/>
    </g>
    <g>
      <path class="cls-2" d="M748.6,251.8l16.2-32.7,21.1,10.4-2.5,5.1-15.6-7.7-4,8,12.9,6.4-2.5,5.1-12.9-6.4-4.6,9.2,15.6,7.7-2.5,5.1-21.2-10.2Z"/>
      <path class="cls-2" d="M774.5,265l18.3-31.5,19,11-3.1,5.3-13.7-8-4.6,7.9,11.1,6.4-3.1,5.3-11.1-6.4-7.6,13.1-5.2-3.1Z"/>
      <path class="cls-2" d="M796.8,278.2l20.2-30.3,18.3,12.2-3.4,5.1-13.2-8.8-5,7.6,10.7,7.1-3.4,4.9-10.7-7.1-8.4,12.6-5.1-3.3Z"/>
      <path class="cls-2" d="M818.3,292.7l22.2-28.9,18.7,14.3-3.5,4.5-13.9-10.6-5.5,7.1,11.4,8.8-3.5,4.5-11.4-8.8-6.3,8.2,13.8,10.6-3.3,4.6-18.7-14.3Z"/>
      <path class="cls-2" d="M851.2,320.4c-2.7-2.4-4.5-5.1-5.4-8s-.9-5.9,0-9,2.5-6,5.1-8.8c2.5-2.8,5.2-4.8,8.2-6,2.9-1.2,5.9-1.5,8.9-1s5.9,2,8.6,4.5c3.1,2.8,5,5.9,5.7,9.4s.3,6.9-1.3,10.3l-5.7-2.8c1.1-2.2,1.4-4.4,1-6.6s-1.6-4.1-3.6-5.9c-1.8-1.6-3.7-2.6-5.7-2.8-1.9-.3-3.9.1-5.8,1-1.9.9-3.8,2.4-5.6,4.4s-3,4-3.7,6-.8,4-.3,5.9,1.6,3.7,3.5,5.3c2,1.8,4.1,2.8,6.3,2.9s4.3-.4,6.4-1.7l3.5,5.4c-3.2,1.9-6.6,2.7-10.1,2.4s-6.8-2.1-10-4.9Z"/>
      <path class="cls-2" d="M873.4,340.7l22.2-21.2-8.1-8.5,4.1-3.9,20.5,21.5-4.1,3.9-8.1-8.5-22.2,21.2-4.3-4.5Z"/>
      <path class="cls-2" d="M888.2,356.9l27.7-23.7,4,4.6-27.7,23.7-4-4.6Z"/>
      <path class="cls-2" d="M901.9,373.4l21.9-31.3,3.8,5-18.4,26.2,30.1-10.8,3.8,5-35.9,13.1-5.3-7.2Z"/>
      <path class="cls-2" d="M916,392.2l30.5-20,12.9,19.7-4.8,3.1-9.6-14.6-7.5,4.9,7.9,12-4.8,3.1-7.9-12-8.6,5.7,9.6,14.6-4.8,3.1-12.9-19.6Z"/>
      <path class="cls-2" d="M943.2,439.1c-1.7-3.2-2.4-6.4-2.2-9.4s1.3-5.8,3.2-8.4,4.5-4.7,7.8-6.4c3.3-1.7,6.6-2.6,9.8-2.7s6.1.7,8.7,2.2c2.6,1.6,4.8,4,6.4,7.2,1.9,3.7,2.6,7.3,2,10.8s-2.2,6.5-4.8,9.1l-4.3-4.7c1.8-1.7,2.9-3.7,3.3-5.8.4-2.1,0-4.4-1.3-6.8-1.1-2.2-2.6-3.7-4.3-4.7-1.7-.9-3.7-1.3-5.8-1.1-2.1.2-4.4.9-6.8,2.1-2.4,1.2-4.2,2.7-5.6,4.3-1.4,1.6-2.2,3.4-2.4,5.4s.2,4,1.4,6.2c1.3,2.4,2.9,4.1,4.9,5s4.2,1.1,6.6.6l1.3,6.2c-3.7.6-7.1.2-10.3-1.3s-5.6-4.1-7.6-7.8Z"/>
      <path class="cls-2" d="M958.6,472.2c-1.4-3.4-1.8-6.6-1.3-9.6s1.8-5.7,3.9-8.1c2.1-2.4,4.9-4.3,8.4-5.7,3.5-1.4,6.8-2,10-1.8s6,1.2,8.4,3c2.5,1.8,4.4,4.4,5.8,7.8s1.8,6.6,1.3,9.6-1.8,5.7-3.9,8.1c-2.1,2.4-4.9,4.3-8.4,5.7-3.5,1.4-6.8,2-10,1.8s-6-1.2-8.4-3c-2.5-1.8-4.4-4.4-5.8-7.8ZM963.9,470c.9,2.3,2.2,3.9,3.8,5s3.5,1.6,5.7,1.6,4.5-.5,6.9-1.5c2.5-1,4.5-2.3,6-3.8s2.5-3.2,2.9-5.1,0-4-.8-6.3c-.9-2.3-2.2-3.9-3.8-5s-3.5-1.6-5.7-1.6-4.5.5-6.9,1.5c-2.5,1-4.5,2.3-6,3.8s-2.5,3.2-2.9,5.1c-.4,2-.1,4.1.8,6.3Z"/>
      <path class="cls-2" d="M967.4,492.1l34.9-10.5,1.6,5.3-21.1,19.5,28.4,4.6,1.6,5.3-34.9,10.5-1.6-5.5,22.4-6.8-25.6-4-.7-2.3,19.1-17.4-22.4,6.8-1.7-5.5Z"/>
      <path class="cls-2" d="M979.3,532.7l35.8-6.9,1,5.4-23,17.3,27.7,7.5,1,5.4-35.8,6.9-1.1-5.6,22.9-4.4-25.1-6.6-.5-2.4,20.8-15.4-22.9,4.4-.8-5.6Z"/>
      <path class="cls-2" d="M987.6,589.2c-.3-2.9,0-5.5,1-7.8,1-2.3,2.4-4.2,4.5-5.6,2-1.4,4.5-2.3,7.3-2.6l22.7-2.2.6,6.1-22.6,2.2c-1.4,0-2.6.5-3.6,1-1,.6-1.9,1.3-2.6,2.1-.7.9-1.1,1.8-1.4,2.9-.3,1.1-.4,2.1-.3,3.2,0,1.1.4,2.2.9,3.2s1.2,1.8,2,2.5,1.8,1.2,2.9,1.6c1.1.3,2.3.5,3.7.3l22.6-2.2.6,6.1-22.8,2.2c-2.9.3-5.4,0-7.7-1.1s-4.1-2.6-5.5-4.7c-1.2-1.8-2-4.3-2.3-7.2Z"/>
      <path class="cls-2" d="M990.1,610.1l36.4-.4v6.2c0,0-25.4,17.2-25.4,17.2l25.7-.3v6.2c0,0-36.3.4-36.3.4v-6.2c0,0,25.4-17.2,25.4-17.2l-25.7.3v-6.2Z"/>
      <path class="cls-2" d="M990,646.4l36.4,1.7-.3,6.1-36.4-1.7.3-6.1Z"/>
      <path class="cls-2" d="M987.1,674.8c.4-3.6,1.5-6.6,3.4-9.1s4.3-4.2,7.3-5.2c3-1.1,6.3-1.4,10.1-1,3.7.4,7,1.4,9.6,3.1,2.7,1.7,4.7,3.9,6,6.7s1.8,5.9,1.4,9.6c-.4,4.2-1.9,7.5-4.2,10.1s-5.4,4.2-9.1,5l-1-6.3c2.4-.5,4.4-1.5,5.9-3,1.5-1.6,2.4-3.7,2.7-6.4.3-2.4,0-4.5-1-6.3-.9-1.7-2.3-3.1-4.2-4.1s-4.2-1.7-6.8-2c-2.7-.3-5,0-7.1.5s-3.7,1.7-5,3.2-2,3.5-2.3,5.9c-.3,2.7,0,5,1.3,6.8s2.9,3.2,5.2,4.2l-2.3,5.9c-3.4-1.5-6-3.8-7.8-6.8-1.8-3-2.5-6.6-2.1-10.8Z"/>
      <path class="cls-2" d="M985.9,692.5l33.7,18.1-1.7,8.8-38,4.5,1.2-6.2,34.1-4.1-.3,1.3-30.2-16.2,1.2-6.2ZM992.5,700.3l5.6,1.1-3.6,18.8-5.6-1.1,3.6-18.8Z"/>
      <path class="cls-2" d="M977.4,733.2l29.7,7.8,3-11.4,5.5,1.5-7.6,28.7-5.5-1.5,3-11.4-29.7-7.8,1.6-5.9Z"/>
      <path class="cls-2" d="M971.4,754.3l34.7,11.1-1.9,5.8-34.7-11.1,1.9-5.8Z"/>
      <path class="cls-2" d="M961.2,781c1.3-3.4,3.2-6,5.6-7.9,2.4-1.8,5.2-2.9,8.4-3.1,3.2-.3,6.5.3,10,1.7s6.3,3.2,8.5,5.6c2.1,2.3,3.5,5,4,8s0,6.2-1.2,9.6-3.2,6-5.6,7.9c-2.4,1.8-5.2,2.9-8.4,3.2s-6.5-.3-10-1.7-6.3-3.2-8.5-5.6c-2.1-2.3-3.5-5-4-8-.5-3.1,0-6.3,1.2-9.7ZM966.6,783.1c-.9,2.3-1.1,4.4-.7,6.3.4,1.9,1.4,3.6,3,5.1s3.6,2.7,6.1,3.7,4.8,1.4,6.9,1.4,4-.6,5.6-1.7c1.6-1.1,2.9-2.8,3.8-5.1.9-2.3,1.1-4.4.7-6.3-.4-1.9-1.4-3.6-3-5.1s-3.6-2.7-6.1-3.7-4.8-1.4-6.9-1.4-4,.6-5.6,1.7c-1.7,1.1-2.9,2.8-3.8,5.1Z"/>
      <path class="cls-2" d="M953.7,801.4l32.6,16.2-2.7,5.5-30.5,3.7,23,11.4-2.7,5.5-32.6-16.2,2.7-5.5,30.5-3.7-23-11.3,2.7-5.6Z"/>
    </g>
    <g>
      <path class="cls-2" d="M180.1,550.1l-32.8-19.7,2.1-8.7,38.1-2.7-1.5,6.1-34.2,2.5.3-1.3,29.4,17.6-1.4,6.2ZM173.9,542.1l-5.5-1.3,4.5-18.6,5.5,1.3-4.5,18.6Z"/>
      <path class="cls-2" d="M193.7,502.3c-.7,2.2-1.8,4.2-3.3,5.9-1.4,1.7-3.2,3-5.2,4-2,1-4.3,1.5-6.8,1.6s-5.2-.3-8.1-1.3c-3.8-1.2-6.8-3-9-5.3s-3.6-4.9-4.3-7.8c-.6-2.9-.4-5.9.6-9,1.4-4.3,3.5-7.3,6.3-9.2,2.8-1.8,6.1-2.6,10-2.3l-1,6.2c-2.3,0-4.3.5-6,1.6s-3,2.8-3.7,5.1c-.8,2.3-.9,4.4-.4,6.3s1.6,3.5,3.3,4.9c1.6,1.4,3.7,2.5,6.3,3.3,2.5.8,4.9,1.2,7,1s4-.8,5.5-2,2.7-3,3.5-5.3c.6-1.7.8-3.4.6-4.9s-.9-2.9-1.9-4.2-2.5-2.4-4.4-3.3l-2,6.1-4.5-1.5,4-12.3c.3.1.7.2,1.2.3.5.1.8.2.9.3,3.3,1.1,6,2.7,8.1,4.8s3.5,4.6,4.2,7.5c.4,3.1.2,6.2-.9,9.5Z"/>
      <path class="cls-2" d="M200.4,481.4l-33.9-13.4,2.2-5.7,33.9,13.4-2.2,5.7Z"/>
      <path class="cls-2" d="M205.5,468.6l-33.2-15.1,2.5-5.6,28,12.7,6.7-14.7,5.2,2.4-9.2,20.3Z"/>
      <path class="cls-2" d="M216.4,445.1l-32.1-17.3,11.1-20.7,5,2.7-8.3,15.4,7.9,4.3,6.8-12.7,5,2.7-6.8,12.7,9.1,4.9,8.3-15.4,5,2.7-11,20.7Z"/>
      <path class="cls-2" d="M235.4,411.2l-30.3-20.3,8.4-12.5c.2-.3.5-.7.8-1.1s.7-.8,1-1.2c1.4-1.6,3-2.6,4.7-3.2,1.7-.5,3.4-.6,5.1-.3s3.4,1.1,5.1,2.2c1.7,1.1,3,2.4,4,3.9s1.6,3.1,1.7,4.8c.1,1.7-.3,3.6-1.1,5.5-.2.4-.5.9-.7,1.4-.3.5-.5.9-.7,1.2l-5,7.4,10.6,7.1-3.6,5.1ZM223.5,395.9l4.8-7.2c.2-.3.4-.6.6-1,.2-.4.4-.7.5-1.1.4-1,.4-1.9.2-2.7-.2-.8-.6-1.6-1.1-2.2-.5-.7-1.1-1.2-1.8-1.6-.6-.4-1.4-.8-2.2-1-.8-.3-1.7-.3-2.5-.2-.9.1-1.7.5-2.4,1.2-.3.2-.6.5-.8.9-.3.3-.5.6-.7.9l-4.8,7.2,10.2,6.8Z"/>
      <path class="cls-2" d="M253.2,385l-28.6-22.6,9.3-11.8c.2-.3.5-.6.9-1s.7-.8,1.1-1.1c1.6-1.5,3.2-2.4,4.9-2.8s3.4-.4,5.1.1c1.7.5,3.3,1.4,4.9,2.6,2.3,1.8,3.9,4,4.6,6.5s.4,5.1-1.2,7.9l-1.4,2.2-5.8,7.4,10,7.9-3.8,4.7ZM242.5,368.8l5.4-6.8c.2-.3.4-.6.7-.9.2-.4.4-.7.6-1,.4-1,.6-1.9.4-2.7-.1-.9-.5-1.6-.9-2.3s-1-1.3-1.6-1.8-1.3-.9-2.1-1.2-1.6-.4-2.5-.4c-.9.1-1.7.4-2.5,1-.3.2-.6.5-.9.8-.3.3-.5.6-.7.9l-5.4,6.8,9.5,7.6ZM266.2,368.6l-16.1-3.5,2.8-5.7,17.6,3.8-4.3,5.4Z"/>
      <path class="cls-2" d="M284.6,348.7c-2.5,2.7-5.2,4.4-8.1,5.2-2.9.8-5.9.8-9-.2-3-.9-5.9-2.7-8.7-5.2-2.8-2.6-4.7-5.3-5.8-8.3s-1.4-5.9-.8-8.9,2.2-5.8,4.6-8.5c2.4-2.7,5.2-4.4,8.1-5.2,2.9-.8,5.9-.8,9,.2,3,.9,5.9,2.7,8.7,5.2s4.7,5.3,5.8,8.3c1.1,3,1.4,5.9.8,8.9-.5,3-2.1,5.8-4.6,8.5ZM280.4,344.8c1.7-1.8,2.7-3.6,3-5.6.3-1.9,0-3.9-.9-5.8-.9-2-2.3-3.8-4.3-5.7-1.9-1.8-3.9-3.1-5.9-3.8s-3.9-.9-5.9-.5c-1.9.4-3.7,1.5-5.4,3.3-1.7,1.8-2.7,3.6-3,5.6s0,3.9.9,5.8c.9,2,2.3,3.8,4.3,5.7,1.9,1.8,3.9,3.1,5.9,3.9,2,.7,3.9.9,5.9.5,1.9-.6,3.7-1.7,5.4-3.4Z"/>
      <path class="cls-2" d="M311.1,322.7c-2.7,2.4-5.6,3.9-8.6,4.5s-6,.2-8.9-1-5.7-3.2-8.2-6-4.2-5.7-5.1-8.8c-.9-3.1-.9-6,0-9,.9-2.9,2.7-5.6,5.4-8,3.1-2.8,6.4-4.4,9.9-4.7,3.5-.3,6.8.5,10.1,2.4l-3.4,5.4c-2.1-1.3-4.3-1.9-6.4-1.7s-4.3,1.1-6.3,2.9c-1.8,1.6-3,3.4-3.4,5.3s-.4,3.9.4,5.9,2,4,3.7,6c1.8,2,3.6,3.4,5.6,4.4,1.9.9,3.9,1.3,5.8,1,2-.3,3.8-1.2,5.7-2.9,2-1.8,3.2-3.8,3.6-5.9s0-4.3-1-6.6l5.7-2.8c1.5,3.4,2,6.8,1.3,10.3s-2.8,6.5-5.9,9.3Z"/>
      <path class="cls-2" d="M326.7,308.2l-22.2-28.9,18.7-14.3,3.5,4.5-13.8,10.6,5.5,7.1,11.4-8.8,3.5,4.5-11.4,8.8,6.3,8.2,13.8-10.6,3.5,4.5-18.8,14.4Z"/>
      <path class="cls-2" d="M359.9,285.1c-2.2,1.5-4.5,2.4-6.8,2.8s-4.5.3-6.6-.4c-2.1-.7-4-1.9-5.6-3.7l4.7-4.3c1.6,1.5,3.5,2.3,5.5,2.3,2.1.1,4-.5,5.8-1.7,1.1-.7,2-1.6,2.7-2.5.7-1,1.2-2,1.4-3s-.1-2-.7-3c-.3-.4-.6-.8-1-1-.4-.3-.8-.4-1.3-.5s-1-.1-1.6-.1-1.2.2-1.9.4l-9.4,2.9c-.8.2-1.7.5-2.7.7s-2,.2-3.1.1-2.1-.5-3.2-1.1c-1-.6-2-1.6-2.9-2.9-1.3-2-1.9-3.9-1.8-5.9s.8-3.9,2-5.6c1.2-1.8,2.9-3.3,5-4.7s4.2-2.2,6.3-2.6c2.1-.4,4.1-.3,6.1.3s3.8,1.7,5.5,3.3l-4.8,4.6c-.9-.9-2-1.5-3.1-1.9s-2.3-.4-3.5-.2-2.3.7-3.4,1.3c-1,.7-1.9,1.4-2.5,2.3-.7.9-1.1,1.8-1.2,2.7s.1,1.8.6,2.6c.5.7,1.1,1.2,1.9,1.4.8.2,1.6.2,2.4,0s1.7-.4,2.5-.7l6.5-2.1c.9-.3,1.9-.6,3-.9,1.2-.3,2.4-.4,3.6-.4s2.5.4,3.7,1,2.3,1.7,3.3,3.2c1,1.6,1.6,3.2,1.8,4.8.1,1.6-.1,3.2-.7,4.7s-1.5,3-2.6,4.3c-1,1.3-2.4,2.4-3.9,3.5Z"/>
      <path class="cls-2" d="M388.3,267.9c-2.3,1.3-4.7,2-7,2.3-2.3.2-4.5-.1-6.5-.9s-3.8-2.2-5.3-4.1l5.1-3.9c1.5,1.6,3.3,2.6,5.3,2.8s4-.2,5.9-1.3c1.1-.6,2.1-1.4,2.9-2.3s1.3-1.9,1.6-2.9c.3-1,.1-2-.4-3-.2-.4-.5-.8-.9-1.1s-.8-.5-1.2-.6-1-.2-1.6-.2-1.2.1-1.9.2l-9.6,2.1c-.8.2-1.7.3-2.8.4s-2.1.1-3.1-.2c-1.1-.2-2.1-.7-3.1-1.4s-1.9-1.7-2.6-3.1c-1.1-2.1-1.6-4.1-1.3-6,.3-2,1.1-3.8,2.5-5.5s3.2-3.1,5.3-4.3c2.2-1.2,4.3-1.9,6.5-2.1,2.1-.2,4.1.1,6.1.8,1.9.8,3.7,2,5.2,3.7l-5.2,4.2c-.9-1-1.8-1.7-2.9-2.1-1.1-.4-2.3-.6-3.5-.4-1.2.1-2.3.5-3.5,1-1.1.6-2,1.3-2.7,2.1s-1.2,1.7-1.4,2.6c-.2.9-.1,1.8.4,2.6.4.8,1,1.3,1.8,1.5.7.2,1.5.3,2.4.2s1.7-.3,2.5-.5l6.6-1.6c.9-.2,1.9-.4,3.1-.6,1.2-.2,2.4-.2,3.6-.1s2.5.6,3.6,1.3,2.2,1.9,3.1,3.5c.9,1.7,1.4,3.3,1.4,4.9s-.4,3.2-1.1,4.6c-.7,1.5-1.7,2.8-3,4.1-1.2,1.3-2.6,2.4-4.3,3.3Z"/>
    </g>
  </g>
</svg>