<?xml version="1.0" encoding="UTF-8" standalone="no"?>
<!DOCTYPE svg PUBLIC "-//W3C//DTD SVG 1.1//EN" "http://www.w3.org/Graphics/SVG/1.1/DTD/svg11.dtd">
<svg xmlns="http://www.w3.org/2000/svg" version="1.1" viewBox="0.00 0.00 450.00 143.00">
<g stroke-width="2.00" fill="none" stroke-linecap="butt">
<path stroke="#ffff80" vector-effect="non-scaling-stroke" d="
  M 54.44 72.75
  L 28.00 76.33"
/>
<path stroke="#ffff80" vector-effect="non-scaling-stroke" d="
  M 262.50 63.14
  C 259.25 63.31 256.00 63.56 252.73 63.90
  C 241.30 65.09 229.87 66.34 218.46 67.66
  C 218.19 67.69 218.01 67.88 217.93 68.22"
/>
<path stroke="#ffff80" vector-effect="non-scaling-stroke" d="
  M 217.22 68.09
  C 216.91 67.87 216.67 67.77 216.50 67.79
  C 209.03 68.62 201.54 69.55 194.03 70.60"
/>
<path stroke="#ffff80" vector-effect="non-scaling-stroke" d="
  M 146.11 77.26
  L 119.94 81.60"
/>
<path stroke="#ffff80" vector-effect="non-scaling-stroke" d="
  M 96.99 85.54
  L 70.98 90.36"
/>
<path stroke="#ffff80" vector-effect="non-scaling-stroke" d="
  M 54.31 94.12
  L 28.03 99.87"
/>
<path stroke="#ffff80" vector-effect="non-scaling-stroke" d="
  M 285.03 60.92
  L 304.86 59.52
  C 305.84 59.45 306.30 58.92 306.24 57.94
  L 306.19 57.24
  C 306.13 56.28 305.62 55.80 304.66 55.81
  L 285.03 55.93"
/>
<path stroke="#ffff80" vector-effect="non-scaling-stroke" d="
  M 146.08 63.40
  L 119.87 65.75"
/>
<path stroke="#ffff80" vector-effect="non-scaling-stroke" d="
  M 262.48 56.04
  L 239.02 57.58"
/>
<path stroke="#ffff80" vector-effect="non-scaling-stroke" d="
  M 233.64 57.46
  L 194.04 60.01"
/>
<path stroke="#ffff80" vector-effect="non-scaling-stroke" d="
  M 97.06 68.01
  L 70.83 70.90"
/>
</g>
<g fill="#ffffff">
<path d="
  M 54.44 72.75
  L 28.00 76.33
  L 27.90 33.50
  C 27.90 33.18 28.16 32.92 28.48 32.92
  L 53.99 33.04
  C 54.28 33.04 54.42 33.18 54.42 33.46
  L 54.44 72.75
  Z"
/>
<path d="
  M 97.06 68.01
  L 70.83 70.90
  L 70.91 33.57
  C 70.92 33.19 71.11 33.00 71.49 33.00
  L 96.49 33.01
  C 96.90 33.01 97.10 33.21 97.10 33.62
  L 97.06 68.01
  Z"
/>
<path d="
  M 146.08 63.40
  L 119.87 65.75
  L 119.93 33.56
  C 119.93 33.19 120.12 33.00 120.49 33.00
  L 172.25 33.00
  C 172.66 33.00 173.00 33.34 173.00 33.75
  L 173.00 54.23
  C 173.00 54.36 172.90 54.46 172.77 54.46
  L 146.74 54.46
  C 146.36 54.46 146.17 54.65 146.17 55.02
  L 146.08 63.40
  Z"
/>
<path d="
  M 233.64 57.46
  L 194.04 60.01
  L 194.04 33.93
  C 194.04 33.31 194.35 33.00 194.97 33.00
  L 222.72 33.00
  C 223.16 33.00 223.55 33.26 223.72 33.66
  L 233.64 57.46
  Z"
/>
<path d="
  M 262.48 56.04
  L 239.02 57.58
  L 239.00 33.72
  C 239.00 33.32 239.33 32.99 239.73 32.99
  L 262.01 33.00
  C 262.26 33.00 262.46 33.20 262.46 33.45
  L 262.48 56.04
  Z"
/>
<path d="
  M 285.03 60.92
  L 304.86 59.52
  C 305.84 59.45 306.30 58.92 306.24 57.94
  L 306.19 57.24
  C 306.13 56.28 305.62 55.80 304.66 55.81
  L 285.03 55.93
  L 285.02 33.82
  C 285.02 33.37 285.38 33.01 285.82 33.01
  C 295.27 33.00 304.58 32.99 313.75 32.99
  C 326.35 33.00 340.59 35.06 345.61 48.42
  C 349.59 59.02 347.63 71.84 337.35 78.35
  C 337.05 78.54 336.98 78.79 337.13 79.11
  L 351.16 108.44
  C 351.28 108.70 351.09 109.00 350.80 109.00
  L 325.00 109.00
  C 324.43 109.00 323.92 108.67 323.70 108.16
  C 320.36 100.74 316.94 93.21 313.43 85.56
  C 313.16 84.95 312.68 84.61 312.00 84.54
  C 311.67 84.51 311.50 84.66 311.50 84.99
  L 311.42 108.54
  C 311.42 108.79 311.21 109.00 310.96 109.00
  L 285.52 109.00
  C 285.19 109.00 285.03 108.83 285.03 108.50
  L 285.03 60.92
  Z
  M 313.30 62.18
  C 317.60 62.03 330.17 59.73 324.46 53.39
  C 324.18 53.09 323.84 52.87 323.46 52.75
  C 319.99 51.61 316.42 51.22 312.77 51.57
  C 312.36 51.61 312.03 51.47 311.77 51.15
  L 310.45 49.54
  C 310.22 49.26 309.89 49.06 309.53 49.00
  C 308.37 48.79 307.33 49.01 306.42 49.66
  C 305.98 49.97 306.02 50.20 306.55 50.34
  C 307.56 50.61 308.33 51.24 308.86 52.23
  C 309.03 52.54 308.99 52.82 308.75 53.08
  L 307.84 54.05
  C 307.71 54.18 307.64 54.36 307.65 54.55
  L 307.80 59.70
  C 307.81 60.04 307.96 60.36 308.22 60.58
  L 308.99 61.23
  C 309.24 61.44 309.33 61.71 309.27 62.03
  C 309.11 62.85 308.70 63.51 308.04 64.00
  C 307.39 64.49 307.41 64.95 308.10 65.38
  L 308.46 65.60
  C 309.17 66.04 309.87 66.03 310.56 65.56
  C 311.57 64.87 312.24 63.94 312.56 62.77
  C 312.66 62.40 312.91 62.20 313.30 62.18
  Z"
/>
<path d="
  M 394.01 58.75
  L 402.50 33.30
  C 402.56 33.12 402.72 33.00 402.91 33.00
  L 427.47 33.00
  C 427.79 33.00 427.88 33.14 427.73 33.43
  C 420.88 47.06 413.98 60.76 407.03 74.51
  C 406.36 75.83 406.03 77.23 406.02 78.71
  C 405.99 88.74 405.98 98.74 405.99 108.71
  C 405.99 108.87 405.86 109.00 405.71 109.00
  L 380.03 109.00
  C 379.70 109.00 379.53 108.83 379.53 108.50
  C 379.53 98.51 379.52 88.55 379.49 78.62
  C 379.49 77.20 379.16 75.87 378.49 74.62
  C 371.27 61.01 364.16 47.47 357.16 34.00
  C 356.93 33.55 357.25 33.01 357.76 33.01
  L 384.63 33.00
  C 384.92 33.00 385.11 33.14 385.20 33.41
  L 393.41 58.74
  C 393.61 59.35 393.81 59.35 394.01 58.75
  Z"
/>
<path d="
  M 262.50 63.14
  L 262.45 108.53
  C 262.45 108.84 262.29 109.00 261.98 109.00
  L 237.75 109.00
  C 237.48 109.00 237.23 108.84 237.11 108.59
  L 217.93 68.22
  C 218.01 67.88 218.19 67.69 218.46 67.66
  C 229.87 66.34 241.30 65.09 252.73 63.90
  C 256.00 63.56 259.25 63.31 262.50 63.14
  Z"
/>
<path d="
  M 217.22 68.09
  L 217.50 108.74
  C 217.50 108.88 217.38 109.00 217.24 109.00
  L 194.26 109.00
  C 194.13 109.00 194.02 108.89 194.02 108.76
  L 194.03 70.60
  C 201.54 69.55 209.03 68.62 216.50 67.79
  C 216.67 67.77 216.91 67.87 217.22 68.09
  Z"
/>
<path d="
  M 146.11 77.26
  L 146.21 87.00
  C 146.21 87.36 146.39 87.54 146.75 87.54
  L 173.99 87.49
  C 174.32 87.49 174.48 87.66 174.48 87.99
  L 174.46 108.52
  C 174.46 108.79 174.25 109.00 173.98 109.00
  L 120.28 109.00
  C 119.98 109.00 119.83 108.85 119.83 108.55
  L 119.94 81.60
  L 146.11 77.26
  Z"
/>
<path d="
  M 96.99 85.54
  L 97.09 108.43
  C 97.09 108.81 96.90 109.00 96.52 109.00
  L 71.48 109.00
  C 71.07 109.00 70.86 108.79 70.87 108.38
  L 70.98 90.36
  L 96.99 85.54
  Z"
/>
<path d="
  M 54.31 94.12
  L 54.40 108.56
  C 54.40 108.85 54.26 109.00 53.97 109.00
  L 28.74 109.00
  C 28.35 109.00 28.03 108.69 28.03 108.30
  L 28.03 99.87
  L 54.31 94.12
  Z"
/>
</g>
<path fill="#ffff00" d="
  M 285.03 55.93
  L 304.66 55.81
  C 305.62 55.80 306.13 56.28 306.19 57.24
  L 306.24 57.94
  C 306.30 58.92 305.84 59.45 304.86 59.52
  L 285.03 60.92
  L 262.50 63.14
  C 259.25 63.31 256.00 63.56 252.73 63.90
  C 241.30 65.09 229.87 66.34 218.46 67.66
  C 218.19 67.69 218.01 67.88 217.93 68.22
  C 217.68 68.03 217.45 67.98 217.22 68.09
  C 216.91 67.87 216.67 67.77 216.50 67.79
  C 209.03 68.62 201.54 69.55 194.03 70.60
  C 191.56 70.94 189.05 71.24 186.51 71.50
  C 183.06 71.86 178.62 72.97 174.50 73.00
  C 173.17 73.01 170.26 73.54 165.76 74.57
  C 163.54 75.08 160.81 74.93 158.45 75.39
  C 154.38 76.19 150.26 76.81 146.11 77.26
  L 119.94 81.60
  L 96.99 85.54
  L 70.98 90.36
  L 54.31 94.12
  L 28.03 99.87
  L 28.00 76.33
  L 54.44 72.75
  L 70.83 70.90
  L 97.06 68.01
  L 119.87 65.75
  L 146.08 63.40
  L 194.04 60.01
  L 233.64 57.46
  L 239.02 57.58
  L 262.48 56.04
  C 262.59 56.07 262.66 56.11 262.71 56.17
  C 262.75 56.22 262.81 56.25 262.88 56.25
  L 285.03 55.93
  Z"
/>
</svg>
