<?xml version="1.0" encoding="UTF-8" standalone="no"?>
<!DOCTYPE svg PUBLIC "-//W3C//DTD SVG 1.1//EN" "http://www.w3.org/Graphics/SVG/1.1/DTD/svg11.dtd">
<svg xmlns="http://www.w3.org/2000/svg" version="1.1" viewBox="0.00 0.00 221.00 237.00">
<g fill="#ffffff">
<circle cx="113.23" cy="50.82" r="41.23"/>
<path d="
  M 138.21 113.71
  C 155.40 120.06 168.23 134.54 172.51 152.68
  C 172.81 153.95 173.55 158.85 174.74 167.39
  C 176.35 178.98 177.96 190.16 179.57 200.93
  C 179.88 203.04 179.11 204.72 177.37 205.84
  C 171.94 209.34 165.54 211.96 158.16 213.70
  C 152.04 215.14 146.28 216.14 140.88 216.71
  C 137.97 217.02 135.00 217.30 131.95 217.57
  C 121.74 218.47 111.14 218.10 100.67 217.90
  C 94.38 217.79 86.41 216.98 76.76 215.49
  C 66.35 213.89 56.59 210.20 47.49 204.42
  C 47.17 204.22 47.00 203.93 46.99 203.55
  C 46.88 200.03 47.68 197.04 48.12 193.52
  C 49.23 184.67 50.60 174.84 52.22 164.01
  C 52.82 160.00 53.48 156.25 54.21 152.74
  C 56.31 142.61 60.82 134.06 67.75 127.09
  C 76.68 118.11 86.80 112.84 98.12 111.29
  C 104.34 110.44 111.53 110.17 119.68 110.49
  C 126.99 110.78 133.16 111.85 138.21 113.71
  Z"
/>
</g>
</svg>
