<?xml version="1.0" encoding="UTF-8" standalone="no"?>
<!DOCTYPE svg PUBLIC "-//W3C//DTD SVG 1.1//EN" "http://www.w3.org/Graphics/SVG/1.1/DTD/svg11.dtd">
<svg xmlns="http://www.w3.org/2000/svg" version="1.1" viewBox="0.00 0.00 240.00 360.00">
<g fill="#01a58a">
<circle cx="122.00" cy="113.32" r="55.15"/>
<path d="
  M 72.55 332.89
  C 59.36 330.48 48.90 326.77 37.86 320.51
  C 35.31 319.07 32.91 318.33 33.39 314.74
  C 35.69 297.38 38.42 276.06 41.61 256.88
  C 42.93 248.94 44.59 242.44 46.60 237.39
  C 50.35 227.94 55.98 219.71 63.49 212.72
  C 76.14 200.95 90.45 194.47 106.42 193.28
  C 111.95 192.87 119.07 192.69 127.78 192.75
  C 135.69 192.81 142.33 193.49 147.70 194.80
  C 171.99 200.71 191.41 218.77 199.24 242.33
  C 200.87 247.22 202.22 253.77 203.30 261.98
  C 205.60 279.44 208.05 296.79 210.66 314.03
  C 211.37 318.68 205.91 321.48 201.87 323.55
  C 187.08 331.10 169.49 333.64 153.45 335.32
  C 145.18 336.18 136.64 336.27 128.21 336.69
  C 124.28 336.88 120.35 336.90 116.41 336.75
  C 110.06 336.49 103.93 336.21 98.00 335.92
  C 89.80 335.51 81.32 334.50 72.55 332.89
  Z"
/>
</g>
</svg>
