<?xml version="1.0" encoding="UTF-8"?>
<svg id="Capa_1" data-name="Capa 1" xmlns="http://www.w3.org/2000/svg" viewBox="0 0 50 50">
  <defs>
    <style>
      .cls-1 {
        fill: #fff;
        stroke-width: 0px;
      }
    </style>
  </defs>
  <path class="cls-1" d="M25,50.31C11.04,50.31-.31,38.96-.31,25S11.04-.31,25-.31s25.31,11.35,25.31,25.31-11.36,25.31-25.31,25.31ZM25,.31C11.39.31.31,11.39.31,25s11.08,24.69,24.69,24.69,24.69-11.08,24.69-24.69S38.61.31,25,.31Z"/>
  <g>
    <path class="cls-1" d="M39.5,18.37h-4.67c0-.07-.02-.11-.02-.16,0-1.25-.01-2.51,0-3.76.02-1.53,1.18-2.57,2.67-2.42.93.09,1.75.86,1.97,1.85.01.06.03.13.05.19v4.3Z"/>
    <path class="cls-1" d="M14.89,31.81c0-.13,0-.22,0-.31.04-5.71.09-11.42.13-17.12,0-.97.37-1.72,1.25-2.13.34-.16.74-.23,1.12-.23,5.76-.01,11.51,0,17.27,0,.08,0,.16.01.3.02-.09.11-.15.19-.22.27-.53.62-.8,1.33-.79,2.15,0,1.44,0,2.89,0,4.33,0,5.26,0,10.53,0,15.79,0,1.55-.83,2.76-2.22,3.25-2.03.72-4.27-.8-4.33-2.95-.02-.79,0-1.58,0-2.38,0-.53-.14-.67-.67-.67-3.81,0-7.62,0-11.44,0h-.39ZM28.48,18.72s.02,0,.03,0c0-.58,0-1.17,0-1.75,0-.28-.11-.45-.36-.58-1.22-.59-2.44-1.19-3.65-1.8-.24-.12-.46-.11-.7,0-1.2.6-2.4,1.19-3.6,1.77-.27.13-.4.31-.39.62,0,1.1-.01,2.21,0,3.31.02,1.27.54,2.3,1.57,3.05.8.58,1.63,1.12,2.45,1.68.24.16.44.16.67,0,.8-.56,1.62-1.1,2.42-1.67.91-.65,1.43-1.55,1.54-2.65.06-.65.01-1.32.01-1.98ZM24.36,27.5c.92,0,1.85,0,2.77,0,1.07,0,2.13,0,3.2,0,.28,0,.47-.18.47-.42,0-.25-.17-.42-.45-.44-.08,0-.15,0-.23,0-3.83,0-7.66,0-11.49,0-.11,0-.25-.03-.33.02-.13.08-.29.21-.32.34-.02.13.07.32.18.42.08.08.26.08.4.08,1.93,0,3.87,0,5.8,0ZM24.38,29.81c1.92,0,3.83,0,5.75,0,.47,0,.69-.14.68-.45,0-.3-.21-.43-.67-.43-3.84,0-7.68,0-11.52,0-.1,0-.21,0-.31.02-.22.03-.33.18-.35.38-.02.21.08.37.29.43.11.03.24.04.36.04,1.92,0,3.85,0,5.77,0Z"/>
    <path class="cls-1" d="M28.09,37.98c-.15,0-.25.02-.34.02-4.6,0-9.19,0-13.79,0-1.71,0-3.02-.99-3.36-2.58-.11-.52-.08-1.07-.1-1.6-.01-.37,0-.73,0-1.11h15.99c0,.23,0,.46,0,.68.02.7,0,1.4.09,2.09.12.9.58,1.64,1.24,2.27.07.07.15.14.26.25Z"/>
    <path class="cls-1" d="M20.69,18.94c0-.54,0-1.08,0-1.61,0-.17.06-.25.2-.32,1.03-.5,2.04-1.01,3.07-1.5.11-.05.28-.05.39,0,1.03.49,2.05,1.01,3.07,1.51.15.07.2.16.2.32,0,1.01.01,2.02,0,3.03-.02.97-.44,1.74-1.24,2.3-.67.47-1.36.92-2.03,1.39-.15.1-.25.11-.4,0-.68-.48-1.37-.93-2.05-1.42-.79-.56-1.19-1.35-1.21-2.31-.01-.46,0-.92,0-1.39ZM23.66,20.21c-.21-.22-.4-.44-.61-.65-.24-.24-.5-.26-.69-.07-.18.19-.17.44.06.67.28.29.57.58.86.86.29.29.5.29.8,0,.5-.5,1-1,1.5-1.5.15-.15.3-.29.43-.45.15-.19.13-.4-.04-.56-.16-.16-.35-.17-.54-.04-.08.05-.15.12-.21.19-.51.51-1.01,1.01-1.55,1.55Z"/>
  </g>
</svg>