<?xml version="1.0" encoding="UTF-8"?>
<svg id="Capa_1" data-name="Capa 1" xmlns="http://www.w3.org/2000/svg" version="1.1" viewBox="0 0 84 84">
  <defs>
    <style>
      .cls-1 {
        fill: #01a28b;
      }

      .cls-1, .cls-2 {
        stroke-width: 0px;
      }

      .cls-2 {
        fill: #fff;
      }
    </style>
  </defs>
  <circle class="cls-1" cx="42" cy="42" r="42"/>
  <g>
    <path class="cls-2" d="M45.7,27.4c-.2,0-.3,0-.5,0-1.2,0-2.1.8-2.4,2.3-1.8,7.3-3.7,14.7-5.5,22l-.8,3.1c-.3,1.2-.5,3.3,1.5,3.9.7.2,1.3.1,1.8-.2.7-.4,1.2-1.3,1.5-2.5,1-3.9,1.9-7.7,2.9-11.6l1.6-6.4c.5-1.9.9-3.7,1.4-5.5l.6-2.3c-.1-1.7-.8-2.5-2.2-2.8Z"/>
    <path class="cls-2" d="M32,48.6c-1.3-1.2-2.7-2.3-4.1-3.5l-2.4-2.1,2.4-2c1.4-1.2,2.7-2.3,4.1-3.5.9-.8,1.3-1.6,1.4-2.4,0-.6-.2-1.2-.7-1.7-.5-.5-1.1-.8-1.8-.8s-1.5.3-2.2,1c-2.9,2.5-5.6,4.8-8.2,7-1,.9-1.5,1.7-1.5,2.4,0,.7.5,1.5,1.5,2.4,2.9,2.5,5.7,5,8.2,7,.8.7,1.7,1.1,2.5,1,.6,0,1.2-.4,1.6-.9,1.4-1.7.1-3.2-.8-3.9Z"/>
    <path class="cls-2" d="M65,43c0-.8-.5-1.6-1.5-2.4-2.3-2.1-4.8-4.1-7.1-6.1l-.9-.8c-.9-.7-1.7-1.1-2.4-1.1s-1.2.3-1.7.8c-.5.5-.7,1.1-.7,1.7,0,.8.5,1.6,1.4,2.4,1.3,1.2,2.7,2.3,4.1,3.5l2.3,2-2.3,2c-1.4,1.2-2.8,2.4-4.2,3.6-1.5,1.3-1.7,2.7-.7,3.9,1,1.2,2.6,1.1,4,0,3.1-2.6,5.7-4.9,8.2-7,1-.9,1.5-1.7,1.5-2.4Z"/>
  </g>
</svg>