<?xml version="1.0" encoding="UTF-8"?>
<svg id="Capa_1" data-name="Capa 1" xmlns="http://www.w3.org/2000/svg" version="1.1" viewBox="0 0 84 84">
  <defs>
    <style>
      .cls-1 {
        fill: #01a28b;
      }

      .cls-1, .cls-2 {
        stroke-width: 0px;
      }

      .cls-2 {
        fill: #fff;
      }
    </style>
  </defs>
  <circle class="cls-1" cx="42" cy="42" r="42"/>
  <g>
    <path class="cls-2" d="M59.4,25.2c-1.2,0-2.5,0-3.7,0-.2,0-.3,0-.5,0,0-1,0-2,0-2.9,0-.9-.7-1.5-1.6-1.4-.8,0-1.3.7-1.3,1.5,0,.9,0,1.9,0,2.8h-8.8c0-.9,0-1.8,0-2.7,0-.9-.6-1.6-1.5-1.6-.9,0-1.5.7-1.5,1.6,0,.9,0,1.8,0,2.7-.1,0-.2,0-.3,0-2.7,0-5.4,0-8.1,0-.3,0-.4,0-.4-.4,0-.9,0-1.8,0-2.7,0-.7-.6-1.2-1.2-1.3-.7-.1-1.3.3-1.6.9,0,.2-.1.5-.1.8,0,.9,0,1.8,0,2.7-.2,0-.4,0-.5,0-1.3,0-2.6,0-3.9,0-2.5,0-4.3,1.9-4.3,4.4,0,1.9,0,3.8,0,5.7,0,.9.6,1.6,1.5,1.6.8,0,1.4-.7,1.4-1.6,0-.4,0-.9,0-1.3h38.1c0,1,0,1.9,0,2.9,0,.4.2.8.4,1.1.4.5,1,.6,1.6.3.6-.2.9-.8.9-1.5,0-2.3,0-4.7,0-7,0-2.7-1.9-4.6-4.6-4.6ZM28.8,31h-5.8c0-.6,0-1.2,0-1.7,0-.6.6-1.1,1.2-1.1,1.5,0,3,0,4.6,0v2.9ZM52.2,31h-20.5v-2.9h20.5v2.9ZM61.1,31h-5.8v-2.9c.1,0,.3,0,.4,0,1.3,0,2.5,0,3.8,0,1,0,1.6.6,1.6,1.6,0,.4,0,.8,0,1.3Z"/>
    <path class="cls-2" d="M50.9,36.9c-7.3,0-13.3,5.8-13.3,13.1,0,7.3,5.8,13.2,13.2,13.3,7.2,0,13.2-5.9,13.2-13.2,0-7.2-5.9-13.1-13.1-13.2ZM50.8,60.3c-5.7,0-10.3-4.6-10.3-10.3,0-5.7,4.6-10.2,10.2-10.2,5.7,0,10.3,4.6,10.3,10.2,0,5.6-4.6,10.2-10.3,10.2Z"/>
    <path class="cls-2" d="M35.9,58c-3.7,0-7.5,0-11.2,0-1.2,0-1.8-.5-1.8-1.8,0-2,0-4,0-6.1,0-2.9,0-5.8,0-8.7,0-.6-.2-1.1-.7-1.4-.5-.3-1-.3-1.4,0-.6.3-.8.8-.8,1.4,0,2.6,0,5.1,0,7.7,0,2.4,0,4.8,0,7.3,0,.4,0,.9.1,1.3.5,2.1,2.2,3.3,4.5,3.3,3.7,0,7.5,0,11.2,0,.2,0,.4,0,.5,0,.9-.1,1.4-1,1.1-1.9-.2-.7-.7-1-1.6-1Z"/>
    <path class="cls-2" d="M28.1,48.6c-.9,0-1.5.7-1.5,1.5,0,.8.6,1.4,1.5,1.4.7,0,1.4,0,2.1,0,.7,0,1.4,0,2.2,0,.9,0,1.5-.6,1.5-1.4,0-.8-.6-1.5-1.5-1.5-1.5,0-2.9,0-4.4,0Z"/>
    <path class="cls-2" d="M32.6,42.7c.8,0,1.4-.7,1.3-1.5,0-.8-.7-1.4-1.5-1.4-.7,0-1.4,0-2.2,0s-1.4,0-2.2,0c-.8,0-1.5.6-1.5,1.4,0,.8.5,1.5,1.4,1.5,1.5,0,3.1,0,4.6,0Z"/>
    <path class="cls-2" d="M28.1,47.1c.7,0,1.4,0,2.1,0,.7,0,1.4,0,2.1,0,.9,0,1.5-.6,1.5-1.4,0-.8-.6-1.5-1.5-1.5-1.4,0-2.9,0-4.3,0-.9,0-1.5.6-1.5,1.5,0,.8.6,1.4,1.5,1.4Z"/>
    <path class="cls-2" d="M56.1,51.1c-1.2-.6-2.4-1.2-3.5-1.8-.2-.1-.3-.3-.3-.5,0-.8,0-1.5,0-2.3,0-.7,0-1.5,0-2.2,0-.9-.6-1.5-1.4-1.5-.8,0-1.5.6-1.5,1.5,0,1.9,0,3.9,0,5.8,0,.6.3,1.1.9,1.4,1.5.8,3,1.5,4.6,2.3.3.1.6.2.8.2.7,0,1.2-.5,1.3-1.2.1-.6-.2-1.3-.8-1.6Z"/>
  </g>
</svg>