<?xml version="1.0" encoding="UTF-8"?>
<svg id="Capa_1" data-name="Capa 1" xmlns="http://www.w3.org/2000/svg" version="1.1" viewBox="0 0 84 84">
  <defs>
    <style>
      .cls-1 {
        fill: #01a28b;
      }

      .cls-1, .cls-2 {
        stroke-width: 0px;
      }

      .cls-2 {
        fill: #fff;
      }
    </style>
  </defs>
  <circle class="cls-1" cx="42" cy="42" r="42"/>
  <g>
    <path class="cls-2" d="M42,60.2c-2.9,0-5.8-.2-8.6-1.1-.9-.3-1.8-.8-2.6-1.2-.6-.4-.9-1-.7-1.7.4-2.7.7-5.4,1.2-8.1.9-4.4,4.9-7.7,9.5-7.7,1.6,0,3.3-.1,4.9.3,3.9,1,6.8,4.3,7.3,8.3.3,2.4.7,4.7,1,7.1.1.8-.2,1.4-.8,1.9-1.1.7-2.3,1.1-3.6,1.5-2.5.6-5,.7-7.5.8Z"/>
    <path class="cls-2" d="M42,39.4c-4.3,0-7.8-3.5-7.8-7.8,0-4.3,3.5-7.8,7.8-7.8,4.3,0,7.8,3.5,7.8,7.8,0,4.3-3.5,7.8-7.8,7.8Z"/>
    <path class="cls-2" d="M51.3,41.6c4.8-2.9,11.4,0,12.6,5.7.2.9.3,1.8.5,2.6.1.7,0,1.3-.6,1.8-1.1,1-2.4,1.6-3.8,1.8-1.3.2-2.6.3-3.9.5-.4,0-.4-.2-.4-.4-.3-1.9-.5-3.8-.9-5.7-.4-2.3-1.5-4.2-3.1-5.9-.1-.1-.2-.2-.3-.3,0,0,0,0,0,0Z"/>
    <path class="cls-2" d="M32.7,41.6c-.6.7-1.1,1.3-1.6,2-1.3,1.7-1.9,3.7-2.1,5.9-.2,1.4-.4,2.8-.6,4.2,0,.1-.2.3-.3.3-2,0-4-.2-5.9-1.1-.7-.3-1.3-.8-1.9-1.3-.4-.3-.6-.8-.5-1.4.2-1.3.4-2.7.8-3.9,1.7-5.1,7.7-7.4,12.2-4.7Z"/>
    <path class="cls-2" d="M28.9,39.4c-2.9,0-5.1-1.5-5.9-3.8-.8-2.3,0-4.8,1.9-6.4,1.9-1.5,4.5-1.6,6.6-.4.3.2.4.3.3.7-.5,2.5-.1,4.9,1.1,7.1.2.3.1.5,0,.8-1.2,1.3-2.6,2-3.9,2Z"/>
    <path class="cls-2" d="M61.3,33.3c0,2.8-1.5,4.9-3.8,5.8-2.3.8-4.7.2-6.3-1.6-.3-.3-.3-.5,0-.8,1.2-2.2,1.6-4.6,1.1-7.1,0-.3,0-.5.3-.7,1.9-1.1,3.9-1.2,5.8-.1,1.9,1.1,2.9,2.8,2.9,4.6Z"/>
  </g>
</svg>