<?xml version="1.0" encoding="UTF-8"?>
<svg id="Capa_1" data-name="Capa 1" xmlns="http://www.w3.org/2000/svg" viewBox="0 0 1280 23.94">
  <defs>
    <style>
      .cls-1 {
        fill: #fff;
        stroke-width: 0px;
      }
    </style>
  </defs>
  <path class="cls-1" d="M997.02,17.93l-18.93-14.61c-.26-.2-.58-.31-.92-.31h-224.75C751.8,1.26,750.15,0,748.18,0c-2.49,0-4.51,2.02-4.51,4.51s2.02,4.51,4.51,4.51c1.96,0,3.62-1.26,4.24-3.01h224.24l18.93,14.61c.26.2.58.31.92.31h283.49v-3h-282.98Z"/>
  <path class="cls-1" d="M114.39,20.62c.26.2.58.31.92.31h72.69c.62,1.75,2.27,3.01,4.24,3.01,2.49,0,4.51-2.02,4.51-4.51s-2.02-4.51-4.51-4.51c-1.96,0-3.62,1.26-4.24,3.01h-72.18l-18.93-14.61c-.26-.2-.58-.31-.92-.31H0v3h95.46l18.93,14.61Z"/>
</svg>