<?xml version="1.0" encoding="UTF-8"?>
<svg id="Capa_1" data-name="Capa 1" xmlns="http://www.w3.org/2000/svg" viewBox="0 0 1280 55.38">
  <defs>
    <style>
      .cls-1 {
        fill: #fff;
        stroke-width: 0px;
      }
    </style>
  </defs>
  <path class="cls-1" d="M433.22,27.81l-18.93-14.61c-.26-.2-.58-.31-.92-.31h-224.75c-.62-1.75-2.27-3.01-4.24-3.01-2.49,0-4.51,2.02-4.51,4.51s2.02,4.51,4.51,4.51c1.96,0,3.62-1.26,4.24-3.01h224.24l18.93,14.61c.26.2.58.31.92.31h847.29v-3H433.22Z"/>
  <path class="cls-1" d="M67.08,52.37h178.76c.62,1.75,2.27,3.01,4.24,3.01,2.49,0,4.51-2.02,4.51-4.51s-2.02-4.51-4.51-4.51c-1.96,0-3.62,1.26-4.24,3.01H67.57L.89.29C.62.09.31,0,0,0v3.36l66.19,48.72c.26.19.57.29.89.29Z"/>
</svg>