<?xml version="1.0" encoding="UTF-8"?>
<svg id="Capa_1" data-name="Capa 1" xmlns="http://www.w3.org/2000/svg" viewBox="0 0 1280 55.38">
  <defs>
    <style>
      .cls-1 {
        fill: #fff;
        stroke-width: 0px;
      }
    </style>
  </defs>
  <path class="cls-1" d="M722.51,27.81c-.83,0-1.5.67-1.5,1.5s.67,1.5,1.5,1.5h557.49v-3h-557.49Z"/>
  <path class="cls-1" d="M554.9,27.81h-121.68l-18.93-14.61c-.26-.2-.58-.31-.92-.31h-224.75c-.62-1.75-2.27-3.01-4.24-3.01-2.49,0-4.51,2.02-4.51,4.51s2.02,4.51,4.51,4.51c1.96,0,3.62-1.26,4.24-3.01h224.24l18.93,14.61c.26.2.58.31.92.31h122.19c.83,0,1.5-.67,1.5-1.5s-.67-1.5-1.5-1.5Z"/>
  <path class="cls-1" d="M250.08,46.36c-1.96,0-3.62,1.26-4.24,3.01H67.57L.89.29C.62.09.31,0,0,0v3.36l66.19,48.72c.26.19.57.29.89.29h178.76c.62,1.75,2.27,3.01,4.24,3.01,2.49,0,4.51-2.02,4.51-4.51s-2.02-4.51-4.51-4.51Z"/>
</svg>