<?xml version="1.0" encoding="UTF-8"?>
<svg id="Capa_1" data-name="Capa 1" xmlns="http://www.w3.org/2000/svg" viewBox="0 0 1280 29.04">
  <defs>
    <style>
      .cls-1 {
        fill: #fff;
        stroke-width: 0px;
      }
    </style>
  </defs>
  <path class="cls-1" d="M393.62,25.71c.26.2.58.31.92.31h234.81c.62,1.75,2.27,3.01,4.24,3.01,2.49,0,4.51-2.02,4.51-4.51s-2.02-4.51-4.51-4.51c-1.96,0-3.62,1.26-4.24,3.01h-234.3l-18.93-14.61c-.26-.2-.58-.31-.92-.31H0v3h374.68l18.93,14.61Z"/>
  <path class="cls-1" d="M1174.22,23.02l-24.04-19.67c-.27-.22-.6-.34-.95-.34h-60.54C1088.08,1.26,1086.42,0,1084.46,0c-2.49,0-4.51,2.02-4.51,4.51s2.02,4.51,4.51,4.51c1.96,0,3.62-1.26,4.24-3.01h60.01l24.04,19.67c.27.22.6.34.95.34h106.31v-3h-105.78Z"/>
</svg>