<?xml version="1.0" encoding="utf-8"?>
<!-- Generator: Adobe Illustrator 28.0.0, SVG Export Plug-In . SVG Version: 6.00 Build 0)  -->
<svg version="1.1" id="Capa_1" xmlns="http://www.w3.org/2000/svg" xmlns:xlink="http://www.w3.org/1999/xlink" x="0px" y="0px"
	 viewBox="0 0 1200 1200" style="enable-background:new 0 0 1200 1200;" xml:space="preserve">
<style type="text/css">
	.st0{fill:#FFFFFF;}
	.st1{fill:#043A53;}
</style>
<g>
	<g>
		<path class="st0" d="M862.71,604.06c0-44.42-0.11-88.85,0.13-133.27c0.03-5.63-2.3-8.65-7.18-11.33
			c-48.61-26.61-97.12-53.37-145.66-80.08c-34.01-18.72-68.05-37.39-101.99-56.21c-5.01-2.78-9.8-3.63-14.94-0.87
			c-20.17,10.81-40.32,21.65-60.47,32.5c-31.2,16.8-62.37,33.66-93.6,50.42c-31.4,16.85-62.86,33.6-94.27,50.43
			c-4.31,2.31-6.42,5.4-6.4,10.65c0.21,88.84,0.16,177.69,0.13,266.53c0,2.83,0.08,5.58-0.98,8.47c-1.43,3.91,0.71,7.2,4.44,9.22
			c25.9,13.99,51.84,27.91,77.76,41.86c29.63,15.94,59.25,31.9,88.88,47.83c27.68,14.88,55.36,29.75,83.05,44.62
			c4.23,2.27,8.56,2.37,12.79,0.1c18.34-9.84,36.68-19.69,54.97-29.61c37-20.09,73.94-40.27,110.95-60.33
			c28.82-15.62,57.74-31.08,86.54-46.75c3.99-2.17,6.05-5.29,6.02-10.32C862.6,693.29,862.71,648.67,862.71,604.06z M852.96,733.86
			c0,3.5-1.03,5.32-4.37,7.12c-44.65,24.06-89.17,48.33-133.76,72.5c-37.61,20.38-75.27,40.68-112.86,61.08
			c-2.78,1.51-4.89,1.55-7.82-0.04c-34.63-18.78-69.39-37.37-104.08-56.06c-26.11-14.06-52.16-28.21-78.25-42.3
			c-19.29-10.41-38.53-20.9-57.95-31.08c-4.08-2.14-5.65-4.42-5.63-8.95c0.21-44.42,0.13-88.83,0.13-133.25
			c0-43.84,0.1-87.67-0.15-131.51c-0.03-4.68,1.68-7.11,5.69-9.25c42.07-22.36,84.08-44.81,126.1-67.26
			c38.48-20.56,77-41.07,115.32-61.89c3.97-2.16,6.28-1.57,9.76,0.36c34.15,18.98,68.39,37.83,102.65,56.64
			c47.13,25.88,94.3,51.72,141.48,77.53c2.69,1.47,3.78,3.08,3.78,6.24C852.85,560.44,852.85,647.15,852.96,733.86z"/>
		<path class="st0" d="M844.27,475.63c0-4.42-1.97-7.02-5.9-9.16c-41.15-22.39-82.23-44.89-123.33-67.35
			c-35.49-19.39-70.99-38.75-106.48-58.14c-4.4-2.4-8.76-3.69-13.7-1.03c-52.76,28.44-105.56,56.83-158.35,85.23
			c-24.57,13.22-49.12,26.47-73.73,39.63c-4.77,2.55-7.25,5.46-7.21,11.28c0.34,42.09,0.18,84.19,0.18,126.29
			c0,41.9,0.16,83.81-0.17,125.71c-0.05,6.53,2.54,10.13,8.21,13.18c25.25,13.56,50.41,27.28,75.52,41.09
			c50.77,27.92,101.49,55.94,152.22,83.92c4.05,2.23,7.98,2.15,12.08-0.13c18.92-10.55,37.87-21.04,56.85-31.5
			c36.38-20.04,72.81-39.99,109.15-60.09c23.17-12.82,46.2-25.87,69.33-38.76c3.4-1.89,5.34-4.1,5.34-8.16
			C844.18,643.62,844.19,559.63,844.27,475.63z M834.41,721.66c0,3.45-1,5.62-4.27,7.41c-22.86,12.52-45.61,25.22-68.42,37.82
			c-26.44,14.6-52.91,29.14-79.34,43.76c-27.31,15.11-54.6,30.26-81.87,45.44c-2.42,1.35-4.45,1.13-6.76-0.15
			c-28.56-15.81-57.13-31.61-85.73-47.35c-30.16-16.61-60.34-33.17-90.54-49.72c-16.04-8.79-32.08-17.59-48.22-26.22
			c-3.13-1.67-3.69-3.83-3.69-6.91c0.09-40.75,0.06-81.5,0.06-122.25c0-40.56,0.1-81.12-0.13-121.67c-0.03-5.04,1.5-7.66,6.29-10.19
			c34.36-18.17,68.5-36.72,102.71-55.13c38.75-20.85,77.77-41.29,116.09-62.82c8.23-4.63,13.51-3.66,20.78,0.35
			c50.34,27.82,100.86,55.35,151.34,82.96c22.35,12.22,44.67,24.47,67.13,36.52c3.25,1.74,4.6,3.52,4.59,7.12
			C834.31,560.97,834.32,641.31,834.41,721.66z"/>
		<path class="st0" d="M1086.22,596.55c-2.45-3.4-6.06-3.75-9.69-1.85c-2.61,1.37-5.23,1.85-8.17,1.85
			c-59.41-0.04-118.82-0.03-178.23-0.03c-3.28,0-6.69,0.64-6.54-4.41c0.15-5.01,3.79-3.65,6.53-3.65
			c47.69-0.06,95.39-0.02,143.08-0.09c2.94,0,5.8,0.25,8.31,1.46c3.75,1.8,6.4,0.38,8.53-2.18c1.9-2.3,1.97-4.88-0.11-7.4
			c-2.48-3-6.19-3.27-8.8-1.74c-3.34,1.96-6.57,1.79-9.97,1.8c-44.2,0.03-88.4,0.02-132.59,0.02c-14.9,0-14.94,0-14.84-14.02
			c0.02-2.37-0.95-5,1.81-6.87c7.87-5.33,13.86-12.58,21.2-18.45c4.14-3.31,7.44-7.7,13.06-9.24c3.73-1.02,6.12-3.55,5.57-7.2
			c-0.43-2.87-2.26-5.37-5.98-5.67c-4.08-0.33-6.6,1.44-7.86,5.01c-0.83,2.36-1.81,4.52-3.92,6.32
			c-6.22,5.33-12.19,10.92-18.29,16.37c-1.54,1.38-2.76,3.4-5.44,3.06c-0.51-11.39-0.49-11.37,2.04-13.7
			c8.77-8.09,17.6-16.11,26.22-24.33c3.11-2.96,6.48-4.31,10.91-4.27c15.01,0.14,30.01,0.1,45.02,0.02
			c3.74-0.02,7.29,0.19,10.52,2.22c3.46,2.17,6.34,0.81,8.47-1.85c2.18-2.73,2.2-5.74-0.33-8.46c-2.29-2.46-5.08-3.51-8.12-1.45
			c-2.57,1.74-5.36,1.68-8.2,1.68c-15.41,0.01-30.83,0.24-46.23-0.13c-7.13-0.18-12.51,1.83-17.37,6.74
			c-7.04,7.11-14.67,13.7-22.53,20.96c-1.13-9.45-1.19-9.51,4.85-14.99c7.38-6.7,15.07-13.09,22.21-20
			c2.75-2.66,5.48-3.36,9.15-3.35c23.85,0.11,47.69,0.05,71.54,0.06c2.82,0,5.44,0.06,8.2,1.51c2.98,1.57,6.78,1.94,9.45-1.2
			c1.98-2.32,1.99-4.89,0.24-7.39c-2.29-3.26-6.43-3.2-8.79-1.85c-4.72,2.7-9.49,1.88-14.26,1.91c-23.02,0.11-46.05,0.15-69.07-0.04
			c-4.46-0.04-7.68,1.22-10.84,4.15c-7.2,6.67-14.77,12.98-23.29,20.4c0.55-4.56-1.3-7.7,1.68-10.57
			c7.17-6.9,14.32-13.81,21.2-20.96c2.6-2.69,5.35-3.53,9.08-3.48c12.95,0.18,25.9-0.06,38.85,0.13c6.03,0.09,12.12-1.02,18.04,1.95
			c2.83,1.42,5.75-0.64,7.6-3.38c1.91-2.81,1.04-5.24-1.01-7.34c-2.21-2.27-5.54-3.82-8.11-1.55c-4.32,3.82-9.27,3.35-14.33,3.35
			c-11.72-0.01-23.55,0.95-35.12-0.26c-12.54-1.32-20.64,3.7-27.56,12.34c-1.84,2.3-3.97,4.4-6.1,6.47c-1.04,1.01-1.89,2.7-4.2,1.78
			c0-3.4,0.1-6.87-0.04-10.33c-0.08-1.91,0.71-3.12,2.17-4.42c10.99-9.85,21.97-19.71,32.72-29.79c2.85-2.68,5.72-3.72,9.71-3.67
			c14.8,0.19,29.6,0.11,44.4,0.05c3.1-0.01,6,0.11,8.73,1.89c3.28,2.14,6.62,1.64,9.27-1.13c2.32-2.42,2.4-5.3,0.46-7.95
			c-2.41-3.31-6.37-3.36-9.32-1.77c-3.69,1.99-7.34,2.01-11.19,2.01c-11.1,0-22.3,0.85-33.28-0.22
			c-13.26-1.29-23.56,2.08-31.4,12.26c-1.54,2-3.67,3.64-5.65,5.32c-5.25,4.45-9.75,9.71-16.07,13.7c-1.17-5.14-0.46-8.88,3.42-12.4
			c9.43-8.56,18.49-17.49,27.63-26.33c1.97-1.91,4.06-2.86,7-2.85c25.08,0.1,50.16,0.07,75.24,0.04c2.13,0,4.08,0.21,5.66,1.71
			c2.89,2.74,6.04,2.45,8.69,0.01c2.74-2.52,3.42-5.73,0.9-8.84c-2.42-3-5.54-3.86-9.09-1.69c-2.53,1.55-5.26,1.82-8.18,1.81
			c-22.41-0.05-44.83,0.48-67.21-0.29c-10.2-0.35-17.43,2.25-23.91,9.64c-7.02,7.99-15.33,14.97-22.96,22.49
			c-2.9,2.86-4.99,0.97-7.23-0.67c-1.58-1.15-1.74-1.95,0.01-3.54c12.97-11.83,25.78-23.81,38.55-35.83
			c1.76-1.65,3.54-2.24,5.96-2.14c18.82,0.71,37.72-1.36,56.5,1.2c4.13,0.56,6.86-1.34,8.17-4.62c1.09-2.72-0.05-5.33-2.75-7.03
			c-3.09-1.96-6.27-1.88-8.92,0.54c-2.12,1.94-4.43,2.47-7.22,2.44c-9.86-0.09-19.84,0.81-29.57-0.28
			c-16.27-1.81-28.58,2.74-39.01,14.92c-8.44,9.84-19,18.07-28.5,27.12c-4.3,4.1-6.72-0.4-9.25-1.93c-3.6-2.18,0.55-3.46,1.69-4.55
			c5.61-5.36,11.26-10.71,17.3-15.62c7.03-5.71,12.12-13.56,21.52-16.76c2.67-0.91,4.24-3.89,3.21-6.81
			c-0.91-2.56-2.62-4.72-6.08-4.91c-3.44-0.18-6.46,0.64-7.2,3.95c-1.34,5.99-6.19,9.23-10.41,13.05
			c-7.69,6.96-15.39,13.9-23.01,20.92c-7.17,6.62-8.38,6.66-16.11-0.19c3.11-1.13,5.85-2.64,8.17-4.9
			c12.54-12.23,24.93-24.6,37.83-36.49c7.05-6.49,12.34-14.94,22.42-18.31c2.96-0.99,4.11-3.86,3.23-6.76
			c-0.76-2.49-2.73-4.33-5.59-4.74c-3.37-0.49-6.07,0.79-7.61,3.66c-1.26,2.34-1.46,5.01-3.65,7.1
			c-17.15,16.35-34.15,32.84-51.23,49.25c-0.97,0.93-2.14,2.21-3.33,2.33c-11.79,1.24-22.81-0.2-32.09-9.18
			c5.9,0,11.22-0.26,16.49,0.07c6.23,0.39,11.01-1.66,15.18-5.93c7.36-7.53,14.8-15.01,22.57-22.15c4.45-4.09,7.7-9.75,14.42-11.25
			c3.84-0.86,5.49-3.12,5.32-6.6c-0.17-3.34-2.52-5.34-5.68-6.05c-3.5-0.78-5.92,1.35-7.49,3.96c-1.28,2.11-1.58,4.63-3.55,6.53
			c-10.17,9.8-20.3,19.66-30.31,29.6c-2.73,2.71-5.7,3.96-9.74,3.86c-9.04-0.22-18.09-0.17-27.13-0.03
			c-4.88,0.08-9.07-1.43-13.14-3.74c-2.88-1.64-3.11-3.16-0.35-4.99c6.62-4.37,8.01-10.47,7.52-17.7
			c-0.53-7.89,0.85-15.96-0.32-23.72c-2.68-17.87,2.9-31.95,18.94-42.15c0.33-0.21,0.53-0.61,0.87-0.82
			c5.92-3.68,9.42-10.31,16.67-12.32c3.88-1.08,5.98-3.18,5.62-7.01c-0.31-3.28-2.55-5.17-5.83-5.75c-3.92-0.68-6.55,1.61-7.45,4.65
			c-0.96,3.22-2.98,5.4-5.33,7.51c-8.9,7.99-17.79,15.98-26.8,23.85c-3.72,3.24-5.15,6.99-5.08,11.76
			c0.21,15.45-0.38,30.92,0.3,46.35c0.28,6.37-3.66,9.39-7.57,12.87c-2.75,2.44-5.24-0.12-6.87-1.55c-2.93-2.55,0.58-3.54,2.2-4.41
			c5.63-3.03,7.29-7.37,7.13-13.42c-0.43-16.21-0.11-32.45-0.18-48.67c-0.01-2.81,0.45-5.23,2.68-7.37
			c14.36-13.78,28.64-27.64,42.94-41.48c1.62-1.57,3.41-2.79,5.84-2.85c3.99-0.09,5.87-2.48,6.47-5.73
			c0.63-3.42-1.79-5.42-4.77-6.62c-3.83-1.53-6.45,0.69-8.22,3.37c-1.72,2.6-3.32,5.2-5.63,7.42c-14.5,13.91-28.9,27.92-43.45,41.8
			c-3.1,2.96-4.32,6.23-4.28,10.33c0.13,15.64-0.57,31.32,0.29,46.92c0.41,7.46-3.73,10.78-9.05,14.19
			c-3.02,1.93-5.23-0.27-6.97-1.78c-2.54-2.2,0.48-3.36,1.9-4.26c6.08-3.82,7.87-8.95,7.65-15.78c-0.51-15.44-0.06-30.9-0.23-46.35
			c-0.04-3.78,1.22-6.58,4.1-9.16c7.56-6.79,14.92-13.78,22.41-20.64c2.85-2.62,5.22-5.58,9.93-6.06c3.48-0.36,5.49-3.59,5.27-6.87
			c-0.2-3.02-2.3-5.49-5.72-6.05c-3.81-0.62-6.16,1.46-7.51,4.6c-1.01,2.34-2.15,4.52-4.16,6.32c-8.76,7.83-17.31,15.87-26.2,23.56
			c-3.88,3.36-5.84,6.95-5.76,12.01c0.23,16.22-0.04,32.45,0.19,48.67c0.06,4.23-1.03,7.53-4.69,10c-1.28,0.86-2.22,2.78-4.02,2.11
			c-1.96-0.73-0.97-2.73-0.97-4.13c-0.07-19.89,0.04-39.79-0.13-59.68c-0.03-3,0.98-5.07,3.2-7.02
			c11.54-10.14,22.87-20.51,34.59-30.46c6.06-5.15,9.93-10.38,9.22-18.76c-0.91-10.75-0.23-21.62-0.23-32.43
			c0-2.29-0.17-4.51,1.95-6.37c2.86-2.51,2.89-5.5,0.24-8.18c-2.31-2.33-5.2-3.08-8.33-1.31c-3.22,1.83-4.7,4.64-3.08,7.86
			c1.97,3.88,1.8,7.85,1.8,11.88c0.01,9.66-0.34,19.33,0.1,28.97c0.24,5.25-2.05,8.69-5.86,12.01
			c-12.5,10.89-24.8,21.96-37.29,32.86c-2.8,2.45-3.75,5.19-3.7,8.71c0.15,12.36,0.06,24.72,0.06,37.08c0,9.18,0,18.37,0,28.14
			c-6.32-2.17-9.31-4.94-9.13-11.33c0.51-17.95,0.16-35.92,0.18-53.88c0-2.26-0.44-4.64,1.61-6.49
			c13.47-12.16,26.75-24.52,40.51-36.38c3.35-2.88,5.07-5.42,4.99-9.68c-0.36-19.31-0.44-38.62-0.65-57.92
			c-0.03-2.33-0.22-4.71,1.4-6.64c2.82-3.35,2.42-6.41-0.8-9.15c-2.24-1.91-4.98-1.99-7.36-0.38c-3.71,2.51-3.24,6.01-1.51,9.32
			c1.14,2.17,1.51,4.31,1.5,6.67c-0.11,17.96-0.25,35.92-0.16,53.88c0.02,3.98-1.33,6.9-4.39,9.63
			c-13.09,11.7-25.94,23.63-39.06,35.3c-3.22,2.87-4.62,5.83-4.56,10.08c0.25,17.19,0.15,34.38,0.02,51.57
			c-0.01,1.54,1.68,4.51-1.69,4.49c-2.48-0.02-5.15-1.3-5.53-4.34c-0.14-1.14-0.04-2.32-0.04-3.47c0-15.84,0.15-31.68-0.09-47.51
			c-0.07-4.63,1.6-8.03,4.99-11.18c12.57-11.68,24.96-23.52,37.52-35.2c2.18-2.03,3.32-4.06,3.28-7.05
			c-0.18-12.94-0.06-25.88-0.19-38.82c-0.03-2.58,0.06-4.81,2.12-6.9c2.6-2.65,2.31-5.8-0.16-8.38c-1.96-2.05-4.43-3.32-7.63-1.7
			c-3.48,1.75-4.57,4.81-3.68,7.79c0.92,3.1,0.78,6.09,0.81,9.13c0.08,11.4-0.15,22.8,0.13,34.19c0.1,4.19-1.24,7.3-4.32,10.19
			c-11.2,10.5-22.17,21.22-33.46,31.64c-4.8,4.43-7.15,9.11-6.9,15.71c0.55,14.66,0.22,29.35,0.09,44.03
			c-0.01,1.44,1.36,4.99-2.13,3.87c-3.66-1.18-8.22-2.38-7.77-8.05c0.52-6.53,0.17-13.13,0.1-19.69c-0.03-2.39,0.3-4.42,2.31-6.26
			c2.72-2.49,2.6-5.43,0.23-8.22c-2.36-2.76-5.76-2.5-8.41-1.35c-2.83,1.22-4.35,3.87-3.62,7.26c1.91,8.91,0.39,17.87,0.94,27.27
			c-4-1.13-5.08-3.11-5.04-6.16c0.11-9.08,0.15-18.16-0.03-27.23c-0.05-2.58,0.95-4.28,2.8-5.99c13.2-12.15,26.3-24.4,39.51-36.55
			c2.32-2.14,3.61-4.33,3.54-7.54c-0.2-9.46-0.15-18.93-0.02-28.39c0.08-5.69-1.07-11.51,2.33-16.89c2.06-3.27,0.05-5.86-2.65-7.94
			c-2.61-2.03-5.41-1.73-7.87,0.12c-2.79,2.1-4.21,4.84-2.21,8.1c1.49,2.42,1.99,4.94,1.98,7.68c-0.05,11.4-0.11,22.79,0.07,34.18
			c0.05,3.38-1.23,5.75-3.75,8.04c-7.84,7.11-14.79,15.26-23.36,21.43c-15.64,11.24-22.4,25.15-19.04,43.43
			c0.3,1.61,1.32,4.08-1.05,5.16c-2.32,1.06-3.41-1.63-5.29-2.27c-2.31-0.79-2.2-2.95-2.19-4.91c0.03-6.57,0.07-13.14-0.02-19.7
			c-0.03-2.04,0.4-3.88,1.91-5.3c13.49-12.72,26.81-25.61,40.72-37.91c3.09-2.73,4.35-5.03,4.33-8.74
			c-0.11-19.7-0.02-39.4-0.09-59.1c-0.01-2.72,0.09-5.41,1.45-7.81c2.05-3.63,0.7-6.34-2.36-8.55c-2.61-1.89-5.51-1.58-7.93,0.21
			c-3.29,2.43-2.88,5.74-1.3,8.85c0.99,1.95,1.58,3.8,1.57,5.99c-0.07,20.09-0.04,40.18-0.05,60.26c0,1.69,0.22,3.27-1.54,4.66
			c-14.81,11.66-27.52,25.36-41.44,37.88c-2.84,2.56-3.97,5.62-3.85,9.33c0.18,5.92,0.05,11.85,0.05,18.11
			c-4.92-1.02-7.1-3.31-6.91-7.66c0.19-4.24,0.18-8.5,0.08-12.74c-0.08-3.66,1.2-6.43,4.11-9.09
			c12.37-11.31,24.43-22.92,36.73-34.31c2.37-2.19,3.49-4.49,3.46-7.59c-0.13-12.55-0.07-25.11-0.19-37.66
			c-0.03-3.32,0.13-6.38,2.38-9.26c2.15-2.75,1.14-5.56-1.35-7.74c-2.36-2.08-5.31-2.32-7.81-0.53c-2.45,1.75-4.64,4.05-2.64,7.4
			c1.79,2.99,1.7,6.25,1.68,9.53c-0.05,11.2-0.19,22.41,0.08,33.61c0.1,4.21-1.35,7.25-4.5,10.15
			c-11.89,10.95-23.73,21.95-35.29,33.22c-3.88,3.78-9.32,7.44-4.95,14.3c1.18,1.85,0.21,4.92,0.2,7.43
			c-0.01,1.89-1.15,2.41-2.83,1.72c-2.87-1.18-5.47-2.57-5.75-6.08c-0.69-8.69,0-16.42,8.49-22.49
			c11.63-8.31,19.53-20.74,33.29-26.87c3.25-1.45,3.39-4.8,2.4-7.67c-0.85-2.46-2.96-3.97-5.97-4.2c-3.71-0.29-6.66,1.79-7.01,4.43
			c-0.59,4.46-3.75,6.67-6.58,9.32c-7.57,7.09-14.97,14.35-22.93,21.03c-6.55,5.5-10.67,11.49-9.2,20.09c0.24,1.38,1.11,4.07-1.8,4
			c-2.24-0.05-4.16-1.53-4.24-4.1c-0.04-1.35-0.02-2.7-0.02-4.06c0-43.27-0.02-86.53,0.03-129.8c0.01-4.53-0.71-9.06,2.23-13.39
			c1.47-2.16,0.94-5.27-1.77-7.27c-2.41-1.78-5.15-1.47-7.53-0.51c-2.81,1.13-3.03,3.75-2.94,6.42c0.09,2.7,1.43,5.07,1.42,7.86
			c-0.13,44.04-0.07,88.08-0.17,132.12c0,1.54,1.68,4.48-1.59,4.55c-2.33,0.05-4.56-1.77-5.51-4.01c-0.5-1.17-0.2-2.67-0.2-4.02
			c-0.01-52.34,0-104.69-0.03-157.03c0-2.54,0.25-4.68,2.25-6.82c2.36-2.52,2.45-5.74-0.24-8.37c-2.54-2.48-5.73-2.94-8.84-1.1
			c-3.51,2.08-4.23,5.44-2.21,8.54c1.67,2.56,1.64,5.06,1.64,7.71c0.01,34.77,0.01,69.54,0.01,104.3c0,18.16-0.17,36.32,0.12,54.47
			c0.07,4.39-1.47,7.84-5.75,7.56c-4.38-0.28-1.91-4.75-1.92-7.08c-0.2-42.87-0.14-85.75-0.16-128.62c0-2.96,0.22-5.72,2.52-8.07
			c2.75-2.81,1.42-5.39-1.11-7.52c-3.03-2.56-6.51-2-9.65-0.33c-2.95,1.56-3.59,4.28-1.8,6.92c1.68,2.47,1.73,5.03,1.73,7.74
			c-0.02,45.78-0.01,91.56-0.01,137.33c0,1.16-0.03,2.32,0,3.48c0.08,3.03-2.38,4.36-4.69,4.31c-2.65-0.06-1.57-2.82-1.36-4.15
			c1.46-9.16-2.57-15.72-9.74-21.64c-8.48-7-16.25-14.75-24.28-22.22c-2-1.86-4-3.57-4.46-6.61c-0.49-3.27-2.88-5.42-6.78-5.41
			c-3.54,0.01-5.89,1.73-6.63,4.85c-0.83,3.54,0.21,6.72,4.29,7.86c4.15,1.16,7.02,3.85,9.96,6.48c6.53,5.84,12.5,12.33,19.53,17.57
			c8.75,6.52,12.24,14.4,10.52,24.57c-0.03,0.19,0,0.39,0.01,0.58c0.31,3.9-2.77,5.22-5.74,6.56c-1.64,0.74-2.82,0.4-2.8-1.57
			c0.03-3.28-1.19-7.39,0.45-9.66c0.39-5.31-0.68-5.31-1.24-8.87c-7.38-9.09-15.94-17.37-25.32-24.33
			c-15.15-11.25-21.34-24.75-18.44-42.54c1.38-8.44-1.7-17.24,2.31-25.63c1.22-2.56-1.25-4.91-3.48-6.21
			c-2.33-1.35-5.11-1.25-7.37,0.66c-2.35,1.99-3.75,4.78-1.84,7.17c3.18,3.98,2.7,8.3,2.69,12.67c-0.01,11.59,0,23.18-0.14,34.76
			c-0.04,3.09,0.92,5.44,3.32,7.64c9.12,8.36,17.48,17.55,27.24,25.17c10.88,8.5,15.8,18.25,13.96,31.53
			c-0.62,4.49-1.8,7.18-7.06,8.17c0-6.55-0.1-12.87,0.04-19.19c0.07-3.03-0.46-5.87-2.71-8c-13.45-12.76-26.79-25.63-40.68-37.96
			c-2.6-2.31-3.49-4.08-3.48-7.07c0.08-17.58-0.02-35.15,0.08-52.73c0.02-4.51-0.71-9.02,2.04-13.43c1.4-2.25,1.25-5.82-1.93-7.76
			c-2.56-1.56-5.37-1.99-7.95,0c-2.74,2.11-4.36,4.6-2.38,8.05c1.61,2.79,1.58,5.86,1.57,8.95c-0.05,19.51-0.02,39.02-0.03,58.53
			c0,2.49-0.39,5.09,1.97,6.97c14.46,11.48,26.91,24.9,40.53,37.18c1.6,1.44,3.9,3.22,3.99,4.93c0.44,8.47,0.63,16.99,0.07,25.45
			c-0.19,2.81-4.15,4.95-6.89,4.85c-2.86-0.1-1.27-3.48-1.33-5.32c-0.22-6.75-0.3-13.53-0.01-20.28c0.17-4.02-1.36-6.91-4.31-9.64
			c-12.17-11.24-24.04-22.76-36.38-33.82c-4.09-3.66-5.7-7.4-5.47-12.63c0.41-9.25,0.15-18.54,0.13-27.81
			c-0.01-4.02-0.18-7.94,2.19-11.7c1.83-2.9,0.15-5.64-2.47-7.55c-2.5-1.83-5.26-2.1-7.88-0.09c-2.51,1.92-4.58,4.34-2.77,7.4
			c2.87,4.84,2.52,9.97,2.51,15.14c-0.01,10.24,0.11,20.47-0.04,30.71c-0.04,2.93,0.88,5.13,3.09,7.15
			c10.29,9.42,19.96,19.53,30.91,28.21c9.51,7.53,13.71,15.93,11.9,27.48c-0.8,5.1-0.15,10.41-0.13,15.63
			c0.01,2.38-0.95,4.67-3.51,4.55c-2.6-0.12-1.41-2.79-1.34-4.22c0.36-7.86-1.07-15.76,0.89-23.6c0.73-2.91-1.27-5.51-4.09-6.42
			c-2.82-0.91-6.1-1.13-8.32,1.8c-1.87,2.47-1.94,4.96-0.04,7.38c1.07,1.37,2.8,2.34,2.8,4.3c0.01,8.31,0.32,16.62-0.11,24.91
			c-0.22,4.12-5.19,5.36-8.06,5.76c-3.23,0.45-1.5-3.57-1.53-5.45c-0.21-14.1-0.59-28.22,0.09-42.29c0.34-7.09-2.31-12-7.37-16.69
			c-11.26-10.44-22.28-21.11-33.35-31.73c-1.68-1.61-3.91-3.15-3.82-5.64c0.52-15.77-1.32-31.59,0.95-47.33
			c0.51-3.51-0.43-6.41-4.09-8.19c-3.25-1.59-5.63-0.01-7.56,1.95c-2.5,2.54-2.82,5.82-0.27,8.37c2.29,2.29,2.31,4.74,2.3,7.45
			c-0.03,12.75,0.06,25.5-0.1,38.24c-0.04,2.95,0.94,5.07,3.15,7.11c9.24,8.52,17.71,17.89,27.65,25.6
			c11.78,9.15,16.78,19.62,15.17,34.08c-1.34,12.04-0.39,24.31-0.21,36.48c0.06,3.82-2.59,5.49-5.48,5.59
			c-3.58,0.13-1.82-3.19-1.84-4.87c-0.14-17.38-0.16-34.77-0.03-52.15c0.03-3.34-0.97-5.79-3.57-8.11
			c-12.64-11.3-24.93-22.95-37.76-34.06c-4.98-4.31-7.2-8.86-6.68-15.16c1.67-20.23-2.97-40.71,2.8-60.81
			c0.74-2.58-0.95-5.14-3.42-6.21c-2.38-1.04-5.34-1.1-7.47,0.99c-2.34,2.3-3.17,5.33-1.14,7.85c1.86,2.3,1.8,4.58,1.8,7.04
			c-0.01,19.89,0.01,39.79-0.13,59.68c-0.02,2.89,0.62,5.35,2.9,7.22c13.93,11.4,26.85,23.8,40.32,35.66
			c2.96,2.61,4.02,5.35,3.99,9.07c-0.15,18.15-0.32,36.31,0.07,54.46c0.14,6.4-3.48,8.32-9.09,9.79c0-21.7-0.09-42.94,0.08-64.18
			c0.03-3.98-1.12-6.98-4.23-9.68c-12.36-10.74-24.55-21.66-36.89-32.42c-3.5-3.05-5.63-6.28-5.26-11.06
			c1.09-14.34-2.06-28.84,1.85-43.1c0.9-3.29-1.14-5.75-4.09-6.94c-2.97-1.2-6.12-0.72-8.22,2c-2.02,2.63-2.35,5.47,0.42,7.77
			c2.18,1.81,2.09,3.97,2.09,6.29c-0.03,12.55,0.13,25.11-0.1,37.66c-0.07,4.01,1.32,6.91,4.4,9.58
			c12.96,11.26,25.71,22.73,38.7,33.95c2.99,2.58,3.96,5.33,3.93,9.06c-0.18,18.35-0.01,36.7-0.16,55.05
			c-0.02,2.51,1.47,7.05-1.07,7.2c-3.66,0.22-6.51-3.4-8.04-6.89c-0.52-1.18-0.45-2.64-0.45-3.96c-0.02-15.84-0.2-31.68,0.12-47.51
			c0.13-6.21-1.44-10.95-6.84-15.04c-6.19-4.69-11.68-10.22-17.29-15.55c-4.41-4.2-9.75-7.68-12-13.65
			c-1.17-3.11-3.7-5.46-7.42-4.73c-3.45,0.68-5.81,3.35-5.82,6.65c-0.01,3.52,2.3,6.21,6.15,6.89c1.87,0.33,3.4,0.65,4.82,1.97
			c8.9,8.27,17.83,16.51,26.89,24.63c2.91,2.61,3.87,5.55,3.83,9.27c-0.16,15.45,0.27,30.91-0.22,46.35
			c-0.21,6.63,1.56,11.6,7.48,15.23c1.49,0.92,3.8,2.39,2.13,3.95c-1.46,1.37-3.67,3.21-6.26,2.6c-5.12-1.21-9.57-7.21-9.57-12.54
			c-0.01-16.42-0.08-32.84,0.03-49.25c0.03-3.9-1.34-6.92-4.12-9.82c-16.4-17.15-35.5-31.94-50.27-50.52
			c-1.86-2.34-4.4-3.49-7.55-2.02c-2.74,1.28-4.85,3.09-4.45,6.25c0.4,3.13,2.21,5.59,5.68,5.81c3.47,0.21,5.65,1.95,7.82,4.05
			c13.72,13.3,27.39,26.64,41.21,39.83c1.92,1.83,2.81,3.76,3.12,5.98c0,0,0.43,58.16,2.13,59.87c1.08,1.08,2.13,2.27,2.13,2.27
			c0.11,0.1,0.21,0.18,0.31,0.25c0.51,0.51,1.25,1.04,2.31,1.58c1.01,0.58,4.63,0.63,2.5,3.32c-1.54,1.95-4.54,4.37-6.46,2.85
			c-3.66-2.88-8.2-5.34-8.02-11.39c0.47-15.05-0.2-30.14,0.31-45.19c0.24-7.2-2.7-11.95-7.76-17.13
			c-10.15-10.37-24.07-17.42-30.83-30.8c-1.38-2.73-4.56-3.51-7.45-2.34c-2.62,1.06-4.7,2.89-4.64,6.17c0.07,3.2,1.9,5.58,4.66,6.02
			c3.61,0.58,5.82,2.49,8.19,4.61c8.31,7.46,16.58,14.96,25.03,22.28c2.94,2.54,4.26,5.26,4.2,9.08c-0.2,14.87,0.2,29.75-0.21,44.61
			c-0.18,6.43,1.09,11.73,6.74,15.69c2.62,1.84,2.79,3.6-0.33,5.18c-4.48,2.26-8.91,4.42-14.29,4.29c-8.42-0.2-16.86-0.17-25.28,0
			c-3.75,0.08-6.75-0.77-9.24-3.52c-11.49-12.63-26.39-22.43-35.07-37.44c-1.42-2.46-4.21-3.94-7.37-2.82
			c-2.78,0.98-4.93,2.84-5.04,5.96c-0.12,3.25,1.37,5.76,4.82,6.4c3.94,0.73,6.46,3.08,9.03,5.59c9.8,9.61,19.65,19.17,29.42,28.81
			c3.6,3.55,7.76,5.22,13.08,5.1c4.9-0.11,9.91-0.73,16.02,0.62c-5.47,2.87-9.73,5.41-14.25,7.41c-7.21,3.2-16.75,1.45-22.26-3.85
			c-15.2-14.63-30.34-29.33-45.55-43.95c-2.72-2.61-5.42-5.06-6.35-8.88c-0.85-3.49-3.77-4.98-7.42-4.61
			c-3.33,0.34-5.56,2.28-6.13,5.46c-0.67,3.76,1.82,5.98,5.11,6.87c2.96,0.81,5.07,2.34,7.08,4.29
			c18.87,18.21,37.25,36.87,56.89,54.42c-7.82,5.58-7.8,5.56-14.04-0.23c-4.39-4.07-9.13-7.83-13.21-12.14
			c-6.93-7.31-17.02-12.03-20.24-22.47c-1.01-3.26-5-3.24-8.01-2.52c-2.67,0.64-4.54,2.8-4.82,5.45c-0.35,3.23,1.61,5.71,4.61,6.82
			c2.3,0.85,4.54,1.47,6.39,3.16c9.72,8.86,19.54,17.61,29.26,26.47c4.69,4.27,4.45,4.68-1.13,7.52c-3.08,1.57-4.86,0.32-6.87-1.55
			c-12.66-11.83-25.45-23.54-37.97-35.49c-2.84-2.71-5.86-3.9-9.74-3.89c-15,0.04-30-0.01-45.01,0.06
			c-3.53,0.02-6.74,0.06-9.59-2.69c-2.3-2.22-5.51-2.21-8.43-0.33c-2.68,1.73-3.9,4.24-2.86,6.99c1.14,3.03,3.47,5.24,7.44,4.73
			c2.8-0.36,5.6-1.09,8.4-1.1c16.24-0.11,32.48-0.03,48.72-0.08c2.34-0.01,4.19,0.34,6,2.05c12.01,11.36,24.14,22.63,36.31,33.84
			c3.21,2.96,1.65,4.28-1.53,5.71c-3.1,1.39-4.52-0.62-6.2-2.23c-8.57-8.29-17.1-16.6-25.66-24.9c-2.61-2.53-5.32-4.38-9.54-4.34
			c-24.46,0.2-48.92,0.1-73.38,0.19c-4.12,0.01-8.08,0-11.78-2.14c-3.55-2.05-6.26-0.33-8.36,2.39c-2.32,3-1.45,5.98,0.98,8.37
			c2.33,2.29,5.37,3.03,8.19,0.6c1.98-1.71,4.12-2.2,6.72-2.2c24.87,0.05,49.75,0.08,74.62-0.03c3.2-0.01,5.37,1.09,7.49,3.14
			c8.84,8.58,17.63,17.21,26.76,25.51c3.99,3.63,3.77,7.37,1.64,12.29c-9.72-8.41-18.8-17.26-27.75-26.22
			c-2.98-2.98-6.28-4.36-10.77-4.28c-12.95,0.24-25.9,0.15-38.85,0.06c-6.45-0.05-12.96,0.87-19.15-2.25
			c-3.19-1.61-6.64-0.46-8.45,2.59c-1.45,2.44-1.38,5.28,0.93,7.49c2.54,2.43,5.7,3.11,8.82,1.31c2.54-1.46,5.01-2.21,8.01-2.19
			c15.62,0.1,31.25,0.14,46.87-0.03c3.17-0.03,5.38,0.94,7.54,2.95c9.36,8.67,18.36,17.76,28.41,25.66
			c6.06,4.76,6.36,10.16,6.03,16.35c-0.05,0.86,0.45,2.01-0.91,2.43c-1.27,0.39-1.86-0.67-2.49-1.3c-4.61-4.64-9.21-9.31-13.7-14.05
			c-2.92-3.08-6.29-4.33-10.8-4.26c-15.83,0.24-31.66,0.06-47.49,0.12c-3.55,0.01-6.73-0.19-9.6-2.74
			c-3.07-2.73-6.48-1.76-9.17,0.86c-2.35,2.3-2.99,5.1-0.77,7.84c2.31,2.83,5.2,4.41,9,2.34c2.21-1.2,4.55-1.45,7.05-1.44
			c16.45,0.05,32.89,0.12,49.34-0.05c3.2-0.03,5.37,0.95,7.42,3.05c6.1,6.26,12.03,12.69,18.58,18.51c3.86,3.43,4.06,6.84,2.89,11.8
			c-7.63-6.65-14.78-12.64-21.6-18.94c-3-2.77-6.05-3.99-10.31-3.96c-24.67,0.17-49.34,0.09-74.01,0.07c-3.01,0-5.81-0.04-8.78-1.61
			c-2.85-1.51-6.78-1.86-9.45,1.29c-2.01,2.36-2.05,5.01-0.17,7.37c2.72,3.41,6.48,2.89,9.93,1.37c1.89-0.84,3.6-1.47,5.73-1.47
			c25.29,0.05,50.57,0.05,75.86,0.01c2.13,0,3.78,0.35,5.45,1.9c7.75,7.17,15.44,14.41,23.66,21.09c4.8,3.9,4.79,8.16,4.02,13.01
			c-1.74,0.33-2.4-0.44-3.11-1.11c-6.5-6.16-13.07-12.26-19.48-18.5c-4.07-3.96-8.66-5.86-14.71-5.74
			c-15.82,0.3-31.64,0.11-47.47,0.11c-3.05,0-6.02,0.04-8.79-1.78c-3.08-2.02-5.85-0.8-8.06,1.69c-2.48,2.79-2.32,5.83-0.06,8.46
			c1.98,2.3,4.52,3.83,7.98,1.85c2.59-1.48,5.37-2.42,8.62-2.39c16.03,0.13,32.07,0.1,48.1,0.02c3.74-0.02,6.74,1.11,9.36,3.58
			c7.22,6.83,14,14.18,21.93,20.19c6.79,5.14,6.44,11.02,5.56,18.95c-7.08-6.44-13.21-12.26-19.63-17.77
			c-2.9-2.5-5.72-4.79-6.73-8.6c-0.99-3.78-3.97-5.21-7.92-4.78c-3.62,0.39-5.45,2.95-5.75,5.87c-0.35,3.33,1.72,5.84,5.25,6.86
			c3.63,1.05,6.37,3.19,9.02,5.65c5.1,4.75,9.92,9.94,15.73,13.79c9.02,5.99,11.66,13.56,10.76,23.57
			c-0.45,4.98-1.81,5.79-6.66,5.77c-46.46-0.17-92.92-0.09-139.38-0.12c-3.6,0-7.05,0.24-10.58-1.84c-2.56-1.51-6.31-1.2-8.76,1.87
			c-2.07,2.58-1.87,5.14,0.02,7.4c2.15,2.56,4.88,3.89,8.57,2.08c1.73-0.85,3.88-1.32,5.85-1.33c48.72-0.07,97.44-0.04,146.16-0.09
			c2.92,0,4.61,0.48,4.59,3.77c-0.02,3.25-1.21,4.69-4.69,4.37c-1.22-0.11-2.47-0.02-3.7-0.02c-54.48,0-108.95,0.03-163.43-0.04
			c-7.47-0.01-15.08,1.15-22.23-2.45c-2.87-1.44-5.68,0.08-7.36,2.5c-1.82,2.62-1.83,5.44,0.49,7.96c2.07,2.24,5.05,3.69,7.6,2.01
			c3.81-2.5,7.8-2.02,11.82-2.02c34.33-0.05,68.66-0.03,102.99-0.02c24.46,0,48.92,0.12,73.38-0.08c4.1-0.03,5.13,0.96,5.2,4.77
			c0.09,4.52-2.7,3.78-5.56,3.78c-46.46-0.01-92.92,0-139.38-0.03c-4,0-7.9,0.39-11.78-1.99c-2.8-1.72-6.25-0.58-8.64,2.29
			c-2.04,2.45-1.51,4.83,0.12,6.88c2.07,2.59,4.84,4.17,8.48,2.23c2.78-1.48,5.82-1.46,8.91-1.45c30.42,0.04,60.85,0.02,91.27,0.02
			c17.06,0,34.13-0.03,51.19,0.04c1.85,0.01,5.17-0.87,4.95,1.83c-0.62,7.51,3.69,15.73-5.48,22.02
			c-10.93,7.5-18.29,19.15-31.36,24.45c-2.39,0.97-4.09,3.51-3.42,6.28c0.65,2.68,2.18,5.06,5.46,5.59c2.8,0.45,6.05,0.05,7.01-2.44
			c4.42-11.38,16.18-16.5,23.69-25.2c0.9-1.05,1.72-2.79,4.01-2.1c1.28,7.08,0.39,13.05-6.31,18.15
			c-7.29,5.55-13.79,12.08-20.23,18.53c-3.41,3.41-7.1,4.72-11.95,4.67c-14.18-0.16-28.37-0.12-42.55-0.02
			c-4.54,0.03-8.95-0.02-12.94-2.44c-3.44-2.09-5.95-0.17-7.86,2.14c-2.05,2.48-2.18,5.36,0.02,8c2.1,2.53,4.9,4.05,7.98,2.08
			c3.19-2.04,6.53-1.91,9.99-1.91c16.03-0.01,32.06-0.08,48.08,0.06c4.61,0.04,8.39-1.29,11.58-4.32c2.6-2.47,5.17-4.96,7.81-7.38
			c5.15-4.75,10.35-9.46,16.1-14.73c1.32,6.23,0.85,10.47-3.94,14.32c-7.93,6.39-15.35,13.36-22.76,20.29
			c-2.12,1.98-4.22,2.54-7.04,2.53c-24.67-0.08-49.34-0.05-74.01-0.04c-2.47,0-4.61-0.4-6.95-1.53c-3.06-1.48-6.79-1.93-9.46,1.21
			c-1.97,2.32-2.1,4.97-0.21,7.37c2.72,3.46,6.72,3.03,9.91,1.42c2.57-1.29,4.94-1.5,7.56-1.5c25.08,0,50.16-0.07,75.24,0.07
			c4.01,0.02,6.92-1.13,9.77-3.75c6.95-6.38,14.21-12.47,22.33-19.53c-0.16,4.53,1.3,7.68-1.89,10.7
			c-6.79,6.43-13.35,13.08-19.84,19.79c-2.23,2.3-4.56,3.3-7.94,3.26c-16.24-0.16-32.48-0.1-48.72-0.04
			c-2.71,0.01-5.22-0.31-7.65-1.54c-3.85-1.95-6.62-0.19-8.85,2.68c-2.23,2.87-1.26,5.58,1.1,7.78c2.78,2.6,6.15,3.26,9.2,0.52
			c2.66-2.39,5.67-2.6,9.03-2.59c15.01,0.07,30.03-0.35,45.01,0.2c6.9,0.25,11.59-1.95,16.03-6.53c4.42-4.56,8.31-9.7,14.55-14.1
			c-0.03,7.51,1.51,13.67-5.26,19.08c-10.3,8.24-19.63,17.55-29.24,26.53c-2.24,2.09-4.59,2.73-7.65,2.71
			c-15.21-0.12-30.42-0.09-45.64-0.02c-3.12,0.01-5.93-0.3-8.7-1.98c-3.23-1.95-6.61-1.52-9.24,1.32c-2.13,2.3-2.19,5.06-0.59,7.5
			c2.18,3.32,6.03,3.87,9.15,2.19c4.25-2.29,8.57-2.08,13.02-2.09c11.1-0.02,22.28-0.79,33.28,0.2
			c12.38,1.11,21.89-2.16,29.25-11.54c1.93-2.46,4.55-4.45,6.92-6.58c4.6-4.13,9.25-8.21,14.18-12.58
			c1.78,6.43-0.21,10.4-4.56,14.22c-8.51,7.5-16.54,15.5-24.63,23.42c-2.28,2.23-4.57,3.39-7.99,3.38
			c-24.67-0.12-49.34-0.08-74.01-0.05c-2.53,0-4.81-0.19-6.8-1.98c-3-2.71-6.15-1.93-8.63,0.6c-2.43,2.47-2.98,5.51-0.66,8.41
			c2.18,2.73,5.05,3.97,8.52,2.1c2.54-1.37,5.1-2.15,8.08-2.14c24.87,0.07,49.75-0.09,74.62,0.21c5.25,0.06,8.92-1.44,12.37-4.91
			c7.4-7.47,15.27-14.53,22.51-22.12c2.9-3.04,5.38-2.26,7.86-0.5c3.47,2.47,0.01,3.97-1.49,5.38
			c-10.45,9.84-21.03,19.55-31.48,29.39c-2.13,2.01-4.25,3.1-7.47,2.97c-18.62-0.78-37.31,1.3-55.88-1.25
			c-3.83-0.52-6.48,1.12-7.92,4.12c-1.42,2.96-0.33,5.68,2.54,7.55c3.07,1.99,6.32,1.92,8.9-0.56c2.49-2.39,5.35-2.41,8.47-2.4
			c15.21,0.06,30.41,0.03,45.62,0.07c3.86,0.01,6.99-1.01,9.77-3.81c5.88-5.92,12.14-11.52,18.25-17.25
			c5.51-5.17,11.01-10.36,16.55-15.51c3.37-3.13,7.56-3.03,10.55,0.42c2.89,3.33-1.22,4.38-2.73,5.8
			c-8.44,7.88-17.13,15.52-25.71,23.26c-1.5,1.35-3.03,2.5-5.15,2.95c-3.91,0.82-6.21,3.4-5.9,6.99c0.28,3.22,2.45,5.49,6.39,5.87
			c4.66,0.44,7.05-2.13,7.9-5.68c0.69-2.87,2.19-4.74,4.34-6.65c9.09-8.08,18.38-16.01,26.88-24.63c3.93-3.99,6.86-1.58,9.3,0.18
			c3.48,2.49-0.41,4.28-1.98,5.82c-12.36,12.12-24.59,24.36-37.36,36.09c-6.61,6.07-11.61,14.02-21.23,16.98
			c-2.65,0.81-3.8,3.62-2.98,6.32c0.82,2.69,2.73,4.72,5.94,5.05c3.42,0.35,6.03-1.02,7.42-3.97c1.14-2.4,1.56-4.96,3.75-7.04
			c16.87-16.07,33.68-32.2,50.29-48.5c2.99-2.93,6.25-4.06,9.81-2.61c5.23,2.13,10.11,5.04,15.26,7.68
			c-1.36,1.75-2.74,1.36-3.78,1.22c-7.69-1.05-13.31,1.97-18.31,7.22c-6.84,7.19-13.91,14.2-21.23,20.95
			c-4.31,3.98-7.49,9.48-13.89,10.99c-4.1,0.97-5.96,3.18-5.69,6.91c0.24,3.29,2.63,5.37,5.85,5.88c3.71,0.59,6.12-1.62,7.6-4.66
			c1-2.06,1.56-4.22,3.39-5.97c10.19-9.78,20.26-19.69,30.36-29.56c1.57-1.53,3.14-3.47,5.44-3.51c13.77-0.2,27.89-2.24,39.97,6.8
			c2.51,1.87,3.46,3.19,0.85,5.36c-3.25,2.7-3.61,6.15-3.54,9.96c0.17,9.27-1.16,18.71,0.31,27.78
			c3.01,18.62-3.92,32.49-19.86,42.97c-5.82,3.83-9.42,10.32-16.65,12.34c-3.87,1.08-5.99,3.15-5.64,6.99
			c0.3,3.28,2.53,5.18,5.81,5.76c3.92,0.69,6.56-1.6,7.46-4.63c0.96-3.22,2.98-5.41,5.33-7.52c8.9-7.99,17.78-15.98,26.8-23.85
			c3.72-3.24,5.16-6.98,5.1-11.75c-0.21-16.03,0.01-32.06-0.15-48.09c-0.03-3.17,0.87-5.56,3.43-7.52c2.94-2.25,5.19-0.18,6.95,1.39
			c2.46,2.2-0.76,2.65-1.9,3.53c-2.79,2.16-3.44,4.89-3.42,8.16c0.11,17,0.02,33.99,0.09,50.99c0.01,3-0.42,5.59-2.82,7.9
			c-14.24,13.63-28.38,27.34-42.54,41.04c-1.61,1.56-3.29,2.98-5.72,3.07c-4.16,0.15-6.36,2.36-6.87,5.99
			c-0.49,3.47,2.02,5.44,5.01,6.47c4.12,1.42,6.62-1.16,8.42-4.1c1.44-2.34,2.94-4.55,4.95-6.49c14.49-13.93,28.87-27.95,43.44-41.8
			c3.27-3.11,4.6-6.48,4.56-10.81c-0.15-16.42,0-32.83-0.08-49.25c-0.01-3.02,0.36-5.55,3.15-7.64c3.5-2.61,6.33-0.97,8.66,1.08
			c3.12,2.74-1.03,3.32-2.23,4.5c-2.44,2.41-3.25,5.06-3.23,8.34c0.12,16.42-0.08,32.84,0.14,49.25c0.06,4.4-1.26,7.69-4.66,10.7
			c-8.67,7.66-17.13,15.53-25.61,23.38c-1.51,1.4-2.97,2.2-5.22,2.47c-3.94,0.47-6.16,3.32-6.24,6.8c-0.08,3.32,2.33,5.98,5.73,6.72
			c3.73,0.81,6.01-1.66,7.55-4.61c1.34-2.57,2.47-5.18,4.81-7.25c8.65-7.66,17.03-15.58,25.76-23.15c3.72-3.23,5.56-6.7,5.49-11.54
			c-0.21-16.41-0.05-32.83-0.14-49.25c-0.02-3.2,0.23-6.1,3.09-8.34c1.57-1.23,2.88-3,5.24-2.18c2.45,0.85,1.3,2.99,1.31,4.52
			c0.08,19.32-0.04,38.63,0.15,57.95c0.03,3.26-1.22,5.36-3.59,7.44c-13.07,11.43-26,23-39.1,34.4c-3.08,2.68-4.42,5.6-4.35,9.6
			c0.22,12.55,0.09,25.11,0.08,37.66c0,2.07,0.38,4.17-1.7,5.83c-3.01,2.41-2.98,5.36-0.75,8.21c2.11,2.7,5.27,3.16,8.25,1.95
			c3.62-1.48,5.26-4.77,3.87-8.1c-1.57-3.75-1.74-7.48-1.75-11.3c-0.01-10.42,0.29-20.85,0.02-31.26
			c-0.11-4.35,1.78-7.35,4.89-10.09c12.3-10.8,24.51-21.69,36.92-32.38c3.48-3,4.69-6.3,4.63-10.69
			c-0.22-18.15-0.11-36.31-0.06-54.47c0-1.64-0.81-4.81,2.71-3.26c3.28,1.45,6.49,3.08,6.38,7.93c-0.4,16.99-0.25,33.99-0.08,50.98
			c0.04,3.59-1.2,6.08-3.95,8.51c-13.42,11.9-26.37,24.28-40.3,35.68c-2.28,1.86-3,4.29-2.98,7.21c0.14,19.89,0.13,39.79,0.12,59.68
			c0,2.06,0.6,4.29-1.05,6.09c-2.8,3.06-2.17,6.13,0.38,8.79c2.18,2.28,5.35,2.26,7.89,0.78c3.76-2.2,3.81-5.88,2.16-9.17
			c-1.17-2.34-1.86-4.51-1.85-7.08c0.07-17.77,0.16-35.54-0.05-53.3c-0.05-4.43,1.5-7.6,4.88-10.61
			c13.25-11.82,26.24-23.89,39.46-35.74c2.58-2.32,3.67-4.73,3.64-8.09c-0.15-15.84-0.11-31.68,0-47.51
			c0.01-1.68-1.47-4.46,1.32-4.9c2.93-0.47,4.66,2.08,5.75,4.36c0.54,1.14,0.2,2.66,0.2,4.01c0.01,14.29-0.13,28.59,0.09,42.88
			c0.07,4.23-1.58,7.33-4.61,10.17c-12.51,11.73-24.89,23.58-37.5,35.22c-2.55,2.36-3.72,4.66-3.67,8.04
			c0.19,12.75,0.06,25.5,0.11,38.24c0.01,2.55-0.19,4.77-2.27,6.88c-2.55,2.58-2.28,5.8,0.18,8.38c1.9,1.99,4.3,3.58,7.54,2.03
			c3.65-1.74,5.1-4.77,4.04-8.12c-0.92-2.9-0.85-5.69-0.86-8.55c-0.06-11.59,0.16-23.18-0.12-34.77c-0.1-4.17,1.18-7.31,4.27-10.21
			c11.35-10.63,22.5-21.46,33.87-32.06c4.42-4.12,6.78-8.5,6.51-14.68c-0.53-12.34-0.24-24.72-0.08-37.08
			c0.03-2.25-1.73-5.81,1.31-6.54c2.7-0.65,5.29,2.08,7.52,4c1.31,1.12,0.91,2.48,0.92,3.76c0.05,5.21-0.03,10.43,0.05,15.64
			c0.03,2.01-0.23,3.8-1.89,5.26c-3.03,2.67-3.16,5.62-0.63,8.63c2.33,2.78,5.8,2.55,8.39,1.34c2.97-1.38,4.39-4.03,3.41-7.78
			c-1.63-6.22-0.37-12.67-0.61-19.02c-0.02-0.65,0.47-1.87,0.73-1.87c0.94-0.01,2.03,0.19,2.8,0.68c1.84,1.17,1.34,3.09,1.34,4.78
			c0.03,7.34-0.12,14.68,0.07,22.02c0.06,2.56-0.87,4.29-2.74,6.01c-13.2,12.15-26.27,24.43-39.52,36.53
			c-2.56,2.34-3.61,4.78-3.56,8.11c0.16,10.81-0.01,21.63,0.06,32.45c0.03,4.25,0,8.37-2.38,12.25c-2.01,3.29-0.11,5.88,2.57,7.98
			c2.58,2.02,5.39,1.81,7.88-0.04c2.8-2.08,4.34-4.86,2.28-8.07c-1.92-2.99-1.99-6.15-1.98-9.43c0.04-10.24,0.26-20.48-0.11-30.71
			c-0.17-4.68,1.52-7.87,5.01-11.06c12.26-11.15,24.16-22.64,36.37-33.84c3.3-3.03,5.07-6.17,4.79-10.62
			c-0.35-5.58-0.08-11.2-0.08-16.8c0-1.78-0.01-4.17,2.74-2.83c2.85,1.39,6.25,2.71,5.96,7c-0.35,5.19-0.14,10.43-0.06,15.64
			c0.03,2.08-0.76,3.72-2.27,5.15c-13.21,12.44-26.11,25.2-39.82,37.12c-3.71,3.22-4.88,6.01-4.85,10.26
			c0.11,19.31,0.03,38.63,0.08,57.95c0.01,2.71,0.01,5.39-1.4,7.82c-2.06,3.56-0.83,6.31,2.24,8.58c2.61,1.93,5.49,1.63,7.94-0.09
			c3.39-2.38,2.85-5.69,1.45-8.84c-0.78-1.76-1.66-3.34-1.65-5.38c0.09-20.47,0.05-40.95,0.05-61.42c0-1.53-0.06-2.89,1.47-4.1
			c14.78-11.69,27.52-25.35,41.44-37.88c2.83-2.55,4.08-5.58,3.92-9.3c-0.19-4.47-0.05-8.95-0.05-13.79
			c7.87,3.29,9.67,18.36,3.67,24.05c-12.44,11.8-24.92,23.55-37.52,35.2c-2.53,2.34-3.66,4.77-3.61,8.11
			c0.18,11.97,0.09,23.95,0.17,35.92c0.03,3.85,0.14,7.52-2.54,10.97c-2.1,2.71-0.78,5.55,1.84,7.62c2.28,1.81,5.09,1.95,7.33,0.42
			c2.45-1.68,4.78-3.96,2.88-7.34c-1.8-3.2-1.78-6.62-1.77-10.09c0.05-11.2,0.18-22.41-0.07-33.61c-0.09-4.03,1.38-6.9,4.35-9.62
			c9.41-8.63,18.68-17.41,27.95-26.18c4.46-4.22,9.47-8.04,12.7-13.25c1.16-1.86,3.33-3.76,0.28-6.48
			c-1.64-1.46-2.09-5.67,0.45-6.62c2.66-0.99,5.51,1.33,6.81,4.14c0.39,0.84,0.28,1.87,0.5,2.8c1.87,7.77-2.75,12.67-8.46,17.16
			c-11.21,8.83-19.41,20.89-33.19,27c-3.26,1.45-3.44,4.77-2.48,7.65c0.83,2.48,2.92,4,5.92,4.27c3.7,0.33,6.71-1.71,7.05-4.36
			c0.61-4.69,4.04-6.97,6.99-9.75c8.56-8.06,17.15-16.11,25.98-23.92c4.03-3.56,6.11-7.5,5.77-12.71c-0.08-1.24-1.17-3.32,1.44-3.7
			c2.23-0.33,3.57,1.37,4.24,2.77c0.7,1.47,0.38,3.4,0.38,5.13c0.01,43.85,0.01,87.69,0.02,131.54c0,2.7,0,5.28-1.7,7.74
			c-1.82,2.64-1.2,5.37,1.72,6.94c3.11,1.68,6.6,2.27,9.65-0.27c2.53-2.11,3.94-4.69,1.19-7.51c-2.48-2.54-2.54-5.51-2.54-8.64
			c0.02-32.25-0.01-64.51-0.02-96.76c0-10.98,0-21.97,0-32.94c5.96-0.09,7.9,1.94,7.87,7.45c-0.26,50.99-0.15,101.98-0.16,152.98
			c0,2.85,0.09,5.53-1.72,8.28c-1.84,2.79-1.28,6.02,1.93,8.15c3.07,2.04,6.18,1.74,8.88-0.57c2.87-2.45,3.19-5.83,0.76-8.27
			c-2.66-2.67-2.42-5.51-2.42-8.53c-0.01-43.85-0.01-87.69-0.01-131.54c0-8.69,0.14-17.39-0.06-26.07c-0.09-3.71,2.9-4.87,5.31-5.09
			c3.77-0.35,2.04,3.03,2.05,4.67c0.13,24.92,0.39,49.84,0,74.75c-0.33,21.36,1.67,42.76-1.19,64.07c-0.36,2.66,0.06,5.33,2.88,6.41
			c2.59,0.99,5.51,1.39,7.98-0.9c2.45-2.27,2.54-5.18,1.12-7.43c-1.81-2.86-2.08-5.67-2.08-8.77c0.03-44.43,0.02-88.85,0.03-133.28
			c0-1.35-0.13-2.72,0.05-4.05c0.36-2.59,2.77-3.61,4.83-3.53c2.34,0.09,1.25,2.49,1.19,3.77c-0.27,6.12,0.35,11.48,5.85,16.11
			c9.78,8.24,18.89,17.19,28.24,25.87c2.01,1.86,3.91,3.62,4.38,6.65c0.5,3.27,2.99,5.38,6.89,5.29c3.52-0.08,5.83-1.82,6.51-4.97
			c0.77-3.58-0.35-6.65-4.43-7.79c-3.92-1.09-6.71-3.6-9.49-6.11c-8.27-7.49-15.96-15.63-24.8-22.44
			c-7.61-5.86-5.38-13.17-5.35-20.15c0.01-2.5,3.23-4.23,6.32-4.63c1.21-0.16,1.96,0.35,1.94,1.56c-0.05,2.5,0.92,5.86-0.43,7.34
			c-3.24,3.54-1.23,5.79,0.84,8.39c7.43,9.3,16.2,17.66,25.71,24.76c15.1,11.27,21.38,24.74,18.45,42.54
			c-1.39,8.44,1.73,17.24-2.31,25.63c-1.23,2.55,1.23,4.91,3.46,6.22c2.33,1.37,5.1,1.26,7.37-0.64c2.37-1.98,3.77-4.78,1.87-7.16
			c-3.18-3.98-2.71-8.29-2.71-12.67c0.02-11.59,0-23.18,0.14-34.76c0.04-3.08-0.9-5.44-3.3-7.64c-9.41-8.63-18.04-18.13-28.13-25.97
			c-10.14-7.88-14.32-16.87-12.79-29.01c0.55-4.38,2.14-6.37,6.7-7.35c0,6.19,0.1,11.79-0.04,17.38c-0.07,2.63,0.51,5.07,2.41,6.87
			c13.75,13.01,27.43,26.1,41.59,38.71c2.33,2.08,2.9,3.68,2.9,6.19c-0.02,17.77,0.04,35.54-0.05,53.31
			c-0.02,4.52,0.67,9.02-2.06,13.42c-1.39,2.24-1.21,5.83,2,7.74c2.57,1.52,5.38,1.95,7.95-0.08c2.73-2.15,4.31-4.64,2.3-8.06
			c-1.64-2.79-1.55-5.87-1.54-8.95c0.04-19.51,0.02-39.02,0.02-58.53c0-2.49,0.36-5.06-2.02-6.95
			c-14.45-11.49-26.89-24.92-40.56-37.16c-1.78-1.59-4.01-3.23-4.11-5.53c-0.3-7.33-0.48-14.69,0.01-22
			c0.21-3.08,3.83-4.85,6.73-4.72c3.25,0.14,1.53,3.34,1.61,5.11c0.25,5.59,0.36,11.21,0,16.8c-0.28,4.42,1.27,7.61,4.63,10.68
			c12.67,11.58,25.03,23.46,37.67,35.07c2.71,2.49,3.92,5.03,3.84,8.59c-0.21,9.27,0,18.54-0.11,27.81
			c-0.06,4.93,0.74,9.88-2.35,14.57c-1.66,2.52,0.07,5.28,2.51,7.06c2.46,1.81,5.2,2.29,7.87,0.26c2.5-1.89,4.78-4.22,2.97-7.32
			c-3.16-5.4-2.54-11.14-2.56-16.87c-0.02-9.46-0.14-18.93,0.03-28.39c0.06-3.53-1.12-6.05-3.87-8.55
			c-13.28-12.08-26.31-24.4-39.47-36.59c-1.52-1.41-2.5-2.75-2.47-4.94c0.15-8.69,0.11-17.38,0.03-26.07
			c-0.03-3.09,1.29-4.85,5.21-5.45c-1.13,8.62,1.01,16.9-1.3,25.1c-0.86,3.03,0.93,5.54,3.57,6.72c2.73,1.23,5.94,1.46,8.47-1.05
			c2.28-2.26,2.66-5.12,0.9-7.37c-6.75-8.64-2.26-18.27-2.83-27.39c-0.19-2.99,4.68-5.02,7.84-5.08c2.99-0.05,1.47,3.37,1.49,5.15
			c0.16,13.52,0.49,27.06-0.09,40.55c-0.27,6.44,2.26,10.9,6.78,15.17c11.58,10.95,22.99,22.06,34.47,33.1
			c1.55,1.49,3.41,2.85,3.32,5.22c-0.62,15.77,1.32,31.59-1.05,47.33c-0.49,3.29,0.66,5.95,3.98,7.71c3.24,1.72,5.63,0.16,7.6-1.73
			c2.58-2.48,3.01-5.83,0.5-8.36c-2.46-2.48-2.41-5.11-2.4-7.99c0.03-12.55-0.08-25.11,0.12-37.66c0.05-3.17-1.05-5.34-3.42-7.54
			c-12.45-11.51-24.68-23.24-37.12-34.76c-3.55-3.29-5.38-6.78-5.28-11.66c0.3-14.48,0.11-28.97,0.11-43.46
			c0-1.35-0.2-2.74,0.07-4.05c0.59-2.87,2.62-5.36,5.57-5.16c3.28,0.22,1.58,3.4,1.6,5.17c0.14,16.42,0.19,32.83,0.02,49.25
			c-0.04,3.58,1.1,6.15,3.87,8.59c9.59,8.42,18.61,17.45,28.57,25.46c10.66,8.58,17.57,17.76,15.7,32.03
			c-2.24,17.06,2.66,34.54-2.75,51.54c-0.95,2.98,0.54,5.52,3.12,6.85c2.33,1.2,5.29,1.18,7.47-0.79c2.47-2.23,3.32-5.33,1.35-7.82
			c-1.97-2.49-1.88-4.95-1.88-7.6c0.03-19.7,0.03-39.4,0.19-59.1c0.02-3.1-0.79-5.57-3.2-7.69c-13.45-11.85-26.79-23.82-40.33-35.57
			c-2.84-2.46-3.78-5.08-3.74-8.59c0.19-17.77,0.17-35.53,0.24-53.3c0-0.96-0.11-1.97,0.14-2.88c0.89-3.28,4.32-4.57,6.85-4.75
			c3.35-0.24,1.69,3.17,1.71,4.87c0.14,18.35,0.25,36.7-0.02,55.05c-0.07,4.68,1.46,8,5.05,11.1
			c12.25,10.56,24.31,21.31,36.41,32.01c2.91,2.57,4.97,5.39,4.7,9.56c-0.94,14.73,2.43,29.59-1.61,44.25
			c-0.9,3.28,1.13,5.75,4.08,6.95c2.97,1.21,6.13,0.73,8.23-1.98c2.03-2.62,2.37-5.46-0.4-7.77c-2.17-1.81-2.1-3.96-2.1-6.29
			c0.03-12.56-0.14-25.11,0.11-37.66c0.08-4.03-1.26-6.93-4.35-9.61c-13.1-11.39-26.02-22.97-39.14-34.35
			c-2.64-2.29-3.58-4.7-3.56-8.05c0.16-18.73,0.04-37.47,0.13-56.21c0.01-2.19-1.32-5.64,0.84-6.34c3.21-1.04,5.06,2.62,7.19,4.45
			c1.31,1.13,1.56,3.39,1.55,5.41c-0.07,14.1,0.74,28.24-0.26,42.28c-0.77,10.84,2.98,18.22,11.52,25.47
			c9.38,7.96,20.37,14.89,25.83,26.47c1.12,2.38,3.88,4.18,7.24,2.79c3.02-1.25,5.13-3.51,5.06-6.61c-0.08-3.28-2.15-5.94-5.64-6.69
			c-2.22-0.48-4.11-0.77-5.87-2.44c-8.38-7.95-16.84-15.82-25.51-23.49c-3.58-3.17-4.93-6.6-4.85-11.22
			c0.27-15.06-0.07-30.13,0.19-45.2c0.1-5.67-0.29-10.73-5.92-14.16c-2.46-1.5-1.98-3.19,0.42-4.34c1.91-0.91,3.68-2.16,6.16-0.52
			c3.12,2.06,5.66,3.89,5.6,8.1c-0.21,16.8,0.03,33.61-0.15,50.41c-0.05,4.37,1.63,7.54,4.63,10.76
			c16.06,17.19,35.36,31.53,49.86,50.08c1.84,2.35,4.38,3.54,7.53,2.09c2.73-1.26,4.88-3.04,4.51-6.22
			c-0.36-3.14-2.17-5.57-5.62-5.88c-3.63-0.32-5.95-2.21-8.27-4.46c-13.27-12.89-26.51-25.81-39.93-38.57
			c-2.97-2.82-4.23-5.77-4.19-9.72c0.17-16.42-0.01-32.84,0.13-49.25c0.04-4.51-0.58-8.27-5.43-10.58c-2.73-1.3-2.65-3.07,0.29-4.54
			c4.69-2.34,10,1.45,10.03,7.43c0.07,15.65,0.38,31.3-0.14,46.93c-0.23,7.06,3,11.5,7.81,16.44c10.1,10.39,23.88,17.54,30.76,30.78
			c1.43,2.76,4.57,3.52,7.43,2.48c2.63-0.96,4.8-2.74,4.76-6.04c-0.05-3.37-1.63-5.65-4.94-6.36c-2.29-0.49-4.23-1.2-5.89-2.68
			c-9.2-8.25-18.35-16.55-27.62-24.73c-2.59-2.28-3.64-4.81-3.61-8.15c0.14-14.1-0.12-28.2,0.13-42.3
			c0.13-7.29,0.57-14.43-7.72-18.92c7.92-5.28,15.37-9.57,25.02-8.86c5.11,0.38,10.28,0.25,15.41,0.01
			c4.22-0.2,7.59,0.94,10.29,3.99c11.17,12.63,25.96,22.26,34.56,37.05c1.47,2.52,4.33,3.93,7.39,2.8c2.93-1.08,5.26-3.08,5.02-6.55
			c-0.21-2.91-1.36-5.32-4.67-5.9c-4.11-0.73-6.82-3.19-9.51-5.88c-7.3-7.3-15.03-14.24-21.94-21.85
			c-7.5-8.26-15.81-13.89-28.05-11.8c-0.16,0.03-0.42-0.46-0.91-1.02c4.4-2.33,8.56-5.03,13.12-6.84c5.53-2.2,10.47-2.04,15.33,2.85
			c15.11,15.22,30.79,29.95,46.27,44.86c2.69,2.59,5.52,4.96,6.34,8.85c0.82,3.93,4.15,5.09,7.92,4.63c3.05-0.37,5.1-2.36,5.66-5.23
			c0.77-3.97-1.8-6.29-5.36-7.27c-2.72-0.75-4.72-2.11-6.59-3.91c-16.74-16.16-33.5-32.29-50.21-48.47
			c-4.06-3.93-4.06-4.11-1.95-5.7c3.04-2.3,5.88-3.73,9.38-0.04c4.63,4.89,10.01,9.16,14.78,13.94
			c6.42,6.43,15.44,10.72,18.15,20.29c0.9,3.18,4.77,3.52,7.88,2.78c2.9-0.69,5.02-2.68,5.26-5.66c0.27-3.28-1.78-5.67-4.74-6.76
			c-2.31-0.84-4.53-1.49-6.37-3.17c-8.83-8.04-17.75-16.01-26.6-24.03c-1.42-1.28-3.88-2.39-2.95-4.6c0.95-2.26,3.69-2.9,5.99-3.43
			c2.48-0.57,4.15,1.24,5.72,2.71c11.05,10.31,22.28,20.45,32.99,31.07c4.21,4.18,8.65,5.75,14.59,5.61
			c13.35-0.33,26.72-0.15,40.07-0.31c4.34-0.05,8.38-0.27,11.94,3.05c2.1,1.95,5.26,1.7,7.9-0.14c2.61-1.82,3.78-4.36,2.67-7.07
			c-1.11-2.7-3.21-5.02-6.96-4.56c-2.81,0.34-5.6,1.08-8.4,1.1c-16.45,0.11-32.89,0.05-49.34,0.05c-1.83,0-3.54,0.1-5.06-1.34
			c-11.45-10.81-22.94-21.58-34.5-32.28c-2.79-2.58-1.65-3.8,1.09-5.54c3.5-2.21,4.72,0.47,6.4,2.09
			c7.99,7.71,15.92,15.48,23.86,23.23c2.34,2.28,4.9,3.9,8.53,3.88c24.66-0.15,49.33-0.18,73.99-0.34
			c4.13-0.03,8.07,0.07,11.78,2.17c3.6,2.04,6.23,0.21,8.3-2.51c2.32-3.05,1.33-6.01-1.11-8.35c-2.36-2.26-5.44-2.96-8.19-0.45
			c-2.16,1.98-4.64,2.12-7.37,2.11c-24.46-0.05-48.93-0.1-73.39,0.01c-3.14,0.01-5.41-0.81-7.56-2.89
			c-9.29-8.99-18.55-18.02-28.12-26.74c-3.72-3.39-4.07-6.92-3.02-11.73c1.86,1.25,3.3,1.98,4.42,3.01
			c8.66,7.92,17.33,15.85,25.85,23.9c2.9,2.74,6,4.1,10.24,4.03c12.33-0.2,24.67-0.18,37-0.03c7.25,0.09,14.63-1.13,21.6,2.29
			c2.98,1.46,6.17,0.37,7.98-2.39c1.61-2.45,1.59-5.21-0.55-7.5c-2.39-2.55-5.39-3.28-8.72-1.65c-2.33,1.14-4.47,2.33-7.35,2.31
			c-16.03-0.14-32.07-0.13-48.1-0.01c-2.93,0.02-5.02-0.87-7.04-2.74c-9.77-9.11-19.02-18.84-29.66-26.94
			c-7.36-5.61-6.16-11.86-6.1-18.87c2.84,0.16,3.8,1.96,5.14,3.31c4.17,4.25,8.5,8.36,12.53,12.73c3.19,3.46,6.8,4.86,11.8,4.77
			c15.82-0.29,31.66-0.06,47.49-0.15c3.38-0.02,6.34,0.31,9,2.67c3.1,2.75,6.47,1.92,9.2-0.68c2.35-2.24,3.17-5,0.94-7.81
			c-2.27-2.86-5.1-4.57-8.91-2.52c-2.63,1.42-5.4,1.49-8.28,1.48c-15.83-0.05-31.66-0.13-47.49,0.02c-3.54,0.04-6.11-0.77-8.53-3.31
			c-6.15-6.47-12.28-13.01-19.05-18.89c-4.06-3.52-4.59-6.99-3.26-12.19c8.16,7.12,15.88,13.65,23.32,20.46
			c2.71,2.48,5.5,3.5,9.26,3.48c24.67-0.12,49.34-0.07,74.01-0.05c3.2,0,6.21-0.07,9.39,1.65c2.79,1.51,6.8,1.83,9.41-1.41
			c1.93-2.39,1.9-5,0.05-7.38c-2.55-3.26-6.27-2.76-9.42-1.49c-2.3,0.93-4.36,1.68-6.9,1.68c-24.87-0.06-49.75-0.07-74.62,0.01
			c-2.62,0.01-4.53-0.57-6.48-2.39c-7.87-7.32-15.65-14.79-24.09-21.49c-5.09-4.04-5.11-8.37-3.91-15.28
			c8.39,8.12,15.85,15.22,23.14,22.46c4.18,4.16,8.91,6.16,15.2,6.04c15.82-0.32,31.64-0.13,47.47-0.11c2.83,0,5.65-0.17,8.22,1.58
			c3.31,2.24,6.21,1.09,8.56-1.64c2.44-2.83,2.11-5.85-0.15-8.48c-2.27-2.64-5.29-3.51-8.63-1.45c-2.27,1.4-4.67,2.13-7.45,2.12
			c-16.24-0.06-32.48-0.07-48.72,0c-3.76,0.02-6.71-1.23-9.31-3.7c-7.49-7.12-14.48-14.84-22.75-21.05
			c-6.8-5.1-6.96-10.83-5.79-18.28c7.45,4.89,12.68,11.37,19.06,16.63c3.5,2.88,7.33,5.46,8.53,10.17c0.97,3.83,4.1,5.14,8,4.65
			c3.58-0.45,5.4-3.04,5.63-5.98c0.26-3.32-1.86-5.76-5.39-6.79c-3.4-1-6.02-2.96-8.55-5.29c-6.3-5.81-12.32-12.03-19.37-16.92
			c-7.33-5.08-9.2-11.13-8.61-19.17c0.34-4.61,1.22-6.21,6.49-6.18c47.9,0.2,95.8,0.12,143.7,0.09c2.48,0,4.92,0.03,7.1,1.23
			c3.72,2.07,6.8,0.97,9.13-1.9c1.83-2.26,2.27-4.78-0.14-7.32c-2.78-2.92-6.01-3.42-9.28-1.49c-2.28,1.35-4.51,1.55-6.96,1.55
			c-48.31,0-96.62-0.03-144.93,0.05c-3.42,0.01-5.05-0.46-5.07-4.33c-0.02-3.99,1.88-4.25,5.17-4.24
			c60.23,0.05,120.46,0.03,180.69,0.07c2.4,0,4.91-0.4,7.1,1.17c3.43,2.45,6.55,1.6,9.23-1.15
			C1088.1,602.03,1088.08,599.13,1086.22,596.55z M873.89,744.81c0.01,4.3-1.16,6.85-5.34,9.08
			c-48.12,25.65-96.08,51.54-144.14,77.27c-33.64,18.01-67.38,35.87-101.06,53.82c-7.69,4.1-15.45,8.1-22.93,12.52
			c-2.68,1.59-4.69,1.53-7.16,0.17c-48.58-26.64-97.14-53.3-145.76-79.86c-38.46-21.01-76.99-41.93-115.55-62.78
			c-4.75-2.57-7.24-5.31-7.2-11.1c0.32-47.32,0.18-94.64,0.18-141.96c0-47.32,0.05-94.64-0.08-141.96
			c-0.01-4.44,0.96-7.25,5.52-9.68c30.42-16.21,60.6-32.82,90.89-49.24c43.77-23.73,87.56-47.44,131.37-71.11
			c14.9-8.06,29.95-15.88,44.76-24.08c3.16-1.75,5.46-1.64,8.39,0c49.68,27.76,99.38,55.51,149.12,83.19
			c32.56,18.12,65.19,36.11,97.78,54.17c1.91,1.06,3.57,2.71,5.6,3.32c13.85,4.11,15.95,13.18,15.87,25.9
			C873.51,563.26,873.77,654.04,873.89,744.81z"/>
		<path class="st0" d="M670.08,658.33c-9.85-10.08-19.6-20.24-29.58-30.2c-3.53-3.52-4.54-6.55,0-9.87c0.8-0.58,1.43-1.38,2.11-2.11
			c7.95-8.57,15.98-17.08,23.79-25.77c3.9-4.35,2.71-9.33-2.31-9.64c-7.97-0.49-16-0.23-24.01-0.27c-1.61-0.01-2.59,1.04-3.5,2.08
			c-6.59,7.55-13.15,15.12-20.57,23.66c0-2.24,0-3.36,0-4.47c-0.01-16.02-0.12-32.03,0.03-48.05c0.04-4.3-1.21-6.33-6.24-6.02
			c-5.93,0.37-11.91,0.24-17.85,0c-3.11-0.13-4.37,0.52-4.36,3.71c0.09,38.01,0.08,76.03,0.01,114.04
			c-0.01,2.68,0.85,3.94,3.78,3.92c7.18-0.06,14.37,0,21.55-0.09c1.78-0.02,3.03,0.06,2.82-2.89c-0.6-8.52-0.21-17.11-0.21-25.94
			c2.81,1.06,3.96,3.11,5.5,4.82c6.22,6.9,12.55,13.7,18.74,20.62c1.56,1.74,3.12,2.64,5.69,2.58c7.8-0.18,15.61-0.23,23.41-0.01
			c5.15,0.14,4.96-2.76,4.43-5.99C673,660.62,671.32,659.59,670.08,658.33z"/>
		<path class="st0" d="M579.14,620.17c0.24-7.74-2.79-14.39-7.29-20.05c-4.23-5.32-8.61-10.87-16.91-12.5
			c-9.42-1.85-18.76-0.89-28.11-1.51c-2.78-0.18-7.51,2.29-7.24-3.82c0.06-1.3-2.44-0.76-3.79-0.82
			c-7.13-0.31-14.31,0.66-21.91-0.87c0,28.64,0.03,57.19-0.05,85.74c-0.01,2.77,1.46,3.15,3.8,3.13c5.55-0.04,11.1,0.06,16.65,0.03
			c7.43-0.05,7.95-0.55,7.97-7.71c0.03-14.48,0.13-28.97-0.08-43.45c-0.05-3.49,0.76-4.82,4.7-4.51c4.49,0.35,9.04,0.03,13.56,0.1
			c6.52,0.1,9.13,2.57,9.15,8.76c0.04,12.55-0.05,25.1,0.03,37.65c0.04,5.77,2.39,8,8.48,8.17c4.52,0.13,9.07-0.38,13.55,0.02
			c5.56,0.49,7.65-1.06,7.49-6.65C578.75,647.98,578.7,634.06,579.14,620.17z"/>
		<path class="st0" d="M797.32,545.47c-10.89,0.18-21.79,0.06-32.68,0.06c-11.31,0-22.61,0.08-33.91-0.04
			c-4.45-0.05-6.34,1.7-6.2,5.88c0.17,5.02,0.08,10.04,0.03,15.06c-0.04,3.7,1.89,5.54,5.76,5.61c4.11,0.07,8.25,0.36,12.32,0.02
			c4.24-0.35,5.55,0.8,5.48,4.97c-0.28,16.03,0.02,32.06-0.19,48.09c-0.07,5.3,2.29,7.39,7.69,7.24c4.72-0.13,9.47-0.24,14.18,0.03
			c5.84,0.34,8.01-1.83,7.92-7.41c-0.28-16.22-0.01-32.44-0.17-48.67c-0.03-3.21,0.81-4.38,4.39-4.21c5.53,0.26,11.1,0,16.64,0.03
			c3.47,0.02,5.22-1.12,5.02-4.78c-0.29-5.39-0.5-10.85,0.05-16.2C804.15,546.17,801.76,545.4,797.32,545.47z"/>
		<path class="st0" d="M436.48,547.83c-5.14,0.03-10.31,0.38-15.4-0.09c-5.58-0.52-6.93,1.63-6.9,6.46
			c0.15,23.54,0.02,47.09,0,70.63c-0.02,13.11-0.08,26.23-0.02,39.34c0.01,3.3,0.74,5.82,5.55,5.47c6.13-0.44,12.34-0.38,18.48-0.03
			c4.55,0.26,5.29-1.47,5.25-5.3c-0.21-18.34-0.09-36.68-0.09-55.02c0-18.34-0.16-36.68,0.1-55.01
			C443.52,549.27,441.13,547.8,436.48,547.83z"/>
		<path class="st0" d="M718.46,551.77c0.02-4.43-1.78-6.36-6.45-6.27c-5.33,0.1-10.7,0.34-16-0.07c-5.44-0.41-7.38,1.52-7.29,6.54
			c0.21,12.34,0.07,24.68,0.07,37.03c0,12.54,0.08,25.07-0.05,37.61c-0.04,3.82,1.32,5.8,5.64,5.72c5.95-0.11,11.9,0,17.86,0
			c4.19,0,6.26-1.58,6.24-5.92C718.32,601.53,718.33,576.65,718.46,551.77z"/>
		<path class="st0" d="M477.43,581.37c-5.94,0.35-11.92,0.21-17.87,0.04c-3.58-0.1-5.21,0.91-5.19,4.58
			c0.11,26.64,0.1,53.28,0,79.92c-0.01,2.73,0.81,3.74,3.8,3.66c6.57-0.17,13.16-0.25,19.72,0c4.18,0.16,5.06-1.43,5-5.07
			c-0.22-13.12-0.09-26.25-0.09-39.38c0-12.93-0.2-25.87,0.12-38.8C483.03,582.12,481.63,581.12,477.43,581.37z"/>
		<path class="st0" d="M467.84,545.49c-9.51,0.09-17.22,7.37-17.15,16.17c0.07,8.82,7.86,16.27,17.05,16.32
			c9.83,0.05,17.69-7.21,17.62-16.27C485.29,552.23,477.9,545.39,467.84,545.49z"/>
	</g>
</g>
</svg>
