<?xml version="1.0" encoding="UTF-8"?>
<svg id="Capa_1" data-name="Capa 1" xmlns="http://www.w3.org/2000/svg" xmlns:xlink="http://www.w3.org/1999/xlink" viewBox="0 0 600 600">
  <defs>
    <style>
      .cls-1 {
        clip-path: url(#clippath);
      }

      .cls-2 {
        fill: none;
      }

      .cls-2, .cls-3, .cls-4 {
        stroke-width: 0px;
      }

      .cls-3 {
        fill: #173951;
      }

      .cls-4 {
        fill: #fff;
      }
    </style>
    <clipPath id="clippath">
      <polygon class="cls-2" points="-819.12 174.73 -3365.25 174.73 -3146.97 627.16 -3146.97 1750.27 -819.12 1640.78 -819.12 174.73"/>
    </clipPath>
  </defs>
  <g class="cls-1">
    <g>
      <path class="cls-4" d="M-5.24,245.12c0,1.2,3.6,4,4.8,4.8,1.2.8,5.21,3.6,5.21,3.6l-3.6-8.81s-6.41-.8-6.41.4Z"/>
      <path class="cls-4" d="M15.98,253.93c2,2.8,5.21,4.4,5.21,4.4,0,0-2.78-7.94-7.16-6.82.12.05.52.4,1.95,2.41Z"/>
      <path class="cls-4" d="M13.98,251.53s.03,0,.05,0c-.05-.02-.05,0-.05,0Z"/>
      <path class="cls-4" d="M268.57,114.07c-1.85-.31-5.54-.92-5.23-2.15.31-1.23-2.77-2.77-4-2.15-1.23.62-.92-3.39-2.46-2.15-1.54,1.23-3.69,1.23-4.62,1.54-.92.31-3.69,1.23-4.31.31-.62-.92-5.23-2.77-5.23-2.77,0,0-1.85,1.23-1.23,3.69.62,2.46,0,4.93,2.77,4.62,2.77-.31,3.69-2.46,5.85-2.46s4.31,1.23,6.16,2.15c1.85.92,4.62,4.93,6.77,4.62,2.15-.31,8.31-2.46,9.85-2.77,1.54-.31-2.46-2.16-4.31-2.46Z"/>
      <path class="cls-4" d="M238.89,80.4c-.77-1.27-1.31-2.77-1.86-4.24-.58-1.48.35-1.67,1.46-.74,1.11.91,1.47.57,3.32,2.03,0,0,3.52-.17,4.06-.52.56-.41,3.52-.94,4.25-.94s1.1.72,2.77.34c1.66-.34,2.01-.91,2.76-1.84.75-.91.93-1.1,2.42-2.93,1.47-1.85,0,0,.18-1.1.17-1.13.37-1.69.57-2.58.17-.94,1.46-.38,3.3-.38s4.06-.37,4.97-1.47c.93-1.11-1.65-.94-2.03-1.48-.35-.56-2.38-1.11-2.94-1.29-.54-.2-3.86-1.29-5.89-2.59-2.01-1.28-2.4-1.28-3.32-2.38-.92-1.13-.54-2.79-.74-3.51-.18-.75-4.43-2.23-5.18-2.96-.71-.73-1.28-1.1-1.28-1.65s-3.51-.38-4.42-1.12c-.93-.73-3.32.54-6.09.18-.66-.1-3.15.93-4.06,1.49-.92.55-2.76.17-2.58-2.23.17-2.39-2.95-1.65-4.44-1.84-1.46-.17-8.12.19-8.85.19s.56.91.56.91l1.66,2.97s1.11,3.14-.37,4.98c-.36.44,1.09,2.21,1.28,2.75.2.57.94,2.78.39,2.78-.58,0-1.3-1.46-2.42-2.2-1.1-.73-1.1-.38-1.66.37-.54.73-3.3-.2-3.3-.2l-1.3-5.89c.37-1.86-.55-1.48-.55-3.13s.37-1.67.18-2.98c-.18-1.28.37-2.75,0-4.22-.36-1.49-.92.39-1.66.39s-2.59-.56-2.76-1.5c-.19-.93,0-2.38-.74-3.13-.75-.76-2.78-3.14-3.89-4.25-1.1-1.1-2.2-1.1-2.76-1.84-.54-.75-2.2-1.31-2.57-2.04-.39-.72-2.59-.72-3.15-1.1-.57-.37-3.68-.54-5.55-2.21-1.85-1.67-2.75-1.1-3.49-1.67-.75-.54-1.85.57-2.23,0-.35-.54-2.21-.35-3.12-1.28-.94-.93-2.77-.75-3.32-1.3-.55-.56-7.02-5.16-7.75-6.44-.72-1.3-1.29-.38-2.21-1.12-.93-.74-.75-.37-2.03-.94-1.29-.53-2.03-1.29-2.78-1.66-.74-.37-2.23.76-3.86.56-1.65-.19-2.4-.19-2.97-.36-.53-.2-12.71-10.15-13.28-10.32-.55-.2-2.76,0-3.67,0s-3.15-.56-3.52-1.13c-.37-.52-2.03-.17-4.43-1.45-.73-.41-1.12.17-1.86-.57-.73-.72-3.86-.37-4.6-.54-.73-.18-2.95,0-3.32-.91-.35-.95-2.22-.95-2.58-2.24-.37-1.27-3.14-.89-4.8-.89s-3.5,0-5.16-.56c-1.68-.58-6.84-.21-7-.92-.2-.74-4.07.35-5.18.35h-3.87s-2.95.58-3.7.58-2.21,1.28-3.14,1.83c-.92.55-2.38.73-2.38.73,0,0-.19-1.46-.75-2-.54-.56-2.03-.56-2.57-.93-.57-.37-1.49-.56-1.83-1.12-.39-.56-3.16.37-3.91,0-.72-.36-3.86-1.09-4.58-1.83-.75-.75-6.09,1.1-6.09,1.1,0,0-9.97-2.03-11.07-2.6-1.12-.54-1.12,3.16-.95,3.7.21.54-.17,2.95-.89,3.33-.75.35-.94,1.27-1.32,2.03-.35.72,1.86,1.28,3.35,1.84.63.24,1.1,2.23,1.64,2.94.57.74,2.77,3.52,2.77,3.52l.54,2.02s-1.46,2.2-2.58,3.32c-1.1,1.1-1.66,1.3-2.21,1.1-.56-.19-2.59.75-2.59.75,0,0-2.59.55-3.86.36-1.29-.17-3.67.94-4.42.57-.74-.37-.39-1.47-.39-2.4s-2.01-1.49-3.13-2.58c-1.08-1.12-1.82-2.03-2.57-2.97-.73-.9-3.32.54-4.06.54s-2.57.57-3.32-.54c-.74-1.1-.74-2.01-.74-3.32s-.54-3.5-1.49-4.43c-.9-.91-2.03-4.77-2.75-4.96-.75-.21-1.48,1.46-1.48,1.46,0,0-2.21,1.49-2.76,2.24C15.8-1.13,13.4-.03,13.4-.03l-2.57-.18S6.76.88,6.21.53C5.67.17,1.05,1.1-.07-.59L-3.55-.03l-4.08-.18h-5.16l-4.82-.91s-2.19.35-3.11-1.69c-.94-2-2.6,0-2.6,0l-2.23,1.13-2.93-.57-3.32-.55-4.61.95-2.99-.5-.52-.08s-4.61.18-5.16,0c-.57-.17-2.23,1.66-2.77,2.22-.54.55-1.48,1.1-1.86,1.66-.37.54-.72,3.13-.72,3.7,0,.54,1.26,3.29,1.26,3.29,0,0,.56,4.43.39,5.19-.2.73-.94-.76-1.51-1.3-.54-.54-1.63-3.14-2.18-3.89-.56-.74.36-.91.36-2.57s-.19-1.67-.19-2.41-1.83-1.47-2.03-2.37c-.17-.93-1.28-1.5-1.45-2.23-.21-.73-2.78-1.13-2.78-1.13,0,0-2.2-.18-2.97-.55-.73-.35-2.21.74-3.32.2-1.1-.55-2.38-.2-3.5-1.66-1.12-1.49-.37-.93-.18-2.58.18-1.65.55-.93,2.23-2.03,1.64-1.13,1.27-1.67,1.45-4.26.2-2.6-.37-2.21-.92-4.04-.52-1.86-1.66-.75-1.66-.75,0,0-2.03-1.49-2.77-2.41-.72-.93-2.38-2.76-2.96-3.51-.55-.72-1.83-.35-2.01-.91-.19-.57-2.6-.74-2.6-.74,0,0-2.55-.56-2.94-1.84-.37-1.31-2.58-.37-2.58-.37,0,0-1.66,0-2.03-.57-.37-.56-1.29-.73-1.66-1.46-.37-.73-1.85.17-1.85.17l-3.88.2h-5.72s-3.49-.2-4.43-.57c-.9-.37-2.2.57-2.2.57,0,0-1.67-.37-2.21-.75-.55-.35-2.21-.18-2.21-.18l-5.17.57-2.4.73-3.49.36s-4.26,1.85-5,1.85-5.9-.36-5.9-.36c0,0-1.66,1.11-1.66.56s-5.72,2.22-7.01,2.76c-1.28.56-4.6.38-5.91.19-1.27-.19-5.7-1.84-5.33-2.57.37-.76-.75-1.67-.19-2.42.55-.72-1.85-2.39-2.4-3.67-.56-1.27-1.48-1.48-2.22-1.67-.74-.18-2.94.19-4.61-.94-1.66-1.1-1.48,0-2.4-.73-.92-.73-1.47-.93-2.95-1.84-1.49-.91-.95,0-2.4.56-1.49.56-3.32,1.47-4.24.73-.94-.73-1.09-.92-1.48-2.03-.35-1.1-2.78-1.83-4.62-1.83s-4.6.73-5.15.53c-.58-.17-1.49-.91-.94-2.94.56-2.03,5.72,2.58,7.58,1.84,1.84-.73-1.12-1.28-2.03-2.94-.91-1.65-.19-1.48.37-1.86.55-.38,2.01-.92,2.39-2.22.37-1.29-.38-1.29-.55-1.84-.18-.56-4.61-2.95-5.16-2.95s-10.15-2.76-11.61-3.32c-1.48-.54-3.51.18-4.63-.2-1.12-.35-2.76.58-3.33.38-.54-.18-2.94.38-3.89.38s-1.64.92-1.64.92l-2.03.36s-2.22-.73-2.4-2.21c0-.07-.04-.09-.06-.14-.29-1.31-2.14-1.15-2.14-1.15,0,0-2.95-.54-3.52-1.48-.55-.91-3.87-.18-4.99-.91-1.11-.74-2.75.36-4.43,0-1.66-.37-2.75.17-3.32-.37-.54-.56-2.57.92-3.51-.56-.92-1.47-2.93,0-4.22-.55-1.29-.55-3.33.37-3.33.37l-10.52-1.29s-3.5.37-4.43.17c-.92-.17-3.86-.73-3.86-.73,0,0-3.51.73-4.44.56-.91-.21-2.4.54-3.87-.37-1.48-.94-1.11-1.66-3.33-2.77-2.22-1.1-2.03,0-3.67,0s-1.85,0-.55,1.83c.53.81,1.29,2.59,1.64,3.34.37.73,0,2.02-.35,2.58-.39.56-3.52.93-5,.37-1.46-.56-1.83.37-5.9-.37-4.06-.72-3.68.56-4.8.93-1.1.37-1.1.54-1.84,1.3-.74.73-1.12,1.83-1.29,2.77-.19.89.93,2.57.93,2.57,0,0,1.29-1.28,2.21-2.22.93-.9,2.57-.17,4.06-.17s.73,1.28-.18,2.21c-.92.93-.57,2.05-.57,2.05,0,0-2.04,2.76-2.2,3.32-.18.55.37,2.57.37,3.14s2.03,2.94,2.4,3.69c.37.73-.72.36-2.4.54-1.66.19-2.98.73-3.69-.19-.75-.94-.37-1.11-1.49-2.38-1.1-1.3-2.94-1.12-2.94-1.12,0,0-6.47,2.05-7.38,2.22-.92.17-3.13,0-3.87-.37-.74-.37.94,1.45,2.03,2.03,1.12.54.38,2.76.2,4.23-.2,1.47-2.23,2.21-2.97,1.47-.74-.72-2.57-.16-3.32-.53-.74-.37-3.12-.18-3.31-1.45-.19-1.34-2.95-1.14-4.07-3.54-1.09-2.4-3.67-2.76-3.67-2.76,0,0-3.51-.17-4.06-.93-.56-.74-3.71.93-4.43.76-.73-.21-4.06.53-5.37.73-1.27.2-2.38,1.45-3.48,2.4-1.1.91-3.13,1.47-4.44,1.28-1.28-.17-8.85,0-9.01-1.11-.21-1.12-2.98-.36-3.69-1.12-.77-.74-2.95-2.01-3.34-3.31-.35-1.29-1.84-2.21-2.76-3.51-.91-1.28-1.1-1.11-2.4-.9-1.28.17-.74,2.74-.74,2.74,0,0-1.66,4.06-4.23,6.64,0,0-1.47,2.11-2.02,3.68-.11.34-.19.68-.19.92,0,1.48-1.48,1.87-2.23,2.95-.74,1.12-1.49,2.25-2.2,3.15-.74.93-2.4,2.4-3.5,1.65-1.13-.72-1.13-.18-1.86-.72-.74-.56-2.03-.39-3.32-.93-1.28-.56-2.94-.73-4.06-1.84-1.11-1.12-2.94-2.03-3.69-2.59-.74-.53-2.2-2.77-2.57-3.87-.35-1.13-7.01-5.16-7.92-7.38-.94-2.21-1.49-.73-2.77-1.49-1.29-.73-2.21-2.38-3.15-3.86-.92-1.47-.73-2.4.37-4.43,0,0,2.23,2.03,3.32,2.4,1.11.38,2.77.56,3.69,0,.91-.56,1.48-1.28,2.57-3.16,1.1-1.82-.17-2.2-.17-3.66s-1.84-.92-2.96-1.3c-1.1-.37-2.77-.93-3.89-1.48-1.08-.54.75-1.1,1.66-2.02.92-.93.92-.2,1.86-2.03.93-1.85-1.09-1.49-2.4-2.96-1.29-1.47-2.58-1.47-2.95-2.58-.38-1.1,2.95.37,3.49-.55.58-.92,0-1.85-.35-4.05-.37-2.23-2.39-.57-4.25-1.86-1.83-1.29-2.96-1.29-2.96-1.29,0,0-.19-2.95-.37-4.42-.18-1.47-3.87,0-6.46-.74-2.59-.73-3.87,0-5.53.17-1.66.18-1.86,1.13-2.58,1.67-.74.55-2.03,1.47-3.31,1.3-1.31-.17-.92-.55-.92-2.03s-2.03-1.3-2.77-1.11c-.75.17-4.44,1.65-5.55,1.84-1.1.18-4.79-1.49-4.98-2.38-.17-.93-2.75-.93-2.75-1.67s-2.23-.38-2.77-1.67c-.57-1.28-1.49-2.58-3.13-3.32-1.68-.74,0,0-1.12,3.53-1.11,3.49-2.4,1.82-3.89,1.82s-2.21-.36-3.5-.17c-1.3.17-1.45,1.49-2.77,1.84-1.29.36-1.12,2.58.37,5.35,0,0,.54,1.48.19,2.41-.39.91-.39,1.28-.19,2.2.19.94.54,1.66.54,1.66,0,0-.35,2.95-.91,3.88-.56.93-2.76.17-3.87-.75-1.11-.92-2.78-1.1-3.51-2.02-.74-.95-3.86,0-4.78-.36-.94-.38-5.56.18-7.38-.38-1.85-.55,0,0-1.1-.37-1.13-.36-3.54.92-4.62,1.11-1.12.19-2.6.36-3.5-.74-.94-1.1-2.97-.93-2.97-.93,0,0-2.23-1.85-3.31-2.76-1.1-.92-1.84.36-2.78,1.1-.91.74-1.83,1.29-2.57,1.85-.73.52-3.69,0-4.42-.57-.76-.54-1.67-.54-2.4-2.03-.76-1.48-3.89-.36-4.99-2.21-1.1-1.84-.73-1.47-.73-2.76s1.64-.37,2.03-1.12c.36-.74,0-1.09-1.12-1.85-1.1-.74-1.65.57-4.77.94-3.14.36-8.32-2.02-10.16-2.58-1.85-.56-2.95,0-3.69-.19-.74-.18-2.4-.92-3.34-1.66-.91-.73-3.12.2-4.04,0-.92-.17-3.14.36-4.06,0-.93-.38-3.33-.38-3.89-.73-.54-.38-2.78.93-3.86,1.47-1.1.56-4.06,1.49-5.16,1.49s-4.6-.2-5.72-.37c-1.12-.19-5.55,1.84-5.72,3.12-.2,1.29,2.21,3.52,2.21,3.52,0,0-4.04.38-4.97-.92-.92-1.31-2.21-1.65-2.04-2.6.2-.91,1.11-1.48,1.28-2.75.21-1.3-.17-1.3-1.08-2.61-.95-1.27-2.03-2.95-2.03-2.95,0,0-3.88,3.33-4.81,3.54-.91.15-2.94.72-3.5.35-.56-.35-3.33-.2-4.8-1.28-1.49-1.12-2.21-.75-2.95-1.68-.74-.92-.19-1.29-2.57-2.03-.25-.07-.78.13-1.4.36-.78.23-1.68.51-2.29.2-1.12-.56-2.6-.38-4.43-1.66-1.86-1.28-3.49.2-4.23.2s-2.24.9-2.98,1.08c-.72.2-2.75,2.78-3.69,3.53-.92.73,1.31,1.08,1.86,1.28.54.18,4.97.54,5.72.37.74-.18-.54,1.65-1.12,2.2-.56.57-8.1,1.48-8.1,1.48,0,0-3.52,1.31-4.08,1.31s-3.5,1.84-7,2.38l-3.32.74s-2.6.92-3.33,1.29c-.75.37-3.67.2-5.16.2s-1.83.55-1.83.55c0,0-4.06.36-4.99.36s-2.39.74-5.7,1.84c-.63.23-1.49,1.27-2.6,2.58-1.11,1.31-3.32,2.02-4.61,2.58-1.29.55-1.66.93-2.76,1.11-1.13.2-1.48-.56-.39-1.67,1.14-1.1,2.6-1.1,3.51-2.19.92-1.14,1.66-2.6,2.4-3.51.73-.91,1.49-2.22,2.02-2.95.56-.73,3.87-1.47,4.8-1.47s2.77.19,3.14-.57c.38-.73,2.22-1.27,2.58-2.4.37-1.1,1.31-1.49,2.2-2.21.93-.72,2.03-.17,4.26-.72,2.21-.56,2.76.17,4.06-.93,1.29-1.1,1.64-.18,2.78-1.31,1.1-1.09,2.2-1.27,3.67-3.13,1.49-1.83,1.28-1.49,2.59-2.6,1.29-1.09,1.84.2,3.5-.17,1.66-.37,1.28.17,3.15-1.47,1.83-1.67,1.83-.73,3.32-1.49,1.47-.75,1.47,0,.75-1.48-.75-1.47-.2-.73,1.09-2.4,1.29-1.66,2.6-.93,3.69-1.47,1.12-.54,2.78-.54,4.98-2.76.49-.48,2.22-.57,3.51-1.67,1.29-1.08,2.95-.54,3.7-1.08.75-.55,3.87-1.68,4.61-2.24.74-.54,2.77-1.11,4.61-1.65,1.85-.54,0,0,2.22-1.66,2.22-1.67,2.76-.94,3.49-1.11.73-.18,2.59-1.29,4.24-1.84,1.66-.56,4.46-4.99,4.46-4.99,0,0,2.18-2.4,2.01-3.68-.17-1.28-.54-1.28-1.66-2.4-1.12-1.12-2.57-1.12-3.89-2.03-1.3-.93-3.85-1.47-4.6-2.58-.74-1.1,1.1-1.1,2.21-.92,1.09.18,2.94,1.82,2.94,1.82,0,0,3.33,1.32,4.81.75,1.47-.54,1.09-.9.55-4.41-.16-1.04-1.49-.56-2.23-2.05-.74-1.46,0-1.3,0-2.58s-1.46-1.65-2.2-2.76c-.75-1.1-1.66.94-1.66.94,0,0-1.66,2.2-3.13,2.01-1.48-.18,0,0-.93-1.47-.93-1.48-1.66-2.21-2.21-3.48-.57-1.31.91-2.41.91-4.08s-1.83-.76-3.87-1.86c0,0-3.89-.19-4.6-.92-.75-.74-1.49-1.29-2.23-2.39-.75-1.11-2.78-.55-3.32-.92-.55-.35-2.77,0-4.06-.74-1.29-.74-3.13.19-4.42-.38-1.3-.55-3.52.93-4.26,1.29-.72.37-4.41.75-4.41.75,0,0-9.24-1.28-11.81-1.66-2.58-.38-3.69,1.11-9.04.91-5.36-.17,0,1.5-1.11,2.4-1.1.94-1.48,1.66-5.35,1.31-3.88-.37-1.48.36-2.78.36s-2.38,1.3-3.84.92c-1.49-.38-1.13-.38-.94-1.85.2-1.46,2.77-1.46,3.69-2.39.93-.92,2.96-2.22,3.69-4.23.75-2.04-.19-2.04-.19-2.95s-1.29-.21-2.95-.74c-1.66-.57-2.58.35-3.7.19-1.09-.19-6.26.35-7.73.16-1.48-.16-1.12.19-1.48-1.65-.37-1.84-2.58.73-3.69-.17-1.12-.92-1.66.17-3.31.36-1.66.2-2.95,1.12-4.79.38-1.86-.74,0,0,2.01-2.21,2.03-2.24,2.4-1.13,4.24-1.49,1.86-.37,1.68-.56,4.81-2.6,3.13-2.02.37-.74.17-2.39-.17-1.67-.92-1.28-2.01-2.23-1.12-.93-2.03.19-2.03.19,0,0-3.51-.55-4.06-2.04-.55-1.47-1.84-.74-3.33-1.3-1.48-.51-2.77,0-4.06-.51-1.29-.57-3.13-.76-4.25-.96-1.11-.17-3.31.96-4.23.96s-2.22.9-3.31.34c-1.13-.54-2.43.93-3.34.73-.92-.17-2.76,1.86-3.69,2.4-.91.57-2.76,2.41-2.76,2.41,0,0-6.46,2.95-7.95,3.31-1.45.37-1.84,2.4-5.53,7.56-3.68,5.2-.91,1.31-2.2,2.95-1.29,1.65.72,2.04,1.29,2.41.54.36.74,1.85.19,2.21-.28.17.37,1.02,1.02,1.69-.78-.11-1.6.62-2.15.34-.72-.35-2.21.38-4.6.38s-2.03.19-2.76-.2c-.74-.36-3.33-.19-4.43-.54-1.11-.39-3.14,1.08-4.24.92-1.12-.19-3.69,1.09-4.98,1.64-1.28.57.56.93.56,1.85s1.83,1.3,1.83,1.3c0,0,3.33,2.03,3.88,2.21.55.17,2.4,2.76,2.21,3.88-.19,1.09-.92.55-2.58-.39-1.66-.91,0,0-2.03,0s-1.08.39-4.06-2.39c-1.23-1.18-1.29.18-2.21-.38-.91-.55-2.94-.73-3.5-.91-.57-.17-3.51,1.47-4.06,1.66-.56.17-2.59,1.27-3.14,1.47-.58.19-2.98,1.86-3.69,2.21-.75.38-3.52,1.84-5.18,2.58-1.66.74-2.03,1.3-2.76,0-.74-1.29-2.76-1.29-4.06-1.13-1.29.2-7.75,4.27-7.75,4.27,0,0,1.66-3.14,2.22-3.31.54-.19,1.1-4.62.54-4.82-.54-.17-7.36-1.1-7.73-1.65-.38-.55-4.07.38-4.81.38s-3.12,2.2-4.21,2.95c-1.14.73-3.17,1.65-3.89.91-.73-.75-10.15-3.14-10.9-3.14s-.56,1.67-.56,1.67c0,0,.74,4.06-1.45,3.87-.57-.05-2.06,1.1-2.77,1.48-.75.37-2.22,1.27-2.22,1.27l-3.32.2s-3.32,1.48-4.06,1.48-2.04.55-2.04.55c0,0-3.32,0-5.35-1.28l-3.69,1.08-4.79.2-2.03,2.03-2.77.75-4.98.92-7.56,3.49s-1.29,1.3-1.68.93c-.35-.38-1.09.54-2.58,1.67-1.49,1.08-.54.91-2.03,1.64-1.47.74-1.1.91-2.02.2-.91-.76-1.85,1.65-1.85,1.65,0,0-2.03,2.03-2.57,2.39-.56.39-2.41,1.29-3.15.94-.72-.37-2.21,1.12-2.21,1.12,0,0-1.12,3.51-1.83,3.51s-.74.73-1.86,1.47c-1.11.74.37,1.84.37,1.84l3.13,1.65s-.17,3.35-1.1,2.22c-.94-1.09-3.52-.73-4.26-.73s-1.1,1.47-1.1,1.47v1.49l2.59.55.37,2.2,2.77,1.3,2.41,1.47s-.21,2.05-1.86,3.52c-.43.37-1.25,0-3.67-.67-.02.07-1.16.27-8.15.67-.78.02-1.64,1.86-4.8,2.58-3.13.74-3.3-.93-3.86-2.03-.54-1.11-3.49,1.3-4.06,1.3s-1.29.17-5.35.55c-4.04.38-2.38.17-5.7-.94-3.32-1.1-3.69.55-5.35.94-1.66.38-4.8,1.65-5.74,1.65-.89,0-9.01.75-12.7.54-3.69-.17-3.32-1.28-5.73-.92-2.38.38-2.22,1.31-4.06,1.86-1.84.54-1.29,2.21-2.22,3.68-.91,1.48-.17,2.4-.56,4.63-.35,2.2,2.39,1.83,4.25,2.94,1.83,1.11.2,1.49-.19,3.14-.35,1.65,0,1.65-.17,3.32-.18,1.66,1.29,4.42,2.95,6.45,0,0,1.28,1.85,1.85,1.85s2.02.89,8.85,1.65c6.84.73,1.49.93,2.22,1.84.73.92,2.38,2.43,3.5,2.59,1.12.18.18,1.66-.17,3.51-.37,1.83-2.03,1.28-3.33,1.48-1.3.17-2.42.72-5.17.53,0,0-3.34.74-4.44.19-1.11-.54-2.21-.19-2.38-1.12-.19-.9-2.78-1.84-2.96-2.56-.19-.72-2.78-.72-2.96-1.65-.17-.93-2.2-1.66-2.74-2.4-.58-.74-2.43-.74-3.71-2.24-1.29-1.46-.75-.73-3.5-.53-2.78.19-1.86.36-2.03-.75-.17-1.1-2.03-.74-3.51-1.28-1.02-.4-3.77-.42-5.4-.4-.72,0-1.25.02-1.25.02,0,0-1.66.38-2.2-.2-.55-.54-1.49-.35-1.66-2.2-.18-1.85-.37-.74-2.4-2.22-2.03-1.46-2.03-.17-4.06-.73-2.03-.56-2.94,1.47-4.24,2.21-1.29.74-2.78,2.22-3.5,2.94-.75.76.35,2.61.55,3.14.17.55,1.84,0,2.95-.53,1.11-.57.74.74,1.11,3.31,0,0,1.1.38,2.03,0,.92-.37,1.47-.19,4.61.56,3.12.76.74,1.11,1.29,1.48.54.36.74,1.66-.38,2.96-1.11,1.28-1.65,1.48-2.57,1.08-.92-.35-2.77-.53-4.63-1.84-1.83-1.27-1.28-.73-2.94-2.03-1.66-1.28-2.01-.17-4.24-.9-2.22-.76-2.03.35-3.86.54-1.83.18-1.12.74-2.6,1.28-1.48.56-.73,1.68-.19,2.76.56,1.1,1.49.75,2.24,1.67.72.91.16,1.29,1.08,2.77.92,1.47.55,1.83,1.84,2.02,1.29.19,2.78,1.66,4.43,1.86,1.66.17,1.86,1.66,5.53,3.32,3.71,1.64,1.31.18,3.15-.2,1.85-.37,2.6.57,3.89.74,1.29.2,1.29,1.84,2.38,1.84s2.22,2.78,2.22,2.78l-1.85.94s-3.7-.4-4.24-.59c-.55-.18-1.66-1.29-1.84-1.85-.19-.53-1.49-.73-2.03-1.63-.55-.92-1.84-.4-2.4-1.3-.58-.94-8.49,1.1-9.78.38-1.3-.75-2.22-.75-2.22-.75l-2.22-.57s-3.32-.2-3.88-.37c-.54-.18-3.14-.52-4.43-.92-1.3-.37-.74-.55,0-1.84.74-1.3,0-1.48.74-4.81.75-3.34-.35-1.47-1.66-3.34-1.28-1.84-.91-1.08-.16-2.56.72-1.47,2.03-2.58,2.57-3.88.55-1.31,1.1-3.34,1.29-4.97.2-1.66-.74-6.1-1.68-8.14-.9-2.03-4.42-2.39-6.82-1.66-2.4.76-1.11,1.31,1.12,5.53,2.22,4.26,1.1,3.68,1.1,3.68l-.91,3.14-1.48,1.86s-3.52,1.84-3.87,2.4c-.37.56-4.25,1.66-5.18,1.31-.91-.39-2.58.9-2.58.9,0,0-2.4,2.78-2.58,3.31-.19.57-2.05,2.41-2.6,2.98-.54.53-2.03,2.38-2.77,2.94-.73.54-1.1,2.03-1.1,2.77s1.47.93,2.21.93,3.15,1.11,3.15,1.11l-.56,1.85s4.24,4.78,5.35,5.89c1.1,1.1,3.13,2.4,4.42,2.4s0,2.93.2,4.23c.17,1.27-1.68,2.19-2.59,2.96-.93.72-2.03,2.4-4.25,4.59-2.23,2.24-.74,2.24-1.28,6.28-.56,4.06.92,2.41,1.66,3.15.73.73.73,2.05.37,3.87-.37,1.86.74,4.06,1.11,5.35.37,1.29,2.21,1.12,2.95.37.74-.73,2.03-.2,2.57,0,.54.2,2.76,1.85,5.36,1.85s1.29-.55,2.03-1.11c.74-.55.92.38,1.84-.38.94-.74,1.11-.57,2.03-1.48.94-.92,3.89-.17,4.8-.37.92-.17,2.03.54,3.67.37,1.68-.17,2.23.74,2.97.57.74-.19,2.97,1.29,4.24,1.84,1.31.55,3.32,1.11,4.26,1.85.92.72,1.85,1.84,2.58,3.31.72,1.48,2.2,1.3,2.77,3.32.55,2.04,2.58,3.88,3.5,4.25.91.36.2,2.4-.37,2.94-.55.57-2.21,1.11-3.86,1.29-1.66.21-.92,2.05-1.66,3.51-.73,1.47.2,1.11.35,3.14.2,2.03,1.49.73,2.6,1.49,1.11.75,2.21,2.02,3.14,1.65.9-.39,2.58,0,2.58,0,0,0,3.31.37,6.07,1.1,0,0-.53.76-1.66,1.31-1.1.53-3.32.38-4.79.17-1.49-.17-1.3,0-2.03-.17-.74-.18-2.77-.73-4.97-2.03-2.24-1.27-.94.18-3.52-1.65-2.57-1.86,0,0-.73-1.68-.74-1.65-.74-1.45-.56-4.05.19-2.57.19-1.84.37-3.14.19-1.28.74-2.95.56-4.61-.19-1.66-1.85-2.04-2.4-3.32-.57-1.31-3.14-.74-4.23-2.58-1.13-1.85-.93-1.5-2.03-2.96-1.12-1.48-2.96,1.83-4.06.36-1.12-1.46-2.05-.56-2.4-1.1-.38-.54-3.89.54-5.18.37-1.3-.2-2.58,1.3-4.98,1.47-2.4.19-2.4,1.29-3.69,1.66-1.28.37-3.31,4.8-2.94,6.09.37,1.28,1.3,1.84,1.49,2.4.17.54.71,2.95,1.84,4.98,1.1,2.01.9,2.39.73,3.51-.18,1.11-.37,1.84-.73,2.59-.39.73-1.13,1.47-2.03,2.37-.93.94-1.3,1.31-3.31,3.14-2.05,1.86-2.05,3.15-2.78,4.43-.74,1.3-1.11,2.4-2.4,4.24-1.29,1.84-5.35,3.7-5.92,4.27-.55.54-3.86,1.64-5.7,2.21-1.86.54-1.12,1.84-1.12,2.57s-2.03,1.86-2.94,3.14c-.93,1.29-1.29.2-3.15,1.1-1.85.94-1.85.76-2.03.2-.17-.54-2.03-2.19-2.4-2.75-.35-.55-2.96.72-3.67-.2-.74-.93-2.98-.36-3.69-.36-.76,0-3.35.91-4.43,1.11-1.12.16-2.03,0-2.98-.56-.89-.55-3.12-.93-3.12-.93,0,0-7.01-1.29-7.38-1.85-.37-.57-1.86-3.14-2.03-4.06-.18-.92,1.09-.73,1.66-.92.57-.17,1.46-.36,2.59-.55,1.1-.18,2.38.55,3.3.75.91.18,3.69,1.11,4.8,1.48,1.12.36,3.5.17,4.24,0,.75-.2,2.78-.93,4.81-2.03,2.03-1.11,2.4-.2,2.4-1.11s3.15,0,3.87-.57c.74-.55,2.22.2,2.78,0,.54-.17,2.4-1.29,2.4-3.14s-.19-2.03.35-2.95c.57-.93,2.05-.93,2.42-2.96.36-2,1.83-1.46,2.39-2.38.54-.92,2.59-1.31,2.59-1.31,0,0,2.38-.73,4.41-2,.62-.41-.37-2.96-.74-4.81-.37-1.86,1.12-3.69,1.49-4.99.37-1.31.72-.72,2.2-2.03,1.49-1.28,1.86-2.4,1.49-3.14-.37-.73-2.24-2.2-3.32-3.12-1.12-.92-4.61-2.4-5.53-3.15-.93-.73-2.59-1.66-3.34-3.67-.74-2.03,2.41-5.54,2.03-7.21,0,0,0-1.83-.16-2.77-.19-.92,1.1-2.95.9-4.6-.06-.55-.55-1.47-.55-2.76s-1.11-2.4-1.48-3.33c-.35-.92-.56-2.95-.19-4.06.36-1.09,0,0,.56-.37.56-.37,1.11-.91,1.46-1.65.39-.76,0-3.14,0-3.14,0,0,2.03-5.35,1.88-6.29-.2-.9-3.9-4.61-4.46-5.14-.54-.57-2.21-1.3-2.57-1.85-.35-.58-1.29-1.48-1.84-2.22-.56-.76-1.68-1.67-2.4-3.34,0,0,1.11-.91,2.01-1.25.93-.4,2.42-2.6,2.42-2.6,0,0-.54-3.14,2.57-5.52,3.15-2.41.93-1.13,1.49-2.05.54-.93.54-1.86,1.29-2.42.74-.54.92-.72.92-2.03s.37-1.83.18-3.49c-.18-1.66-1.49-2.57-1.49-2.57,0,0-.17-.92-.55-1.86-.35-.91-4.41-2.19-4.41-2.19-.54-.55-1.83,0-2.42-.55-.54-.56-2.93-1.13-2.93-1.13h-2.77l-5.53-1.47-2.4-.36s-4.44,1.48-6.47,1.28c0,0-3.88.2-5.9-.92h-3.69c-1.3.38-2.23,1.84-2.23,1.84l-.91,2.59-1.3,2.94s-1.11,2.22-1.86,2.77c-.73.57-.9,2.41-.9,2.95s.17,2.41.17,3.34-.74,2.58-1.3,3.14c-.54.54-.91,1.85-1.83,3.13-.92,1.28-1.84,1.65-3.13,2.76-1.28,1.12-2.96,2.59-3.52,2.94-.54.38-3.49,2.04-4.61,2.59-1.12.56-2.78,1.48-4.06,2.03-1.29.56-2.22,1.67-2.95,1.86-.74.17-.74,1.67-.74,2.4s0,1.09-2.2,3.33c-2.22,2.2-.74,2.74.54,2.2,1.29-.56,3.89,1.46,4.81,1.1.91-.37,2.57-.56,2.77.36.17.93.35,8.68.35,8.68,0,0-.74,2.97-1.46,4.05-.75,1.13-.93,1.67-1.49,2.96-.54,1.28-1.1,2.77-1.1,3.7s-2.23,5.53-.19,4.22c2.03-1.29,1.85.74,4.24-.36,1.14-.51,2.4.92,3.52.36,1.1-.54,2.76,1.5,3.67,1.5s1.31,1.83,1.87,2.77c.54.91,1.09,3.68,1.29,4.41.18.73,1.09,1.86,2.92,2.03,1.86.19,1.49,1.28,2.97,1.28s2.21,1.49,2.21,2.23-.17,2.2-.55,3.14c-.37.92-2.03,3.51-2.4,4.24-.37.74-2.57,1.86-2.57,1.86l-2.23-.38s-3.13-1.65-3.69-2.2c-.55-.55-2.95-2.03-3.32-3.32-.37-1.3-8.67-5.55-12.74-7.93-4.04-2.4-2.94-.2-3.48-.37-.55-.19-4.81-.93-6.65-1.48-1.83-.54-3.14-1.11-3.51-2.03-.36-.92-2.59-.18-4.24-2.21,0,0-.1-.07-.19-.17,0,0,0,0,.01,0-.43-.4-1.55-1.41-1.86-1.85-.37-.56-2.95-.19-3.69-.76-.74-.52-4.04-1.45-4.6-2.01-.54-.56-3.13.17-3.69-.37-.52-.55-3.32-1.3-4.05-1.85-.74-.55-2.42.75-2.96,0-.55-.73-14.76-2.01-15.85-2.01s-5.35.17-5.35.17l-8.67-4.05s-2.03-1.66-2.58-2.41c-.57-.73-3.32-3.87-3.71-4.61-.35-.72-4.96-.72-5.71-1.1-.73-.38-2.03.54-2.57.37-.57-.2-2.22,1.86-2.42,2.55-.17.77.19,3.54.19,4.45s.19,1.49.19,1.49c0,0,1.1,1.09,2.21.91,1.1-.19,1.29,1.1,2.95,1.66,1.65.56,2.77,1.66,4.26,1.46,1.47-.17,1.83,2.03,2.38,2.24.56.17,2.03,2.21,3.69,2.39,1.67.19,1.47,2.57,2.2,2.21.74-.37.39,1.11.57,2.03.18.91.75,2.21,1.84,2.56,1.12.4,2.58,2.78,2.58,4.26,0,0-.73.75-.92,1.66-.18.92-1.46,2.23-1.46,2.23,0,0-3.89,1.84-4.63,1.27-.72-.54-1.64,2.03-1.64,2.03l.17,1.86-1.66,1.83-1.28,1.48s-3.52-.56-3.89-1.3c-.38-.73-1.27-1.64-1.27-1.64,0,0,.18-3.13.72-4.8.56-1.66-1.28-3.31-1.28-3.31l-3.87-1.3c-.64-.21-2.77.75-4.63.55-1.84-.17-2.03.91-2.03.91,0,0-3.69,2.04-4.23,2.77-.54.75-2.95,2.05-2.95,2.05l-4.24,2.21-5.36-1.66-5.34.57h-2.21l-4.19.82s-9.96,4.11-10.49,4.28c-.51.19-6.7,1.21-7.74.71-1.01-.52-4.47.17-5.83-.52-1.38-.67,1.9-1.03,2.58-1.21.68-.17,2.58-1.9,2.91-3.61.35-1.71-.15-3.6-.15-3.6l4.65-4.65c0-.85-7.23.5-7.23.5,0,0-2.92,1.71-3.46,1.91-.5.17-3.93,1.88-4.64,1.88s-1.7,3.26-1.7,3.26c0,0-2.75,3.45-3.96,3.96-1.2.53-.69-2.06-1.2-2.73-.52-.7-2.59,0-2.92-1.23-.36-1.2-2.42.7-2.42.7,0,0-4.12,1.89-4.81,2.08-.7.16-4.65,0-4.65,0,0,0-3.26,1.18-3.78,1.71-.51.5-3.8,2.92-4.47,3.61-.69.69-6.55,3.95-7.06,3.95s2.07.51,2.07.51c0,0-12.39,4.14-15.49,4.65-3.09.51-2.76,1.56-3.26,2.23-.51.7-.86,6.2-1.03,5.84-.18-.33-2.23,1.55-2.94,2.41-.68.87-1.69,1.36-1.69,1.36l-11.72,2.79s-3.6.66-4.3.15c-.69-.51-3.79-4.48-3.95-6.02-.18-1.56-1.04-.52-3.44-.86-2.42-.35-2.93-1.72-3.63-2.42-.66-.68.86-1.53,1.21-3.09.35-1.55,1.56-1.22,2.07-2.24.5-1.04,1.54-1.2,3.27-2.42,1.73-1.18,3.1,0,3.1,0l5.52-.67s3.43-.17,4.28-.87c.86-.69-1.03-.35-.85-2.4.15-2.07-5.51-5.86-5.86-6.86-.34-1.06-3.95-2.27-4.46-2.93-.52-.7-2.77,0-4.13-.7-1.37-.68-3.79.52-4.66,0-.86-.52-3.6-.17-5.68-.34-2.05-.16-3.77.17-5.16.69-1.38.51-6.18-1.03-6.18-1.03,0,0,.7,2.4,2.25,2.22,1.54-.17,2.75,1.21,3.26,1.21s2.06,2.24,2.57,3.08c.51.88.35,1.59.18,2.06-.18.55,0,1.75.17,2.6.16.85,0,1.71.35,2.24.34.52-.52,2.06-.35,3.26.16,1.2-1.86,4.31-2.92,5.68-1.04,1.37-1.55,3.08-1.37,3.61.15.5,1.9.88,3.27,1.2,1.37.34,1.72.69,2.4,1.37.68.68,1.21,2.59,1.38,3.62.16,1.03-.88,3.61-1.38,5.16-.51,1.56-.51,1.21-1.02,2.05-.52.86-.35,2.93-.85,4.65-.52,1.72-.7,4.83-1.05,3.45-.33-1.38-.84-.52-1.72-1.2-.86-.69-1.36-1.57-1.87-2.95-.51-1.37-2.25-.67-2.76-1.7-.52-1.03-2.76-.53-4.14-1.03-1.37-.54-3.96-.7-5.16-1.4-1.19-.67-3.94.17-3.94.17,0,0-6.89,6.72-8.27,7.39-1.38.71-2.57,1.2-5.14,2.08-2.59.86-2.76,1.71-3.28,2.05-.52.35-4.66,2.93-5.16,3.1-.5.18-4.81,2.77-4.29,6.88.51,4.13,2.57,2.08,3.79,2.76,1.19.7,4.11,7.39,4.11,7.39,0,0-1.71.7-5.16,1.03-3.43.35-2.74.52-4.47.18-1.71-.35-3.28.35-3.94-.35-.71-.67-3.79-1.03-4.65-1.2-.85-.16-4.29.85-4.82.52-.51-.35-3.44-.35-3.96-.87-.51-.51-3.95-4.12-4.48-5.15-.51-1.03-5.32-3.27-5.32-3.27,0,0-2.76,1.55-3.26,1.9-.51.35-2.91,2.92-3.45,3.26-.52.35,0,2.06.69,2.75.71.7,1.36,2.58,1.71,3.62.36,1.02,2.23,3.1,2.93,3.97.71.86,3.95,1,4.98.86,1.04-.2,4.82,2.05,5.17,2.58.34.5-.5,1.21-1.21,1.71-.7.51-2.07,1.87-3.08,2.57-1.04.68-2.07.36-3.11.36s-2.93.67-4.64,0c-1.72-.7-2.24-1.38-2.41-2.06-.18-.7-3.61-1.22-4.47-2.08-.86-.87-2.07-1.72-4.3-2.93-2.24-1.2-1.18-.14-3.1-.67-1.9-.52-4.47-.69-5.51-.86-1.02-.17-1.71-.69-1.54-2.06.17-1.38,1.03-1.74,1.03-2.41s-.71-3.42-1.36-4.65c-.71-1.2-1.92-3.27-2.61-4.12-.67-.86-1.03-3.28.18-5.33,0,0,1.88-2.76,2.23-4.12.36-1.38.53-2.42.36-4.13-.15-1.72-1.36-1.37-3.62-2.25-2.24-.84-.85-.49-2.05-1.36-1.21-.85-2.08-.52-4.31-1.56-2.23-1.01-2.05-.34-3.1-2.04-1.01-1.74-1.36-2.06-2.39-3.11-1.03-1.04-1.21-1.2-1.73-2.06-.5-.87-1.55-.52-2.91-1.04-1.38-.53-2.59-2.4-3.1-2.94-.5-.5-2.05-3.76-2.05-3.76l-3.1-2.08s.86,0,3.1-.17c2.24-.17,1.2.69,2.39,1.04,1.21.35,1.06,1.71,2.42,2.58,1.39.86,1.21,1.01,3.11,2.58,1.88,1.56,2.56.85,4.12,1.2,1.56.36,2.07.36,2.74.69.69.33,2.41.52,3.44.85,1.04.35,3.8,1.04,5.16,1.04s3.61,2.39,4.98,3.29c1.39.82,3.28.32,6.36,1.67,3.11,1.39,7.07.21,7.58.36.51.16,4.48.16,6.88,1.22,2.42,1.03,4.14,1.03,6.03,1.71,1.88.7,11.86.85,12.72.17.87-.7,3.28-.35,6.54-1.21,3.26-.86,3.09-.67,3.09-.67l1.9-.35s3.96-1.74,5.5-2.41c1.57-.68,3.97-2.25,5.67-4.48,1.73-2.24,2.08-2.41,3.45-3.96,1.37-1.53,1.72-2.58,1.72-4.11s-.36-2.24-.86-3.79c-.51-1.56-1.55-1.9-1.9-3.78-.36-1.9-1.19-1.56-2.58-3.11-1.37-1.54-2.76-1.54-4.47-4.13-1.72-2.57-2.91-1.71-4.14-3.45-1.19-1.69-1.55-1-3.26-1.35-1.72-.34-2.76-.51-3.95-.7-1.21-.15-3.97-1.71-4.47-1.88-.52-.19-4.98-3.1-7.4-5.5-2.4-2.42-4.3-.35-5.16-1.72-.86-1.37-2.25-1.72-3.26-3.44-1.04-1.74-4.82-.85-5.68-1.56-.86-.69-2.4-1.55-3.28-1.72-.84-.15-3.94-.86-4.47-1.38-.51-.5-1.88-1.71-2.23-2.74-.33-1.04-2.91-1.04-3.6-1.37-.67-.36-3.8.5-4.3.68-.51.17-6.22.53-6.72-.35-.51-.85-1.72-.85-2.05-1.54-.36-.7-3.46-1.21-3.46-1.21l-2.23.35s-2.22,1.36-2.75,1.22c-.51-.19-2.75.67-3.11,0-.33-.73-.51-2.41-.67-2.93-.18-.52-2.92,1.71-3.44,1.56-.52-.2-2.59.32-3.28-.71-.69-1.02-3.27-.69-3.94-2.41-.7-1.72,1.37-1.37,1.88-1.37s4.65-1.03,3.96-2.05c-.67-1.02-1.21-1.89-1.53-2.42-.36-.51-7.58-1.05-7.58-1.05,0,0-2.07,1.74-2.25.86-.16-.86-3.09-.51-3.09-.51l-2.41,2.58s-1.67.56-2.6.59c-.21.02-.41,0-.48-.05-.55-.36-4.49-1.02-4.49-1.02,0,0-1.55,1.02-4.3,1.52-2.76.53-2.43-.85-2.43-.85,0,0-3.07-.85-3.59-1.2-.52-.33-4.47-3.44-4.47-3.44-.18-.7,1.9-1.37,2.58-1.9.68-.51,2.24,1.37,3.44,1.55,1.19.17,3.11-1.03,6.19-3.44,3.09-2.41,2.76-1.56,4.83-3.1,2.05-1.56.17-1.71.17-1.71,0,0,0-3.46-.35-4.66-.36-1.2-4.83-.16-5.33-1.37-.53-1.21-4.32-1.21-5.33-2.42-1.04-1.21-3.79.53-4.65,0-.86-.49-5.33-.67-5.83-1.03-.53-.33-2.07.71-2.4.71-.35,0-3.63,7.03-4.14,7.89-.5.88-1.71.53-1.71.53,0,0-1.21-2.93-1.21-4.31s.52-2.24,1.21-3.26c.68-1.02,2.05-1.37,3.1-1.89,1.04-.51.84-.87.18-2.43-.71-1.54-1.92-1.03-3.64-1.71-1.71-.69-4.62.51-5.84,1.03-1.21.54-2.75.68-2.75,2.76,0,.73-1.22,5.67-1.22,5.67,0,0-2.4,2.23-2.92,2.08-.51-.19-2.74,1.36-3.6.84-.85-.51-.7-1.03-.18-1.89.53-.85.33-6.35-.52-6.86-.86-.53-1.72,1.2-2.22,2.22-.51,1.04-2.59,3.44-2.93,4.49-.35,1.01-4.47,4.45-5.31,4.62-.88.16-3.79,2.41-6.21,1.21-.62-.32-.51-.69,1.03-2.92,1.55-2.24,3.46-4.99,5.85-6.54,2.42-1.53,2.92-5.67,2.92-5.67,0,0-3.43,2.41-5.5,2.06-2.04-.33-4.97.88-4.97.88,0,0-1.03,2.05-.86,3.23.17,1.22-3.61,2.78-4.47,3.28-.86.52-2.59.68-3.44.52-.87-.17-1.73,2.05-2.23,2.94-.54.85-4.32,1.53-4.32,1.53,0,0-2.76,1.38-3.42,1.71-.71.35-1.23,1.04-1.74.87-.54-.16-3.97,1.91-5.33,1.55-1.38-.35-3.11-1.37-3.79-2.23-.68-.87-3.26.17-3.94-.19-.69-.33,0,0,.35,1.39.33,1.38,1.19,2.06,1.37,2.22.17.18-2.59,2.23-3.45,2.23s-2.42.36-2.57-.5c-.17-.87-3.44-.87-4.32-.7-.86.17,0,1.38-.17,2.58-.16,1.22-8.42,4.64-8.42,4.64,0,0-2.4,1.05-4.63,1.05-.56,0-1.74-1.38-1.92-2.58-.16-1.21-2.92-2.05-3.08-2.6-.18-.51-2.75,1.22-3.28,1.73-.51.51-.51,2.07-.51,2.07,0,0,.17,3.79.17,3.61s-3.26,1.89-3.97,1.89-2.73,1.03-3.26.86c-.52-.17-2.24-.52-2.24-2.75s-3.09-2.41-3.44-3.46c-.33-1.03-4.3,3.11-4.65,4.31-.33,1.2.86,3.79,1.71,4.48.88.69,1.57,2.06.88,2.24-.68.16-2.4,1.01-2.75.5-.35-.5-4.47-1.03-4.47-.35,0,.61.87,1.68,1.11,1.76-.15.3-.59,1.5-.59,1.5l-1.92,2.08s-2.92,1.03-3.26.16c-.33-.86-1.36-2.06-1.54-2.91-.17-.87-2.07,1.38-3.28,2.05-1.19.7-2.05,0-1.54-1.38.52-1.37.86-6.01-.34-6.01s-3.61,2.41-3.96,3.27c-.34.87-1.55,3.78-1.9,4.66-.35.85-3.09,3.42-4.15,4.28-1.02.85-2.38,4.63-2.38,4.63,1.01-.85,1.7-1.03,3.44-1.35,1.71-.36,1.01,1.7,2.22,1.35,1.21-.32,1.9.53,3.61-1.03,1.72-1.55,1.55,0,2.93-.85,1.37-.86,1.37.34,3.61.17,2.23-.17,1.02,1.88,1.55,3.27.52,1.4-1.75,3.28-1.75,3.28,0,0-2.55.66-2.55-.87s-1.39-1.88-2.07-2.24c-.69-.36-2.75,2.58-2.75,2.58,0,0-2.23.34-2.41-.68-.17-1.05-2.4,2.04-2.92,1.87-.53-.16-.53.73-.34,2.26.16,1.55-.87,1.9-1.21,1.9s-2.07,1.71-2.75,1.38c-.69-.35-2.41,1.89-2.41,3.79s.34,1.53.86,1.87c.51.36-2.93,3.79-3.78,3.97-.87.17-2.76,2.74-3.44,3.42-.69.71-.69,1.91-.69,1.91,0,0-8.44,7.75-8.11,9.97.36,2.23.2,2.23.86,2.41.71.17-2.22,1.56-4.12,1.37-1.86-.17-2.55-.17-3.78-.17s-1.69,2.08-2.05,3.97c-.16.85,4.29,1.04,3.28,1.73-1.03.67-1.38,1.02-2.07,1.71-.7.68-1.21,1.35-1.21,2.4s-.18,3.11-.18,3.11l-1.04,2.77-2.58,1.53s-1.72.7-2.42.34c-.67-.34-.32,1.72-.32,1.72,0,0-1.06,3.1-1.21,4.15-.2,1-1.39,2.21-1.39,2.21,0,0-1.37,1.54-1.9,1.9-.5.34-2.4,1.37-2.92.49-.52-.85-1.53-.15-2.06-.33-.51-.17-2.25,1.89-2.25,1.89,0,0-1.71,2.58-1.86,3.12-.19.51-3.97,3.24-4.66,3.44-.69.15-2.92,1.71-3.44,1.71s-1.71,2.93-1.9,4.13c-.16,1.18-2.05,3.26-2.05,3.26l-3.09,2.75s-2.42,1.38-2.6.69c-.15-.69.54-2.06,1.21-3.44.68-1.37-1.87-.33-2.57-1.2-.69-.88-1.9,1.03-2.58,2.23-.71,1.21-.35,2.92-1.03,4.32-.69,1.37-1.36,2.22-1.72,3.25-.33,1.03-4.97.52-6.18.67-1.21.17-3.09.36-3.97.17-.87-.17-2.05.85-2.56,1.91-.53,1.01-.53,2.58-.53,2.58,0,0-1.36,1.72-1.89,1.88-.51.19-2.76.19-3.62-.33-.86-.51-1.54.67-1.9,1.2-.35.51-.5,1.54-.5,1.54l-3.62,2.92s-3.79,2.24-5.17,3.11c-1.37.85-3.08,1.71-3.59,1.88-.53.17-1.57,2.24-1.72,3.11-.17.85-1.04,2.57-1.21,3.59-.17,1.05-1.04,4.31-.53,5.18.53.85,1.74,2.06,2.42,1.87.69-.15.51,2.06.51,2.76s-.86,2.4-1.54,3.78c-.69,1.37-1.39,4.82-2.07,6.36-.69,1.57,1.21,3.62,2.07,3.95.86.37,4.47.52,4.47.52,0,0,2.08,1.74,2.4,3.1.58,2.32-1.04,1.21-2.25,3.97-1.19,2.75-1.01,3.44-2.22,4.97-1.19,1.55-1.39,3.79-.33,4.15,1.02.34.84.5,1.71-.2.84-.67,1.87-.67,3.6-1.89,1.73-1.2,2.59-.14,3.1.53.51.68-.33,2.75-.86,3.61-.5.85-2.75,2.94-4.11,4.29-1.37,1.37-.54,1.73-.54,3.81s2.24,2.41,4.14,2.74c1.88.33,2.4,1.22,3.44,2.24,1.04,1.03,2.4,1.2,5.16,2.41,2.76,1.18,5.16,1.74,7.91,2.05,2.76.35,10.66-3.95,10.66-3.95,0,0,2.75-2.06,3.26-2.59.53-.49,1.56-1.35,4.32-3.08,2.74-1.73,2.22-1.2,3.26-2.4,1.04-1.22,1.71-1.05,3.11-1.56,1.36-.49,2.57-1.37,4.62-1.87,2.07-.53,2.93-3.47,2.75-4.34-.18-.86,1.39-8.24,2.57-8.04,1.21.12-.15,2.55-.34,4.27-.16,1.74.69,1.88,1.38,3.28.67,1.36,2.42,1.19,3.78,1.71,1.36.51,1.36,1.37,2.05,3.44.12.3.17.57.19.83.15,1.28-.76,1.47-1.04,2.79-.34,1.55.35,2.4.52,4.31.17,1.87,2.07,1.72,3.26,2.37,1.21.7,2.92,1.57,3.28,2.43.35.85-.52,4.13.51,6.53,1.04,2.39.7,4.99,1.21,7.05.51,2.07,2.23,2.25,4.31,3.44,2.04,1.22,2.04,3.45,3.07,5.16,1.05,1.72,2.07,1.72,2.07,3.1s-.17,1.71-.5,3.09c-.36,1.39-2.07,2.75-2.78,3.63-.66.85.35,2.4.88,3.42.52,1.04,1.9,2.06,2.22,2.75.35.7,1.04,1.9,1.04,2.42s1.72,3.26,2.24,3.95c.51.68,4.47-1.02,4.47-1.02h6.52c.5,0,2.24-.87,2.57-3.28.36-2.4-.51-3.1-.51-4.13s3.79-.49,4.82-2.4c1.05-1.88,1.71-.17,2.57-.71.85-.51,2.24.17,3.11,0,.86-.15,3.96.71,4.47.53.5-.17,2.4.17,2.92-1.38.51-1.55,1.37-1.55,1.72-3.09.35-1.55,2.92-1.91,2.92-1.91-.19.52.34,4.84.34,4.84,0,0,2.25-2.4,2.76-5,.5-2.57,1.54-2.23,1.89-3.44.33-1.21,1.39-8.26,1.39-8.26-.53.18-.53.87-1.22,1.57-.7.67-1.38,2.58-1.89,2.91-.51.34-1.9,1.74-1.9,1.74,0-.87,0,0,.32-1.4.37-1.38.37-1.03.71-2.05.35-1.04.52-.7.52-1.9s0-2.05.34-3.11c.33-1.03.33-1.53.33-2.06s.18-2.08.36-2.91c.17-.87.51-1.38.51-2.93s-.15-3.07-.34-6.02c-.17-2.92.34-.69,1.04-2.74.69-2.05,1.22-1.89,1.9-3.26.69-1.41,2.07-.54,2.07-.54,0,0,1.87-.5,3.26-1.19,1.36-.69,3.24-.35,3.24-.35,0,0,1.41-1.37,1.91-1.9.51-.5.86-.34,1.9-.69,1.01-.34,2.41-1.02,2.91-1.72.52-.69,2.42-2.05,2.59-2.57.19-.51.85-1.37.51-2.42-.32-1.03-.51-.85-.69-1.54-.19-.68.51-1.04.69-2.06.18-1.02,1.73-.86,2.93-2.23,1.19-1.34.68-.85.84-2.76.17-1.87,0,0-1.2-2.73-.31-.73-1.04-1.74-1.54-2.75-.5-1.05-1.72-.18-2.57-.68-.86-.52-1.04-1.04-5-4.48-3.96-3.47-2.4-.36-3.59-1.72-1.21-1.38-1.92-.52-3.28-1.21-1.38-.7-1.72-.33-2.24-.7-.5-.33,0,0,.51-2.39.51-2.42.17-2.58-.18-4.8-.34-2.26-1.01-3.29-.84-4.85.15-1.54.5-1.72.67-2.57.17-.86,1.38,0,2.07-1.2.68-1.2,0-1.38-.36-3.11-.34-1.71-.16-.85.53-2.04.69-1.2.86-.54,1.54-2.43.69-1.88,0,0-.5-3.09-.14-.85-1.56-.51-1.21-2.41.35-1.9.68-.88,1.71-1.05,1.04-.16,1.88.88,2.76.33.86-.48,1.72-1.01,2.07-2.21.33-1.2-.69-1.71-.54-2.23.18-.51,0-1.91-.68-3.61-.69-1.74,1.21.17,1.89.17s1.72.85,2.59.5c.86-.33,3.09-2.92,3.94-3.95.86-1.03,3.44-1.03,4.83-1.88,1.39-.88,2.59-1.73,5.33-3.28,2.75-1.55,2.4-.69,3.61-1.71,1.19-1.04,1.55-1.38,2.57-2.05,1.04-.7,2.4.33,3.79-.7,1.38-1.06,1.38-.86,2.4-2.06,1.03-1.21,1.72-1.91,3.43-3.6,1.72-1.74,2.25-2.08,3.62-3.45,1.38-1.4.35-1.04.85-1.89.53-.87,1.21-1.74,1.38-3.11.19-1.38-1.02-.35-2.23-2.24-1.2-1.9-1.71-1.72-1.55-3.45.18-1.71.86-1.37,2.4-3.6,1.57-2.24.88-.86,1.9-2.92,1.03-2.06,1.56-2.06,2.59-2.58,1.04-.54,1.36-.35,2.91-1.72,1.55-1.37,2.07-1.37,2.93-2.4.85-1.04.85-1.72,2.23-2.92,1.38-1.22,1.38-.19,2.24-.7.85-.53,2.23.51,3.09.36.87-.19,1.56.5,2.75,0,1.21-.53.86.34,2.07,0,1.19-.36.86,1.19,2.93.67,2.05-.51,1.71,2.59,2.75,2.06.58-.3.9-.54,1.42-.91.38-.28.86-.63,1.66-1.15,1.9-1.2,2.4.87,3.78,1.2,1.37.36,2.56,1.04,4.13,1.91,1.56.85.36,2.93,1.03,3.42.69.51,1.55,4.13,1.72,3.79.18-.35-.34,4.99-.17,5.49.17.51-3.26-1.71-3.26-1.71,0,0-2.58,1.21-2.4.52.16-.72-1.04,3.78-1.21,4.29-.18.5-2.58,1.72-4.31,2.74-1.71,1.05-1.36,1.57-1.89,2.24-.51.71-2.07,2.94-2.07,2.94,0,0-3.61,2.92-4.12,3.42-.52.53-1.21,1.04-3.09,2.77-1.92,1.72-3.28,1.53-3.28,1.53,0,0-4.11,1.75-4.11,2.76s-.18,1.9-.18,2.76-2.77,2.07-3.96,2.57c-1.19.54-4.3,1.22-5.33.88-1.02-.34-1.55,1.03-2.05,1.88-.53.86-1.9,2.76-3.26,4.14-1.39,1.36-.88,1.72-1.21,2.58-.35.85-1.39,3.08-1.06,5.16.35,2.06,1.56,4.46,2.07,5.15.52.69,2.75,4.81,4.13,5,1.38.16,1.05,4.81,1.05,4.81,0,0-4.48,11.33-2.43,14.78,2.07,3.43,1.21,1.21,1.9,2.23.69,1.03,2.74,1.38,3.79,1.9,1.02.51,3.58.33,4.97.33s2.25,1.24,3.97,1.56c1.71.33,1.54,1.72,2.74,3.94,1.19,2.24,2.07.88,2.76,1.89.67,1.05,5.66,1.9,7.04.88,1.38-1.03,2.25-.71,3.44-1.39,1.2-.69.69.36,2.05-1.04,1.38-1.37,1.03-.51,2.25-.67,1.21-.18,2.4.16,4.65-1.38,2.23-1.55,2.23-2.05,3.1-2.74.86-.71,2.38,0,4.47-.18,2.05-.17,2.24.36,3.09-.33.86-.69,1.72-.54,5.49-2.42,3.79-1.89,2.42.51,3.47.51s3.09.88,6.69,1.37c0,0,2.06-.49,4.65-1.88,1.25-.64,1.55-.8,1.87-.82.29-.04.58.07,1.92-.22,2.58-.5,1.89.69,2.92,1.4,1.01.68.67,1.37,1.72,2.9,1.04,1.55,1.72,1.73,3.09,2.24,1.36.52,3.44.86,4.14.52.69-.36,3.77.16,4.81-.36,1.03-.51,3.44,2.41,2.75,2.25-.68-.2-2.91.85-4.12.67-1.21-.17-2.57.85-3.43.17-.85-.69-2.25.68-2.93.36-.71-.36-4.14,2.05-4.83,1.87-.69-.18-2.92,1.72-3.43,1.55-.51-.2-2.92,2.57-2.92,2.57,0,0-.07.05-.13.1-.49.4-2.18,1.74-2.64,1.46-.51-.36-2.74,1.01-3.26,0-.51-1.05-3.27.85-3.95-.71-.71-1.54-3.79-.34-4.47-1.03-.71-.67-2.76.69-4.3-.34-1.56-1.03-2.42-.33-2.93-.68-.52-.35-3.63.68-4.29.35-.71-.35-1.72,1.03-2.26,1.2-.5.16-2.06.84-2.75,0-.69-.87-6.19,1.55-6.19,1.55,0,0-4.65.67-6.01.5-1.39-.17-1.55,1.56-2.76,3.27-1.21,1.72-2.92,1.55-4.99,3.27-2.05,1.71.52,2.58.86,3.78.35,1.2.35,2.39,1.39,3.96,1.03,1.54.33,1.38,1.9,3.61,1.54,2.24,2.73,2.24,3.61,1.71.86-.51,1.54-.34,2.91,4.48.17.55.27.98.35,1.38.55,3.03-1.21,1.7-1.37,2.92-.17,1.36.16,4.62.16,4.62l-2.93,3.45s-2.57,2.05-2.91,1.38c-.33-.69-6.36-1.55-6.36-2.92s-2.76-.68-2.91-2.76c-.19-2.06-.86-.86-1.57-1.2-.67-.34-3.44,0-3.78-1.55-.33-1.54-2.07-1.02-2.74-1.54-.69-.55-1.71.51-2.57.85-.89.33-3.28,2.4-4.14,3.26-.86.87-1.04,2.07-2.07,2.59-1.02.51.18,2.57-.87,3.44-1,.85-.5,1.56-1.19,1.56s-1.03,1.03-2.4,2.07c-1.39,1-.35,2.57,1.01,4.11,1.39,1.54-.85,1.37-1.36,1.37s-.53,2.25-.53,2.25l1.72,1.54s0,1.95-.12,2.45c0,.07,0,.12-.05.14-.15.17-1.55,3.78-2.05,4.31-.52.5,1.39,1.37,2.05,3.1.35.83.35,1.96.05,2.88-.33.97-.96,1.74-1.93,1.74-1.9,0-1.36,2.07-1.9,4.31-.52,2.24-2.06,3.6-3.78,3.1-1.72-.51-1.54.69-3.77.18-2.26-.53-3.09,3.08-4.65,4.64-.43.43-1.02.8-1.68,1.1-1.67.79-3.91,1.08-5.9.45-2.75-.87-3.59-.87-3.59-.87l-2.07-4.29s-3.61-1.72-4.14-2.07c-.51-.34-3.26.86-5.33,1.04-2.05.18-3.61.85-3.61.85,0,0-4.8,1.74-7.06,2.59-2.23.85-6.35,3.95-7.75,4.12-1.36.17-2.57.51-2.57.51,0,0-2.74-.17-4.8.51-2.07.71-1.72.86-3.26,1.91-1.57,1.04-3.62,2.21-5.51,2.57-.55.1-.9.22-1.16.33-.62.22-.67.22-1.24-1.01-.86-1.73-2.76-1.55-3.62-1.88-.88-.35-9.12-5.86-10.33-7.06-1.19-1.21-2.91,1.02-3.95.67-1.04-.34-1.9.86-3.97,2.08-2.05,1.2-3.44,2.56-5.51,3.62-2.04,1.03-2.22,1.54-3.79,1.54s-2.22.18-2.74-.51c-.52-.69,1.2-2.93,1.36-3.79.19-.85-.85-.85-2.4-.51-1.56.33-2.25.86-5.51-1.21-.64-.42-4.47-2.24-4.11-3.61.33-1.38.51-1.38.68-2.24.18-.85-.68-2.05-2.75-2.75-2.05-.67-1.9-.33-2.92-1.21-1.05-.85-.88-2.92-.71-4.46.17-1.55,1.9-2.41,2.93-3.61,1.01-1.21,2.57-.35,2.4-1.21-.18-.86-.35-2.22.17-3.45.51-1.2,3.79-1.37,4.3-1.71.51-.34,4.12-1.55,5.01-1.55s1.19-2.22.86-3.1c-.36-.85-2.07-1.35-3.1-2.05-1.04-.69-2.94-.51-3.79-1.04-.86-.51-.33-3.42-.18-4.8.18-1.4,2.43-1.91,3.79-3.26,1.37-1.41-.69-4.34-.69-5.02s.54-3.08.86-4.13c.33-1.04-1.19-2.74-1.39-3.44-.15-.68-4.12,2.08-5.31,2.93-1.22.86-3.11,3.44-3.28,4.29-.15.88-3.08,2.26-4.48,2.75-1.36.53-3.6.69-4.62.36-1.05-.36-2.59,1.37-3.13,1.2-.5-.17-2.55,1.72-3.41,2.06-.85.35-2.06,2.77-2.74,3.26-.69.52-.86,3.79-1.04,5.16-.17,1.39.51,3.97.51,3.97,0,0-.34,6.36.16,10.14.09.6,2.07.51,3.11.68,1.04.17,2.76,2.05,3.62,2.75.84.67-.86.67-3.45,2.76-2.59,2.06.17,1.71.34,3.26.17,1.54.52,2.05,1.04,2.05s.5,2.58.86,3.11c.35.51,2.05.85,2.05.85l1.38,3.61s.18,3.63,0,4.13c-.15.49-1.55.86-2.43.86-.83,0-1.36.85-1.69,3.95-.34,3.11-1.72,2.08-2.25,1.37-.51-.69-4.8-1.55-5.66-2.58-.86-1.03-3.44.17-4.66,0-1.21-.16-2.92,1.38-2.92,1.38,0,0-.88.76-1.64,1.25-.39.26-.77.46-.94.46-.51,0-4.3,1.4-4.98.69-.69-.69-3.11.36-5-.14-1.89-.54-3.09,1.36-3.09,1.36,0,0-3.61,2.07-4.11,2.75-.53.7-1.21,2.06-1.57,3.78-.35,1.72-3.44,3.78-3.44,3.78,0,0-2.4,2.58-2.75,3.44-.36.85-1.21,2.76-1.38,3.28-.17.51-1.89,3.08-1.89,2.74s-3.79,4.31-4.3,4.65c-.52.33-2.92,1.71-5,2.41l-2.93,2.22s-3.76,2.58-4.13,3.12c-.22.33-1.64,1.17-2.98,1.54-.63.18-1.21.27-1.66.18-1.36-.36-1.54.85-2.05.33-.53-.51-3.63,2.59-5,3.62-1.36,1.02-.69,2.91-1.01,3.61-.35.7.86,4.98.86,4.98,0,0-3.79,2.61-5,3.28-1.21.69-2.93,1.36-4.3,1.55-1.36.16-3.61,1.01-3.61,1.01,0,0-1.38.86-1.2,2.26.17,1.38-.35,1.88-.52,3.43-.17,1.54-3.44,1.37-3.97.86-.5-.52-5.66.85-6.71.34-1.02-.51-3.1-.34-3.77-1.56-.69-1.2-3.61-1.88-4.98-2.41-1.38-.5-5.15-1.03-6.72-.87-1.54.2-.33,1.4.51,2.25.87.85.87,1.9,1.4,2.92.51,1.04.84,3.97,2.38,4.29,1.55.34.86,2.93,1.39,5.02.53,2.05-1.39.49-2.75,0-1.37-.54-2.25.49-3.95-.54-1.72-1.03-3.45.54-5.5.18-2.07-.35-2.24-.52-3.28-1.9-1.02-1.4-2.23-.17-3.09-.51-.86-.34-1.05-.88-2.24-.52-1.19.35-2.04,1.21-2.75,1.56-.68.34-1.9-.86-3.94,0-2.07.85-2.25-.19-2.94,0-.67.17-3.78,2.91-4.97,4.13-1.21,1.2,1.54,3.42,1.36,5.16-.17,1.7,1.04,2.55,1.9,3.41.86.87,3.44,1.06,5.68.7,2.23-.33,1.7.7,2.23.52.51-.17,1.9,1.21,2.6,2.06.66.85,2.03,2.58,4.29,1.89,2.24-.69,2.24,1.22,3.25,1.22,1.06,0,1.41.68,2.93.68s1.21,1.9,2.07,2.05c.86.18,1.72,1.41,1.9,2.26.17.85-.54,1.71-.54,2.38,0,.71,1.57,2.08,2.76,3.82,1.23,1.7,1.73,2.22,2.75,2.92,1.03.67,1.57,2.39,3.63,2.76,2.05.33,1.37,1.71,1.53,2.56.18.85.86,3.25,1.04,3.95.17.71-.33,3.1-.33,3.1l-1.04,3.62s1.04,5.67.85,7.23c-.17,1.54-1.71,10.66-2.22,12.54-.53,1.91-1.06,1.38-3.11,3.45-.14.14-.23.23-.35.35-1.6,1.59-1.02,1-3.26.69-2.4-.36-1.89.51-3.26.19-1.38-.35-2.57-.35-3.94-.54-1.41-.16-2.09.2-3.13-.5-1.02-.7-3.26.86-5.31.7-2.07-.2-2.42-.87-5.16-1.56-2.77-.7-2.26,0-2.26,0,0,0-2.9.86-4.63,1.2-1.72.35-3.26.51-3.26.51,0,0-3.79-.69-5.33-1.22-1.54-.5-3.61.36-3.8-.34-.16-.69-3.26-.86-3.61-1.37-.35-.52-6.7.85-7.22.85s-1.04.51-3.44.7c-2.4.16-2.06.69-2.92-.18-.87-.86-1.36-.51-2.41-1.54-1.02-1.03-2.23-1.53-3.78-1.7-1.54-.2-2.57,1.18-3.26,1.87-.69.68-1.36,2.76-2.24,3.61-.87.86-3.09.86-3.78.52-.68-.35-2.92,1.03-4.64,1.35-1.72.36-2.23,2.24-2.58,3.29-.35,1.03.86,1.7,1.54,2.05.69.35.86.86,1.9,3.11,1.04,2.23.86,1.55,1.04,2.4.14.76.04,2.12-.22,3.71-.05.24-.07.49-.13.76-.33,1.9,0,2.58.35,4.31.33,1.71,1.04,2.58,1.37,3.11.35.49.52,3.59.52,4.64s.33,3.6.5,4.46c.19.87-4.47,12.55-4.82,14.96-.33,2.4-1.01,1.9-2.75,4.31-1.73,2.41-1.03,2.07-1.03,3.61s.36,1.54.86,2.06c.51.51.17,2.93.33,4.12.18,1.2,1.72.7,3.97,1.06,0,0,.86,2.21,1.37,2.9.51.69.71,2.41.87,3.62.17,1.2-.67,4.12-1.55,5.15-.86,1.04-.69,3.79-1.19,5.15-.54,1.4,1.19,1.57,1.19,1.57,0,0,1.72-.35,2.94-1.04,1.19-.69,2.21-.34,3.26,0,1.03.34,3.79,1.38,3.79,1.38,0,0,1.21.34,3.09.16,1.89-.16,1.21-.16,2.25-1.36.52-.64,1.17-.64,1.86-.58.63.01,1.27.13,1.91-.13,1.39-.5,1.9.35,2.6.71.68.35,3.96,1.36,4.97,1.88,1.04.51.71,3.79,1.04,4.29.33.53,3.97,4.49,4.13,5.18.17.7,3.96,1.9,4.49,2.07.51.17,2.4-1.37,3.43-2.43,1.02-1.02,2.05-2.56,2.57-2.56s4.81-.87,6.53-2.42c.46-.41,1.71-.5,2.75-.17,1.04.35,2.25.17,3.26,0,1.03-.16,3.79-.87,4.83-.87s2.58,1.21,2.58,1.21c0,0,2.24-.67,2.75-1.21.51-.49,4.82.54,4.82.54l2.22-1.21,2.58-1.37s3.26-3.28,3.97-4.32c.68-1.02,2.75-2.22,2.75-2.22,0,0,4.65-1.35,5.15-2.58.54-1.21,1.04-.69,1.54-1.71.52-1.05,1.73-1.37,2.59-2.78.86-1.34,1.21-1.87,2.07-3.4.86-1.56,1.54-1.22,2.22-1.74.71-.52,3.63-1.7,3.97-2.24.35-.51,1.03-1.19.5-2.91-.5-1.72-1.9-1.72-2.91-2.59-1.06-.86-1.56-1.51-1.9-3.77-.35-2.24.53-2.59.53-4.12s1.02-1.74,1.52-3.11c.53-1.38,3.62-7.57,3.46-8.08-.18-.53,1.72-2.06,1.72-2.6,0-.49,3.44-2.24,3.97-2.73.5-.53,3.41-1.38,3.41-1.38,0,0,3.28-2.25,3.97-2.75.68-.53,3.08-.35,4.12-.88,1.03-.49,3.96-1.17,3.96-1.17,0,0,2.4-1.72,4.98-4.66,2.57-2.91,2.92.17,3.96-.7,1.01-.83,1.9-1.53,2.91-3.26,1.04-1.71.54-1.55.17-2.58-.22-.63-.74-2.04-1.28-3.59-.34-.97-.67-2-.94-2.95-.7-2.4,0-1.88.69-3.42.67-1.57,3.78-4.3,4.3-5.17.52-.86,4.12-1.91,5.85-2.58,1.72-.69,2.58.87,3.95.87s3.96.16,6.03.35c2.05.18,2.38,2.05,3.08,2.74.71.7,3.26.51,4.13.51s6.03,1.72,7.04,1.57c1.04-.2,5-3.28,7.75-6.03,2.76-2.74,2.4-.34,2.91-1.38.53-1.03,1.56-1.71,4.15-3.95.06-.03.09-.06.13-.11,2.42-2,2.11.8,2.95.29.85-.52.85,0,1.71-1.04.86-1.02,1.73-2.23,2.93-3.1,1.21-.86,2.07.7,3.78-.33,1.73-1.03,2.08.17,3.27-.18,1.21-.36,2.06,1.38,3.1,1.9,1.02.51,3.27-.52,4.12-.33.86.16,4.65,1.53,5.51,1.87.86.35,1.38,2.61,1.38,4.31s1.7,4.13,1.88,5.16c.17,1.03,2.07,3.79,2.76,4.49.68.67,2.07,2.73,4.47,4.63,2.4,1.87,1.89,1.37,2.4,1.53.52.17,2.75,2.76,4.32,3.96,1.54,1.2,4.95,4.13,6.01,4.31,1.03.17,1.37,3.6,1.37,3.6,0,0,5.7,2.76,7.73,2.41,2.07-.35,6.89,2.4,7.58,2.76.68.32,1.02,2.75,2.57,5.15,1.57,2.42,3.61.86,4.83.86s1.53.87,2.9,1.74c1.38.85,1.21,2.75,2.07,4.13.87,1.36,2.76,2.23,4.15,2.23s2.57.67,3.41.85c.88.18,2.09,3.79,2.6,4.65.51.86,1.55,4.13,2.22,5.34.69,1.2,1.21,4.11,1.21,4.11,0,0-5.14,10.34-5.14,10.84,0,.53,4.12-.67,4.12-.67,0,0,2.23-2.08,2.75-2.92.51-.86,2.93-3.09,3.61-4.32.69-1.2,2.59-3.6,3.62-4.98,1.01-1.36,1.21-.68,1.54-1.36.36-.69.86-1.37,1.21-3.45.34-2.06-1.9-.86-2.75-1.89-.86-1.04-2.58-1.21-3.28-1.9-.67-.69-.67-1.21-.34-2.58.34-1.35,1.04-1.89.86-3.11-.18-1.19,1.03-1.19,2.24-2.91,1.19-1.72,1.53.5,2.57,0,1.03-.51,3.26.18,3.26.18,0,0,2.05,1.72,3.97,2.92,1.87,1.2,3.09,2.05,3.95,2.56.86.53,1.89,1.38,2.75.53.84-.85.19-1.21.19-2.55s-1.05-1.56-1.57-2.43c-.5-.87-1.19-1.21-1.71-1.56-.51-.35-8.09-5.67-8.6-6.18-.51-.51-2.24-.87-2.93-1.56-.68-.67-3.09-1.2-5.5-2.9-2.4-1.74-4.63-1.74-5.83-2.41-1.2-.71-.34-2.26.17-3.28.51-1.04,1.21-1.37,1.36-2.07.17-.67-3.08-1.2-3.08-1.2,0,0-5.35.36-7.23-.68-1.87-1.05-2.92-.18-2.92-.18,0,0-1.72.35-2.23-.52-.54-.87-.71-.53-2.07-2.58-1.37-2.05-3.28-2.24-3.28-3.26s-4.28-6.72-4.45-8.42c-.18-1.74-.68-1.05-.86-2.76-.19-1.73-1.04-1.73-3.28-3.63-2.23-1.89-3.26-1.55-4.98-3.44-1.71-1.89-1.89-1.03-2.75-2.24-.86-1.19,0,0-1.04-1.19-1.03-1.21-2.57-2.77-3.43-3.44-.86-.71-1.37-2.06-1.19-3.11.16-1.04.86-1.55,1.19-2.06.33-.51.86-.51.86-1.55s-1.9-2.07-2.05-3.96c-.18-1.91,1.01-3.61,1.01-3.61,0,0,3.27-.17,3.79-.33.51-.2,1.03-.54,2.42-2.43,1.38-1.91,3.59-.86,4.81-1.53,1.19-.71,3.09.85,3.09.85,0,0-.34,1.74-.86,3.26-.16.47-.08.93.08,1.36.35.95,1.23,1.76,1.48,2.27.35.67,1.54,2.91,1.54,2.91,0,0,.69.67,1.05,1.21.35.5,1.54-.87,1.71-1.56.15-.69,2.4-1.2,4.64-2.05.97-.38,2.24,1.36,2.24,1.36l.52.53c.5.51-.17,2.75-.17,3.27s1.54.86,2.57,1.02c1.02.17,2.22,2.26,2.93,2.75.68.54.68,1.71.33,2.24-.33.53-.17,1.21.17,2.59.35,1.37.69,1.03,1.21,2.05.51,1.04,1.38,1.55,2.07,1.9.67.34,1.01.85,2.74,2.41,1.71,1.55,2.24,1.2,2.24,1.2,0,0,2.4.35,4.12,0,1.71-.35,2.07,1.03,2.75,1.36.49.27.65,1.3,1.47,2.5.31.48.71.99,1.29,1.47.7.57,1.54,1.38,2.22,1.18.7-.16,1.91,1.22,4.14,1.06,2.22-.17,1.71,1.37,2.22,1.53.51.17,2.93,1.9,2.93,1.9.43,0,2.81,2.45,3.97,3.42.22.16.41.32.5.36.69.35-.17-.5.86-.67,1.03-.17,2.05,1.89,4.12,3.61,2.07,1.71.68,1.2,1.39,2.24.69,1.01,1.19,1.55,1.19,1.55,0,0,1.34.47,2.89,3.22.11.23.26.46.39.72,1.73,3.45.69,1.58.69,2.43s0,1.72-.33,3.08c-.36,1.38-.86,3.28-1.04,4.14-.17.85,0,3.78,0,4.62v3.97s1.55,1.55,2.41,1.72c.86.18,2.05,2.24,2.05,2.24l-.34,2.92s-.35,1.54-.18,2.06c.18.53,2.07.7,2.07.7,0,0,1.37,0,1.9-.17.24-.1.58.24.98.6.45.43.95.93,1.42.93.86,0,3.44,3.45,3.44,3.45,0,0,.69,1.55,2.07,1.89,1.36.38,1.7,2.24,2.23,2.41.53.17,1.9,1.37,3.44,1.72,1.54.35,2.23,2.08,2.23,2.08,0,0,0,1.87-.69,2.9-.69,1.02-1.19,2.24-1.54,2.77-.34.52-1.04,2.4-1.2,3.25-.18.87,4.98,3.79,4.98,3.79v5.68c0,.51,1.72,1.71,2.25,1.71s1.88-.14,1.88-.14c0,0,1.06,1.19.85,1.69-.15.51,4.49,1.22,4.83.36.33-.86,1.54.86,2.42,1.2.84.33,2.91,1.53,3.76,1.2.86-.34,1.03-.52,1.72-2.07.71-1.55-.86-1.01-1.89-2.38-1.04-1.38-1.04-1.23-1.55-2.08-.5-.86-2.76-4.99-1.9-5.32.89-.34,2.07,2.91,2.07,2.91,0,0,6.35-2.06,7.21-2.91.87-.88-1.37.15-2.74-1.05-1.39-1.21-2.07-1.04-3.78-2.75-1.73-1.74-2.25-1.37-3.8-2.56-1.54-1.23.17-.7.36-1.91.17-1.22.85-.52,2.07-1.9,1.19-1.37,2.38.87,2.38.87l2.93,2.75,5.5,3.09s1.57-.53,1.9-1.03c.36-.52-.51-1.55-1.02-2.58-.52-1.03-2.07-2.59-2.93-3.79-.87-1.2,1.38-.51,2.24-.16.87.33,1.02.5,1.54.67.53.17,1.38,0,1.56-.86.18-.85-.18-1.53-.86-2.58-.7-1.02-1.37-.5-2.06-1.2-.69-.68-2.41-1.02-2.93-1.7-.51-.71-1.72-1.4-4.3-6.22-.51-1.35,0,0-.18-1.55-.15-1.54-.34-.68-3.95-3.95-3.61-3.27-3.26-4.99-2.75-6.88.5-1.89,1.71-5.33,1.71-5.33,0,0,2.41,4.47,3.09,4.65.69.16,1.9,1.74,2.42,2.4.51.71,2.58.54,4.47,1.2,0,0,1.05-1.37,1.9-2.75.86-1.35,2.22,1.23,2.22,1.23,0,0,2.07-.71,2.76-1.41.69-.67,0,0-.52-1.02-.51-1.03-1.53-.51-2.74-1.72-1.21-1.21-1.57-1.05-1.38-4.31.17-3.28,1.02,1.19,1.89.52.86-.7.71.35,1.57-.87.85-1.2,1.36.69,2.05.69s1.54,2.58,2.75,3.97c1.21,1.37,0-4.14,1.9-4.31,0,0,1.36,0,2.75-1.02,1.37-1.04,2.75-.35,3.44-.35s2.07,1.03,2.57,1.03,3.28,1.05,4.3,1.91c1.06.85,2.42.85,2.42.85,0,0,1.88-.18,2.4-.36.51-.16,4.12.36,4.63.87.52.51,2.24-.15,2.92-1.03.7-.87.86.33,1.73-.69.86-1.04,1.36-.68,1.9-1.38.52-.69,1.02-.35,1.53-1.2.53-.86,1.9-.86,3.96-1.73.66-.28,2.93.35,4.3.69,1.39.35,4.31.18,5.33.18s2.06-.52,4.49-1.57c2.38-1.01,0,0-.36-1.85-.35-1.92,0,0-.52-1.05-.51-1.03-1.19,0-2.76-.51-1.54-.52-1.37.35-2.57-.36-1.21-.67-2.22-.51-4.3-1.72-2.07-1.2-2.07-.67-2.57-1.2-.51-.52,0,0,.35-2.05.27-1.71-.37-2.25-.9-3.15-.11-.2-.24-.38-.31-.64-.51-1.37-2.42-1.2-3.45-3.92-1.02-2.76-.5-.71-.5-3.99s1.01-3.1,1.7-4.62c.7-1.57,1.54-1.88,2.92-3.29,1.4-1.35,3.11-.5,4.3-1.7,1.22-1.2,1.72-2.58,2.07-3.96.02-.12.07-.27.08-.4.3-1.67.45-5.46.6-7.53.08-.91.86,0,1.72-1.37.85-1.35.16-.85.7-1.71.51-.83,1.19-1.37,1.72-2.91.5-1.56,1.36-.86,1.87-1.21.53-.35,1.72.53,2.23.35.52-.17,2.42-1.22,3.12-1.9.67-.67,1.7-2.58,1.54-3.61-.15-.93-.34-.76-1.23-2.38-.12-.16-.22-.33-.32-.53-.92-1.68.86-2.08,1.01-3.63.17-1.53,3.62-.85,3.62-.85,0,0,3.1-2.75,4.98-4.81,0,0,1.39-1.39,1.9-2.6.52-1.21.88-1.03,1.56-2.22.69-1.21,1.37-1.38,1.72-1.88.33-.53,2.57-.53,3.76-1.22,1.22-.67,2.58-.51,4.14-.86,1.55-.35,0,1.91-.17,2.41-.17.5-1.9,1.88-2.58,2.57-.68.69,1.55,1.91,2.41,1.74.85-.17,1.21.18,1.21.18,0,0,2.23.85,3.11,1.38.84.51,3.76,1.89,4.45,2.21.7.36,1.21,1.04,2.07.36.86-.68,4.12-2.06,4.97-2.57.86-.53,1.57.51,2.07,1,.51.53,0,1.57,0,1.57,0,0-1.21.69-2.92,1.19-1.7.52-2.74,1.38-3.44,1.56-.68.16-4.12,2.91-4.12,2.91,0,0,.86,2.07,1.9,2.75,1.04.7,3.6,1.57,4.65,1.4,1.02-.18,2.74,2.22,2.74,2.22l.19,4.64s-2.57.35-2.07.69c.51.35,1.55,2.06,2.07,2.06s1.53,2.06,4.3,1.22c2.76-.87,2.57,0,3.26-.87.69-.85,1.72-.36,3.11-2.07,1.36-1.71.86-1.2,1.54-1.71.69-.52,2.76,1.03,3.09.51.36-.51,1.55-1.04,2.58-1.74,1.03-.67,1.54-1.88,2.59-3.26,1.01-1.38,1.36,0,2.38.86,1.06.86,2.78,1.04,3.97.51,1.21-.51,3.11-.67,4.65-.85,1.54-.17,3.46-.87,4.12-1.73.7-.87-.51-.68-.66-1.37-.18-.71-1.39-.86-2.07-1.88-.7-1.05-.85-.35-1.9-.35s-1.89.18-3.45,1.03c-1.55.86-1.2-.33-2.07-.67-.84-.35-1.37-.17-1.88-.7-.51-.5-3.43,0-5.16,0s-1.88-1.71-2.07-2.58c-.16-.86-2.22-3.26-2.22-3.26,0,0-1.39-3.26-.52-2.57.86.67,5.15-1.04,5.68-1.56.51-.5,6.01-4.64,7.22-5.31,1.2-.7,1.88-.18,2.74-.36.86-.18,5.35-1.71,6.04-2.22.68-.52.68.33,1.71.14,1.03-.14,6.19-3.08,6.19-3.08,0,0,1.71-.52,2.92-1.55,1.21-1.02,2.24.35,2.24.35,0,0,1.41-.02,2.2-.23.15-.03.29-.07.37-.13.5-.35,2.07.18,2.93-.51.85-.69,4.99-.69,6.18-1.39,1.19-.67.86,1.56,1.19,1.56.36,0,.19,1.04-.5,1.55-.69.51-3.95,2.06-4.45,1.91-.55-.17-5.01,2.24-6.04,2.4-1.03.16-1.37,1.74-1.37,1.74l4.13,4.44s-.52.87-1.21,1.57c-.69.69-.86,1.71-2.58,2.92-.59.43-.51,1.02-1.04,1.72-.52.68-1.02,1.89-2.22,3.11-1.21,1.21-1.04,1.37-2.25,1.37s-1.89.7-3.94.53c-2.07-.18-2.07,1.35-.86,4.46.17.48,1.72,1.55,3.78,3.09,0,0,2.05,1.9,2.91,2.77.86.85,3.28,1.4,4.32.85,1.01-.51,2.4,1.57,2.4,1.57,0,0,2.76,1.69,3.61,1.52.86-.16,1.37,1.2,2.05,1.56.68.35,2.93,2.08,4.31,2.59,1.36.51,3.26,2.92,3.09,3.63-.11.45,1.72,2.55,3.17,4.11.63.7,1.21,1.28,1.49,1.55.85.85,1.89,1.2,2.92,1.2s1.87,1.56,2.57,1.89c.68.35,1.37.52,3.45.35,2.05-.18,1.36,1.38,1.36,1.38,0,0,2.07,1.37,2.58,1.53.51.17,1.92,1.9,2.58,2.07.7.18.52,1.38.86,2.26.35.85.52,1.89.52,1.89l.33,1.53s.71.87,1.39,1.4c.69.5,1.39,1.36,1.72,2.58.33,1.2.18,1.37.18,1.37,0,0-.69,1.89-1.04,2.39-.23.35-.62.84-1.09,1.32-.26.29-.51.5-.8.75-.86.69-1.55.88-2.07,1.21-.51.35-3.09,1.88-4.3,2.41-1.2.52-2.59,1.87-3.79,2.38-1.19.52-2.06,1.04-2.92.36-.86-.69-1.71.34-3.42-.51-1.74-.85-2.07-.85-2.75-1.2-.71-.36-1.72,1.2-2.93,1.71-1.21.52-1.36.34-3.61,0-2.25-.36-1.73.16-3.61-.17-1.87-.35-1.55.85-3.08,1.2-1.57.35-1.72-.17-1.72-.17,0,0-12.4-1.37-13.77-2.22-1.39-.85-4.98-1.56-4.98-1.56,0,0-1.38-1.03-1.57-2.22-.15-1.21-1.71-.71-2.06-1.38-.34-.68-2.05-.53-2.91-.53s-2.59-.35-3.26-1.2c-.7-.85-2.93-.53-3.43-1.54-.53-1.03-.19-1.37-.19-1.9s-5.5,0-5.5,0c0,0-2.93,1.03-4.47,0-1.55-1.03-3.28,0-3.97-.85-.69-.87-4.29,0-5.16-.52-.86-.53-3.1.7-3.1.7l-4.45.68s-12.03,7.4-13.08,8.41c-1.04,1.07-3.95,2.42-4.65,2.24-.69-.18-2.22.87-2.91.35-.68-.54-1.73.52-1.73.52,0,0-3.09.33-4.12-.87-1.04-1.18-2.22.35-5.83,1.04-3.62.69-1.57.86-2.24,1.03-.7.18-2.42,1.21-4.28,1.39-.55.04-2.28,1.19-3.13,1.73-.86.48-.51,1.18-.86,1.7-.34.51-1.53,1.38-1.53,1.38l-1.73,1.03s-2.57,1.05-3.59,1.21c-1.03.16-7.76-.87-11.54-1.56-3.79-.67-3.44-.35-4.81-.67-1.36-.36-1.03.86-2.21,1.53-1.21.71-1.04,1.22-1.92,2.23-.86,1.05-1.55,1.76-2.57,2.93-1.03,1.22-.34,2.94.16,4.99.53,2.06,2.41-.33,3.12-.52.66-.17,3.59,1.38,3.42,2.24-.16.87-2.42,2.76.69,6.2,3.09,3.44.17,1.37,1.9,3.6.38.5,1.03,1.72,1.03,1.72,0,0-1.72,2.07-3.26,2.93-1.57.87-2.09,1.19-2.09,1.19,0,0,.89,1.4,2.25,1.57,1.38.16,2.59,1.37,3.44,1.7.86.36,1.03,1.56-.33,2.08-1.38.5-3.11,1.37-3.97,1.54-.86.17,1.72,1.89,2.59,2.26.86.34,1.54,1.34,1.54,1.34,0,0,1.04,2.42,1.74,2.76.68.35,2.4,1.03,4.45,1.03s1.39.86,1.73,1.72c.34.88,1.55,2.93,2.56,2.93.46,0,.92.52,1.21,1,.08-.06.39,0,.71-.85.5-1.38.68-.33,1.71-.69,1.01-.33,1.55.53,4.65,2.23,0,0,1.87,1.72,4.12,2.58,2.23.86,1.04,1.57,1.73,2.59.67,1.03,4.97.52,6.69,0,1.72-.51,2.92.16,3.43-.36.54-.5,2.93,1.2,3.44-2.56.52-3.79.2-.84,1.21-3.79.12-.32.2-.55.26-.73-.08.42-.12.95.43.57,1.23-.86,0,0,4.32-.86,4.3-.88,2.41.33,3.95.18,1.54-.18,1.03,1.54,1.54,1.71.52.17,1.39,1.54,3.28,2.57,1.89,1.04,1.54,2.06,2.57,2.24,1.04.17.52,1.74,1.72,2.06,1.19.33,1.19,1.55,3.11,1.9,0,0,1.71-.53,3.24-1.03,1.56-.54,3.46-1.56,4.14-1.9.68-.36,1.89.7,3.1,0,1.19-.69,2.24-1.53,3.45-2.92,1.19-1.38,2.04-1.05,2.4-1.55.35-.52,1.56-1.73,2.92-3.26,1.36-1.54.69,0,2.41.86,0,0,2.07,1.2,3.78,1.03,1.71-.17,4.47.5,6.37-1.21.84-.78,1.71,0,2.91-1.37,1.21-1.38.7.88-.51,7.05-1.21,6.19-.69,2.93-1.36,3.78-.71.87-.36,1.04-.51,1.9-.03.08-.02.16,0,.23.3.14.58.27.86.39-.28-.12-.57-.25-.88-.39.06.92,1.2,2.63,1.2,4.05,0,.54-.86,2.24-.51,6.54.35,4.31-.15,1.38,0,2.58.02.16.04.29.04.4.08.79-.06.85-.19,2.53-.2,1.88-.36,1.7-1.04,2.55-.69.87-.88,1.74-2.09,3.28-1.19,1.56-1.19,2.58-2.22,4.64-1.01,2.08-1.36,2.76-1.72,3.27-.35.52-.86,1.89-1.54,2.74-.69.87-1.03,2.23-1.03,2.23,0,0,.17,2.08.35,3.97.16,1.9,0,1.9-.7,2.75-.67.87-.35,1.22-1.38,2.93-1.01,1.71-.86,1.88-2.07,3.26-1.19,1.37-.85,2.07-1.54,2.93-.52.64-1.21,1.75-2.44,2.98,1.86,1.83,1.43,2.46,1.97,4.82.73,3,2.95,5.59,3.97,8.68.91,2.75,2.3,7.84,1.97,11.99-.24-3.46-1.23-7.06-1.93-9.21-1.06-3.08-3.26-5.68-3.99-8.69-.54-2.36-.11-2.97-1.99-4.82-.41.44-.92.88-1.49,1.34-2.24,1.7-1.2,1.2-1.73,1.53-.51.36-9.13.17-12.05.53-2.91.34-2.73.14-3.43-.86-.69-1.06-2.05-.5-2.74-1.9-.71-1.37-1.9-.5-2.42-1.04-.51-.5-3.26-.7-3.43-1.21-.17-.49-9.11-.16-11.53.51-2.4.7-1.72,1.06-1.72,1.06,0,0-3.61,2.23-5.66,3.78-2.07,1.55-3.63,2.58-5,2.75-1.36.19-1.36.51-1.87,0-.54-.51-1.56-.17-2.6-1.04-1.03-.86-2.05-.52-3.79-1.03-1.69-.51-3.43-.33-4.11-.69-.71-.34-2.74-.7-3.45-.87-.7-.17-3.61-.33-3.61-.33,0,0-8.94-3.11-9.46-3.44-.52-.36-7.58-1.2-7.58-1.2,0,0-2.92.33-3.44,0-.52-.36-2.24.49-4.65-1.05-.39-.23-.76-.47-1.17-.76-.64-.44-1.35-1.02-2.09-1.98-1.2-1.54-.36-.69-.86-1.54-.52-.86-1.04-.53-2.58-.86-1.55-.35-3.1.33-3.96.5-.86.17-3.44,0-3.44,0,0,0-7.56-1.02-8.42-1.7-.87-.73-1.38,0-1.56-1.06-.18-1-1.9-1.17-2.05-2.4-.17-1.2-1.38-1.38-2.59-2.58-1.19-1.21-2.05-.17-2.59-.68-.5-.53-2.07.15-3.43-1.02-1.36-1.22-1.87-.71-2.57-1.03-.71-.36-4.3.85-6.52,1.2-2.26.32-1.21.67-1.75,1.36-.51.7-4.12,2.41-5.15,1.91-1.04-.54-2.24,1.51-3.44,2.07-1.21.5-2.25,1.88-3.43,2.91-1.21,1.02-1.9,3.78-1.9,3.78,0,0,1.57,3.6,1.72,4.14.18.5,1.04,3.6,1.21,4.12.16.51-2.42,5.51-2.42,5.51l-4.47,2.05s-2.91,1.38-3.95,1.55c-1.04.17-2.4.17-2.93.69-.52.51-2.57-2.24-3.61-3.09-1.03-.87-2.57-1.73-3.44-2.41-.86-.69-2.24-.34-3.44-1.72-1.21-1.38-3.96-1.21-4.47-1.71-.53-.55-3.1-.69-3.1-.69,0,0-7.56-1.36-7.73-2.06-.17-.7-2.93.7-4.66.7s-1.53.16-1.88-1.05c-.34-1.2-2.22-.51-3.44-.85-1.21-.36-.33-1.75-.53-3.45-.15-1.72-1.88-2.75-2.74-4.65-.85-1.88-.68-2.06-1.02-2.75-.34-.69-1.04-1.57-1.9-1.89-.86-.35-3.09.51-4.14.32-1.02-.17-7.03-4.46-7.03-4.46l-6.88-1.37s-6.37,1.37-6.89.7c-.5-.7-2.4.35-3.76.35s-2.07-.54-2.07-.54c0,0-1.72-.86-2.59-1.86-.86-1.04-1.9-.88-2.93-1.38-.68-.35-1.69-.84-2.6-1.38-.51-.27-.98-.57-1.33-.88-1.03-.85-2.07-1.87-2.6-2.57-.5-.69-1.19-2.41-1.89-3.1-.69-.69-2.93-.18-2.93-.18,0,0-.84,1.75-1.87,1.37-1.03-.33-1.9-.5-2.93-1.87-1.02-1.39-1.73-1.21-2.4-2.56-.68-1.41.33-.7,1.19-1.57.86-.86,1.38-1.55,1.71-2.39.36-.87,2.78-1.38,3.11-1.91.35-.5,2.07-1.36,3.11-2.4,1.02-1.03,1.54-2.6,2.07-3.62.51-1.02.33-1.2.33-2.4v-2.58c0-.52-3.44-5.67-4.3-6.53-.86-.86-1.89-1.54-1.89-2.76s.68-1.04,1.21-2.23c.5-1.21,1.19-1.38,1.86-2.92.71-1.57,2.07-2.08,2.61-4.83,0,0-1.57-1.21-2.1-1.02-.51.17-3.24,3.11-5.31,3.44-2.07.35,0,0-.17-1.21-.18-1.2-.53-2.9-.69-4.11-.18-1.22-2.08-.85-3.63-2.25-1.53-1.38-2.06,0-2.57-.35-.52-.33-2.92,1.55-3.46,1.74-.5.15-2.05,1.37-2.05,1.37,0,0-6.74,2.5-9.16,3.02-.43.08-.72.12-.82.06-.67-.34-2.93,1.02-3.78.35-.86-.69-2.07.17-3.26-1.88-1.2-2.06-2.05.16-2.41-.36-.35-.49-1.39.86-1.89.36-.53-.49-3.09,1.03-3.79.5-.68-.5-1.54.18-2.05-.5-.52-.67-2.92-.85-3.63-.85s-2.05,1-2.73,1.19c-.71.16-2.43,1.89-2.43,1.89,0,0-4.47,3.11-6.87,2.76-.54-.07-2.22-1.55-2.22-1.55l-1.38-1.71-9.48-.87s-4.1.87-4.62.53c-.51-.36-3.26.16-5.18.34-1.88.16-1.01.67-1.71.33-.69-.33-2.39,1.56-3.6,1.74-1.21.17-4.49,1.9-5.33,1.9s-8.79.86-11.19.49c-2.4-.33-3.44,1.91-4.3,1.74-.86-.17-1.56,1.55-2.4,2.06-.88.51-2.07,1.56-2.93,1.89-.85.35-3.61,2.76-4.47,2.59-.86-.16-.69-1.38-.69-1.38,0,0-8.26,2.93-8.76,2.76-.51-.17-1.54,1.55-2.25,1.91-.68.35-1.89,1.53-2.4,2.05-.51.53-2.24,2.61-2.24,2.61l-2.55,2.05s-1.74.84-2.27.49c-.51-.34-1.7.35-3.08-.16-1.37-.52-1.72.51-2.07-.69-.33-1.21-1.52-.69-1.87-1.38-.35-.7-2.92,1.03-3.61,0-.69-1.04-.36-.7-1.39-1.88-1.02-1.22-1.9.34-2.76.16-.86-.16-2.57.52-2.57.52l-1.9.88s-3.78.64-4.65.64-3.59-.64-3.59-1.37c0-.68-4.14.35-4.48-1.01-.35-1.4-5.68-1.92-5.68-3.14s-1.37-1-1.54-2.05c-.17-1.02-2.25-1.02-2.25-1.53s-1.03,1.02-1.55,1.38c-.53.33-1.19,1.54-2.07,3.08-.83,1.56-.16,1.56-.52,2.76-.31,1.23-2.91,6.36-2.91,6.36,0,0-.67,1.53-1.04,2.24-.33.67-1.01,2.23-1.19,2.75-.17.52-1.03,2.4-1.53,2.56-.53.2-2.07,2.77-2.78,2.42-.68-.36-2.57,2.57-2.57,2.57l-5.16,1.91s-3.79,1.7-4.3,1.21c-.5-.53-2.42,1.35-2.92,1.35s-1.87,2.24-3.77,3.98c-1.9,1.7-2.25,2.74-3.26,3.58-1.06.88-2.25,3.12-2.6,3.63-.34.51-2.23,3.45-2.76,4.13-.51.67-.35,2.76-.35,2.76,0,0-2.74,13.08-2.91,14.27-.17,1.19,0,2.91.69,2.91s.2,3.45.35,4.31c.16.85-.35,1.35-.86,2.06-.5.69-1.74,2.93-2.25,3.43-.52.52-1.71,2.59-2.4,3.1-.69.51-1.03,1.38-2.24,2.74-1.19,1.4-2.23,1.22-3.44,1.74-1.19.51-1.54,1.71-1.54,1.71l-1.38,2.06s-1.38,1.72-2.24,2.25c-.87.53-2.07,1.72-3.27,2.57-1.21.87-3.28,1.9-3.97,1.72-.68-.14-11.17,3.97-12.03,4.14-.85.16-2.75,2.9-3.61,3.95h49.77l.23-1.65.98,1.84v.03l-.94-1.79-.24,1.68h-49.74c-.88,1.03-1.57,5.66-1.57,5.66l-1.72,2.92s-3.26,3.1-3.78,3.27c-.51.17-3.62,2.24-3.62,2.24,0,0-2.74,2.92-3.44,3.11-.69.17-.86,3.95-.86,3.95,0,0-1.03,3.6-1.36,4.12-.36.52-2.07,4.64-2.07,4.64,0,0-2.76,3.27-3.08,3.8-.35.51-2.07,2.59-2.58,3.11-.53.5-1.72,1.71-2.58,2.39-.85.69-1.56,2.75-2.06,3.62-.53.86-.36,1.53-.68,3.09-.38,1.55-.71,3.44-1.21,4.49-.53,1.01-2.76,6.85-4.64,8.42-1.9,1.55-2.91,2.75-3.46,3.78-.5,1.03-1.36,2.24-1.36,3.11,0,.68-.76,3.32-1.59,5.77h-.09c-.19.59-.41,1.17-.58,1.69-1.05,2.78-.35,4.47.17,4.65.5.17.68.35,2.4-.87,1.73-1.2,3.95,4.48,4.65,4.48s3.45,7.22,3.61,7.72c.17.55-1.21,2.42-2.4,3.28-1.21.85-.88,2.76-.88,2.76,0,0,.88,2.06,1.57,2.58.68.51,1.21,2.58,1.21,2.58l1.19,4.65s1.39,5.33,1.39,5.85-1.71,3.25-1.71,3.25c0,0-2.58,2.76-2.76,6.37-.18,3.61-.18,4.98-.69,5.34-.21.13-.41.66-.59,1.23-.27.87-.44,1.86-.44,1.86,0,0-.68,4.98-1.9,5.84-1.22.87-.51,2.76-.86,3.28-.36.51-3.1,3.42-4.3,4.28-1.21.88-1.56,3.11-.86,3.26.69.2,1.37,3.11,2.05,3.63.68.52.68,2.74,1.72,2.58,1.02-.18,3.46,3.6,3.46,3.6,0,0-.18,4.15.33,3.97.52-.16-.5.69-1.36,1.72-.86,1.02-1.04,1.88-1.39,2.93-.33,1.03.54,2.4.54,2.4l.33,3.76s-.33,1.55,0,1.9c.12.11.26.38.43.71.37.72.78,1.7.78,1.7,0,0,1.72.7,2.4.7s.18,1.54.7,2.24c.51.69,1.9,1.37,2.56,1.03.7-.34,1.38.35,2.24-.51.87-.87,2.75.51,3.61.33.86-.16,2.58,1.72,2.58,1.72v5.35c0,.5.86,1.71,1.37,1.54.42-.14,1.23,1.26,2.58,2.51.28.27.55.53.88.77,0,0,1.02,2.4,1.89,3.09.86.67,2.05,2.58,2.93,3.09.86.52,2.59,1.37,2.59,1.37,0,0,4.27,3.97,8.41,9.97,1.42,2.06,1.96,3.08,2.13,3.56.04.11.08.21.08.27.84.67,1.99,2.64,2.59,3.24.7.7,2.42,4.82,2.42,5.67s-.34,3.28-.34,3.28l1.03,2.05s2.23.17,3.1.17.69,1.72,1.19,1.9c.53.17,3.47,1.88,3.97,2.06.51.17,1.55,3.43,3.09,4.47.22.17.49.29.74.42,1.7.87,4.26,1.64,4.26,1.64,0,0,4.98,1.56,6.55,3.79,1.52,2.22,3.59,3.96,4.62,4.78,1.04.91,2.75,2.45,3.26,3.45.52,1.04,3.1,1.74,3.1,1.74,0,0,2.75,1.72,2.92,2.41.17.7,2.22,1.9,2.74,2.22.52.35,3.11,2.43,3.63,2.77.51.33,3.95,1.02,4.82,1.54.84.53,4.81,2.23,5.67,2.41.85.17,4.11.53,4.11.53.19-.1.34-.17.5-.26,3.95-1.88,5.79-2.57,7.6-4.56,1.9-2.08,1.9-.53,3.11-1.23,1.19-.67,3.76-.49,6.01-2.07,2.24-1.54,3.45-.34,6.54-1.54,3.09-1.2,4.83.35,6.35-.33,1.57-.7,8.61,0,11.19-.52,2.56-.52,3.77,0,5.01.33.45.14,1.19.29,2.09.48,1.38.28,3.2.57,5.29.91,3.44.5,3.26,3.58,4.12,4.62.86,1.04,1.89-.17,1.89-.17,0,0,3.26-2.4,5.84-3.42,2.57-1.03,4.32-1.56,6.03-3.11,1.73-1.56,1.9-1.73,2.76-2.06.85-.35,1.37.33,4.11-.35,2.76-.69,2.76-.17,4.13-.69,1.18-.46,2.34-1.01,3.4-1.8.19-.16.39-.3.56-.42,1.19-1.06,1.9-1.74,3.44-1.74s4.12-1.21,5.86-2.08c1.58-.77,2.01-.84,3.51-1.23.14-.04.28-.1.43-.14,1.9-.5,2.4-.83,2.4-.83,0,0,7.08-.35,9.46-2.26,2.42-1.87,2.94.88,2.94.88,0,0,.52-.1,1.38-.2.92-.1,2.25-.26,3.76-.33,2.94-.17,5.18-1.05,7.94-.17,2.74.85,2.4,3.08,4.14,3.44,1.71.34,2.21,3.28,4.8,2.73,2.57-.51,2.07,3.62,3.26,3.98,1.21.35-.18,3.43.17,5.15.34,1.71,1.37,3.94,3.26,4.81,1.9.85,2.76,2.75,3.45,2.06.69-.67,8.57-.51,10.64.17,2.07.7,3.79.33,5.01-.16,1.19-.53,3.76-1.39,5.15-2.08,1.39-.67,4.83-2.05,6.54-2.57,1.72-.53-.18.85-.5,2.73-.13.56-.09,1.03.02,1.48.27,1.15,1.08,2,1.67,2.51.86.67,1.9,2.72,2.76,2.9.86.19,2.58-1.2,3.95-1.7,1.38-.53,2.07,3.09,2.77,3.26.69.17,2.22,6.01,3.09,6.54.86.51,0,7.56.7,7.56.56,0-1.45,3.09-2.48,4.56-.2.26-.36.48-.45.6-.71.87-1.21,2.57-.71,4.12.53,1.55.18,3.1.36,5.68.17,2.58-.51,3.44-.19,6.89.36,3.44-2.55,3.78-3.96,5.15-1.38,1.37-1.38,5.32-1.19,7.56.17,2.25-.19,5.69.17,6.88.35,1.2,2.75,7.05,4.11,7.05s2.43,4.99,3.28,4.48c.87-.52,7.07,7.39,11.36,13.76,1.75,2.57,2.85,4.25,3.67,5.33,1.17,1.61,1.71,1.96,2.5,2.06,1.4.18,3.8,5.51,6.89,7.92.14.11.26.21.37.32,2.7,2.51,2.57,7.11,2.57,7.93v2.07c0,1.33.04,2.88.16,3.62.17,1.2,1.88,3.92,3.26,5.83,1.37,1.9,2.59,6.22,4.47,8.24,1.87,2.08,1.87,4.83,3.94,6.72,2.07,1.91-.65,3.96-1.19,5.49-.51,1.55-3.1,3.96-3.26,4.65-.17.71,1.88,4.65,3.8,8.1,1.87,3.44,2.73,8.4,4.62,11.01,1.9,2.57.36,4.98.53,5.84.15.88.5,3.08.66,4.31.19,1.21-1.19,4.99-1.19,4.99,0,0-1.72,2.57-2.25,3.26-.5.69-2.57,1.72-4.1,2.57-1.56.86-3.1,2.58-4.14,4.15-1.05,1.53-2.06,4.12-1.56,5.33.51,1.2-1.86,3.76-2.38,3.93-.53.19-2.07,6.21-1.92,7.58.18,1.38-.69,5.85-.69,6.37s-1.88,5.01-2.23,5.48c-.34.54-.84,2.25-1.19,3.81-.36,1.55-1.38,4.64-1.38,4.64v7.91s-.06.54-.13,1.41c-.26,3.21-.71,11.04.64,13.21,1.72,2.78,1.03,3.11,1.72,3.96.69.88,1.72,2.4,3.26,2.59,1.57.17,1.72,2.92,2.58,3.44.86.52,2.92,4.12,3.79,4.31.86.17,1.38,5.3,1.38,5.3,0,0,1.72,4.31,2.41,4.13.68-.15,3.07,7.56,3.07,7.56l1.21,3.62s1.21.52,1.72,1.4c.53.85.71,2.04,1.72,2.38,1.02.35,1.02,1.55,3.79,3.99,2.76,2.37,2.07,3.93,2.57,4.78.53.86.86,3.28.86,4.31s.35,4.46.35,4.46c0,0-2.22,7.24-2.57,7.91-.35.7.36,2.23,1.19,3.28.88,1.01,1.04,2.77,1.9,3.26.86.52.86,3.45,1.56,3.26.67-.16.51,4.82,1.03,7.07.52,2.22-.69,3.09-.86,3.6-.16.54-.51,1.38,0,3.11.51,1.71.67,1.89,2.25,7.9,1.54,6.02,1.36,4.82,2.4,5.51,1.03.71.86,4.82,1.56,4.47.68-.33,5.49,8.76,7.91,12.41,2.13,3.17,2.37,3,3.23,3.75.11.1.26.21.39.36,1.19,1.2,2.23,3.26,3.26,4.64,1.03,1.37,2.22,3.11,3.61,3.11s.86,3.6.86,4.8,1.19,4.15,1.36,4.82c.19.7.89,4.12.69,4.99-.17.87,1.39,2.93,3.11,4.83,1.71,1.89,2.74,2.24,3.59,3.08.88.86,1.21,4.29,1.74,4.66.52.33,2.4,2.57,2.57,3.28.17.66.17,6.69-.51,8.59-.71,1.87,0,0-2.25,1.87-2.23,1.92-2.4,1.21-2.4,1.21l.54,2.24s1.01,3.26,2.05,2.75c1.02-.53,2.4,4.83,2.74,5.68.33.86.18,1.37.18,1.37,0,0,0,2.06-.18,3.44-.17,1.4,1.73.86,2.07.36.33-.53,2.07.69,2.57,1.18.51.52,1.72,1.22,2.58,1.22s.85,2.06.85,2.06c0,0,1.2,1.55,1.72,1.37.51-.15,1.54,1.72,3.79.7,2.23-1.05,2.9.86,6.52,1.9,1.11.31,2.4-1.57,3.28-2.42.84-.85,1.71-1.03,1.71-1.03l3.78-1.2s1.72-.18,5.5,0c3.78.17,1.54-1.38,2.92-2.08,1.37-.66,1.55,1.38,3.43.35,1.9-1.01,0,0,2.41-1.38.87-.47.69-1.03,2.06-2.22,1.39-1.2.86.35,3.12-.51,0,0,1.02.33,3.42,1.53,0,0,1.72.17,3.26-.33,1.57-.52,1.05.15,1.72-.52.71-.68,1.04.17,1.9,0,.86-.17,1.54.85,2.76.67,1.21-.15,2.06.35,3.78,1.38,0,0,4.45,1.73,6.37.87.49-.24,1.02-1.19,1.37-2.25.35-1.03,1.71-.33,2.07-.85.36-.51,2.07,1.03,2.07,1.03l2.06.36s1.2-.87,2.05-1.56c.86-.7.86-.86,2.57-3.08.45-.57,2.42.51,3.96.33h2.25s1.71.18,2.92-.67c1.21-.85,1.36,0,2.59-1.04,1.19-1.03,1.71-.69,2.57-1.2.86-.52,2.4-2.07,2.4-2.07,0,0,2.76-1.91,5.33-3.96.69-.53,1.54-1.37,3.61-3.44,2.05-2.06,1.21-.85,2.05-2.24.88-1.35.88-.49,1.41-1.52.51-1.04,1.52-1.4,2.73-2.93,1.21-1.55,1.56-1.22,3.61-2.93,2.05-1.72,2.05-1.55,2.94-2.94.86-1.36,2.58-2.04,5.15-5.15,2.58-3.09,0,0,0-.51s2.76-1.73,3.28-2.07c.5-.34,2.4-3.44,2.9-4.46.51-1.03.19-.86.69-2.08.53-1.2,1.9-2.56,2.6-3.94.68-1.37,1.88-1.91,2.23-2.58.35-.67,1.56-1.56,1.56-1.56,0,0,1.36-1.71,1.52-2.4.2-.68,2.42-3.08,2.93-3.95.54-.85,1.04-1.21,1.39-1.88.34-.7,1.37-.7,1.9-1.38.51-.7,3.09-3.1,3.44-3.78.34-.7,1.36-1.74,2.41-3.8,1.03-2.06.5-1.54,1.03-3.1.51-1.55,1.04-2.06,1.55-3.08.52-1.04,1.71-2.75,1.9-4.13.16-1.38-.51-1.9.33-3.97.52-1.24.86-2,1-2.65.09-.42.11-.82.04-1.31-.15-1.19.35-1.7.18-2.92-.18-1.18.86-1.02,1.54-1.9.71-.83,0-1.53-.33-2.74-.35-1.19-1.21-2.24-1.21-2.24,0,0-.84,1.38-2.05.18l-1.21-1.2c-1.21-1.21,0,0,.15-2.58.2-2.59.71-.68,1.72-2.05,1.06-1.4,1.06-.71,1.92-1.91.85-1.2,1.54-1.04,3.26-2.41,1.72-1.38,2.4-.85,3.94-1.9,1.56-1.04,2.76-.69,3.63-1.04.86-.33,4.63-1.72,4.63-1.72,0,0,2.58,0,3.1-.68.51-.69,3.1-2.06,3.62-2.41.5-.33,3.09-1.21,3.09-1.21,0,0,1.21-3.44,1.02-4.81-.16-1.36.36-1.03.86-3.6.54-2.58.19-.87.34-2.78.19-1.88.52-2.91.52-2.91,0,0,.69-1.39.69-2.76s-.15-3.1,0-3.61c.18-.51-.51-1.2-.34-3.1.18-1.9-1.54-1.37-1.39-2.93.17-1.54,0-.67.36-2.07.35-1.36-.51-1.03-1.05-2.21-.5-1.21-.85-1.37-1.54-2.58-.7-1.2-1.03-1.05-1.03-2.22s.51-1.58.69-3.45c.18-1.91,0-1.56,0-2.94s-.51-1.37-1.56-2.57c-1.02-1.21-1.19-.51-2.91-2.6-1.73-2.05,0-.68-.17-2.23-.15-1.55.35-.86.35-1.55s.15-1.2-.5-2.39c-.71-1.23-.53-2.59-.53-2.59.69-.35,1.54,1.87,1.54,1.87,0,0,1.21,0,2.23-1.87,1.05-1.9,1.74-1.54,2.95-2.93,1.19-1.38,1.36.19,2.05-.52.71-.67,1.21-.51,1.9-1.37.68-.85,2.07-1.38,3.79-3.26,1.72-1.9,1.37-1.02,2.07-1.72.68-.7,1.9-2.58,2.05-3.08.17-.52.7-1.55.7-1.55,0,0,1.54-1.03,3.26-2.58,1.71-1.56,2.05-2.07,3.26-3.45,1.21-1.37,1.21-1.03,2.23-1.89,1.06-.85,1.06-.17,2.59-1.04,1.54-.85,1.9-.68,2.91-1.2,1.06-.51,1.38-.33,2.77-1.53,1.37-1.22,2.38-1.05,5.14-2.42.49-.24,4.47-2.24,4.47-2.24,0,0,3.28-1.53,4.14-1.2.86.35,6.37-6.37,9.8-9.63,3.44-3.28,1.54-1.55,2.23-2.76.7-1.21,1.21-1.37,1.56-2.4.35-1.03,1.21-6.2,1.55-7.22.35-1.04.17-1.9.17-3.11s-.35-2.91-.35-3.96-.52-3.28.17-4.81c.69-1.56-1.2-2.58-1.2-4.46s.34-2.08.34-3.28-.5-3.26-.69-4.99c-.17-1.71-.35-2.05-.5-3.44-.2-1.35-.2-.84-.53-4.63-.36-3.76.68-2.94.68-4.31s.35-1.87.7-2.58c.34-.69-.19-7.74-.19-8.59,0-.42-.45-1.22-.94-2-.49-.8-1.04-1.61-1.13-1.96-.16-.7-1.02-1.03-1.53-1.74-.52-.66-1.55-1.37-1.73-1.87-.17-.52-1.19-2.07-1.37-2.93-.18-.85-2.4-.85-2.75-1.36-.33-.51-.51-2.42-.71-3.62-.15-1.22-1.01-1.38-2.05-3.09-1.04-1.72-.68-2.07-1.71-4.65-1.03-2.58-.51-1.02-.18-2.06.36-1.04.86-.69,1.22-1.87.35-1.24,1.21-1.4,0-2.95,0,0-.51-1.72-.86-2.39-.36-.71.86-1.76.86-1.76l1.54-1.88s.69-3.08.69-3.61-.51-.69-2.74-3.27c-2.26-2.58-1.55-1.72-2.42-2.58-.86-.87-1.55-1.38-1.9-2.58-.33-1.2-.5-1.2-.33-2.57.16-1.38,0-2.4,0-3.61s0-.7.51-2.25c.5-1.54,0,0,1.03-1.89.73-1.34,1.4-2.58,2.05-4.01.3-.58.57-1.18.88-1.84,1.04-2.22.86-1.2,1.19-2.76.35-1.54,1.21-1.19,2.07-3.79.86-2.57,1.37-2.24,2.58-4.28,1.21-2.08,1.36-3.46,1.54-5.86.18-2.41,1.04-3.44,1.75-3.96.68-.51,1.36-.51,2.38-1.38,1.04-.86,1.73-1.54,2.77-3.27,1.04-1.73,2.22-3.28,2.91-4.1.7-.89,2.75-.7,2.75-.7,0,0,2.59-.35,3.45-2.59.24-.6.5-1.01.78-1.36.72-.88,1.56-1.04,2.32-1.91,1.03-1.18,1.21-2.05,2.05-3.26q.86-1.21,1.74-3.1c.84-1.91.68-.83,1.54-2.06.86-1.2,2.58-2.08,4.47-4.13,1.9-2.06,1.19-.51,2.4-2.56,1.22-2.07,1.72-.87,3.28-3.28,1.55-2.41,1.88-1.56,3.1-3.78,1.21-2.24,3.07-2.91,3.94-4.49.86-1.53,1.56-1.35,3.63-3.1,2.05-1.71,2.91-1.87,3.95-2.57,1.04-.68,2.22-1.02,2.76-1.55.52-.51,3.78-1.7,3.78-1.7l2.4-1.2s7.06-4.85,7.93-5.88c.84-1.03,2.56-1.38,2.91-1.87.33-.53,1.54-1.21,2.25-2.42.68-1.22,1.54-1.57,2.05-2.74.52-1.22,2.93-3.8,2.93-3.8,0,0,7.91-9.11,8.44-9.81.5-.67,4.47-5.14,4.97-5.67.5-.51,1.21-1.2,1.55-2.72.35-1.57,3.44-3.46,3.78-5.7.33-2.23,1.54-3.62,1.9-4.81.33-1.22,2.07-2.08,2.23-2.75.17-.71,1.2-1.2,2.74-3.44,1.57-2.24.86-2.07,1.39-3.45.51-1.35.86-1.72,2.24-3.93,1.36-2.24,0,0,.5-1.21.52-1.2,2.25-3.45,3.46-5.33,1.19-1.9.69-1.38,1.72-2.76,1.02-1.38,0,0,1.71-3.6,1.72-3.63.86-1.74,1.9-2.24,1.01-.55.15-2.08,1.19-3.28,1.03-1.2.69-.85,1.39-2.4.68-1.56,1.21-1.9,1.87-3.64.71-1.7,0-1,0-3.24s.71-2.08,1.04-3.11c.36-1.02.69-1.88,1.04-2.4.35-.52,1.72-1.72,1.72-1.72,0,0,.86-7.4.7-8.08-.18-.68-1.39-4.64-1.56-6.38-.17-1.71-.33-1.01-1.72-2.06-1.36-1.03-.86.19-2.57.52-1.73.33-.86.69-3.44,2.24,0,0-2.76,1.74-4.14,1.91-1.36.16-2.05.66-3.77.66s-2.4.7-3.61.37c-1.21-.37-3.94,1.54-3.94,1.54l-2.25,1.01s-1.54.7-2.41.37c-.88-.35-6.35.5-7.06.33-.69-.17-3.41.52-3.41.52l-1.57.51-2.75.18-2.58,1.9s-2.76,1.71-3.27,1.21c-.52-.53-2.57.18-2.75-.36-.17-.49-3.28-.66-3.28-.66,0,0-2.05.17-3.09.49-1.03.35-2.25.71-2.25.71l-2.22.66s-3.44,1.91-4.12,2.42c-.7.51-3.11-.51-3.11-.51,0,0-5.16-.51-5.32-1.05-.19-.5-4.49-2.24-4.81-2.91-.35-.67-2.78-2.24-3.1-2.75-.33-.53-1.37-3.12-1.37-3.12l-.84-.96-1.05-1.26s-2.94-.32-4.14,0c-1.21.35-1.54-.5-1.37-1.54.16-1.03,2.4,0,2.4,0,0,0,3.97-1.56,4.48-2.05.52-.51.16-2.24.67-2.74.54-.55-.86-2.25-1.38-3.29-.51-1.03-1.53-1.03-1.53-1.03,0,0-2.08-.34-2.92-1.55-.86-1.22-2.07-1.22-2.76-2.24-.68-1.04-1.54-1.56-2.05-2.58-.52-1.03-1.21-2.05-1.38-3.6-.18-1.55-2.93-2.76-2.93-2.76l-6.18-6.02s-4.15-2.25-5.01-3.62c-.86-1.37-1.89-1.88-1.89-1.88,0,0-2.05-.34-2.39-.87-.37-.51-2.76-1.55-2.76-1.55l-1.73-.68s-1.36-.19-1.71-1.04c-.34-.86-1.05-2.24-1.05-2.92s-3.07-2.22-3.07-2.22l-.19-.35c-.17-.35-2.57-.68-3.09-.87-.52-.15-1.53-3.76-1.88-4.46-.36-.68-3.97-11.2-4.14-13.25-.16-2.06-.69-3.44-1.37-5.67-.59-1.93-1.68-2.34-2.09-2.83-.06-.08-.11-.17-.13-.26-.17-.69-2.42-1.74-2.6-2.25-.16-.49-4.99-3.6-5.69-4.97-.66-1.37-2.9-2.76-3.41-3.09-.52-.36-1.74-1.22-1.9-2.08-.18-.85-.85-3.78-.85-4.98s-.71-3.44-.71-4.81-1.19-4.99-1.01-6.37c.16-1.35,1.72-4.11,1.72-4.11,0,0-3.64-8.61-3.64-9.29s-.85-1.56-1.69-3.45c-.86-1.89-1.54-2.42-1.72-3.28-.17-.85-2.24-1.01-2.93-1.53-.68-.51-1.03-2.08-1.39-3.28-.33-1.2-2.07-1.02-2.57-1.87-.51-.88-2.42-.7-3.26-1.56-.14-.14-.25-.29-.39-.47-.63-.8-1.05-1.77-1.33-2.63-.35-1.02-.68-2.92-.68-3.78s1.87-2.24,1.87-2.24c0,0,0-1.91-.15-2.41-.17-.5-.17-.67-.17-1.54s-2.75-3.1-2.75-3.1c0,0-1.57-1.91-1.57-2.93s-3.09-2.92-3.09-3.96-2.22-3.1-2.58-3.78c-.36-.68-1.54-2.75-1.54-3.26s-4.65-10.83-4.98-12.37c-.36-1.56-.52-1.38-.88-2.25-.33-.87-1.37-1.75-1.37-2.58s-1.21-1.72-1.55-2.42c-.35-.67-1.21-1.87-1.71-3.08-.54-1.22-.71-1.04-.71-1.55s-.51-2.06-.85-3.43c-.36-1.38-2.05-3.79-2.41-4.81-.33-1.03-1.36-1.37-1.9-2.07-.5-.69-3.26-2.76-3.26-2.76l-1.39-5.5s-.69-6.36-.35-5.68c.35.69.35,2.92.35,2.92,0,0,2.42,2.91,2.93,3.27.51.35,1.54,2.07,2.25,1.73.68-.35.51,2.06,1.03,2.06s1.88,4.3,2.38,4.99c.52.69.86,1.89.86,1.89,0,0,2.25,2.58,2.77,2.93.51.33,2.57,3.44,2.57,3.44l4.13-1.2c0-1.37.86-3.28.86-4.31s1.04-3.62,1.04-3.62l1.12-3.82s-.02.03-.04.03c.02,0,.02-.03.02-.03l.98-3.23.14.37c-.17.75-.35,1.52-.51,1.84-.34.69-.52,3.1-.86,3.77-.35.7.34,2.42.34,2.42,0,0,1.73,1.54,3.09,1.54s1.21,1.54,2.25,2.08c1.03.5,1.88,1.7,3.09,2.04,1.21.35,1.21,1.89,1.56,2.4.34.53.51,2.24,1.22,2.76.67.54,1.37,2.42,1.37,2.42,0,0,1.36,1.87,2.57,2.73,1.22.87.69,1.4,1.37,1.74.7.33,1.04,2.57,2.06,4.31,1.05,1.72,2.24,3.09,2.59,3.95.35.85,5.34,6.53,6.52,7.21,1.21.7,1.04,2.41,1.04,2.41,0,0-.15,2.41,0,3.1.17.68.17,2.74.7,3.26.5.52.5,2.22,1.71,2.58,1.19.36.86,1.56,1.9,1.2,1.03-.34,1.54,1.88,3.26,2.08,1.72.14,1.89,2.39,2.4,2.75.53.33,1.21,1.53,1.21,1.53,0,0,.51,1.74,2.07,2.07,1.54.35.33,1.71,1.36,2.24,1.04.52,1.9,2.92,2.93,3.62,1.04.68,1.04,5.15,1.04,5.15,0,0,.5,5.87,1.03,7.42.51,1.53.51,2.91.51,3.6s-.35,3.27-.35,3.27c0,0,0,1.88.7,2.76.68.85,1.02,2.92,1.88,3.6.86.69,1.92,2.41,1.92,2.41,0,0,1.36,1.03,2.22,1.03s1.04,1.22,2.93,1.72c1.88.54,1.88,1.9,2.57,2.24.66.35.66,1.38,1.37,1.91.68.5.5,1.53,1.03,1.68.51.18,2.07,1.91,3.09,2.6,1.04.7,3.26,2.58,3.26,2.58,0,0,2.26,6.54,3.64,8.78,1.36,2.26,1.21,3.79,1.21,3.79,0,0,.5,2.41.84,3.08.35.73,1.03,1.75,2.24,2.58,1.21.88,1.37,2.08,1.37,2.08,0,0,1.56.68,2.42.85.86.18.35.7,1.21,1.91.84,1.2,1.01,2.4,1.7,3.11.68.67,1.56,2.22,2.42,2.74.84.49.18,2.4.18,2.4l-.18,2.08s.84,2.58,1.72,3.25c.09.1.17.19.23.3.41.72-.23,1.77-.23,1.77l.35,2.07-.88,2.93,1.9,6.36s1.9,10.65,3.11,13.56c1.21,2.95,1.01,3.1,1.01,3.1,0,0,.53,3.26,1.05,4.13.51.87,1.2,3.11,1.2,3.11,0,0,1.39,1.03,2.05,1.21.69.14,2.08.85,2.08.85,0,0,6.7-.36,7.22-.71.52-.33,2.93-.33,3.6-.51.69-.17,1.72,0,1.72,0,0,0,2.25-1.37,3.26-2.06,1.06-.69,2.93-2.06,3.78-2.92.86-.87,2.07-.87,2.59-1.02.52-.17,1.91.16,2.92-.17,1.04-.35,2.07,0,3.1-.35,1.04-.36,3.62-1.89,4.47-2.42.86-.51,2.41.18,3.09-.17.71-.34,1.21.7,1.9,0,.69-.67,2.05-.17,3.28-1.37,1.19-1.21,1.88-1.38,2.56-2.41.71-1.03,1.92-.17,1.92-.17,0,0,2.23.35,2.73.17.53-.17,1.89.17,2.6.17s1.69-.87,2.05-1.37c.35-.53,3.28-2.6,3.28-2.6l1.71-1.87,2.23-2.44s2.59-1.18,3.09-1.52c.54-.36,2.07-.18,2.07-.18,0,0,1.74,0,2.24-.35.51-.35,4.81-.85,4.81-.85,0,0,2.23-.69,2.75-.85.53-.2,4.15-1.22,4.15-1.22l3.26-1.18s2.57-.72,3.1-1.06c.51-.33,2.04-.85,3.94-2.05l2.76-3.12s.15-4.13.86-5.33c.68-1.18,2.58-1.35,2.58-1.35,0,0,1.9-.71,2.25-1.22.35-.51,2.91-2.24,2.91-2.24l1.86-.56,1.07-.29,2.24.16s2.91-1.71,3.26-2.23c.34-.52,4.83-1.9,4.83-1.9,0,0,5.32.52,6.18,0,.84-.52,2.76.52,2.76,0s0,0,1.01-2.41c1.04-2.4,1.9-3.11,3.8-6.7.33-.66,1.56,0,2.07-.17.5-.16,5.66-.7,5.66-.7l3.28-.88s.5-2.05.33-3.08c-.17-1.03,1.38-1.03,2.07-2.24.68-1.21,1.04-2.05,1.04-2.92s2.06-1.72,2.39-2.39c.35-.7,5.33-.37,5.84-.56.53-.14,2.6-.14,2.6-.14,0,0,.5-7.42.33-10.5-.15-3.1.54-1.21.7-1.89.16-.69,1.53-2.58,2.23-3.78.68-1.22,2.07-1.03,2.75-1.55.69-.52,1.04-.87,1.9-2.07.86-1.2,1.71-1.54,3.44-3.26,1.72-1.73,2.24-2.06,2.76-2.93.51-.85,1.89-1.89,2.4-3.09.5-1.21,3.78-3.08,3.78-3.61s2.76-6.19,2.76-6.19l-2.41-.35-1.37-2.23-2.25-2.41s-2.73-2.41-2.91-2.93c-.17-.51-2.41-3.25-2.41-3.25,0,0-2.92-1.91-3.09-2.41-.19-.54-2.41-2.25-3.11-2.41-.66-.17-3.43,1.03-3.95.5-.51-.5-1.54-.85-1.72-1.36-.17-.54-2.06-.18-2.92-.37-.86-.17-3.11-1.03-3.62-1.35-.51-.36-.67-.53-.85-1.9-.17-1.38-2.41-1.21-3.62-2.41-1.21-1.2-1.71-1.38-1.87-1.89-.2-.51-2.42-6.88-2.42-6.88-.71-.86-.51-3.44-.51-3.96s1.04-2.73.84-3.96c-.17-1.2-.69-6.7-.69-6.7-.33,0-1.36,1.9-1.54,2.91-.17,1.04-2.07,1.38-3.1,2.94-1.02,1.56-2.4,2.4-2.4,2.4l-2.58,1.91-2.24,3.79s-2.04,1.7-2.23,2.22c-.18.5-3.59,2.4-3.59,2.4,0,0-3.28,2.76-3.63,3.26-.34.52-6.19,3.28-7.38,3.45-1.21.16-2.76,1.18-3.28,1.03-.51-.17-4.13-.87-4.8-.87-.71,0-3.1.17-3.1.17,0,0-1.73,1.38-2.92,1.55-1.21.17-3.28.35-3.28.35,0,0-1.55-1.53-2.57-1.9-.71-.22-1.39.18-2.19.23-.39.03-.81.02-1.25-.23-1.37-.67-3.08-3.44-3.26-3.93-.18-.57.84-.57,1.19-1.41.36-.86.86-1.36,0-3.43-.85-2.07,1.9-2.59,2.76-3.1.86-.52.68-4.64.34-5.66-.34-1.05-2.06-2.75-2.75-3.63-.71-.85-1.72-.67-1.72-1.19,0-.55-2.57,1.71-3.08,2.07-.52.33-1.91,4.11-2.42,4.28-.5.18-.35,5.52-.86,4.99-.5-.5-1.21-1.05-1.54-2.05-.37-1.06-1.74-3.26-2.6-3.97-.86-.67-1.72-1.38-2.39-2.23-.7-.87,0-1.2.16-2.25.17-1.03,1.71-3.79,2.07-5.31.33-1.57-1.22-1.4-2.24-1.57-1.05-.17-1.39-1.38-1.73-2.58-.36-1.2-3.26-2.76-3.26-2.76,0,0-4.83-1.55-5.35-1.9-.51-.34,0-2.4-1.02-5.85-1.03-3.44-1.21-1.2-2.74-2.4-1.56-1.21-2.27-2.24-2.42-2.76-.17-.52-.17-1.35-.35-2.05-.17-.69-.35-1.4-.5-2.6-.19-1.21-.51-2.05-2.26-4.29-1.71-2.24-1.89-2.24-2.75-3.1-.86-.86-.16-2.25,0-4.13.17-1.89,1.21-.85,1.72-.85s1.37-.52,1.03-2.41c-.13-.73.08-1.23.39-1.59.43-.46,1.05-.74,1.44-.97.09-.07.19-.13.25-.2.51-.5,2.93-.86,3.26-2.08.35-1.18,1.57-1.03,2.76-1.18,1.19-.17,2.59,1.54,3.61,1.89,1.03.35,2.41.68,2.41.68,0,0,3.1.19,5.15.19s.88,1.35.88,2.21,1.88,2.07,2.05,2.58c.17.53,3.09,2.43,4.14,2.93,1.02.53,2.22,4.48,2.57,4.99.35.53,1.19,4.84,1.19,4.84l.86,2.91,1.74,2.41s.34,2.06,1.03,2.41c.69.33,2.39.51,3.43.87,1.03.33,1.88,1.53,3.26,2.93,0,0-.17,2.05-.67,2.22-.51.16,1.21,2.4,1.21,2.4.52-.5,1.37-.85,1.37-1.38,0-.5.86-1.71,1.72-2.05.85-.35,1.72,1.37,3.44,2.05.48.23,2.07.53,2.57.36.51-.16,1.72,2.42,2.94,2.92,1.21.53,3.44,2.58,3.94,2.76.51.16,5.36,1.38,7.41,1.89,2.06.51,2.23,1.9,2.23,1.9,0,0,2.74,0,3.45-.52.68-.51,1.54-.51,1.89-1.04.34-.51,1.04-.85,2.58-1.37,1.54-.5,1.38,1.37,2.57,1.72,1.19.34,1.73,0,2.25-.51.51-.51,2.23-.35,3.24-1.21,1.05-.85,0,0,1.05-1.2,1.01-1.2,2.05-1.71,3.26-3.11,1.19-1.37,3.26.35,4.12.35s2.92,1.21,3.44,1.38c.54.19,1.38,2.42,1.56,4.13.16,1.74,1.02,3.61,1.19,4.99.18,1.37,2.76,3.95,2.76,3.95,0,0,1.57,1.55,2.07,1.39.52-.18,3.44.52,4.65.16,1.19-.34,3.62-.16,3.95-.69.35-.5,1.73,1.72,2.24,2.24.51.52,4.99,1.55,6.54,1.55h6.18c.7,0,7.22,1.56,8.08,1.56s3.62.85,4.49.67c.86-.16,2.38,2.76,3.09,2.58.67-.15,2.4.3,3.74-.11.08-.01.16-.01.23-.03,1.36-.53,3.94-.17,4.97-.17s3.62.17,4.47-.71c.87-.88,3.78-.88,3.78-.88,0,0,4.65,1.22,5.18.7.5-.51,1.39-.15,2.21-.7.86-.5,2.26.19,3.11-.15.86-.35,2.59-.69,4.48-1.04,1.89-.35,1.54.51,2.57.51s2.06.35,3.11.17c1.01-.17,2.9.35,3.78.35s3.24-.18,4.1-.53c.87-.33,3.46-.16,3.46-.16l6.37-2.25s2.05,1.03,2.23,1.74c.17.67.52,1.02.67,2.22.19,1.21.86,2.05,1.22,2.76.33.7,2.06,1.02,2.57,1.02s1.04,1.73,1.72,1.9c.67.16.35,1.89,1.36,2.41,1.06.5,1.21,1.71,1.74,2.76.52,1.03,1.19,2.41,1.55,3.59.33,1.22,1.71,1.4,2.4,1.56.71.17,2.42,1.04,3.97.87.88-.1,1.27.52,1.6,1.02.22.36.43.65.8.53.86-.35,1.73,1.89,2.07,2.39.33.52,2.22,2.42,2.22,2.42,0,0,2.76,1.88,3.28,2.06.51.16,1.9,1.03,2.4,1.03s5.16,1.2,6.88.7c1.71-.54,4.64-.18,2.57,1.54-.7.57-.86.68-2.57,1.88-1.2.84-.71.51-1.73,1.03-1.04.53-1.72.69-3.11,1.04-1.36.35-4.29-.35-4.12,1.05.1.7,1.04,1.89,1.04,1.89,0,0,1.72,1.7,2.24,2.22.51.52.34,1.72,1.37,1.72s2.07,1.89,3.28,2.58c1.19.69,1.88,2.92,2.4,3.28.51.34,1.55,2.06,2.41,2.22.86.17,2.75,1.37,3.61,1.73.87.34,2.25,1.37,3.97,1.37s1.7.87,2.91.18c1.21-.69,2.4-1.38,4.29-3.11,1.9-1.73,3.45-.85,4.83-1.89,1.36-1.04,2.07-1.9,2.75-2.59.69-.69.36-2.04-.52-2.57-.86-.51.18-3.77.35-5.15.17-1.38,1.72-1.89,2.93-2.41,1.19-.52,1.36,1.2.87,2.05-.51.87.15,1.39.35,2.26.15.85,1.52,1.2,2.05,1.87.51.69.17,1.38-1.04,2.24-1.19.87-.17,1.71-.17,3.1s.88,2.25,1.38,2.92c.5.7.34,4.12.18,5.68-.18,1.55-.68,4.12-.68,4.12,0,0,.84,3.28.84,4.98s.7,2.95.35,4.14c-.35,1.21,1.21,5.02,1.03,5.52-.17.51-.85,9.46-.17,10.85.68,1.35,1.72,3.26,1.89,4.11.16.86,0,3.44-.17,3.94-.18.54,1.21,3.11,1.55,3.63.35.5.5,2.57.5,3.61s-.15,2.06,0,3.11c.19,1.02,1.92,3.08,2.6,4.64.69,1.56,2.23,3.76,2.39,5.33.19,1.56,1.57,2.95,2.26,3.95.68,1.05,1.54,1.72,2.24,3.28.69,1.55,1.53,4.64,1.37,5.49-.17.87,1.19,3.28,1.19,3.28,0,0,1.04,1.88,2.24,6.01,1.21,4.13,1.55,3.8,1.72,5.87.18,2.04,1.22,2.73,1.9,4.3.69,1.54,2.41,3.6,2.58,4.64.17,1.03,3.78,2.91,4.3,3.27.52.33,2.59,8.42,3.78,10.32,1.19,1.92,1.19,2.57,1.19,3.62s1.74,3.77,1.74,3.77c0,0,.69,3.59.52,4.8-.19,1.22-.52,3.13-.7,3.79-.2.7,2.57,1.54,3.79,2.58,1.19,1.03,1.55,2.77,1.36,4.82-.17,2.05,1.72,2.75,2.07,3.44.34.69,1.72,1.37,3.79,2.42,2.05,1.02,2.05,2.21,2.05,2.21,0,0,3.26-.5,4.29-1.03,1.04-.5,3.12-1.7,3.62-2.74.52-1.04,1.72-2.22,2.42-4.48.69-2.24.86-1.38,1.73-2.76.85-1.37,1.01,0,2.04,0s1.9,0,2.09-1.37c.16-1.37,1.37-.85,1.88-1.04.51-.16,3.79,0,5.33-.52,1.19-.38-1.03-.51-2.75-.84-1.71-.34-1.54-.34-2.92-1.04-1.36-.67,0,0-.16-3.08-.18-3.11,1.54-1.05,2.23-2.25.69-1.19,1.9-1.19,3.26-2.74,1.38-1.56,2.07-1.72,2.75-3.11.7-1.38,2.07-2.22,2.07-2.92s.36-1.54-.17-3.26c-.52-1.72-.52-1.2-1.37-3.11-.88-1.87,0-1.87-.17-3.25-.19-1.38.17-2.41.35-3.61.16-1.21,2.05-1.9,3.94-4.13,1.9-2.23.86-2.59,1.05-4.99.18-2.41.85-1.89.85-4.31s.34-2.74.17-4.46c-.17-1.71-.7-3.94-.85-5.51-.18-1.53-1.04-3.76-1.57-5.84-.5-2.06-.18-2.91,0-4.46.19-1.56.35-3.26,1.57-5.51,1.18-2.25,3.26-4.12,4.29-4.64,1.01-.52,2.4.69,2.93.85.51.18.68,0,2.05-1.2,1.39-1.21,1.21-1.54,1.21-2.93s.84-1.36,2.41-2.4c1.56-1.03,2.75.7,4.29.51,1.57-.17,2.93-.86,4.15-2.22,1.19-1.37.86-.52,1.01-2.23.17-1.75,1.06-2.25.71-3.45-.35-1.21,1.71-.33,4.12-1.88,2.4-1.55,1.54-.7,2.92-2.76,1.39-2.05,2.25-2.05,3.26-2.74,1.06-.7,3.28-1.72,4.14-2.74.86-1.06,2.4-1.74,2.55-2.26.19-.51,2.26-1.72,3.47-2.93,1.19-1.18,2.92-1.71,3.27-2.91.35-1.21,2.4-2.93,2.59-3.63.15-.68,2.38-1.35,3.24-2.74.88-1.38,2.76-3.28,4.3-5.36.35-.4,1.72,1.05,3.28.19,0,0,.67-.51,1.88-1.37,1.21-.85,1.9-.33,2.92-1.03,1.04-.7,1.56-.35,2.25-1.04.69-.69,1.22-1.03,1.55-1.54.35-.51,1.36-1.37,2.77-3.1,1.37-1.74,1.72-1.04,2.03-2.41.35-1.38.19-1.38-.15-3.26-.35-1.9.35-2.75-.15-3.95-.54-1.2,1.88-1.55,2.73-2.4.86-.85,2.93-.53,2.93-.53,0,0,3.61-1.88,5.33-2.06l1.04,1.75s2.74-1.38,3.59-2.26c.86-.86,1.57.69,1.57.69l4.13.18s.46.43,1.3.76c.78.32,1.92.49,3.34.09,0,0,2.25-2.08,3.61-3.78.43-.57,3.78-3.78,3.78-3.78,0,0,.51,1.71.69,2.93.17,1.18,1.55,1.02,2.58.32,1.04-.66,1.72.71,2.04.19.36-.5,2.26-2.05,3.13-2.58.84-.52,2.22,1.04,2.56,0,.33-1.03,2.25-1.53,2.92-2.91.69-1.37,1.72-.7,2.4-1.21.71-.51,2.58.86,3.11,1.04.53.17.86,2.24,1.2,3.62.35,1.37.52,3.43.35,4.8-.18,1.38,1.04,2.77,1.04,4.14,0,.37.22.9.52,1.5.62-.52,1.23.05,1.92-.33.63-.34.59-1,1.21-1.22.76-.3,1.77-.17,2.46-.5.37-.16.67-.36.93-.58-1.47,2.23-3.75,2.75-5.97,3.62.78,1.33,1.74,2.74,1.83,3.35l.86,1.89s1.56.35,2.07.35,1.72,2.24,1.9,2.93c.17.7,1.21,2.92,1.21,2.92,0,0,2.05,1.04,3.1.85,1.01-.17,2.05,1.38,3.08,1.21,1.03-.18,1.72,2.74,2.58,3.28.86.5,1.02,1.54,1.02,1.54,0,0,.35,2.4-.34,3.6-.68,1.21-1.36,4.13-1.36,4.13,0,0,.69,1.73,1.7,1.03,1.05-.68.7-.85,2.09-2.05,1.36-1.2,0,0,1.9-.52,1.87-.53,1,.69,1.21,1.38.15.69,2.05,7.38,3.23,11.01,1.21,3.59.7,2.24.35,3.44-.35,1.2-.35,2.4,0,3.09.35.7.51,6.55.16,7.39-.31.87-1.02,3.46-1.36,4.48-.35,1.04.7,2.4,1.36,2.22.71-.16,3.64.35,4.31.18.69-.18,3.97,2.41,5.33,2.23,1.36-.16,1.72-.49,2.23-1.52.52-1.06,2.42-2.08,2.93-2.61.53-.51,3.28-.51,4.14-1.2.84-.69,1.72-4.29,2.05-5.7.36-1.35,2.42-1.53,3.62-2.37,1.21-.85,1.9-3.11,2.75-2.59.86.53,1.21,1.74,1.03,3.09-.17,1.38,2.23,3.44,2.23,4.31s1.92.7,3.28,2.76c1.36,2.05.17,3.42,0,4.64-.18,1.2.69,3.94,1.03,4.82.33.87,1.54,3.1,1.73,4.31.17,1.2-.88,3.43-1.21,4.31-.34.85,1.02,3.42,1.02,3.42,0,0,1.21,1.37,1.72,1.9.53.52,1.72,2.93,1.72,7.39s1.54,2.58,1.54,2.58c0,0,1.04,1.03,1.9,1.73.87.69.71,2.22.71,2.75s1.01,3.44,1.19,4.48c.17,1.01.35,2.04-.51,3.09-.86,1.03-.52,1.03-1.56,1.21-1.04.18.52,3.61,1.04,4.46.52.85,1.38-1.56,1.9-1.38.51.17.51,7.08.16,9.47-.35,2.39.36,1.21-.35,2.07-.68.85-1.21,2.08-1.21,2.08,0,0,.43.31.88.7.37.35.8.68,1.03.82.51.36.35,2.61.35,2.61,0,0-1.73,2.91-2.42,3.42-.69.51-.69,2.74-1.57,3.95-.85,1.22-.66,1.91-1.01,2.76-.36.87.35,2.93-.19,4.32-.5,1.37-1.02,4.46-1.89,6.53,0,0,1.54.67,1.89,0,.34-.7,2.41.15,3.62.87,1.21.66,1.36,1.7,1.36,1.7,0,0,2.25,2.4,3.09,2.92.87.5,2.77,3.61,2.95,4.31.18.68.51,2.06.84,2.76.37.68,2.42,2.06,2.96,2.91.51.88,1.7,2.41,1.7,3.11,0,.27-.57.52-1.27.76-.98.32-2.2.59-2.52.76-.5.36,2.09,1.4,2.61,1.91.5.51,2.9.17,2.9.17,0,0,1.39-.17,2.07.86.71,1.03,1.55,2.08,1.55,3.78s-.34,3.47-.34,4.99,1.01,2.75,1.55,3.61c.5.88,1.03,3.79,1.03,5.69s-.35,2.4-.35,2.9c0,.53,2.42,3.1,2.76,3.8.35.66,3.78,5.85,3.61,7.06-.16,1.2,1.9,3.25,2.07,3.78.15.51,3.08,2.92,4.12,3.6,1.04.7,4.13,3.44,4.65,3.61.51.17,4.82,5.16,5.33,5.86.51.68,4.64,2.73,4.64,2.73l7.23,2.24,4.65,2.43s1.71-1.38,2.06-3.29c.32-1.88.52-1.7,0-3.28-.51-1.53-.69-1.68-1.9-3.07-1.19-1.4-1.72-2.58-2.4-3.11-.68-.51-.86-2.92-1.39-5.49-.51-2.57-2.05-2.08-3.77-4.3-1.71-2.25,0-2.41-.35-6.19-.34-3.8,0-3.11.35-6.19.34-3.11.84-2.93.68-5.01-.17-2.06-2.22-3.08-2.58-4.29-.35-1.2-2.57-3.96-3.44-4.99-.85-1.03-2.42-1.89-3.09-2.58-.69-.7-1.91-1.9-2.92-2.76-.89-.72-1.76-.6-2.83-.75-.22-.02-.41-.05-.63-.09-1.38-.36-.51-1.05-.69-3.11-.18-2.06-2.23-1.72-2.76-1.72s-2.75-1.9-2.75-1.9c0,0-.86-.16-2.58-1.22-.88-.5-1.22-.15-2.07-.83-.86-.7-1.19.33-2.06-.52-.88-.86-.88,0-1.55-.35-.7-.34-1.89-1.54-2.42-2.05-.5-.53-.7-1.74-1.54-2.6-.86-.84-.17-1.39-.17-2.05,0-.7-.69-3.11-.87-4.13-.17-1.03.87-.17.35-2.4-.52-2.24-2.23-1.56-2.42-2.26-.15-.67.19-.86-.33-1.71-.53-.88-1.39-1.73-2.76-3.26-1.37-1.55.33-.87.51-2.25.18-1.37-.51-1.37-1.37-1.89-.86-.51,0,0-1.39,0s-1.36.17-2.55-.87c-1.21-1.01-.86-1.71-1.39-3.09-.51-1.38,0-2.43,0-3.78s.18-4.29.53-5.5c.33-1.2,5.48-12.55,5.48-14.11s1.21-1.7,1.9-2.75c.7-1.04,1.04-2.22,1.04-3.77s.17-3.28,0-6.72c-.17-3.42,0-3.08.85-5.31.86-2.25,1.72-.53,2.75-1.4,1.04-.85,3.09-.35,3.95-.15.86.15,1.71,1.02,1.38,2.41-.35,1.37.33,3.09-.17,4.14-.51,1.02.5,2.73.7,3.42.16.68,6.35.5,7.73,0,1.37-.52,2.91,1.04,3.77,1.53.86.54,2.42,1.2,2.75,2.08.36.85,2.42,4.46,4.49,4.46.71,0,1.27.36,1.72.8.86.86,1.31,2.14,1.52,2.48.36.51,2.43,3.61,3.28,4.67.86,1.01.86,2.38,1.55,3.23.68.87,2.24,2.58,3.61,2.58s2.76,2.94,2.58,3.44c-.18.52.85,3.11.85,3.11,0,0,1.9-1.54,2.25-2.76.33-1.21,1.19.36,2.06.36s.85,1.19,1.71,1.38c.86.16,1.56,1.02,2.24,1.02s1.19,1.37,1.73,1.87c.5.53,1.36,1.05,1.71,2.07.34,1.04-.68,1.04-1.21,1.91-.5.87-1.04,2.58-2.05,4.29-1.04,1.71-.53,5.16-.18,6.03.33.86,1.54.86,2.05.68.52-.16,2.07-1.22,3.11-2.58,1.04-1.37,1.9-2.06,2.92-2.75,1.04-.69,3.78.34,6.03-1.88,2.24-2.21,1.71-2.06,1.71-2.06,0,0,1.21-.33,3.26-.33s1.21-.87.86-2.92c-.33-2.08-1.71-1.91-2.73-3.63-1.04-1.7.17-1.19.17-1.19,0,0,1.36-1.22,2.55-3.28,1.21-2.06,1.06-.67,2.78-2.75,1.71-2.06,1.19,1.21,1.36,1.71.17.54,1.54.54,2.93.86,1.36.36,3.44-1.03,5.15-1.71,1.72-.66,4.63-1.36,5.84-3.6,1.21-2.25,1.73-.7,4.47-2.61,2.75-1.87,4.14-2.54,5-5.31.85-2.75,1.21-2.75.5-3.96-.69-1.2.35-3.61.86-3.95.5-.35,1.72-2.4,2.23-4.81.52-2.41.7-1.38.35-2.41-.35-1.02-1.37-2.23-3.09-3.78-1.71-1.56.69-1.2-.18-4.47-.86-3.26-.86-4.47-.34-7.07.52-2.58-.33-2.71-1.73-5.48-1.36-2.76-1.21-2.25-1.38-4.15-.15-1.88-2.74-4.13-4.3-5.49-1.54-1.38-9.27-9.29-10.31-10.83-1.02-1.57-2.24-1.57-2.24-1.57,0,0-2.05-1.7-3.43-2.56-1.4-.84-.87-.53-.87-2.24s-1.04-1.2-3.09-3.1c-2.07-1.9-1.72-1.71-1.56-3.25.16-1.57-.16-1.04-1.03-2.77-.87-1.72-1.73-.88-3.1-2.4-1.37-1.56-1.21-1.03-1.55-1.71-.35-.7-.52-1.39-1.54-2.77-1.03-1.37-1.57-1.56-2.07-2.58-.51-1.02,1.54-.86,1.54-1.88s0-1.73-.33-2.58c-.35-.86,1.02-3.09,1.54-4.99.51-1.9,1.9-2.22,2.41-2.4.52-.18,4.12-1.91,4.82-3.26.68-1.38.18-3.46,0-3.98-.17-.51.18-.86.18-2.04s1.88-.87,2.74-1.74c.88-.85,2.25-.5,4.14-1.02,1.87-.51,1.87-.35,2.57-.86.69-.53,1.72-1.73,2.07-2.76.35-1.04,1.71-1.37,3.44-1.37.11,0,.24-.04.37-.04,1.51-.12,2.6-.89,3.07-1.69.51-.84,3.11-2.75,3.11-2.75l1.36,2.24,1.9,1.54s2.57,1.71,3.43,1.54c.86-.16,2.76-.34,2.93-1,.15-.71.67-1.75,1.52-1.92.88-.14,3.28,2.36,3.28,2.36,0,1.28-1.11,5.15-1.48,6.28-.35,1.08,1.29,2.74,1.29,2.74l3.86,3.89s2.97,0,3.34-.73c.37-.75.18-.94-.54-2.21-.75-1.33-1.12-1.86-1.87-4.05-.74-2.24,1.12-.93,1.67-2.42.55-1.5,1.47-2.03,2.41-2.95.91-.93,1.28.18,2.58.18s2.39.75,3.15.2c.72-.56,2.4-1.51,3.87-3.33,1.48-1.85,1.85.56,2.77.73.92.2,2.76-.36,4.06-.36s1.47.18,2.4-.2c.92-.36,1.64-.72,2.76-1.27,1.12-.56,1.3-1.1,2.59-2.03,1.29-.92,1.66-.92,2.58-1.29.91-.38,3.67,1.1,7.18,0,3.52-1.12,2.03-3.69,2.41-5.17.36-1.47,2.4.37,4.06.75,1.66.36,2.95.36,3.5-.75.55-1.1,3.14-1.66,3.71-2.01.55-.39,4.24-.19,6.44-.57,2.23-.37,3.86-.57,5.9-1.3,2.03-.72,2.78-1.28,4.63-3.13,1.85-1.83,1.85-1.65,4.05-4.96,2.23-3.34,3.68-2.05,5.71-2.77,2.04-.74,2.6-1.3,3.9-2.02,1.28-.77,2.01-1.13,2.92-2.06.94-.92.56-1.84-.16-2.75-.76-.93-.94-.55,0-1.65.9-1.12,2.21-.58,3.87-1.86,1.66-1.28,1.46-1.1,2.76-1.28,1.3-.21,2.05-.95,3.33-1.68,1.29-.73,2.39-2.03,4.42-4.62.41-.51,2.59-.54,3.33-1.09.73-.57.36-.94.18-2.42-.18-1.47-1.28-2.57-2.03-3.68-.74-1.1,1.11.19,2.21-.37,1.11-.55,1.85-.92,1.85-2.38s-.74-1.31,0-4.62c0,0,1.64.91,2.22,0,.56-.92.37-2.4.91-4.25.56-1.85,1.48-2.4,3.32-2.75,1.86-.38,1.86-1.3,2.58-2.24.75-.9,1.13-3.13.94-4.43-.19-1.28,1.28-2.76,1.64-3.32.39-.55,3.14-1.47,5.19-1.64,2.03-.21,1.1-2.04,1.83-3.16.75-1.07,2.03-4.95,1.49-6.23-.56-1.31-.74-2.61.18-3.71.91-1.11,4.23-8.68,4.23-8.68-.54.38-1.66.56-2.76,1.11-1.1.54-1.65.37-2.38-1.28-.75-1.68-1.1-2.57-1.66-3.31-.57-.76-1.31-.76-4.64-.57-3.31.17-2.38.17-1.48-1.47.94-1.66,1.85-.94,2.6-1.84.74-.93,3.52-1.65,4.24-1.85.76-.19,2.97-.56,4.06-2.03,1.12-1.48-.73-1.65-1.66-2.59-.91-.92-1.11-2.74-1.83-4.8-.73-2.03,2.03-1.11,2.94-1.28.91-.17.54-1.86.54-2.38,0-.58-2.03-2.05-2.77-2.79-.72-.75-2.01-2.05-2.76-2.96-.74-.93-3.14-.73-3.31-3.33-.21-2.55-1.12-2.76-1.86-4.41-.75-1.65-3.13-2.59-3.87-4.27-.75-1.65-.57-2.4-.57-4.24s-2.01-5.71-2.94-7.01c-.92-1.28-3.87-4.61-5.53-5.33-1.66-.74-1.47-.37-3.52-.94-2.04-.55-.91-2.03-1.47-3.5-.57-1.46.75-1.1,1.1-1.65.37-.57,2.42-2.42,3.51-3.49,1.11-1.13,1.48-2.98,2.94-4.46,1.47-1.47,3.69-2.37,4.26-2.95.55-.54,2.01-1.28,4.25-3.86,2.22-2.58,1.28-1.47,2.77-2.76,1.46-1.31,4.61-2.78,6.82-3.51,2.21-.75,2.94-.2,5.34,0,2.41.19,2.78-.94,4.61-2.03,1.86-1.12.37-3.32,0-3.89-.37-.56-1.47-.93-3.3-1.1-1.88-.2-2.97-.74-4.8-.37-1.85.37-2.4.37-3.34.54-.92.18-3.32-2.2-4.23-3.31-.92-1.11-1.49-2.4-2.23-2.57-.73-.21-2.21-.21-3.67-.21s-2.21,1.11-3.32,2.21c-1.11,1.13-4.8,2.97-6.29,4.63-1.49,1.66-5.53,1.66-5.53,1.66,0,0-1.66-.73-1.86-2.58-.17-1.85-.17-3.7.2-4.99.37-1.27-.37-1.65-.37-2.58s-1.1-1.65-2.01-1.84c-.94-.17-3.71.2-4.26-.73-.54-.94-1.28-.76-2.38-.76s-2.97-1.1-3.52-2.03c-.54-.91-2.4-1.66-2.22-4.41.19-2.79.37-2.79,1.31-4.06.91-1.28,2.94-.92,4.43-1.1,1.47-.18,5.33,0,6.8.35,1.49.38,2.79-1.28,4.08-3.34,1.28-2,1.47-2,2.21-3.3.74-1.29,2.38-1.84,2.95-3.14.56-1.29,2.6-1.67,4.06-2.21,1.47-.57,2.59-.93,2.75-1.49.19-.54,2.23-1.47,3.34-4.06,1.09-2.57,3.89-3.32,5.15-3.85,1.29-.57,4.99-1.5,7.21-.92,2.2.53,1.47.17,2.58.53,1.09.39,2.22,2.95,2.22,3.51s-.39,1.5-1.13,2.59c-.72,1.11-1.28,2.03-2.38,3.12-1.12,1.12-2.76,2.78-3.67,3.54-.93.72-1.87,3.68-1.87,3.68,0,0,2.03,1.47,2.79,1.47s.92.53.53,1.1c-.35.56-2.58,3.51-3.13,3.51s-3.15,2.93-3.15,2.93c0,0,2.95.93,4.83-.9,1.84-1.85,1.84-1.48,2.92-2.03,1.12-.55,3.53-1.84,6.64-4.24,3.15-2.41,5.16-2.97,6.83-3.88,1.66-.92,3.52-.2,4.25-.37.72-.18,7.38-2.39,8.3-1.66.54.43,1.1.93,1.92,1.26.54.23,1.25.4,2.14.4,2.2,0,6.1,1.11,7.38,1.48,1.29.36,1.84,1.85,1.66,3.31-.19,1.5-.19,4.97-1.29,6.09-1.1,1.11-1.46,1.84-2.77,2.95-1.29,1.12-1.29,5.35-1.29,7.19s4.81,3.88,6.26,4.44c1.49.55,1.12.73,1.66.18.58-.56,2.03-1.46,3.69-2.02,1.66-.58,4.44.35,5.54.92,1,.49.94,1.61.65,2.49-.05.09-.07.17-.11.28-.37.9,1.84,3.49,2.76,3.67.93.2.56,4.8-.17,4.97-.74.19-6.27.19-6.27.19,0,0,4.81,5.92,3.14,6.65-1.67.74.92.74.92.74l2.03,5.72s-.57,6.46-1.66,7.4c-1.12.9-5.18,5.17-6.27,6.25-1.12,1.13-.57,4.63-.57,5.19s2.78,1.48,3.13.89c.39-.52,4.99-5.52,4.99-5.52l.19,5.17,5.35-3.13,3.5-.75s2.01.54,2.01,0,3.71-3.7,4.27-3.87c.54-.21,2.57-.92,3.86.35,1.3,1.3,2.03.94,2.6.94s3.14-.94,4.04-2.95c.94-2.02,4.62-2.23,5.55-2.23s4.43.37,4.43.37l-1.65-2.02s-.38-2.03-.75-3.13c-.35-1.13-2.4-2.59-2.96-3.71-.56-1.11.93-4.05,1.3-4.6.36-.57-2.03-10.89-2.22-12.18-.17-1.31-1.47-2.79-1.47-3.71s-2.22-2.58-2.57-3.31c-.39-.76-4.8-4.25-5.35-4.43-.56-.19-.19-2.77,0-3.69.06-.35-.25-.83-.68-1.28-.73-.77-1.72-1.5-1.72-1.5,0,0-3.52-3.31-4.62-3.68-1.11-.39-3.51-4.81-3.88-5.74-.36-.9,1.11-2.39,1.83-3.3.77-.94,1.49-2.97,2.24-5.34.74-2.4,3.51-2.24,4.97-2.95,1.49-.74,4.82-2.97,6.82-1.84,2.03,1.1,5.17-3.51,5.17-4.26s3.52-11.79,4.44-12.17c.91-.35,1.49-2.03,2.2-3.68.74-1.68,4.24-4.06,5.55-5,.57-.42,1.51-1.03,2.4-1.55,1.1-.66,2.16-1.21,2.57-1.21.75,0,4.61-3.51,4.61-4.05s4.8-6.29,4.8-6.29c2.58,0,1.12,3.69,2.58,3.5,1.48-.17,1.09-1.1,2.03-1.66.91-.54.62,2.02,4.78,3.9,3.71,1.65,5.53,3.31,7.21,3.49,1.64.18,4.98-3.32,4.98-3.32,0,0,3.32-.74,4.62-1.84,1.29-1.11,5.72-4.62,6.82-6.28,1.12-1.65,3.88-3.69,5.36-5.36,1.47-1.66,3.69-3.49,5.72-5.89,2.03-2.41,7.94-7.95,7.94-7.95,0,0,3.31-3.3,4.6-4.78,1.29-1.48,8.87-9.24,10.15-10.34,1.29-1.09.54-2.23,1.47-3.88.92-1.65,2.77-3.68,3.89-5.16,1.1-1.47,1.29-3.33,3.13-7.56,1.86-4.24,1.29-2.4,2.77-3.68,1.47-1.31,4.24-2.6,4.24-2.6,0,0,3.88-4.43,5.17-5.91,1.3-1.48,4.24-5.53,4.24-5.53,0,0,1.46-6.28,2.03-7.95.55-1.65-.37-3.32-.18-4.22.18-.93.9-3.34,1.1-4.99.2-1.67.2-4.25.55-5.73.39-1.44-1.09-5.52-1.29-6.65-.17-1.1,2.03-5.52,2.6-6.62.54-1.12,6.27-15.51,6.27-16.07s1.48-2.93,1.48-2.93c0,0,.18-4.79-.57-5.73-.74-.93-1.66-4.24-1.29-5.17.37-.91,2.03-2.76,1.66-3.31-.37-.55-3.14-2.03-3.14-2.03l-2.58-2.95s-7.01-2.93-7.56-3.31c-.57-.39-2.03-5.54-3.32-6.47-1.29-.92-3.32-.54-3.88-.54h-4.06l-3.5,1.29-.92,2.93s-2.03,2.97-2.95,4.27c-.91,1.27-3.15,2.02-3.69,1.65-.57-.38-2.4,1.11-3.89,1.11s-2.2.2-2.03-.55c.2-.75,2.03-2.38,2.03-2.38,0,0-.17-1.84-.92-2.6-.74-.73-1.65-1.28-1.65-1.28,0,0-.2-3.14-.38-3.68-.16-.58,2.95-1.68,2.95-1.68l.94-1.49s-1.49-.71-2.03-.35c-.58.35-3.52,2.57-2.97,2.57s-1.29,3.31-.74,3.31-1.1,2.41-1.46,3.14c-.37.75-2.22.75-3.69.56-1.49-.19-1.84-1.48-1.84-1.48-.19-.91.35-4.97.72-5.72.37-.75,0-1.85.94-2.75.91-.94-.94-1.11-1.12-1.86-.19-.74-3.13-.18-3.13-.18,0,0-2.77.73-3.51.55-.75-.18-2.4,0-3.32-.18-.94-.19-2.59-.93-3.52-1.47-.91-.54-2.21-.75-2.21-2.8,0-1.14,1.29-1.09,2.21-2.02.93-.92,1.68-.92,3.15-2.02,1.46-1.1,1.3-1.28,2.95-2.76,1.66-1.48,1.83-1.31,2.58-2.21.74-.96,3.14-1.5,4.8-2.96,1.66-1.5,2.57-1.68,4.42-3.13,1.85-1.47,1.48-.92,2.22-1.47.74-.57,1.84-1.31,5.55-3.33,3.67-2.03,1.46-1.84,2.03-4.43.54-2.59,0,0,1.83-1.1,1.87-1.1,1.49-.73,2.78-2.76,1.29-2.02,1.49-1.3,3.67-4.06,2.22-2.77,3.32-2.77,6.47-4.61,3.14-1.85,3.88-2.58,3.88-2.58,0,0,4.24-2.41,6.07-4.25,1.87-1.84,1.49-.74,2.78-1.84,1.3-1.13,0,0,1.3-2.21,1.3-2.25.36-1.49.56-2.4.17-.93,1.09-1.48,2.38-2.78,1.29-1.28,1.29-.37,4.06-1.65,2.78-1.3.94-.93,2.4-2.41,1.48-1.47,1.86-1.84,3.69-4.25,1.85-2.39,4.25-3.32,5.7-4.6,1.49-1.29,0,0,3.17-.74,3.13-.74,4.42-1.31,5.9-2.02,1.49-.74,4.43-.74,5.36-.92.92-.19,7.19,2.04,9.76.73,2.6-1.29,3.34,0,5-.73,1.64-.75,4.06-.56,4.61-.56s3.5,1.29,4.6,1.49c1.12.18,1.66,2.76,2.78,1.85,1.1-.94.91-1.49,1.66-2.42.71-.91,2.38-1.65,4.43-2.02,1.64-.3,2.44,1.48,3.39,2.36.21.19.43.35.66.42,1.3.36,2.21,1.47,2.21,1.47,0,0,2.76-.37,6.65-2.94l1.83,1.09,1.47,2.39s3.71-1.28,4.82-2.94c0,0,4.96-1.49,6.27-3.14,1.28-1.67,2.57-2.41,4.06-2.95,1.46-.55,3.48.37,5.14.37s2.4,1.49,4.07,1.84c1.68.37.92,1.67,2.41,2.4,1.49.74,1.26-.92,4.04-2.75,2.77-1.86,2.23,1.28,2.97,1.45.75.2,9.78,5.55,9.78,5.55,0,0-2.4-.17-3.51-.37-1.12-.18-3.15-.18-3.15-.18,0,0-2.96,1.84-4.97,2.95-1.59.87,1.28,2.03,1.85,2.4.55.38,2.39.38,3.88-.17,1.48-.57,1.28.91,2.58.55,1.28-.38,1.83-.38,2.77-.94.94-.54,2.03-1.28,3.52-.91,1.48.38,1.66,1.3,2.95,1.3s1.11.55,2.94-1.13c1.84-1.65,2.39-2.21,3.32-2.93.91-.73,2.22-1.47,3.13-1.47s2.4,1.65,2.77,2.58c.37.93,1.11.93,2.4-.75,1.29-1.66,1.86-1.09,2.95-1.47,1.11-.36,2.77.73,4.98.73s3.31-.54,3.88-.73c.55-.18.92-1.28,1.29-1.84.37-.55-.19-1.66-.37-2.4-.19-.76-2.2-1.31-2.77-1.49-.56-.18-3.33,1.1-4.62.93-1.29-.2-2.59-.2-2.59-.2,0,0-.18-2.93-.35-4.43-.19-1.46.75-1.84,1.48-2.76.73-.91,1.1-.91,1.64-2.21.54-1.3,2.22-2.39,3.71-3.85,1.44-1.49,2.76-2.79,3.13-3.35.37-.54,3.51-1.47,5.35-2.95,1.83-1.47,2.57-2.4,3.88-3.88,1.27-1.46,7.36-5.89,10.14-8.65,2.77-2.78,1.28-1.31,2.57-2.4,1.29-1.13.92-.73,3.69-2.6,2.77-1.84,1.12.18,2.03-.18.92-.38,1.66,0,2.95-.2,1.29-.17,1.48.38,2.57.2,1.14-.2,2.03.57,3.15.57s1.45,0,2.59-.57c1.1-.55,1.45-1.11,3.13-2.04,1.66-.89.74.76,1.84.76s1.28.55,1.65,1.28c.38.75,1.49,1.29,3.34,1.29s1.47,1.66,2.58.92c1.09-.74.35-1.09,1.84-2.6,1.48-1.47,1.28.38,2.03.17.74-.17,2.23,1.34,1.83,2.26-.35.91-2.78,2.75-3.5,3.48-.75.75-1.66,3.51-2.2,4.44-.55.93-.2,2.59.35,2.59.58,0,2.96-.18,4.08-.18s1.09,1.65,1.09,1.65l-2.75,3.68s1.27.92,3.13.19c1.86-.74,2.57-.91,3.69-2.02,1.11-1.12,1.86-1.29,4.43-2.96,2.57-1.67,2.2-1.67,2.2-1.67,0,0,3.89-1.1,5.73-2.58,1.84-1.47,1.29-1.28,2.2-2.39.92-1.1-.17-.92,1.11-2.23,1.09-1.06,2.3-1.63,3.63-.9.28.13.54.3.8.54,0,0,2.38.75,3.32.57.93-.21,2.2-.57,2.77-1.48.56-.93-.93-.73-2.03-1.13-1.11-.36-.91-.9-.91-2.2s.69-2.95,1.46-4.43c.74-1.47,2.21-2.76,3.69-4.8,1.48-2.02,1.28-.91,3.32-2.02,2.03-1.12,0,0,.56-.94.55-.92,1.47-2.02,2.39-2.2.91-.21,3.89-.92,4.62-1.11.71-.18,2.21-.56,4.23,1.49,2.03,2.03,5.36,1.64,3.71,2.38-1.67.75-3.32-.74-3.32-.74,0,0-1.49,1.49-1.86,2.05-.38.55-2.76,1.46-3.5,1.46s-1.12,1.87-1.31,2.6c-.18.73-1.66,2.57-1.66,3.89s-.18,3.11-.54,4.22c-.37,1.11-.55.76-.91,1.48-.38.72-1.12,2.58-1.12,3.68s.19,1.86.19,3.13-1.13,2.58-1.68,3.14c-.54.57-1.29,1.3-2.02,1.47-.72.18-1.29,1.11-1.84,1.31-.54.17-1.28.91-1.83,1.1-.56.18-2.77,1.48-3.34,1.85-.54.35-2.57,1.28-3.48,1.46-.92.19-2.22,1.46-3.33,1.84-1.11.38-1.48.75-2.03.75s-1.1.91-2.21,2.38c-1.12,1.49-1.29,2.4-1.48,2.97-.18.55-3.33,2.75-3.89,3.13-.54.38-1.1,1.28-1.27,1.84-.19.57-2.22,1.5-2.94,2.23-.75.76-2.78,1.48-4.44,2.58-1.65,1.12-3.52,3.51-3.52,3.51,0,0-8.3,9.41-8.84,10.32-.57.93-3.32,1.68-4.98,3.16-1.68,1.45-1.68,1.82-2.75,2.57-1.14.74-3.17,1.47-3.17,1.47,0,0-2.21,1.11-2.77,1.48-.54.37-1.83,1.12-2.58,1.67-.73.53-6.81,3.48-7.57,3.3-.74-.17-4.43.76-4.43.76,0,0,2.03,3.3,2.03,4.24s-.17,1.86-.54,2.57c-.37.76-1.29,1.86-2.41,3.69-1.11,1.85-2.01,2.23-3.31,3.14-1.32.91-1.86,1.67-3.15,2.59-1.27.91-1.66,2.76-2.2,3.68-.54.93-1.28,4.43-2.2,5.53-.93,1.13-.74,3.33-.93,4.6-.19,1.31-.93,5.73-1.1,7.4-.19,1.67.74,6.07,1.1,8.67.37,2.58,1.47,6.46,2.22,7.21.74.73,2.38,8.85,2.21,9.76-.17.94.37,8.5-.36,9.97-.76,1.48,1.11,3.5,2.21,4.6,1.09,1.11,1.29,3.14,1.46,6.84.2,3.69-.18,4.96.2,6.99.37,2.04,2.4,6.09,2.4,7.57s1.08,5.72,1.83,4.8c.74-.91,1.66-1.3,2.77-3.32,1.1-2.03,2.76-2.4,4.42-4.43,1.67-2.01,5.54-2.94,6.83-3.5,1.29-.55,3.32-3.69,3.52-5.34.17-1.67,1.09-3.69,1.09-6.46s2.03-4.25,2.58-4.43c.56-.17,2.22-1.83,3.71-4.24,1.47-2.4,4.41-2.21,5.33-2.4.92-.18,4.97,1.31,5.53-.53.56-1.85,0-1.68-.55-3.51-.54-1.86-.16-4.25-.35-6.29-.2-2.03,2.03-3.87,2.93-5.17.93-1.28,3.51-1.84,5-3.7,1.47-1.83,2.57-.53,4.06-.9,1.47-.38,5.53,0,6.64-.56,1.11-.55,5.7-2.95,6.09-4.06.35-1.09-.93-1.85-1.68-3.14-.72-1.29-2.38-1.64-3.13-3.67-.74-2.02-.18-2.21.55-4.64.74-2.38,1.66-1.65,2.77-2.93,1.1-1.31,2.21-5.73,2.4-6.47.2-.72,3.13-2.94,3.87-3.31.74-.37.37,2.03.17,3.13-.17,1.1,2.22,2.59,2.22,2.59,0,0,4.78-2.42,5.35-3.52.54-1.1,1.09-1.84,1.09-3.33s-1.66-3.68-2.57-3.85c-.93-.2-2.98-1.31-2.98-1.31,0,0,.4-1.82-.89-2.94-1.29-1.11-.57-2.76-.37-4.62.19-1.86,2.94-3.69,4.24-4.79,1.28-1.1.56-2.4.56-3.14s-5.72-2.94-6.46-2.77c-.75.17-2.03,1.67-2.95,2.4-.93.73-2.21-1.09-2.95-1.28-.74-.2-1.48-3.32-2.4-5.18-.92-1.83,2.76-3.48,3.69-5.88.92-2.42,3.86-2.25,5.16-4.45,1.3-2.2,3.34-3.48,4.42-5.34,1.13-1.85,6.48-10.88,6.48-10.88,0,0,1.48.37,2.94-.74,1.49-1.1,3.32-.92,3.32-.92,0,0,3.13,1.48,5.18,2.04,2.03.54,3.48-.2,4.41-2.58.94-2.42,3.32-2.05,5.74-3.71,2.38-1.63,4.06-3.12,4.96-3.87.94-.76,1.09,4.24.94,4.79-.2.57-.94,7.56-.94,7.56,0,0,2.03-1.66,2.77-3.69.74-2.02,3.32-2.76,4.98-4.05,1.66-1.31,4.43-1.66,6.46-2.96,2.01-1.28,4.24-2.58,4.98-3.87.72-1.29,3.87-.19,5.54,0,1.66.19,5.52-.19,6.62-.37,1.11-.17,3.52-.17,3.52-.17l9.96,12.54s1.1-.56,1.49-2.21c.37-1.67.37-2.42.54-4.26.18-1.83,2.4-2.03,3.13-2.76.74-.73,5.18-2,6.09-3.14.91-1.1,4.43-3.51,4.61-4.81.2-1.28,2.4,0,2.97.38.54.37,4.06-2.2,5.9-4.79,1.83-2.58,5.89-4.98,7.56-7.19,1.66-2.21,4.8-.93,6.65-1.48,1.84-.54,5.71-1.5,6.63-1.29.93.18,7-2.93,7-4.8s5.91-2.4,6.64-2.58c.74-.17,6.46-1.29,6.46-1.29,0,0,7.38-4.43,7.57-5.72.19-1.29,2.42-2.77,3.14-2.38.74.36,5.92,3.85,7.37,4.42,1.5.56,8.88,2.4,10.35,2.76,1.49.37,3.52-1.09,4.06-2.58.56-1.47.75-2.76,1.66-4.24.92-1.47,1.12-2.21,1.29-4.24.19-2.04-1.29-2.21-1.84-3.88-.56-1.65-4.63-3.31-5.18-3.31s-4.97-2.96-4.97-2.96c0,0,3.88-3.33,3.88-3.88s-.93-4.96-.93-5.53-3.5-3.51-3.5-3.51c0,0-2.77,1.66-2.57.19.17-1.46-2.97-1.46-3.52-.92-.56.55-2.6-.35-3.32-.93-.74-.56-2.03-2.77-1.84-3.51.18-.73-1.47-2.76-2.22-2.76s-2.77,2.2-3.49,2.58c-.75.38-4.07-.94-5.56-2.77,0,0,.55-.91,2.78-1.11,2.2-.2,4.23.72,4.06-.37-.19-1.1-1.86-1.85-.73-2.59,1.09-.73,4.8,1.5,5.72,2.41.91.93,5.72,3.14,8.29,4.06,2.59.92,5.9.92,7.38,1.29,1.47.39,3.87-2.39,9.4-6.07,5.55-3.69,5.92-2.79,6.85-3.51.9-.74,3.3-3.7,4.04-6.64.75-2.95-.74-2.04-3.88-5.53-3.13-3.51,0-2.58.56-4.98.55-2.41,5.18-4.62,6.07-5,.93-.35,5.92,0,6.84,1.65.94,1.68-.55,3.89-1.46,6.12-.93,2.21.72,4.61,1.66,6.82.91,2.2,2.23,1.14,6.09,1.14s4.95-.21,7.36-1.14c2.4-.91,3.69.54,7.37.54s4.64.94,6.47,1.87c1.83.93,1.29,2.2,1.83,5.33.56,3.15,1.29,2.58,3.72,3.88,2.38,1.31,1.29,1.31,3.5,1.46,2.2.2,4.43,1.31,6.46,2.78,2.01,1.48,3.5,1.48,4.61,2.41,1.1.92,5.36,2.4,6.45,1.83,1.13-.53,1.49-4.41,1.49-4.41l2.57,7.01s1.85.17,2.2-.94c.37-1.1-.71-.92-.17-2.03.54-1.1,2.78.18,3.52.57.72.37,3.86-.21,3.32-1.86-.58-1.66-2.41-1.1-3.71-1.82-1.29-.76.74-1.68.74-1.68,0,0,4.8.36,5.35-.18.56-.56-.15-1.1-1.66-2.03-1.47-.93-1.66-.37-1.84-1.65-.17-1.31,1.12-1.49,2.78-1.31.44.05.69.13.83.17-.05-.07-.11-.17-.11-.35,0-.73.92-1.11.74-2.58-.18-1.49-.18-1.1-.89-2.42ZM-1222.92,449.2l-3.1.69s-.69,1.03-5.5-.34c-2.34-.67-5.85-2.75-5.85-2.75,0,0-2.06,2.75-2.75,3.78-.69,1.03,0,5.5,0,5.5,0,0-.69,4.13.69,4.13s3.78-1.03,4.82-1.03,4.47,5.85,4.47,5.85c0,0-2.41-.34-3.78-.69-1.38-.34-1.72,4.47-1.72,4.47,0,0-1.03,2.75,2.41,0,1.11-.89,5.5,2.41,6.19,3.78.69,1.38-.69,4.13-.69,4.13,0,0-.34,15.14-.34,16.51s1.72,7.57.34,6.88c-1.38-.69-3.44-1.03-4.47-.34-1.03.69-7.57,1.38-8.6,1.38s-6.54.34-8.26-.69c-1.72-1.03-5.85,1.03-7.22-.34-1.38-1.38-6.54-1.38-7.91-2.41-1.38-1.03-3.44-2.41-3.78-4.47-.34-2.06-2.41-3.44-4.47-2.41-2.06,1.03-4.13-.34-8.26-1.72l-.69-3.44-.34-3.44-.34-4.13c1.38-1.38-.34-2.41,0-3.44.34-1.03-.69-3.1-.69-3.1l5.16-3.44s-1.03-1.72-.69-5.85c.1-1.24,4.47-2.75,4.47-2.75,0,0,1.03-2.06.69-4.82l-3.78-5.16-2.41-3.44-2.75-5.16s-1.38-3.44-1.38-4.47-4.82-4.47-4.82-4.47l-3.1-4.13s-1.38-2.06-3.1-5.85c-.73-1.6-2.41-2.41-3.44-4.47s-2.06-2.75-2.06-2.75c0,0,4.47-3.78,5.5-4.82,1.03-1.03.34-1.72-4.47-3.44-2.05-.73-2.06-4.13-4.82-4.47-2.75-.34-2.41-.34-3.44-2.41-1.03-2.06,1.72-.69,3.1-2.06,1.38-1.38,1.38-1.72,2.41-4.13,1.03-2.41,3.1-4.82,3.44-6.19.34-1.38,0-3.44,0-3.44,0,0,2.41.34,4.82.34s5.16-2.41,6.54-2.41,3.78,2.06,2.41-.69c-1.38-2.75,0,0,3.44-2.06,1.06-.64,1.72-1.03,3.78-5.16l5.16-3.1c1.03-2.06,4.82-2.41,5.85-2.75,1.03-.34,5.16-1.38,6.19-3.1,1.03-1.72,4.47-.69,5.5-.34,1.03.34,5.16,2.75,5.16,2.75,0,0,3.78,1.38,4.47-1.03.69-2.41,6.19,0,6.19,1.38s3.1,4.82,3.1,4.82c0,0,1.03,3.1.69,4.82-.34,1.72-1.03,4.13-2.06,5.16-1.03,1.03-.34,2.41,0,4.13.21,1.03,1.9,2.68,3.07,3.61-1.35-.26-3.53-.1-4.79-.86-1.72-1.03-9.63-1.72-10.66-1.72s-4.47,0-6.19.34c-1.72.34-3.1,5.16-4.47,5.16s1.03,3.1,1.03,3.1c0,0,4.47,3.44,3.1,3.44s-9.29-1.72-11.01-1.72-1.72,4.47-1.72,4.47c0,0,4.47,1.03,5.5,1.03s2.06,1.72,2.06,1.72c-.69,1.38-2.06,2.41.34,3.1,2.41.69,3.44,1.38,3.44,1.38v6.54s1.38.69,4.82,2.75c1.32.79,2.06,3.1,4.13,2.06,2.06-1.03,4.47,1.38,5.85,2.41,1.38,1.03,2.41,2.41,1.38,4.13-1.03,1.72-2.75,4.13-2.75,6.19s-.69,3.44,1.03,6.19c1.72,2.75,2.75,6.53,3.1,4.47.34-2.06,0-3.1,1.38-6.88,1.38-3.78,3.1-5.85,3.1-5.85,1.38-.69,6.88-1.38,6.88-1.38,0,0,0,1.72-1.03,3.78-1.03,2.06,3.1,3.44,6.54,7.22.95,1.05,3.44,3.1,3.44,3.1l1.38,3.44-4.82,1.38Z"/>
    </g>
  </g>
  <g>
    <circle class="cls-4" cx="300" cy="300" r="227.71"/>
    <g>
      <rect class="cls-3" x="189.89" y="255.5" width="47.2" height="151.84"/>
      <path class="cls-3" d="M213.51,234.75c-15.11,0-27.36-12.24-27.36-27.36s12.24-27.37,27.35-27.37,27.36,12.24,27.37,27.36-12.24,27.36-27.36,27.37Z"/>
      <path class="cls-3" d="M413.84,407.34h-47.15v-73.83c0-17.61-.31-40.27-24.52-40.27s-28.31,19.18-28.31,38.99v75.11h-47.15v-151.83h45.26v20.75h.63c9.23-15.78,26.39-25.21,44.66-24.53,47.79,0,56.59,31.43,56.59,72.32l-.02,83.29Z"/>
    </g>
  </g>
</svg>