<?xml version="1.0" encoding="UTF-8"?>
<svg id="Capa_1" data-name="Capa 1" xmlns="http://www.w3.org/2000/svg" version="1.1" viewBox="0 0 84 84">
  <defs>
    <style>
      .cls-1 {
        fill: #01a28b;
      }

      .cls-1, .cls-2 {
        stroke-width: 0px;
      }

      .cls-2 {
        fill: #fff;
      }
    </style>
  </defs>
  <circle class="cls-1" cx="42" cy="42" r="42"/>
  <g>
    <path class="cls-2" d="M59.3,37h-7.4c0,.6.2,1.2.2,1.9,0,.8-.5,1.4-1.3,1.5-.8.1-1.5-.4-1.7-1.2,0-.2,0-.3,0-.5,0-.5-.1-1-.2-1.4,0-.1-.2-.3-.3-.3-4.4,0-8.7,0-13.1,0-.1,0-.3.2-.3.3-.5,2.8-.5,5.6,0,8.4,0,.3.3.3.5.3,2.1,0,4.2,0,6.2,0,1,0,1.6.8,1.5,1.7,0,.8-.8,1.3-1.6,1.3-1.7,0-3.5,0-5.2,0-.2,0-.3,0-.7,0,.5,1.2,1,2.4,1.5,3.5,1.4,2.8,3.2,5.2,5.6,7.2.5.4.7,1.1.4,1.7-.2.7-.8,1-1.5,1-4.8,0-9.2-1.6-12.9-4.6-4.4-3.5-7-8.1-7.7-13.6-1-7.8,1.8-14.1,7.7-19.1,2.8-2.4,6.2-3.9,9.8-4.4,5.6-.8,10.9.4,15.5,3.8,5.2,3.7,8,8.8,8.7,15.1.2,2.3,0,4.5-.5,6.7-.2.9-1,1.4-1.9,1.2-.8-.2-1.3-1-1.1-1.9.6-2.8.7-5.6,0-8.4,0,0,0-.1,0-.2ZM42,24.1c-2.8,2.8-4.8,6-6.1,9.8h12.1c-1.2-3.8-3.2-7-6-9.8ZM32,37h-7.4c-.8,3-.8,5.9,0,8.9h7.4c-.5-3-.5-5.9,0-8.9ZM58.2,33.9c-1.7-4.5-7.9-9.6-12.1-9.8,0,0,0,.1.1.2,2.2,2.8,3.9,5.9,4.8,9.3,0,.3.2.3.4.3.9,0,1.8,0,2.7,0,1.3,0,2.6,0,4,0ZM37.8,58.8c0,0,0-.1-.1-.2-2.2-2.8-3.9-5.9-4.9-9.3,0-.3-.2-.3-.5-.3-1.1,0-2.2,0-3.4,0-1.1,0-2.1,0-3.2,0,1.1,4,7.7,9.4,12,9.8ZM25.8,33.9c0,0,.1,0,.2,0,2.1,0,4.3,0,6.4,0,.3,0,.4-.2.4-.4.9-3,2.3-5.7,4.1-8.2.3-.4.6-.8.9-1.2-3.8,0-10.2,5.3-12,9.7Z"/>
    <path class="cls-2" d="M58,54.7c.5,1.1,1,2.1,1.4,3.1.2.5.4,1,.4,1.5,0,1.1-.5,1.9-1.5,2.4-1.1.6-2.3,1.1-3.5,1.6-1.4.6-2.9,0-3.6-1.4-.3-.5-.5-1.1-.7-1.6-.2-.5-.5-1.1-.8-1.7-.3.3-.5.6-.8.9-.9,1-2.1,1.3-3.2.8-1.1-.5-1.8-1.5-1.7-2.8.2-2.7.5-5.5.7-8.2.2-1.9.3-3.8.5-5.6.3-2.2,2.5-3.2,4.4-2,1.9,1.3,3.7,2.6,5.5,3.8,1.9,1.3,3.9,2.7,5.8,4,1.1.8,1.5,2,1.1,3.2-.4,1.1-1.3,1.8-2.6,1.9-.4,0-.8,0-1.3,0ZM47.1,56.7s0,0,0,0c.5-.6,1.1-1.2,1.6-1.8.9-1,2.1-.8,2.7.4.5,1.1,1.1,2.3,1.6,3.4.2.5.5,1.1.8,1.6.9-.4,1.9-.9,2.8-1.3,0-.2-.1-.3-.2-.5-.7-1.5-1.4-3-2.1-4.5-.1-.3-.2-.7-.2-1.1,0-.7.7-1.2,1.5-1.2.9,0,1.7,0,2.6,0,0,0,0,0,0-.1-3.3-2.3-6.7-4.7-10-7-.4,4.1-.7,8.2-1.1,12.2Z"/>
  </g>
</svg>