<?xml version="1.0" encoding="utf-8"?>
<!-- Generator: Adobe Illustrator 28.1.0, SVG Export Plug-In . SVG Version: 6.00 Build 0)  -->
<svg version="1.1" id="Capa_1" xmlns="http://www.w3.org/2000/svg" xmlns:xlink="http://www.w3.org/1999/xlink" x="0px" y="0px"
	 viewBox="0 0 481 22.5" style="enable-background:new 0 0 481 22.5;" xml:space="preserve">
<style type="text/css">
	.st0{fill:#FFFFFF;}
</style>
<g>
	<path class="st0" d="M193.7,10.4C193.6,10.4,193.6,10.4,193.7,10.4C193.6,10.4,193.6,10.4,193.7,10.4
		C193.6,10.4,193.6,10.4,193.7,10.4L193.7,10.4L193.7,10.4l-30.5,0l-6.9-5.3c-0.2-0.2-0.5-0.3-0.8-0.3h0H72.7
		c-0.5-0.9-1.4-1.5-2.4-1.5c0,0,0,0,0,0c0,0,0,0,0,0c-1.5,0-2.8,1.2-2.8,2.8s1.2,2.8,2.8,2.8c0,0,0,0,0,0c0,0,0,0,0,0
		c1,0,2-0.6,2.4-1.5h82.4l6.9,5.3c0.1,0.1,0.1,0.1,0.2,0.1c0.1,0,0.1,0.1,0.2,0.1c0.1,0,0.2,0.1,0.3,0.1h0h30.8h0
		c0.7,0,1.3-0.6,1.3-1.2C194.8,11,194.3,10.5,193.7,10.4z"/>
	<path class="st0" d="M480.5,10.4h-192c-0.7,0-1.2,0.6-1.2,1.2c0,0.7,0.6,1.2,1.2,1.2h192c0.3,0,0.5-0.2,0.5-0.5v-1.5
		C481,10.6,480.8,10.4,480.5,10.4z"/>
	<path class="st0" d="M93.7,17c-1,0-2,0.6-2.4,1.5H26.1L1.2,0.2C1,0.1,0.8,0,0.5,0C0.2,0,0,0.2,0,0.5v1.7c0,0.2,0.1,0.3,0.2,0.4
		l24.7,18.2c0.2,0.2,0.5,0.2,0.7,0.2c0,0,0.1,0,0.1,0h65.5c0.5,0.9,1.4,1.5,2.4,1.5c1.5,0,2.8-1.2,2.8-2.8
		C96.5,18.2,95.2,17,93.7,17z M25.7,20.5L25.7,20.5L25.7,20.5L25.7,20.5z"/>
</g>
</svg>
