<?xml version="1.0" encoding="UTF-8"?>
<svg id="Capa_1" data-name="Capa 1" xmlns="http://www.w3.org/2000/svg" viewBox="0 0 480 12.11">
  <defs>
    <style>
      .cls-1 {
        fill: #fff;
        stroke-width: 0px;
      }
    </style>
  </defs>
  <path class="cls-1" d="M373.95,7.1l-7.05-5.44c-.13-.1-.29-.16-.46-.16h-83.19C282.94.63,282.11,0,281.13,0c-1.25,0-2.26,1.01-2.26,2.26s1.01,2.26,2.26,2.26c.98,0,1.81-.63,2.12-1.51h82.93l7.05,5.44c.13.1.29.16.46.16h106.31v-1.5h-106.05Z"/>
  <path class="cls-1" d="M42.78,10.45c.13.1.29.16.46.16h26.17c.31.88,1.14,1.51,2.12,1.51,1.25,0,2.26-1.01,2.26-2.26s-1.01-2.26-2.26-2.26c-.98,0-1.81.63-2.12,1.51h-25.91l-7.05-5.44c-.13-.1-.29-.16-.46-.16H0v1.5h35.73l7.05,5.44Z"/>
</svg>