<?xml version="1.0" encoding="utf-8"?>
<!-- Generator: Adobe Illustrator 28.1.0, SVG Export Plug-In . SVG Version: 6.00 Build 0)  -->
<svg version="1.1" id="Capa_1" xmlns="http://www.w3.org/2000/svg" xmlns:xlink="http://www.w3.org/1999/xlink" x="0px" y="0px"
	 viewBox="0 0 481 21.8" style="enable-background:new 0 0 481 21.8;" xml:space="preserve">
<style type="text/css">
	.st0{fill:#FFFFFF;}
</style>
<g>
	<path class="st0" d="M480.5,10.4H163.1l-7-5.4c-0.2-0.1-0.4-0.2-0.6-0.2h-84c-0.4-0.7-1.1-1.1-1.9-1.1c-1.2,0-2.2,1-2.2,2.2
		s1,2.2,2.2,2.2c0.8,0,1.5-0.4,1.9-1.1h83.6l7,5.4c0.2,0.1,0.4,0.2,0.6,0.2h317.7c0.3,0,0.5-0.2,0.5-0.5v-1.1
		C481,10.6,480.8,10.4,480.5,10.4z M155.9,5.4c0,0-0.1-0.1-0.2-0.1C155.8,5.4,155.8,5.4,155.9,5.4l7.1,5.5L155.9,5.4z"/>
	<path class="st0" d="M94.3,17.4c-0.8,0-1.5,0.4-1.9,1.1H26L1.1,0.2C0.9,0.1,0.7,0,0.5,0C0.2,0,0,0.2,0,0.5v1.2
		c0,0.2,0.1,0.3,0.2,0.4L25,20.4c0.2,0.1,0.4,0.2,0.6,0.2h66.7c0.4,0.7,1.1,1.1,1.9,1.1c1.2,0,2.2-1,2.2-2.2S95.5,17.4,94.3,17.4z"
		/>
</g>
</svg>
