<?xml version="1.0" encoding="utf-8"?>
<!-- Generator: Adobe Illustrator 28.1.0, SVG Export Plug-In . SVG Version: 6.00 Build 0)  -->
<svg version="1.1" id="Capa_1" xmlns="http://www.w3.org/2000/svg" xmlns:xlink="http://www.w3.org/1999/xlink" x="0px" y="0px"
	 viewBox="0 0 481 14" style="enable-background:new 0 0 481 14;" xml:space="preserve">
<style type="text/css">
	.st0{fill:#FFFFFF;}
</style>
<g>
	<path class="st0" d="M237.5,8.5c-1,0-2,0.6-2.4,1.5h-86.2L142,4.7c-0.2-0.2-0.5-0.3-0.8-0.3H0.5C0.2,4.4,0,4.6,0,4.9v1.5
		c0,0.3,0.2,0.5,0.5,0.5h140.3l6.9,5.3c0.2,0.2,0.5,0.3,0.8,0.3h86.6c0.5,0.9,1.4,1.5,2.4,1.5c1.5,0,2.8-1.2,2.8-2.8
		C240.3,9.7,239.1,8.5,237.5,8.5z"/>
	<path class="st0" d="M480.5,9h-39.4l-8.8-7.2c-0.2-0.2-0.5-0.3-0.8-0.3h-21.3c-0.5-0.9-1.4-1.5-2.4-1.5c-1.5,0-2.8,1.2-2.8,2.8
		c0,1.5,1.2,2.8,2.8,2.8c1,0,2-0.6,2.4-1.5H431l8.8,7.2c0.2,0.2,0.5,0.3,0.8,0.3h39.9c0.3,0,0.5-0.2,0.5-0.5V9.5
		C481,9.2,480.8,9,480.5,9z"/>
</g>
</svg>
