<?xml version="1.0" encoding="utf-8"?>
<!-- Generator: Adobe Illustrator 28.1.0, SVG Export Plug-In . SVG Version: 6.00 Build 0)  -->
<svg version="1.1" id="Capa_1" xmlns="http://www.w3.org/2000/svg" xmlns:xlink="http://www.w3.org/1999/xlink" x="0px" y="0px"
	 viewBox="0 0 481 13.1" style="enable-background:new 0 0 481 13.1;" xml:space="preserve">
<style type="text/css">
	.st0{fill:#FFFFFF;}
</style>
<g>
	<path class="st0" d="M480.5,7.1H374.6l-6.9-5.3c-0.2-0.2-0.5-0.3-0.8-0.3h-82.9c-0.5-0.9-1.4-1.5-2.4-1.5c-1.5,0-2.8,1.2-2.8,2.8
		c0,1.5,1.2,2.8,2.8,2.8c1,0,2-0.6,2.4-1.5h82.4l6.9,5.3c0.2,0.2,0.5,0.3,0.8,0.3h106.3c0.3,0,0.5-0.2,0.5-0.5V7.6
		C481,7.3,480.8,7.1,480.5,7.1z"/>
	<path class="st0" d="M72,7.6c-1,0-2,0.6-2.4,1.5H44.2l-6.9-5.3c-0.2-0.2-0.5-0.3-0.8-0.3h-36C0.2,3.5,0,3.7,0,4v1.5
		C0,5.8,0.2,6,0.5,6h35.6l6.9,5.3c0.2,0.2,0.5,0.3,0.8,0.3h25.8c0.5,0.9,1.4,1.5,2.4,1.5c1.5,0,2.8-1.2,2.8-2.8S73.6,7.6,72,7.6z"/>
</g>
</svg>
