<?xml version="1.0" encoding="utf-8"?>
<!-- Generator: Adobe Illustrator 28.1.0, SVG Export Plug-In . SVG Version: 6.00 Build 0)  -->
<svg version="1.1" id="Capa_1" xmlns="http://www.w3.org/2000/svg" xmlns:xlink="http://www.w3.org/1999/xlink" x="0px" y="0px"
	 viewBox="0 0 305.9 10.8" style="enable-background:new 0 0 305.9 10.8;" xml:space="preserve">
<style type="text/css">
	.st0{fill:#FFFFFF;}
</style>
<path class="st0" d="M305.4,8.6h-36.5L260,1.4c-0.2-0.2-0.4-0.2-0.7-0.2H4.1C3.7,0.4,3,0,2.2,0C1,0,0,1,0,2.2s1,2.2,2.2,2.2
	c0.8,0,1.5-0.5,1.9-1.1H259l8.9,7.3c0.2,0.2,0.4,0.2,0.7,0.2h36.9c0.3,0,0.5-0.2,0.5-0.5V9.1C305.9,8.9,305.7,8.6,305.4,8.6z
	 M259.3,1.6L259.3,1.6c0.1,0,0.1,0,0.2,0C259.5,1.6,259.4,1.6,259.3,1.6z"/>
</svg>
