<?xml version="1.0" encoding="UTF-8"?>
<svg id="Capa_1" data-name="Capa 1" xmlns="http://www.w3.org/2000/svg" viewBox="0 0 106.25 20">
  <defs>
    <style>
      .cls-1 {
        fill: #c3c4c5;
      }

      .cls-1, .cls-2, .cls-3 {
        stroke-width: 0px;
      }

      .cls-2 {
        fill: #fff;
      }

      .cls-3 {
        fill: #043a53;
      }
    </style>
  </defs>
  <rect id="Rectangle" class="cls-2" x="0" width="20" height="20"/>
  <rect id="Rectangle-2" data-name="Rectangle" class="cls-2" x="21.46" width="20" height="20"/>
  <rect id="Rectangle-3" data-name="Rectangle" class="cls-2" x="43.13" width="20" height="20"/>
  <rect id="Rectangle-4" data-name="Rectangle" class="cls-2" x="64.58" width="20" height="20"/>
  <rect id="Rectangle-5" data-name="Rectangle" class="cls-1" x="86.25" width="20" height="20"/>
  <polygon id="Rectangle-6" data-name="Rectangle" class="cls-2" points="86.25 0 96.25 0 96.25 19.79 86.25 19.79 86.25 0"/>
  <g>
    <path id="Shape" class="cls-3" d="M9.79,13.33l3.12-.83,1.25,3.96-4.38-3.12ZM16.88,8.33h-5.42l-1.67-5-1.67,5H2.92l4.38,3.12-1.67,5,4.37-3.12,2.71-1.88,4.17-3.12h0Z"/>
    <path id="Shape-2" data-name="Shape" class="cls-3" d="M31.46,13.33l3.12-.83,1.25,3.96-4.38-3.12ZM38.33,8.33h-5.42l-1.67-5-1.67,5h-5.42l4.38,3.12-1.67,5,4.38-3.12,2.71-1.88,4.37-3.12h0Z"/>
    <path id="Shape-3" data-name="Shape" class="cls-3" d="M53.12,13.33l3.12-.83,1.25,3.96-4.37-3.12ZM60,8.33h-5.42l-1.67-5-1.67,5h-5.42l4.38,3.12-1.46,5,4.37-3.12,2.71-1.88,4.17-3.12h0Z"/>
    <path id="Shape-4" data-name="Shape" class="cls-3" d="M74.58,13.33l3.12-.83,1.25,3.96-4.37-3.12ZM81.67,8.33h-5.42l-1.67-5-1.67,5h-5.42l4.37,3.12-1.67,5,4.37-3.12,2.71-1.88,4.37-3.12h0Z"/>
    <path id="Shape-5" data-name="Shape" class="cls-3" d="M96.25,13.33l3.12-.83,1.25,3.96-4.37-3.12ZM103.12,8.33h-5.42l-1.67-5-1.46,5h-5.42l4.37,3.12-1.67,5,4.37-3.12,2.71-1.88,4.17-3.12h0Z"/>
  </g>
</svg>