<?xml version="1.0" encoding="UTF-8"?>
<svg id="Capa_1" data-name="Capa 1" xmlns="http://www.w3.org/2000/svg" viewBox="0 0 50 50">
  <defs>
    <style>
      .cls-1 {
        fill: #fff;
        stroke-width: 0px;
      }
    </style>
  </defs>
  <path class="cls-1" d="M25,50.31C11.04,50.31-.31,38.96-.31,25S11.04-.31,25-.31s25.31,11.35,25.31,25.31-11.36,25.31-25.31,25.31ZM25,.31C11.39.31.31,11.39.31,25s11.08,24.69,24.69,24.69,24.69-11.08,24.69-24.69S38.61.31,25,.31Z"/>
  <g>
    <path class="cls-1" d="M25.01,36.75c-1.87-.03-3.73-.11-5.53-.69-.59-.19-1.15-.49-1.69-.8-.41-.23-.55-.63-.48-1.11.26-1.73.44-3.47.78-5.19.57-2.85,3.18-4.94,6.09-4.97,1.05-.01,2.09-.07,3.13.2,2.5.66,4.37,2.76,4.73,5.35.22,1.52.42,3.05.65,4.57.08.54-.11.91-.54,1.21-.7.48-1.5.74-2.32.94-1.59.39-3.21.46-4.84.49Z"/>
    <path class="cls-1" d="M25.01,23.32c-2.79,0-5.04-2.25-5.04-5.03,0-2.78,2.27-5.04,5.04-5.04,2.77,0,5.02,2.26,5.02,5.02,0,2.79-2.24,5.04-5.03,5.04Z"/>
    <path class="cls-1" d="M31,24.72c3.12-1.89,7.36.03,8.09,3.65.11.56.2,1.13.31,1.7.09.47-.06.84-.4,1.16-.69.64-1.53,1-2.43,1.18-.82.16-1.66.21-2.49.31-.23.03-.25-.1-.27-.27-.18-1.22-.33-2.45-.56-3.66-.27-1.47-.99-2.73-2.03-3.8-.07-.07-.13-.14-.19-.2,0,0,0-.02-.02-.06Z"/>
    <path class="cls-1" d="M18.99,24.72c-.36.44-.74.85-1.06,1.3-.81,1.13-1.19,2.41-1.36,3.77-.11.9-.25,1.81-.39,2.71-.01.08-.14.21-.22.21-1.31-.03-2.6-.16-3.8-.73-.45-.21-.85-.53-1.24-.84-.27-.22-.41-.54-.34-.9.16-.84.25-1.71.52-2.52,1.06-3.26,4.99-4.74,7.88-3Z"/>
    <path class="cls-1" d="M16.57,23.32c-1.87,0-3.26-.99-3.77-2.48-.51-1.49-.04-3.12,1.19-4.1,1.21-.97,2.91-1.06,4.24-.24.18.11.26.21.21.45-.34,1.61-.1,3.15.7,4.59.11.2.09.32-.05.49-.75.85-1.68,1.29-2.52,1.3Z"/>
    <path class="cls-1" d="M37.41,19.38c-.01,1.82-.97,3.19-2.42,3.71-1.46.53-3.04.11-4.06-1.06-.16-.19-.17-.32-.05-.54.78-1.43,1.02-2.96.68-4.56-.05-.21.01-.33.19-.43,1.24-.73,2.51-.79,3.77-.09,1.25.69,1.85,1.8,1.89,2.97Z"/>
  </g>
</svg>