<?xml version="1.0" encoding="utf-8"?>
<!-- Generator: Adobe Illustrator 28.1.0, SVG Export Plug-In . SVG Version: 6.00 Build 0)  -->
<svg version="1.1" id="Capa_1" xmlns="http://www.w3.org/2000/svg" xmlns:xlink="http://www.w3.org/1999/xlink" x="0px" y="0px"
	 viewBox="0 0 387.8 73" style="enable-background:new 0 0 387.8 73;" xml:space="preserve">
<style type="text/css">
	.st0{fill:#043A53;}
	.st1{fill:#D7DBDF;}
	.st2{fill:#EAECEE;}
</style>
<g>
	<rect id="Rectangle" x="0" y="0" class="st0" width="73" height="73"/>
	<rect id="Rectangle-2" x="78.3" y="0" class="st0" width="73" height="73"/>
	<rect id="Rectangle-3" x="157.4" y="0" class="st0" width="73" height="73"/>
	<rect id="Rectangle-4" x="235.7" y="0" class="st0" width="73" height="73"/>
	<rect id="Rectangle-5" x="314.8" y="0" class="st1" width="73" height="73"/>
	<polygon id="Rectangle-6" class="st0" points="314.8,0 351.3,0 351.3,72.2 314.8,72.2 	"/>
	<g>
		<path id="Shape" class="st2" d="M35.7,48.6l11.4-3l4.6,14.5L35.7,48.6L35.7,48.6z M61.6,30.4H41.8l-6.1-18.2l-6.1,18.2h-19
			l16,11.4l-6.1,18.2l16-11.4l9.9-6.8L61.6,30.4L61.6,30.4L61.6,30.4z"/>
		<path id="Shape-2" class="st2" d="M114.8,48.6l11.4-3l4.6,14.5L114.8,48.6L114.8,48.6z M139.9,30.4h-19.8L114,12.2L108,30.4H88.2
			l16,11.4l-6.1,18.2l16-11.4l9.9-6.8L139.9,30.4L139.9,30.4L139.9,30.4z"/>
		<path id="Shape-3" class="st2" d="M193.9,48.6l11.4-3l4.6,14.5L193.9,48.6L193.9,48.6z M219,30.4h-19.8l-6.1-18.2L187,30.4h-19.8
			l16,11.4l-5.3,18.2l16-11.4l9.9-6.8L219,30.4L219,30.4L219,30.4z"/>
		<path id="Shape-4" class="st2" d="M272.2,48.6l11.4-3l4.6,14.5L272.2,48.6L272.2,48.6z M298,30.4h-19.8l-6.1-18.2l-6.1,18.2h-19.8
			l16,11.4l-6.1,18.2l16-11.4l9.9-6.8L298,30.4L298,30.4L298,30.4z"/>
		<path id="Shape-5" class="st2" d="M351.3,48.6l11.4-3l4.6,14.5L351.3,48.6L351.3,48.6z M376.4,30.4h-19.8l-6.1-18.2l-5.3,18.2
			h-19.8l16,11.4l-6.1,18.2l16-11.4l9.9-6.8L376.4,30.4L376.4,30.4L376.4,30.4z"/>
	</g>
</g>
</svg>
