<svg xmlns="http://www.w3.org/2000/svg" xmlns:xlink="http://www.w3.org/1999/xlink" width="500" zoomAndPan="magnify" viewBox="0 0 375 374.999991" height="500" preserveAspectRatio="xMidYMid meet" version="1.0"><defs><clipPath id="d8699c4ecd"><path d="M 48.28125 169 L 326.53125 169 L 326.53125 375 L 48.28125 375 Z M 48.28125 169 " clip-rule="nonzero"/></clipPath></defs><path fill="#ffffff" d="M 267.582031 80.082031 C 267.582031 35.925781 231.652344 0 187.5 0 C 143.347656 0 107.417969 35.925781 107.417969 80.082031 C 107.417969 124.113281 143.347656 160.039062 187.5 160.039062 C 231.652344 160.039062 267.582031 124.113281 267.582031 80.082031 Z M 267.582031 80.082031 " fill-opacity="1" fill-rule="nonzero"/><g clip-path="url(#d8699c4ecd)"><path fill="#ffffff" d="M 48.386719 308.46875 L 48.386719 332.660156 C 48.386719 356.007812 67.378906 375 90.726562 375 L 284.273438 375 C 307.621094 375 326.613281 356.007812 326.613281 332.660156 L 326.613281 308.46875 C 326.613281 231.773438 264.195312 169.355469 187.5 169.355469 C 110.804688 169.355469 48.386719 231.773438 48.386719 308.46875 Z M 48.386719 308.46875 " fill-opacity="1" fill-rule="nonzero"/></g></svg>