<?xml version="1.0" encoding="utf-8"?>
<!-- Generator: Adobe Illustrator 28.1.0, SVG Export Plug-In . SVG Version: 6.00 Build 0)  -->
<svg version="1.1" id="Capa_2_00000051344679600708367200000007281206430752589966_"
	 xmlns="http://www.w3.org/2000/svg" xmlns:xlink="http://www.w3.org/1999/xlink" x="0px" y="0px" viewBox="0 0 320 592.3"
	 style="enable-background:new 0 0 320 592.3;" xml:space="preserve">
<style type="text/css">
	.st0{opacity:0.25;}
	.st1{fill:#FFFFFF;}
</style>
<g id="Capa_1-2">
	<g>
		<g class="st0">
			<path class="st1" d="M162.7,29.2V3.2h10.9c0.2,0,0.6,0,1,0c0.4,0,0.8,0.1,1.1,0.1c1.6,0.2,2.8,0.8,3.8,1.5c1,0.8,1.7,1.8,2.2,2.9
				s0.7,2.5,0.7,4s-0.2,2.8-0.7,3.9s-1.2,2.2-2.2,2.9c-1,0.8-2.2,1.3-3.8,1.5c-0.3,0-0.7,0.1-1.1,0.1c-0.4,0-0.8,0-1,0h-6.1v8.8
				L162.7,29.2L162.7,29.2z M167.6,15.8h5.8c0.2,0,0.5,0,0.8,0c0.3,0,0.6-0.1,0.8-0.1c0.7-0.2,1.2-0.5,1.5-0.9s0.6-0.9,0.8-1.4
				c0.1-0.5,0.2-1,0.2-1.5s-0.1-1-0.2-1.5c-0.1-0.5-0.4-1-0.8-1.4c-0.4-0.4-0.9-0.7-1.5-0.9c-0.2-0.1-0.5-0.1-0.8-0.1s-0.6,0-0.8,0
				h-5.8V15.8L167.6,15.8z"/>
			<path class="st1" d="M191.2,29.7c-1.4,0-2.6-0.3-3.5-0.8c-1-0.5-1.7-1.2-2.2-2.1s-0.8-1.9-0.8-3c0-0.9,0.1-1.7,0.4-2.5
				c0.3-0.7,0.7-1.4,1.3-2s1.4-1,2.5-1.4c0.7-0.3,1.6-0.5,2.6-0.7c1-0.2,2.1-0.4,3.4-0.6s2.6-0.4,4.2-0.6l-1.8,1
				c0-1.1-0.3-2-0.8-2.5s-1.5-0.8-2.8-0.8c-0.7,0-1.5,0.2-2.2,0.5s-1.3,1-1.6,1.9l-4.4-1.4c0.5-1.6,1.4-2.9,2.8-3.9
				c1.4-1,3.2-1.5,5.5-1.5c1.7,0,3.2,0.3,4.6,0.8s2.3,1.4,3,2.7c0.4,0.7,0.6,1.4,0.7,2.2c0.1,0.7,0.1,1.5,0.1,2.4v11.9h-4.3v-4
				l0.6,0.8c-0.9,1.3-2,2.2-3.1,2.8S192.8,29.7,191.2,29.7L191.2,29.7z M192.2,25.9c0.9,0,1.7-0.2,2.3-0.5s1.1-0.7,1.5-1.1
				s0.6-0.8,0.8-1c0.2-0.5,0.4-1.1,0.4-1.9s0.1-1.3,0.1-1.8l1.4,0.4c-1.4,0.2-2.6,0.4-3.5,0.6s-1.6,0.3-2.2,0.4
				c-0.6,0.1-1,0.3-1.5,0.4c-0.5,0.2-0.9,0.4-1.2,0.6s-0.5,0.5-0.6,0.7c-0.1,0.3-0.2,0.6-0.2,0.9c0,0.4,0.1,0.8,0.3,1.1
				c0.2,0.3,0.5,0.6,0.9,0.7C191.1,25.8,191.6,25.8,192.2,25.9L192.2,25.9z"/>
			<path class="st1" d="M214.3,29.7c-2.4,0-4.4-0.6-5.9-1.7s-2.4-2.7-2.8-4.7l5-0.8c0.2,0.9,0.7,1.6,1.4,2.1s1.6,0.8,2.7,0.8
				c0.9,0,1.6-0.2,2.1-0.5s0.7-0.8,0.7-1.4c0-0.4-0.1-0.7-0.3-0.9c-0.2-0.2-0.6-0.5-1.3-0.7s-1.7-0.5-3.1-0.9
				c-1.6-0.4-2.9-0.9-3.8-1.4s-1.6-1.1-2.1-1.8s-0.6-1.5-0.6-2.6c0-1.2,0.3-2.3,0.9-3.2c0.6-0.9,1.5-1.6,2.7-2.1s2.5-0.8,4.1-0.8
				s2.9,0.2,4.1,0.7c1.2,0.5,2.1,1.1,2.9,2c0.7,0.9,1.2,1.9,1.3,3.1l-5,0.9c-0.1-0.7-0.4-1.3-0.9-1.7s-1.3-0.7-2.2-0.7
				c-0.9-0.1-1.6,0.1-2.2,0.4c-0.6,0.3-0.8,0.7-0.8,1.3c0,0.3,0.1,0.6,0.4,0.9c0.2,0.2,0.7,0.5,1.5,0.7s1.9,0.5,3.4,0.9
				c1.5,0.4,2.7,0.8,3.6,1.3s1.5,1.1,1.9,1.8c0.4,0.7,0.6,1.6,0.6,2.6c0,2-0.7,3.6-2.2,4.7S216.9,29.7,214.3,29.7L214.3,29.7z"/>
			<path class="st1" d="M226.8,7V2.7h4.9V7C231.7,7,226.8,7,226.8,7z M226.8,29.2V9.7h4.9v19.4H226.8z"/>
			<path class="st1" d="M245.8,29.7c-2,0-3.7-0.4-5.1-1.3c-1.5-0.9-2.6-2.1-3.4-3.6c-0.8-1.5-1.2-3.3-1.2-5.3s0.4-3.8,1.3-5.4
				s2-2.7,3.5-3.6c1.5-0.9,3.2-1.3,5.1-1.3s3.7,0.4,5.2,1.3c1.5,0.9,2.6,2.1,3.5,3.6s1.2,3.3,1.2,5.3s-0.4,3.8-1.2,5.3
				s-2,2.8-3.5,3.6C249.5,29.3,247.8,29.7,245.8,29.7L245.8,29.7z M245.8,25.1c1.6,0,2.8-0.5,3.5-1.6s1.2-2.4,1.2-4.1
				s-0.4-3.1-1.2-4.1s-1.9-1.6-3.5-1.6c-1.1,0-1.9,0.2-2.6,0.7c-0.7,0.5-1.2,1.1-1.5,2s-0.5,1.8-0.5,3c0,1.7,0.4,3.1,1.2,4.1
				C243.2,24.6,244.3,25.1,245.8,25.1L245.8,25.1z M247.7,7h-3.6l3-7h3.6L247.7,7z"/>
			<path class="st1" d="M259.6,29.2V9.7h4.4v6.4h0.6v13H259.6L259.6,29.2z M272.9,29.2V20c0-0.4,0-1-0.1-1.7s-0.2-1.4-0.5-2.1
				c-0.2-0.7-0.7-1.3-1.2-1.8s-1.4-0.7-2.4-0.7c-0.4,0-0.9,0.1-1.4,0.2s-0.9,0.4-1.4,0.8s-0.8,0.9-1,1.7c-0.3,0.7-0.4,1.7-0.4,2.9
				l-2.8-1.3c0-1.5,0.3-3,0.9-4.3c0.6-1.3,1.6-2.4,2.8-3.3s2.8-1.2,4.7-1.2c1.5,0,2.8,0.3,3.7,0.8c1,0.5,1.7,1.2,2.2,2
				s0.9,1.6,1.1,2.5c0.2,0.9,0.4,1.6,0.4,2.4s0.1,1.2,0.1,1.5v10.9L272.9,29.2L272.9,29.2z"/>
			<path class="st1" d="M63.6,116.1c-2.6,0-4.8-0.6-6.7-1.7s-3.3-2.7-4.3-4.7c-1-2-1.5-4.4-1.5-7.1s0.5-5.1,1.5-7.1
				c1-2,2.5-3.6,4.3-4.7s4.1-1.7,6.7-1.7c3,0,5.5,0.7,7.5,2.2c2,1.5,3.4,3.5,4.3,6l-4.9,1.4C70,97.1,69.2,95.9,68,95
				s-2.6-1.3-4.4-1.3c-1.6,0-3,0.4-4.1,1.1c-1.1,0.7-1.9,1.8-2.5,3.1c-0.5,1.3-0.8,2.9-0.8,4.7s0.3,3.4,0.8,4.7
				c0.5,1.3,1.4,2.4,2.5,3.1c1.1,0.7,2.5,1.1,4.1,1.1c1.8,0,3.3-0.4,4.4-1.3c1.1-0.9,1.9-2.1,2.4-3.7l4.9,1.4
				c-0.8,2.5-2.2,4.5-4.3,6C69.1,115.4,66.6,116.1,63.6,116.1L63.6,116.1z"/>
			<path class="st1" d="M88.1,116.1c-2,0-3.7-0.4-5.2-1.3s-2.6-2.1-3.4-3.6s-1.2-3.3-1.2-5.3s0.4-3.8,1.3-5.3c0.8-1.5,2-2.7,3.5-3.6
				c1.5-0.9,3.2-1.3,5.1-1.3s3.7,0.4,5.2,1.3s2.6,2.1,3.5,3.6c0.8,1.5,1.2,3.3,1.2,5.3s-0.4,3.8-1.2,5.3s-2,2.8-3.5,3.6
				S90.1,116.1,88.1,116.1L88.1,116.1z M88.1,111.5c1.6,0,2.8-0.5,3.5-1.6s1.2-2.4,1.2-4.1s-0.4-3.1-1.2-4.1s-1.9-1.6-3.5-1.6
				c-1.1,0-1.9,0.2-2.6,0.7s-1.2,1.2-1.5,2c-0.3,0.8-0.5,1.8-0.5,3c0,1.7,0.4,3.1,1.2,4.2S86.6,111.5,88.1,111.5L88.1,111.5z"/>
			<path class="st1" d="M101.9,115.6V96.1h4.4v6.4h0.6v13H101.9z M115.2,115.6v-9.2c0-0.4,0-1-0.1-1.7s-0.2-1.4-0.4-2.1
				c-0.2-0.7-0.7-1.3-1.2-1.8s-1.4-0.7-2.4-0.7c-0.4,0-0.9,0.1-1.3,0.2c-0.5,0.1-0.9,0.4-1.3,0.8s-0.8,0.9-1,1.7s-0.4,1.7-0.4,2.9
				l-2.8-1.3c0-1.5,0.3-3,0.9-4.3c0.6-1.3,1.6-2.4,2.8-3.3s2.8-1.2,4.7-1.2c1.5,0,2.8,0.3,3.7,0.8c1,0.5,1.7,1.2,2.2,2
				s0.9,1.6,1.1,2.5c0.2,0.9,0.4,1.6,0.4,2.3c0.1,0.7,0.1,1.2,0.1,1.6v10.9L115.2,115.6L115.2,115.6z"/>
			<path class="st1" d="M123.4,99.9v-3.8h12.5v3.8H123.4z M126.5,115.6V96.2c0-0.5,0-1.1,0-1.7s0.1-1.2,0.3-1.9
				c0.2-0.6,0.5-1.2,1-1.7c0.6-0.7,1.3-1.1,2-1.4s1.4-0.4,2-0.4c0.7,0,1.2,0,1.7,0h2.4v4h-2.2c-0.8,0-1.3,0.2-1.7,0.6
				c-0.4,0.4-0.6,0.8-0.6,1.4v20.5L126.5,115.6L126.5,115.6z M139.6,93.4v-4.3h4.9v4.3H139.6z M139.6,115.6V96.1h4.9v19.4H139.6z"/>
			<path class="st1" d="M155.3,116.1c-1.4,0-2.6-0.3-3.5-0.8c-1-0.5-1.7-1.2-2.2-2.1s-0.8-1.9-0.8-3c0-0.9,0.1-1.7,0.4-2.5
				c0.3-0.7,0.7-1.4,1.3-2s1.4-1.1,2.5-1.4c0.7-0.3,1.6-0.5,2.6-0.7c1-0.2,2.1-0.4,3.4-0.6s2.6-0.4,4.2-0.6l-1.8,1
				c0-1.2-0.3-2-0.8-2.5s-1.5-0.8-2.8-0.8c-0.7,0-1.5,0.2-2.2,0.5s-1.3,1-1.6,1.8l-4.4-1.4c0.5-1.6,1.4-2.9,2.8-3.9
				c1.4-1,3.2-1.5,5.5-1.5c1.7,0,3.2,0.3,4.6,0.8s2.3,1.4,3,2.7c0.4,0.7,0.6,1.4,0.7,2.2c0.1,0.7,0.1,1.5,0.1,2.4v11.9h-4.3v-4
				l0.6,0.8c-0.9,1.3-2,2.2-3.1,2.8S157,116.1,155.3,116.1L155.3,116.1z M156.4,112.2c0.9,0,1.7-0.2,2.3-0.5s1.1-0.7,1.5-1.1
				c0.4-0.4,0.6-0.8,0.8-1c0.2-0.5,0.4-1.1,0.4-1.8s0.1-1.3,0.1-1.8l1.4,0.4c-1.4,0.2-2.6,0.4-3.5,0.6s-1.6,0.3-2.2,0.4
				c-0.6,0.1-1,0.3-1.5,0.4c-0.5,0.2-0.9,0.4-1.2,0.6c-0.3,0.2-0.5,0.5-0.6,0.7c-0.1,0.3-0.2,0.6-0.2,0.9c0,0.4,0.1,0.8,0.3,1.1
				c0.2,0.3,0.5,0.6,0.9,0.7S155.8,112.2,156.4,112.2L156.4,112.2z"/>
			<path class="st1" d="M170.9,115.6V96.1h4.4v6.4h0.6v13H170.9z M184.2,115.6v-9.2c0-0.4,0-1-0.1-1.7s-0.2-1.4-0.4-2.1
				c-0.2-0.7-0.7-1.3-1.2-1.8c-0.6-0.5-1.4-0.7-2.4-0.7c-0.4,0-0.9,0.1-1.4,0.2c-0.5,0.1-0.9,0.4-1.4,0.8c-0.4,0.4-0.8,0.9-1,1.7
				c-0.3,0.7-0.4,1.7-0.4,2.9l-2.8-1.3c0-1.5,0.3-3,0.9-4.3c0.6-1.3,1.6-2.4,2.8-3.3s2.8-1.2,4.7-1.2c1.5,0,2.8,0.3,3.7,0.8
				c1,0.5,1.7,1.2,2.2,2s0.9,1.6,1.1,2.5c0.2,0.9,0.4,1.6,0.4,2.3s0.1,1.2,0.1,1.6v10.9L184.2,115.6L184.2,115.6z"/>
			<path class="st1" d="M192,115.6v-0.6l9.5-14.6h-8.5v-4.2h16v0.6l-9.5,14.6h9.1v4.2H192L192,115.6z"/>
			<path class="st1" d="M217.4,116.1c-1.4,0-2.6-0.3-3.5-0.8c-1-0.5-1.7-1.2-2.2-2.1s-0.8-1.9-0.8-3c0-0.9,0.1-1.7,0.4-2.5
				c0.3-0.7,0.7-1.4,1.3-2s1.4-1.1,2.5-1.4c0.7-0.3,1.6-0.5,2.6-0.7c1-0.2,2.1-0.4,3.4-0.6s2.6-0.4,4.2-0.6l-1.8,1
				c0-1.2-0.3-2-0.8-2.5s-1.5-0.8-2.8-0.8c-0.7,0-1.5,0.2-2.2,0.5s-1.3,1-1.6,1.8l-4.4-1.4c0.5-1.6,1.4-2.9,2.8-3.9
				c1.4-1,3.2-1.5,5.5-1.5c1.7,0,3.2,0.3,4.6,0.8s2.3,1.4,3,2.7c0.4,0.7,0.6,1.4,0.7,2.2c0.1,0.7,0.1,1.5,0.1,2.4v11.9H224v-4
				l0.6,0.8c-0.9,1.3-2,2.2-3.1,2.8S219,116.1,217.4,116.1L217.4,116.1z M218.4,112.2c0.9,0,1.7-0.2,2.3-0.5s1.1-0.7,1.5-1.1
				c0.4-0.4,0.6-0.8,0.8-1c0.2-0.5,0.4-1.1,0.4-1.8s0.1-1.3,0.1-1.8l1.4,0.4c-1.4,0.2-2.6,0.4-3.5,0.6c-0.9,0.2-1.6,0.3-2.2,0.4
				c-0.6,0.1-1,0.3-1.5,0.4c-0.5,0.2-0.9,0.4-1.2,0.6s-0.5,0.5-0.6,0.7c-0.1,0.3-0.2,0.6-0.2,0.9c0,0.4,0.1,0.8,0.3,1.1
				c0.2,0.3,0.5,0.6,0.9,0.7C217.4,112.2,217.9,112.2,218.4,112.2L218.4,112.2z"/>
			<path class="st1" d="M30.5,202v-21.4h-8.2V176h21.2v4.6h-8.2V202C35.4,202,30.5,202,30.5,202z"/>
			<path class="st1" d="M44.6,202v-19.4h4.3v4.8l-0.5-0.6c0.2-0.7,0.6-1.3,1-1.8c0.4-0.6,0.9-1,1.5-1.4c0.5-0.3,1-0.5,1.5-0.7
				c0.5-0.2,1.1-0.3,1.7-0.3s1.2,0,1.8,0v4.6c-0.5-0.2-1.2-0.2-1.9-0.2c-0.7,0.1-1.4,0.2-1.9,0.5c-0.6,0.3-1.1,0.6-1.5,1.1
				c-0.4,0.4-0.7,0.9-0.9,1.6c-0.2,0.6-0.3,1.3-0.3,2v9.9L44.6,202L44.6,202z"/>
			<path class="st1" d="M64.5,202.5c-1.4,0-2.6-0.3-3.5-0.8s-1.7-1.2-2.2-2.1s-0.8-1.9-0.8-3c0-0.9,0.1-1.7,0.4-2.5
				c0.3-0.7,0.7-1.4,1.3-2s1.5-1.1,2.5-1.4c0.7-0.3,1.6-0.5,2.6-0.7c1-0.2,2.1-0.4,3.4-0.6s2.7-0.4,4.2-0.6l-1.8,1
				c0-1.1-0.3-2-0.8-2.5s-1.5-0.8-2.8-0.8c-0.7,0-1.5,0.2-2.2,0.5s-1.3,1-1.6,1.9l-4.4-1.4c0.5-1.6,1.4-2.9,2.8-3.9
				c1.4-1,3.2-1.5,5.5-1.5c1.7,0,3.2,0.3,4.6,0.8s2.3,1.4,3,2.7c0.4,0.7,0.6,1.4,0.7,2.2s0.1,1.5,0.1,2.4V202h-4.3v-4l0.6,0.8
				c-0.9,1.3-2,2.2-3.1,2.8S66.1,202.5,64.5,202.5L64.5,202.5z M65.5,198.6c0.9,0,1.7-0.2,2.3-0.5c0.6-0.3,1.1-0.7,1.5-1.1
				s0.6-0.8,0.8-1c0.2-0.5,0.4-1.1,0.4-1.9s0.1-1.3,0.1-1.8l1.4,0.4c-1.4,0.2-2.6,0.4-3.5,0.6s-1.6,0.3-2.2,0.4s-1,0.3-1.5,0.4
				c-0.5,0.2-0.9,0.4-1.2,0.6s-0.5,0.5-0.7,0.7c-0.1,0.3-0.2,0.6-0.2,0.9c0,0.4,0.1,0.8,0.3,1.1c0.2,0.3,0.5,0.6,0.9,0.7
				C64.5,198.5,65,198.6,65.5,198.6L65.5,198.6z"/>
			<path class="st1" d="M80,202v-19.4h4.4v6.4H85v13H80z M93.3,202v-9.2c0-0.4,0-1-0.1-1.7s-0.2-1.4-0.4-2.1s-0.7-1.3-1.2-1.8
				s-1.4-0.7-2.4-0.7c-0.4,0-0.9,0.1-1.3,0.2c-0.5,0.1-0.9,0.4-1.3,0.8s-0.8,0.9-1,1.7s-0.4,1.7-0.4,2.9l-2.8-1.3
				c0-1.5,0.3-3,0.9-4.3c0.6-1.3,1.6-2.4,2.8-3.3s2.8-1.2,4.7-1.2c1.5,0,2.8,0.3,3.7,0.8c1,0.5,1.7,1.2,2.2,2
				c0.5,0.8,0.9,1.6,1.1,2.5c0.2,0.9,0.4,1.6,0.4,2.4c0.1,0.7,0.1,1.2,0.1,1.6V202L93.3,202L93.3,202z"/>
			<path class="st1" d="M110.6,202.5c-2.4,0-4.4-0.6-5.9-1.7c-1.5-1.1-2.4-2.7-2.8-4.7l5-0.8c0.2,0.9,0.7,1.6,1.4,2.1
				c0.7,0.5,1.6,0.8,2.7,0.8c0.9,0,1.6-0.2,2.1-0.5s0.7-0.8,0.7-1.4c0-0.4-0.1-0.7-0.3-0.9s-0.6-0.5-1.3-0.7s-1.7-0.5-3.1-0.9
				c-1.6-0.4-2.8-0.9-3.8-1.4c-0.9-0.5-1.6-1.1-2.1-1.8s-0.6-1.6-0.6-2.6c0-1.2,0.3-2.3,0.9-3.2c0.6-0.9,1.5-1.6,2.7-2.1
				s2.5-0.8,4.1-0.8s2.9,0.2,4.1,0.7s2.1,1.1,2.8,2c0.7,0.9,1.2,1.9,1.3,3.1l-5,0.9c-0.1-0.7-0.4-1.3-0.9-1.7s-1.3-0.7-2.2-0.7
				c-0.9-0.1-1.6,0.1-2.2,0.4c-0.6,0.3-0.8,0.7-0.8,1.3c0,0.3,0.1,0.6,0.3,0.9c0.2,0.2,0.7,0.5,1.5,0.7c0.7,0.2,1.9,0.6,3.4,0.9
				c1.5,0.4,2.7,0.8,3.6,1.3c0.9,0.5,1.5,1.1,1.9,1.8c0.4,0.7,0.6,1.6,0.6,2.6c0,2-0.7,3.6-2.2,4.7S113.1,202.5,110.6,202.5
				L110.6,202.5z"/>
			<path class="st1" d="M122.6,210.6v-28.1h4.3v13.3h0.6v14.8L122.6,210.6L122.6,210.6z M132.2,202.5c-1.9,0-3.6-0.4-4.8-1.4
				c-1.3-0.9-2.3-2.1-2.9-3.7s-1-3.3-1-5.2s0.3-3.7,1-5.2s1.6-2.8,2.9-3.7s2.8-1.4,4.7-1.4s3.5,0.4,4.9,1.3s2.4,2.1,3.2,3.6
				s1.1,3.3,1.1,5.3s-0.4,3.7-1.1,5.2s-1.8,2.8-3.1,3.7S134,202.5,132.2,202.5L132.2,202.5z M131.4,198.1c1.1,0,1.9-0.3,2.6-0.8
				s1.2-1.2,1.5-2.1s0.5-1.9,0.5-3s-0.2-2.1-0.5-3c-0.3-0.9-0.9-1.6-1.6-2.1c-0.7-0.5-1.6-0.8-2.7-0.8c-1,0-1.8,0.2-2.5,0.7
				c-0.6,0.5-1.1,1.2-1.4,2.1c-0.3,0.9-0.4,1.9-0.4,3.1s0.1,2.2,0.4,3.1s0.8,1.6,1.4,2.1S130.3,198.2,131.4,198.1L131.4,198.1z"/>
			<path class="st1" d="M150.5,202.5c-1.4,0-2.6-0.3-3.5-0.8c-1-0.5-1.7-1.2-2.2-2.1s-0.8-1.9-0.8-3c0-0.9,0.1-1.7,0.4-2.5
				c0.3-0.7,0.7-1.4,1.3-2s1.4-1.1,2.5-1.4c0.7-0.3,1.6-0.5,2.6-0.7c1-0.2,2.1-0.4,3.4-0.6s2.6-0.4,4.2-0.6l-1.8,1
				c0-1.1-0.3-2-0.8-2.5s-1.5-0.8-2.8-0.8c-0.7,0-1.5,0.2-2.2,0.5s-1.3,1-1.6,1.9l-4.4-1.4c0.5-1.6,1.4-2.9,2.8-3.9
				c1.4-1,3.2-1.5,5.5-1.5c1.7,0,3.2,0.3,4.6,0.8s2.3,1.4,3,2.7c0.4,0.7,0.6,1.4,0.7,2.2c0.1,0.7,0.1,1.5,0.1,2.4V202h-4.3v-4
				l0.6,0.8c-0.9,1.3-2,2.2-3.1,2.8S152.2,202.5,150.5,202.5L150.5,202.5z M151.6,198.6c0.9,0,1.7-0.2,2.3-0.5
				c0.6-0.3,1.1-0.7,1.5-1.1s0.6-0.8,0.8-1c0.2-0.5,0.4-1.1,0.4-1.9s0.1-1.3,0.1-1.8l1.4,0.4c-1.4,0.2-2.6,0.4-3.5,0.6
				s-1.6,0.3-2.2,0.4c-0.6,0.1-1,0.3-1.5,0.4c-0.5,0.2-0.9,0.4-1.2,0.6c-0.3,0.2-0.5,0.5-0.6,0.7c-0.1,0.3-0.2,0.6-0.2,0.9
				c0,0.4,0.1,0.8,0.3,1.1c0.2,0.3,0.5,0.6,0.9,0.7S151,198.6,151.6,198.6L151.6,198.6z"/>
			<path class="st1" d="M166.1,202v-19.4h4.3v4.8l-0.5-0.6c0.2-0.7,0.6-1.3,1-1.8c0.4-0.6,0.9-1,1.6-1.4c0.5-0.3,1-0.5,1.5-0.7
				c0.6-0.2,1.1-0.3,1.7-0.3s1.2,0,1.8,0v4.6c-0.5-0.2-1.2-0.2-1.9-0.2s-1.4,0.2-1.9,0.5c-0.6,0.3-1.1,0.6-1.5,1.1
				c-0.4,0.4-0.7,0.9-0.9,1.6c-0.2,0.6-0.3,1.3-0.3,2v9.9L166.1,202L166.1,202z"/>
			<path class="st1" d="M189.6,202.5c-2,0-3.8-0.4-5.3-1.3c-1.5-0.9-2.7-2-3.6-3.6c-0.9-1.5-1.3-3.2-1.3-5.2c0-2.1,0.4-4,1.3-5.5
				c0.8-1.6,2-2.8,3.5-3.7s3.2-1.3,5.1-1.3c2,0,3.8,0.5,5.2,1.4s2.5,2.3,3.2,4.1c0.7,1.7,0.9,3.8,0.7,6.1h-4.8v-1.8
				c0-2-0.3-3.4-0.9-4.3c-0.6-0.9-1.7-1.3-3.1-1.3c-1.7,0-2.9,0.5-3.7,1.5s-1.2,2.5-1.2,4.5c0,1.8,0.4,3.2,1.2,4.2
				c0.8,1,1.9,1.5,3.5,1.5c1,0,1.8-0.2,2.5-0.6c0.7-0.4,1.2-1,1.6-1.8l4.9,1.4c-0.7,1.8-1.9,3.2-3.5,4.1S191.5,202.5,189.6,202.5
				L189.6,202.5z M183.2,193.6V190h12.9v3.6H183.2z"/>
			<path class="st1" d="M201.9,202v-19.4h4.4v6.4h0.6v13H201.9z M215.2,202v-9.2c0-0.4,0-1-0.1-1.7s-0.2-1.4-0.4-2.1
				s-0.7-1.3-1.2-1.8c-0.6-0.5-1.4-0.7-2.4-0.7c-0.4,0-0.9,0.1-1.4,0.2c-0.5,0.1-0.9,0.4-1.4,0.8c-0.4,0.4-0.8,0.9-1,1.7
				c-0.3,0.7-0.4,1.7-0.4,2.9l-2.8-1.3c0-1.5,0.3-3,0.9-4.3c0.6-1.3,1.6-2.4,2.8-3.3s2.8-1.2,4.7-1.2c1.5,0,2.8,0.3,3.7,0.8
				c1,0.5,1.7,1.2,2.2,2s0.9,1.6,1.1,2.5c0.2,0.9,0.4,1.6,0.4,2.4c0.1,0.7,0.1,1.2,0.1,1.6V202L215.2,202L215.2,202z"/>
			<path class="st1" d="M233,202.5c-2,0-3.7-0.4-5.2-1.4s-2.5-2.1-3.3-3.7s-1.1-3.3-1.1-5.2s0.4-3.7,1.2-5.3
				c0.8-1.6,1.9-2.8,3.4-3.6c1.4-0.9,3.2-1.3,5.1-1.3c2.3,0,4.2,0.6,5.8,1.7c1.6,1.2,2.6,2.7,3,4.7l-4.9,1.3c-0.3-1-0.8-1.8-1.5-2.4
				s-1.5-0.9-2.4-0.9c-1,0-1.9,0.2-2.5,0.8c-0.7,0.5-1.1,1.2-1.5,2c-0.3,0.9-0.5,1.8-0.5,2.9c0,1.7,0.4,3.1,1.1,4.1
				c0.8,1.1,1.9,1.6,3.3,1.6c1.1,0,1.9-0.2,2.5-0.8s1-1.2,1.3-2.2l5,1c-0.6,2.1-1.6,3.6-3.1,4.8C237.2,201.9,235.3,202.5,233,202.5
				L233,202.5z"/>
			<path class="st1" d="M245.3,179.8v-4.3h4.9v4.3H245.3z M245.3,202v-19.4h4.9V202H245.3z"/>
			<path class="st1" d="M261,202.5c-1.4,0-2.6-0.3-3.5-0.8s-1.7-1.2-2.2-2.1s-0.8-1.9-0.8-3c0-0.9,0.1-1.7,0.4-2.5
				c0.3-0.7,0.7-1.4,1.3-2c0.6-0.6,1.5-1.1,2.5-1.4c0.7-0.3,1.6-0.5,2.6-0.7c1-0.2,2.1-0.4,3.4-0.6s2.6-0.4,4.2-0.6l-1.8,1
				c0-1.1-0.3-2-0.8-2.5s-1.5-0.8-2.8-0.8c-0.7,0-1.5,0.2-2.2,0.5s-1.3,1-1.6,1.9l-4.4-1.4c0.5-1.6,1.4-2.9,2.8-3.9
				c1.4-1,3.2-1.5,5.5-1.5c1.7,0,3.2,0.3,4.6,0.8c1.3,0.5,2.3,1.4,3,2.7c0.4,0.7,0.6,1.4,0.7,2.2s0.1,1.5,0.1,2.4V202h-4.3v-4
				l0.6,0.8c-1,1.3-2,2.2-3.1,2.8S262.6,202.5,261,202.5L261,202.5z M262,198.6c0.9,0,1.7-0.2,2.3-0.5c0.6-0.3,1.1-0.7,1.5-1.1
				c0.4-0.4,0.6-0.8,0.8-1c0.2-0.5,0.4-1.1,0.4-1.9s0.1-1.3,0.1-1.8l1.4,0.4c-1.5,0.2-2.6,0.4-3.5,0.6s-1.6,0.3-2.2,0.4
				s-1,0.3-1.5,0.4c-0.5,0.2-0.9,0.4-1.2,0.6s-0.5,0.5-0.6,0.7c-0.1,0.3-0.2,0.6-0.2,0.9c0,0.4,0.1,0.8,0.3,1.1
				c0.2,0.3,0.5,0.6,0.9,0.7C261,198.5,261.4,198.6,262,198.6L262,198.6z"/>
			<path class="st1" d="M59.9,288.9c-2.6,0-4.8-0.6-6.7-1.7s-3.3-2.7-4.3-4.7c-1-2-1.5-4.4-1.5-7.1s0.5-5,1.5-7.1s2.5-3.6,4.3-4.7
				c1.9-1.1,4.1-1.7,6.7-1.7c3,0,5.5,0.7,7.5,2.2c2,1.5,3.4,3.5,4.3,6l-4.9,1.4c-0.5-1.6-1.3-2.8-2.4-3.7s-2.6-1.3-4.4-1.3
				c-1.6,0-3,0.4-4.1,1.1c-1.1,0.7-1.9,1.8-2.5,3.1c-0.5,1.3-0.8,2.9-0.8,4.7s0.3,3.4,0.8,4.7c0.5,1.3,1.4,2.4,2.5,3.1
				c1.1,0.7,2.5,1.1,4.1,1.1c1.8,0,3.3-0.4,4.4-1.3c1.1-0.9,1.9-2.1,2.4-3.6l4.9,1.4c-0.8,2.5-2.2,4.5-4.3,6
				C65.4,288.2,62.9,288.9,59.9,288.9L59.9,288.9z"/>
			<path class="st1" d="M84.4,288.9c-2,0-3.7-0.4-5.2-1.3c-1.5-0.9-2.6-2.1-3.4-3.6c-0.8-1.5-1.2-3.3-1.2-5.3s0.4-3.8,1.3-5.4
				c0.8-1.5,2-2.8,3.5-3.6c1.5-0.9,3.2-1.3,5.1-1.3s3.7,0.4,5.2,1.3s2.6,2.1,3.5,3.6c0.8,1.5,1.2,3.3,1.2,5.3s-0.4,3.8-1.2,5.3
				s-2,2.8-3.5,3.6S86.3,288.9,84.4,288.9L84.4,288.9z M84.4,284.3c1.6,0,2.8-0.5,3.5-1.6s1.2-2.4,1.2-4.1s-0.4-3.1-1.2-4.1
				c-0.8-1-1.9-1.5-3.5-1.5c-1.1,0-1.9,0.2-2.6,0.7c-0.7,0.5-1.2,1.1-1.5,2c-0.3,0.9-0.5,1.8-0.5,3c0,1.7,0.4,3.1,1.2,4.1
				S82.8,284.3,84.4,284.3L84.4,284.3z"/>
			<path class="st1" d="M98.2,288.4v-19.4h4.3v6.4h0.6v13H98.2z M109.9,288.4v-11.5c0-1.3-0.3-2.3-0.9-3c-0.6-0.7-1.4-1.1-2.5-1.1
				s-1.8,0.4-2.5,1s-0.9,1.6-0.9,2.7l-2.1-1.4c0-1.3,0.3-2.4,0.9-3.4s1.5-1.8,2.6-2.4c1.1-0.6,2.3-0.9,3.6-0.9c1.5,0,2.8,0.3,3.8,1
				s1.7,1.5,2.2,2.6s0.7,2.3,0.7,3.6v12.8L109.9,288.4L109.9,288.4z M121.6,288.4v-11.5c0-1.3-0.3-2.3-0.9-3
				c-0.6-0.7-1.4-1.1-2.5-1.1c-0.7,0-1.3,0.2-1.8,0.5s-0.9,0.8-1.2,1.3c-0.3,0.6-0.4,1.2-0.4,2l-2.1-1.4c0-1.3,0.3-2.5,0.9-3.5
				c0.6-1,1.5-1.8,2.5-2.4s2.2-0.9,3.5-0.9c2.2,0,3.9,0.7,5,2s1.7,3,1.7,5.2v12.8C126.5,288.4,121.6,288.4,121.6,288.4z"/>
			<path class="st1" d="M131.1,297v-28.1h4.3v13.3h0.6V297L131.1,297L131.1,297z M140.7,288.9c-1.9,0-3.6-0.5-4.8-1.4
				c-1.3-0.9-2.3-2.1-2.9-3.7c-0.6-1.5-1-3.3-1-5.2s0.3-3.7,1-5.2s1.6-2.8,2.9-3.7c1.3-0.9,2.8-1.4,4.7-1.4s3.5,0.4,4.9,1.3
				c1.4,0.9,2.4,2.1,3.2,3.6s1.1,3.3,1.1,5.3s-0.4,3.7-1.1,5.2c-0.8,1.5-1.8,2.8-3.1,3.7C144.1,288.4,142.5,288.9,140.7,288.9
				L140.7,288.9z M139.9,284.5c1.1,0,1.9-0.3,2.6-0.8s1.2-1.2,1.5-2.1s0.5-1.9,0.5-3s-0.2-2.1-0.5-3c-0.3-0.9-0.9-1.6-1.6-2.1
				c-0.7-0.5-1.6-0.8-2.7-0.8c-1,0-1.8,0.2-2.5,0.7c-0.6,0.5-1.1,1.2-1.4,2.1c-0.3,0.9-0.4,1.9-0.4,3.1s0.1,2.2,0.4,3.1
				s0.8,1.6,1.4,2.1C137.9,284.3,138.8,284.6,139.9,284.5L139.9,284.5z"/>
			<path class="st1" d="M153.6,288.4v-19.4h4.3v4.8l-0.5-0.6c0.2-0.7,0.6-1.3,1-1.8s0.9-1,1.6-1.4c0.5-0.3,1-0.5,1.5-0.7
				s1.1-0.3,1.7-0.3c0.6,0,1.2,0,1.8,0v4.6c-0.5-0.2-1.2-0.2-1.9-0.2s-1.4,0.2-1.9,0.5c-0.6,0.3-1.1,0.6-1.5,1
				c-0.4,0.4-0.7,1-0.9,1.5c-0.2,0.6-0.3,1.3-0.3,2v9.9H153.6L153.6,288.4z"/>
			<path class="st1" d="M176.8,288.9c-2,0-3.7-0.4-5.1-1.3c-1.5-0.9-2.6-2.1-3.4-3.6c-0.8-1.5-1.2-3.3-1.2-5.3s0.4-3.8,1.3-5.4
				c0.8-1.5,2-2.8,3.5-3.6c1.5-0.9,3.2-1.3,5.1-1.3s3.7,0.4,5.2,1.3c1.5,0.9,2.6,2.1,3.5,3.6c0.8,1.5,1.2,3.3,1.2,5.3
				s-0.4,3.8-1.2,5.3s-2,2.8-3.5,3.6S178.8,288.9,176.8,288.9L176.8,288.9z M176.8,284.3c1.6,0,2.8-0.5,3.5-1.6s1.2-2.4,1.2-4.1
				s-0.4-3.1-1.2-4.1c-0.8-1-1.9-1.5-3.5-1.5c-1.1,0-1.9,0.2-2.6,0.7c-0.7,0.5-1.2,1.1-1.5,2s-0.5,1.8-0.5,3c0,1.7,0.4,3.1,1.2,4.1
				S175.3,284.3,176.8,284.3L176.8,284.3z"/>
			<path class="st1" d="M190.6,288.4v-19.4h4.3v6.4h0.6v13H190.6L190.6,288.4z M202.4,288.4v-11.5c0-1.3-0.3-2.3-0.9-3
				c-0.6-0.7-1.4-1.1-2.5-1.1s-1.8,0.4-2.5,1s-0.9,1.6-0.9,2.7l-2.1-1.4c0-1.3,0.3-2.4,0.9-3.4c0.6-1,1.5-1.8,2.6-2.4
				c1.1-0.6,2.3-0.9,3.6-0.9c1.5,0,2.8,0.3,3.8,1s1.7,1.5,2.2,2.6s0.7,2.3,0.7,3.6v12.8L202.4,288.4L202.4,288.4z M214.1,288.4
				v-11.5c0-1.3-0.3-2.3-0.9-3c-0.6-0.7-1.4-1.1-2.5-1.1c-0.7,0-1.3,0.2-1.8,0.5s-0.9,0.8-1.2,1.3c-0.3,0.6-0.4,1.2-0.4,2l-2.1-1.4
				c0-1.3,0.3-2.5,0.9-3.5c0.6-1,1.5-1.8,2.5-2.4s2.2-0.9,3.5-0.9c2.2,0,3.9,0.7,5,2s1.7,3,1.7,5.2v12.8H214.1L214.1,288.4z"/>
			<path class="st1" d="M224,266.2v-4.3h4.9v4.3H224z M224,288.4v-19.4h4.9v19.4H224z"/>
			<path class="st1" d="M241.9,288.9c-2.4,0-4.4-0.5-5.9-1.7c-1.5-1.1-2.4-2.7-2.8-4.7l5-0.8c0.2,0.9,0.7,1.6,1.4,2.1
				c0.7,0.5,1.6,0.8,2.7,0.8c0.9,0,1.6-0.2,2.1-0.5s0.7-0.8,0.7-1.4c0-0.4-0.1-0.7-0.3-0.9c-0.2-0.2-0.6-0.5-1.3-0.7
				s-1.7-0.5-3.1-0.9c-1.6-0.4-2.9-0.9-3.8-1.4c-0.9-0.5-1.6-1.1-2.1-1.8s-0.6-1.5-0.6-2.5c0-1.2,0.3-2.3,0.9-3.2s1.5-1.6,2.7-2.1
				c1.2-0.5,2.5-0.8,4.1-0.8s2.9,0.2,4.1,0.7c1.2,0.5,2.1,1.1,2.9,2c0.7,0.9,1.2,1.9,1.3,3.1l-5,0.9c-0.1-0.7-0.4-1.3-0.9-1.7
				c-0.5-0.4-1.3-0.7-2.2-0.7c-0.9-0.1-1.6,0.1-2.2,0.4s-0.8,0.7-0.8,1.3c0,0.3,0.1,0.6,0.4,0.9c0.2,0.2,0.7,0.5,1.5,0.7
				c0.7,0.2,1.9,0.5,3.4,0.9c1.5,0.4,2.7,0.8,3.6,1.3c0.9,0.5,1.5,1.1,1.9,1.8c0.4,0.7,0.6,1.6,0.6,2.6c0,2-0.7,3.6-2.2,4.7
				S244.4,288.9,241.9,288.9L241.9,288.9z"/>
			<path class="st1" d="M262.7,288.9c-2,0-3.7-0.4-5.1-1.3c-1.5-0.9-2.6-2.1-3.4-3.6c-0.8-1.5-1.2-3.3-1.2-5.3s0.4-3.8,1.3-5.4
				c0.8-1.5,2-2.8,3.5-3.6c1.5-0.9,3.2-1.3,5.1-1.3s3.7,0.4,5.2,1.3c1.5,0.9,2.6,2.1,3.5,3.6s1.2,3.3,1.2,5.3s-0.4,3.8-1.2,5.3
				s-2,2.8-3.5,3.6S264.7,288.9,262.7,288.9L262.7,288.9z M262.7,284.3c1.6,0,2.8-0.5,3.5-1.6s1.2-2.4,1.2-4.1s-0.4-3.1-1.2-4.1
				c-0.8-1-2-1.5-3.5-1.5c-1.1,0-1.9,0.2-2.6,0.7c-0.7,0.5-1.2,1.1-1.5,2s-0.5,1.8-0.5,3c0,1.7,0.4,3.1,1.2,4.1
				C260.1,283.8,261.2,284.3,262.7,284.3L262.7,284.3z"/>
			<path class="st1" d="M51.6,375.3c-2.6,0-4.8-0.6-6.7-1.7c-1.9-1.1-3.3-2.7-4.3-4.7c-1-2-1.5-4.4-1.5-7.1s0.5-5,1.5-7.1
				s2.5-3.6,4.3-4.7s4.1-1.7,6.7-1.7c3,0,5.5,0.7,7.5,2.2c2,1.5,3.5,3.5,4.3,6l-4.9,1.4c-0.5-1.6-1.3-2.8-2.4-3.7s-2.6-1.3-4.4-1.3
				c-1.6,0-3,0.4-4.1,1.1c-1.1,0.7-1.9,1.8-2.5,3.1c-0.5,1.3-0.8,2.9-0.8,4.7s0.3,3.4,0.8,4.7c0.5,1.3,1.4,2.4,2.5,3.1
				c1.1,0.7,2.5,1.1,4.1,1.1c1.8,0,3.3-0.4,4.4-1.3c1.1-0.9,2-2.1,2.4-3.6l4.9,1.4c-0.8,2.5-2.2,4.5-4.3,6
				C57.1,374.6,54.6,375.3,51.6,375.3L51.6,375.3z"/>
			<path class="st1" d="M76.1,375.3c-2,0-3.7-0.4-5.2-1.3c-1.5-0.9-2.6-2.1-3.4-3.6c-0.8-1.5-1.2-3.3-1.2-5.3s0.4-3.8,1.3-5.4
				c0.8-1.5,2-2.8,3.5-3.6c1.5-0.9,3.2-1.3,5.1-1.3s3.7,0.4,5.2,1.3s2.6,2.1,3.5,3.6c0.8,1.5,1.2,3.3,1.2,5.3s-0.4,3.8-1.2,5.3
				s-2,2.8-3.5,3.6S78.1,375.3,76.1,375.3L76.1,375.3z M76.1,370.7c1.6,0,2.8-0.5,3.5-1.6s1.2-2.4,1.2-4.1s-0.4-3.1-1.2-4.1
				c-0.8-1-1.9-1.5-3.5-1.5c-1.1,0-1.9,0.2-2.6,0.7c-0.7,0.5-1.2,1.1-1.5,2c-0.3,0.9-0.5,1.8-0.5,3c0,1.7,0.4,3.1,1.2,4.1
				S74.6,370.7,76.1,370.7L76.1,370.7z"/>
			<path class="st1" d="M89.9,374.8v-19.4h4.3v6.4h0.6v13H89.9z M101.7,374.8v-11.5c0-1.3-0.3-2.3-0.9-3c-0.6-0.7-1.4-1.1-2.5-1.1
				s-1.8,0.4-2.5,1s-0.9,1.6-0.9,2.7l-2.1-1.4c0-1.3,0.3-2.4,0.9-3.4s1.5-1.8,2.6-2.4c1.1-0.6,2.3-0.9,3.6-0.9c1.5,0,2.8,0.3,3.8,1
				s1.7,1.5,2.2,2.6s0.7,2.3,0.7,3.6v12.8L101.7,374.8L101.7,374.8z M113.3,374.8v-11.5c0-1.3-0.3-2.3-0.9-3
				c-0.6-0.7-1.4-1.1-2.5-1.1c-0.7,0-1.3,0.2-1.8,0.5s-0.9,0.8-1.2,1.3c-0.3,0.6-0.4,1.2-0.4,2l-2.1-1.4c0-1.3,0.3-2.5,0.9-3.5
				c0.6-1,1.5-1.8,2.5-2.4s2.2-0.9,3.5-0.9c2.2,0,3.9,0.7,5,2s1.7,3,1.7,5.2v12.8C118.2,374.8,113.3,374.8,113.3,374.8z"/>
			<path class="st1" d="M130.2,375.3c-1.5,0-2.8-0.3-3.7-0.8s-1.7-1.2-2.2-2c-0.5-0.8-0.9-1.6-1.1-2.5c-0.2-0.9-0.4-1.6-0.4-2.4
				c-0.1-0.7-0.1-1.2-0.1-1.5v-10.9h5v9.2c0,0.4,0,1,0.1,1.7s0.2,1.4,0.4,2.1c0.2,0.7,0.7,1.3,1.2,1.8c0.6,0.5,1.4,0.7,2.4,0.7
				c0.4,0,0.9-0.1,1.4-0.2c0.5-0.1,0.9-0.4,1.4-0.8s0.8-0.9,1-1.7s0.4-1.7,0.4-2.9l2.8,1.3c0,1.5-0.3,3-0.9,4.3s-1.6,2.4-2.8,3.3
				S132.1,375.3,130.2,375.3L130.2,375.3z M136.5,374.8v-6.4h-0.6v-13h4.9v19.4H136.5L136.5,374.8z"/>
			<path class="st1" d="M145.8,374.8v-19.4h4.4v6.4h0.6v13H145.8z M159.1,374.8v-9.2c0-0.4,0-1-0.1-1.7s-0.2-1.4-0.4-2.1
				s-0.7-1.3-1.2-1.8c-0.6-0.5-1.4-0.7-2.4-0.7c-0.4,0-0.9,0.1-1.4,0.2c-0.5,0.1-0.9,0.4-1.4,0.8c-0.4,0.4-0.8,0.9-1,1.7
				c-0.3,0.7-0.4,1.7-0.4,2.9l-2.8-1.3c0-1.5,0.3-3,0.9-4.3c0.6-1.3,1.6-2.4,2.8-3.3c1.2-0.8,2.8-1.2,4.7-1.2c1.5,0,2.8,0.3,3.7,0.8
				c1,0.5,1.7,1.2,2.2,2c0.5,0.8,0.9,1.6,1.1,2.5c0.2,0.9,0.4,1.6,0.4,2.4c0.1,0.7,0.1,1.2,0.1,1.5v10.9L159.1,374.8L159.1,374.8z"
				/>
			<path class="st1" d="M169.1,352.6v-4.3h4.9v4.3H169.1z M169.1,374.8v-19.4h4.9v19.4H169.1z"/>
			<path class="st1" d="M187.9,375.3c-2,0-3.7-0.5-5.2-1.4c-1.4-0.9-2.5-2.1-3.3-3.7c-0.8-1.5-1.1-3.3-1.1-5.2s0.4-3.7,1.2-5.3
				c0.8-1.5,1.9-2.8,3.4-3.6c1.4-0.9,3.2-1.3,5.1-1.3c2.3,0,4.2,0.6,5.8,1.7c1.6,1.2,2.6,2.7,3,4.7l-4.9,1.3c-0.3-1-0.8-1.8-1.5-2.4
				c-0.7-0.6-1.5-0.9-2.4-0.9c-1,0-1.9,0.2-2.5,0.8c-0.7,0.5-1.1,1.2-1.5,2c-0.3,0.9-0.5,1.8-0.5,2.9c0,1.7,0.4,3.1,1.1,4.1
				c0.8,1,1.9,1.6,3.3,1.6c1.1,0,1.9-0.2,2.5-0.8s1-1.2,1.3-2.2l5,1c-0.6,2.1-1.6,3.6-3.1,4.8S190.2,375.3,187.9,375.3L187.9,375.3z
				"/>
			<path class="st1" d="M205.4,375.3c-1.4,0-2.6-0.3-3.5-0.8c-1-0.5-1.7-1.2-2.2-2.1s-0.8-1.9-0.8-3c0-0.9,0.1-1.7,0.4-2.5
				c0.3-0.7,0.7-1.4,1.3-2s1.4-1,2.5-1.4c0.7-0.3,1.6-0.5,2.6-0.7c1-0.2,2.1-0.4,3.4-0.6c1.3-0.2,2.6-0.4,4.2-0.6l-1.8,1
				c0-1.1-0.3-2-0.8-2.5s-1.5-0.8-2.8-0.8c-0.7,0-1.5,0.2-2.2,0.5c-0.8,0.4-1.3,1-1.6,1.9l-4.4-1.4c0.5-1.6,1.4-2.9,2.8-3.9
				c1.4-1,3.2-1.5,5.5-1.5c1.7,0,3.2,0.3,4.6,0.8s2.3,1.4,3,2.7c0.4,0.7,0.6,1.4,0.7,2.2c0.1,0.7,0.1,1.5,0.1,2.4v11.9H212v-4
				l0.6,0.8c-0.9,1.3-2,2.2-3.1,2.8S207,375.3,205.4,375.3L205.4,375.3z M206.4,371.4c0.9,0,1.7-0.2,2.3-0.5s1.1-0.7,1.5-1.1
				s0.6-0.8,0.8-1c0.2-0.5,0.4-1.1,0.4-1.8s0.1-1.3,0.1-1.8l1.4,0.4c-1.4,0.2-2.6,0.4-3.5,0.6s-1.6,0.3-2.2,0.4s-1,0.3-1.5,0.4
				c-0.5,0.2-0.9,0.4-1.2,0.6s-0.5,0.5-0.6,0.7c-0.1,0.3-0.2,0.6-0.2,0.9c0,0.4,0.1,0.8,0.3,1.1c0.2,0.3,0.5,0.6,0.9,0.7
				C205.4,371.4,205.9,371.4,206.4,371.4L206.4,371.4z"/>
			<path class="st1" d="M229.6,375.3c-2,0-3.7-0.5-5.2-1.4c-1.4-0.9-2.5-2.1-3.3-3.7c-0.8-1.5-1.1-3.3-1.1-5.2s0.4-3.7,1.2-5.3
				s1.9-2.8,3.4-3.6c1.4-0.9,3.2-1.3,5.1-1.3c2.3,0,4.2,0.6,5.8,1.7s2.6,2.7,3,4.7l-4.9,1.3c-0.3-1-0.8-1.8-1.5-2.4
				c-0.7-0.6-1.5-0.9-2.4-0.9c-1,0-1.9,0.2-2.5,0.8s-1.1,1.2-1.5,2c-0.3,0.9-0.5,1.8-0.5,2.9c0,1.7,0.4,3.1,1.1,4.1
				c0.8,1,1.9,1.6,3.3,1.6c1.1,0,1.9-0.2,2.5-0.8c0.6-0.5,1-1.2,1.3-2.2l5,1c-0.6,2.1-1.6,3.6-3.1,4.8S231.8,375.3,229.6,375.3
				L229.6,375.3z"/>
			<path class="st1" d="M241.8,352.6v-4.3h4.9v4.3H241.8z M241.8,374.8v-19.4h4.9v19.4H241.8z"/>
			<path class="st1" d="M260.8,375.3c-2,0-3.7-0.4-5.1-1.3c-1.5-0.9-2.6-2.1-3.4-3.6c-0.8-1.5-1.2-3.3-1.2-5.3s0.4-3.8,1.3-5.4
				c0.8-1.5,2-2.8,3.5-3.6c1.5-0.9,3.2-1.3,5.1-1.3s3.7,0.4,5.2,1.3c1.5,0.9,2.6,2.1,3.5,3.6s1.2,3.3,1.2,5.3s-0.4,3.8-1.2,5.3
				s-2,2.8-3.5,3.6S262.8,375.3,260.8,375.3L260.8,375.3z M260.8,370.7c1.6,0,2.8-0.5,3.5-1.6s1.2-2.4,1.2-4.1s-0.4-3.1-1.2-4.1
				c-0.8-1-2-1.5-3.5-1.5c-1.1,0-1.9,0.2-2.6,0.7c-0.7,0.5-1.2,1.1-1.5,2s-0.5,1.8-0.5,3c0,1.7,0.4,3.1,1.2,4.1
				C258.2,370.2,259.3,370.7,260.8,370.7L260.8,370.7z M262.7,352.6h-3.6l3-7h3.6L262.7,352.6z"/>
			<path class="st1" d="M274.6,374.8v-19.4h4.4v6.4h0.6v13H274.6L274.6,374.8z M287.9,374.8v-9.2c0-0.4,0-1-0.1-1.7
				s-0.2-1.4-0.5-2.1s-0.7-1.3-1.2-1.8s-1.4-0.7-2.4-0.7c-0.4,0-0.9,0.1-1.4,0.2s-0.9,0.4-1.4,0.8c-0.4,0.4-0.8,0.9-1,1.7
				c-0.3,0.7-0.4,1.7-0.4,2.9l-2.8-1.3c0-1.5,0.3-3,0.9-4.3s1.6-2.4,2.8-3.3c1.2-0.8,2.8-1.2,4.7-1.2c1.5,0,2.8,0.3,3.7,0.8
				c1,0.5,1.7,1.2,2.2,2c0.5,0.8,0.9,1.6,1.1,2.5c0.2,0.9,0.4,1.6,0.4,2.4s0.1,1.2,0.1,1.5v10.9L287.9,374.8L287.9,374.8z"/>
			<path class="st1" d="M45.9,418.5c-1.4,0-2.6-0.3-3.5-0.8s-1.7-1.2-2.2-2.1s-0.8-1.9-0.8-3c0-0.9,0.1-1.7,0.4-2.5
				c0.3-0.7,0.7-1.4,1.3-2s1.5-1,2.5-1.4c0.7-0.3,1.6-0.5,2.6-0.7c1-0.2,2.1-0.4,3.4-0.6c1.3-0.2,2.7-0.4,4.2-0.6l-1.8,1
				c0-1.1-0.3-2-0.8-2.5c-0.5-0.5-1.5-0.8-2.8-0.8c-0.7,0-1.5,0.2-2.2,0.5c-0.8,0.4-1.3,1-1.6,1.9l-4.4-1.4c0.5-1.6,1.4-2.9,2.8-3.9
				s3.2-1.5,5.5-1.5c1.7,0,3.2,0.3,4.6,0.8c1.3,0.5,2.3,1.4,3,2.7c0.4,0.7,0.6,1.4,0.7,2.2s0.1,1.5,0.1,2.4V418h-4.3v-4l0.6,0.8
				c-1,1.3-2,2.2-3.1,2.8S47.6,418.5,45.9,418.5L45.9,418.5z M47,414.6c0.9,0,1.7-0.2,2.3-0.5s1.1-0.7,1.5-1.1s0.6-0.8,0.8-1
				c0.2-0.5,0.4-1.1,0.4-1.8s0.1-1.3,0.1-1.8l1.4,0.4c-1.5,0.2-2.6,0.4-3.5,0.6s-1.6,0.3-2.2,0.4s-1,0.3-1.5,0.4
				c-0.5,0.2-0.9,0.4-1.2,0.6s-0.5,0.5-0.7,0.7c-0.1,0.3-0.2,0.6-0.2,0.9c0,0.4,0.1,0.8,0.3,1.1c0.2,0.3,0.5,0.6,0.9,0.7
				C45.9,414.6,46.4,414.6,47,414.6L47,414.6z"/>
			<path class="st1" d="M69.1,418.5c-2.4,0-4.4-0.5-5.9-1.7c-1.5-1.1-2.4-2.7-2.8-4.7l5-0.8c0.2,0.9,0.7,1.6,1.4,2.1
				c0.7,0.5,1.6,0.8,2.7,0.8c0.9,0,1.6-0.2,2.1-0.5s0.7-0.8,0.7-1.4c0-0.4-0.1-0.7-0.3-0.9s-0.6-0.5-1.3-0.7s-1.7-0.5-3.1-0.9
				c-1.6-0.4-2.8-0.9-3.8-1.4c-1-0.5-1.6-1.1-2-1.8s-0.6-1.5-0.6-2.5c0-1.2,0.3-2.3,1-3.2c0.6-0.9,1.5-1.6,2.7-2.1
				c1.2-0.5,2.5-0.8,4.1-0.8s2.9,0.2,4.1,0.7s2.1,1.1,2.8,2c0.7,0.9,1.2,1.9,1.3,3.1l-5,0.9c-0.1-0.7-0.4-1.3-0.9-1.7
				c-0.5-0.4-1.3-0.7-2.2-0.7c-0.9-0.1-1.6,0.1-2.2,0.4c-0.6,0.3-0.8,0.7-0.8,1.3c0,0.3,0.1,0.6,0.3,0.9c0.2,0.2,0.7,0.5,1.5,0.7
				c0.7,0.2,1.9,0.5,3.4,0.9c1.5,0.4,2.7,0.8,3.6,1.3c0.9,0.5,1.5,1.1,1.9,1.8c0.4,0.7,0.6,1.6,0.6,2.6c0,2-0.7,3.6-2.2,4.7
				S71.6,418.5,69.1,418.5L69.1,418.5z"/>
			<path class="st1" d="M90.2,418.5c-2,0-3.8-0.4-5.3-1.3s-2.7-2-3.6-3.5s-1.3-3.2-1.3-5.2c0-2.1,0.4-4,1.3-5.5
				c0.8-1.6,2-2.8,3.5-3.7c1.5-0.9,3.2-1.3,5.1-1.3c2,0,3.8,0.5,5.2,1.4s2.5,2.3,3.2,4c0.7,1.7,0.9,3.8,0.7,6.1h-4.8v-1.8
				c0-2-0.3-3.4-0.9-4.3c-0.6-0.9-1.7-1.3-3.1-1.3c-1.7,0-2.9,0.5-3.7,1.5c-0.8,1-1.2,2.5-1.2,4.5c0,1.8,0.4,3.2,1.2,4.2
				c0.8,1,1.9,1.5,3.5,1.5c1,0,1.8-0.2,2.5-0.6s1.2-1,1.6-1.8l4.9,1.4c-0.7,1.8-1.9,3.2-3.5,4.1C93.8,418,92.1,418.5,90.2,418.5
				L90.2,418.5z M83.8,409.6V406h12.9v3.6H83.8z"/>
			<path class="st1" d="M103.1,418v-19.4h4.3v4.8l-0.5-0.6c0.2-0.7,0.6-1.3,1-1.8s0.9-1,1.6-1.4c0.5-0.3,1-0.5,1.5-0.7
				c0.6-0.2,1.1-0.3,1.7-0.3c0.6,0,1.2,0,1.8,0v4.6c-0.5-0.2-1.2-0.2-1.9-0.2s-1.4,0.2-1.9,0.5c-0.6,0.3-1.1,0.6-1.5,1
				c-0.4,0.4-0.7,1-0.9,1.5c-0.2,0.6-0.3,1.3-0.3,2v9.9C108,418,103.1,418,103.1,418z"/>
			<path class="st1" d="M115.8,402.3v-3.8h13.8v3.8H115.8z M129.6,418c-1.3,0.2-2.7,0.4-3.9,0.3s-2.4-0.3-3.5-0.7s-1.8-1.1-2.3-2.1
				c-0.5-0.9-0.7-1.8-0.8-2.7c0-0.9,0-2,0-3.1v-16.6h4.9v16.3c0,0.8,0,1.4,0,2c0,0.6,0.1,1.1,0.4,1.5c0.4,0.7,1.1,1.1,2.1,1.1
				s2,0,3.1-0.1V418L129.6,418z"/>
			<path class="st1" d="M134.3,395.8v-4.3h4.9v4.3H134.3z M134.3,418v-19.4h4.9V418H134.3z"/>
			<path class="st1" d="M149.8,418l-7.1-19.4h4.9l4.6,13.5l4.6-13.5h4.9l-7.1,19.4H149.8z"/>
			<path class="st1" d="M169.3,418.5c-1.4,0-2.6-0.3-3.5-0.8c-1-0.5-1.7-1.2-2.2-2.1s-0.8-1.9-0.8-3c0-0.9,0.1-1.7,0.4-2.5
				c0.3-0.7,0.7-1.4,1.3-2s1.4-1,2.5-1.4c0.7-0.3,1.6-0.5,2.6-0.7c1-0.2,2.1-0.4,3.4-0.6c1.3-0.2,2.6-0.4,4.2-0.6l-1.8,1
				c0-1.1-0.3-2-0.8-2.5s-1.5-0.8-2.8-0.8c-0.7,0-1.5,0.2-2.2,0.5c-0.8,0.4-1.3,1-1.6,1.9l-4.4-1.4c0.5-1.6,1.4-2.9,2.8-3.9
				s3.2-1.5,5.5-1.5c1.7,0,3.2,0.3,4.6,0.8s2.3,1.4,3,2.7c0.4,0.7,0.6,1.4,0.7,2.2s0.1,1.5,0.1,2.4V418h-4.3v-4l0.6,0.8
				c-0.9,1.3-2,2.2-3.1,2.8S171,418.5,169.3,418.5L169.3,418.5z M170.4,414.6c0.9,0,1.7-0.2,2.3-0.5s1.1-0.7,1.5-1.1s0.6-0.8,0.8-1
				c0.2-0.5,0.4-1.1,0.4-1.8s0.1-1.3,0.1-1.8l1.4,0.4c-1.4,0.2-2.6,0.4-3.5,0.6s-1.6,0.3-2.2,0.4c-0.6,0.1-1,0.3-1.5,0.4
				c-0.5,0.2-0.9,0.4-1.2,0.6c-0.3,0.2-0.5,0.5-0.6,0.7c-0.1,0.3-0.2,0.6-0.2,0.9c0,0.4,0.1,0.8,0.3,1.1c0.2,0.3,0.5,0.6,0.9,0.7
				C169.3,414.6,169.8,414.6,170.4,414.6L170.4,414.6z"/>
			<path class="st1" d="M94.3,504.4v-25.9h8.4c0.2,0,0.6,0,1.3,0c0.6,0,1.2,0,1.8,0.1c2.1,0.2,3.9,1,5.3,2.2
				c1.4,1.2,2.6,2.7,3.3,4.6c0.8,1.9,1.1,3.9,1.1,6.1s-0.4,4.2-1.1,6.1c-0.8,1.9-1.9,3.4-3.3,4.6s-3.2,1.9-5.3,2.2
				c-0.6,0.1-1.2,0.1-1.8,0.1c-0.6,0-1.1,0-1.3,0L94.3,504.4L94.3,504.4z M99.2,499.8h3.4c0.3,0,0.8,0,1.3,0c0.6,0,1.1-0.1,1.5-0.1
				c1.1-0.2,2.1-0.8,2.8-1.6s1.2-1.8,1.6-3c0.3-1.2,0.5-2.4,0.5-3.6s-0.2-2.5-0.5-3.7s-0.9-2.1-1.6-3c-0.7-0.8-1.6-1.3-2.7-1.5
				c-0.4-0.1-0.9-0.1-1.5-0.2c-0.6,0-1,0-1.3,0h-3.4L99.2,499.8L99.2,499.8z"/>
			<path class="st1" d="M120.2,482.2v-4.3h4.9v4.3H120.2z M120.2,504.4v-19.4h4.9v19.4H120.2z"/>
			<path class="st1" d="M135.8,504.4l-7.1-19.4h4.9l4.6,13.5l4.6-13.5h4.9l-7.1,19.4H135.8z"/>
			<path class="st1" d="M159.3,504.9c-2,0-3.8-0.4-5.3-1.3s-2.7-2-3.6-3.5s-1.3-3.2-1.3-5.2c0-2.1,0.4-4,1.3-5.5s2-2.8,3.5-3.7
				c1.5-0.9,3.2-1.3,5.1-1.3c2,0,3.8,0.5,5.2,1.4s2.5,2.3,3.2,4c0.7,1.7,0.9,3.8,0.7,6.1h-4.8v-1.8c0-2-0.3-3.4-0.9-4.3
				c-0.6-0.9-1.7-1.3-3.1-1.3c-1.7,0-2.9,0.5-3.7,1.5c-0.8,1-1.2,2.5-1.2,4.5c0,1.8,0.4,3.2,1.2,4.2c0.8,1,1.9,1.5,3.5,1.5
				c1,0,1.8-0.2,2.5-0.6s1.2-1,1.6-1.8l4.9,1.4c-0.7,1.8-1.9,3.2-3.5,4.1C162.9,504.4,161.1,504.9,159.3,504.9L159.3,504.9z
				 M152.8,496v-3.6h12.9v3.6H152.8z"/>
			<path class="st1" d="M172.1,504.4v-19.4h4.3v4.8l-0.5-0.6c0.2-0.7,0.6-1.3,1-1.8s0.9-1,1.6-1.4c0.5-0.3,1-0.5,1.5-0.7
				s1.1-0.3,1.7-0.3c0.6,0,1.2,0,1.8,0v4.6c-0.5-0.2-1.2-0.2-1.9-0.2s-1.4,0.2-1.9,0.5c-0.6,0.3-1.1,0.6-1.5,1
				c-0.4,0.4-0.7,1-0.9,1.5c-0.2,0.6-0.3,1.3-0.3,2v9.9H172.1L172.1,504.4z"/>
			<path class="st1" d="M193.8,504.9c-2.4,0-4.4-0.5-5.9-1.7c-1.5-1.1-2.4-2.7-2.8-4.7l5-0.8c0.2,0.9,0.7,1.6,1.4,2.1
				c0.7,0.5,1.6,0.8,2.7,0.8c0.9,0,1.6-0.2,2.1-0.5s0.7-0.8,0.7-1.4c0-0.4-0.1-0.7-0.3-0.9c-0.2-0.2-0.6-0.5-1.3-0.7
				s-1.7-0.5-3.1-0.9c-1.6-0.4-2.9-0.9-3.8-1.4c-0.9-0.5-1.6-1.1-2.1-1.8s-0.6-1.5-0.6-2.5c0-1.2,0.3-2.3,0.9-3.2s1.5-1.6,2.7-2.1
				c1.2-0.5,2.5-0.8,4.1-0.8s2.9,0.2,4.1,0.7c1.2,0.5,2.1,1.1,2.9,2c0.7,0.9,1.2,1.9,1.3,3.1l-5,0.9c-0.1-0.7-0.4-1.3-0.9-1.7
				c-0.5-0.4-1.3-0.7-2.2-0.7c-0.9-0.1-1.6,0.1-2.2,0.4s-0.8,0.7-0.8,1.3c0,0.3,0.1,0.6,0.4,0.9c0.2,0.2,0.7,0.5,1.5,0.7
				c0.7,0.2,1.9,0.5,3.4,0.9c1.5,0.4,2.7,0.8,3.6,1.3c0.9,0.5,1.5,1.1,1.9,1.8c0.4,0.7,0.6,1.6,0.6,2.6c0,2-0.7,3.6-2.2,4.7
				S196.3,504.9,193.8,504.9L193.8,504.9z"/>
			<path class="st1" d="M206.3,482.2v-4.3h4.9v4.3H206.3z M206.3,504.4v-19.4h4.9v19.4H206.3z"/>
			<path class="st1" d="M224.5,504.9c-1.8,0-3.4-0.5-4.7-1.4c-1.3-0.9-2.4-2.1-3.1-3.7c-0.8-1.5-1.1-3.3-1.1-5.2s0.4-3.7,1.1-5.3
				s1.8-2.8,3.2-3.6c1.4-0.9,3-1.3,4.9-1.3s3.4,0.5,4.7,1.4c1.3,0.9,2.2,2.1,2.9,3.7c0.6,1.5,1,3.3,1,5.2s-0.3,3.7-1,5.2
				s-1.6,2.8-2.9,3.7C228,504.5,226.4,504.9,224.5,504.9L224.5,504.9z M225.2,500.5c1.1,0,2-0.2,2.6-0.7c0.6-0.5,1.1-1.2,1.4-2.1
				c0.3-0.9,0.4-1.9,0.4-3.1s-0.1-2.2-0.4-3.1s-0.8-1.6-1.4-2.1s-1.5-0.7-2.5-0.7c-1.1,0-2,0.3-2.7,0.8s-1.2,1.2-1.6,2.1
				s-0.5,1.9-0.5,3s0.2,2.1,0.5,3c0.3,0.9,0.8,1.6,1.5,2.1C223.3,500.3,224.2,500.5,225.2,500.5L225.2,500.5z M229.7,504.4V491h-0.6
				v-12.6h4.9v25.9H229.7L229.7,504.4z"/>
			<path class="st1" d="M244.5,504.9c-1.4,0-2.6-0.3-3.5-0.8c-1-0.5-1.7-1.2-2.2-2.1s-0.8-1.9-0.8-3c0-0.9,0.1-1.7,0.4-2.5
				c0.3-0.7,0.7-1.4,1.3-2s1.4-1,2.5-1.4c0.7-0.3,1.6-0.5,2.6-0.7c1-0.2,2.1-0.4,3.4-0.6c1.3-0.2,2.6-0.4,4.2-0.6l-1.8,1
				c0-1.1-0.3-2-0.8-2.5s-1.5-0.8-2.8-0.8c-0.7,0-1.5,0.2-2.2,0.5c-0.8,0.4-1.3,1-1.6,1.9l-4.4-1.4c0.5-1.6,1.4-2.9,2.8-3.9
				c1.4-1,3.2-1.5,5.5-1.5c1.7,0,3.2,0.3,4.6,0.8s2.3,1.4,3,2.7c0.4,0.7,0.6,1.4,0.7,2.2c0.1,0.7,0.1,1.5,0.1,2.4v11.9h-4.3v-4
				l0.6,0.8c-0.9,1.3-2,2.2-3.1,2.8S246.1,504.9,244.5,504.9L244.5,504.9z M245.5,501c0.9,0,1.7-0.2,2.3-0.5s1.1-0.7,1.5-1.1
				s0.6-0.8,0.8-1c0.2-0.5,0.4-1.1,0.4-1.8s0.1-1.3,0.1-1.8l1.4,0.4c-1.4,0.2-2.6,0.4-3.5,0.6s-1.6,0.3-2.2,0.4s-1,0.3-1.5,0.4
				c-0.5,0.2-0.9,0.4-1.2,0.6s-0.5,0.5-0.6,0.7c-0.1,0.3-0.2,0.6-0.2,0.9c0,0.4,0.1,0.8,0.3,1.1c0.2,0.3,0.5,0.6,0.9,0.7
				C244.5,501,244.9,501,245.5,501L245.5,501z"/>
			<path class="st1" d="M268,504.9c-1.8,0-3.4-0.5-4.7-1.4c-1.3-0.9-2.4-2.1-3.1-3.7c-0.8-1.5-1.1-3.3-1.1-5.2s0.4-3.7,1.1-5.3
				s1.8-2.8,3.2-3.6c1.4-0.9,3-1.3,4.9-1.3s3.4,0.5,4.7,1.4s2.2,2.1,2.9,3.7c0.6,1.5,1,3.3,1,5.2s-0.3,3.7-1,5.2
				c-0.6,1.5-1.6,2.8-2.9,3.7C271.5,504.5,269.9,504.9,268,504.9L268,504.9z M268.7,500.5c1.1,0,2-0.2,2.6-0.7
				c0.6-0.5,1.1-1.2,1.4-2.1s0.4-1.9,0.4-3.1s-0.1-2.2-0.4-3.1c-0.3-0.9-0.8-1.6-1.4-2.1s-1.5-0.7-2.5-0.7c-1.1,0-2,0.3-2.7,0.8
				s-1.2,1.2-1.6,2.1s-0.5,1.9-0.5,3s0.2,2.1,0.5,3c0.3,0.9,0.8,1.6,1.5,2.1C266.8,500.3,267.7,500.5,268.7,500.5L268.7,500.5z
				 M273.2,504.4V491h-0.6v-12.6h4.9v25.9H273.2z"/>
			<path class="st1" d="M38.9,590.8v-25.9h4.9v25.9H38.9z"/>
			<path class="st1" d="M49.1,590.8v-19.4h4.4v6.4h0.6v13H49.1z M62.4,590.8v-9.2c0-0.4,0-1-0.1-1.7s-0.2-1.4-0.5-2.1
				s-0.7-1.3-1.2-1.8s-1.4-0.7-2.4-0.7c-0.4,0-0.9,0.1-1.3,0.2s-0.9,0.4-1.3,0.8c-0.4,0.4-0.8,0.9-1,1.7c-0.3,0.7-0.4,1.7-0.4,2.9
				l-2.8-1.3c0-1.5,0.3-3,0.9-4.3c0.6-1.3,1.6-2.4,2.8-3.3c1.2-0.8,2.8-1.2,4.7-1.2c1.5,0,2.8,0.3,3.7,0.8c1,0.5,1.7,1.2,2.2,2
				c0.5,0.8,0.9,1.6,1.1,2.5c0.2,0.9,0.4,1.6,0.4,2.3c0.1,0.7,0.1,1.2,0.1,1.5v10.9L62.4,590.8L62.4,590.8z"/>
			<path class="st1" d="M80.3,591.3c-2,0-3.7-0.5-5.2-1.3c-1.4-0.9-2.5-2.1-3.3-3.7s-1.2-3.3-1.2-5.2s0.4-3.7,1.2-5.3
				c0.8-1.5,1.9-2.8,3.4-3.7c1.4-0.9,3.2-1.3,5.2-1.3c2.3,0,4.2,0.6,5.8,1.7c1.6,1.2,2.6,2.7,3,4.7l-4.9,1.3c-0.3-1-0.8-1.8-1.5-2.4
				c-0.7-0.6-1.5-0.8-2.4-0.8c-1,0-1.9,0.2-2.5,0.8s-1.2,1.2-1.5,2c-0.3,0.9-0.5,1.8-0.5,2.9c0,1.7,0.4,3.1,1.1,4.1
				c0.8,1,1.9,1.6,3.3,1.6c1.1,0,1.9-0.2,2.5-0.8c0.6-0.5,1-1.2,1.3-2.2l5,1c-0.6,2.1-1.6,3.7-3.1,4.8S82.5,591.3,80.3,591.3
				L80.3,591.3z"/>
			<path class="st1" d="M92.5,590.8v-26.5h4.9v26.5H92.5z"/>
			<path class="st1" d="M110.1,591.3c-1.5,0-2.8-0.3-3.7-0.8s-1.7-1.2-2.2-2c-0.5-0.8-0.9-1.6-1.1-2.5c-0.2-0.9-0.4-1.6-0.4-2.3
				c-0.1-0.7-0.1-1.2-0.1-1.5v-10.9h5v9.2c0,0.4,0,1,0.1,1.7s0.2,1.4,0.4,2.1s0.7,1.3,1.2,1.8s1.4,0.7,2.4,0.7
				c0.4,0,0.9-0.1,1.3-0.2c0.5-0.1,0.9-0.4,1.3-0.8s0.8-0.9,1-1.7s0.4-1.7,0.4-2.9l2.8,1.3c0,1.5-0.3,3-0.9,4.3s-1.6,2.4-2.8,3.3
				S112,591.4,110.1,591.3L110.1,591.3z M116.4,590.8v-6.4h-0.6v-13h4.9v19.4H116.4z"/>
			<path class="st1" d="M133.3,591.3c-2.4,0-4.4-0.5-5.9-1.7c-1.5-1.1-2.4-2.7-2.8-4.7l5-0.8c0.2,0.9,0.7,1.6,1.4,2.1
				c0.7,0.5,1.6,0.8,2.7,0.8c0.9,0,1.6-0.2,2.1-0.5s0.7-0.8,0.7-1.4c0-0.4-0.1-0.7-0.3-0.9s-0.6-0.5-1.3-0.7s-1.7-0.5-3.1-0.9
				c-1.6-0.4-2.9-0.9-3.8-1.4c-0.9-0.5-1.6-1.1-2.1-1.8c-0.4-0.7-0.6-1.5-0.6-2.5c0-1.2,0.3-2.3,0.9-3.2c0.6-0.9,1.5-1.6,2.7-2.1
				c1.2-0.5,2.5-0.8,4.1-0.8s2.9,0.2,4.1,0.7c1.2,0.5,2.1,1.1,2.9,2c0.7,0.9,1.2,1.9,1.3,3.1l-5,0.9c-0.1-0.7-0.4-1.3-0.9-1.7
				c-0.5-0.4-1.3-0.7-2.2-0.7c-0.9-0.1-1.6,0.1-2.2,0.4s-0.8,0.7-0.8,1.3c0,0.3,0.1,0.6,0.4,0.8c0.2,0.2,0.7,0.5,1.5,0.7
				s1.9,0.5,3.4,0.9c1.5,0.4,2.7,0.8,3.6,1.3c0.9,0.5,1.5,1.1,1.9,1.8c0.4,0.7,0.6,1.6,0.6,2.6c0,2-0.7,3.6-2.2,4.7
				S135.8,591.3,133.3,591.3L133.3,591.3z"/>
			<path class="st1" d="M145.8,568.6v-4.3h4.9v4.3H145.8z M145.8,590.8v-19.4h4.9v19.4H145.8z"/>
			<path class="st1" d="M164.8,591.3c-2,0-3.7-0.4-5.1-1.3c-1.5-0.9-2.6-2.1-3.4-3.6c-0.8-1.5-1.2-3.3-1.2-5.3s0.4-3.8,1.3-5.4
				c0.8-1.5,2-2.8,3.5-3.6c1.5-0.9,3.2-1.3,5.1-1.3s3.7,0.4,5.2,1.3c1.5,0.9,2.6,2.1,3.5,3.6c0.8,1.5,1.2,3.3,1.2,5.3
				s-0.4,3.8-1.2,5.3s-2,2.8-3.5,3.6S166.8,591.3,164.8,591.3L164.8,591.3z M164.8,586.7c1.6,0,2.8-0.5,3.5-1.6s1.2-2.4,1.2-4.1
				s-0.4-3.1-1.2-4.1s-1.9-1.5-3.5-1.5c-1.1,0-1.9,0.2-2.6,0.7c-0.7,0.5-1.2,1.2-1.5,2s-0.5,1.8-0.5,3c0,1.7,0.4,3.1,1.2,4.2
				S163.3,586.7,164.8,586.7L164.8,586.7z M166.7,568.6h-3.6l3-7h3.6L166.7,568.6z"/>
			<path class="st1" d="M178.6,590.8v-19.4h4.4v6.4h0.6v13H178.6z M191.9,590.8v-9.2c0-0.4,0-1-0.1-1.7s-0.2-1.4-0.4-2.1
				s-0.7-1.3-1.2-1.8s-1.4-0.7-2.4-0.7c-0.4,0-0.9,0.1-1.4,0.2c-0.5,0.1-0.9,0.4-1.4,0.8s-0.8,0.9-1,1.7c-0.3,0.7-0.4,1.7-0.4,2.9
				l-2.8-1.3c0-1.5,0.3-3,0.9-4.3c0.6-1.3,1.6-2.4,2.8-3.3c1.2-0.8,2.8-1.2,4.7-1.2c1.5,0,2.8,0.3,3.7,0.8c1,0.5,1.7,1.2,2.2,2
				s0.9,1.6,1.1,2.5c0.2,0.9,0.4,1.6,0.4,2.3c0.1,0.7,0.1,1.2,0.1,1.5v10.9L191.9,590.8L191.9,590.8z"/>
		</g>
		<g class="st0">
			<path class="st1" d="M287.4,9.1V7.8c0-0.1,0-0.1,0.1-0.2c0.2-1.4,0.8-2.6,1.7-3.6c1.8-1.9,4-2.8,6.6-2.8c2.3,0,4.4,0.6,6,2.2
				c0.6,0.6,1.1,1.4,1.7,2.1c0.1,0.1,0.1,0.2,0.2,0.3c0.1-0.2,0.2-0.3,0.2-0.4c0.7-1,1.4-1.9,2.4-2.7c1.5-1.2,3.2-1.6,5.1-1.6
				c2.1,0,4,0.5,5.7,1.8c2,1.5,3.1,3.6,2.9,6.2c-0.1,1.8-0.7,3.4-1.6,4.9c-1.3,2.3-3,4.4-4.8,6.3c-3,3.2-6.3,6-9.6,8.8
				c-0.3,0.2-0.5,0.2-0.7,0c-2-1.8-4.1-3.6-6.1-5.4c-2.4-2.2-4.7-4.5-6.6-7.1c-1.3-1.7-2.3-3.6-2.9-5.6
				C287.6,10.4,287.5,9.8,287.4,9.1L287.4,9.1z"/>
		</g>
		<g class="st0">
			<path class="st1" d="M5.8,101.4c1.3-1.8,2.5-3.4,3.8-5.2c1.6-2.1,3.2-4.3,4.7-6.4c0.2-0.2,0.3-0.3,0.6-0.2
				c1.2,0.6,2.5,1.1,3.7,1.7c0,0.1,0,0.1,0,0.2c-0.4,0.2-0.8,0.5-1.2,0.7c-1.1,0.7-2,1.6-2.3,2.9c-0.3,1.3,0.2,2.5,1.5,3
				c2.1,0.8,4,0.4,5.7-0.9c0.5-0.3,0.9-0.7,1.4-1c0.4-0.2,0.7-0.2,1.1,0.1c3.5,3,7.1,5.9,10.7,8.8c0.5,0.4,0.8,0.8,0.7,1.5
				c-0.2,1-1.3,1.4-2.1,0.8c-1.6-1.1-3.2-2.3-4.9-3.4c-0.6-0.4-0.9-0.4-1.2-0.1c-0.3,0.4-0.1,0.8,0.4,1.2c1.4,1,2.7,1.9,4.1,2.9
				c0.6,0.4,0.7,1,0.5,1.6c-0.2,0.6-0.8,0.9-1.4,0.8c-0.2,0-0.5-0.2-0.7-0.3c-1.2-0.8-2.4-1.7-3.7-2.6c-0.5-0.4-0.9-0.4-1.2,0
				c-0.3,0.4-0.2,0.9,0.3,1.2c1.2,0.8,2.4,1.7,3.5,2.5c0.1,0.1,0.3,0.2,0.4,0.4c0.5,0.5,0.5,1.2,0.1,1.7c-0.5,0.5-1.2,0.7-1.8,0.3
				c-1.2-0.8-2.4-1.6-3.5-2.4c-0.1-0.1-0.3-0.2-0.4-0.3c-0.4-0.2-0.7-0.1-0.9,0.2c-0.2,0.3-0.1,0.7,0.2,0.9c0.9,0.6,1.7,1.2,2.6,1.8
				c0.2,0.1,0.4,0.3,0.6,0.4c0.5,0.5,0.6,1.2,0.2,1.8c-0.4,0.6-1.2,0.7-1.8,0.3c-0.4-0.3-0.8-0.5-1.2-0.8c-0.1-0.1-0.2-0.1-0.2-0.2
				c-0.6-1.4-1.7-2.1-3.3-2.2c0-2.1-1.1-3.3-3.1-3.7c0.7-1.9-0.3-4.3-2.9-4.5c0-0.4,0.1-0.8,0.1-1.3c0-1.3-0.9-2.5-2.2-2.9
				c-1.3-0.4-2.6,0-3.5,1.1c-0.4,0.5-0.7,1-1.1,1.6C7.3,102.9,6.5,102.2,5.8,101.4L5.8,101.4z"/>
			<path class="st1" d="M35.9,103.8c-1-0.8-1.8-1.5-2.7-2.2c-2.5-2.1-5.1-4.2-7.6-6.3c-0.8-0.7-1.7-0.8-2.5-0.3
				c-0.6,0.3-1.2,0.8-1.8,1.3c-1.1,0.9-2.4,1.2-3.7,0.8c-1.1-0.2-1.4-1-0.9-2c0.2-0.4,0.5-0.8,0.8-1.1c1.5-1.2,3.2-2.1,5.1-2.4
				c1-0.2,2-0.1,2.9,0.3c1.8,0.7,3.6,1.1,5.5,0.8c0.1,0,0.3,0.1,0.4,0.2c1.6,2.4,3.3,4.9,4.9,7.3c0.4,0.7,0.4,1.4,0.2,2.1
				C36.4,102.7,36.2,103.2,35.9,103.8L35.9,103.8z"/>
			<path class="st1" d="M10.9,84.4c0.3,0.1,0.4,0.2,0.6,0.3c0.8,0.5,1.5,1.1,2.3,1.6c0.6,0.4,0.6,0.8,0.2,1.4
				c-3.3,4.6-6.6,9.1-9.9,13.7c-0.4,0.6-0.7,0.6-1.3,0.2c-0.8-0.5-1.5-1.1-2.2-1.6c-0.6-0.4-0.6-0.8-0.2-1.3
				c3.3-4.6,6.6-9.2,9.9-13.7C10.4,84.7,10.6,84.6,10.9,84.4L10.9,84.4z"/>
			<path class="st1" d="M43.3,99.9c-0.2,0.2-0.3,0.4-0.5,0.6c-0.8,0.6-1.7,1.2-2.5,1.7c-0.4,0.3-0.8,0.2-1.1-0.2
				c-2.8-4.1-5.5-8.2-8.3-12.3c-0.3-0.4-0.2-0.8,0.2-1.1c0.9-0.6,1.7-1.2,2.6-1.7c0.5-0.3,0.8-0.2,1.1,0.2c2.7,4.1,5.5,8.2,8.2,12.3
				C43.1,99.5,43.2,99.7,43.3,99.9L43.3,99.9z"/>
			<path class="st1" d="M13.4,104.1c-0.1,0.3-0.2,0.7-0.4,1c-1.1,1.6-2.2,3.2-3.3,4.8c-0.6,0.8-1.6,1-2.4,0.5
				c-0.8-0.6-1-1.6-0.4-2.4c1.1-1.6,2.2-3.2,3.3-4.7c0.5-0.7,1.4-1,2.2-0.7C13,102.8,13.4,103.3,13.4,104.1z"/>
			<path class="st1" d="M16.5,108.4c-0.1,0.3-0.2,0.7-0.4,0.9c-0.7,1.1-1.5,2.1-2.2,3.2c-0.6,0.8-1.7,1-2.5,0.5
				c-0.8-0.6-1-1.6-0.4-2.5c0.7-1,1.4-2.1,2.2-3.1c0.5-0.6,1.1-0.9,1.9-0.8c0.7,0.2,1.2,0.6,1.3,1.3
				C16.4,108.1,16.4,108.3,16.5,108.4C16.4,108.4,16.4,108.4,16.5,108.4L16.5,108.4z"/>
			<path class="st1" d="M19.4,112.9c-0.1,0.3-0.2,0.7-0.4,0.9c-0.3,0.5-0.7,1-1.1,1.5c-0.6,0.8-1.7,0.9-2.5,0.4
				c-0.8-0.6-0.9-1.6-0.3-2.4c0.4-0.5,0.7-1,1.1-1.5c0.5-0.6,1.2-0.8,2-0.5C18.9,111.5,19.3,112.1,19.4,112.9L19.4,112.9z"/>
			<path class="st1" d="M22.8,116.4c0,1.3-1.4,2.6-2.5,2.3c-1.3-0.3-1.8-1.6-1-2.7c0.2-0.3,0.3-0.5,0.5-0.8c0.5-0.5,1.2-0.7,1.8-0.5
				C22.4,115.1,22.8,115.7,22.8,116.4z"/>
		</g>
		<g class="st0">
			<path class="st1" d="M320,287.7c-0.3,0.6-0.8,0.9-1.5,0.8c-0.6,0-1.2,0-1.8,0c-0.7,0-1.2-0.5-1.2-1.2c0-5.1,0-10.3,0-15.5
				c0-0.7,0.5-1.2,1.2-1.2c0.6,0,1.2,0,1.8,0c0.7,0,1.2,0.2,1.5,0.8V287.7L320,287.7z"/>
			<path class="st1" d="M298.4,277.3c1.7-2.4,3.4-4.7,5.1-7.1c1.1,0.5,2.1,1,3.2,1.5c1.4,0.7,2.8,1.4,4.2,2c0.3,0.1,0.6,0.2,1,0.2
				c0.5,0,1,0,1.5,0c0,0.1,0,0.3,0,0.4c0,3.7,0,7.4,0,11.1c0,0.3-0.1,0.4-0.4,0.5c-4.7,2-9.4,1.8-13.9-0.5c-0.9-0.4-1.7-0.9-2.5-1.3
				c-0.2-0.1-0.4-0.1-0.6-0.1c-2.4,0-4.8,0-7.2,0c-0.9,0-1.6-0.4-2-1.3c-0.4-0.8-0.3-1.6,0.2-2.3c0.5-0.6,1.1-0.9,1.8-0.9
				c3,0,6,0,9,0c2.4,0,4.4-0.9,6.1-2.5c0.3-0.3,0.5-0.7,0.4-1.1c-0.1-0.4-0.4-0.7-0.8-0.8c-0.4-0.1-0.8,0-1.1,0.4
				c-1,1-2.2,1.5-3.5,1.7C298.7,277.2,298.6,277.2,298.4,277.3L298.4,277.3z"/>
			<path class="st1" d="M290,277.3c2.9-4,5.7-7.9,8.5-11.8c1.2,0.9,2.4,1.7,3.6,2.6c-0.7,1-1.5,2-2.2,3c-1.4,1.9-2.8,3.9-4.2,5.8
				c-0.2,0.2-0.4,0.3-0.6,0.3C293.5,277.3,291.8,277.3,290,277.3L290,277.3z"/>
			<path class="st1" d="M283,283.6c-1.1-0.8-1.5-2.8-0.7-4c2-3.2,4-6.4,6.1-9.6c0.4-0.6,0.9-1,1.5-1.3c1.4-0.6,2.8-1.2,4.1-1.8
				c0.2-0.1,0.5-0.1,0.8-0.1c-0.1,0.1-0.1,0.2-0.2,0.3c-3.6,5-7.2,9.9-10.8,14.9C283.6,282.4,283.4,283,283,283.6L283,283.6z"/>
			<path class="st1" d="M303.5,266.4c-1.2-0.9-2.3-1.7-3.5-2.5c0,0-0.1-0.1-0.1-0.1c0.3-0.4,0.5-0.7,0.8-1.1c0.4-0.5,0.8-1,1.1-1.6
				c0.4-0.6,1.1-0.7,1.7-0.3c0.6,0.4,1.1,0.8,1.7,1.2c0.5,0.4,0.7,1,0.4,1.4C304.9,264.5,304.2,265.4,303.5,266.4L303.5,266.4z"/>
			<path class="st1" d="M293.1,286.3c0,0.6,0,1.1,0,1.7c0,0.9-0.8,1.6-1.7,1.6c-0.9,0-1.6-0.7-1.6-1.6c0-0.5,0-1.1,0-1.7
				L293.1,286.3L293.1,286.3z"/>
			<path class="st1" d="M289,286.3c-0.4,0.3-0.8,0.6-1.2,0.9c-0.6,0.4-1.2,0.9-1.8,1.3c-0.4,0.3-0.9,0.3-1.3,0
				c-0.4-0.3-0.6-0.8-0.4-1.2c0.3-0.8,0.5-1.7,0.8-2.5c0-0.1,0.1-0.1,0.1-0.2C286.2,285.7,287.4,286.3,289,286.3L289,286.3z"/>
			<path class="st1" d="M295.4,286.2c0.2,0.1,0.4,0.1,0.5,0.2c0.9,0.4,1.7,0.9,2.6,1.3c0.2,0.1,0.3,0.2,0.2,0.5
				c-0.1,0.9-0.9,1.5-1.7,1.5c-0.9,0-1.6-0.7-1.6-1.6C295.3,287.4,295.4,286.9,295.4,286.2L295.4,286.2z"/>
		</g>
		<g class="st0">
			<path class="st1" d="M14.8,348.7c5.7,0,11.5,4.9,12.5,11.6c1.2,7.5-4,14.6-11.4,15.8c-2.6,0.4-5.1,0.1-7.6-0.9
				C8.1,375,7.9,375,7.6,375c-2,0.4-4,0.7-6.1,1.1c-1.1,0.2-1.7-0.4-1.5-1.5c0.4-2.1,0.8-4.1,1.1-6.2c0-0.2,0-0.4-0.1-0.6
				c-2.7-6.3-0.4-13.4,5.4-17.1C8.7,349.4,11.1,348.7,14.8,348.7L14.8,348.7z M13.8,356.7c-1.9,0-3.8,0-5.7,0
				c-0.9,0-1.4,0.8-1.1,1.5c0.2,0.5,0.6,0.8,1.3,0.8c2.3,0,4.6,0,6.8,0c1.4,0,2.8,0,4.2,0c0.5,0,0.9-0.2,1.2-0.6
				c0.4-0.8-0.1-1.6-1.1-1.6C17.6,356.7,15.7,356.7,13.8,356.7L13.8,356.7z M13.7,363.6c1.8,0,3.6,0,5.4,0c0.2,0,0.4,0,0.6,0
				c0.7-0.1,1-0.8,0.8-1.5c-0.2-0.5-0.6-0.8-1.3-0.8c-3.7,0-7.3,0-11,0c-0.1,0-0.2,0-0.3,0c-0.5,0-0.9,0.4-1,0.9
				c-0.2,0.8,0.4,1.4,1.2,1.4C10,363.6,11.8,363.6,13.7,363.6L13.7,363.6z M10.9,365.9c-1,0-1.9,0-2.9,0c-0.6,0-1,0.4-1.1,1
				c-0.1,0.5,0.2,1,0.7,1.2c0.2,0.1,0.4,0.1,0.6,0.1c1.8,0,3.6,0,5.4,0c0.2,0,0.4,0,0.6-0.1c0.5-0.2,0.8-0.7,0.7-1.2
				c-0.1-0.5-0.5-1-1.1-1C12.8,365.9,11.9,365.9,10.9,365.9L10.9,365.9z"/>
		</g>
		<g class="st0">
			<path class="st1" d="M308,490.2L308,490.2c-0.3,0-0.4,0-0.6,0c-0.6,0.1-1,0.6-1,1.4v9.8c0,0.4,0,0.8,0,1.1c0,0.7,0.6,1.2,1.2,1.2
				c3.7,0,7.4,0,11.1,0c0.5,0,1-0.3,1.2-0.9l0.1-0.2v-11.5c-0.3-0.7-0.8-1-1.8-1c-2.4,0-4.8,0-7.1,0L308,490.2L308,490.2z"/>
			<path class="st1" d="M288.5,497c0,4.1,3.4,7.5,7.5,7.5h0c2,0,3.9-0.8,5.3-2.2c1.4-1.4,2.2-3.3,2.2-5.3c0-2-0.8-3.9-2.2-5.3
				s-3.3-2.2-5.3-2.2h0C291.9,489.4,288.5,492.8,288.5,497L288.5,497z"/>
			<path class="st1" d="M300.3,479.3c-1.1,1.9-2.3,3.8-3.5,5.7c-0.2,0.4-0.3,0.7-0.2,1.1c0.2,0.7,0.7,1,1.4,1h6.5h1.5
				c1.7,0,3.3,0,5,0c0.2,0,0.4,0,0.6-0.1c0.4-0.1,0.7-0.4,0.8-0.7c0.2-0.4,0.1-0.9-0.2-1.3c-2.2-3.6-4.4-7.3-6.5-10.9
				c-0.3-0.5-0.7-0.7-1.2-0.7l0,0c-0.5,0-0.9,0.3-1.2,0.7c-0.4,0.6-0.7,1.2-1.1,1.8L300.3,479.3L300.3,479.3z"/>
		</g>
		<g class="st0">
			<path class="st1" d="M15.5,563.1c0.5,0.1,1.1,0.1,1.6,0.2c2.1,0.3,4,1.2,5.7,2.4c0.2,0.2,0.5,0.4,0.7,0.5c-1,1-2,2-3,3
				c-0.6-0.6-1.4-0.8-2.3-0.7c-0.6,0.1-1.1,0.4-1.5,0.8c-0.9,1-0.8,2.2,0.1,3.5c-0.8,0.8-1.6,1.6-2.4,2.4c-0.1,0-0.1-0.1-0.2-0.2
				c-0.7-0.7-1.4-1.4-2.1-2.1c-0.1-0.1-0.2-0.2-0.4-0.1c-1,0.3-1.9,0.2-2.7-0.6c-0.7-0.8-0.9-1.7-0.5-2.7c0.1-0.2,0-0.3-0.1-0.4
				c-1-1-1.9-1.9-2.9-3c0.8-0.5,1.5-1,2.3-1.4c1.8-1,3.7-1.5,5.7-1.7c0.1,0,0.1,0,0.2,0L15.5,563.1L15.5,563.1z"/>
			<path class="st1" d="M0,576.8c0.1-0.4,0.1-0.8,0.1-1.2c0.2-1.7,0.8-3.2,1.7-4.7c0.4-0.7,0.9-1.5,1.3-2.2c1,1,2,2,3,3
				c-0.6,0.6-0.8,1.4-0.7,2.3c0.1,0.6,0.4,1,0.8,1.4c1,0.9,2.2,0.9,3.5-0.1c0.8,0.8,1.5,1.5,2.2,2.2c0.1,0,0.1,0.1,0.2,0.2
				c-0.1,0.1-0.3,0.2-0.4,0.3c-0.7,0.7-1.3,1.3-2,2c-0.1,0.1-0.1,0.2-0.1,0.4c0.4,1,0.2,1.9-0.6,2.7c-0.8,0.8-1.7,0.9-2.7,0.5
				c-0.2-0.1-0.3,0-0.4,0.1c-0.9,0.9-1.8,1.8-2.7,2.7c-0.1,0.1-0.1,0.2-0.2,0.3c-0.4-0.6-0.8-1.2-1.1-1.7c-1.1-2-1.8-4-2-6.3
				c0-0.1,0-0.2-0.1-0.2L0,576.8L0,576.8z"/>
			<path class="st1" d="M23.6,589.1c-5.7,4.2-12.4,4.3-18,0c1-1,1.9-2,2.9-2.9c0.6,0.5,1.2,0.8,2,0.7c0.6,0,1.2-0.3,1.6-0.8
				c0.8-0.8,1.1-2.3,0-3.5c0.8-0.8,1.6-1.6,2.4-2.4c0,0,0.1,0.1,0.2,0.2c0.7,0.7,1.4,1.4,2.1,2.1c0.1,0.2,0.3,0.2,0.5,0.1
				c1-0.3,1.9-0.2,2.6,0.6c0.7,0.8,0.9,1.7,0.6,2.7c-0.1,0.2,0,0.3,0.1,0.4c0.9,0.9,1.8,1.8,2.7,2.7C23.4,588.9,23.5,589,23.6,589.1
				L23.6,589.1z"/>
			<path class="st1" d="M17,577.7c0.8-0.8,1.5-1.5,2.3-2.3c0.1-0.1,0.2-0.2,0.1-0.4c-0.3-1-0.2-1.9,0.6-2.7s1.7-0.9,2.7-0.5
				c0.2,0.1,0.2,0,0.4-0.1c1-1,1.9-2,2.9-2.9c4,5.2,4.5,12,0,18c-1-1-2-2-2.9-2.9c1-1.5,0.9-2.7-0.1-3.7c-0.8-0.7-2.3-1.1-3.5,0
				C18.6,579.3,17.9,578.5,17,577.7L17,577.7z"/>
		</g>
	</g>
</g>
</svg>
